<svg width="102" height="139" viewBox="0 0 102 139" fill="none" xmlns="http://www.w3.org/2000/svg">
<path d="M5.124 10.076C4.396 10.0667 3.74267 9.96399 3.164 9.76799C2.58533 9.57199 2.09067 9.29666 1.68 8.94199C1.27867 8.57799 0.966 8.14399 0.742 7.63999C0.527333 7.12666 0.42 6.55266 0.42 5.91799C0.42 5.30199 0.527333 4.74199 0.742 4.23799C0.956666 3.73399 1.26467 3.30466 1.666 2.94999C2.07667 2.58599 2.57133 2.30599 3.15 2.10999C3.72867 1.90466 4.38667 1.79266 5.124 1.77399V0.709991L6.076 0.709991V1.77399C6.81333 1.79266 7.47133 1.90466 8.05 2.10999C8.62867 2.30599 9.11867 2.58599 9.52 2.94999C9.93067 3.30466 10.2433 3.73399 10.458 4.23799C10.6727 4.74199 10.78 5.30199 10.78 5.91799C10.78 6.55266 10.668 7.12666 10.444 7.63999C10.2293 8.14399 9.91667 8.57799 9.506 8.94199C9.10467 9.29666 8.61467 9.57199 8.036 9.76799C7.45733 9.96399 6.804 10.0667 6.076 10.076V11.336H5.124V10.076ZM5.124 2.55799C3.864 2.61399 2.92133 2.92666 2.296 3.49599C1.67067 4.06532 1.358 4.87266 1.358 5.91799C1.358 6.95399 1.67533 7.76133 2.31 8.33999C2.94467 8.90932 3.88267 9.23132 5.124 9.30599V2.55799ZM6.076 9.30599C7.31733 9.23132 8.25533 8.90932 8.89 8.33999C9.52467 7.76133 9.842 6.95399 9.842 5.91799C9.842 4.87266 9.52933 4.06532 8.904 3.49599C8.27867 2.92666 7.336 2.61399 6.076 2.55799V9.30599Z" fill="black"/>
<path d="M12.2053 1.00399L13.1573 1.00399V9.97799L18.8973 1.00399H20.1293V11H19.1773V2.02599L13.4373 11H12.2053V1.00399Z" fill="black"/>
<path d="M22.1447 1.00399H23.0967V6.37999L28.9067 1.00399H30.1947L25.7287 5.13399L30.4047 11L29.1727 11L25.0147 5.79199L23.0967 7.56999V11H22.1447V1.00399Z" fill="black"/>
<path d="M32.1468 11.112C31.9228 11.112 31.7175 11.098 31.5308 11.07C31.3535 11.042 31.2135 11.0093 31.1108 10.972V10.132C31.2322 10.1787 31.3768 10.2207 31.5448 10.258C31.7128 10.286 31.9088 10.3 32.1328 10.3C32.4875 10.3 32.7815 10.188 33.0148 9.96399C33.2575 9.73999 33.4908 9.38999 33.7148 8.91399L33.8408 8.64799L30.1308 1.00399L31.1528 1.00399L34.4008 7.63999L37.5648 1.00399H38.5728L34.6388 9.15199C34.4335 9.58133 34.2328 9.92666 34.0368 10.188C33.8408 10.44 33.6402 10.636 33.4348 10.776C33.2388 10.916 33.0335 11.0047 32.8188 11.042C32.6135 11.0887 32.3895 11.112 32.1468 11.112Z" fill="black"/>
<path d="M43.6953 11.196C42.9113 11.196 42.2206 11.056 41.6233 10.776C41.0353 10.4867 40.5453 10.104 40.1533 9.62799C39.7613 9.15199 39.4673 8.60133 39.2713 7.97599C39.0753 7.35066 38.9773 6.69266 38.9773 6.00199C38.9773 5.32066 39.0753 4.66733 39.2713 4.04199C39.4673 3.40733 39.7613 2.85199 40.1533 2.37599C40.5453 1.89066 41.0353 1.50799 41.6233 1.22799C42.2206 0.938658 42.9113 0.793992 43.6953 0.793992C44.1713 0.793992 44.6333 0.863992 45.0813 1.00399C45.5386 1.14399 45.9493 1.35399 46.3133 1.63399C46.6866 1.90466 46.9946 2.24066 47.2373 2.64199C47.4893 3.04333 47.648 3.50533 47.7133 4.02799H46.7613C46.6773 3.64533 46.5373 3.30466 46.3413 3.00599C46.1546 2.69799 45.9213 2.44132 45.6413 2.23599C45.3706 2.03066 45.0673 1.87666 44.7313 1.77399C44.4046 1.66199 44.0593 1.60599 43.6953 1.60599C43.0326 1.60599 42.4633 1.73199 41.9873 1.98399C41.5113 2.23599 41.1193 2.57199 40.8113 2.99199C40.5126 3.40266 40.2886 3.87399 40.1393 4.40599C39.9993 4.92866 39.9293 5.46066 39.9293 6.00199C39.9293 6.55266 39.9993 7.08933 40.1393 7.61199C40.2886 8.13466 40.5126 8.60599 40.8113 9.02599C41.1193 9.43666 41.5113 9.76799 41.9873 10.02C42.4633 10.272 43.0326 10.398 43.6953 10.398C44.1526 10.398 44.568 10.314 44.9413 10.146C45.324 9.97799 45.6506 9.74933 45.9213 9.45999C46.192 9.17066 46.4113 8.83466 46.5793 8.45199C46.7473 8.05999 46.8546 7.63999 46.9013 7.19199H47.8533C47.788 7.80799 47.6433 8.36333 47.4193 8.85799C47.1953 9.35266 46.906 9.77266 46.5513 10.118C46.1966 10.4633 45.7766 10.7293 45.2913 10.916C44.8153 11.1027 44.2833 11.196 43.6953 11.196Z" fill="black"/>
<path d="M53.2072 1.00399L57.4352 1.00399C57.8552 1.00399 58.2566 1.04599 58.6392 1.12999C59.0312 1.20466 59.3719 1.33999 59.6612 1.53599C59.9599 1.72266 60.1979 1.97466 60.3752 2.29199C60.5526 2.59999 60.6412 2.98732 60.6412 3.45399C60.6412 3.71532 60.5992 3.97199 60.5152 4.22399C60.4312 4.46666 60.3099 4.69066 60.1512 4.89599C60.0019 5.09199 59.8199 5.25999 59.6052 5.39999C59.3999 5.53999 59.1666 5.63799 58.9052 5.69399V5.72199C59.5492 5.80599 60.0626 6.07199 60.4452 6.51999C60.8279 6.95866 61.0192 7.50466 61.0192 8.15799C61.0192 8.40066 60.9819 8.68533 60.9072 9.01199C60.8419 9.32933 60.6879 9.63733 60.4452 9.93599C60.2026 10.2347 59.8432 10.4867 59.3672 10.692C58.8912 10.8973 58.2472 11 57.4352 11H53.2072V1.00399ZM57.4352 10.188C57.7899 10.188 58.1259 10.16 58.4432 10.104C58.7606 10.0387 59.0406 9.92666 59.2832 9.76799C59.5259 9.60933 59.7172 9.39933 59.8572 9.13799C59.9972 8.87666 60.0672 8.54066 60.0672 8.12999C60.0672 7.48599 59.8386 7.00533 59.3812 6.68799C58.9332 6.36132 58.2846 6.19799 57.4352 6.19799H54.1592V10.188H57.4352ZM57.4352 5.38599C57.8086 5.38599 58.1352 5.34399 58.4152 5.25999C58.7046 5.16666 58.9426 5.04533 59.1292 4.89599C59.3159 4.73733 59.4559 4.55533 59.5492 4.34999C59.6426 4.14466 59.6892 3.92533 59.6892 3.69199C59.6892 2.44133 58.9379 1.81599 57.4352 1.81599H54.1592V5.38599H57.4352Z" fill="black"/>
<path d="M62.5451 1.00399H63.4971V5.23199H66.9831C67.9164 5.23199 68.6444 5.48866 69.1671 6.00199C69.6898 6.51533 69.9511 7.21999 69.9511 8.11599C69.9511 9.01199 69.6898 9.71666 69.1671 10.23C68.6444 10.7433 67.9164 11 66.9831 11H62.5451V1.00399ZM66.7731 10.188C67.4731 10.188 68.0191 10.006 68.4111 9.64199C68.8031 9.26866 68.9991 8.75999 68.9991 8.11599C68.9991 7.47199 68.8031 6.96799 68.4111 6.60399C68.0191 6.23066 67.4731 6.04399 66.7731 6.04399H63.4971V10.188H66.7731ZM71.4211 1.00399H72.3731V11H71.4211V1.00399Z" fill="black"/>
<path d="M74.385 1.00399L78.823 1.00399C79.271 1.00399 79.677 1.06933 80.041 1.19999C80.405 1.32133 80.7176 1.50799 80.979 1.75999C81.2403 2.00266 81.441 2.30133 81.581 2.65599C81.721 3.01066 81.791 3.41199 81.791 3.85999C81.791 4.30799 81.721 4.70933 81.581 5.06399C81.441 5.41866 81.2403 5.72199 80.979 5.97399C80.7176 6.21666 80.405 6.40333 80.041 6.53399C79.677 6.65533 79.271 6.71599 78.823 6.71599H75.337V11H74.385V1.00399ZM78.613 5.90399C79.2756 5.90399 79.8123 5.73599 80.223 5.39999C80.6336 5.06399 80.839 4.55066 80.839 3.85999C80.839 3.16933 80.6336 2.65599 80.223 2.31999C79.8123 1.98399 79.2756 1.81599 78.613 1.81599H75.337V5.90399H78.613Z" fill="black"/>
<path d="M87.3893 11.196C86.6053 11.196 85.9146 11.056 85.3173 10.776C84.7293 10.4867 84.2393 10.104 83.8473 9.62799C83.4553 9.15199 83.1613 8.60133 82.9653 7.97599C82.7693 7.35066 82.6713 6.69266 82.6713 6.00199C82.6713 5.32066 82.7693 4.66733 82.9653 4.04199C83.1613 3.40733 83.4553 2.85199 83.8473 2.37599C84.2393 1.89066 84.7293 1.50799 85.3173 1.22799C85.9146 0.938659 86.6053 0.793992 87.3893 0.793992C88.1733 0.793992 88.8593 0.938659 89.4473 1.22799C90.0353 1.50799 90.5253 1.89066 90.9173 2.37599C91.3093 2.85199 91.6033 3.40733 91.7993 4.04199C91.9953 4.66733 92.0933 5.32066 92.0933 6.00199C92.0933 6.69266 91.9953 7.35066 91.7993 7.97599C91.6033 8.60133 91.3093 9.15199 90.9173 9.62799C90.5253 10.104 90.0353 10.4867 89.4473 10.776C88.8593 11.056 88.1733 11.196 87.3893 11.196ZM87.3893 10.398C88.0426 10.398 88.6073 10.272 89.0833 10.02C89.5593 9.76799 89.9466 9.43666 90.2453 9.02599C90.5533 8.60599 90.7773 8.13466 90.9173 7.61199C91.0666 7.08933 91.1413 6.55266 91.1413 6.00199C91.1413 5.46066 91.0666 4.92866 90.9173 4.40599C90.7773 3.87399 90.5533 3.40266 90.2453 2.99199C89.9466 2.57199 89.5593 2.23599 89.0833 1.98399C88.6073 1.73199 88.0426 1.60599 87.3893 1.60599C86.7266 1.60599 86.1573 1.73199 85.6813 1.98399C85.2053 2.23599 84.8133 2.57199 84.5053 2.99199C84.2066 3.40266 83.9826 3.87399 83.8333 4.40599C83.6933 4.92866 83.6233 5.46066 83.6233 6.00199C83.6233 6.55266 83.6933 7.08933 83.8333 7.61199C83.9826 8.13466 84.2066 8.60599 84.5053 9.02599C84.8133 9.43666 85.2053 9.76799 85.6813 10.02C86.1573 10.272 86.7266 10.398 87.3893 10.398Z" fill="black"/>
<path d="M97.8223 11.196C97.0383 11.196 96.3476 11.056 95.7503 10.776C95.1623 10.4867 94.6723 10.104 94.2803 9.62799C93.8883 9.15199 93.5943 8.60133 93.3983 7.97599C93.2023 7.35066 93.1043 6.69266 93.1043 6.00199C93.1043 5.32066 93.2023 4.66733 93.3983 4.04199C93.5943 3.40733 93.8883 2.85199 94.2803 2.37599C94.6723 1.89066 95.1623 1.50799 95.7503 1.22799C96.3476 0.938659 97.0383 0.793992 97.8223 0.793992C98.2983 0.793992 98.7603 0.863992 99.2083 1.00399C99.6656 1.14399 100.076 1.35399 100.44 1.63399C100.814 1.90466 101.122 2.24066 101.364 2.64199C101.616 3.04333 101.775 3.50533 101.84 4.02799H100.888C100.804 3.64533 100.664 3.30466 100.468 3.00599C100.282 2.69799 100.048 2.44133 99.7683 2.23599C99.4976 2.03066 99.1943 1.87666 98.8583 1.77399C98.5316 1.66199 98.1863 1.60599 97.8223 1.60599C97.1596 1.60599 96.5903 1.73199 96.1143 1.98399C95.6383 2.23599 95.2463 2.57199 94.9383 2.99199C94.6396 3.40266 94.4156 3.87399 94.2663 4.40599C94.1263 4.92866 94.0563 5.46066 94.0563 6.00199C94.0563 6.55266 94.1263 7.08933 94.2663 7.61199C94.4156 8.13466 94.6396 8.60599 94.9383 9.02599C95.2463 9.43666 95.6383 9.76799 96.1143 10.02C96.5903 10.272 97.1596 10.398 97.8223 10.398C98.2796 10.398 98.6949 10.314 99.0683 10.146C99.4509 9.97799 99.7776 9.74933 100.048 9.45999C100.319 9.17066 100.538 8.83466 100.706 8.45199C100.874 8.05999 100.982 7.63999 101.028 7.19199H101.98C101.915 7.80799 101.77 8.36333 101.546 8.85799C101.322 9.35266 101.033 9.77266 100.678 10.118C100.324 10.4633 99.9036 10.7293 99.4183 10.916C98.9423 11.1027 98.4103 11.196 97.8223 11.196Z" fill="black"/>
<path d="M1.008 21.004H5.446C5.894 21.004 6.3 21.0693 6.664 21.2C7.028 21.3213 7.34067 21.508 7.602 21.76C7.86333 22.0027 8.064 22.3013 8.204 22.656C8.344 23.0107 8.414 23.412 8.414 23.86C8.414 24.308 8.344 24.7093 8.204 25.064C8.064 25.4187 7.86333 25.722 7.602 25.974C7.34067 26.2167 7.028 26.4033 6.664 26.534C6.3 26.6553 5.894 26.716 5.446 26.716H1.96L1.96 31H1.008V21.004ZM5.236 25.904C5.89867 25.904 6.43533 25.736 6.846 25.4C7.25667 25.064 7.462 24.5507 7.462 23.86C7.462 23.1693 7.25667 22.656 6.846 22.32C6.43533 21.984 5.89867 21.816 5.236 21.816L1.96 21.816V25.904H5.236Z" fill="black"/>
<path d="M12.7524 21.004H13.8164L17.7364 31H16.7144L15.4964 27.892H10.9464L9.74236 31H8.73436L12.7524 21.004ZM15.1744 27.08L13.2424 21.956L11.2404 27.08H15.1744Z" fill="black"/>
<path d="M22.1727 31.21C21.5567 31.21 21.0014 31.1353 20.5067 30.986C20.0121 30.8273 19.5921 30.6033 19.2467 30.314C18.9107 30.0153 18.6494 29.656 18.4627 29.236C18.2854 28.8067 18.1967 28.326 18.1967 27.794V27.71H19.1067C19.1067 28.634 19.3914 29.32 19.9607 29.768C20.5301 30.216 21.2907 30.44 22.2427 30.44C22.6627 30.44 23.0407 30.3793 23.3767 30.258C23.7127 30.1273 23.9927 29.9547 24.2167 29.74C24.4501 29.5253 24.6274 29.278 24.7487 28.998C24.8794 28.7087 24.9447 28.4053 24.9447 28.088C24.9447 27.7987 24.8841 27.5373 24.7627 27.304C24.6507 27.0613 24.4921 26.856 24.2867 26.688C24.0814 26.52 23.8387 26.3893 23.5587 26.296C23.2881 26.2027 22.9941 26.156 22.6767 26.156H21.0807V25.344H22.6767C22.9381 25.344 23.1901 25.3067 23.4327 25.232C23.6754 25.1573 23.8901 25.05 24.0767 24.91C24.2634 24.7607 24.4081 24.5787 24.5107 24.364C24.6227 24.14 24.6787 23.8833 24.6787 23.594C24.6787 23.2487 24.6134 22.95 24.4827 22.698C24.3614 22.446 24.1934 22.2407 23.9787 22.082C23.7641 21.914 23.5074 21.7927 23.2087 21.718C22.9101 21.634 22.5927 21.592 22.2567 21.592C21.8647 21.592 21.5007 21.6387 21.1647 21.732C20.8287 21.8253 20.5347 21.97 20.2827 22.166C20.0401 22.3527 19.8441 22.5907 19.6947 22.88C19.5547 23.16 19.4707 23.4867 19.4427 23.86H18.5187C18.5467 23.3467 18.6541 22.8987 18.8407 22.516C19.0367 22.1333 19.2981 21.816 19.6247 21.564C19.9514 21.3027 20.3341 21.1113 20.7727 20.99C21.2207 20.8593 21.7061 20.794 22.2287 20.794C22.6954 20.794 23.1341 20.85 23.5447 20.962C23.9647 21.0647 24.3287 21.228 24.6367 21.452C24.9447 21.676 25.1874 21.9607 25.3647 22.306C25.5421 22.642 25.6307 23.0433 25.6307 23.51C25.6307 23.7713 25.5887 24.0187 25.5047 24.252C25.4207 24.476 25.3087 24.6813 25.1687 24.868C25.0287 25.0453 24.8701 25.1993 24.6927 25.33C24.5154 25.4607 24.3381 25.5587 24.1607 25.624V25.666C24.6927 25.806 25.1127 26.0767 25.4207 26.478C25.7381 26.87 25.8967 27.402 25.8967 28.074C25.8967 28.382 25.8314 28.718 25.7007 29.082C25.5794 29.446 25.3741 29.7867 25.0847 30.104C24.7954 30.4213 24.4127 30.6873 23.9367 30.902C23.4607 31.1073 22.8727 31.21 22.1727 31.21Z" fill="black"/>
<path d="M27.3941 21.004H28.7941L32.2521 29.768L35.6961 21.004H37.0961V31H36.1441V22.362H36.1161L32.7001 31H31.8041L28.3741 22.362H28.3461V31H27.3941V21.004Z" fill="black"/>
<path d="M39.0842 21.004H45.9862V21.816H40.0362V25.428H45.6082V26.24H40.0362V30.188H46.0562V31H39.0842V21.004Z" fill="black"/>
<path d="M47.383 21.004H51.821C52.269 21.004 52.675 21.0693 53.039 21.2C53.403 21.3213 53.7157 21.508 53.977 21.76C54.2383 22.0027 54.439 22.3013 54.579 22.656C54.719 23.0107 54.789 23.412 54.789 23.86C54.789 24.308 54.719 24.7093 54.579 25.064C54.439 25.4187 54.2383 25.722 53.977 25.974C53.7157 26.2167 53.403 26.4033 53.039 26.534C52.675 26.6553 52.269 26.716 51.821 26.716H48.335V31H47.383V21.004ZM51.611 25.904C52.2737 25.904 52.8103 25.736 53.221 25.4C53.6317 25.064 53.837 24.5507 53.837 23.86C53.837 23.1693 53.6317 22.656 53.221 22.32C52.8103 21.984 52.2737 21.816 51.611 21.816H48.335V25.904H51.611Z" fill="black"/>
<path d="M60.3874 31.196C59.6034 31.196 58.9127 31.056 58.3154 30.776C57.7274 30.4867 57.2374 30.104 56.8454 29.628C56.4534 29.152 56.1594 28.6013 55.9634 27.976C55.7674 27.3507 55.6694 26.6927 55.6694 26.002C55.6694 25.3207 55.7674 24.6673 55.9634 24.042C56.1594 23.4073 56.4534 22.852 56.8454 22.376C57.2374 21.8907 57.7274 21.508 58.3154 21.228C58.9127 20.9387 59.6034 20.794 60.3874 20.794C61.1714 20.794 61.8574 20.9387 62.4454 21.228C63.0334 21.508 63.5234 21.8907 63.9154 22.376C64.3074 22.852 64.6014 23.4073 64.7974 24.042C64.9934 24.6673 65.0914 25.3207 65.0914 26.002C65.0914 26.6927 64.9934 27.3507 64.7974 27.976C64.6014 28.6013 64.3074 29.152 63.9154 29.628C63.5234 30.104 63.0334 30.4867 62.4454 30.776C61.8574 31.056 61.1714 31.196 60.3874 31.196ZM60.3874 30.398C61.0407 30.398 61.6054 30.272 62.0814 30.02C62.5574 29.768 62.9447 29.4367 63.2434 29.026C63.5514 28.606 63.7754 28.1347 63.9154 27.612C64.0647 27.0893 64.1394 26.5527 64.1394 26.002C64.1394 25.4607 64.0647 24.9287 63.9154 24.406C63.7754 23.874 63.5514 23.4027 63.2434 22.992C62.9447 22.572 62.5574 22.236 62.0814 21.984C61.6054 21.732 61.0407 21.606 60.3874 21.606C59.7247 21.606 59.1554 21.732 58.6794 21.984C58.2034 22.236 57.8114 22.572 57.5034 22.992C57.2047 23.4027 56.9807 23.874 56.8314 24.406C56.6914 24.9287 56.6214 25.4607 56.6214 26.002C56.6214 26.5527 56.6914 27.0893 56.8314 27.612C56.9807 28.1347 57.2047 28.606 57.5034 29.026C57.8114 29.4367 58.2034 29.768 58.6794 30.02C59.1554 30.272 59.7247 30.398 60.3874 30.398Z" fill="black"/>
<path d="M66.5503 21.004H67.9503L71.4083 29.768L74.8523 21.004H76.2523V31H75.3003V22.362H75.2723L71.8563 31H70.9603L67.5303 22.362H67.5023V31H66.5503V21.004Z" fill="black"/>
<path d="M86.3789 31.196C85.5949 31.196 84.9042 31.056 84.3069 30.776C83.7189 30.4867 83.2289 30.104 82.8369 29.628C82.4449 29.152 82.1509 28.6013 81.9549 27.976C81.7589 27.3507 81.6609 26.6927 81.6609 26.002C81.6609 25.3207 81.7589 24.6673 81.9549 24.042C82.1509 23.4073 82.4449 22.852 82.8369 22.376C83.2289 21.8907 83.7189 21.508 84.3069 21.228C84.9042 20.9387 85.5949 20.794 86.3789 20.794C86.8549 20.794 87.3169 20.864 87.7649 21.004C88.2222 21.144 88.6329 21.354 88.9969 21.634C89.3702 21.9047 89.6782 22.2407 89.9209 22.642C90.1729 23.0433 90.3316 23.5053 90.3969 24.028H89.4449C89.3609 23.6453 89.2209 23.3047 89.0249 23.006C88.8382 22.698 88.6049 22.4413 88.3249 22.236C88.0542 22.0307 87.7509 21.8767 87.4149 21.774C87.0882 21.662 86.7429 21.606 86.3789 21.606C85.7162 21.606 85.1469 21.732 84.6709 21.984C84.1949 22.236 83.8029 22.572 83.4949 22.992C83.1962 23.4027 82.9722 23.874 82.8229 24.406C82.6829 24.9287 82.6129 25.4607 82.6129 26.002C82.6129 26.5527 82.6829 27.0893 82.8229 27.612C82.9722 28.1347 83.1962 28.606 83.4949 29.026C83.8029 29.4367 84.1949 29.768 84.6709 30.02C85.1469 30.272 85.7162 30.398 86.3789 30.398C86.8362 30.398 87.2516 30.314 87.6249 30.146C88.0076 29.978 88.3342 29.7493 88.6049 29.46C88.8756 29.1707 89.0949 28.8347 89.2629 28.452C89.4309 28.06 89.5382 27.64 89.5849 27.192H90.5369C90.4716 27.808 90.3269 28.3633 90.1029 28.858C89.8789 29.3527 89.5896 29.7727 89.2349 30.118C88.8802 30.4633 88.4602 30.7293 87.9749 30.916C87.4989 31.1027 86.9669 31.196 86.3789 31.196Z" fill="black"/>
<path d="M0 50.188H1.05C1.40467 49.5347 1.68 48.8673 1.876 48.186C2.072 47.4953 2.21667 46.8093 2.31 46.128C2.41267 45.4467 2.47333 44.784 2.492 44.14C2.52 43.496 2.534 42.8893 2.534 42.32V41.004H8.722V50.188H9.912V53.66H8.96V51H0.952V53.66H2.25918e-08L0 50.188ZM7.77 50.188V41.816H3.486V42.152C3.486 42.712 3.47667 43.3233 3.458 43.986C3.44867 44.6393 3.39733 45.316 3.304 46.016C3.21067 46.716 3.066 47.4207 2.87 48.13C2.68333 48.8393 2.41267 49.5253 2.058 50.188H7.77Z" fill="black"/>
<path d="M15.2155 51.196C14.4315 51.196 13.7408 51.056 13.1435 50.776C12.5555 50.4867 12.0655 50.104 11.6735 49.628C11.2815 49.152 10.9875 48.6013 10.7915 47.976C10.5955 47.3507 10.4975 46.6927 10.4975 46.002C10.4975 45.3207 10.5955 44.6673 10.7915 44.042C10.9875 43.4073 11.2815 42.852 11.6735 42.376C12.0655 41.8907 12.5555 41.508 13.1435 41.228C13.7408 40.9387 14.4315 40.794 15.2155 40.794C15.9995 40.794 16.6855 40.9387 17.2735 41.228C17.8615 41.508 18.3515 41.8907 18.7435 42.376C19.1355 42.852 19.4295 43.4073 19.6255 44.042C19.8215 44.6673 19.9195 45.3207 19.9195 46.002C19.9195 46.6927 19.8215 47.3507 19.6255 47.976C19.4295 48.6013 19.1355 49.152 18.7435 49.628C18.3515 50.104 17.8615 50.4867 17.2735 50.776C16.6855 51.056 15.9995 51.196 15.2155 51.196ZM15.2155 50.398C15.8688 50.398 16.4335 50.272 16.9095 50.02C17.3855 49.768 17.7728 49.4367 18.0715 49.026C18.3795 48.606 18.6035 48.1347 18.7435 47.612C18.8928 47.0893 18.9675 46.5527 18.9675 46.002C18.9675 45.4607 18.8928 44.9287 18.7435 44.406C18.6035 43.874 18.3795 43.4027 18.0715 42.992C17.7728 42.572 17.3855 42.236 16.9095 41.984C16.4335 41.732 15.8688 41.606 15.2155 41.606C14.5528 41.606 13.9835 41.732 13.5075 41.984C13.0315 42.236 12.6395 42.572 12.3315 42.992C12.0328 43.4027 11.8088 43.874 11.6595 44.406C11.5195 44.9287 11.4495 45.4607 11.4495 46.002C11.4495 46.5527 11.5195 47.0893 11.6595 47.612C11.8088 48.1347 12.0328 48.606 12.3315 49.026C12.6395 49.4367 13.0315 49.768 13.5075 50.02C13.9835 50.272 14.5528 50.398 15.2155 50.398Z" fill="black"/>
<path d="M21.3784 41.004H22.7784L26.2364 49.768L29.6804 41.004H31.0804L31.0804 51H30.1284V42.362H30.1004L26.6844 51H25.7884L22.3584 42.362H22.3304L22.3304 51H21.3784V41.004Z" fill="black"/>
<path d="M33.8805 44.056V40.92H34.9025V44.056L34.7065 48.466H34.0765L33.8805 44.056ZM33.8805 51V49.768H34.9025V51H33.8805Z" fill="black"/>
<path d="M41.6271 41.004H42.5791V50.188H47.3111V41.004H48.2631V50.188H52.9951V41.004H53.9471V51H41.6271V41.004Z" fill="black"/>
<path d="M60.1549 51.196C59.3709 51.196 58.6803 51.056 58.0829 50.776C57.4949 50.4867 57.0049 50.104 56.6129 49.628C56.2209 49.152 55.9269 48.6013 55.7309 47.976C55.5349 47.3507 55.4369 46.6927 55.4369 46.002C55.4369 45.3207 55.5349 44.6673 55.7309 44.042C55.9269 43.4073 56.2209 42.852 56.6129 42.376C57.0049 41.8907 57.4949 41.508 58.0829 41.228C58.6803 40.9387 59.3709 40.794 60.1549 40.794C60.9389 40.794 61.6249 40.9387 62.2129 41.228C62.8009 41.508 63.2909 41.8907 63.6829 42.376C64.0749 42.852 64.3689 43.4073 64.5649 44.042C64.7609 44.6673 64.8589 45.3207 64.8589 46.002C64.8589 46.6927 64.7609 47.3507 64.5649 47.976C64.3689 48.6013 64.0749 49.152 63.6829 49.628C63.2909 50.104 62.8009 50.4867 62.2129 50.776C61.6249 51.056 60.9389 51.196 60.1549 51.196ZM60.1549 50.398C60.8083 50.398 61.3729 50.272 61.8489 50.02C62.3249 49.768 62.7123 49.4367 63.0109 49.026C63.3189 48.606 63.5429 48.1347 63.6829 47.612C63.8323 47.0893 63.9069 46.5527 63.9069 46.002C63.9069 45.4607 63.8323 44.9287 63.6829 44.406C63.5429 43.874 63.3189 43.4027 63.0109 42.992C62.7123 42.572 62.3249 42.236 61.8489 41.984C61.3729 41.732 60.8083 41.606 60.1549 41.606C59.4923 41.606 58.9229 41.732 58.4469 41.984C57.9709 42.236 57.5789 42.572 57.2709 42.992C56.9723 43.4027 56.7483 43.874 56.5989 44.406C56.4589 44.9287 56.3889 45.4607 56.3889 46.002C56.3889 46.5527 56.4589 47.0893 56.5989 47.612C56.7483 48.1347 56.9723 48.606 57.2709 49.026C57.5789 49.4367 57.9709 49.768 58.4469 50.02C58.9229 50.272 59.4923 50.398 60.1549 50.398Z" fill="black"/>
<path d="M66.3459 41.004H67.2979V46.38L73.1079 41.004H74.3959L69.9299 45.134L74.6059 51H73.3739L69.2159 45.792L67.2979 47.57V51H66.3459V41.004Z" fill="black"/>
<path d="M76.236 44.056V40.92H77.258V44.056L77.062 48.466H76.432L76.236 44.056ZM76.236 51V49.768H77.258V51H76.236Z" fill="black"/>
<path d="M80.8981 44.056V40.92H81.9201V44.056L81.7241 48.466H81.0941L80.8981 44.056ZM80.8981 51V49.768H81.9201V51H80.8981Z" fill="black"/>
<path d="M85.5602 44.056V40.92H86.5822V44.056L86.3862 48.466H85.7562L85.5602 44.056ZM85.5602 51V49.768H86.5822V51H85.5602Z" fill="black"/>
<path d="M1.036 118L1.036 107.92H7.532V108.732L1.988 108.732V112.372H7.028V113.184H1.988V118H1.036Z" fill="black"/>
<path d="M9.2493 118L9.2493 107.92H10.2013V118H9.2493Z" fill="black"/>
<path d="M16.7158 112.61C17.0704 112.61 17.3971 112.573 17.6958 112.498C18.0038 112.423 18.2698 112.307 18.4938 112.148C18.7178 111.98 18.8951 111.77 19.0258 111.518C19.1564 111.266 19.2218 110.963 19.2218 110.608C19.2218 110.235 19.1518 109.927 19.0118 109.684C18.8811 109.441 18.6991 109.25 18.4658 109.11C18.2418 108.97 17.9804 108.872 17.6818 108.816C17.3924 108.76 17.0891 108.732 16.7718 108.732H13.7478V112.61H16.7158ZM13.7478 113.422V118H12.7958V107.92H16.7438C17.8544 107.92 18.7038 108.13 19.2918 108.55C19.8798 108.961 20.1738 109.633 20.1738 110.566C20.1738 111.201 20.0431 111.705 19.7818 112.078C19.5298 112.451 19.1144 112.769 18.5358 113.03C18.8344 113.133 19.0678 113.282 19.2358 113.478C19.4038 113.674 19.5298 113.898 19.6138 114.15C19.6978 114.402 19.7491 114.668 19.7678 114.948C19.7958 115.228 19.8144 115.499 19.8238 115.76C19.8331 116.143 19.8471 116.46 19.8658 116.712C19.8938 116.964 19.9218 117.169 19.9498 117.328C19.9871 117.487 20.0291 117.613 20.0758 117.706C20.1224 117.79 20.1784 117.855 20.2438 117.902V118H19.1938C19.0911 117.832 19.0164 117.599 18.9698 117.3C18.9324 117.001 18.8998 116.689 18.8718 116.362C18.8531 116.035 18.8344 115.718 18.8158 115.41C18.8064 115.102 18.7831 114.85 18.7458 114.654C18.6898 114.383 18.5964 114.169 18.4658 114.01C18.3444 113.842 18.1951 113.716 18.0178 113.632C17.8404 113.548 17.6398 113.492 17.4158 113.464C17.2011 113.436 16.9771 113.422 16.7438 113.422H13.7478Z" fill="black"/>
<path d="M22.1477 118V107.92H28.8537V108.732H23.0997V112.372H28.2937V113.184H23.0997V117.188H28.9937V118H22.1477Z" fill="black"/>
<path d="M31.0003 118V116.768H32.0223V118H31.0003Z" fill="black"/>
<path d="M34.5607 118V107.92H38.2427C38.8961 107.92 39.4327 107.995 39.8527 108.144C40.2821 108.293 40.6181 108.499 40.8607 108.76C41.1127 109.021 41.2854 109.325 41.3787 109.67C41.4814 110.006 41.5327 110.361 41.5327 110.734C41.5327 111.294 41.4161 111.756 41.1828 112.12C40.9588 112.484 40.6648 112.773 40.3008 112.988C39.9368 113.193 39.5214 113.338 39.0547 113.422C38.5974 113.506 38.1354 113.548 37.6688 113.548H35.5127V118H34.5607ZM37.6968 112.736C38.1448 112.736 38.5461 112.708 38.9007 112.652C39.2554 112.596 39.5541 112.493 39.7967 112.344C40.0487 112.185 40.2401 111.975 40.3708 111.714C40.5108 111.443 40.5807 111.093 40.5807 110.664C40.5807 110.029 40.3707 109.549 39.9507 109.222C39.5401 108.895 38.8821 108.732 37.9767 108.732H35.5127V112.736H37.6968Z" fill="black"/>
<path d="M47.0673 112.61C47.422 112.61 47.7487 112.573 48.0473 112.498C48.3553 112.423 48.6213 112.307 48.8453 112.148C49.0693 111.98 49.2467 111.77 49.3773 111.518C49.508 111.266 49.5733 110.963 49.5733 110.608C49.5733 110.235 49.5033 109.927 49.3633 109.684C49.2327 109.441 49.0507 109.25 48.8173 109.11C48.5933 108.97 48.332 108.872 48.0333 108.816C47.744 108.76 47.4407 108.732 47.1233 108.732H44.0993V112.61H47.0673ZM44.0993 113.422V118H43.1473V107.92H47.0953C48.206 107.92 49.0553 108.13 49.6433 108.55C50.2313 108.961 50.5253 109.633 50.5253 110.566C50.5253 111.201 50.3947 111.705 50.1333 112.078C49.8813 112.451 49.466 112.769 48.8873 113.03C49.186 113.133 49.4193 113.282 49.5873 113.478C49.7553 113.674 49.8813 113.898 49.9653 114.15C50.0493 114.402 50.1007 114.668 50.1193 114.948C50.1473 115.228 50.166 115.499 50.1753 115.76C50.1847 116.143 50.1987 116.46 50.2173 116.712C50.2453 116.964 50.2733 117.169 50.3013 117.328C50.3387 117.487 50.3807 117.613 50.4273 117.706C50.474 117.79 50.53 117.855 50.5953 117.902V118H49.5453C49.4427 117.832 49.368 117.599 49.3213 117.3C49.284 117.001 49.2513 116.689 49.2233 116.362C49.2047 116.035 49.186 115.718 49.1673 115.41C49.158 115.102 49.1347 114.85 49.0973 114.654C49.0413 114.383 48.948 114.169 48.8173 114.01C48.696 113.842 48.5467 113.716 48.3693 113.632C48.192 113.548 47.9913 113.492 47.7673 113.464C47.5527 113.436 47.3287 113.422 47.0953 113.422H44.0993Z" fill="black"/>
<path d="M52.4992 118V107.92H59.2052V108.732H53.4512V112.372H58.6452V113.184H53.4512V117.188H59.3452V118H52.4992Z" fill="black"/>
<path d="M61.4498 114.99C61.4872 115.438 61.5852 115.821 61.7438 116.138C61.9118 116.446 62.1218 116.698 62.3738 116.894C62.6352 117.09 62.9338 117.235 63.2698 117.328C63.6058 117.412 63.9652 117.454 64.3478 117.454C64.7958 117.454 65.1832 117.398 65.5098 117.286C65.8365 117.174 66.1025 117.025 66.3078 116.838C66.5132 116.642 66.6625 116.418 66.7558 116.166C66.8585 115.914 66.9098 115.648 66.9098 115.368C66.9098 114.976 66.8212 114.659 66.6438 114.416C66.4665 114.173 66.2332 113.977 65.9438 113.828C65.6638 113.669 65.3372 113.543 64.9638 113.45C64.5998 113.357 64.2218 113.268 63.8298 113.184C63.4472 113.091 63.0692 112.983 62.6958 112.862C62.3318 112.741 62.0052 112.577 61.7158 112.372C61.4358 112.167 61.2072 111.905 61.0298 111.588C60.8525 111.261 60.7638 110.851 60.7638 110.356C60.7638 110.011 60.8338 109.675 60.9738 109.348C61.1232 109.021 61.3378 108.732 61.6178 108.48C61.9072 108.228 62.2665 108.027 62.6958 107.878C63.1252 107.729 63.6198 107.654 64.1798 107.654C64.7492 107.654 65.2438 107.733 65.6638 107.892C66.0932 108.051 66.4478 108.27 66.7278 108.55C67.0078 108.821 67.2178 109.138 67.3578 109.502C67.4978 109.866 67.5678 110.253 67.5678 110.664H66.6578C66.6578 110.281 66.5878 109.95 66.4478 109.67C66.3172 109.39 66.1352 109.161 65.9018 108.984C65.6685 108.807 65.4025 108.676 65.1038 108.592C64.8052 108.508 64.4972 108.466 64.1798 108.466C63.6945 108.466 63.2838 108.536 62.9478 108.676C62.6212 108.807 62.3598 108.979 62.1638 109.194C61.9678 109.409 61.8325 109.647 61.7578 109.908C61.6832 110.169 61.6692 110.431 61.7158 110.692C61.7718 111.019 61.9025 111.28 62.1078 111.476C62.3132 111.672 62.5652 111.835 62.8638 111.966C63.1625 112.087 63.4892 112.19 63.8438 112.274C64.2078 112.349 64.5765 112.433 64.9498 112.526C65.3232 112.61 65.6825 112.713 66.0278 112.834C66.3825 112.955 66.6952 113.119 66.9658 113.324C67.2365 113.529 67.4512 113.795 67.6098 114.122C67.7778 114.439 67.8618 114.841 67.8618 115.326C67.8618 116.259 67.5398 116.983 66.8958 117.496C66.2518 118.009 65.3465 118.266 64.1798 118.266C63.6572 118.266 63.1718 118.196 62.7238 118.056C62.2758 117.925 61.8885 117.725 61.5618 117.454C61.2352 117.174 60.9785 116.833 60.7918 116.432C60.6145 116.021 60.5258 115.541 60.5258 114.99H61.4498Z" fill="black"/>
<path d="M70.0084 114.99C70.0458 115.438 70.1438 115.821 70.3024 116.138C70.4704 116.446 70.6804 116.698 70.9324 116.894C71.1938 117.09 71.4924 117.235 71.8284 117.328C72.1644 117.412 72.5238 117.454 72.9064 117.454C73.3544 117.454 73.7418 117.398 74.0684 117.286C74.3951 117.174 74.6611 117.025 74.8664 116.838C75.0718 116.642 75.2211 116.418 75.3144 116.166C75.4171 115.914 75.4684 115.648 75.4684 115.368C75.4684 114.976 75.3798 114.659 75.2024 114.416C75.0251 114.173 74.7918 113.977 74.5024 113.828C74.2224 113.669 73.8958 113.543 73.5224 113.45C73.1584 113.357 72.7804 113.268 72.3884 113.184C72.0058 113.091 71.6278 112.983 71.2544 112.862C70.8904 112.741 70.5638 112.577 70.2744 112.372C69.9944 112.167 69.7658 111.905 69.5884 111.588C69.4111 111.261 69.3224 110.851 69.3224 110.356C69.3224 110.011 69.3924 109.675 69.5324 109.348C69.6818 109.021 69.8964 108.732 70.1764 108.48C70.4658 108.228 70.8251 108.027 71.2544 107.878C71.6838 107.729 72.1784 107.654 72.7384 107.654C73.3078 107.654 73.8024 107.733 74.2224 107.892C74.6518 108.051 75.0064 108.27 75.2864 108.55C75.5664 108.821 75.7764 109.138 75.9164 109.502C76.0564 109.866 76.1264 110.253 76.1264 110.664H75.2164C75.2164 110.281 75.1464 109.95 75.0064 109.67C74.8758 109.39 74.6938 109.161 74.4604 108.984C74.2271 108.807 73.9611 108.676 73.6624 108.592C73.3638 108.508 73.0558 108.466 72.7384 108.466C72.2531 108.466 71.8424 108.536 71.5064 108.676C71.1798 108.807 70.9184 108.979 70.7224 109.194C70.5264 109.409 70.3911 109.647 70.3164 109.908C70.2418 110.169 70.2278 110.431 70.2744 110.692C70.3304 111.019 70.4611 111.28 70.6664 111.476C70.8718 111.672 71.1238 111.835 71.4224 111.966C71.7211 112.087 72.0478 112.19 72.4024 112.274C72.7664 112.349 73.1351 112.433 73.5084 112.526C73.8818 112.61 74.2411 112.713 74.5864 112.834C74.9411 112.955 75.2538 113.119 75.5244 113.324C75.7951 113.529 76.0098 113.795 76.1684 114.122C76.3364 114.439 76.4204 114.841 76.4204 115.326C76.4204 116.259 76.0984 116.983 75.4544 117.496C74.8104 118.009 73.9051 118.266 72.7384 118.266C72.2158 118.266 71.7304 118.196 71.2824 118.056C70.8344 117.925 70.4471 117.725 70.1204 117.454C69.7938 117.174 69.5371 116.833 69.3504 116.432C69.1731 116.021 69.0844 115.541 69.0844 114.99H70.0084Z" fill="black"/>
<path d="M0.224 127.92H7.56V128.732H4.368V138H3.416V128.732H0.224L0.224 127.92Z" fill="black"/>
<path d="M13.1973 133.604V132.792H17.5093V138H16.6973V136.278C16.52 136.577 16.3146 136.852 16.0813 137.104C15.8573 137.347 15.596 137.557 15.2973 137.734C14.9986 137.902 14.6533 138.033 14.2613 138.126C13.8693 138.219 13.426 138.266 12.9313 138.266C12.2966 138.266 11.7086 138.154 11.1673 137.93C10.626 137.706 10.1593 137.375 9.7673 136.936C9.3753 136.488 9.0673 135.928 8.8433 135.256C8.62863 134.584 8.5213 133.8 8.5213 132.904C8.5213 132.167 8.61463 131.481 8.8013 130.846C8.98796 130.202 9.27263 129.647 9.6553 129.18C10.0473 128.704 10.5326 128.331 11.1113 128.06C11.6993 127.789 12.39 127.654 13.1833 127.654C13.7153 127.654 14.21 127.719 14.6673 127.85C15.134 127.981 15.5493 128.181 15.9133 128.452C16.2866 128.713 16.5993 129.045 16.8513 129.446C17.1033 129.838 17.2853 130.305 17.3973 130.846H16.4173C16.3333 130.473 16.1886 130.137 15.9833 129.838C15.7873 129.539 15.5493 129.292 15.2693 129.096C14.9893 128.891 14.6766 128.737 14.3313 128.634C13.986 128.522 13.6266 128.466 13.2533 128.466C12.5906 128.466 12.0213 128.583 11.5453 128.816C11.0693 129.049 10.6773 129.381 10.3693 129.81C10.0613 130.23 9.83263 130.739 9.6833 131.336C9.5433 131.924 9.4733 132.573 9.4733 133.282C9.4733 133.842 9.55263 134.374 9.7113 134.878C9.8793 135.382 10.1173 135.825 10.4253 136.208C10.7426 136.591 11.1253 136.894 11.5733 137.118C12.0306 137.342 12.5486 137.454 13.1273 137.454C13.398 137.454 13.678 137.426 13.9673 137.37C14.2566 137.305 14.5366 137.202 14.8073 137.062C15.078 136.922 15.33 136.74 15.5633 136.516C15.7966 136.292 15.9973 136.017 16.1653 135.69C16.324 135.373 16.4313 135.041 16.4873 134.696C16.5526 134.351 16.59 133.987 16.5993 133.604H13.1973Z" fill="black"/>
<path d="M20.1038 138V136.768H21.1258V138H20.1038ZM20.1038 132.344V131.112H21.1258V132.344H20.1038Z" fill="black"/>
<path d="M26.4783 133.17C26.1329 133.17 25.8156 133.212 25.5263 133.296C25.2369 133.38 24.9849 133.511 24.7703 133.688C24.5556 133.856 24.3876 134.075 24.2663 134.346C24.1449 134.607 24.0843 134.92 24.0843 135.284C24.0843 135.592 24.1403 135.877 24.2523 136.138C24.3736 136.399 24.5369 136.628 24.7423 136.824C24.9569 137.011 25.2136 137.16 25.5123 137.272C25.8203 137.384 26.1609 137.44 26.5343 137.44C26.8609 137.44 27.1643 137.389 27.4443 137.286C27.7243 137.174 27.9669 137.02 28.1723 136.824C28.3869 136.628 28.5503 136.395 28.6623 136.124C28.7836 135.853 28.8443 135.555 28.8443 135.228C28.8443 134.883 28.7836 134.584 28.6623 134.332C28.5409 134.071 28.3729 133.856 28.1583 133.688C27.9436 133.511 27.6916 133.38 27.4023 133.296C27.1129 133.212 26.8049 133.17 26.4783 133.17ZM26.4363 128.886C26.1563 128.886 25.8949 128.923 25.6523 128.998C25.4096 129.073 25.1949 129.185 25.0083 129.334C24.8309 129.483 24.6909 129.67 24.5883 129.894C24.4856 130.118 24.4343 130.375 24.4343 130.664C24.4343 130.972 24.4903 131.238 24.6023 131.462C24.7236 131.677 24.8823 131.854 25.0783 131.994C25.2743 132.134 25.4983 132.241 25.7503 132.316C26.0023 132.381 26.2636 132.414 26.5343 132.414C26.8049 132.414 27.0569 132.381 27.2903 132.316C27.5236 132.241 27.7243 132.125 27.8923 131.966C28.0603 131.807 28.1909 131.607 28.2843 131.364C28.3869 131.121 28.4383 130.823 28.4383 130.468C28.4383 129.964 28.2749 129.577 27.9483 129.306C27.6216 129.026 27.1176 128.886 26.4363 128.886ZM24.9103 132.694C24.6676 132.545 24.4576 132.405 24.2803 132.274C24.1123 132.134 23.9723 131.985 23.8603 131.826C23.7483 131.667 23.6643 131.49 23.6083 131.294C23.5616 131.089 23.5383 130.837 23.5383 130.538C23.5383 130.202 23.6129 129.885 23.7623 129.586C23.9116 129.287 24.1123 129.031 24.3643 128.816C24.6163 128.592 24.9103 128.419 25.2463 128.298C25.5916 128.177 25.9603 128.121 26.3523 128.13C26.7256 128.13 27.0896 128.177 27.4443 128.27C27.8083 128.363 28.1303 128.508 28.4103 128.704C28.6903 128.9 28.9143 129.152 29.0823 129.46C29.2503 129.759 29.3343 130.118 29.3343 130.538C29.3343 131.051 29.2269 131.49 29.0123 131.854C28.8069 132.218 28.4663 132.517 27.9903 132.75C28.5316 132.946 28.9563 133.259 29.2643 133.688C29.5816 134.117 29.7403 134.621 29.7403 135.2C29.7403 135.685 29.6563 136.115 29.4883 136.488C29.3296 136.861 29.0963 137.174 28.7883 137.426C28.4896 137.678 28.1256 137.869 27.6963 138C27.2669 138.131 26.7909 138.196 26.2683 138.196C25.9136 138.196 25.5496 138.135 25.1763 138.014C24.8123 137.893 24.4809 137.711 24.1823 137.468C23.8929 137.225 23.6549 136.922 23.4683 136.558C23.2816 136.194 23.1883 135.769 23.1883 135.284C23.1883 134.696 23.3329 134.173 23.6223 133.716C23.9209 133.249 24.3503 132.909 24.9103 132.694Z" fill="black"/>
<path d="M32.4376 129.208H32.4096V138H31.4576V127.92H32.5356L38.3596 136.726H38.3876V127.92H39.3396V138H38.2336L32.4376 129.208Z" fill="black"/>
</svg>
