<svg width="154" height="34" viewBox="0 0 154 34" fill="none" xmlns="http://www.w3.org/2000/svg">
<path d="M5.194 11.196C4.41 11.196 3.71933 11.056 3.122 10.776C2.534 10.4867 2.044 10.104 1.652 9.62801C1.26 9.15201 0.966 8.60134 0.77 7.97601C0.574 7.35067 0.476 6.69267 0.476 6.00201C0.476 5.32067 0.574 4.66734 0.77 4.04201C0.966 3.40734 1.26 2.85201 1.652 2.37601C2.044 1.89067 2.534 1.50801 3.122 1.22801C3.71933 0.938673 4.41 0.794006 5.194 0.794006C5.978 0.794006 6.664 0.938673 7.252 1.22801C7.84 1.50801 8.33 1.89067 8.722 2.37601C9.114 2.85201 9.408 3.40734 9.604 4.04201C9.8 4.66734 9.898 5.32067 9.898 6.00201C9.898 6.69267 9.8 7.35067 9.604 7.97601C9.408 8.60134 9.114 9.15201 8.722 9.62801C8.33 10.104 7.84 10.4867 7.252 10.776C6.664 11.056 5.978 11.196 5.194 11.196ZM5.194 10.398C5.84733 10.398 6.412 10.272 6.888 10.02C7.364 9.76801 7.75133 9.43667 8.05 9.02601C8.358 8.60601 8.582 8.13467 8.722 7.61201C8.87133 7.08934 8.946 6.55267 8.946 6.00201C8.946 5.46067 8.87133 4.92867 8.722 4.40601C8.582 3.87401 8.358 3.40267 8.05 2.99201C7.75133 2.57201 7.364 2.23601 6.888 1.98401C6.412 1.73201 5.84733 1.60601 5.194 1.60601C4.53133 1.60601 3.962 1.73201 3.486 1.98401C3.01 2.23601 2.618 2.57201 2.31 2.99201C2.01133 3.40267 1.78733 3.87401 1.638 4.40601C1.498 4.92867 1.428 5.46067 1.428 6.00201C1.428 6.55267 1.498 7.08934 1.638 7.61201C1.78733 8.13467 2.01133 8.60601 2.31 9.02601C2.618 9.43667 3.01 9.76801 3.486 10.02C3.962 10.272 4.53133 10.398 5.194 10.398Z" fill="black"/>
<path d="M15.627 11.196C14.843 11.196 14.1523 11.056 13.555 10.776C12.967 10.4867 12.477 10.104 12.085 9.62801C11.693 9.15201 11.399 8.60134 11.203 7.97601C11.007 7.35067 10.909 6.69267 10.909 6.00201C10.909 5.32067 11.007 4.66734 11.203 4.04201C11.399 3.40734 11.693 2.85201 12.085 2.37601C12.477 1.89067 12.967 1.50801 13.555 1.22801C14.1523 0.938673 14.843 0.794006 15.627 0.794006C16.103 0.794006 16.565 0.864006 17.013 1.00401C17.4703 1.14401 17.881 1.35401 18.245 1.63401C18.6183 1.90467 18.9263 2.24067 19.169 2.64201C19.421 3.04334 19.5796 3.50534 19.645 4.02801H18.693C18.609 3.64534 18.469 3.30467 18.273 3.00601C18.0863 2.69801 17.853 2.44134 17.573 2.23601C17.3023 2.03067 16.999 1.87667 16.663 1.77401C16.3363 1.66201 15.991 1.60601 15.627 1.60601C14.9643 1.60601 14.395 1.73201 13.919 1.98401C13.443 2.23601 13.051 2.57201 12.743 2.99201C12.4443 3.40267 12.2203 3.87401 12.071 4.40601C11.931 4.92867 11.861 5.46067 11.861 6.00201C11.861 6.55267 11.931 7.08934 12.071 7.61201C12.2203 8.13467 12.4443 8.60601 12.743 9.02601C13.051 9.43667 13.443 9.76801 13.919 10.02C14.395 10.272 14.9643 10.398 15.627 10.398C16.0843 10.398 16.4996 10.314 16.873 10.146C17.2556 9.97801 17.5823 9.74934 17.853 9.46001C18.1236 9.17067 18.343 8.83467 18.511 8.45201C18.679 8.06001 18.7863 7.64001 18.833 7.19201H19.785C19.7196 7.80801 19.575 8.36334 19.351 8.85801C19.127 9.35267 18.8376 9.77267 18.483 10.118C18.1283 10.4633 17.7083 10.7293 17.223 10.916C16.747 11.1027 16.215 11.196 15.627 11.196Z" fill="black"/>
<path d="M23.6504 1.81601L20.1784 1.81601V1.00401L28.0884 1.00401V1.81601H24.6024V11H23.6504V1.81601Z" fill="black"/>
<path d="M33.2077 11.196C32.4237 11.196 31.733 11.056 31.1357 10.776C30.5477 10.4867 30.0577 10.104 29.6657 9.62801C29.2737 9.15201 28.9797 8.60134 28.7837 7.97601C28.5877 7.35067 28.4897 6.69267 28.4897 6.00201C28.4897 5.32067 28.5877 4.66734 28.7837 4.04201C28.9797 3.40734 29.2737 2.85201 29.6657 2.37601C30.0577 1.89067 30.5477 1.50801 31.1357 1.22801C31.733 0.938673 32.4237 0.794007 33.2077 0.794007C33.9917 0.794007 34.6777 0.938673 35.2657 1.22801C35.8537 1.50801 36.3437 1.89067 36.7357 2.37601C37.1277 2.85201 37.4217 3.40734 37.6177 4.04201C37.8137 4.66734 37.9117 5.32067 37.9117 6.00201C37.9117 6.69267 37.8137 7.35067 37.6177 7.97601C37.4217 8.60134 37.1277 9.15201 36.7357 9.62801C36.3437 10.104 35.8537 10.4867 35.2657 10.776C34.6777 11.056 33.9917 11.196 33.2077 11.196ZM33.2077 10.398C33.861 10.398 34.4257 10.272 34.9017 10.02C35.3777 9.76801 35.765 9.43667 36.0637 9.02601C36.3717 8.60601 36.5957 8.13467 36.7357 7.61201C36.885 7.08934 36.9597 6.55267 36.9597 6.00201C36.9597 5.46067 36.885 4.92867 36.7357 4.40601C36.5957 3.87401 36.3717 3.40267 36.0637 2.99201C35.765 2.57201 35.3777 2.23601 34.9017 1.98401C34.4257 1.73201 33.861 1.60601 33.2077 1.60601C32.545 1.60601 31.9757 1.73201 31.4997 1.98401C31.0237 2.23601 30.6317 2.57201 30.3237 2.99201C30.025 3.40267 29.801 3.87401 29.6517 4.40601C29.5117 4.92867 29.4417 5.46067 29.4417 6.00201C29.4417 6.55267 29.5117 7.08934 29.6517 7.61201C29.801 8.13467 30.025 8.60601 30.3237 9.02601C30.6317 9.43667 31.0237 9.76801 31.4997 10.02C31.9757 10.272 32.545 10.398 33.2077 10.398Z" fill="black"/>
<path d="M39.3986 1.00401L43.8366 1.00401C44.2846 1.00401 44.6906 1.06934 45.0546 1.20001C45.4186 1.32134 45.7313 1.50801 45.9926 1.76001C46.254 2.00267 46.4546 2.30134 46.5946 2.65601C46.7346 3.01067 46.8046 3.41201 46.8046 3.86001C46.8046 4.30801 46.7346 4.70934 46.5946 5.06401C46.4546 5.41867 46.254 5.72201 45.9926 5.97401C45.7313 6.21667 45.4186 6.40334 45.0546 6.53401C44.6906 6.65534 44.2846 6.71601 43.8366 6.71601H40.3506V11H39.3986V1.00401ZM43.6266 5.90401C44.2893 5.90401 44.826 5.73601 45.2366 5.40001C45.6473 5.06401 45.8526 4.55067 45.8526 3.86001C45.8526 3.16934 45.6473 2.65601 45.2366 2.32001C44.826 1.98401 44.2893 1.81601 43.6266 1.81601H40.3506V5.90401H43.6266Z" fill="black"/>
<path d="M52.403 11.196C51.619 11.196 50.9283 11.056 50.331 10.776C49.743 10.4867 49.253 10.104 48.861 9.62801C48.469 9.15201 48.175 8.60134 47.979 7.97601C47.783 7.35067 47.685 6.69267 47.685 6.00201C47.685 5.32067 47.783 4.66734 47.979 4.04201C48.175 3.40734 48.469 2.85201 48.861 2.37601C49.253 1.89067 49.743 1.50801 50.331 1.22801C50.9283 0.938674 51.619 0.794007 52.403 0.794007C53.187 0.794007 53.873 0.938674 54.461 1.22801C55.049 1.50801 55.539 1.89067 55.931 2.37601C56.323 2.85201 56.617 3.40734 56.813 4.04201C57.009 4.66734 57.107 5.32067 57.107 6.00201C57.107 6.69267 57.009 7.35067 56.813 7.97601C56.617 8.60134 56.323 9.15201 55.931 9.62801C55.539 10.104 55.049 10.4867 54.461 10.776C53.873 11.056 53.187 11.196 52.403 11.196ZM52.403 10.398C53.0563 10.398 53.621 10.272 54.097 10.02C54.573 9.76801 54.9603 9.43667 55.259 9.02601C55.567 8.60601 55.791 8.13467 55.931 7.61201C56.0803 7.08934 56.155 6.55267 56.155 6.00201C56.155 5.46067 56.0803 4.92867 55.931 4.40601C55.791 3.87401 55.567 3.40267 55.259 2.99201C54.9603 2.57201 54.573 2.23601 54.097 1.98401C53.621 1.73201 53.0563 1.60601 52.403 1.60601C51.7403 1.60601 51.171 1.73201 50.695 1.98401C50.219 2.23601 49.827 2.57201 49.519 2.99201C49.2203 3.40267 48.9963 3.87401 48.847 4.40601C48.707 4.92867 48.637 5.46067 48.637 6.00201C48.637 6.55267 48.707 7.08934 48.847 7.61201C48.9963 8.13467 49.2203 8.60601 49.519 9.02601C49.827 9.43667 50.219 9.76801 50.695 10.02C51.171 10.272 51.7403 10.398 52.403 10.398Z" fill="black"/>
<path d="M61.9679 5.31601L57.8239 1.00401L59.1119 1.00401L64.0399 6.26801V1.00401L64.9919 1.00401V6.26801L69.9199 1.00401L71.2079 1.00401L67.0639 5.31601L71.5579 11H70.3259L66.3919 6.01601L64.9919 7.47201V11H64.0399V7.47201L62.6399 6.01601L58.7059 11H57.4739L61.9679 5.31601Z" fill="black"/>
<path d="M72.4572 1.00401H73.4092V5.34401H79.3452V1.00401L80.2972 1.00401V11H79.3452V6.15601H73.4092V11H72.4572V1.00401Z" fill="black"/>
<path d="M86.5006 11.196C85.7166 11.196 85.026 11.056 84.4286 10.776C83.8406 10.4867 83.3506 10.104 82.9586 9.62801C82.5666 9.15201 82.2726 8.60134 82.0766 7.97601C81.8806 7.35067 81.7826 6.69267 81.7826 6.00201C81.7826 5.32067 81.8806 4.66734 82.0766 4.04201C82.2726 3.40734 82.5666 2.85201 82.9586 2.37601C83.3506 1.89067 83.8406 1.50801 84.4286 1.22801C85.026 0.938674 85.7166 0.794007 86.5006 0.794007C87.2846 0.794007 87.9706 0.938674 88.5586 1.22801C89.1466 1.50801 89.6366 1.89067 90.0286 2.37601C90.4206 2.85201 90.7146 3.40734 90.9106 4.04201C91.1066 4.66734 91.2046 5.32067 91.2046 6.00201C91.2046 6.69267 91.1066 7.35067 90.9106 7.97601C90.7146 8.60134 90.4206 9.15201 90.0286 9.62801C89.6366 10.104 89.1466 10.4867 88.5586 10.776C87.9706 11.056 87.2846 11.196 86.5006 11.196ZM86.5006 10.398C87.154 10.398 87.7186 10.272 88.1946 10.02C88.6706 9.76801 89.058 9.43667 89.3566 9.02601C89.6646 8.60601 89.8886 8.13467 90.0286 7.61201C90.178 7.08934 90.2526 6.55267 90.2526 6.00201C90.2526 5.46067 90.178 4.92867 90.0286 4.40601C89.8886 3.87401 89.6646 3.40267 89.3566 2.99201C89.058 2.57201 88.6706 2.23601 88.1946 1.98401C87.7186 1.73201 87.154 1.60601 86.5006 1.60601C85.838 1.60601 85.2686 1.73201 84.7926 1.98401C84.3166 2.23601 83.9246 2.57201 83.6166 2.99201C83.318 3.40267 83.094 3.87401 82.9446 4.40601C82.8046 4.92867 82.7346 5.46067 82.7346 6.00201C82.7346 6.55267 82.8046 7.08934 82.9446 7.61201C83.094 8.13467 83.318 8.60601 83.6166 9.02601C83.9246 9.43667 84.3166 9.76801 84.7926 10.02C85.2686 10.272 85.838 10.398 86.5006 10.398Z" fill="black"/>
<path d="M94.1336 11.42C94.1336 11.8307 94.0356 12.1573 93.8396 12.4C93.6529 12.652 93.4103 12.8247 93.1116 12.918V12.4C93.2236 12.3253 93.3309 12.2227 93.4336 12.092C93.5363 11.9613 93.5876 11.756 93.5876 11.476V11H93.1116V9.76801H94.1336V11.42Z" fill="black"/>
<path d="M100.569 1.00401L106.743 1.00401V1.81601H101.521V11H100.569V1.00401Z" fill="black"/>
<path d="M111.862 11.196C111.078 11.196 110.387 11.056 109.79 10.776C109.202 10.4867 108.712 10.104 108.32 9.62801C107.928 9.15201 107.634 8.60134 107.438 7.97601C107.242 7.35067 107.144 6.69267 107.144 6.00201C107.144 5.32067 107.242 4.66734 107.438 4.04201C107.634 3.40734 107.928 2.85201 108.32 2.37601C108.712 1.89067 109.202 1.50801 109.79 1.22801C110.387 0.938674 111.078 0.794007 111.862 0.794007C112.646 0.794007 113.332 0.938674 113.92 1.22801C114.508 1.50801 114.998 1.89067 115.39 2.37601C115.782 2.85201 116.076 3.40734 116.272 4.04201C116.468 4.66734 116.566 5.32067 116.566 6.00201C116.566 6.69267 116.468 7.35067 116.272 7.97601C116.076 8.60134 115.782 9.15201 115.39 9.62801C114.998 10.104 114.508 10.4867 113.92 10.776C113.332 11.056 112.646 11.196 111.862 11.196ZM111.862 10.398C112.515 10.398 113.08 10.272 113.556 10.02C114.032 9.76801 114.419 9.43667 114.718 9.02601C115.026 8.60601 115.25 8.13467 115.39 7.61201C115.539 7.08934 115.614 6.55267 115.614 6.00201C115.614 5.46067 115.539 4.92867 115.39 4.40601C115.25 3.87401 115.026 3.40267 114.718 2.99201C114.419 2.57201 114.032 2.23601 113.556 1.98401C113.08 1.73201 112.515 1.60601 111.862 1.60601C111.199 1.60601 110.63 1.73201 110.154 1.98401C109.678 2.23601 109.286 2.57201 108.978 2.99201C108.679 3.40267 108.455 3.87401 108.306 4.40601C108.166 4.92867 108.096 5.46067 108.096 6.00201C108.096 6.55267 108.166 7.08934 108.306 7.61201C108.455 8.13467 108.679 8.60601 108.978 9.02601C109.286 9.43667 109.678 9.76801 110.154 10.02C110.63 10.272 111.199 10.398 111.862 10.398Z" fill="black"/>
<path d="M118.053 1.00401L122.491 1.00401C122.939 1.00401 123.345 1.06934 123.709 1.20001C124.073 1.32134 124.386 1.50801 124.647 1.76001C124.908 2.00267 125.109 2.30134 125.249 2.65601C125.389 3.01067 125.459 3.41201 125.459 3.86001C125.459 4.30801 125.389 4.70934 125.249 5.06401C125.109 5.41867 124.908 5.72201 124.647 5.97401C124.386 6.21667 124.073 6.40334 123.709 6.53401C123.345 6.65534 122.939 6.71601 122.491 6.71601H119.005V11H118.053V1.00401ZM122.281 5.90401C122.944 5.90401 123.48 5.73601 123.891 5.40001C124.302 5.06401 124.507 4.55067 124.507 3.86001C124.507 3.16934 124.302 2.65601 123.891 2.32001C123.48 1.98401 122.944 1.81601 122.281 1.81601L119.005 1.81601V5.90401H122.281Z" fill="black"/>
<path d="M129.335 6.66001C128.925 6.64134 128.542 6.56667 128.187 6.43601C127.842 6.30534 127.539 6.12334 127.277 5.89001C127.025 5.65667 126.825 5.37667 126.675 5.05001C126.535 4.71401 126.465 4.32667 126.465 3.88801C126.465 3.44001 126.535 3.03867 126.675 2.68401C126.815 2.32934 127.016 2.03067 127.277 1.78801C127.548 1.53601 127.865 1.34467 128.229 1.21401C128.603 1.07401 129.023 1.00401 129.489 1.00401L133.675 1.00401V11H132.723V6.71601H130.483L127.151 11H125.919L129.335 6.66001ZM132.723 5.90401V1.81601L129.699 1.81601C128.999 1.81601 128.444 2.00267 128.033 2.37601C127.623 2.74001 127.417 3.24401 127.417 3.88801C127.417 4.53201 127.623 5.03134 128.033 5.38601C128.444 5.73134 128.999 5.90401 129.699 5.90401H132.723Z" fill="black"/>
<path d="M141.542 6.45001C141.402 6.48734 141.206 6.52934 140.954 6.57601C140.702 6.62267 140.426 6.66934 140.128 6.71601C139.838 6.75334 139.544 6.79067 139.246 6.82801C138.956 6.85601 138.7 6.87001 138.476 6.87001C137.757 6.87001 137.183 6.78601 136.754 6.61801C136.334 6.44067 136.012 6.21667 135.788 5.94601C135.564 5.66601 135.419 5.35801 135.354 5.02201C135.288 4.67667 135.256 4.33601 135.256 4.00001V1.00401L136.208 1.00401V3.94401C136.208 4.14934 136.226 4.37334 136.264 4.61601C136.301 4.85867 136.394 5.08734 136.544 5.30201C136.693 5.50734 136.908 5.68467 137.188 5.83401C137.477 5.97401 137.874 6.04401 138.378 6.04401C138.676 6.04401 138.984 6.03001 139.302 6.00201C139.628 5.96467 139.936 5.92734 140.226 5.89001C140.515 5.84334 140.772 5.79667 140.996 5.75001C141.229 5.70334 141.411 5.66601 141.542 5.63801V1.00401L142.494 1.00401V11H141.542V6.45001Z" fill="black"/>
<path d="M148.694 11.196C147.91 11.196 147.219 11.056 146.622 10.776C146.034 10.4867 145.544 10.104 145.152 9.62801C144.76 9.15201 144.466 8.60134 144.27 7.97601C144.074 7.35067 143.976 6.69267 143.976 6.00201C143.976 5.32067 144.074 4.66734 144.27 4.04201C144.466 3.40734 144.76 2.85201 145.152 2.37601C145.544 1.89067 146.034 1.50801 146.622 1.22801C147.219 0.938675 147.91 0.794008 148.694 0.794008C149.478 0.794008 150.164 0.938675 150.752 1.22801C151.34 1.50801 151.83 1.89067 152.222 2.37601C152.614 2.85201 152.908 3.40734 153.104 4.04201C153.3 4.66734 153.398 5.32067 153.398 6.00201C153.398 6.69267 153.3 7.35067 153.104 7.97601C152.908 8.60134 152.614 9.15201 152.222 9.62801C151.83 10.104 151.34 10.4867 150.752 10.776C150.164 11.056 149.478 11.196 148.694 11.196ZM148.694 10.398C149.347 10.398 149.912 10.272 150.388 10.02C150.864 9.76801 151.251 9.43668 151.55 9.02601C151.858 8.60601 152.082 8.13467 152.222 7.61201C152.371 7.08934 152.446 6.55267 152.446 6.00201C152.446 5.46067 152.371 4.92867 152.222 4.40601C152.082 3.87401 151.858 3.40267 151.55 2.99201C151.251 2.57201 150.864 2.23601 150.388 1.98401C149.912 1.73201 149.347 1.60601 148.694 1.60601C148.031 1.60601 147.462 1.73201 146.986 1.98401C146.51 2.23601 146.118 2.57201 145.81 2.99201C145.511 3.40267 145.287 3.87401 145.138 4.40601C144.998 4.92867 144.928 5.46067 144.928 6.00201C144.928 6.55267 144.998 7.08934 145.138 7.61201C145.287 8.13467 145.511 8.60601 145.81 9.02601C146.118 9.43668 146.51 9.76801 146.986 10.02C147.462 10.272 148.031 10.398 148.694 10.398Z" fill="black"/>
<path d="M1.12 31L1.12 20.92H2.072V25.246H8.036V20.92H8.988L8.988 31H8.036V26.058H2.072L2.072 31H1.12Z" fill="black"/>
<path d="M10.8455 25.974C10.8455 25.2367 10.9435 24.546 11.1395 23.902C11.3448 23.258 11.6435 22.698 12.0355 22.222C12.4275 21.7367 12.9128 21.354 13.4915 21.074C14.0702 20.794 14.7375 20.654 15.4935 20.654C16.2775 20.654 16.9635 20.794 17.5515 21.074C18.1488 21.3447 18.6435 21.7227 19.0355 22.208C19.4369 22.684 19.7355 23.2487 19.9315 23.902C20.1369 24.546 20.2395 25.2367 20.2395 25.974C20.2395 26.702 20.1369 27.388 19.9315 28.032C19.7355 28.6667 19.4415 29.2267 19.0495 29.712C18.6575 30.188 18.1675 30.566 17.5795 30.846C16.9915 31.126 16.3102 31.266 15.5355 31.266C14.7608 31.266 14.0795 31.126 13.4915 30.846C12.9035 30.566 12.4135 30.188 12.0215 29.712C11.6295 29.2267 11.3355 28.6667 11.1395 28.032C10.9435 27.388 10.8455 26.702 10.8455 25.974ZM15.5495 30.454C16.2028 30.454 16.7628 30.3327 17.2295 30.09C17.7055 29.838 18.0928 29.5067 18.3915 29.096C18.6995 28.6853 18.9235 28.2093 19.0635 27.668C19.2128 27.1267 19.2875 26.562 19.2875 25.974C19.2875 25.274 19.1989 24.6487 19.0215 24.098C18.8535 23.538 18.6062 23.062 18.2795 22.67C17.9528 22.278 17.5562 21.9793 17.0895 21.774C16.6228 21.5687 16.1002 21.466 15.5215 21.466C14.8775 21.466 14.3175 21.592 13.8415 21.844C13.3748 22.096 12.9875 22.432 12.6795 22.852C12.3808 23.2627 12.1568 23.7387 12.0075 24.28C11.8675 24.8213 11.7975 25.386 11.7975 25.974C11.7975 26.5713 11.8675 27.1407 12.0075 27.682C12.1568 28.2233 12.3808 28.6993 12.6795 29.11C12.9875 29.5207 13.3748 29.8473 13.8415 30.09C14.3175 30.3327 14.8868 30.454 15.5495 30.454Z" fill="black"/>
<path d="M21.224 20.92H28.56V21.732H25.368V31H24.416V21.732H21.224V20.92Z" fill="black"/>
<path d="M34.7618 22.208H34.7338V31H33.7818V20.92H34.8598L40.6838 29.726H40.7118V20.92L41.6638 20.92V31H40.5578L34.7618 22.208Z" fill="black"/>
<path d="M43.9133 31V20.92H50.6193V21.732H44.8653V25.372H50.0593V26.184H44.8653V30.188H50.7593V31H43.9133Z" fill="black"/>
<path d="M60.3819 29.656H60.4099L62.6079 20.92H63.5879L60.9419 31H59.8919L57.5539 22.096H57.5259L55.1879 31H54.1379L51.5339 20.92H52.4859L54.6559 29.656H54.6839L57.0219 20.92H58.0859L60.3819 29.656Z" fill="black"/>
<path d="M65.3053 27.99C65.3426 28.438 65.4406 28.8207 65.5993 29.138C65.7673 29.446 65.9773 29.698 66.2293 29.894C66.4906 30.09 66.7893 30.2347 67.1253 30.328C67.4613 30.412 67.8206 30.454 68.2033 30.454C68.6513 30.454 69.0386 30.398 69.3653 30.286C69.692 30.174 69.958 30.0247 70.1633 29.838C70.3686 29.642 70.518 29.418 70.6113 29.166C70.714 28.914 70.7653 28.648 70.7653 28.368C70.7653 27.976 70.6766 27.6587 70.4993 27.416C70.322 27.1733 70.0886 26.9773 69.7993 26.828C69.5193 26.6693 69.1926 26.5433 68.8193 26.45C68.4553 26.3567 68.0773 26.268 67.6853 26.184C67.3026 26.0907 66.9246 25.9833 66.5513 25.862C66.1873 25.7407 65.8606 25.5773 65.5713 25.372C65.2913 25.1667 65.0626 24.9053 64.8853 24.588C64.708 24.2613 64.6193 23.8507 64.6193 23.356C64.6193 23.0107 64.6893 22.6747 64.8293 22.348C64.9786 22.0213 65.1933 21.732 65.4733 21.48C65.7626 21.228 66.122 21.0273 66.5513 20.878C66.9806 20.7287 67.4753 20.654 68.0353 20.654C68.6046 20.654 69.0993 20.7333 69.5193 20.892C69.9486 21.0507 70.3033 21.27 70.5833 21.55C70.8633 21.8207 71.0733 22.138 71.2133 22.502C71.3533 22.866 71.4233 23.2533 71.4233 23.664H70.5133C70.5133 23.2813 70.4433 22.95 70.3033 22.67C70.1726 22.39 69.9906 22.1613 69.7573 21.984C69.524 21.8067 69.258 21.676 68.9593 21.592C68.6606 21.508 68.3526 21.466 68.0353 21.466C67.55 21.466 67.1393 21.536 66.8033 21.676C66.4766 21.8067 66.2153 21.9793 66.0193 22.194C65.8233 22.4087 65.688 22.6467 65.6133 22.908C65.5386 23.1693 65.5246 23.4307 65.5713 23.692C65.6273 24.0187 65.758 24.28 65.9633 24.476C66.1686 24.672 66.4206 24.8353 66.7193 24.966C67.018 25.0873 67.3446 25.19 67.6993 25.274C68.0633 25.3487 68.432 25.4327 68.8053 25.526C69.1786 25.61 69.538 25.7127 69.8833 25.834C70.238 25.9553 70.5506 26.1187 70.8213 26.324C71.092 26.5293 71.3066 26.7953 71.4653 27.122C71.6333 27.4393 71.7173 27.8407 71.7173 28.326C71.7173 29.2593 71.3953 29.9827 70.7513 30.496C70.1073 31.0093 69.202 31.266 68.0353 31.266C67.5126 31.266 67.0273 31.196 66.5793 31.056C66.1313 30.9253 65.744 30.7247 65.4173 30.454C65.0906 30.174 64.834 29.8333 64.6473 29.432C64.47 29.0213 64.3813 28.5407 64.3813 27.99H65.3053Z" fill="black"/>
<path d="M74.1579 24.056V20.92H75.1799V24.056L74.9839 28.466H74.3539L74.1579 24.056ZM74.1579 31V29.768H75.1799V31H74.1579Z" fill="black"/>
<path d="M0 12.4L153.874 12.4V13.1L4.55475e-09 13.1L0 12.4ZM1.30141e-07 32.4H76.9999V33.1H1.34696e-07L1.30141e-07 32.4Z" fill="black"/>
</svg>
