<svg width="171" height="92" viewBox="0 0 171 92" fill="none" xmlns="http://www.w3.org/2000/svg">
<path d="M6.25002 11.196C5.46602 11.196 4.77535 11.056 4.17802 10.776C3.59002 10.4867 3.10002 10.104 2.70802 9.62801C2.31602 9.15201 2.02202 8.60134 1.82602 7.97601C1.63002 7.35067 1.53202 6.69267 1.53202 6.00201C1.53202 5.32067 1.63002 4.66734 1.82602 4.04201C2.02202 3.40734 2.31602 2.85201 2.70802 2.37601C3.10002 1.89067 3.59002 1.50801 4.17802 1.22801C4.77535 0.938673 5.46602 0.794006 6.25002 0.794006C6.72602 0.794006 7.18802 0.864006 7.63602 1.00401C8.09335 1.14401 8.50402 1.35401 8.86802 1.63401C9.24135 1.90467 9.54935 2.24067 9.79202 2.64201C10.044 3.04334 10.2027 3.50534 10.268 4.02801H9.31602C9.23202 3.64534 9.09202 3.30467 8.89602 3.00601C8.70935 2.69801 8.47602 2.44134 8.19602 2.23601C7.92535 2.03067 7.62202 1.87667 7.28602 1.77401C6.95935 1.66201 6.61402 1.60601 6.25002 1.60601C5.58735 1.60601 5.01802 1.73201 4.54202 1.98401C4.06602 2.23601 3.67402 2.57201 3.36602 2.99201C3.06735 3.40267 2.84335 3.87401 2.69402 4.40601C2.55402 4.92867 2.48402 5.46067 2.48402 6.00201C2.48402 6.55267 2.55402 7.08934 2.69402 7.61201C2.84335 8.13467 3.06735 8.60601 3.36602 9.02601C3.67402 9.43667 4.06602 9.76801 4.54202 10.02C5.01802 10.272 5.58735 10.398 6.25002 10.398C6.70735 10.398 7.12268 10.314 7.49602 10.146C7.87868 9.97801 8.20535 9.74934 8.47602 9.46001C8.74668 9.17067 8.96602 8.83467 9.13402 8.45201C9.30202 8.06001 9.40935 7.64001 9.45602 7.19201H10.408C10.3427 7.80801 10.198 8.36334 9.97402 8.85801C9.75002 9.35267 9.46068 9.77267 9.10602 10.118C8.75135 10.4633 8.33135 10.7293 7.84602 10.916C7.37002 11.1027 6.83802 11.196 6.25002 11.196Z" fill="black"/>
<path d="M11.8654 1.00401L18.7674 1.00401V1.81601H12.8174V5.42801H18.3894V6.24001H12.8174V10.188L18.8374 10.188V11H11.8654V1.00401Z" fill="black"/>
<path d="M20.1643 1.00401L21.1163 1.00401V5.34401L27.0523 5.34401V1.00401H28.0043L28.0043 11H27.0523V6.15601H21.1163V11H20.1643V1.00401Z" fill="black"/>
<path d="M34.2637 11.196C33.4797 11.196 32.789 11.056 32.1917 10.776C31.6037 10.4867 31.1137 10.104 30.7217 9.62801C30.3297 9.15201 30.0357 8.60134 29.8397 7.97601C29.6437 7.35067 29.5457 6.69267 29.5457 6.00201C29.5457 5.32067 29.6437 4.66734 29.8397 4.04201C30.0357 3.40734 30.3297 2.85201 30.7217 2.37601C31.1137 1.89067 31.6037 1.50801 32.1917 1.22801C32.789 0.938673 33.4797 0.794007 34.2637 0.794007C34.7397 0.794007 35.2017 0.864007 35.6497 1.00401C36.107 1.14401 36.5177 1.35401 36.8817 1.63401C37.255 1.90467 37.563 2.24067 37.8057 2.64201C38.0577 3.04334 38.2164 3.50534 38.2817 4.02801H37.3297C37.2457 3.64534 37.1057 3.30467 36.9097 3.00601C36.723 2.69801 36.4897 2.44134 36.2097 2.23601C35.939 2.03067 35.6357 1.87667 35.2997 1.77401C34.973 1.66201 34.6277 1.60601 34.2637 1.60601C33.601 1.60601 33.0317 1.73201 32.5557 1.98401C32.0797 2.23601 31.6877 2.57201 31.3797 2.99201C31.081 3.40267 30.857 3.87401 30.7077 4.40601C30.5677 4.92867 30.4977 5.46067 30.4977 6.00201C30.4977 6.55267 30.5677 7.08934 30.7077 7.61201C30.857 8.13467 31.081 8.60601 31.3797 9.02601C31.6877 9.43667 32.0797 9.76801 32.5557 10.02C33.0317 10.272 33.601 10.398 34.2637 10.398C34.721 10.398 35.1364 10.314 35.5097 10.146C35.8924 9.97801 36.219 9.74934 36.4897 9.46001C36.7604 9.17067 36.9797 8.83467 37.1477 8.45201C37.3157 8.06001 37.423 7.64001 37.4697 7.19201H38.4217C38.3564 7.80801 38.2117 8.36334 37.9877 8.85801C37.7637 9.35267 37.4744 9.77267 37.1197 10.118C36.765 10.4633 36.345 10.7293 35.8597 10.916C35.3837 11.1027 34.8517 11.196 34.2637 11.196Z" fill="black"/>
<path d="M42.8051 1.00401L43.8691 1.00401L47.7891 11H46.7671L45.5491 7.89201H40.9991L39.7951 11H38.7871L42.8051 1.00401ZM45.2271 7.08001L43.2951 1.95601L41.2931 7.08001H45.2271Z" fill="black"/>
<path d="M56.6355 11H48.6975V1.00401L49.6495 1.00401V10.188H55.4455V1.00401H56.3975V10.188H57.5875V13.66H56.6355V11Z" fill="black"/>
<path d="M58.7053 1.00401H59.6573V9.97801L65.3973 1.00401L66.6293 1.00401V11H65.6773V2.02601L59.9373 11H58.7053V1.00401Z" fill="black"/>
<path d="M71.1087 6.66001C70.6981 6.64134 70.3154 6.56667 69.9607 6.43601C69.6154 6.30534 69.3121 6.12334 69.0507 5.89001C68.7987 5.65667 68.5981 5.37667 68.4487 5.05001C68.3087 4.71401 68.2387 4.32667 68.2387 3.88801C68.2387 3.44001 68.3087 3.03867 68.4487 2.68401C68.5887 2.32934 68.7894 2.03067 69.0507 1.78801C69.3214 1.53601 69.6387 1.34467 70.0027 1.21401C70.3761 1.07401 70.7961 1.00401 71.2627 1.00401L75.4487 1.00401V11H74.4967V6.71601H72.2567L68.9247 11H67.6927L71.1087 6.66001ZM74.4967 5.90401V1.81601L71.4727 1.81601C70.7727 1.81601 70.2174 2.00267 69.8067 2.37601C69.3961 2.74001 69.1907 3.24401 69.1907 3.88801C69.1907 4.53201 69.3961 5.03134 69.8067 5.38601C70.2174 5.73134 70.7727 5.90401 71.4727 5.90401H74.4967Z" fill="black"/>
<path d="M78.2751 4.05601V0.920007H79.2971V4.05601L79.1011 8.46601H78.4711L78.2751 4.05601ZM78.2751 11V9.76801H79.2971V11H78.2751Z" fill="black"/>
<path d="M82.9372 4.05601V0.920007L83.9592 0.920007V4.05601L83.7632 8.46601H83.1332L82.9372 4.05601ZM82.9372 11V9.76801H83.9592V11H82.9372Z" fill="black"/>
<path d="M87.5993 4.05601V0.920007L88.6213 0.920007V4.05601L88.4253 8.46601H87.7953L87.5993 4.05601ZM87.5993 11V9.76801H88.6213V11H87.5993Z" fill="black"/>
<path d="M95.3459 1.00401L99.5739 1.00401C99.9939 1.00401 100.395 1.04601 100.778 1.13001C101.17 1.20467 101.511 1.34001 101.8 1.53601C102.099 1.72267 102.337 1.97467 102.514 2.29201C102.691 2.60001 102.78 2.98734 102.78 3.45401C102.78 3.71534 102.738 3.97201 102.654 4.22401C102.57 4.46667 102.449 4.69067 102.29 4.89601C102.141 5.09201 101.959 5.26001 101.744 5.40001C101.539 5.54001 101.305 5.63801 101.044 5.69401V5.72201C101.688 5.80601 102.201 6.07201 102.584 6.52001C102.967 6.95867 103.158 7.50467 103.158 8.15801C103.158 8.40067 103.121 8.68534 103.046 9.01201C102.981 9.32934 102.827 9.63734 102.584 9.93601C102.341 10.2347 101.982 10.4867 101.506 10.692C101.03 10.8973 100.386 11 99.5739 11H95.3459V1.00401ZM99.5739 10.188C99.9286 10.188 100.265 10.16 100.582 10.104C100.899 10.0387 101.179 9.92667 101.422 9.76801C101.665 9.60934 101.856 9.39934 101.996 9.13801C102.136 8.87667 102.206 8.54067 102.206 8.13001C102.206 7.48601 101.977 7.00534 101.52 6.68801C101.072 6.36134 100.423 6.19801 99.5739 6.19801L96.2979 6.19801V10.188H99.5739ZM99.5739 5.38601C99.9472 5.38601 100.274 5.34401 100.554 5.26001C100.843 5.16667 101.081 5.04534 101.268 4.89601C101.455 4.73734 101.595 4.55534 101.688 4.35001C101.781 4.14467 101.828 3.92534 101.828 3.69201C101.828 2.44134 101.077 1.81601 99.5739 1.81601L96.2979 1.81601V5.38601H99.5739Z" fill="black"/>
<path d="M108.58 1.00401L112.808 1.00401C113.228 1.00401 113.63 1.04601 114.012 1.13001C114.404 1.20467 114.745 1.34001 115.034 1.53601C115.333 1.72267 115.571 1.97467 115.748 2.29201C115.926 2.60001 116.014 2.98734 116.014 3.45401C116.014 3.71534 115.972 3.97201 115.888 4.22401C115.804 4.46667 115.683 4.69067 115.524 4.89601C115.375 5.09201 115.193 5.26001 114.978 5.40001C114.773 5.54001 114.54 5.63801 114.278 5.69401V5.72201C114.922 5.80601 115.436 6.07201 115.818 6.52001C116.201 6.95867 116.392 7.50467 116.392 8.15801C116.392 8.40067 116.355 8.68534 116.28 9.01201C116.215 9.32934 116.061 9.63734 115.818 9.93601C115.576 10.2347 115.216 10.4867 114.74 10.692C114.264 10.8973 113.62 11 112.808 11H108.58V1.00401ZM112.808 10.188C113.163 10.188 113.499 10.16 113.816 10.104C114.134 10.0387 114.414 9.92667 114.656 9.76801C114.899 9.60934 115.09 9.39934 115.23 9.13801C115.37 8.87667 115.44 8.54067 115.44 8.13001C115.44 7.48601 115.212 7.00534 114.754 6.68801C114.306 6.36134 113.658 6.19801 112.808 6.19801H109.532V10.188H112.808ZM112.808 5.38601C113.182 5.38601 113.508 5.34401 113.788 5.26001C114.078 5.16667 114.316 5.04534 114.502 4.89601C114.689 4.73734 114.829 4.55534 114.922 4.35001C115.016 4.14467 115.062 3.92534 115.062 3.69201C115.062 2.44134 114.311 1.81601 112.808 1.81601H109.532V5.38601H112.808Z" fill="black"/>
<path d="M118.842 11.112C118.618 11.112 118.413 11.098 118.226 11.07C118.049 11.042 117.909 11.0093 117.806 10.972V10.132C117.928 10.1787 118.072 10.2207 118.24 10.258C118.408 10.286 118.604 10.3 118.828 10.3C119.183 10.3 119.477 10.188 119.71 9.96401C119.953 9.74001 120.186 9.39001 120.41 8.91401L120.536 8.64801L116.826 1.00401L117.848 1.00401L121.096 7.64001L124.26 1.00401L125.268 1.00401L121.334 9.15201C121.129 9.58134 120.928 9.92667 120.732 10.188C120.536 10.44 120.336 10.636 120.13 10.776C119.934 10.916 119.729 11.0047 119.514 11.042C119.309 11.0887 119.085 11.112 118.842 11.112Z" fill="black"/>
<path d="M125.897 11.084C125.841 11.084 125.771 11.0793 125.687 11.07C125.612 11.0607 125.533 11.0513 125.449 11.042C125.365 11.0327 125.29 11.0187 125.225 11C125.159 10.9907 125.113 10.9813 125.085 10.972V10.16C125.159 10.1973 125.271 10.2253 125.421 10.244C125.579 10.2533 125.696 10.258 125.771 10.258C125.873 10.258 125.995 10.2487 126.135 10.23C126.275 10.202 126.419 10.118 126.569 9.97801C126.727 9.82867 126.881 9.60001 127.031 9.29201C127.189 8.97467 127.325 8.52667 127.437 7.94801C127.558 7.36001 127.656 6.61801 127.731 5.72201C127.805 4.82601 127.843 3.72467 127.843 2.41801V1.00401L133.989 1.00401V11H133.037V1.81601L128.767 1.81601V2.36201C128.767 3.81801 128.72 5.04534 128.627 6.04401C128.533 7.03334 128.407 7.85467 128.249 8.50801C128.09 9.15201 127.908 9.65134 127.703 10.006C127.507 10.3513 127.301 10.6033 127.087 10.762C126.881 10.9207 126.671 11.014 126.457 11.042C126.251 11.07 126.065 11.084 125.897 11.084Z" fill="black"/>
<path d="M136.006 1.00401L136.958 1.00401V6.38001L142.768 1.00401H144.056L139.59 5.13401L144.266 11H143.034L138.876 5.79201L136.958 7.57001V11H136.006V1.00401Z" fill="black"/>
<path d="M148.01 1.00401L149.074 1.00401L152.994 11H151.972L150.754 7.89201H146.204L145 11H143.992L148.01 1.00401ZM150.432 7.08001L148.5 1.95601L146.498 7.08001H150.432Z" fill="black"/>
<path d="M153.903 1.00401L154.855 1.00401V5.34401H160.791V1.00401H161.743V11H160.791V6.15601H154.855V11H153.903V1.00401Z" fill="black"/>
<path d="M163.76 1.00401L170.662 1.00401V1.81601L164.712 1.81601V5.42801H170.284V6.24001H164.712V10.188H170.732V11H163.76V1.00401Z" fill="black"/>
<path d="M6.19402 31.196C5.41002 31.196 4.71935 31.056 4.12202 30.776C3.53402 30.4867 3.04402 30.104 2.65202 29.628C2.26002 29.152 1.96602 28.6013 1.77002 27.976C1.57402 27.3507 1.47602 26.6927 1.47602 26.002C1.47602 25.3207 1.57402 24.6673 1.77002 24.042C1.96602 23.4073 2.26002 22.852 2.65202 22.376C3.04402 21.8907 3.53402 21.508 4.12202 21.228C4.71935 20.9387 5.41002 20.794 6.19402 20.794C6.97802 20.794 7.66402 20.9387 8.25202 21.228C8.84002 21.508 9.33002 21.8907 9.72202 22.376C10.114 22.852 10.408 23.4073 10.604 24.042C10.8 24.6673 10.898 25.3207 10.898 26.002C10.898 26.6927 10.8 27.3507 10.604 27.976C10.408 28.6013 10.114 29.152 9.72202 29.628C9.33002 30.104 8.84002 30.4867 8.25202 30.776C7.66402 31.056 6.97802 31.196 6.19402 31.196ZM6.19402 30.398C6.84735 30.398 7.41202 30.272 7.88802 30.02C8.36402 29.768 8.75135 29.4367 9.05002 29.026C9.35802 28.606 9.58202 28.1347 9.72202 27.612C9.87135 27.0893 9.94602 26.5527 9.94602 26.002C9.94602 25.4607 9.87135 24.9287 9.72202 24.406C9.58202 23.874 9.35802 23.4027 9.05002 22.992C8.75135 22.572 8.36402 22.236 7.88802 21.984C7.41202 21.732 6.84735 21.606 6.19402 21.606C5.53135 21.606 4.96202 21.732 4.48602 21.984C4.01002 22.236 3.61802 22.572 3.31002 22.992C3.01135 23.4027 2.78735 23.874 2.63802 24.406C2.49802 24.9287 2.42802 25.4607 2.42802 26.002C2.42802 26.5527 2.49802 27.0893 2.63802 27.612C2.78735 28.1347 3.01135 28.606 3.31002 29.026C3.61802 29.4367 4.01002 29.768 4.48602 30.02C4.96202 30.272 5.53135 30.398 6.19402 30.398Z" fill="black"/>
<path d="M12.385 21.004H19.287V21.816L13.337 21.816V25.232H17.103C18.0363 25.232 18.7643 25.4887 19.287 26.002C19.8096 26.5153 20.071 27.22 20.071 28.116C20.071 29.012 19.8096 29.7167 19.287 30.23C18.7643 30.7433 18.0363 31 17.103 31H12.385V21.004ZM16.893 30.188C17.593 30.188 18.139 30.006 18.531 29.642C18.923 29.2687 19.119 28.76 19.119 28.116C19.119 27.472 18.923 26.968 18.531 26.604C18.139 26.2307 17.593 26.044 16.893 26.044H13.337V30.188H16.893Z" fill="black"/>
<path d="M21.7229 21.004H22.6749V25.344H28.6109V21.004H29.5629V31H28.6109V26.156H22.6749V31H21.7229V21.004Z" fill="black"/>
<path d="M34.5063 21.004H35.5703L39.4903 31H38.4683L37.2503 27.892H32.7003L31.4963 31H30.4883L34.5063 21.004ZM36.9283 27.08L34.9963 21.956L32.9943 27.08H36.9283Z" fill="black"/>
<path d="M40.3986 21.004H44.8366C45.2846 21.004 45.6906 21.0693 46.0546 21.2C46.4186 21.3213 46.7313 21.508 46.9926 21.76C47.254 22.0027 47.4546 22.3013 47.5946 22.656C47.7346 23.0107 47.8046 23.412 47.8046 23.86C47.8046 24.308 47.7346 24.7093 47.5946 25.064C47.4546 25.4187 47.254 25.722 46.9926 25.974C46.7313 26.2167 46.4186 26.4033 46.0546 26.534C45.6906 26.6553 45.2846 26.716 44.8366 26.716H41.3506V31H40.3986V21.004ZM44.6266 25.904C45.2893 25.904 45.826 25.736 46.2366 25.4C46.6473 25.064 46.8526 24.5507 46.8526 23.86C46.8526 23.1693 46.6473 22.656 46.2366 22.32C45.826 21.984 45.2893 21.816 44.6266 21.816H41.3506V25.904H44.6266Z" fill="black"/>
<path d="M50.141 31.112C49.917 31.112 49.7117 31.098 49.525 31.07C49.3477 31.042 49.2077 31.0093 49.105 30.972V30.132C49.2263 30.1787 49.371 30.2207 49.539 30.258C49.707 30.286 49.903 30.3 50.127 30.3C50.4817 30.3 50.7757 30.188 51.009 29.964C51.2517 29.74 51.485 29.39 51.709 28.914L51.835 28.648L48.125 21.004H49.147L52.395 27.64L55.559 21.004H56.567L52.633 29.152C52.4277 29.5813 52.227 29.9267 52.031 30.188C51.835 30.44 51.6343 30.636 51.429 30.776C51.233 30.916 51.0277 31.0047 50.813 31.042C50.6077 31.0887 50.3837 31.112 50.141 31.112Z" fill="black"/>
<path d="M60.8215 25.316L56.6775 21.004H57.9655L62.8935 26.268V21.004H63.8455V26.268L68.7735 21.004H70.0615L65.9175 25.316L70.4115 31H69.1795L65.2455 26.016L63.8455 27.472V31H62.8935V27.472L61.4935 26.016L57.5595 31H56.3275L60.8215 25.316Z" fill="black"/>
<path d="M71.3108 21.004H78.2128V21.816H72.2627V25.428H77.8347V26.24H72.2627V30.188H78.2828V31H71.3108V21.004Z" fill="black"/>
<path d="M79.6096 21.004H80.5616V25.344H86.4976V21.004H87.4496V31H86.4976V26.156H80.5616V31H79.6096V21.004Z" fill="black"/>
<path d="M93.653 31.196C92.869 31.196 92.1783 31.056 91.581 30.776C90.993 30.4867 90.503 30.104 90.111 29.628C89.719 29.152 89.425 28.6013 89.229 27.976C89.033 27.3507 88.935 26.6927 88.935 26.002C88.935 25.3207 89.033 24.6673 89.229 24.042C89.425 23.4073 89.719 22.852 90.111 22.376C90.503 21.8907 90.993 21.508 91.581 21.228C92.1783 20.9387 92.869 20.794 93.653 20.794C94.437 20.794 95.123 20.9387 95.711 21.228C96.299 21.508 96.789 21.8907 97.181 22.376C97.573 22.852 97.867 23.4073 98.063 24.042C98.259 24.6673 98.357 25.3207 98.357 26.002C98.357 26.6927 98.259 27.3507 98.063 27.976C97.867 28.6013 97.573 29.152 97.181 29.628C96.789 30.104 96.299 30.4867 95.711 30.776C95.123 31.056 94.437 31.196 93.653 31.196ZM93.653 30.398C94.3063 30.398 94.871 30.272 95.347 30.02C95.823 29.768 96.2103 29.4367 96.509 29.026C96.817 28.606 97.041 28.1347 97.181 27.612C97.3303 27.0893 97.405 26.5527 97.405 26.002C97.405 25.4607 97.3303 24.9287 97.181 24.406C97.041 23.874 96.817 23.4027 96.509 22.992C96.2103 22.572 95.823 22.236 95.347 21.984C94.871 21.732 94.3063 21.606 93.653 21.606C92.9903 21.606 92.421 21.732 91.945 21.984C91.469 22.236 91.077 22.572 90.769 22.992C90.4703 23.4027 90.2463 23.874 90.097 24.406C89.957 24.9287 89.887 25.4607 89.887 26.002C89.887 26.5527 89.957 27.0893 90.097 27.612C90.2463 28.1347 90.4703 28.606 90.769 29.026C91.077 29.4367 91.469 29.768 91.945 30.02C92.421 30.272 92.9903 30.398 93.653 30.398Z" fill="black"/>
<path d="M103.74 21.004H104.692V25.344H110.628V21.004H111.58V31H110.628V26.156H104.692V31H103.74V21.004Z" fill="black"/>
<path d="M113.598 21.004H120.5V21.816H114.55V25.428H120.122V26.24H114.55V30.188H120.57V31H113.598V21.004Z" fill="black"/>
<path d="M127.749 26.45C127.609 26.4873 127.413 26.5293 127.161 26.576C126.909 26.6227 126.633 26.6693 126.335 26.716C126.045 26.7533 125.751 26.7907 125.453 26.828C125.163 26.856 124.907 26.87 124.683 26.87C123.964 26.87 123.39 26.786 122.961 26.618C122.541 26.4407 122.219 26.2167 121.995 25.946C121.771 25.666 121.626 25.358 121.561 25.022C121.495 24.6767 121.463 24.336 121.463 24V21.004H122.415V23.944C122.415 24.1493 122.433 24.3733 122.471 24.616C122.508 24.8587 122.601 25.0873 122.751 25.302C122.9 25.5073 123.115 25.6847 123.395 25.834C123.684 25.974 124.081 26.044 124.585 26.044C124.883 26.044 125.191 26.03 125.509 26.002C125.835 25.9647 126.143 25.9273 126.433 25.89C126.722 25.8433 126.979 25.7967 127.203 25.75C127.436 25.7033 127.618 25.666 127.749 25.638V21.004H128.701V31H127.749V26.45Z" fill="black"/>
<path d="M133.123 21.816H129.651V21.004H137.561V21.816H134.075V31H133.123V21.816Z" fill="black"/>
<path d="M142.68 31.196C141.896 31.196 141.206 31.056 140.608 30.776C140.02 30.4867 139.53 30.104 139.138 29.628C138.746 29.152 138.452 28.6013 138.256 27.976C138.06 27.3507 137.962 26.6927 137.962 26.002C137.962 25.3207 138.06 24.6673 138.256 24.042C138.452 23.4073 138.746 22.852 139.138 22.376C139.53 21.8907 140.02 21.508 140.608 21.228C141.206 20.9387 141.896 20.794 142.68 20.794C143.464 20.794 144.15 20.9387 144.738 21.228C145.326 21.508 145.816 21.8907 146.208 22.376C146.6 22.852 146.894 23.4073 147.09 24.042C147.286 24.6673 147.384 25.3207 147.384 26.002C147.384 26.6927 147.286 27.3507 147.09 27.976C146.894 28.6013 146.6 29.152 146.208 29.628C145.816 30.104 145.326 30.4867 144.738 30.776C144.15 31.056 143.464 31.196 142.68 31.196ZM142.68 30.398C143.334 30.398 143.898 30.272 144.374 30.02C144.85 29.768 145.238 29.4367 145.536 29.026C145.844 28.606 146.068 28.1347 146.208 27.612C146.358 27.0893 146.432 26.5527 146.432 26.002C146.432 25.4607 146.358 24.9287 146.208 24.406C146.068 23.874 145.844 23.4027 145.536 22.992C145.238 22.572 144.85 22.236 144.374 21.984C143.898 21.732 143.334 21.606 142.68 21.606C142.018 21.606 141.448 21.732 140.972 21.984C140.496 22.236 140.104 22.572 139.796 22.992C139.498 23.4027 139.274 23.874 139.124 24.406C138.984 24.9287 138.914 25.4607 138.914 26.002C138.914 26.5527 138.984 27.0893 139.124 27.612C139.274 28.1347 139.498 28.606 139.796 29.026C140.104 29.4367 140.496 29.768 140.972 30.02C141.448 30.272 142.018 30.398 142.68 30.398Z" fill="black"/>
<path d="M149.683 24.056V20.92H150.705V24.056L150.509 28.466H149.879L149.683 24.056ZM149.683 31V29.768H150.705V31H149.683Z" fill="black"/>
<path d="M2.93202 51.112C2.70802 51.112 2.50268 51.098 2.31602 51.07C2.13868 51.042 1.99868 51.0093 1.89602 50.972V50.132C2.01735 50.1787 2.16202 50.2207 2.33002 50.258C2.49802 50.286 2.69402 50.3 2.91802 50.3C3.27268 50.3 3.56668 50.188 3.80002 49.964C4.04268 49.74 4.27602 49.39 4.50002 48.914L4.62602 48.648L0.916016 41.004H1.93802L5.18602 47.64L8.35002 41.004H9.35802L5.42402 49.152C5.21868 49.5813 5.01802 49.9267 4.82202 50.188C4.62602 50.44 4.42535 50.636 4.22002 50.776C4.02402 50.916 3.81868 51.0047 3.60402 51.042C3.39868 51.0887 3.17468 51.112 2.93202 51.112Z" fill="black"/>
<path d="M16.0905 46.45C15.9505 46.4873 15.7545 46.5293 15.5025 46.576C15.2505 46.6227 14.9752 46.6693 14.6765 46.716C14.3872 46.7533 14.0932 46.7907 13.7945 46.828C13.5052 46.856 13.2485 46.87 13.0245 46.87C12.3058 46.87 11.7318 46.786 11.3025 46.618C10.8825 46.4407 10.5605 46.2167 10.3365 45.946C10.1125 45.666 9.96782 45.358 9.90248 45.022C9.83715 44.6767 9.80448 44.336 9.80448 44V41.004H10.7565V43.944C10.7565 44.1493 10.7752 44.3733 10.8125 44.616C10.8498 44.8587 10.9432 45.0873 11.0925 45.302C11.2418 45.5073 11.4565 45.6847 11.7365 45.834C12.0258 45.974 12.4225 46.044 12.9265 46.044C13.2252 46.044 13.5332 46.03 13.8505 46.002C14.1772 45.9647 14.4852 45.9273 14.7745 45.89C15.0638 45.8433 15.3205 45.7967 15.5445 45.75C15.7778 45.7033 15.9598 45.666 16.0905 45.638V41.004H17.0425V51H16.0905V46.45Z" fill="black"/>
<path d="M19.0568 41.004H25.9588V41.816H20.0088V45.428H25.5808V46.24H20.0088V50.188H26.0288V51H19.0568V41.004Z" fill="black"/>
<path d="M27.3557 41.004H28.3077V45.344H34.2437V41.004H35.1957V51H34.2437V46.156H28.3077V51H27.3557V41.004Z" fill="black"/>
<path d="M37.2131 41.004H38.1651V45.232H41.6511C42.5844 45.232 43.3124 45.4887 43.8351 46.002C44.3578 46.5153 44.6191 47.22 44.6191 48.116C44.6191 49.012 44.3578 49.7167 43.8351 50.23C43.3124 50.7433 42.5844 51 41.6511 51H37.2131V41.004ZM41.4411 50.188C42.1411 50.188 42.6871 50.006 43.0791 49.642C43.4711 49.2687 43.6671 48.76 43.6671 48.116C43.6671 47.472 43.4711 46.968 43.0791 46.604C42.6871 46.2307 42.1411 46.044 41.4411 46.044H38.1651V50.188H41.4411ZM46.0891 41.004H47.0411V51H46.0891V41.004Z" fill="black"/>
<path d="M49.0529 41.004H55.9549V41.816H50.0049V45.428H55.5769V46.24H50.0049V50.188H56.0249V51H49.0529V41.004Z" fill="black"/>
<path d="M65.4342 51.196C64.6502 51.196 63.9596 51.056 63.3623 50.776C62.7743 50.4867 62.2843 50.104 61.8923 49.628C61.5003 49.152 61.2063 48.6013 61.0103 47.976C60.8143 47.3507 60.7163 46.6927 60.7163 46.002C60.7163 45.3207 60.8143 44.6673 61.0103 44.042C61.2063 43.4073 61.5003 42.852 61.8923 42.376C62.2843 41.8907 62.7743 41.508 63.3623 41.228C63.9596 40.9387 64.6502 40.794 65.4342 40.794C66.2182 40.794 66.9042 40.9387 67.4922 41.228C68.0802 41.508 68.5702 41.8907 68.9622 42.376C69.3542 42.852 69.6483 43.4073 69.8443 44.042C70.0403 44.6673 70.1383 45.3207 70.1383 46.002C70.1383 46.6927 70.0403 47.3507 69.8443 47.976C69.6483 48.6013 69.3542 49.152 68.9622 49.628C68.5702 50.104 68.0802 50.4867 67.4922 50.776C66.9042 51.056 66.2182 51.196 65.4342 51.196ZM65.4342 50.398C66.0876 50.398 66.6523 50.272 67.1283 50.02C67.6043 49.768 67.9916 49.4367 68.2903 49.026C68.5983 48.606 68.8222 48.1347 68.9622 47.612C69.1116 47.0893 69.1862 46.5527 69.1862 46.002C69.1862 45.4607 69.1116 44.9287 68.9622 44.406C68.8222 43.874 68.5983 43.4027 68.2903 42.992C67.9916 42.572 67.6043 42.236 67.1283 41.984C66.6523 41.732 66.0876 41.606 65.4342 41.606C64.7716 41.606 64.2022 41.732 63.7262 41.984C63.2502 42.236 62.8583 42.572 62.5503 42.992C62.2516 43.4027 62.0276 43.874 61.8783 44.406C61.7383 44.9287 61.6683 45.4607 61.6683 46.002C61.6683 46.5527 61.7383 47.0893 61.8783 47.612C62.0276 48.1347 62.2516 48.606 62.5503 49.026C62.8583 49.4367 63.2502 49.768 63.7262 50.02C64.2022 50.272 64.7716 50.398 65.4342 50.398Z" fill="black"/>
<path d="M71.6252 41.004H78.5272V41.816H72.5772V45.232H76.3432C77.2765 45.232 78.0045 45.4887 78.5272 46.002C79.0499 46.5153 79.3112 47.22 79.3112 48.116C79.3112 49.012 79.0499 49.7167 78.5272 50.23C78.0045 50.7433 77.2765 51 76.3432 51H71.6252V41.004ZM76.1332 50.188C76.8332 50.188 77.3792 50.006 77.7712 49.642C78.1632 49.2687 78.3592 48.76 78.3592 48.116C78.3592 47.472 78.1632 46.968 77.7712 46.604C77.3792 46.2307 76.8332 46.044 76.1332 46.044H72.5772V50.188H76.1332Z" fill="black"/>
<path d="M80.9631 41.004H81.9151V45.344H87.8511V41.004H88.8031V51H87.8511V46.156H81.9151V51H80.9631V41.004Z" fill="black"/>
<path d="M93.7465 41.004H94.8105L98.7305 51H97.7085L96.4905 47.892H91.9405L90.7365 51H89.7285L93.7465 41.004ZM96.1685 47.08L94.2365 41.956L92.2345 47.08H96.1685Z" fill="black"/>
<path d="M99.6389 41.004H104.077C104.525 41.004 104.931 41.0693 105.295 41.2C105.659 41.3213 105.972 41.508 106.233 41.76C106.494 42.0027 106.695 42.3013 106.835 42.656C106.975 43.0107 107.045 43.412 107.045 43.86C107.045 44.308 106.975 44.7093 106.835 45.064C106.695 45.4187 106.494 45.722 106.233 45.974C105.972 46.2167 105.659 46.4033 105.295 46.534C104.931 46.6553 104.525 46.716 104.077 46.716H100.591V51H99.6389V41.004ZM103.867 45.904C104.53 45.904 105.066 45.736 105.477 45.4C105.888 45.064 106.093 44.5507 106.093 43.86C106.093 43.1693 105.888 42.656 105.477 42.32C105.066 41.984 104.53 41.816 103.867 41.816H100.591V45.904H103.867Z" fill="black"/>
<path d="M109.381 51.112C109.157 51.112 108.952 51.098 108.765 51.07C108.588 51.042 108.448 51.0093 108.345 50.972V50.132C108.467 50.1787 108.611 50.2207 108.779 50.258C108.947 50.286 109.143 50.3 109.367 50.3C109.722 50.3 110.016 50.188 110.249 49.964C110.492 49.74 110.725 49.39 110.949 48.914L111.075 48.648L107.365 41.004H108.387L111.635 47.64L114.799 41.004H115.807L111.873 49.152C111.668 49.5813 111.467 49.9267 111.271 50.188C111.075 50.44 110.875 50.636 110.669 50.776C110.473 50.916 110.268 51.0047 110.053 51.042C109.848 51.0887 109.624 51.112 109.381 51.112Z" fill="black"/>
<path d="M120.062 45.316L115.918 41.004H117.206L122.134 46.268V41.004H123.086V46.268L128.014 41.004H129.302L125.158 45.316L129.652 51H128.42L124.486 46.016L123.086 47.472V51H122.134V47.472L120.734 46.016L116.8 51H115.568L120.062 45.316Z" fill="black"/>
<path d="M130.551 41.004H131.503V49.978L137.243 41.004H138.475V51H137.523V42.026L131.783 51H130.551V41.004Z" fill="black"/>
<path d="M140.238 51.084C140.182 51.084 140.112 51.0793 140.028 51.07C139.954 51.0607 139.874 51.0513 139.79 51.042C139.706 51.0327 139.632 51.0187 139.566 51C139.501 50.9907 139.454 50.9813 139.426 50.972V50.16C139.501 50.1973 139.613 50.2253 139.762 50.244C139.921 50.2533 140.038 50.258 140.112 50.258C140.215 50.258 140.336 50.2487 140.476 50.23C140.616 50.202 140.761 50.118 140.91 49.978C141.069 49.8287 141.223 49.6 141.372 49.292C141.531 48.9747 141.666 48.5267 141.778 47.948C141.9 47.36 141.998 46.618 142.072 45.722C142.147 44.826 142.184 43.7247 142.184 42.418V41.004H148.33V51H147.378V41.816H143.108V42.362C143.108 43.818 143.062 45.0453 142.968 46.044C142.875 47.0333 142.749 47.8547 142.59 48.508C142.432 49.152 142.25 49.6513 142.044 50.006C141.848 50.3513 141.643 50.6033 141.428 50.762C141.223 50.9207 141.013 51.014 140.798 51.042C140.593 51.07 140.406 51.084 140.238 51.084Z" fill="black"/>
<path d="M150.348 41.004H151.3V49.978L157.04 41.004H158.272V51H157.32V42.026L151.58 51H150.348V41.004Z" fill="black"/>
<path d="M1.75602 71.084C1.70002 71.084 1.63002 71.0793 1.54602 71.07C1.47135 71.0607 1.39202 71.0513 1.30802 71.042C1.22402 71.0327 1.14935 71.0187 1.08402 71C1.01868 70.9907 0.972016 70.9813 0.944016 70.972L0.944016 70.16C1.01868 70.1973 1.13068 70.2253 1.28002 70.244C1.43868 70.2533 1.55535 70.258 1.63002 70.258C1.73268 70.258 1.85402 70.2487 1.99402 70.23C2.13402 70.202 2.27868 70.118 2.42802 69.978C2.58668 69.8287 2.74068 69.6 2.89002 69.292C3.04868 68.9747 3.18402 68.5267 3.29602 67.948C3.41735 67.36 3.51535 66.618 3.59002 65.722C3.66468 64.826 3.70202 63.7247 3.70202 62.418V61.004H9.84802V71H8.89602V61.816H4.62602V62.362C4.62602 63.818 4.57935 65.0453 4.48602 66.044C4.39268 67.0333 4.26668 67.8547 4.10802 68.508C3.94935 69.152 3.76735 69.6513 3.56202 70.006C3.36602 70.3513 3.16068 70.6033 2.94602 70.762C2.74068 70.9207 2.53068 71.014 2.31602 71.042C2.11068 71.07 1.92402 71.084 1.75602 71.084Z" fill="black"/>
<path d="M19.5374 71.196C18.8001 71.196 18.1514 71.0607 17.5914 70.79C17.0314 70.5193 16.5554 70.1553 16.1634 69.698C15.7808 69.2313 15.4868 68.6993 15.2814 68.102C15.0854 67.4953 14.9781 66.856 14.9594 66.184H12.8174V71H11.8654V61.004H12.8174L12.8174 65.372H14.9874C15.0434 64.756 15.1788 64.1727 15.3934 63.622C15.6174 63.062 15.9208 62.572 16.3034 62.152C16.6861 61.732 17.1434 61.4007 17.6754 61.158C18.2168 60.9153 18.8374 60.794 19.5374 60.794C20.2841 60.794 20.9421 60.9387 21.5114 61.228C22.0808 61.508 22.5568 61.8907 22.9394 62.376C23.3221 62.852 23.6114 63.4073 23.8074 64.042C24.0034 64.6673 24.1014 65.3207 24.1014 66.002C24.1014 66.6927 24.0034 67.3507 23.8074 67.976C23.6114 68.6013 23.3221 69.152 22.9394 69.628C22.5568 70.104 22.0808 70.4867 21.5114 70.776C20.9421 71.056 20.2841 71.196 19.5374 71.196ZM19.5374 70.398C20.1628 70.398 20.6994 70.272 21.1474 70.02C21.6048 69.768 21.9781 69.4367 22.2674 69.026C22.5661 68.606 22.7854 68.1347 22.9254 67.612C23.0748 67.0893 23.1494 66.5527 23.1494 66.002C23.1494 65.4607 23.0748 64.9287 22.9254 64.406C22.7854 63.874 22.5661 63.4027 22.2674 62.992C21.9781 62.572 21.6048 62.236 21.1474 61.984C20.6994 61.732 20.1628 61.606 19.5374 61.606C18.9121 61.606 18.3708 61.732 17.9134 61.984C17.4561 62.236 17.0781 62.572 16.7794 62.992C16.4901 63.4027 16.2708 63.874 16.1214 64.406C15.9814 64.9287 15.9114 65.4607 15.9114 66.002C15.9114 66.5527 15.9814 67.0893 16.1214 67.612C16.2708 68.1347 16.4901 68.606 16.7794 69.026C17.0781 69.4367 17.4561 69.768 17.9134 70.02C18.3708 70.272 18.9121 70.398 19.5374 70.398Z" fill="black"/>
<path d="M24.584 70.188H25.634C25.9887 69.5347 26.264 68.8673 26.46 68.186C26.656 67.4953 26.8007 66.8093 26.894 66.128C26.9967 65.4467 27.0573 64.784 27.076 64.14C27.104 63.496 27.118 62.8893 27.118 62.32V61.004H33.306V70.188H34.496V73.66H33.544V71H25.536L25.536 73.66H24.584V70.188ZM32.354 70.188V61.816H28.07V62.152C28.07 62.712 28.0607 63.3233 28.042 63.986C28.0327 64.6393 27.9813 65.316 27.888 66.016C27.7947 66.716 27.65 67.4207 27.454 68.13C27.2673 68.8393 26.9967 69.5253 26.642 70.188H32.354Z" fill="black"/>
<path d="M35.6135 61.004H42.5155V61.816H36.5655V65.428H42.1375V66.24H36.5655V70.188H42.5855V71H35.6135V61.004Z" fill="black"/>
<path d="M43.9123 61.004H44.8643V69.978L50.6043 61.004H51.8363V71H50.8843V62.026L45.1443 71H43.9123V61.004ZM47.7903 60.178C47.2023 60.178 46.745 60.024 46.4183 59.716C46.0916 59.3987 45.891 58.946 45.8163 58.358H46.3623C46.409 58.7127 46.5536 58.9927 46.7963 59.198C47.0483 59.4033 47.3843 59.506 47.8043 59.506C48.2056 59.506 48.5323 59.408 48.7843 59.212C49.0456 59.0067 49.2136 58.722 49.2883 58.358H49.8343C49.7316 58.946 49.5123 59.3987 49.1763 59.716C48.8403 60.024 48.3783 60.178 47.7903 60.178Z" fill="black"/>
<path d="M57.7482 61.004H61.9762C62.3962 61.004 62.7976 61.046 63.1803 61.13C63.5723 61.2047 63.9129 61.34 64.2023 61.536C64.5009 61.7227 64.7389 61.9747 64.9163 62.292C65.0936 62.6 65.1823 62.9873 65.1823 63.454C65.1823 63.7153 65.1403 63.972 65.0563 64.224C64.9723 64.4667 64.8509 64.6907 64.6922 64.896C64.5429 65.092 64.3609 65.26 64.1463 65.4C63.9409 65.54 63.7076 65.638 63.4463 65.694V65.722C64.0903 65.806 64.6036 66.072 64.9863 66.52C65.3689 66.9587 65.5602 67.5047 65.5602 68.158C65.5602 68.4007 65.5229 68.6853 65.4482 69.012C65.3829 69.3293 65.2289 69.6373 64.9863 69.936C64.7436 70.2347 64.3842 70.4867 63.9082 70.692C63.4322 70.8973 62.7882 71 61.9762 71H57.7482V61.004ZM61.9762 70.188C62.3309 70.188 62.6669 70.16 62.9842 70.104C63.3016 70.0387 63.5816 69.9267 63.8242 69.768C64.0669 69.6093 64.2583 69.3993 64.3983 69.138C64.5383 68.8767 64.6082 68.5407 64.6082 68.13C64.6082 67.486 64.3796 67.0053 63.9222 66.688C63.4742 66.3613 62.8256 66.198 61.9762 66.198H58.7002V70.188H61.9762ZM61.9762 65.386C62.3496 65.386 62.6762 65.344 62.9562 65.26C63.2456 65.1667 63.4836 65.0453 63.6702 64.896C63.8569 64.7373 63.9969 64.5553 64.0903 64.35C64.1836 64.1447 64.2303 63.9253 64.2303 63.692C64.2303 62.4413 63.4789 61.816 61.9762 61.816H58.7002V65.386H61.9762Z" fill="black"/>
<path d="M74.3566 65.316L70.2126 61.004H71.5006L76.4286 66.268V61.004H77.3806V66.268L82.3086 61.004H83.5966L79.4526 65.316L83.9466 71H82.7146L78.7806 66.016L77.3806 67.472V71H76.4286V67.472L75.0286 66.016L71.0946 71H69.8626L74.3566 65.316Z" fill="black"/>
<path d="M84.8459 61.004H91.7479V61.816H85.7979V65.428H91.3699V66.24H85.7979V70.188H91.8179V71H84.8459V61.004Z" fill="black"/>
<path d="M93.1447 61.004H97.5827C98.0307 61.004 98.4367 61.0693 98.8007 61.2C99.1647 61.3213 99.4774 61.508 99.7387 61.76C100 62.0027 100.201 62.3013 100.341 62.656C100.481 63.0107 100.551 63.412 100.551 63.86C100.551 64.308 100.481 64.7093 100.341 65.064C100.201 65.4187 100 65.722 99.7387 65.974C99.4774 66.2167 99.1647 66.4033 98.8007 66.534C98.4367 66.6553 98.0307 66.716 97.5827 66.716H94.0967V71H93.1447V61.004ZM97.3727 65.904C98.0354 65.904 98.5721 65.736 98.9827 65.4C99.3934 65.064 99.5987 64.5507 99.5987 63.86C99.5987 63.1693 99.3934 62.656 98.9827 62.32C98.5721 61.984 98.0354 61.816 97.3727 61.816H94.0967V65.904H97.3727Z" fill="black"/>
<path d="M101.711 71.084C101.655 71.084 101.585 71.0793 101.501 71.07C101.426 71.0607 101.347 71.0513 101.263 71.042C101.179 71.0327 101.104 71.0187 101.039 71C100.974 70.9907 100.927 70.9813 100.899 70.972V70.16C100.974 70.1973 101.086 70.2253 101.235 70.244C101.394 70.2533 101.51 70.258 101.585 70.258C101.688 70.258 101.809 70.2487 101.949 70.23C102.089 70.202 102.234 70.118 102.383 69.978C102.542 69.8287 102.696 69.6 102.845 69.292C103.004 68.9747 103.139 68.5267 103.251 67.948C103.372 67.36 103.47 66.618 103.545 65.722C103.62 64.826 103.657 63.7247 103.657 62.418V61.004H109.803V71H108.851V61.816H104.581V62.362C104.581 63.818 104.534 65.0453 104.441 66.044C104.348 67.0333 104.222 67.8547 104.063 68.508C103.904 69.152 103.722 69.6513 103.517 70.006C103.321 70.3513 103.116 70.6033 102.901 70.762C102.696 70.9207 102.486 71.014 102.271 71.042C102.066 71.07 101.879 71.084 101.711 71.084Z" fill="black"/>
<path d="M111.821 61.004H118.723V61.816L112.773 61.816V65.428H118.345V66.24H112.773V70.188H118.793V71H111.821V61.004Z" fill="black"/>
<path d="M2.00802 81.004H6.23602C6.65602 81.004 7.05735 81.046 7.44002 81.13C7.83202 81.2047 8.17268 81.34 8.46202 81.536C8.76068 81.7227 8.99868 81.9747 9.17602 82.292C9.35335 82.6 9.44202 82.9873 9.44202 83.454C9.44202 83.7153 9.40002 83.972 9.31602 84.224C9.23202 84.4667 9.11068 84.6907 8.95202 84.896C8.80268 85.092 8.62068 85.26 8.40602 85.4C8.20068 85.54 7.96735 85.638 7.70602 85.694V85.722C8.35002 85.806 8.86335 86.072 9.24602 86.52C9.62868 86.9587 9.82002 87.5047 9.82002 88.158C9.82002 88.4007 9.78268 88.6853 9.70802 89.012C9.64268 89.3293 9.48868 89.6373 9.24602 89.936C9.00335 90.2347 8.64402 90.4867 8.16802 90.692C7.69202 90.8973 7.04802 91 6.23602 91H2.00802V81.004ZM6.23602 90.188C6.59068 90.188 6.92668 90.16 7.24402 90.104C7.56135 90.0387 7.84135 89.9267 8.08402 89.768C8.32668 89.6093 8.51802 89.3993 8.65802 89.138C8.79802 88.8767 8.86802 88.5407 8.86802 88.13C8.86802 87.486 8.63935 87.0053 8.18202 86.688C7.73402 86.3613 7.08535 86.198 6.23602 86.198H2.96002V90.188H6.23602ZM6.23602 85.386C6.60935 85.386 6.93602 85.344 7.21602 85.26C7.50535 85.1667 7.74335 85.0453 7.93002 84.896C8.11668 84.7373 8.25668 84.5553 8.35002 84.35C8.44335 84.1447 8.49002 83.9253 8.49002 83.692C8.49002 82.4413 7.73868 81.816 6.23602 81.816H2.96002V85.386H6.23602Z" fill="black"/>
<path d="M12.2699 91.112C12.0459 91.112 11.8406 91.098 11.6539 91.07C11.4766 91.042 11.3366 91.0093 11.2339 90.972V90.132C11.3552 90.1787 11.4999 90.2207 11.6679 90.258C11.8359 90.286 12.0319 90.3 12.2559 90.3C12.6106 90.3 12.9046 90.188 13.1379 89.964C13.3806 89.74 13.6139 89.39 13.8379 88.914L13.9639 88.648L10.2539 81.004H11.2759L14.5239 87.64L17.6879 81.004H18.6959L14.7619 89.152C14.5566 89.5813 14.3559 89.9267 14.1599 90.188C13.9639 90.44 13.7632 90.636 13.5579 90.776C13.3619 90.916 13.1566 91.0047 12.9419 91.042C12.7366 91.0887 12.5126 91.112 12.2699 91.112Z" fill="black"/>
<path d="M19.3244 91.084C19.2684 91.084 19.1984 91.0793 19.1144 91.07C19.0397 91.0607 18.9604 91.0513 18.8764 91.042C18.7924 91.0327 18.7177 91.0187 18.6524 91C18.587 90.9907 18.5404 90.9813 18.5124 90.972V90.16C18.587 90.1973 18.699 90.2253 18.8484 90.244C19.007 90.2533 19.1237 90.258 19.1984 90.258C19.301 90.258 19.4224 90.2487 19.5624 90.23C19.7024 90.202 19.847 90.118 19.9964 89.978C20.155 89.8287 20.309 89.6 20.4584 89.292C20.617 88.9747 20.7524 88.5267 20.8644 87.948C20.9857 87.36 21.0837 86.618 21.1584 85.722C21.233 84.826 21.2704 83.7247 21.2704 82.418V81.004H27.4164V91H26.4644V81.816H22.1944V82.362C22.1944 83.818 22.1477 85.0453 22.0544 86.044C21.961 87.0333 21.835 87.8547 21.6764 88.508C21.5177 89.152 21.3357 89.6513 21.1304 90.006C20.9344 90.3513 20.729 90.6033 20.5144 90.762C20.309 90.9207 20.099 91.014 19.8844 91.042C19.679 91.07 19.4924 91.084 19.3244 91.084Z" fill="black"/>
<path d="M29.4338 81.004H30.3858V86.38L36.1958 81.004H37.4838L33.0178 85.134L37.6938 91H36.4618L32.3038 85.792L30.3858 87.57V91H29.4338V81.004Z" fill="black"/>
<path d="M41.4379 81.004H42.5019L46.4219 91H45.3999L44.1819 87.892H39.6319L38.4279 91H37.4199L41.4379 81.004ZM43.8599 87.08L41.9279 81.956L39.9259 87.08H43.8599Z" fill="black"/>
<path d="M47.3303 81.004H48.2823V85.344H54.2183V81.004H55.1703V91H54.2183V86.156H48.2823V91H47.3303V81.004Z" fill="black"/>
<path d="M60.1137 81.004H61.1777L65.0977 91H64.0757L62.8577 87.892H58.3077L57.1037 91H56.0957L60.1137 81.004ZM62.5357 87.08L60.6037 81.956L58.6017 87.08H62.5357Z" fill="black"/>
<path d="M66.8181 84.056V80.92H67.8401V84.056L67.6441 88.466H67.0141L66.8181 84.056ZM66.8181 91V89.768H67.8401V91H66.8181Z" fill="black"/>
<path d="M71.4802 84.056V80.92H72.5022V84.056L72.3062 88.466H71.6762L71.4802 84.056ZM71.4802 91V89.768H72.5022V91H71.4802Z" fill="black"/>
<path d="M76.1423 84.056V80.92H77.1643V84.056L76.9683 88.466H76.3383L76.1423 84.056ZM76.1423 91V89.768H77.1643V91H76.1423Z" fill="black"/>
</svg>
