<svg width="149" height="112" viewBox="0 0 149 112" fill="none" xmlns="http://www.w3.org/2000/svg">
<path d="M2.00802 1.004L6.44602 1.004C6.89402 1.004 7.30002 1.06934 7.66402 1.2C8.02802 1.32134 8.34068 1.50801 8.60202 1.76001C8.86335 2.00267 9.06402 2.30134 9.20402 2.65601C9.34402 3.01067 9.41402 3.41201 9.41402 3.86C9.41402 4.30801 9.34402 4.70934 9.20402 5.06401C9.06402 5.41867 8.86335 5.72201 8.60202 5.97401C8.34068 6.21667 8.02802 6.40334 7.66402 6.53401C7.30002 6.65534 6.89402 6.71601 6.44602 6.71601H2.96002V11H2.00802L2.00802 1.004ZM6.23602 5.90401C6.89868 5.90401 7.43535 5.73601 7.84602 5.40001C8.25668 5.06401 8.46202 4.55067 8.46202 3.86C8.46202 3.16934 8.25668 2.656 7.84602 2.32001C7.43535 1.98401 6.89868 1.81601 6.23602 1.81601H2.96002V5.90401H6.23602Z" fill="black"/>
<path d="M11.7504 11.112C11.5264 11.112 11.321 11.098 11.1344 11.07C10.957 11.042 10.817 11.0093 10.7144 10.972V10.132C10.8357 10.1787 10.9804 10.2207 11.1484 10.258C11.3164 10.286 11.5124 10.3 11.7364 10.3C12.091 10.3 12.385 10.188 12.6184 9.96401C12.861 9.74001 13.0944 9.39001 13.3184 8.91401L13.4444 8.64801L9.73438 1.004H10.7564L14.0044 7.64001L17.1684 1.004H18.1764L14.2424 9.15201C14.037 9.58134 13.8364 9.92667 13.6404 10.188C13.4444 10.44 13.2437 10.636 13.0384 10.776C12.8424 10.916 12.637 11.0047 12.4224 11.042C12.217 11.0887 11.993 11.112 11.7504 11.112Z" fill="black"/>
<path d="M19.0568 1.004L20.0088 1.00401V6.38001L25.8188 1.00401L27.1068 1.00401L22.6408 5.13401L27.3168 11H26.0848L21.9268 5.79201L20.0088 7.57001L20.0088 11H19.0568V1.004Z" fill="black"/>
<path d="M31.061 1.00401L32.125 1.00401L36.045 11H35.023L33.805 7.89201H29.255L28.051 11H27.043L31.061 1.00401ZM33.483 7.08001L31.551 1.95601L29.549 7.08001H33.483Z" fill="black"/>
<path d="M40.8498 1.00401L48.5498 1.00401V11H47.5978V1.81601L41.8018 1.81601V11H40.8498V1.00401Z" fill="black"/>
<path d="M50.5705 1.00401L55.0085 1.00401C55.4565 1.00401 55.8625 1.06934 56.2265 1.20001C56.5905 1.32134 56.9032 1.50801 57.1645 1.76001C57.4258 2.00267 57.6265 2.30134 57.7665 2.65601C57.9065 3.01067 57.9765 3.41201 57.9765 3.86001C57.9765 4.30801 57.9065 4.70934 57.7665 5.06401C57.6265 5.41867 57.4258 5.72201 57.1645 5.97401C56.9032 6.21667 56.5905 6.40334 56.2265 6.53401C55.8625 6.65534 55.4565 6.71601 55.0085 6.71601H51.5225V11H50.5705V1.00401ZM54.7985 5.90401C55.4612 5.90401 55.9978 5.73601 56.4085 5.40001C56.8192 5.06401 57.0245 4.55067 57.0245 3.86001C57.0245 3.16934 56.8192 2.65601 56.4085 2.32001C55.9978 1.98401 55.4612 1.81601 54.7985 1.81601H51.5225V5.90401H54.7985Z" fill="black"/>
<path d="M59.3889 1.00401L66.2909 1.00401V1.81601H60.3409V5.42801H65.9129V6.24001H60.3409V10.188H66.3609V11H59.3889V1.00401Z" fill="black"/>
<path d="M67.6877 1.00401L71.9157 1.00401C72.3357 1.00401 72.737 1.04601 73.1197 1.13001C73.5117 1.20467 73.8524 1.34001 74.1417 1.53601C74.4404 1.72267 74.6784 1.97467 74.8557 2.29201C75.033 2.60001 75.1217 2.98734 75.1217 3.45401C75.1217 3.71534 75.0797 3.97201 74.9957 4.22401C74.9117 4.46667 74.7904 4.69067 74.6317 4.89601C74.4824 5.09201 74.3004 5.26001 74.0857 5.40001C73.8804 5.54001 73.647 5.63801 73.3857 5.69401V5.72201C74.0297 5.80601 74.543 6.07201 74.9257 6.52001C75.3084 6.95867 75.4997 7.50467 75.4997 8.15801C75.4997 8.40067 75.4624 8.68534 75.3877 9.01201C75.3224 9.32934 75.1684 9.63734 74.9257 9.93601C74.683 10.2347 74.3237 10.4867 73.8477 10.692C73.3717 10.8973 72.7277 11 71.9157 11H67.6877V1.00401ZM71.9157 10.188C72.2704 10.188 72.6064 10.16 72.9237 10.104C73.241 10.0387 73.521 9.92667 73.7637 9.76801C74.0064 9.60934 74.1977 9.39934 74.3377 9.13801C74.4777 8.87667 74.5477 8.54067 74.5477 8.13001C74.5477 7.48601 74.319 7.00534 73.8617 6.68801C73.4137 6.36134 72.765 6.19801 71.9157 6.19801H68.6397V10.188H71.9157ZM71.9157 5.38601C72.289 5.38601 72.6157 5.34401 72.8957 5.26001C73.185 5.16667 73.423 5.04534 73.6097 4.89601C73.7964 4.73734 73.9364 4.55534 74.0297 4.35001C74.123 4.14467 74.1697 3.92534 74.1697 3.69201C74.1697 2.44134 73.4184 1.81601 71.9157 1.81601L68.6397 1.81601V5.38601H71.9157Z" fill="black"/>
<path d="M77.0256 1.00401L81.4636 1.00401C81.9116 1.00401 82.3176 1.06934 82.6816 1.20001C83.0456 1.32134 83.3583 1.50801 83.6196 1.76001C83.8809 2.00267 84.0816 2.30134 84.2216 2.65601C84.3616 3.01067 84.4316 3.41201 84.4316 3.86001C84.4316 4.30801 84.3616 4.70934 84.2216 5.06401C84.0816 5.41867 83.8809 5.72201 83.6196 5.97401C83.3583 6.21667 83.0456 6.40334 82.6816 6.53401C82.3176 6.65534 81.9116 6.71601 81.4636 6.71601H77.9776V11H77.0256V1.00401ZM81.2536 5.90401C81.9163 5.90401 82.4529 5.73601 82.8636 5.40001C83.2743 5.06401 83.4796 4.55067 83.4796 3.86001C83.4796 3.16934 83.2743 2.65601 82.8636 2.32001C82.4529 1.98401 81.9163 1.81601 81.2536 1.81601L77.9776 1.81601V5.90401H81.2536Z" fill="black"/>
<path d="M88.77 1.00401L89.834 1.00401L93.754 11H92.732L91.514 7.89201H86.964L85.76 11H84.752L88.77 1.00401ZM91.192 7.08001L89.26 1.95601L87.2579 7.08001H91.192Z" fill="black"/>
<path d="M97.0703 1.81601H93.5983V1.00401L101.508 1.00401V1.81601H98.0223V11H97.0703V1.81601Z" fill="black"/>
<path d="M102.442 1.00401L103.394 1.00401V9.97801L109.134 1.00401H110.366V11H109.414V2.02601L103.674 11H102.442V1.00401Z" fill="black"/>
<path d="M112.129 11.084C112.073 11.084 112.003 11.0793 111.919 11.07C111.844 11.0607 111.765 11.0513 111.681 11.042C111.597 11.0327 111.522 11.0187 111.457 11C111.392 10.9907 111.345 10.9813 111.317 10.972V10.16C111.392 10.1973 111.504 10.2253 111.653 10.244C111.812 10.2533 111.928 10.258 112.003 10.258C112.106 10.258 112.227 10.2487 112.367 10.23C112.507 10.202 112.652 10.118 112.801 9.97801C112.96 9.82867 113.114 9.60001 113.263 9.29201C113.422 8.97467 113.557 8.52667 113.669 7.94801C113.79 7.36001 113.888 6.61801 113.963 5.72201C114.038 4.82601 114.075 3.72467 114.075 2.41801V1.00401L120.221 1.00401V11H119.269V1.81601L114.999 1.81601V2.36201C114.999 3.81801 114.952 5.04534 114.859 6.04401C114.766 7.03334 114.64 7.85467 114.481 8.50801C114.322 9.15201 114.14 9.65134 113.935 10.006C113.739 10.3513 113.534 10.6033 113.319 10.762C113.114 10.9207 112.904 11.014 112.689 11.042C112.484 11.07 112.297 11.084 112.129 11.084Z" fill="black"/>
<path d="M125.164 1.00401L126.228 1.00401L130.148 11H129.126L127.908 7.89201H123.358L122.154 11H121.146L125.164 1.00401ZM127.586 7.08001L125.654 1.95601L123.652 7.08001H127.586Z" fill="black"/>
<path d="M135.299 11.196C134.515 11.196 133.824 11.056 133.227 10.776C132.639 10.4867 132.149 10.104 131.757 9.62801C131.365 9.15201 131.071 8.60134 130.875 7.97601C130.679 7.35067 130.581 6.69267 130.581 6.00201C130.581 5.32067 130.679 4.66734 130.875 4.04201C131.071 3.40734 131.365 2.85201 131.757 2.37601C132.149 1.89067 132.639 1.50801 133.227 1.22801C133.824 0.938673 134.515 0.794006 135.299 0.794006C135.775 0.794006 136.237 0.864006 136.685 1.00401C137.142 1.14401 137.553 1.35401 137.917 1.63401C138.29 1.90467 138.598 2.24067 138.841 2.64201C139.093 3.04334 139.252 3.50534 139.317 4.02801H138.365C138.281 3.64534 138.141 3.30467 137.945 3.00601C137.758 2.69801 137.525 2.44134 137.245 2.23601C136.974 2.03067 136.671 1.87667 136.335 1.77401C136.008 1.66201 135.663 1.60601 135.299 1.60601C134.636 1.60601 134.067 1.73201 133.591 1.98401C133.115 2.23601 132.723 2.57201 132.415 2.99201C132.116 3.40267 131.892 3.87401 131.743 4.40601C131.603 4.92867 131.533 5.46067 131.533 6.00201C131.533 6.55267 131.603 7.08934 131.743 7.61201C131.892 8.13467 132.116 8.60601 132.415 9.02601C132.723 9.43667 133.115 9.76801 133.591 10.02C134.067 10.272 134.636 10.398 135.299 10.398C135.756 10.398 136.172 10.314 136.545 10.146C136.928 9.97801 137.254 9.74934 137.525 9.46001C137.796 9.17067 138.015 8.83467 138.183 8.45201C138.351 8.06001 138.458 7.64001 138.505 7.19201H139.457C139.392 7.80801 139.247 8.36334 139.023 8.85801C138.799 9.35267 138.51 9.77267 138.155 10.118C137.8 10.4633 137.38 10.7293 136.895 10.916C136.419 11.1027 135.887 11.196 135.299 11.196Z" fill="black"/>
<path d="M140.914 1.00401H141.866V5.23201H145.352C146.286 5.23201 147.014 5.48867 147.536 6.00201C148.059 6.51534 148.32 7.22001 148.32 8.11601C148.32 9.01201 148.059 9.71667 147.536 10.23C147.014 10.7433 146.286 11 145.352 11H140.914V1.00401ZM145.142 10.188C145.842 10.188 146.388 10.006 146.78 9.64201C147.172 9.26867 147.368 8.76001 147.368 8.11601C147.368 7.47201 147.172 6.96801 146.78 6.60401C146.388 6.23067 145.842 6.04401 145.142 6.04401H141.866V10.188H145.142Z" fill="black"/>
<path d="M2.00802 21.004H6.23602C6.65602 21.004 7.05735 21.046 7.44002 21.13C7.83202 21.2047 8.17268 21.34 8.46202 21.536C8.76068 21.7227 8.99868 21.9747 9.17602 22.292C9.35335 22.6 9.44202 22.9873 9.44202 23.454C9.44202 23.7153 9.40002 23.972 9.31602 24.224C9.23202 24.4667 9.11068 24.6907 8.95202 24.896C8.80268 25.092 8.62068 25.26 8.40602 25.4C8.20068 25.54 7.96735 25.638 7.70602 25.694V25.722C8.35002 25.806 8.86335 26.072 9.24602 26.52C9.62868 26.9587 9.82002 27.5047 9.82002 28.158C9.82002 28.4007 9.78268 28.6853 9.70802 29.012C9.64268 29.3293 9.48868 29.6373 9.24602 29.936C9.00335 30.2347 8.64402 30.4867 8.16802 30.692C7.69202 30.8973 7.04802 31 6.23602 31H2.00802L2.00802 21.004ZM6.23602 30.188C6.59068 30.188 6.92668 30.16 7.24402 30.104C7.56135 30.0387 7.84135 29.9267 8.08402 29.768C8.32668 29.6093 8.51802 29.3993 8.65802 29.138C8.79802 28.8767 8.86802 28.5407 8.86802 28.13C8.86802 27.486 8.63935 27.0053 8.18202 26.688C7.73402 26.3613 7.08535 26.198 6.23602 26.198H2.96002L2.96002 30.188H6.23602ZM6.23602 25.386C6.60935 25.386 6.93602 25.344 7.21602 25.26C7.50535 25.1667 7.74335 25.0453 7.93002 24.896C8.11668 24.7373 8.25668 24.5553 8.35002 24.35C8.44335 24.1447 8.49002 23.9253 8.49002 23.692C8.49002 22.4413 7.73868 21.816 6.23602 21.816H2.96002V25.386H6.23602Z" fill="black"/>
<path d="M14.9904 31.084C14.9344 31.084 14.8644 31.0793 14.7804 31.07C14.7057 31.0607 14.6264 31.0513 14.5424 31.042C14.4584 31.0327 14.3837 31.0187 14.3184 31C14.2531 30.9907 14.2064 30.9813 14.1784 30.972V30.16C14.2531 30.1973 14.3651 30.2253 14.5144 30.244C14.6731 30.2533 14.7897 30.258 14.8644 30.258C14.9671 30.258 15.0884 30.2487 15.2284 30.23C15.3684 30.202 15.5131 30.118 15.6624 29.978C15.8211 29.8287 15.9751 29.6 16.1244 29.292C16.2831 28.9747 16.4184 28.5267 16.5304 27.948C16.6517 27.36 16.7497 26.618 16.8244 25.722C16.8991 24.826 16.9364 23.7247 16.9364 22.418V21.004H23.0824L23.0824 31H22.1304V21.816H17.8604V22.362C17.8604 23.818 17.8137 25.0453 17.7204 26.044C17.6271 27.0333 17.5011 27.8547 17.3424 28.508C17.1837 29.152 17.0017 29.6513 16.7964 30.006C16.6004 30.3513 16.3951 30.6033 16.1804 30.762C15.9751 30.9207 15.7651 31.014 15.5504 31.042C15.3451 31.07 15.1584 31.084 14.9904 31.084Z" fill="black"/>
<path d="M28.0258 21.004H29.0898L33.0098 31H31.9878L30.7698 27.892H26.2198L25.0158 31H24.0078L28.0258 21.004ZM30.4478 27.08L28.5158 21.956L26.5138 27.08H30.4478Z" fill="black"/>
<path d="M33.9182 21.004H41.6182V31H40.6662V21.816H34.8702V31H33.9182V21.004Z" fill="black"/>
<path d="M43.6389 21.004H44.5909V30.188H49.3229V21.004H50.2749V30.188H55.0069V21.004H55.9589V31H43.6389V21.004Z" fill="black"/>
<path d="M58.9047 31.112C58.6807 31.112 58.4753 31.098 58.2887 31.07C58.1113 31.042 57.9713 31.0093 57.8687 30.972V30.132C57.99 30.1787 58.1347 30.2207 58.3027 30.258C58.4707 30.286 58.6667 30.3 58.8907 30.3C59.2453 30.3 59.5393 30.188 59.7727 29.964C60.0153 29.74 60.2487 29.39 60.4727 28.914L60.5987 28.648L56.8887 21.004H57.9107L61.1587 27.64L64.3227 21.004H65.3307L61.3967 29.152C61.1913 29.5813 60.9907 29.9267 60.7947 30.188C60.5987 30.44 60.398 30.636 60.1927 30.776C59.9967 30.916 59.7913 31.0047 59.5767 31.042C59.3713 31.0887 59.1473 31.112 58.9047 31.112Z" fill="black"/>
<path d="M67.0231 24.056V20.92H68.0451V24.056L67.8491 28.466H67.2191L67.0231 24.056ZM67.0231 31V29.768H68.0451V31H67.0231Z" fill="black"/>
<path d="M71.6852 24.056V20.92H72.7073V24.056L72.5113 28.466H71.8812L71.6852 24.056ZM71.6852 31V29.768H72.7073V31H71.6852Z" fill="black"/>
<path d="M76.3474 24.056V20.92H77.3694V24.056L77.1734 28.466H76.5434L76.3474 24.056ZM76.3474 31V29.768H77.3694V31H76.3474Z" fill="black"/>
<path d="M86.516 25.848L83.128 21.004H84.248L87.076 25.19L90.002 21.004H91.066L87.65 25.876L91.262 31H90.114L87.076 26.59L83.996 31H82.932L86.516 25.848Z" fill="black"/>
<path d="M96.319 31.196C95.535 31.196 94.8444 31.056 94.247 30.776C93.659 30.4867 93.169 30.104 92.777 29.628C92.385 29.152 92.091 28.6013 91.895 27.976C91.699 27.3507 91.601 26.6927 91.601 26.002C91.601 25.3207 91.699 24.6673 91.895 24.042C92.091 23.4073 92.385 22.852 92.777 22.376C93.169 21.8907 93.659 21.508 94.247 21.228C94.8444 20.9387 95.535 20.794 96.319 20.794C97.103 20.794 97.789 20.9387 98.377 21.228C98.965 21.508 99.455 21.8907 99.847 22.376C100.239 22.852 100.533 23.4073 100.729 24.042C100.925 24.6673 101.023 25.3207 101.023 26.002C101.023 26.6927 100.925 27.3507 100.729 27.976C100.533 28.6013 100.239 29.152 99.847 29.628C99.455 30.104 98.965 30.4867 98.377 30.776C97.789 31.056 97.103 31.196 96.319 31.196ZM96.319 30.398C96.9723 30.398 97.537 30.272 98.013 30.02C98.489 29.768 98.8764 29.4367 99.175 29.026C99.483 28.606 99.707 28.1347 99.847 27.612C99.9963 27.0893 100.071 26.5527 100.071 26.002C100.071 25.4607 99.9963 24.9287 99.847 24.406C99.707 23.874 99.483 23.4027 99.175 22.992C98.8764 22.572 98.489 22.236 98.013 21.984C97.537 21.732 96.9723 21.606 96.319 21.606C95.6563 21.606 95.087 21.732 94.611 21.984C94.135 22.236 93.743 22.572 93.435 22.992C93.1363 23.4027 92.9123 23.874 92.763 24.406C92.623 24.9287 92.553 25.4607 92.553 26.002C92.553 26.5527 92.623 27.0893 92.763 27.612C92.9123 28.1347 93.1363 28.606 93.435 29.026C93.743 29.4367 94.135 29.768 94.611 30.02C95.087 30.272 95.6563 30.398 96.319 30.398Z" fill="black"/>
<path d="M104.918 21.816H101.446V21.004H109.356V21.816H105.87V31H104.918V21.816Z" fill="black"/>
<path d="M110.289 21.004H111.241V29.978L116.981 21.004H118.213V31H117.261V22.026L111.521 31H110.289V21.004Z" fill="black"/>
<path d="M122.637 21.816H119.165V21.004H127.075V21.816H123.589V31L122.637 31V21.816Z" fill="black"/>
<path d="M128.008 21.004H134.91V21.816H128.96V25.428H134.532V26.24H128.96V30.188H134.98V31H128.008V21.004Z" fill="black"/>
<path d="M7.86002 46.45C7.72002 46.4873 7.52402 46.5293 7.27202 46.576C7.02002 46.6227 6.74468 46.6693 6.44602 46.716C6.15668 46.7533 5.86268 46.7907 5.56402 46.828C5.27468 46.856 5.01802 46.87 4.79402 46.87C4.07535 46.87 3.50135 46.786 3.07202 46.618C2.65202 46.4407 2.33002 46.2167 2.10602 45.946C1.88202 45.666 1.73735 45.358 1.67202 45.022C1.60668 44.6767 1.57402 44.336 1.57402 44L1.57402 41.004H2.52602L2.52602 43.944C2.52602 44.1493 2.54468 44.3733 2.58202 44.616C2.61935 44.8587 2.71268 45.0873 2.86202 45.302C3.01135 45.5073 3.22602 45.6847 3.50602 45.834C3.79535 45.974 4.19202 46.044 4.69602 46.044C4.99468 46.044 5.30268 46.03 5.62002 46.002C5.94668 45.9647 6.25468 45.9273 6.54402 45.89C6.83335 45.8433 7.09002 45.7967 7.31402 45.75C7.54735 45.7033 7.72935 45.666 7.86002 45.638L7.86002 41.004H8.81202V51H7.86002V46.45Z" fill="black"/>
<path d="M13.2344 41.816H9.76237V41.004H17.6724V41.816H14.1864V51H13.2344V41.816Z" fill="black"/>
<path d="M22.7917 51.196C22.0077 51.196 21.317 51.056 20.7197 50.776C20.1317 50.4867 19.6417 50.104 19.2497 49.628C18.8577 49.152 18.5637 48.6013 18.3677 47.976C18.1717 47.3507 18.0737 46.6927 18.0737 46.002C18.0737 45.3207 18.1717 44.6673 18.3677 44.042C18.5637 43.4073 18.8577 42.852 19.2497 42.376C19.6417 41.8907 20.1317 41.508 20.7197 41.228C21.317 40.9387 22.0077 40.794 22.7917 40.794C23.5757 40.794 24.2617 40.9387 24.8497 41.228C25.4377 41.508 25.9277 41.8907 26.3197 42.376C26.7117 42.852 27.0057 43.4073 27.2017 44.042C27.3977 44.6673 27.4957 45.3207 27.4957 46.002C27.4957 46.6927 27.3977 47.3507 27.2017 47.976C27.0057 48.6013 26.7117 49.152 26.3197 49.628C25.9277 50.104 25.4377 50.4867 24.8497 50.776C24.2617 51.056 23.5757 51.196 22.7917 51.196ZM22.7917 50.398C23.445 50.398 24.0097 50.272 24.4857 50.02C24.9617 49.768 25.349 49.4367 25.6477 49.026C25.9557 48.606 26.1797 48.1347 26.3197 47.612C26.469 47.0893 26.5437 46.5527 26.5437 46.002C26.5437 45.4607 26.469 44.9287 26.3197 44.406C26.1797 43.874 25.9557 43.4027 25.6477 42.992C25.349 42.572 24.9617 42.236 24.4857 41.984C24.0097 41.732 23.445 41.606 22.7917 41.606C22.129 41.606 21.5597 41.732 21.0837 41.984C20.6077 42.236 20.2157 42.572 19.9077 42.992C19.609 43.4027 19.385 43.874 19.2357 44.406C19.0957 44.9287 19.0257 45.4607 19.0257 46.002C19.0257 46.5527 19.0957 47.0893 19.2357 47.612C19.385 48.1347 19.609 48.606 19.9077 49.026C20.2157 49.4367 20.6077 49.768 21.0837 50.02C21.5597 50.272 22.129 50.398 22.7917 50.398Z" fill="black"/>
<path d="M28.9826 41.004H35.8846V41.816H29.9346V45.232H33.7006C34.634 45.232 35.362 45.4887 35.8846 46.002C36.4073 46.5153 36.6686 47.22 36.6686 48.116C36.6686 49.012 36.4073 49.7167 35.8846 50.23C35.362 50.7433 34.634 51 33.7006 51H28.9826V41.004ZM33.4906 50.188C34.1906 50.188 34.7366 50.006 35.1286 49.642C35.5206 49.2687 35.7166 48.76 35.7166 48.116C35.7166 47.472 35.5206 46.968 35.1286 46.604C34.7366 46.2307 34.1906 46.044 33.4906 46.044H29.9346V50.188H33.4906Z" fill="black"/>
<path d="M38.3205 41.004H39.2725V45.232H42.7585C43.6918 45.232 44.4198 45.4887 44.9425 46.002C45.4652 46.5153 45.7265 47.22 45.7265 48.116C45.7265 49.012 45.4652 49.7167 44.9425 50.23C44.4198 50.7433 43.6918 51 42.7585 51H38.3205V41.004ZM42.5485 50.188C43.2485 50.188 43.7945 50.006 44.1865 49.642C44.5785 49.2687 44.7745 48.76 44.7745 48.116C44.7745 47.472 44.5785 46.968 44.1865 46.604C43.7945 46.2307 43.2485 46.044 42.5485 46.044H39.2725V50.188H42.5485ZM47.1965 41.004H48.1485V51H47.1965V41.004Z" fill="black"/>
<path d="M54.0568 41.004H58.2848C58.7048 41.004 59.1062 41.046 59.4888 41.13C59.8808 41.2047 60.2215 41.34 60.5108 41.536C60.8095 41.7227 61.0475 41.9747 61.2248 42.292C61.4022 42.6 61.4908 42.9873 61.4908 43.454C61.4908 43.7153 61.4488 43.972 61.3648 44.224C61.2808 44.4667 61.1595 44.6907 61.0008 44.896C60.8515 45.092 60.6695 45.26 60.4548 45.4C60.2495 45.54 60.0162 45.638 59.7548 45.694V45.722C60.3988 45.806 60.9122 46.072 61.2948 46.52C61.6775 46.9587 61.8688 47.5047 61.8688 48.158C61.8688 48.4007 61.8315 48.6853 61.7568 49.012C61.6915 49.3293 61.5375 49.6373 61.2948 49.936C61.0522 50.2347 60.6928 50.4867 60.2168 50.692C59.7408 50.8973 59.0968 51 58.2848 51H54.0568V41.004ZM58.2848 50.188C58.6395 50.188 58.9755 50.16 59.2928 50.104C59.6102 50.0387 59.8902 49.9267 60.1328 49.768C60.3755 49.6093 60.5668 49.3993 60.7068 49.138C60.8468 48.8767 60.9168 48.5407 60.9168 48.13C60.9168 47.486 60.6882 47.0053 60.2308 46.688C59.7828 46.3613 59.1342 46.198 58.2848 46.198H55.0088V50.188H58.2848ZM58.2848 45.386C58.6582 45.386 58.9848 45.344 59.2648 45.26C59.5542 45.1667 59.7922 45.0453 59.9788 44.896C60.1655 44.7373 60.3055 44.5553 60.3988 44.35C60.4922 44.1447 60.5388 43.9253 60.5388 43.692C60.5388 42.4413 59.7875 41.816 58.2848 41.816H55.0088V45.386H58.2848Z" fill="black"/>
<path d="M66.3207 41.004H67.3847L71.3047 51H70.2827L69.0647 47.892H64.5147L63.3107 51H62.3027L66.3207 41.004ZM68.7427 47.08L66.8107 41.956L64.8087 47.08H68.7427Z" fill="black"/>
<path d="M72.2131 41.004H73.1651V50.188H77.8971V41.004H78.8491V50.188H83.5811V41.004H84.5331V51H72.2131V41.004Z" fill="black"/>
<path d="M86.5549 41.004H87.5069V49.978L93.2469 41.004H94.4789V51H93.5269V42.026L87.7869 51H86.5549V41.004Z" fill="black"/>
<path d="M100.391 41.004H104.829C105.277 41.004 105.683 41.0693 106.047 41.2C106.411 41.3213 106.723 41.508 106.985 41.76C107.246 42.0027 107.447 42.3013 107.587 42.656C107.727 43.0107 107.797 43.412 107.797 43.86C107.797 44.308 107.727 44.7093 107.587 45.064C107.447 45.4187 107.246 45.722 106.985 45.974C106.723 46.2167 106.411 46.4033 106.047 46.534C105.683 46.6553 105.277 46.716 104.829 46.716H101.343V51H100.391V41.004ZM104.619 45.904C105.281 45.904 105.818 45.736 106.229 45.4C106.639 45.064 106.845 44.5507 106.845 43.86C106.845 43.1693 106.639 42.656 106.229 42.32C105.818 41.984 105.281 41.816 104.619 41.816H101.343V45.904H104.619Z" fill="black"/>
<path d="M110.133 51.112C109.909 51.112 109.704 51.098 109.517 51.07C109.34 51.042 109.2 51.0093 109.097 50.972V50.132C109.219 50.1787 109.363 50.2207 109.531 50.258C109.699 50.286 109.895 50.3 110.119 50.3C110.474 50.3 110.768 50.188 111.001 49.964C111.244 49.74 111.477 49.39 111.701 48.914L111.827 48.648L108.117 41.004H109.139L112.387 47.64L115.551 41.004H116.559L112.625 49.152C112.42 49.5813 112.219 49.9267 112.023 50.188C111.827 50.44 111.627 50.636 111.421 50.776C111.225 50.916 111.02 51.0047 110.805 51.042C110.6 51.0887 110.376 51.112 110.133 51.112Z" fill="black"/>
<path d="M117.44 41.004H118.392V46.38L124.202 41.004H125.49L121.024 45.134L125.7 51H124.468L120.31 45.792L118.392 47.57V51H117.44V41.004Z" fill="black"/>
<path d="M126.518 41.004H127.47V49.978L133.21 41.004H134.442V51H133.49V42.026L127.75 51H126.518V41.004Z" fill="black"/>
<path d="M2.93202 71.112C2.70802 71.112 2.50268 71.098 2.31602 71.07C2.13868 71.042 1.99868 71.0093 1.89602 70.972V70.132C2.01735 70.1787 2.16202 70.2207 2.33002 70.258C2.49802 70.286 2.69402 70.3 2.91802 70.3C3.27268 70.3 3.56668 70.188 3.80002 69.964C4.04268 69.74 4.27602 69.39 4.50002 68.914L4.62602 68.648L0.916016 61.004H1.93802L5.18602 67.64L8.35002 61.004H9.35802L5.42402 69.152C5.21868 69.5813 5.01802 69.9267 4.82202 70.188C4.62602 70.44 4.42535 70.636 4.22002 70.776C4.02402 70.916 3.81868 71.0047 3.60402 71.042C3.39868 71.0887 3.17468 71.112 2.93202 71.112Z" fill="black"/>
<path d="M10.2105 61.004H11.6105L15.0685 69.768L18.5125 61.004H19.9125V71H18.9605V62.362H18.9325L15.5165 71H14.6205L11.1905 62.362H11.1625V71H10.2105V61.004Z" fill="black"/>
<path d="M21.9006 61.004H28.8026V61.816H22.8526V65.428H28.4246V66.24H22.8526V70.188H28.8726V71H21.9006V61.004Z" fill="black"/>
<path d="M29.9474 71.084C29.8914 71.084 29.8214 71.0793 29.7374 71.07C29.6628 71.0607 29.5834 71.0513 29.4994 71.042C29.4154 71.0327 29.3408 71.0187 29.2754 71C29.2101 70.9907 29.1634 70.9813 29.1354 70.972V70.16C29.2101 70.1973 29.3221 70.2253 29.4714 70.244C29.6301 70.2533 29.7468 70.258 29.8214 70.258C29.9241 70.258 30.0454 70.2487 30.1854 70.23C30.3254 70.202 30.4701 70.118 30.6194 69.978C30.7781 69.8287 30.9321 69.6 31.0814 69.292C31.2401 68.9747 31.3754 68.5267 31.4874 67.948C31.6088 67.36 31.7068 66.618 31.7814 65.722C31.8561 64.826 31.8934 63.7247 31.8934 62.418V61.004H38.0394V71H37.0874V61.816H32.8174V62.362C32.8174 63.818 32.7708 65.0453 32.6774 66.044C32.5841 67.0333 32.4581 67.8547 32.2994 68.508C32.1408 69.152 31.9588 69.6513 31.7534 70.006C31.5574 70.3513 31.3521 70.6033 31.1374 70.762C30.9321 70.9207 30.7221 71.014 30.5074 71.042C30.3021 71.07 30.1154 71.084 29.9474 71.084Z" fill="black"/>
<path d="M40.0568 61.004H41.0088V69.978L46.7488 61.004H47.9808V71H47.0288V62.026L41.2888 71H40.0568V61.004Z" fill="black"/>
<path d="M56.3008 61.816H52.8288V61.004H60.7388V61.816H57.2528V71H56.3008V61.816Z" fill="black"/>
<path d="M64.5981 61.004H65.6621L69.5821 71H68.5601L67.3421 67.892H62.7921L61.5881 71H60.5801L64.5981 61.004ZM67.0201 67.08L65.0881 61.956L63.0861 67.08H67.0201Z" fill="black"/>
<path d="M70.4904 61.004H71.4424V66.38L77.2524 61.004H78.5404L74.0744 65.134L78.7504 71H77.5184L73.3604 65.792L71.4424 67.57V71H70.4904V61.004Z" fill="black"/>
<path d="M82.9426 65.316L78.7986 61.004H80.0866L85.0146 66.268V61.004H85.9666V66.268L90.8946 61.004H92.1826L88.0386 65.316L92.5326 71H91.3006L87.3666 66.016L85.9666 67.472V71H85.0146V67.472L83.6146 66.016L79.6806 71H78.4486L82.9426 65.316Z" fill="black"/>
<path d="M93.4318 61.004H100.334V61.816H94.3838V65.428H99.9558V66.24H94.3838V70.188H100.404V71H93.4318V61.004Z" fill="black"/>
<path d="M103.173 71.42C103.173 71.8307 103.075 72.1573 102.879 72.4C102.692 72.652 102.449 72.8247 102.151 72.918V72.4C102.263 72.3253 102.37 72.2227 102.473 72.092C102.575 71.9613 102.627 71.756 102.627 71.476V71H102.151V69.768H103.173V71.42Z" fill="black"/>
<path d="M2.00802 81.004H9.70802V91H8.75602V81.816H2.96002V91H2.00802V81.004Z" fill="black"/>
<path d="M11.7287 81.004H16.1667C16.6147 81.004 17.0207 81.0693 17.3847 81.2C17.7487 81.3213 18.0614 81.508 18.3227 81.76C18.5841 82.0027 18.7847 82.3013 18.9247 82.656C19.0647 83.0107 19.1347 83.412 19.1347 83.86C19.1347 84.308 19.0647 84.7093 18.9247 85.064C18.7847 85.4187 18.5841 85.722 18.3227 85.974C18.0614 86.2167 17.7487 86.4033 17.3847 86.534C17.0207 86.6553 16.6147 86.716 16.1667 86.716H12.6807V91H11.7287V81.004ZM15.9567 85.904C16.6194 85.904 17.1561 85.736 17.5667 85.4C17.9774 85.064 18.1827 84.5507 18.1827 83.86C18.1827 83.1693 17.9774 82.656 17.5667 82.32C17.1561 81.984 16.6194 81.816 15.9567 81.816H12.6807L12.6807 85.904H15.9567Z" fill="black"/>
<path d="M24.7331 91.196C23.9491 91.196 23.2584 91.056 22.6611 90.776C22.0731 90.4867 21.5831 90.104 21.1911 89.628C20.7991 89.152 20.5051 88.6013 20.3091 87.976C20.1131 87.3507 20.0151 86.6927 20.0151 86.002C20.0151 85.3207 20.1131 84.6673 20.3091 84.042C20.5051 83.4073 20.7991 82.852 21.1911 82.376C21.5831 81.8907 22.0731 81.508 22.6611 81.228C23.2584 80.9387 23.9491 80.794 24.7331 80.794C25.5171 80.794 26.2031 80.9387 26.7911 81.228C27.3791 81.508 27.8691 81.8907 28.2611 82.376C28.6531 82.852 28.9471 83.4073 29.1431 84.042C29.3391 84.6673 29.4371 85.3207 29.4371 86.002C29.4371 86.6927 29.3391 87.3507 29.1431 87.976C28.9471 88.6013 28.6531 89.152 28.2611 89.628C27.8691 90.104 27.3791 90.4867 26.7911 90.776C26.2031 91.056 25.5171 91.196 24.7331 91.196ZM24.7331 90.398C25.3864 90.398 25.9511 90.272 26.4271 90.02C26.9031 89.768 27.2904 89.4367 27.5891 89.026C27.8971 88.606 28.1211 88.1347 28.2611 87.612C28.4104 87.0893 28.4851 86.5527 28.4851 86.002C28.4851 85.4607 28.4104 84.9287 28.2611 84.406C28.1211 83.874 27.8971 83.4027 27.5891 82.992C27.2904 82.572 26.9031 82.236 26.4271 81.984C25.9511 81.732 25.3864 81.606 24.7331 81.606C24.0704 81.606 23.5011 81.732 23.0251 81.984C22.5491 82.236 22.1571 82.572 21.8491 82.992C21.5504 83.4027 21.3264 83.874 21.1771 84.406C21.0371 84.9287 20.9671 85.4607 20.9671 86.002C20.9671 86.5527 21.0371 87.0893 21.1771 87.612C21.3264 88.1347 21.5504 88.606 21.8491 89.026C22.1571 89.4367 22.5491 89.768 23.0251 90.02C23.5011 90.272 24.0704 90.398 24.7331 90.398Z" fill="black"/>
<path d="M35.166 91.196C34.382 91.196 33.6914 91.056 33.094 90.776C32.506 90.4867 32.016 90.104 31.624 89.628C31.232 89.152 30.938 88.6013 30.742 87.976C30.546 87.3507 30.448 86.6927 30.448 86.002C30.448 85.3207 30.546 84.6673 30.742 84.042C30.938 83.4073 31.232 82.852 31.624 82.376C32.016 81.8907 32.506 81.508 33.094 81.228C33.6914 80.9387 34.382 80.794 35.166 80.794C35.642 80.794 36.104 80.864 36.552 81.004C37.0094 81.144 37.42 81.354 37.784 81.634C38.1574 81.9047 38.4654 82.2407 38.708 82.642C38.96 83.0433 39.1187 83.5053 39.184 84.028H38.232C38.148 83.6453 38.008 83.3047 37.812 83.006C37.6254 82.698 37.392 82.4413 37.112 82.236C36.8414 82.0307 36.538 81.8767 36.202 81.774C35.8754 81.662 35.53 81.606 35.166 81.606C34.5034 81.606 33.934 81.732 33.458 81.984C32.982 82.236 32.59 82.572 32.282 82.992C31.9834 83.4027 31.7594 83.874 31.61 84.406C31.47 84.9287 31.4 85.4607 31.4 86.002C31.4 86.5527 31.47 87.0893 31.61 87.612C31.7594 88.1347 31.9834 88.606 32.282 89.026C32.59 89.4367 32.982 89.768 33.458 90.02C33.934 90.272 34.5034 90.398 35.166 90.398C35.6234 90.398 36.0387 90.314 36.412 90.146C36.7947 89.978 37.1214 89.7493 37.392 89.46C37.6627 89.1707 37.882 88.8347 38.05 88.452C38.218 88.06 38.3254 87.64 38.372 87.192H39.324C39.2587 87.808 39.114 88.3633 38.89 88.858C38.666 89.3527 38.3767 89.7727 38.022 90.118C37.6674 90.4633 37.2474 90.7293 36.762 90.916C36.286 91.1027 35.754 91.196 35.166 91.196Z" fill="black"/>
<path d="M43.1895 81.816H39.7175V81.004H47.6275V81.816H44.1415V91H43.1895V81.816Z" fill="black"/>
<path d="M52.7467 91.196C51.9627 91.196 51.2721 91.056 50.6748 90.776C50.0868 90.4867 49.5968 90.104 49.2048 89.628C48.8128 89.152 48.5188 88.6013 48.3228 87.976C48.1268 87.3507 48.0288 86.6927 48.0288 86.002C48.0288 85.3207 48.1268 84.6673 48.3228 84.042C48.5188 83.4073 48.8128 82.852 49.2048 82.376C49.5968 81.8907 50.0868 81.508 50.6748 81.228C51.2721 80.9387 51.9627 80.794 52.7467 80.794C53.5307 80.794 54.2167 80.9387 54.8047 81.228C55.3927 81.508 55.8827 81.8907 56.2747 82.376C56.6667 82.852 56.9607 83.4073 57.1567 84.042C57.3527 84.6673 57.4508 85.3207 57.4508 86.002C57.4508 86.6927 57.3527 87.3507 57.1567 87.976C56.9607 88.6013 56.6667 89.152 56.2747 89.628C55.8827 90.104 55.3927 90.4867 54.8047 90.776C54.2167 91.056 53.5307 91.196 52.7467 91.196ZM52.7467 90.398C53.4001 90.398 53.9648 90.272 54.4408 90.02C54.9168 89.768 55.3041 89.4367 55.6028 89.026C55.9108 88.606 56.1347 88.1347 56.2747 87.612C56.4241 87.0893 56.4988 86.5527 56.4988 86.002C56.4988 85.4607 56.4241 84.9287 56.2747 84.406C56.1347 83.874 55.9108 83.4027 55.6028 82.992C55.3041 82.572 54.9168 82.236 54.4408 81.984C53.9648 81.732 53.4001 81.606 52.7467 81.606C52.0841 81.606 51.5147 81.732 51.0387 81.984C50.5627 82.236 50.1708 82.572 49.8628 82.992C49.5641 83.4027 49.3401 83.874 49.1908 84.406C49.0508 84.9287 48.9808 85.4607 48.9808 86.002C48.9808 86.5527 49.0508 87.0893 49.1908 87.612C49.3401 88.1347 49.5641 88.606 49.8628 89.026C50.1708 89.4367 50.5627 89.768 51.0387 90.02C51.5147 90.272 52.0841 90.398 52.7467 90.398Z" fill="black"/>
<path d="M62.8342 81.004H63.7862V85.344H69.7222V81.004H70.6742V91H69.7222V86.156H63.7862V91H62.8342V81.004Z" fill="black"/>
<path d="M75.6176 81.004H76.6816L80.6016 91H79.5796L78.3616 87.892H73.8116L72.6076 91H71.5996L75.6176 81.004ZM78.0396 87.08L76.1076 81.956L74.1056 87.08H78.0396Z" fill="black"/>
<path d="M85.4065 81.004H86.3585V85.344H92.2945V81.004H93.2465V91H92.2945V86.156H86.3585V91H85.4065V81.004Z" fill="black"/>
<path d="M99.4499 91.196C98.6659 91.196 97.9752 91.056 97.3779 90.776C96.7899 90.4867 96.2999 90.104 95.9079 89.628C95.5159 89.152 95.2219 88.6013 95.0259 87.976C94.8299 87.3507 94.7319 86.6927 94.7319 86.002C94.7319 85.3207 94.8299 84.6673 95.0259 84.042C95.2219 83.4073 95.5159 82.852 95.9079 82.376C96.2999 81.8907 96.7899 81.508 97.3779 81.228C97.9752 80.9387 98.6659 80.794 99.4499 80.794C100.234 80.794 100.92 80.9387 101.508 81.228C102.096 81.508 102.586 81.8907 102.978 82.376C103.37 82.852 103.664 83.4073 103.86 84.042C104.056 84.6673 104.154 85.3207 104.154 86.002C104.154 86.6927 104.056 87.3507 103.86 87.976C103.664 88.6013 103.37 89.152 102.978 89.628C102.586 90.104 102.096 90.4867 101.508 90.776C100.92 91.056 100.234 91.196 99.4499 91.196ZM99.4499 90.398C100.103 90.398 100.668 90.272 101.144 90.02C101.62 89.768 102.007 89.4367 102.306 89.026C102.614 88.606 102.838 88.1347 102.978 87.612C103.127 87.0893 103.202 86.5527 103.202 86.002C103.202 85.4607 103.127 84.9287 102.978 84.406C102.838 83.874 102.614 83.4027 102.306 82.992C102.007 82.572 101.62 82.236 101.144 81.984C100.668 81.732 100.103 81.606 99.4499 81.606C98.7872 81.606 98.2179 81.732 97.7419 81.984C97.2659 82.236 96.8739 82.572 96.5659 82.992C96.2672 83.4027 96.0432 83.874 95.8939 84.406C95.7539 84.9287 95.6839 85.4607 95.6839 86.002C95.6839 86.5527 95.7539 87.0893 95.8939 87.612C96.0432 88.1347 96.2672 88.606 96.5659 89.026C96.8739 89.4367 97.2659 89.768 97.7419 90.02C98.2179 90.272 98.7872 90.398 99.4499 90.398Z" fill="black"/>
<path d="M111.493 86.45C111.353 86.4873 111.157 86.5293 110.905 86.576C110.653 86.6227 110.377 86.6693 110.079 86.716C109.789 86.7533 109.495 86.7907 109.197 86.828C108.907 86.856 108.651 86.87 108.427 86.87C107.708 86.87 107.134 86.786 106.705 86.618C106.285 86.4407 105.963 86.2167 105.739 85.946C105.515 85.666 105.37 85.358 105.305 85.022C105.239 84.6767 105.207 84.336 105.207 84V81.004H106.159V83.944C106.159 84.1493 106.177 84.3733 106.215 84.616C106.252 84.8587 106.345 85.0873 106.495 85.302C106.644 85.5073 106.859 85.6847 107.139 85.834C107.428 85.974 107.825 86.044 108.329 86.044C108.627 86.044 108.935 86.03 109.253 86.002C109.579 85.9647 109.887 85.9273 110.177 85.89C110.466 85.8433 110.723 85.7967 110.947 85.75C111.18 85.7033 111.362 85.666 111.493 85.638V81.004H112.445V91H111.493V86.45Z" fill="black"/>
<path d="M114.459 81.004H115.411V85.232H118.897C119.831 85.232 120.559 85.4887 121.081 86.002C121.604 86.5153 121.865 87.22 121.865 88.116C121.865 89.012 121.604 89.7167 121.081 90.23C120.559 90.7433 119.831 91 118.897 91H114.459V81.004ZM118.687 90.188C119.387 90.188 119.933 90.006 120.325 89.642C120.717 89.2687 120.913 88.76 120.913 88.116C120.913 87.472 120.717 86.968 120.325 86.604C119.933 86.2307 119.387 86.044 118.687 86.044H115.411V90.188H118.687Z" fill="black"/>
<path d="M2.00802 101.004H6.23602C6.65602 101.004 7.05735 101.046 7.44002 101.13C7.83202 101.205 8.17268 101.34 8.46202 101.536C8.76068 101.723 8.99868 101.975 9.17602 102.292C9.35335 102.6 9.44202 102.987 9.44202 103.454C9.44202 103.715 9.40002 103.972 9.31602 104.224C9.23202 104.467 9.11068 104.691 8.95202 104.896C8.80268 105.092 8.62068 105.26 8.40602 105.4C8.20068 105.54 7.96735 105.638 7.70602 105.694V105.722C8.35002 105.806 8.86335 106.072 9.24602 106.52C9.62868 106.959 9.82002 107.505 9.82002 108.158C9.82002 108.401 9.78268 108.685 9.70802 109.012C9.64268 109.329 9.48868 109.637 9.24602 109.936C9.00335 110.235 8.64402 110.487 8.16802 110.692C7.69202 110.897 7.04802 111 6.23602 111H2.00802V101.004ZM6.23602 110.188C6.59068 110.188 6.92668 110.16 7.24402 110.104C7.56135 110.039 7.84135 109.927 8.08402 109.768C8.32668 109.609 8.51802 109.399 8.65802 109.138C8.79802 108.877 8.86802 108.541 8.86802 108.13C8.86802 107.486 8.63935 107.005 8.18202 106.688C7.73402 106.361 7.08535 106.198 6.23602 106.198H2.96002V110.188H6.23602ZM6.23602 105.386C6.60935 105.386 6.93602 105.344 7.21602 105.26C7.50535 105.167 7.74335 105.045 7.93002 104.896C8.11668 104.737 8.25668 104.555 8.35002 104.35C8.44335 104.145 8.49002 103.925 8.49002 103.692C8.49002 102.441 7.73868 101.816 6.23602 101.816H2.96002V105.386H6.23602Z" fill="black"/>
<path d="M11.3459 101.004H12.2979V105.232H15.7839C16.7172 105.232 17.4452 105.489 17.9679 106.002C18.4906 106.515 18.7519 107.22 18.7519 108.116C18.7519 109.012 18.4906 109.717 17.9679 110.23C17.4452 110.743 16.7172 111 15.7839 111H11.3459V101.004ZM15.5739 110.188C16.2739 110.188 16.8199 110.006 17.2119 109.642C17.6039 109.269 17.7999 108.76 17.7999 108.116C17.7999 107.472 17.6039 106.968 17.2119 106.604C16.8199 106.231 16.2739 106.044 15.5739 106.044H12.2979V110.188H15.5739ZM20.2219 101.004H21.1739V111H20.2219V101.004Z" fill="black"/>
<path d="M23.6058 111V109.768H24.6278V111H23.6058Z" fill="black"/>
<path d="M27.5022 111V109.768H28.5242V111H27.5022Z" fill="black"/>
<path d="M31.3987 111V109.768H32.4207V111H31.3987Z" fill="black"/>
<path d="M35.2952 111V109.768H36.3172V111H35.2952Z" fill="black"/>
<path d="M38.7717 101.004H39.7237V105.344H45.6597V101.004H46.6117V111H45.6597V106.156H39.7237V111H38.7717V101.004Z" fill="black"/>
<path d="M51.5551 101.004H52.6191L56.5391 111H55.5171L54.2991 107.892H49.7491L48.5451 111H47.5371L51.5551 101.004ZM53.9771 107.08L52.0451 101.956L50.0431 107.08H53.9771Z" fill="black"/>
<path d="M61.6895 111.196C60.9055 111.196 60.2148 111.056 59.6175 110.776C59.0295 110.487 58.5395 110.104 58.1475 109.628C57.7555 109.152 57.4615 108.601 57.2655 107.976C57.0695 107.351 56.9715 106.693 56.9715 106.002C56.9715 105.321 57.0695 104.667 57.2655 104.042C57.4615 103.407 57.7555 102.852 58.1475 102.376C58.5395 101.891 59.0295 101.508 59.6175 101.228C60.2148 100.939 60.9055 100.794 61.6895 100.794C62.1655 100.794 62.6275 100.864 63.0755 101.004C63.5328 101.144 63.9435 101.354 64.3075 101.634C64.6808 101.905 64.9888 102.241 65.2315 102.642C65.4835 103.043 65.6421 103.505 65.7075 104.028H64.7555C64.6715 103.645 64.5315 103.305 64.3355 103.006C64.1488 102.698 63.9155 102.441 63.6355 102.236C63.3648 102.031 63.0615 101.877 62.7255 101.774C62.3988 101.662 62.0535 101.606 61.6895 101.606C61.0268 101.606 60.4575 101.732 59.9815 101.984C59.5055 102.236 59.1135 102.572 58.8055 102.992C58.5068 103.403 58.2828 103.874 58.1335 104.406C57.9935 104.929 57.9235 105.461 57.9235 106.002C57.9235 106.553 57.9935 107.089 58.1335 107.612C58.2828 108.135 58.5068 108.606 58.8055 109.026C59.1135 109.437 59.5055 109.768 59.9815 110.02C60.4575 110.272 61.0268 110.398 61.6895 110.398C62.1468 110.398 62.5621 110.314 62.9355 110.146C63.3181 109.978 63.6448 109.749 63.9155 109.46C64.1861 109.171 64.4055 108.835 64.5735 108.452C64.7415 108.06 64.8488 107.64 64.8955 107.192H65.8475C65.7821 107.808 65.6375 108.363 65.4135 108.858C65.1895 109.353 64.9001 109.773 64.5455 110.118C64.1908 110.463 63.7708 110.729 63.2855 110.916C62.8095 111.103 62.2775 111.196 61.6895 111.196Z" fill="black"/>
<path d="M69.7129 101.816H66.2409V101.004H74.1509V101.816H70.6649V111H69.7129V101.816Z" fill="black"/>
<path d="M79.2702 111.196C78.4862 111.196 77.7955 111.056 77.1982 110.776C76.6102 110.487 76.1202 110.104 75.7282 109.628C75.3362 109.152 75.0422 108.601 74.8462 107.976C74.6502 107.351 74.5522 106.693 74.5522 106.002C74.5522 105.321 74.6502 104.667 74.8462 104.042C75.0422 103.407 75.3362 102.852 75.7282 102.376C76.1202 101.891 76.6102 101.508 77.1982 101.228C77.7955 100.939 78.4862 100.794 79.2702 100.794C80.0542 100.794 80.7402 100.939 81.3282 101.228C81.9162 101.508 82.4062 101.891 82.7982 102.376C83.1902 102.852 83.4842 103.407 83.6802 104.042C83.8762 104.667 83.9742 105.321 83.9742 106.002C83.9742 106.693 83.8762 107.351 83.6802 107.976C83.4842 108.601 83.1902 109.152 82.7982 109.628C82.4062 110.104 81.9162 110.487 81.3282 110.776C80.7402 111.056 80.0542 111.196 79.2702 111.196ZM79.2702 110.398C79.9235 110.398 80.4882 110.272 80.9642 110.02C81.4402 109.768 81.8275 109.437 82.1262 109.026C82.4342 108.606 82.6582 108.135 82.7982 107.612C82.9475 107.089 83.0222 106.553 83.0222 106.002C83.0222 105.461 82.9475 104.929 82.7982 104.406C82.6582 103.874 82.4342 103.403 82.1262 102.992C81.8275 102.572 81.4402 102.236 80.9642 101.984C80.4882 101.732 79.9235 101.606 79.2702 101.606C78.6075 101.606 78.0382 101.732 77.5622 101.984C77.0862 102.236 76.6942 102.572 76.3862 102.992C76.0875 103.403 75.8635 103.874 75.7142 104.406C75.5742 104.929 75.5042 105.461 75.5042 106.002C75.5042 106.553 75.5742 107.089 75.7142 107.612C75.8635 108.135 76.0875 108.606 76.3862 109.026C76.6942 109.437 77.0862 109.768 77.5622 110.02C78.0382 110.272 78.6075 110.398 79.2702 110.398Z" fill="black"/>
<path d="M85.4611 101.004H86.4131V109.978L92.1531 101.004H93.3851V111H92.4331V102.026L86.6931 111H85.4611V101.004ZM89.3391 100.178C88.7511 100.178 88.2938 100.024 87.9671 99.716C87.6405 99.3987 87.4398 98.946 87.3651 98.358H87.9111C87.9578 98.7127 88.1025 98.9927 88.3451 99.198C88.5971 99.4033 88.9331 99.506 89.3531 99.506C89.7545 99.506 90.0811 99.408 90.3331 99.212C90.5945 99.0067 90.7625 98.722 90.8371 98.358H91.3831C91.2805 98.946 91.0611 99.3987 90.7251 99.716C90.3891 100.024 89.9271 100.178 89.3391 100.178Z" fill="black"/>
<path d="M95.4006 101.004H96.3526V106.38L102.163 101.004H103.451L98.9846 105.134L103.661 111H102.429L98.2706 105.792L96.3526 107.57V111H95.4006V101.004Z" fill="black"/>
<path d="M105.403 111.112C105.179 111.112 104.973 111.098 104.787 111.07C104.609 111.042 104.469 111.009 104.367 110.972V110.132C104.488 110.179 104.633 110.221 104.801 110.258C104.969 110.286 105.165 110.3 105.389 110.3C105.743 110.3 106.037 110.188 106.271 109.964C106.513 109.74 106.747 109.39 106.971 108.914L107.097 108.648L103.387 101.004H104.409L107.657 107.64L110.821 101.004H111.829L107.895 109.152C107.689 109.581 107.489 109.927 107.293 110.188C107.097 110.44 106.896 110.636 106.691 110.776C106.495 110.916 106.289 111.005 106.075 111.042C105.869 111.089 105.645 111.112 105.403 111.112Z" fill="black"/>
</svg>
