<svg width="176" height="92" viewBox="0 0 176 92" fill="none" xmlns="http://www.w3.org/2000/svg">
<path d="M0.0078125 1.00401L0.959812 1.00401V6.38001L6.76981 1.00401L8.05781 1.00401L3.59181 5.13401L8.26781 11H7.03581L2.87781 5.79201L0.959812 7.57001L0.959813 11H0.00781257L0.0078125 1.00401Z" fill="black"/>
<path d="M13.2719 11.196C12.4879 11.196 11.7973 11.056 11.1999 10.776C10.6119 10.4867 10.1219 10.104 9.72994 9.62801C9.33794 9.15201 9.04394 8.60134 8.84794 7.97601C8.65194 7.35067 8.55394 6.69267 8.55394 6.00201C8.55394 5.32067 8.65194 4.66734 8.84794 4.04201C9.04394 3.40734 9.33794 2.85201 9.72994 2.37601C10.1219 1.89067 10.6119 1.50801 11.1999 1.22801C11.7973 0.938673 12.4879 0.794006 13.2719 0.794006C14.0559 0.794006 14.7419 0.938673 15.3299 1.22801C15.9179 1.50801 16.4079 1.89067 16.7999 2.37601C17.1919 2.85201 17.4859 3.40734 17.6819 4.04201C17.8779 4.66734 17.9759 5.32067 17.9759 6.00201C17.9759 6.69267 17.8779 7.35067 17.6819 7.97601C17.4859 8.60134 17.1919 9.15201 16.7999 9.62801C16.4079 10.104 15.9179 10.4867 15.3299 10.776C14.7419 11.056 14.0559 11.196 13.2719 11.196ZM13.2719 10.398C13.9253 10.398 14.4899 10.272 14.9659 10.02C15.4419 9.76801 15.8293 9.43667 16.1279 9.02601C16.4359 8.60601 16.6599 8.13467 16.7999 7.61201C16.9493 7.08934 17.0239 6.55267 17.0239 6.00201C17.0239 5.46067 16.9493 4.92867 16.7999 4.40601C16.6599 3.87401 16.4359 3.40267 16.1279 2.99201C15.8293 2.57201 15.4419 2.23601 14.9659 1.98401C14.4899 1.73201 13.9253 1.60601 13.2719 1.60601C12.6093 1.60601 12.0399 1.73201 11.5639 1.98401C11.0879 2.23601 10.6959 2.57201 10.3879 2.99201C10.0893 3.40267 9.86527 3.87401 9.71594 4.40601C9.57594 4.92867 9.50594 5.46067 9.50594 6.00201C9.50594 6.55267 9.57594 7.08934 9.71594 7.61201C9.86527 8.13467 10.0893 8.60601 10.3879 9.02601C10.6959 9.43667 11.0879 9.76801 11.5639 10.02C12.0399 10.272 12.6093 10.398 13.2719 10.398Z" fill="black"/>
<path d="M22.8369 5.31601L18.6929 1.00401H19.9809L24.9089 6.26801V1.00401H25.8609V6.26801L30.7889 1.00401H32.0769L27.9329 5.31601L32.4269 11H31.1949L27.2609 6.01601L25.8609 7.47201V11H24.9089V7.47201L23.5089 6.01601L19.5749 11H18.3429L22.8369 5.31601Z" fill="black"/>
<path d="M36.2522 1.00401L37.3162 1.00401L41.2362 11H40.2142L38.9962 7.89201H34.4462L33.2422 11H32.2342L36.2522 1.00401ZM38.6742 7.08001L36.7422 1.95601L34.7402 7.08001H38.6742Z" fill="black"/>
<path d="M49.415 5.31601L45.271 1.00401L46.559 1.00401L51.487 6.26801V1.00401L52.439 1.00401V6.26801L57.367 1.00401L58.655 1.00401L54.511 5.31601L59.005 11H57.773L53.839 6.01601L52.439 7.47201V11H51.487V7.47201L50.087 6.01601L46.153 11H44.921L49.415 5.31601Z" fill="black"/>
<path d="M59.9043 1.00401L66.8063 1.00401V1.81601H60.8563V5.42801H66.4283V6.24001H60.8563V10.188H66.8763V11H59.9043V1.00401Z" fill="black"/>
<path d="M68.2031 1.00401L69.1551 1.00401V5.34401H75.0911V1.00401L76.0431 1.00401V11H75.0911V6.15601H69.1551V11H68.2031V1.00401Z" fill="black"/>
<path d="M90.6185 11H78.0605V1.00401L79.0126 1.00401V10.188H83.7445V1.00401H84.6965V10.188H89.4286V1.00401H90.3805V10.188H91.5705V13.66H90.6185V11Z" fill="black"/>
<path d="M92.6895 1.00401H93.6415V9.97801L99.3815 1.00401L100.613 1.00401V11H99.6615V2.02601L93.9215 11H92.6895V1.00401Z" fill="black"/>
<path d="M102.629 1.00401L103.581 1.00401V5.34401H109.517V1.00401H110.469V11H109.517V6.15601H103.581V11H102.629V1.00401Z" fill="black"/>
<path d="M112.486 1.00401H113.438V5.23201H116.924C117.858 5.23201 118.586 5.48867 119.108 6.00201C119.631 6.51534 119.892 7.22001 119.892 8.11601C119.892 9.01201 119.631 9.71667 119.108 10.23C118.586 10.7433 117.858 11 116.924 11H112.486V1.00401ZM116.714 10.188C117.414 10.188 117.96 10.006 118.352 9.64201C118.744 9.26867 118.94 8.76001 118.94 8.11601C118.94 7.47201 118.744 6.96801 118.352 6.60401C117.96 6.23067 117.414 6.04401 116.714 6.04401H113.438V10.188H116.714ZM121.362 1.00401H122.314V11H121.362V1.00401Z" fill="black"/>
<path d="M0.00781263 21.004H4.23581C4.65581 21.004 5.05715 21.046 5.43981 21.13C5.83181 21.2047 6.17248 21.34 6.46181 21.536C6.76048 21.7227 6.99848 21.9747 7.17581 22.292C7.35315 22.6 7.44181 22.9873 7.44181 23.454C7.44181 23.7153 7.39981 23.972 7.31581 24.224C7.23181 24.4667 7.11048 24.6907 6.95181 24.896C6.80248 25.092 6.62048 25.26 6.40581 25.4C6.20048 25.54 5.96715 25.638 5.70581 25.694V25.722C6.34981 25.806 6.86315 26.072 7.24581 26.52C7.62848 26.9587 7.81981 27.5047 7.81981 28.158C7.81981 28.4007 7.78248 28.6853 7.70781 29.012C7.64248 29.3293 7.48848 29.6373 7.24581 29.936C7.00315 30.2347 6.64381 30.4867 6.16781 30.692C5.69181 30.8973 5.04781 31 4.23581 31L0.0078127 31L0.00781263 21.004ZM4.23581 30.188C4.59048 30.188 4.92648 30.16 5.24381 30.104C5.56115 30.0387 5.84115 29.9267 6.08381 29.768C6.32648 29.6093 6.51781 29.3993 6.65781 29.138C6.79781 28.8767 6.86781 28.5407 6.86781 28.13C6.86781 27.486 6.63915 27.0053 6.18181 26.688C5.73381 26.3613 5.08515 26.198 4.23581 26.198H0.959813V30.188H4.23581ZM4.23581 25.386C4.60915 25.386 4.93581 25.344 5.21581 25.26C5.50515 25.1667 5.74315 25.0453 5.92981 24.896C6.11648 24.7373 6.25648 24.5553 6.34981 24.35C6.44315 24.1447 6.48981 23.9253 6.48981 23.692C6.48981 22.4413 5.73848 21.816 4.23581 21.816H0.959813V25.386L4.23581 25.386Z" fill="black"/>
<path d="M17.4842 31.196C16.7002 31.196 16.0095 31.056 15.4122 30.776C14.8242 30.4867 14.3342 30.104 13.9422 29.628C13.5502 29.152 13.2562 28.6013 13.0602 27.976C12.8642 27.3507 12.7662 26.6927 12.7662 26.002C12.7662 25.3207 12.8642 24.6673 13.0602 24.042C13.2562 23.4073 13.5502 22.852 13.9422 22.376C14.3342 21.8907 14.8242 21.508 15.4122 21.228C16.0095 20.9387 16.7002 20.794 17.4842 20.794C17.9602 20.794 18.4222 20.864 18.8702 21.004C19.3275 21.144 19.7382 21.354 20.1022 21.634C20.4755 21.9047 20.7835 22.2407 21.0262 22.642C21.2782 23.0433 21.4369 23.5053 21.5022 24.028H20.5502C20.4662 23.6453 20.3262 23.3047 20.1302 23.006C19.9435 22.698 19.7102 22.4413 19.4302 22.236C19.1595 22.0307 18.8562 21.8767 18.5202 21.774C18.1935 21.662 17.8482 21.606 17.4842 21.606C16.8215 21.606 16.2522 21.732 15.7762 21.984C15.3002 22.236 14.9082 22.572 14.6002 22.992C14.3015 23.4027 14.0775 23.874 13.9282 24.406C13.7882 24.9287 13.7182 25.4607 13.7182 26.002C13.7182 26.5527 13.7882 27.0893 13.9282 27.612C14.0775 28.1347 14.3015 28.606 14.6002 29.026C14.9082 29.4367 15.3002 29.768 15.7762 30.02C16.2522 30.272 16.8215 30.398 17.4842 30.398C17.9415 30.398 18.3569 30.314 18.7302 30.146C19.1129 29.978 19.4395 29.7493 19.7102 29.46C19.9809 29.1707 20.2002 28.8347 20.3682 28.452C20.5362 28.06 20.6435 27.64 20.6902 27.192H21.6422C21.5769 27.808 21.4322 28.3633 21.2082 28.858C20.9842 29.3527 20.6949 29.7727 20.3402 30.118C19.9855 30.4633 19.5655 30.7293 19.0802 30.916C18.6042 31.1027 18.0722 31.196 17.4842 31.196Z" fill="black"/>
<path d="M23.0996 21.004H24.0516V25.232H27.5376C28.4709 25.232 29.1989 25.4887 29.7216 26.002C30.2443 26.5153 30.5056 27.22 30.5056 28.116C30.5056 29.012 30.2443 29.7167 29.7216 30.23C29.1989 30.7433 28.4709 31 27.5376 31H23.0996V21.004ZM27.3276 30.188C28.0276 30.188 28.5736 30.006 28.9656 29.642C29.3576 29.2687 29.5536 28.76 29.5536 28.116C29.5536 27.472 29.3576 26.968 28.9656 26.604C28.5736 26.2307 28.0276 26.044 27.3276 26.044H24.0516V30.188H27.3276ZM31.9756 21.004H32.9276V31H31.9756V21.004Z" fill="black"/>
<path d="M38.4675 31.21C37.8515 31.21 37.2961 31.1353 36.8015 30.986C36.3068 30.8273 35.8868 30.6033 35.5415 30.314C35.2055 30.0153 34.9441 29.656 34.7575 29.236C34.5801 28.8067 34.4915 28.326 34.4915 27.794V27.71H35.4015C35.4015 28.634 35.6861 29.32 36.2555 29.768C36.8248 30.216 37.5855 30.44 38.5375 30.44C38.9575 30.44 39.3355 30.3793 39.6715 30.258C40.0075 30.1273 40.2875 29.9547 40.5115 29.74C40.7448 29.5253 40.9221 29.278 41.0435 28.998C41.1741 28.7087 41.2395 28.4053 41.2395 28.088C41.2395 27.7987 41.1788 27.5373 41.0575 27.304C40.9455 27.0613 40.7868 26.856 40.5815 26.688C40.3761 26.52 40.1335 26.3893 39.8535 26.296C39.5828 26.2027 39.2888 26.156 38.9715 26.156L37.3755 26.156V25.344H38.9715C39.2328 25.344 39.4848 25.3067 39.7275 25.232C39.9701 25.1573 40.1848 25.05 40.3715 24.91C40.5581 24.7607 40.7028 24.5787 40.8055 24.364C40.9175 24.14 40.9735 23.8833 40.9735 23.594C40.9735 23.2487 40.9081 22.95 40.7775 22.698C40.6561 22.446 40.4881 22.2407 40.2735 22.082C40.0588 21.914 39.8021 21.7927 39.5035 21.718C39.2048 21.634 38.8875 21.592 38.5515 21.592C38.1595 21.592 37.7955 21.6387 37.4595 21.732C37.1235 21.8253 36.8295 21.97 36.5775 22.166C36.3348 22.3527 36.1388 22.5907 35.9895 22.88C35.8495 23.16 35.7655 23.4867 35.7375 23.86H34.8135C34.8415 23.3467 34.9488 22.8987 35.1355 22.516C35.3315 22.1333 35.5928 21.816 35.9195 21.564C36.2461 21.3027 36.6288 21.1113 37.0675 20.99C37.5155 20.8593 38.0008 20.794 38.5235 20.794C38.9901 20.794 39.4288 20.85 39.8395 20.962C40.2595 21.0647 40.6235 21.228 40.9315 21.452C41.2395 21.676 41.4821 21.9607 41.6595 22.306C41.8368 22.642 41.9255 23.0433 41.9255 23.51C41.9255 23.7713 41.8835 24.0187 41.7995 24.252C41.7155 24.476 41.6035 24.6813 41.4635 24.868C41.3235 25.0453 41.1648 25.1993 40.9875 25.33C40.8101 25.4607 40.6328 25.5587 40.4555 25.624V25.666C40.9875 25.806 41.4075 26.0767 41.7155 26.478C42.0328 26.87 42.1915 27.402 42.1915 28.074C42.1915 28.382 42.1261 28.718 41.9955 29.082C41.8741 29.446 41.6688 29.7867 41.3795 30.104C41.0901 30.4213 40.7075 30.6873 40.2315 30.902C39.7555 31.1073 39.1675 31.21 38.4675 31.21Z" fill="black"/>
<path d="M43.7168 21.004H48.1548C48.6028 21.004 49.0088 21.0693 49.3728 21.2C49.7368 21.3213 50.0495 21.508 50.3108 21.76C50.5721 22.0027 50.7728 22.3013 50.9128 22.656C51.0528 23.0107 51.1228 23.412 51.1228 23.86C51.1228 24.308 51.0528 24.7093 50.9128 25.064C50.7728 25.4187 50.5721 25.722 50.3108 25.974C50.0495 26.2167 49.7368 26.4033 49.3728 26.534C49.0088 26.6553 48.6028 26.716 48.1548 26.716H44.6688V31H43.7168V21.004ZM47.9448 25.904C48.6075 25.904 49.1441 25.736 49.5548 25.4C49.9655 25.064 50.1708 24.5507 50.1708 23.86C50.1708 23.1693 49.9655 22.656 49.5548 22.32C49.1441 21.984 48.6075 21.816 47.9448 21.816H44.6688V25.904H47.9448Z" fill="black"/>
<path d="M55.4612 21.004H56.5252L60.4452 31H59.4232L58.2052 27.892H53.6552L52.4512 31H51.4432L55.4612 21.004ZM57.8832 27.08L55.9512 21.956L53.9492 27.08H57.8832Z" fill="black"/>
<path d="M61.3535 21.004H62.3055V25.344H68.2415V21.004H69.1935V31H68.2415V26.156H62.3055V31H61.3535V21.004Z" fill="black"/>
<path d="M71.2109 21.004H72.1629V29.978L77.9029 21.004H79.1349V31H78.1829V22.026L72.4429 31H71.2109V21.004Z" fill="black"/>
<path d="M89.2889 31.196C88.5049 31.196 87.8142 31.056 87.2169 30.776C86.6289 30.4867 86.1389 30.104 85.7469 29.628C85.3549 29.152 85.0609 28.6013 84.8649 27.976C84.6689 27.3507 84.5709 26.6927 84.5709 26.002C84.5709 25.3207 84.6689 24.6673 84.8649 24.042C85.0609 23.4073 85.3549 22.852 85.7469 22.376C86.1389 21.8907 86.6289 21.508 87.2169 21.228C87.8142 20.9387 88.5049 20.794 89.2889 20.794C89.7649 20.794 90.2269 20.864 90.6749 21.004C91.1322 21.144 91.5429 21.354 91.9069 21.634C92.2802 21.9047 92.5882 22.2407 92.8309 22.642C93.0829 23.0433 93.2415 23.5053 93.3069 24.028H92.3549C92.2709 23.6453 92.1309 23.3047 91.9349 23.006C91.7482 22.698 91.5149 22.4413 91.2349 22.236C90.9642 22.0307 90.6609 21.8767 90.3249 21.774C89.9982 21.662 89.6529 21.606 89.2889 21.606C88.6262 21.606 88.0569 21.732 87.5809 21.984C87.1049 22.236 86.7129 22.572 86.4049 22.992C86.1062 23.4027 85.8822 23.874 85.7329 24.406C85.5929 24.9287 85.5229 25.4607 85.5229 26.002C85.5229 26.5527 85.5929 27.0893 85.7329 27.612C85.8822 28.1347 86.1062 28.606 86.4049 29.026C86.7129 29.4367 87.1049 29.768 87.5809 30.02C88.0569 30.272 88.6262 30.398 89.2889 30.398C89.7462 30.398 90.1615 30.314 90.5349 30.146C90.9175 29.978 91.2442 29.7493 91.5149 29.46C91.7855 29.1707 92.0049 28.8347 92.1729 28.452C92.3409 28.06 92.4482 27.64 92.4949 27.192H93.4469C93.3815 27.808 93.2369 28.3633 93.0129 28.858C92.7889 29.3527 92.4995 29.7727 92.1449 30.118C91.7902 30.4633 91.3702 30.7293 90.8849 30.916C90.4089 31.1027 89.8769 31.196 89.2889 31.196Z" fill="black"/>
<path d="M97.3123 21.816H93.8403V21.004H101.75V21.816H98.2643V31H97.3123V21.816Z" fill="black"/>
<path d="M105.61 21.004H106.674L110.594 31H109.572L108.354 27.892H103.804L102.6 31H101.592L105.61 21.004ZM108.032 27.08L106.1 21.956L104.098 27.08H108.032Z" fill="black"/>
<path d="M111.25 31.084C111.194 31.084 111.124 31.0793 111.04 31.07C110.965 31.0607 110.886 31.0513 110.802 31.042C110.718 31.0327 110.643 31.0187 110.578 31C110.513 30.9907 110.466 30.9813 110.438 30.972V30.16C110.513 30.1973 110.625 30.2253 110.774 30.244C110.933 30.2533 111.049 30.258 111.124 30.258C111.227 30.258 111.348 30.2487 111.488 30.23C111.628 30.202 111.773 30.118 111.922 29.978C112.081 29.8287 112.235 29.6 112.384 29.292C112.543 28.9747 112.678 28.5267 112.79 27.948C112.911 27.36 113.009 26.618 113.084 25.722C113.159 24.826 113.196 23.7247 113.196 22.418V21.004H119.342V31H118.39V21.816H114.12V22.362C114.12 23.818 114.073 25.0453 113.98 26.044C113.887 27.0333 113.761 27.8547 113.602 28.508C113.443 29.152 113.261 29.6513 113.056 30.006C112.86 30.3513 112.655 30.6033 112.44 30.762C112.235 30.9207 112.025 31.014 111.81 31.042C111.605 31.07 111.418 31.084 111.25 31.084Z" fill="black"/>
<path d="M124.285 21.004H125.349L129.269 31H128.247L127.029 27.892H122.479L121.275 31H120.267L124.285 21.004ZM126.707 27.08L124.775 21.956L122.773 27.08H126.707Z" fill="black"/>
<path d="M0.00781276 41.004H4.44581C4.89381 41.004 5.29981 41.0693 5.66381 41.2C6.02781 41.3213 6.34048 41.508 6.60181 41.76C6.86315 42.0027 7.06381 42.3013 7.20381 42.656C7.34381 43.0107 7.41381 43.412 7.41381 43.86C7.41381 44.308 7.34381 44.7093 7.20381 45.064C7.06381 45.4187 6.86315 45.722 6.60181 45.974C6.34048 46.2167 6.02781 46.4033 5.66381 46.534C5.29981 46.6553 4.89381 46.716 4.44581 46.716H0.959813V51H0.00781283L0.00781276 41.004ZM4.23581 45.904C4.89848 45.904 5.43515 45.736 5.84581 45.4C6.25648 45.064 6.46181 44.5507 6.46181 43.86C6.46181 43.1693 6.25648 42.656 5.84581 42.32C5.43515 41.984 4.89848 41.816 4.23581 41.816H0.959813L0.959813 45.904H4.23581Z" fill="black"/>
<path d="M13.0122 51.196C12.2282 51.196 11.5375 51.056 10.9402 50.776C10.3522 50.4867 9.86217 50.104 9.47017 49.628C9.07817 49.152 8.78417 48.6013 8.58817 47.976C8.39217 47.3507 8.29417 46.6927 8.29417 46.002C8.29417 45.3207 8.39217 44.6673 8.58817 44.042C8.78417 43.4073 9.07817 42.852 9.47017 42.376C9.86217 41.8907 10.3522 41.508 10.9402 41.228C11.5375 40.9387 12.2282 40.794 13.0122 40.794C13.7962 40.794 14.4822 40.9387 15.0702 41.228C15.6582 41.508 16.1482 41.8907 16.5402 42.376C16.9322 42.852 17.2262 43.4073 17.4222 44.042C17.6182 44.6673 17.7162 45.3207 17.7162 46.002C17.7162 46.6927 17.6182 47.3507 17.4222 47.976C17.2262 48.6013 16.9322 49.152 16.5402 49.628C16.1482 50.104 15.6582 50.4867 15.0702 50.776C14.4822 51.056 13.7962 51.196 13.0122 51.196ZM13.0122 50.398C13.6655 50.398 14.2302 50.272 14.7062 50.02C15.1822 49.768 15.5695 49.4367 15.8682 49.026C16.1762 48.606 16.4002 48.1347 16.5402 47.612C16.6895 47.0893 16.7642 46.5527 16.7642 46.002C16.7642 45.4607 16.6895 44.9287 16.5402 44.406C16.4002 43.874 16.1762 43.4027 15.8682 42.992C15.5695 42.572 15.1822 42.236 14.7062 41.984C14.2302 41.732 13.6655 41.606 13.0122 41.606C12.3495 41.606 11.7802 41.732 11.3042 41.984C10.8282 42.236 10.4362 42.572 10.1282 42.992C9.82951 43.4027 9.60551 43.874 9.45617 44.406C9.31617 44.9287 9.24617 45.4607 9.24617 46.002C9.24617 46.5527 9.31617 47.0893 9.45617 47.612C9.60551 48.1347 9.82951 48.606 10.1282 49.026C10.4362 49.4367 10.8282 49.768 11.3042 50.02C11.7802 50.272 12.3495 50.398 13.0122 50.398Z" fill="black"/>
<path d="M22.7311 51.21C22.1151 51.21 21.5598 51.1353 21.0651 50.986C20.5705 50.8273 20.1505 50.6033 19.8051 50.314C19.4691 50.0153 19.2078 49.656 19.0211 49.236C18.8438 48.8067 18.7551 48.326 18.7551 47.794V47.71H19.6651C19.6651 48.634 19.9498 49.32 20.5191 49.768C21.0885 50.216 21.8491 50.44 22.8011 50.44C23.2211 50.44 23.5991 50.3793 23.9351 50.258C24.2711 50.1273 24.5511 49.9547 24.7751 49.74C25.0085 49.5253 25.1858 49.278 25.3071 48.998C25.4378 48.7087 25.5031 48.4053 25.5031 48.088C25.5031 47.7987 25.4425 47.5373 25.3211 47.304C25.2091 47.0613 25.0505 46.856 24.8451 46.688C24.6398 46.52 24.3971 46.3893 24.1171 46.296C23.8465 46.2027 23.5525 46.156 23.2351 46.156H21.6391V45.344H23.2351C23.4965 45.344 23.7485 45.3067 23.9911 45.232C24.2338 45.1573 24.4485 45.05 24.6351 44.91C24.8218 44.7607 24.9665 44.5787 25.0691 44.364C25.1811 44.14 25.2371 43.8833 25.2371 43.594C25.2371 43.2487 25.1718 42.95 25.0411 42.698C24.9198 42.446 24.7518 42.2407 24.5371 42.082C24.3225 41.914 24.0658 41.7927 23.7671 41.718C23.4685 41.634 23.1511 41.592 22.8151 41.592C22.4231 41.592 22.0591 41.6387 21.7231 41.732C21.3871 41.8253 21.0931 41.97 20.8411 42.166C20.5985 42.3527 20.4025 42.5907 20.2531 42.88C20.1131 43.16 20.0291 43.4867 20.0011 43.86H19.0771C19.1051 43.3467 19.2125 42.8987 19.3991 42.516C19.5951 42.1333 19.8565 41.816 20.1831 41.564C20.5098 41.3027 20.8925 41.1113 21.3311 40.99C21.7791 40.8593 22.2645 40.794 22.7871 40.794C23.2538 40.794 23.6925 40.85 24.1031 40.962C24.5231 41.0647 24.8871 41.228 25.1951 41.452C25.5031 41.676 25.7458 41.9607 25.9231 42.306C26.1005 42.642 26.1891 43.0433 26.1891 43.51C26.1891 43.7713 26.1471 44.0187 26.0631 44.252C25.9791 44.476 25.8671 44.6813 25.7271 44.868C25.5871 45.0453 25.4285 45.1993 25.2511 45.33C25.0738 45.4607 24.8965 45.5587 24.7191 45.624V45.666C25.2511 45.806 25.6711 46.0767 25.9791 46.478C26.2965 46.87 26.4551 47.402 26.4551 48.074C26.4551 48.382 26.3898 48.718 26.2591 49.082C26.1378 49.446 25.9325 49.7867 25.6431 50.104C25.3538 50.4213 24.9711 50.6873 24.4951 50.902C24.0191 51.1073 23.4311 51.21 22.7311 51.21Z" fill="black"/>
<path d="M32.1665 51.196C31.3825 51.196 30.6918 51.056 30.0945 50.776C29.5065 50.4867 29.0165 50.104 28.6245 49.628C28.2325 49.152 27.9385 48.6013 27.7425 47.976C27.5465 47.3507 27.4485 46.6927 27.4485 46.002C27.4485 45.3207 27.5465 44.6673 27.7425 44.042C27.9385 43.4073 28.2325 42.852 28.6245 42.376C29.0165 41.8907 29.5065 41.508 30.0945 41.228C30.6918 40.9387 31.3825 40.794 32.1665 40.794C32.9505 40.794 33.6365 40.9387 34.2245 41.228C34.8125 41.508 35.3025 41.8907 35.6945 42.376C36.0865 42.852 36.3805 43.4073 36.5765 44.042C36.7725 44.6673 36.8705 45.3207 36.8705 46.002C36.8705 46.6927 36.7725 47.3507 36.5765 47.976C36.3805 48.6013 36.0865 49.152 35.6945 49.628C35.3025 50.104 34.8125 50.4867 34.2245 50.776C33.6365 51.056 32.9505 51.196 32.1665 51.196ZM32.1665 50.398C32.8198 50.398 33.3845 50.272 33.8605 50.02C34.3365 49.768 34.7238 49.4367 35.0225 49.026C35.3305 48.606 35.5545 48.1347 35.6945 47.612C35.8438 47.0893 35.9185 46.5527 35.9185 46.002C35.9185 45.4607 35.8438 44.9287 35.6945 44.406C35.5545 43.874 35.3305 43.4027 35.0225 42.992C34.7238 42.572 34.3365 42.236 33.8605 41.984C33.3845 41.732 32.8198 41.606 32.1665 41.606C31.5038 41.606 30.9345 41.732 30.4585 41.984C29.9825 42.236 29.5905 42.572 29.2825 42.992C28.9838 43.4027 28.7598 43.874 28.6105 44.406C28.4705 44.9287 28.4005 45.4607 28.4005 46.002C28.4005 46.5527 28.4705 47.0893 28.6105 47.612C28.7598 48.1347 28.9838 48.606 29.2825 49.026C29.5905 49.4367 29.9825 49.768 30.4585 50.02C30.9345 50.272 31.5038 50.398 32.1665 50.398Z" fill="black"/>
<path d="M38.3574 41.004H42.5854C43.0054 41.004 43.4068 41.046 43.7894 41.13C44.1814 41.2047 44.5221 41.34 44.8114 41.536C45.1101 41.7227 45.3481 41.9747 45.5254 42.292C45.7028 42.6 45.7914 42.9873 45.7914 43.454C45.7914 43.7153 45.7494 43.972 45.6654 44.224C45.5814 44.4667 45.4601 44.6907 45.3014 44.896C45.1521 45.092 44.9701 45.26 44.7554 45.4C44.5501 45.54 44.3168 45.638 44.0554 45.694V45.722C44.6994 45.806 45.2128 46.072 45.5954 46.52C45.9781 46.9587 46.1694 47.5047 46.1694 48.158C46.1694 48.4007 46.1321 48.6853 46.0574 49.012C45.9921 49.3293 45.8381 49.6373 45.5954 49.936C45.3528 50.2347 44.9934 50.4867 44.5174 50.692C44.0414 50.8973 43.3974 51 42.5854 51H38.3574V41.004ZM42.5854 50.188C42.9401 50.188 43.2761 50.16 43.5934 50.104C43.9108 50.0387 44.1908 49.9267 44.4334 49.768C44.6761 49.6093 44.8674 49.3993 45.0074 49.138C45.1474 48.8767 45.2174 48.5407 45.2174 48.13C45.2174 47.486 44.9888 47.0053 44.5314 46.688C44.0834 46.3613 43.4348 46.198 42.5854 46.198H39.3094V50.188H42.5854ZM42.5854 45.386C42.9588 45.386 43.2854 45.344 43.5654 45.26C43.8548 45.1667 44.0928 45.0453 44.2794 44.896C44.4661 44.7373 44.6061 44.5553 44.6994 44.35C44.7928 44.1447 44.8394 43.9253 44.8394 43.692C44.8394 42.4413 44.0881 41.816 42.5854 41.816H39.3094V45.386H42.5854Z" fill="black"/>
<path d="M51.8813 51.196C51.0973 51.196 50.4066 51.056 49.8093 50.776C49.2213 50.4867 48.7313 50.104 48.3393 49.628C47.9473 49.152 47.6533 48.6013 47.4573 47.976C47.2613 47.3507 47.1633 46.6927 47.1633 46.002C47.1633 45.3207 47.2613 44.6673 47.4573 44.042C47.6533 43.4073 47.9473 42.852 48.3393 42.376C48.7313 41.8907 49.2213 41.508 49.8093 41.228C50.4066 40.9387 51.0973 40.794 51.8813 40.794C52.6653 40.794 53.3513 40.9387 53.9393 41.228C54.5273 41.508 55.0173 41.8907 55.4093 42.376C55.8013 42.852 56.0953 43.4073 56.2913 44.042C56.4873 44.6673 56.5853 45.3207 56.5853 46.002C56.5853 46.6927 56.4873 47.3507 56.2913 47.976C56.0953 48.6013 55.8013 49.152 55.4093 49.628C55.0173 50.104 54.5273 50.4867 53.9393 50.776C53.3513 51.056 52.6653 51.196 51.8813 51.196ZM51.8813 50.398C52.5346 50.398 53.0993 50.272 53.5753 50.02C54.0513 49.768 54.4386 49.4367 54.7373 49.026C55.0453 48.606 55.2693 48.1347 55.4093 47.612C55.5586 47.0893 55.6333 46.5527 55.6333 46.002C55.6333 45.4607 55.5586 44.9287 55.4093 44.406C55.2693 43.874 55.0453 43.4027 54.7373 42.992C54.4386 42.572 54.0513 42.236 53.5753 41.984C53.0993 41.732 52.5346 41.606 51.8813 41.606C51.2186 41.606 50.6493 41.732 50.1733 41.984C49.6973 42.236 49.3053 42.572 48.9973 42.992C48.6986 43.4027 48.4746 43.874 48.3253 44.406C48.1853 44.9287 48.1153 45.4607 48.1153 46.002C48.1153 46.5527 48.1853 47.0893 48.3253 47.612C48.4746 48.1347 48.6986 48.606 48.9973 49.026C49.3053 49.4367 49.6973 49.768 50.1733 50.02C50.6493 50.272 51.2186 50.398 51.8813 50.398Z" fill="black"/>
<path d="M58.0723 41.004H59.0243V49.978L64.7643 41.004H65.9963V51H65.0443V42.026L59.3043 51H58.0723V41.004ZM61.9503 40.178C61.3623 40.178 60.9049 40.024 60.5783 39.716C60.2516 39.3987 60.0509 38.946 59.9763 38.358H60.5223C60.5689 38.7127 60.7136 38.9927 60.9563 39.198C61.2083 39.4033 61.5443 39.506 61.9643 39.506C62.3656 39.506 62.6923 39.408 62.9443 39.212C63.2056 39.0067 63.3736 38.722 63.4483 38.358H63.9943C63.8916 38.946 63.6723 39.3987 63.3363 39.716C63.0003 40.024 62.5383 40.178 61.9503 40.178Z" fill="black"/>
<path d="M68.8237 44.056V40.92H69.8457V44.056L69.6497 48.466H69.0197L68.8237 44.056ZM68.8237 51V49.768H69.8457V51H68.8237Z" fill="black"/>
<path d="M73.4858 44.056V40.92H74.5078V44.056L74.3118 48.466H73.6818L73.4858 44.056ZM73.4858 51V49.768H74.5078V51H73.4858Z" fill="black"/>
<path d="M78.1479 44.056V40.92H79.1699V44.056L78.9739 48.466H78.3439L78.1479 44.056ZM78.1479 51V49.768H79.1699V51H78.1479Z" fill="black"/>
<path d="M89.4225 51.21C88.8065 51.21 88.2512 51.1353 87.7565 50.986C87.2619 50.8273 86.8419 50.6033 86.4965 50.314C86.1605 50.0153 85.8992 49.656 85.7125 49.236C85.5352 48.8067 85.4465 48.326 85.4465 47.794V47.71H86.3565C86.3565 48.634 86.6412 49.32 87.2105 49.768C87.7799 50.216 88.5405 50.44 89.4925 50.44C89.9125 50.44 90.2905 50.3793 90.6265 50.258C90.9625 50.1273 91.2425 49.9547 91.4665 49.74C91.6999 49.5253 91.8772 49.278 91.9985 48.998C92.1292 48.7087 92.1945 48.4053 92.1945 48.088C92.1945 47.7987 92.1339 47.5373 92.0125 47.304C91.9005 47.0613 91.7419 46.856 91.5365 46.688C91.3312 46.52 91.0885 46.3893 90.8085 46.296C90.5379 46.2027 90.2439 46.156 89.9265 46.156H88.3305V45.344H89.9265C90.1879 45.344 90.4399 45.3067 90.6825 45.232C90.9252 45.1573 91.1399 45.05 91.3265 44.91C91.5132 44.7607 91.6579 44.5787 91.7605 44.364C91.8725 44.14 91.9285 43.8833 91.9285 43.594C91.9285 43.2487 91.8632 42.95 91.7325 42.698C91.6112 42.446 91.4432 42.2407 91.2285 42.082C91.0139 41.914 90.7572 41.7927 90.4585 41.718C90.1599 41.634 89.8425 41.592 89.5065 41.592C89.1145 41.592 88.7505 41.6387 88.4145 41.732C88.0785 41.8253 87.7845 41.97 87.5325 42.166C87.2899 42.3527 87.0939 42.5907 86.9445 42.88C86.8045 43.16 86.7205 43.4867 86.6925 43.86H85.7685C85.7965 43.3467 85.9039 42.8987 86.0905 42.516C86.2865 42.1333 86.5479 41.816 86.8745 41.564C87.2012 41.3027 87.5839 41.1113 88.0225 40.99C88.4705 40.8593 88.9559 40.794 89.4785 40.794C89.9452 40.794 90.3839 40.85 90.7945 40.962C91.2145 41.0647 91.5785 41.228 91.8865 41.452C92.1945 41.676 92.4372 41.9607 92.6145 42.306C92.7919 42.642 92.8805 43.0433 92.8805 43.51C92.8805 43.7713 92.8385 44.0187 92.7545 44.252C92.6705 44.476 92.5585 44.6813 92.4185 44.868C92.2785 45.0453 92.1199 45.1993 91.9425 45.33C91.7652 45.4607 91.5879 45.5587 91.4105 45.624V45.666C91.9425 45.806 92.3625 46.0767 92.6705 46.478C92.9879 46.87 93.1465 47.402 93.1465 48.074C93.1465 48.382 93.0812 48.718 92.9505 49.082C92.8292 49.446 92.6239 49.7867 92.3345 50.104C92.0452 50.4213 91.6625 50.6873 91.1865 50.902C90.7105 51.1073 90.1225 51.21 89.4225 51.21Z" fill="black"/>
<path d="M94.6719 41.004H98.8999C99.3199 41.004 99.7212 41.046 100.104 41.13C100.496 41.2047 100.837 41.34 101.126 41.536C101.425 41.7227 101.663 41.9747 101.84 42.292C102.017 42.6 102.106 42.9873 102.106 43.454C102.106 43.7153 102.064 43.972 101.98 44.224C101.896 44.4667 101.775 44.6907 101.616 44.896C101.467 45.092 101.285 45.26 101.07 45.4C100.865 45.54 100.631 45.638 100.37 45.694V45.722C101.014 45.806 101.527 46.072 101.91 46.52C102.293 46.9587 102.484 47.5047 102.484 48.158C102.484 48.4007 102.447 48.6853 102.372 49.012C102.307 49.3293 102.153 49.6373 101.91 49.936C101.667 50.2347 101.308 50.4867 100.832 50.692C100.356 50.8973 99.7119 51 98.8999 51H94.6719V41.004ZM98.8999 50.188C99.2545 50.188 99.5905 50.16 99.9079 50.104C100.225 50.0387 100.505 49.9267 100.748 49.768C100.991 49.6093 101.182 49.3993 101.322 49.138C101.462 48.8767 101.532 48.5407 101.532 48.13C101.532 47.486 101.303 47.0053 100.846 46.688C100.398 46.3613 99.7492 46.198 98.8999 46.198H95.6239V50.188H98.8999ZM98.8999 45.386C99.2732 45.386 99.5999 45.344 99.8799 45.26C100.169 45.1667 100.407 45.0453 100.594 44.896C100.781 44.7373 100.921 44.5553 101.014 44.35C101.107 44.1447 101.154 43.9253 101.154 43.692C101.154 42.4413 100.403 41.816 98.8999 41.816H95.6239V45.386L98.8999 45.386Z" fill="black"/>
<path d="M104.01 41.004H110.912V41.816H104.962V45.428H110.534V46.24H104.962V50.188H110.982V51H104.01V41.004Z" fill="black"/>
<path d="M115.837 51.21C115.221 51.21 114.665 51.1353 114.171 50.986C113.676 50.8273 113.256 50.6033 112.911 50.314C112.575 50.0153 112.313 49.656 112.127 49.236C111.949 48.8067 111.861 48.326 111.861 47.794V47.71H112.771C112.771 48.634 113.055 49.32 113.625 49.768C114.194 50.216 114.955 50.44 115.907 50.44C116.327 50.44 116.705 50.3793 117.041 50.258C117.377 50.1273 117.657 49.9547 117.881 49.74C118.114 49.5253 118.291 49.278 118.413 48.998C118.543 48.7087 118.609 48.4053 118.609 48.088C118.609 47.7987 118.548 47.5373 118.427 47.304C118.315 47.0613 118.156 46.856 117.951 46.688C117.745 46.52 117.503 46.3893 117.223 46.296C116.952 46.2027 116.658 46.156 116.341 46.156H114.745V45.344H116.341C116.602 45.344 116.854 45.3067 117.097 45.232C117.339 45.1573 117.554 45.05 117.741 44.91C117.927 44.7607 118.072 44.5787 118.175 44.364C118.287 44.14 118.343 43.8833 118.343 43.594C118.343 43.2487 118.277 42.95 118.147 42.698C118.025 42.446 117.857 42.2407 117.643 42.082C117.428 41.914 117.171 41.7927 116.873 41.718C116.574 41.634 116.257 41.592 115.921 41.592C115.529 41.592 115.165 41.6387 114.829 41.732C114.493 41.8253 114.199 41.97 113.947 42.166C113.704 42.3527 113.508 42.5907 113.359 42.88C113.219 43.16 113.135 43.4867 113.107 43.86H112.183C112.211 43.3467 112.318 42.8987 112.505 42.516C112.701 42.1333 112.962 41.816 113.289 41.564C113.615 41.3027 113.998 41.1113 114.437 40.99C114.885 40.8593 115.37 40.794 115.893 40.794C116.359 40.794 116.798 40.85 117.209 40.962C117.629 41.0647 117.993 41.228 118.301 41.452C118.609 41.676 118.851 41.9607 119.029 42.306C119.206 42.642 119.295 43.0433 119.295 43.51C119.295 43.7713 119.253 44.0187 119.169 44.252C119.085 44.476 118.973 44.6813 118.833 44.868C118.693 45.0453 118.534 45.1993 118.357 45.33C118.179 45.4607 118.002 45.5587 117.825 45.624V45.666C118.357 45.806 118.777 46.0767 119.085 46.478C119.402 46.87 119.561 47.402 119.561 48.074C119.561 48.382 119.495 48.718 119.365 49.082C119.243 49.446 119.038 49.7867 118.749 50.104C118.459 50.4213 118.077 50.6873 117.601 50.902C117.125 51.1073 116.537 51.21 115.837 51.21Z" fill="black"/>
<path d="M120.078 50.188H121.128C121.483 49.5347 121.758 48.8673 121.954 48.186C122.15 47.4953 122.295 46.8093 122.388 46.128C122.491 45.4467 122.551 44.784 122.57 44.14C122.598 43.496 122.612 42.8893 122.612 42.32V41.004H128.8V50.188H129.99V53.66H129.038V51H121.03V53.66H120.078V50.188ZM127.848 50.188V41.816H123.564V42.152C123.564 42.712 123.555 43.3233 123.536 43.986C123.527 44.6393 123.475 45.316 123.382 46.016C123.289 46.716 123.144 47.4207 122.948 48.13C122.761 48.8393 122.491 49.5253 122.136 50.188H127.848Z" fill="black"/>
<path d="M134.033 41.004H135.097L139.017 51H137.995L136.777 47.892H132.227L131.023 51H130.015L134.033 41.004ZM136.455 47.08L134.523 41.956L132.521 47.08H136.455Z" fill="black"/>
<path d="M143.822 41.004H144.774V50.188H149.506V41.004H150.458V50.188H155.19V41.004H156.142V51H143.822V41.004Z" fill="black"/>
<path d="M162.35 51.196C161.566 51.196 160.875 51.056 160.278 50.776C159.69 50.4867 159.2 50.104 158.808 49.628C158.416 49.152 158.122 48.6013 157.926 47.976C157.73 47.3507 157.632 46.6927 157.632 46.002C157.632 45.3207 157.73 44.6673 157.926 44.042C158.122 43.4073 158.416 42.852 158.808 42.376C159.2 41.8907 159.69 41.508 160.278 41.228C160.875 40.9387 161.566 40.794 162.35 40.794C163.134 40.794 163.82 40.9387 164.408 41.228C164.996 41.508 165.486 41.8907 165.878 42.376C166.27 42.852 166.564 43.4073 166.76 44.042C166.956 44.6673 167.054 45.3207 167.054 46.002C167.054 46.6927 166.956 47.3507 166.76 47.976C166.564 48.6013 166.27 49.152 165.878 49.628C165.486 50.104 164.996 50.4867 164.408 50.776C163.82 51.056 163.134 51.196 162.35 51.196ZM162.35 50.398C163.003 50.398 163.568 50.272 164.044 50.02C164.52 49.768 164.907 49.4367 165.206 49.026C165.514 48.606 165.738 48.1347 165.878 47.612C166.027 47.0893 166.102 46.5527 166.102 46.002C166.102 45.4607 166.027 44.9287 165.878 44.406C165.738 43.874 165.514 43.4027 165.206 42.992C164.907 42.572 164.52 42.236 164.044 41.984C163.568 41.732 163.003 41.606 162.35 41.606C161.687 41.606 161.118 41.732 160.642 41.984C160.166 42.236 159.774 42.572 159.466 42.992C159.167 43.4027 158.943 43.874 158.794 44.406C158.654 44.9287 158.584 45.4607 158.584 46.002C158.584 46.5527 158.654 47.0893 158.794 47.612C158.943 48.1347 159.167 48.606 159.466 49.026C159.774 49.4367 160.166 49.768 160.642 50.02C161.118 50.272 161.687 50.398 162.35 50.398Z" fill="black"/>
<path d="M169.465 51.112C169.241 51.112 169.036 51.098 168.849 51.07C168.672 51.042 168.532 51.0093 168.429 50.972V50.132C168.55 50.1787 168.695 50.2207 168.863 50.258C169.031 50.286 169.227 50.3 169.451 50.3C169.806 50.3 170.1 50.188 170.333 49.964C170.576 49.74 170.809 49.39 171.033 48.914L171.159 48.648L167.449 41.004H168.471L171.719 47.64L174.883 41.004H175.891L171.957 49.152C171.752 49.5813 171.551 49.9267 171.355 50.188C171.159 50.44 170.958 50.636 170.753 50.776C170.557 50.916 170.352 51.0047 170.137 51.042C169.932 51.0887 169.708 51.112 169.465 51.112Z" fill="black"/>
<path d="M0.0918128 61.004H6.26581V61.816H1.04381L1.04381 71H0.0918129L0.0918128 61.004Z" fill="black"/>
<path d="M11.3852 71.196C10.6012 71.196 9.91055 71.056 9.31322 70.776C8.72522 70.4867 8.23522 70.104 7.84322 69.628C7.45122 69.152 7.15722 68.6013 6.96122 67.976C6.76522 67.3507 6.66722 66.6927 6.66722 66.002C6.66722 65.3207 6.76522 64.6673 6.96122 64.042C7.15722 63.4073 7.45122 62.852 7.84322 62.376C8.23522 61.8907 8.72522 61.508 9.31322 61.228C9.91055 60.9387 10.6012 60.794 11.3852 60.794C12.1692 60.794 12.8552 60.9387 13.4432 61.228C14.0312 61.508 14.5212 61.8907 14.9132 62.376C15.3052 62.852 15.5992 63.4073 15.7952 64.042C15.9912 64.6673 16.0892 65.3207 16.0892 66.002C16.0892 66.6927 15.9912 67.3507 15.7952 67.976C15.5992 68.6013 15.3052 69.152 14.9132 69.628C14.5212 70.104 14.0312 70.4867 13.4432 70.776C12.8552 71.056 12.1692 71.196 11.3852 71.196ZM11.3852 70.398C12.0386 70.398 12.6032 70.272 13.0792 70.02C13.5552 69.768 13.9426 69.4367 14.2412 69.026C14.5492 68.606 14.7732 68.1347 14.9132 67.612C15.0626 67.0893 15.1372 66.5527 15.1372 66.002C15.1372 65.4607 15.0626 64.9287 14.9132 64.406C14.7732 63.874 14.5492 63.4027 14.2412 62.992C13.9426 62.572 13.5552 62.236 13.0792 61.984C12.6032 61.732 12.0386 61.606 11.3852 61.606C10.7226 61.606 10.1532 61.732 9.67722 61.984C9.20122 62.236 8.80922 62.572 8.50122 62.992C8.20255 63.4027 7.97855 63.874 7.82922 64.406C7.68922 64.9287 7.61922 65.4607 7.61922 66.002C7.61922 66.5527 7.68922 67.0893 7.82922 67.612C7.97855 68.1347 8.20255 68.606 8.50122 69.026C8.80922 69.4367 9.20122 69.768 9.67722 70.02C10.1532 70.272 10.7226 70.398 11.3852 70.398Z" fill="black"/>
<path d="M17.3242 71.084C17.2682 71.084 17.1982 71.0793 17.1142 71.07C17.0395 71.0607 16.9602 71.0513 16.8762 71.042C16.7922 71.0327 16.7175 71.0187 16.6522 71C16.5868 70.9907 16.5402 70.9813 16.5122 70.972V70.16C16.5868 70.1973 16.6988 70.2253 16.8482 70.244C17.0068 70.2533 17.1235 70.258 17.1982 70.258C17.3008 70.258 17.4222 70.2487 17.5622 70.23C17.7022 70.202 17.8468 70.118 17.9962 69.978C18.1548 69.8287 18.3088 69.6 18.4582 69.292C18.6168 68.9747 18.7522 68.5267 18.8642 67.948C18.9855 67.36 19.0835 66.618 19.1582 65.722C19.2328 64.826 19.2702 63.7247 19.2702 62.418V61.004H25.4162V71H24.4642V61.816H20.1942V62.362C20.1942 63.818 20.1475 65.0453 20.0542 66.044C19.9608 67.0333 19.8348 67.8547 19.6762 68.508C19.5175 69.152 19.3355 69.6513 19.1302 70.006C18.9342 70.3513 18.7288 70.6033 18.5142 70.762C18.3088 70.9207 18.0988 71.014 17.8842 71.042C17.6788 71.07 17.4922 71.084 17.3242 71.084Z" fill="black"/>
<path d="M31.6196 71.196C30.8356 71.196 30.1449 71.056 29.5476 70.776C28.9596 70.4867 28.4696 70.104 28.0776 69.628C27.6856 69.152 27.3916 68.6013 27.1956 67.976C26.9996 67.3507 26.9016 66.6927 26.9016 66.002C26.9016 65.3207 26.9996 64.6673 27.1956 64.042C27.3916 63.4073 27.6856 62.852 28.0776 62.376C28.4696 61.8907 28.9596 61.508 29.5476 61.228C30.1449 60.9387 30.8356 60.794 31.6196 60.794C32.4036 60.794 33.0896 60.9387 33.6776 61.228C34.2656 61.508 34.7556 61.8907 35.1476 62.376C35.5396 62.852 35.8336 63.4073 36.0296 64.042C36.2256 64.6673 36.3236 65.3207 36.3236 66.002C36.3236 66.6927 36.2256 67.3507 36.0296 67.976C35.8336 68.6013 35.5396 69.152 35.1476 69.628C34.7556 70.104 34.2656 70.4867 33.6776 70.776C33.0896 71.056 32.4036 71.196 31.6196 71.196ZM31.6196 70.398C32.2729 70.398 32.8376 70.272 33.3136 70.02C33.7896 69.768 34.1769 69.4367 34.4756 69.026C34.7836 68.606 35.0076 68.1347 35.1476 67.612C35.2969 67.0893 35.3716 66.5527 35.3716 66.002C35.3716 65.4607 35.2969 64.9287 35.1476 64.406C35.0076 63.874 34.7836 63.4027 34.4756 62.992C34.1769 62.572 33.7896 62.236 33.3136 61.984C32.8376 61.732 32.2729 61.606 31.6196 61.606C30.9569 61.606 30.3876 61.732 29.9116 61.984C29.4356 62.236 29.0436 62.572 28.7356 62.992C28.4369 63.4027 28.2129 63.874 28.0636 64.406C27.9236 64.9287 27.8536 65.4607 27.8536 66.002C27.8536 66.5527 27.9236 67.0893 28.0636 67.612C28.2129 68.1347 28.4369 68.606 28.7356 69.026C29.0436 69.4367 29.4356 69.768 29.9116 70.02C30.3876 70.272 30.9569 70.398 31.6196 70.398Z" fill="black"/>
<path d="M42.0525 71.196C41.2685 71.196 40.5779 71.056 39.9805 70.776C39.3925 70.4867 38.9025 70.104 38.5105 69.628C38.1185 69.152 37.8245 68.6013 37.6285 67.976C37.4325 67.3507 37.3345 66.6927 37.3345 66.002C37.3345 65.3207 37.4325 64.6673 37.6285 64.042C37.8245 63.4073 38.1185 62.852 38.5105 62.376C38.9025 61.8907 39.3925 61.508 39.9805 61.228C40.5779 60.9387 41.2685 60.794 42.0525 60.794C42.5285 60.794 42.9905 60.864 43.4385 61.004C43.8959 61.144 44.3065 61.354 44.6705 61.634C45.0439 61.9047 45.3519 62.2407 45.5945 62.642C45.8465 63.0433 46.0052 63.5053 46.0705 64.028H45.1185C45.0345 63.6453 44.8945 63.3047 44.6985 63.006C44.5119 62.698 44.2785 62.4413 43.9985 62.236C43.7279 62.0307 43.4245 61.8767 43.0885 61.774C42.7619 61.662 42.4165 61.606 42.0525 61.606C41.3899 61.606 40.8205 61.732 40.3445 61.984C39.8685 62.236 39.4765 62.572 39.1685 62.992C38.8699 63.4027 38.6459 63.874 38.4965 64.406C38.3565 64.9287 38.2865 65.4607 38.2865 66.002C38.2865 66.5527 38.3565 67.0893 38.4965 67.612C38.6459 68.1347 38.8699 68.606 39.1685 69.026C39.4765 69.4367 39.8685 69.768 40.3445 70.02C40.8205 70.272 41.3899 70.398 42.0525 70.398C42.5099 70.398 42.9252 70.314 43.2985 70.146C43.6812 69.978 44.0079 69.7493 44.2785 69.46C44.5492 69.1707 44.7685 68.8347 44.9365 68.452C45.1045 68.06 45.2119 67.64 45.2585 67.192H46.2105C46.1452 67.808 46.0005 68.3633 45.7765 68.858C45.5525 69.3527 45.2632 69.7727 44.9085 70.118C44.5539 70.4633 44.1339 70.7293 43.6485 70.916C43.1725 71.1027 42.6405 71.196 42.0525 71.196Z" fill="black"/>
<path d="M51.5645 61.004H58.4665V61.816H52.5165V65.232H56.2825C57.2158 65.232 57.9438 65.4887 58.4665 66.002C58.9891 66.5153 59.2505 67.22 59.2505 68.116C59.2505 69.012 58.9891 69.7167 58.4665 70.23C57.9438 70.7433 57.2158 71 56.2825 71H51.5645V61.004ZM56.0725 70.188C56.7725 70.188 57.3185 70.006 57.7105 69.642C58.1025 69.2687 58.2985 68.76 58.2985 68.116C58.2985 67.472 58.1025 66.968 57.7105 66.604C57.3185 66.2307 56.7725 66.044 56.0725 66.044H52.5165V70.188H56.0725Z" fill="black"/>
<path d="M60.9023 61.004H61.8543V65.232H65.3403C66.2737 65.232 67.0017 65.4887 67.5243 66.002C68.047 66.5153 68.3083 67.22 68.3083 68.116C68.3083 69.012 68.047 69.7167 67.5243 70.23C67.0017 70.7433 66.2737 71 65.3403 71H60.9023V61.004ZM65.1303 70.188C65.8303 70.188 66.3763 70.006 66.7683 69.642C67.1603 69.2687 67.3563 68.76 67.3563 68.116C67.3563 67.472 67.1603 66.968 66.7683 66.604C66.3763 66.2307 65.8303 66.044 65.1303 66.044H61.8543V70.188H65.1303ZM69.7783 61.004H70.7303V71H69.7783V61.004Z" fill="black"/>
<path d="M72.4902 71.084C72.4342 71.084 72.3642 71.0793 72.2802 71.07C72.2055 71.0607 72.1262 71.0513 72.0422 71.042C71.9582 71.0327 71.8835 71.0187 71.8182 71C71.7529 70.9907 71.7062 70.9813 71.6782 70.972V70.16C71.7529 70.1973 71.8649 70.2253 72.0142 70.244C72.1729 70.2533 72.2895 70.258 72.3642 70.258C72.4669 70.258 72.5882 70.2487 72.7282 70.23C72.8682 70.202 73.0129 70.118 73.1622 69.978C73.3209 69.8287 73.4749 69.6 73.6242 69.292C73.7829 68.9747 73.9182 68.5267 74.0302 67.948C74.1515 67.36 74.2495 66.618 74.3242 65.722C74.3989 64.826 74.4362 63.7247 74.4362 62.418V61.004H80.5822V71H79.6302V61.816H75.3602V62.362C75.3602 63.818 75.3135 65.0453 75.2202 66.044C75.1269 67.0333 75.0009 67.8547 74.8422 68.508C74.6835 69.152 74.5015 69.6513 74.2962 70.006C74.1002 70.3513 73.8949 70.6033 73.6802 70.762C73.4749 70.9207 73.2649 71.014 73.0502 71.042C72.8449 71.07 72.6582 71.084 72.4902 71.084Z" fill="black"/>
<path d="M90.0241 71.21C89.4081 71.21 88.8528 71.1353 88.3581 70.986C87.8634 70.8273 87.4434 70.6033 87.0981 70.314C86.7621 70.0153 86.5008 69.656 86.3141 69.236C86.1368 68.8067 86.0481 68.326 86.0481 67.794V67.71H86.9581C86.9581 68.634 87.2428 69.32 87.8121 69.768C88.3814 70.216 89.1421 70.44 90.0941 70.44C90.5141 70.44 90.8921 70.3793 91.2281 70.258C91.5641 70.1273 91.8441 69.9547 92.0681 69.74C92.3014 69.5253 92.4788 69.278 92.6001 68.998C92.7308 68.7087 92.7961 68.4053 92.7961 68.088C92.7961 67.7987 92.7354 67.5373 92.6141 67.304C92.5021 67.0613 92.3434 66.856 92.1381 66.688C91.9328 66.52 91.6901 66.3893 91.4101 66.296C91.1394 66.2027 90.8454 66.156 90.5281 66.156H88.9321V65.344H90.5281C90.7894 65.344 91.0414 65.3067 91.2841 65.232C91.5268 65.1573 91.7414 65.05 91.9281 64.91C92.1148 64.7607 92.2594 64.5787 92.3621 64.364C92.4741 64.14 92.5301 63.8833 92.5301 63.594C92.5301 63.2487 92.4648 62.95 92.3341 62.698C92.2128 62.446 92.0448 62.2407 91.8301 62.082C91.6154 61.914 91.3588 61.7927 91.0601 61.718C90.7614 61.634 90.4441 61.592 90.1081 61.592C89.7161 61.592 89.3521 61.6387 89.0161 61.732C88.6801 61.8253 88.3861 61.97 88.1341 62.166C87.8914 62.3527 87.6954 62.5907 87.5461 62.88C87.4061 63.16 87.3221 63.4867 87.2941 63.86H86.3701C86.3981 63.3467 86.5054 62.8987 86.6921 62.516C86.8881 62.1333 87.1494 61.816 87.4761 61.564C87.8028 61.3027 88.1854 61.1113 88.6241 60.99C89.0721 60.8593 89.5574 60.794 90.0801 60.794C90.5468 60.794 90.9854 60.85 91.3961 60.962C91.8161 61.0647 92.1801 61.228 92.4881 61.452C92.7961 61.676 93.0388 61.9607 93.2161 62.306C93.3934 62.642 93.4821 63.0433 93.4821 63.51C93.4821 63.7713 93.4401 64.0187 93.3561 64.252C93.2721 64.476 93.1601 64.6813 93.0201 64.868C92.8801 65.0453 92.7214 65.1993 92.5441 65.33C92.3668 65.4607 92.1894 65.5587 92.0121 65.624V65.666C92.5441 65.806 92.9641 66.0767 93.2721 66.478C93.5894 66.87 93.7481 67.402 93.7481 68.074C93.7481 68.382 93.6828 68.718 93.5521 69.082C93.4308 69.446 93.2254 69.7867 92.9361 70.104C92.6468 70.4213 92.2641 70.6873 91.7881 70.902C91.3121 71.1073 90.7241 71.21 90.0241 71.21Z" fill="black"/>
<path d="M98.1994 61.004H99.2634L103.183 71H102.161L100.943 67.892H96.3934L95.1894 71H94.1814L98.1994 61.004ZM100.621 67.08L98.6894 61.956L96.6874 67.08H100.621Z" fill="black"/>
<path d="M104.064 61.004H105.464L108.922 69.768L112.366 61.004H113.766V71H112.814V62.362H112.786L109.37 71H108.474L105.044 62.362H105.016V71H104.064V61.004Z" fill="black"/>
<path d="M115.754 61.004H122.656V61.816L116.706 61.816V65.428H122.278V66.24H116.706V70.188H122.726V71H115.754V61.004Z" fill="black"/>
<path d="M129.905 66.45C129.765 66.4873 129.569 66.5293 129.317 66.576C129.065 66.6227 128.789 66.6693 128.491 66.716C128.201 66.7533 127.907 66.7907 127.609 66.828C127.319 66.856 127.063 66.87 126.839 66.87C126.12 66.87 125.546 66.786 125.117 66.618C124.697 66.4407 124.375 66.2167 124.151 65.946C123.927 65.666 123.782 65.358 123.717 65.022C123.651 64.6767 123.619 64.336 123.619 64V61.004H124.571V63.944C124.571 64.1493 124.589 64.3733 124.627 64.616C124.664 64.8587 124.757 65.0873 124.907 65.302C125.056 65.5073 125.271 65.6847 125.551 65.834C125.84 65.974 126.237 66.044 126.741 66.044C127.039 66.044 127.347 66.03 127.665 66.002C127.991 65.9647 128.299 65.9273 128.589 65.89C128.878 65.8433 129.135 65.7967 129.359 65.75C129.592 65.7033 129.774 65.666 129.905 65.638V61.004H130.857V71H129.905V66.45Z" fill="black"/>
<path d="M132.871 61.004L139.773 61.004V61.816H133.823V65.428H139.395V66.24H133.823V70.188H139.843V71H132.871V61.004Z" fill="black"/>
<path d="M141.17 61.004H142.122V65.344H148.058V61.004H149.01V71H148.058V66.156H142.122V71H141.17V61.004Z" fill="black"/>
<path d="M154.924 61.004H159.152C159.572 61.004 159.973 61.046 160.356 61.13C160.748 61.2047 161.088 61.34 161.378 61.536C161.676 61.7227 161.914 61.9747 162.092 62.292C162.269 62.6 162.358 62.9873 162.358 63.454C162.358 63.7153 162.316 63.972 162.232 64.224C162.148 64.4667 162.026 64.6907 161.868 64.896C161.718 65.092 161.536 65.26 161.322 65.4C161.116 65.54 160.883 65.638 160.622 65.694V65.722C161.266 65.806 161.779 66.072 162.162 66.52C162.545 66.9587 162.736 67.5047 162.736 68.158C162.736 68.4007 162.698 68.6853 162.624 69.012C162.558 69.3293 162.405 69.6373 162.162 69.936C161.919 70.2347 161.56 70.4867 161.084 70.692C160.608 70.8973 159.964 71 159.152 71H154.924V61.004ZM159.152 70.188C159.506 70.188 159.843 70.16 160.16 70.104C160.477 70.0387 160.757 69.9267 161 69.768C161.242 69.6093 161.434 69.3993 161.574 69.138C161.714 68.8767 161.784 68.5407 161.784 68.13C161.784 67.486 161.555 67.0053 161.098 66.688C160.65 66.3613 160.001 66.198 159.152 66.198H155.876V70.188H159.152ZM159.152 65.386C159.525 65.386 159.852 65.344 160.132 65.26C160.421 65.1667 160.659 65.0453 160.846 64.896C161.032 64.7373 161.172 64.5553 161.266 64.35C161.359 64.1447 161.406 63.9253 161.406 63.692C161.406 62.4413 160.654 61.816 159.152 61.816H155.876V65.386H159.152Z" fill="black"/>
<path d="M168.448 71.196C167.664 71.196 166.973 71.056 166.376 70.776C165.788 70.4867 165.298 70.104 164.906 69.628C164.514 69.152 164.22 68.6013 164.024 67.976C163.828 67.3507 163.73 66.6927 163.73 66.002C163.73 65.3207 163.828 64.6673 164.024 64.042C164.22 63.4073 164.514 62.852 164.906 62.376C165.298 61.8907 165.788 61.508 166.376 61.228C166.973 60.9387 167.664 60.794 168.448 60.794C169.232 60.794 169.918 60.9387 170.506 61.228C171.094 61.508 171.584 61.8907 171.976 62.376C172.368 62.852 172.662 63.4073 172.858 64.042C173.054 64.6673 173.152 65.3207 173.152 66.002C173.152 66.6927 173.054 67.3507 172.858 67.976C172.662 68.6013 172.368 69.152 171.976 69.628C171.584 70.104 171.094 70.4867 170.506 70.776C169.918 71.056 169.232 71.196 168.448 71.196ZM168.448 70.398C169.101 70.398 169.666 70.272 170.142 70.02C170.618 69.768 171.005 69.4367 171.304 69.026C171.612 68.606 171.836 68.1347 171.976 67.612C172.125 67.0893 172.2 66.5527 172.2 66.002C172.2 65.4607 172.125 64.9287 171.976 64.406C171.836 63.874 171.612 63.4027 171.304 62.992C171.005 62.572 170.618 62.236 170.142 61.984C169.666 61.732 169.101 61.606 168.448 61.606C167.785 61.606 167.216 61.732 166.74 61.984C166.264 62.236 165.872 62.572 165.564 62.992C165.265 63.4027 165.041 63.874 164.892 64.406C164.752 64.9287 164.682 65.4607 164.682 66.002C164.682 66.5527 164.752 67.0893 164.892 67.612C165.041 68.1347 165.265 68.606 165.564 69.026C165.872 69.4367 166.264 69.768 166.74 70.02C167.216 70.272 167.785 70.398 168.448 70.398Z" fill="black"/>
<path d="M0.00781302 81.004H4.23581C4.65581 81.004 5.05715 81.046 5.43981 81.13C5.83181 81.2047 6.17248 81.34 6.46181 81.536C6.76048 81.7227 6.99848 81.9747 7.17581 82.292C7.35315 82.6 7.44181 82.9873 7.44181 83.454C7.44181 83.7153 7.39981 83.972 7.31581 84.224C7.23181 84.4667 7.11048 84.6907 6.95181 84.896C6.80248 85.092 6.62048 85.26 6.40581 85.4C6.20048 85.54 5.96715 85.638 5.70581 85.694V85.722C6.34981 85.806 6.86315 86.072 7.24581 86.52C7.62848 86.9587 7.81981 87.5047 7.81981 88.158C7.81981 88.4007 7.78248 88.6853 7.70781 89.012C7.64248 89.3293 7.48848 89.6373 7.24581 89.936C7.00315 90.2347 6.64381 90.4867 6.16781 90.692C5.69181 90.8973 5.04781 91 4.23581 91H0.00781309L0.00781302 81.004ZM4.23581 90.188C4.59048 90.188 4.92648 90.16 5.24381 90.104C5.56115 90.0387 5.84115 89.9267 6.08381 89.768C6.32648 89.6093 6.51781 89.3993 6.65781 89.138C6.79781 88.8767 6.86781 88.5407 6.86781 88.13C6.86781 87.486 6.63915 87.0053 6.18181 86.688C5.73381 86.3613 5.08515 86.198 4.23581 86.198H0.959813V90.188H4.23581ZM4.23581 85.386C4.60915 85.386 4.93581 85.344 5.21581 85.26C5.50515 85.1667 5.74315 85.0453 5.92981 84.896C6.11648 84.7373 6.25648 84.5553 6.34981 84.35C6.44315 84.1447 6.48981 83.9253 6.48981 83.692C6.48981 82.4413 5.73848 81.816 4.23581 81.816H0.959813V85.386H4.23581Z" fill="black"/>
<path d="M9.3457 81.004H13.7837C14.2317 81.004 14.6377 81.0693 15.0017 81.2C15.3657 81.3213 15.6784 81.508 15.9397 81.76C16.201 82.0027 16.4017 82.3013 16.5417 82.656C16.6817 83.0107 16.7517 83.412 16.7517 83.86C16.7517 84.308 16.6817 84.7093 16.5417 85.064C16.4017 85.4187 16.201 85.722 15.9397 85.974C15.6784 86.2167 15.3657 86.4033 15.0017 86.534C14.6377 86.6553 14.2317 86.716 13.7837 86.716H10.2977V91H9.3457V81.004ZM13.5737 85.904C14.2364 85.904 14.773 85.736 15.1837 85.4C15.5944 85.064 15.7997 84.5507 15.7997 83.86C15.7997 83.1693 15.5944 82.656 15.1837 82.32C14.773 81.984 14.2364 81.816 13.5737 81.816H10.2977V85.904H13.5737Z" fill="black"/>
<path d="M18.1641 81.004H25.0661V81.816H19.1161V85.428H24.6881V86.24H19.1161V90.188H25.1361V91H18.1641V81.004Z" fill="black"/>
<path d="M26.4349 81.004H27.8349L31.2929 89.768L34.7369 81.004H36.1369V91H35.1849V82.362H35.1569L31.7409 91H30.8449L27.4149 82.362H27.3869V91H26.4349V81.004Z" fill="black"/>
<path d="M40.589 86.66C40.1783 86.6413 39.7957 86.5667 39.441 86.436C39.0957 86.3053 38.7923 86.1233 38.531 85.89C38.279 85.6567 38.0783 85.3767 37.929 85.05C37.789 84.714 37.719 84.3267 37.719 83.888C37.719 83.44 37.789 83.0387 37.929 82.684C38.069 82.3293 38.2697 82.0307 38.531 81.788C38.8017 81.536 39.119 81.3447 39.483 81.214C39.8563 81.074 40.2763 81.004 40.743 81.004H44.929V91H43.977V86.716H41.737L38.405 91H37.173L40.589 86.66ZM43.977 85.904V81.816H40.953C40.253 81.816 39.6977 82.0027 39.287 82.376C38.8763 82.74 38.671 83.244 38.671 83.888C38.671 84.532 38.8763 85.0313 39.287 85.386C39.6977 85.7313 40.253 85.904 40.953 85.904H43.977Z" fill="black"/>
<path d="M47.3634 91V89.768H48.3854V91H47.3634Z" fill="black"/>
<path d="M51.2598 91V89.768H52.2818V91H51.2598Z" fill="black"/>
<path d="M55.1563 91V89.768H56.1783V91H55.1563Z" fill="black"/>
<path d="M58.6328 81.004H59.5848V90.188H64.3168V81.004H65.2688V90.188H70.0008V81.004H70.9528V91H58.6328V81.004Z" fill="black"/>
<path d="M77.1606 91.196C76.3766 91.196 75.6859 91.056 75.0886 90.776C74.5006 90.4867 74.0106 90.104 73.6186 89.628C73.2266 89.152 72.9326 88.6013 72.7366 87.976C72.5406 87.3507 72.4426 86.6927 72.4426 86.002C72.4426 85.3207 72.5406 84.6673 72.7366 84.042C72.9326 83.4073 73.2266 82.852 73.6186 82.376C74.0106 81.8907 74.5006 81.508 75.0886 81.228C75.6859 80.9387 76.3766 80.794 77.1606 80.794C77.9446 80.794 78.6306 80.9387 79.2186 81.228C79.8066 81.508 80.2966 81.8907 80.6886 82.376C81.0806 82.852 81.3746 83.4073 81.5706 84.042C81.7666 84.6673 81.8646 85.3207 81.8646 86.002C81.8646 86.6927 81.7666 87.3507 81.5706 87.976C81.3746 88.6013 81.0806 89.152 80.6886 89.628C80.2966 90.104 79.8066 90.4867 79.2186 90.776C78.6306 91.056 77.9446 91.196 77.1606 91.196ZM77.1606 90.398C77.8139 90.398 78.3786 90.272 78.8546 90.02C79.3306 89.768 79.7179 89.4367 80.0166 89.026C80.3246 88.606 80.5486 88.1347 80.6886 87.612C80.8379 87.0893 80.9126 86.5527 80.9126 86.002C80.9126 85.4607 80.8379 84.9287 80.6886 84.406C80.5486 83.874 80.3246 83.4027 80.0166 82.992C79.7179 82.572 79.3306 82.236 78.8546 81.984C78.3786 81.732 77.8139 81.606 77.1606 81.606C76.4979 81.606 75.9286 81.732 75.4526 81.984C74.9766 82.236 74.5846 82.572 74.2766 82.992C73.9779 83.4027 73.7539 83.874 73.6046 84.406C73.4646 84.9287 73.3946 85.4607 73.3946 86.002C73.3946 86.5527 73.4646 87.0893 73.6046 87.612C73.7539 88.1347 73.9779 88.606 74.2766 89.026C74.5846 89.4367 74.9766 89.768 75.4526 90.02C75.9286 90.272 76.4979 90.398 77.1606 90.398Z" fill="black"/>
<path d="M83.3516 81.004H84.3036V86.38L90.1136 81.004H91.4016L86.9356 85.134L91.6116 91H90.3796L86.2216 85.792L84.3036 87.57V91H83.3516V81.004Z" fill="black"/>
<path d="M93.2417 84.056V80.92H94.2637V84.056L94.0677 88.466H93.4377L93.2417 84.056ZM93.2417 91V89.768H94.2637V91H93.2417Z" fill="black"/>
</svg>
