<svg width="177" height="92" viewBox="0 0 177 92" fill="none" xmlns="http://www.w3.org/2000/svg">
<path d="M2.00802 1.004L6.44602 1.004C6.89402 1.004 7.30002 1.06934 7.66402 1.2C8.02802 1.32134 8.34068 1.50801 8.60202 1.76001C8.86335 2.00267 9.06402 2.30134 9.20402 2.65601C9.34402 3.01067 9.41402 3.41201 9.41402 3.86C9.41402 4.30801 9.34402 4.70934 9.20402 5.06401C9.06402 5.41867 8.86335 5.72201 8.60202 5.97401C8.34068 6.21667 8.02802 6.40334 7.66402 6.53401C7.30002 6.65534 6.89402 6.71601 6.44602 6.71601H2.96002V11H2.00802L2.00802 1.004ZM6.23602 5.90401C6.89868 5.90401 7.43535 5.73601 7.84602 5.40001C8.25668 5.06401 8.46202 4.55067 8.46202 3.86C8.46202 3.16934 8.25668 2.656 7.84602 2.32001C7.43535 1.98401 6.89868 1.81601 6.23602 1.81601H2.96002V5.90401H6.23602Z" fill="black"/>
<path d="M11.7504 11.112C11.5264 11.112 11.321 11.098 11.1344 11.07C10.957 11.042 10.817 11.0093 10.7144 10.972V10.132C10.8357 10.1787 10.9804 10.2207 11.1484 10.258C11.3164 10.286 11.5124 10.3 11.7364 10.3C12.091 10.3 12.385 10.188 12.6184 9.96401C12.861 9.74001 13.0944 9.39001 13.3184 8.91401L13.4444 8.64801L9.73438 1.004H10.7564L14.0044 7.64001L17.1684 1.004H18.1764L14.2424 9.15201C14.037 9.58134 13.8364 9.92667 13.6404 10.188C13.4444 10.44 13.2437 10.636 13.0384 10.776C12.8424 10.916 12.637 11.0047 12.4224 11.042C12.217 11.0887 11.993 11.112 11.7504 11.112Z" fill="black"/>
<path d="M19.0568 1.004L20.0088 1.00401V6.38001L25.8188 1.00401L27.1068 1.00401L22.6408 5.13401L27.3168 11H26.0848L21.9268 5.79201L20.0088 7.57001L20.0088 11H19.0568V1.004Z" fill="black"/>
<path d="M31.061 1.00401L32.125 1.00401L36.045 11H35.023L33.805 7.89201H29.255L28.051 11H27.043L31.061 1.00401ZM33.483 7.08001L31.551 1.95601L29.549 7.08001H33.483Z" fill="black"/>
<path d="M40.8498 1.00401L48.5498 1.00401V11H47.5978V1.81601L41.8018 1.81601V11H40.8498V1.00401Z" fill="black"/>
<path d="M50.5705 1.00401L55.0085 1.00401C55.4565 1.00401 55.8625 1.06934 56.2265 1.20001C56.5905 1.32134 56.9032 1.50801 57.1645 1.76001C57.4258 2.00267 57.6265 2.30134 57.7665 2.65601C57.9065 3.01067 57.9765 3.41201 57.9765 3.86001C57.9765 4.30801 57.9065 4.70934 57.7665 5.06401C57.6265 5.41867 57.4258 5.72201 57.1645 5.97401C56.9032 6.21667 56.5905 6.40334 56.2265 6.53401C55.8625 6.65534 55.4565 6.71601 55.0085 6.71601H51.5225V11H50.5705V1.00401ZM54.7985 5.90401C55.4612 5.90401 55.9978 5.73601 56.4085 5.40001C56.8192 5.06401 57.0245 4.55067 57.0245 3.86001C57.0245 3.16934 56.8192 2.65601 56.4085 2.32001C55.9978 1.98401 55.4612 1.81601 54.7985 1.81601H51.5225V5.90401H54.7985Z" fill="black"/>
<path d="M59.3889 1.00401L66.2909 1.00401V1.81601H60.3409V5.42801H65.9129V6.24001H60.3409V10.188H66.3609V11H59.3889V1.00401Z" fill="black"/>
<path d="M67.6877 1.00401L71.9157 1.00401C72.3357 1.00401 72.737 1.04601 73.1197 1.13001C73.5117 1.20467 73.8524 1.34001 74.1417 1.53601C74.4404 1.72267 74.6784 1.97467 74.8557 2.29201C75.033 2.60001 75.1217 2.98734 75.1217 3.45401C75.1217 3.71534 75.0797 3.97201 74.9957 4.22401C74.9117 4.46667 74.7904 4.69067 74.6317 4.89601C74.4824 5.09201 74.3004 5.26001 74.0857 5.40001C73.8804 5.54001 73.647 5.63801 73.3857 5.69401V5.72201C74.0297 5.80601 74.543 6.07201 74.9257 6.52001C75.3084 6.95867 75.4997 7.50467 75.4997 8.15801C75.4997 8.40067 75.4624 8.68534 75.3877 9.01201C75.3224 9.32934 75.1684 9.63734 74.9257 9.93601C74.683 10.2347 74.3237 10.4867 73.8477 10.692C73.3717 10.8973 72.7277 11 71.9157 11H67.6877V1.00401ZM71.9157 10.188C72.2704 10.188 72.6064 10.16 72.9237 10.104C73.241 10.0387 73.521 9.92667 73.7637 9.76801C74.0064 9.60934 74.1977 9.39934 74.3377 9.13801C74.4777 8.87667 74.5477 8.54067 74.5477 8.13001C74.5477 7.48601 74.319 7.00534 73.8617 6.68801C73.4137 6.36134 72.765 6.19801 71.9157 6.19801H68.6397V10.188H71.9157ZM71.9157 5.38601C72.289 5.38601 72.6157 5.34401 72.8957 5.26001C73.185 5.16667 73.423 5.04534 73.6097 4.89601C73.7964 4.73734 73.9364 4.55534 74.0297 4.35001C74.123 4.14467 74.1697 3.92534 74.1697 3.69201C74.1697 2.44134 73.4184 1.81601 71.9157 1.81601L68.6397 1.81601V5.38601H71.9157Z" fill="black"/>
<path d="M77.0256 1.00401L81.4636 1.00401C81.9116 1.00401 82.3176 1.06934 82.6816 1.20001C83.0456 1.32134 83.3583 1.50801 83.6196 1.76001C83.8809 2.00267 84.0816 2.30134 84.2216 2.65601C84.3616 3.01067 84.4316 3.41201 84.4316 3.86001C84.4316 4.30801 84.3616 4.70934 84.2216 5.06401C84.0816 5.41867 83.8809 5.72201 83.6196 5.97401C83.3583 6.21667 83.0456 6.40334 82.6816 6.53401C82.3176 6.65534 81.9116 6.71601 81.4636 6.71601H77.9776V11H77.0256V1.00401ZM81.2536 5.90401C81.9163 5.90401 82.4529 5.73601 82.8636 5.40001C83.2743 5.06401 83.4796 4.55067 83.4796 3.86001C83.4796 3.16934 83.2743 2.65601 82.8636 2.32001C82.4529 1.98401 81.9163 1.81601 81.2536 1.81601L77.9776 1.81601V5.90401H81.2536Z" fill="black"/>
<path d="M88.77 1.00401L89.834 1.00401L93.754 11H92.732L91.514 7.89201H86.964L85.76 11H84.752L88.77 1.00401ZM91.192 7.08001L89.26 1.95601L87.2579 7.08001H91.192Z" fill="black"/>
<path d="M97.0703 1.81601H93.5983V1.00401L101.508 1.00401V1.81601H98.0223V11H97.0703V1.81601Z" fill="black"/>
<path d="M102.442 1.00401L103.394 1.00401V9.97801L109.134 1.00401H110.366V11H109.414V2.02601L103.674 11H102.442V1.00401Z" fill="black"/>
<path d="M112.129 11.084C112.073 11.084 112.003 11.0793 111.919 11.07C111.844 11.0607 111.765 11.0513 111.681 11.042C111.597 11.0327 111.522 11.0187 111.457 11C111.392 10.9907 111.345 10.9813 111.317 10.972V10.16C111.392 10.1973 111.504 10.2253 111.653 10.244C111.812 10.2533 111.928 10.258 112.003 10.258C112.106 10.258 112.227 10.2487 112.367 10.23C112.507 10.202 112.652 10.118 112.801 9.97801C112.96 9.82867 113.114 9.60001 113.263 9.29201C113.422 8.97467 113.557 8.52667 113.669 7.94801C113.79 7.36001 113.888 6.61801 113.963 5.72201C114.038 4.82601 114.075 3.72467 114.075 2.41801V1.00401L120.221 1.00401V11H119.269V1.81601L114.999 1.81601V2.36201C114.999 3.81801 114.952 5.04534 114.859 6.04401C114.766 7.03334 114.64 7.85467 114.481 8.50801C114.322 9.15201 114.14 9.65134 113.935 10.006C113.739 10.3513 113.534 10.6033 113.319 10.762C113.114 10.9207 112.904 11.014 112.689 11.042C112.484 11.07 112.297 11.084 112.129 11.084Z" fill="black"/>
<path d="M125.164 1.00401L126.228 1.00401L130.148 11H129.126L127.908 7.89201H123.358L122.154 11H121.146L125.164 1.00401ZM127.586 7.08001L125.654 1.95601L123.652 7.08001H127.586Z" fill="black"/>
<path d="M135.299 11.196C134.515 11.196 133.824 11.056 133.227 10.776C132.639 10.4867 132.149 10.104 131.757 9.62801C131.365 9.15201 131.071 8.60134 130.875 7.97601C130.679 7.35067 130.581 6.69267 130.581 6.00201C130.581 5.32067 130.679 4.66734 130.875 4.04201C131.071 3.40734 131.365 2.85201 131.757 2.37601C132.149 1.89067 132.639 1.50801 133.227 1.22801C133.824 0.938673 134.515 0.794006 135.299 0.794006C135.775 0.794006 136.237 0.864006 136.685 1.00401C137.142 1.14401 137.553 1.35401 137.917 1.63401C138.29 1.90467 138.598 2.24067 138.841 2.64201C139.093 3.04334 139.252 3.50534 139.317 4.02801H138.365C138.281 3.64534 138.141 3.30467 137.945 3.00601C137.758 2.69801 137.525 2.44134 137.245 2.23601C136.974 2.03067 136.671 1.87667 136.335 1.77401C136.008 1.66201 135.663 1.60601 135.299 1.60601C134.636 1.60601 134.067 1.73201 133.591 1.98401C133.115 2.23601 132.723 2.57201 132.415 2.99201C132.116 3.40267 131.892 3.87401 131.743 4.40601C131.603 4.92867 131.533 5.46067 131.533 6.00201C131.533 6.55267 131.603 7.08934 131.743 7.61201C131.892 8.13467 132.116 8.60601 132.415 9.02601C132.723 9.43667 133.115 9.76801 133.591 10.02C134.067 10.272 134.636 10.398 135.299 10.398C135.756 10.398 136.172 10.314 136.545 10.146C136.928 9.97801 137.254 9.74934 137.525 9.46001C137.796 9.17067 138.015 8.83467 138.183 8.45201C138.351 8.06001 138.458 7.64001 138.505 7.19201H139.457C139.392 7.80801 139.247 8.36334 139.023 8.85801C138.799 9.35267 138.51 9.77267 138.155 10.118C137.8 10.4633 137.38 10.7293 136.895 10.916C136.419 11.1027 135.887 11.196 135.299 11.196Z" fill="black"/>
<path d="M140.914 1.00401H141.866V5.23201H145.352C146.286 5.23201 147.014 5.48867 147.536 6.00201C148.059 6.51534 148.32 7.22001 148.32 8.11601C148.32 9.01201 148.059 9.71667 147.536 10.23C147.014 10.7433 146.286 11 145.352 11H140.914V1.00401ZM145.142 10.188C145.842 10.188 146.388 10.006 146.78 9.64201C147.172 9.26867 147.368 8.76001 147.368 8.11601C147.368 7.47201 147.172 6.96801 146.78 6.60401C146.388 6.23067 145.842 6.04401 145.142 6.04401H141.866V10.188H145.142Z" fill="black"/>
<path d="M2.00802 21.004H6.23602C6.65602 21.004 7.05735 21.046 7.44002 21.13C7.83202 21.2047 8.17268 21.34 8.46202 21.536C8.76068 21.7227 8.99868 21.9747 9.17602 22.292C9.35335 22.6 9.44202 22.9873 9.44202 23.454C9.44202 23.7153 9.40002 23.972 9.31602 24.224C9.23202 24.4667 9.11068 24.6907 8.95202 24.896C8.80268 25.092 8.62068 25.26 8.40602 25.4C8.20068 25.54 7.96735 25.638 7.70602 25.694V25.722C8.35002 25.806 8.86335 26.072 9.24602 26.52C9.62868 26.9587 9.82002 27.5047 9.82002 28.158C9.82002 28.4007 9.78268 28.6853 9.70802 29.012C9.64268 29.3293 9.48868 29.6373 9.24602 29.936C9.00335 30.2347 8.64402 30.4867 8.16802 30.692C7.69202 30.8973 7.04802 31 6.23602 31H2.00802L2.00802 21.004ZM6.23602 30.188C6.59068 30.188 6.92668 30.16 7.24402 30.104C7.56135 30.0387 7.84135 29.9267 8.08402 29.768C8.32668 29.6093 8.51802 29.3993 8.65802 29.138C8.79802 28.8767 8.86802 28.5407 8.86802 28.13C8.86802 27.486 8.63935 27.0053 8.18202 26.688C7.73402 26.3613 7.08535 26.198 6.23602 26.198H2.96002L2.96002 30.188H6.23602ZM6.23602 25.386C6.60935 25.386 6.93602 25.344 7.21602 25.26C7.50535 25.1667 7.74335 25.0453 7.93002 24.896C8.11668 24.7373 8.25668 24.5553 8.35002 24.35C8.44335 24.1447 8.49002 23.9253 8.49002 23.692C8.49002 22.4413 7.73868 21.816 6.23602 21.816H2.96002V25.386H6.23602Z" fill="black"/>
<path d="M14.9904 31.084C14.9344 31.084 14.8644 31.0793 14.7804 31.07C14.7057 31.0607 14.6264 31.0513 14.5424 31.042C14.4584 31.0327 14.3837 31.0187 14.3184 31C14.2531 30.9907 14.2064 30.9813 14.1784 30.972V30.16C14.2531 30.1973 14.3651 30.2253 14.5144 30.244C14.6731 30.2533 14.7897 30.258 14.8644 30.258C14.9671 30.258 15.0884 30.2487 15.2284 30.23C15.3684 30.202 15.5131 30.118 15.6624 29.978C15.8211 29.8287 15.9751 29.6 16.1244 29.292C16.2831 28.9747 16.4184 28.5267 16.5304 27.948C16.6517 27.36 16.7497 26.618 16.8244 25.722C16.8991 24.826 16.9364 23.7247 16.9364 22.418V21.004H23.0824L23.0824 31H22.1304V21.816H17.8604V22.362C17.8604 23.818 17.8137 25.0453 17.7204 26.044C17.6271 27.0333 17.5011 27.8547 17.3424 28.508C17.1837 29.152 17.0017 29.6513 16.7964 30.006C16.6004 30.3513 16.3951 30.6033 16.1804 30.762C15.9751 30.9207 15.7651 31.014 15.5504 31.042C15.3451 31.07 15.1584 31.084 14.9904 31.084Z" fill="black"/>
<path d="M28.0258 21.004H29.0898L33.0098 31H31.9878L30.7698 27.892H26.2198L25.0158 31H24.0078L28.0258 21.004ZM30.4478 27.08L28.5158 21.956L26.5138 27.08H30.4478Z" fill="black"/>
<path d="M33.9182 21.004H41.6182V31H40.6662V21.816H34.8702V31H33.9182V21.004Z" fill="black"/>
<path d="M43.6389 21.004H44.5909V30.188H49.3229V21.004H50.2749V30.188H55.0069V21.004H55.9589V31H43.6389V21.004Z" fill="black"/>
<path d="M58.9047 31.112C58.6807 31.112 58.4753 31.098 58.2887 31.07C58.1113 31.042 57.9713 31.0093 57.8687 30.972V30.132C57.99 30.1787 58.1347 30.2207 58.3027 30.258C58.4707 30.286 58.6667 30.3 58.8907 30.3C59.2453 30.3 59.5393 30.188 59.7727 29.964C60.0153 29.74 60.2487 29.39 60.4727 28.914L60.5987 28.648L56.8887 21.004H57.9107L61.1587 27.64L64.3227 21.004H65.3307L61.3967 29.152C61.1913 29.5813 60.9907 29.9267 60.7947 30.188C60.5987 30.44 60.398 30.636 60.1927 30.776C59.9967 30.916 59.7913 31.0047 59.5767 31.042C59.3713 31.0887 59.1473 31.112 58.9047 31.112Z" fill="black"/>
<path d="M67.0231 24.056V20.92H68.0451V24.056L67.8491 28.466H67.2191L67.0231 24.056ZM67.0231 31V29.768H68.0451V31H67.0231Z" fill="black"/>
<path d="M71.6852 24.056V20.92H72.7073V24.056L72.5113 28.466H71.8812L71.6852 24.056ZM71.6852 31V29.768H72.7073V31H71.6852Z" fill="black"/>
<path d="M76.3474 24.056V20.92H77.3694V24.056L77.1734 28.466H76.5434L76.3474 24.056ZM76.3474 31V29.768H77.3694V31H76.3474Z" fill="black"/>
<path d="M86.516 25.848L83.128 21.004H84.248L87.076 25.19L90.002 21.004H91.066L87.65 25.876L91.262 31H90.114L87.076 26.59L83.996 31H82.932L86.516 25.848Z" fill="black"/>
<path d="M96.319 31.196C95.535 31.196 94.8444 31.056 94.247 30.776C93.659 30.4867 93.169 30.104 92.777 29.628C92.385 29.152 92.091 28.6013 91.895 27.976C91.699 27.3507 91.601 26.6927 91.601 26.002C91.601 25.3207 91.699 24.6673 91.895 24.042C92.091 23.4073 92.385 22.852 92.777 22.376C93.169 21.8907 93.659 21.508 94.247 21.228C94.8444 20.9387 95.535 20.794 96.319 20.794C97.103 20.794 97.789 20.9387 98.377 21.228C98.965 21.508 99.455 21.8907 99.847 22.376C100.239 22.852 100.533 23.4073 100.729 24.042C100.925 24.6673 101.023 25.3207 101.023 26.002C101.023 26.6927 100.925 27.3507 100.729 27.976C100.533 28.6013 100.239 29.152 99.847 29.628C99.455 30.104 98.965 30.4867 98.377 30.776C97.789 31.056 97.103 31.196 96.319 31.196ZM96.319 30.398C96.9723 30.398 97.537 30.272 98.013 30.02C98.489 29.768 98.8764 29.4367 99.175 29.026C99.483 28.606 99.707 28.1347 99.847 27.612C99.9963 27.0893 100.071 26.5527 100.071 26.002C100.071 25.4607 99.9963 24.9287 99.847 24.406C99.707 23.874 99.483 23.4027 99.175 22.992C98.8764 22.572 98.489 22.236 98.013 21.984C97.537 21.732 96.9723 21.606 96.319 21.606C95.6563 21.606 95.087 21.732 94.611 21.984C94.135 22.236 93.743 22.572 93.435 22.992C93.1363 23.4027 92.9123 23.874 92.763 24.406C92.623 24.9287 92.553 25.4607 92.553 26.002C92.553 26.5527 92.623 27.0893 92.763 27.612C92.9123 28.1347 93.1363 28.606 93.435 29.026C93.743 29.4367 94.135 29.768 94.611 30.02C95.087 30.272 95.6563 30.398 96.319 30.398Z" fill="black"/>
<path d="M104.918 21.816H101.446V21.004H109.356V21.816H105.87V31H104.918V21.816Z" fill="black"/>
<path d="M110.289 21.004H111.241V29.978L116.981 21.004H118.213V31H117.261V22.026L111.521 31H110.289V21.004Z" fill="black"/>
<path d="M122.637 21.816H119.165V21.004H127.075V21.816H123.589V31L122.637 31V21.816Z" fill="black"/>
<path d="M128.008 21.004H134.91V21.816H128.96V25.428H134.532V26.24H128.96V30.188H134.98V31H128.008V21.004Z" fill="black"/>
<path d="M7.86002 46.45C7.72002 46.4873 7.52402 46.5293 7.27202 46.576C7.02002 46.6227 6.74468 46.6693 6.44602 46.716C6.15668 46.7533 5.86268 46.7907 5.56402 46.828C5.27468 46.856 5.01802 46.87 4.79402 46.87C4.07535 46.87 3.50135 46.786 3.07202 46.618C2.65202 46.4407 2.33002 46.2167 2.10602 45.946C1.88202 45.666 1.73735 45.358 1.67202 45.022C1.60668 44.6767 1.57402 44.336 1.57402 44L1.57402 41.004H2.52602L2.52602 43.944C2.52602 44.1493 2.54468 44.3733 2.58202 44.616C2.61935 44.8587 2.71268 45.0873 2.86202 45.302C3.01135 45.5073 3.22602 45.6847 3.50602 45.834C3.79535 45.974 4.19202 46.044 4.69602 46.044C4.99468 46.044 5.30268 46.03 5.62002 46.002C5.94668 45.9647 6.25468 45.9273 6.54402 45.89C6.83335 45.8433 7.09002 45.7967 7.31402 45.75C7.54735 45.7033 7.72935 45.666 7.86002 45.638L7.86002 41.004H8.81202V51H7.86002V46.45Z" fill="black"/>
<path d="M13.2344 41.816H9.76237V41.004H17.6724V41.816H14.1864V51H13.2344V41.816Z" fill="black"/>
<path d="M22.7917 51.196C22.0077 51.196 21.317 51.056 20.7197 50.776C20.1317 50.4867 19.6417 50.104 19.2497 49.628C18.8577 49.152 18.5637 48.6013 18.3677 47.976C18.1717 47.3507 18.0737 46.6927 18.0737 46.002C18.0737 45.3207 18.1717 44.6673 18.3677 44.042C18.5637 43.4073 18.8577 42.852 19.2497 42.376C19.6417 41.8907 20.1317 41.508 20.7197 41.228C21.317 40.9387 22.0077 40.794 22.7917 40.794C23.5757 40.794 24.2617 40.9387 24.8497 41.228C25.4377 41.508 25.9277 41.8907 26.3197 42.376C26.7117 42.852 27.0057 43.4073 27.2017 44.042C27.3977 44.6673 27.4957 45.3207 27.4957 46.002C27.4957 46.6927 27.3977 47.3507 27.2017 47.976C27.0057 48.6013 26.7117 49.152 26.3197 49.628C25.9277 50.104 25.4377 50.4867 24.8497 50.776C24.2617 51.056 23.5757 51.196 22.7917 51.196ZM22.7917 50.398C23.445 50.398 24.0097 50.272 24.4857 50.02C24.9617 49.768 25.349 49.4367 25.6477 49.026C25.9557 48.606 26.1797 48.1347 26.3197 47.612C26.469 47.0893 26.5437 46.5527 26.5437 46.002C26.5437 45.4607 26.469 44.9287 26.3197 44.406C26.1797 43.874 25.9557 43.4027 25.6477 42.992C25.349 42.572 24.9617 42.236 24.4857 41.984C24.0097 41.732 23.445 41.606 22.7917 41.606C22.129 41.606 21.5597 41.732 21.0837 41.984C20.6077 42.236 20.2157 42.572 19.9077 42.992C19.609 43.4027 19.385 43.874 19.2357 44.406C19.0957 44.9287 19.0257 45.4607 19.0257 46.002C19.0257 46.5527 19.0957 47.0893 19.2357 47.612C19.385 48.1347 19.609 48.606 19.9077 49.026C20.2157 49.4367 20.6077 49.768 21.0837 50.02C21.5597 50.272 22.129 50.398 22.7917 50.398Z" fill="black"/>
<path d="M28.9826 41.004H35.8846V41.816H29.9346V45.232H33.7006C34.634 45.232 35.362 45.4887 35.8846 46.002C36.4073 46.5153 36.6686 47.22 36.6686 48.116C36.6686 49.012 36.4073 49.7167 35.8846 50.23C35.362 50.7433 34.634 51 33.7006 51H28.9826V41.004ZM33.4906 50.188C34.1906 50.188 34.7366 50.006 35.1286 49.642C35.5206 49.2687 35.7166 48.76 35.7166 48.116C35.7166 47.472 35.5206 46.968 35.1286 46.604C34.7366 46.2307 34.1906 46.044 33.4906 46.044H29.9346V50.188H33.4906Z" fill="black"/>
<path d="M38.3205 41.004H39.2725V45.232H42.7585C43.6918 45.232 44.4198 45.4887 44.9425 46.002C45.4652 46.5153 45.7265 47.22 45.7265 48.116C45.7265 49.012 45.4652 49.7167 44.9425 50.23C44.4198 50.7433 43.6918 51 42.7585 51H38.3205V41.004ZM42.5485 50.188C43.2485 50.188 43.7945 50.006 44.1865 49.642C44.5785 49.2687 44.7745 48.76 44.7745 48.116C44.7745 47.472 44.5785 46.968 44.1865 46.604C43.7945 46.2307 43.2485 46.044 42.5485 46.044H39.2725V50.188H42.5485ZM47.1965 41.004H48.1485V51H47.1965V41.004Z" fill="black"/>
<path d="M54.0568 41.004H58.2848C58.7048 41.004 59.1062 41.046 59.4888 41.13C59.8808 41.2047 60.2215 41.34 60.5108 41.536C60.8095 41.7227 61.0475 41.9747 61.2248 42.292C61.4022 42.6 61.4908 42.9873 61.4908 43.454C61.4908 43.7153 61.4488 43.972 61.3648 44.224C61.2808 44.4667 61.1595 44.6907 61.0008 44.896C60.8515 45.092 60.6695 45.26 60.4548 45.4C60.2495 45.54 60.0162 45.638 59.7548 45.694V45.722C60.3988 45.806 60.9122 46.072 61.2948 46.52C61.6775 46.9587 61.8688 47.5047 61.8688 48.158C61.8688 48.4007 61.8315 48.6853 61.7568 49.012C61.6915 49.3293 61.5375 49.6373 61.2948 49.936C61.0522 50.2347 60.6928 50.4867 60.2168 50.692C59.7408 50.8973 59.0968 51 58.2848 51H54.0568V41.004ZM58.2848 50.188C58.6395 50.188 58.9755 50.16 59.2928 50.104C59.6102 50.0387 59.8902 49.9267 60.1328 49.768C60.3755 49.6093 60.5668 49.3993 60.7068 49.138C60.8468 48.8767 60.9168 48.5407 60.9168 48.13C60.9168 47.486 60.6882 47.0053 60.2308 46.688C59.7828 46.3613 59.1342 46.198 58.2848 46.198H55.0088V50.188H58.2848ZM58.2848 45.386C58.6582 45.386 58.9848 45.344 59.2648 45.26C59.5542 45.1667 59.7922 45.0453 59.9788 44.896C60.1655 44.7373 60.3055 44.5553 60.3988 44.35C60.4922 44.1447 60.5388 43.9253 60.5388 43.692C60.5388 42.4413 59.7875 41.816 58.2848 41.816H55.0088V45.386H58.2848Z" fill="black"/>
<path d="M66.3207 41.004H67.3847L71.3047 51H70.2827L69.0647 47.892H64.5147L63.3107 51H62.3027L66.3207 41.004ZM68.7427 47.08L66.8107 41.956L64.8087 47.08H68.7427Z" fill="black"/>
<path d="M72.2131 41.004H73.1651V50.188H77.8971V41.004H78.8491V50.188H83.5811V41.004H84.5331V51H72.2131V41.004Z" fill="black"/>
<path d="M86.5549 41.004H87.5069V49.978L93.2469 41.004H94.4789V51H93.5269V42.026L87.7869 51H86.5549V41.004Z" fill="black"/>
<path d="M100.391 41.004H104.829C105.277 41.004 105.683 41.0693 106.047 41.2C106.411 41.3213 106.723 41.508 106.985 41.76C107.246 42.0027 107.447 42.3013 107.587 42.656C107.727 43.0107 107.797 43.412 107.797 43.86C107.797 44.308 107.727 44.7093 107.587 45.064C107.447 45.4187 107.246 45.722 106.985 45.974C106.723 46.2167 106.411 46.4033 106.047 46.534C105.683 46.6553 105.277 46.716 104.829 46.716H101.343V51H100.391V41.004ZM104.619 45.904C105.281 45.904 105.818 45.736 106.229 45.4C106.639 45.064 106.845 44.5507 106.845 43.86C106.845 43.1693 106.639 42.656 106.229 42.32C105.818 41.984 105.281 41.816 104.619 41.816H101.343V45.904H104.619Z" fill="black"/>
<path d="M110.133 51.112C109.909 51.112 109.704 51.098 109.517 51.07C109.34 51.042 109.2 51.0093 109.097 50.972V50.132C109.219 50.1787 109.363 50.2207 109.531 50.258C109.699 50.286 109.895 50.3 110.119 50.3C110.474 50.3 110.768 50.188 111.001 49.964C111.244 49.74 111.477 49.39 111.701 48.914L111.827 48.648L108.117 41.004H109.139L112.387 47.64L115.551 41.004H116.559L112.625 49.152C112.42 49.5813 112.219 49.9267 112.023 50.188C111.827 50.44 111.627 50.636 111.421 50.776C111.225 50.916 111.02 51.0047 110.805 51.042C110.6 51.0887 110.376 51.112 110.133 51.112Z" fill="black"/>
<path d="M117.44 41.004H118.392V46.38L124.202 41.004H125.49L121.024 45.134L125.7 51H124.468L120.31 45.792L118.392 47.57V51H117.44V41.004Z" fill="black"/>
<path d="M126.518 41.004H127.47V49.978L133.21 41.004H134.442V51H133.49V42.026L127.75 51H126.518V41.004Z" fill="black"/>
<path d="M2.93202 71.112C2.70802 71.112 2.50268 71.098 2.31602 71.07C2.13868 71.042 1.99868 71.0093 1.89602 70.972V70.132C2.01735 70.1787 2.16202 70.2207 2.33002 70.258C2.49802 70.286 2.69402 70.3 2.91802 70.3C3.27268 70.3 3.56668 70.188 3.80002 69.964C4.04268 69.74 4.27602 69.39 4.50002 68.914L4.62602 68.648L0.916016 61.004H1.93802L5.18602 67.64L8.35002 61.004H9.35802L5.42402 69.152C5.21868 69.5813 5.01802 69.9267 4.82202 70.188C4.62602 70.44 4.42535 70.636 4.22002 70.776C4.02402 70.916 3.81868 71.0047 3.60402 71.042C3.39868 71.0887 3.17468 71.112 2.93202 71.112Z" fill="black"/>
<path d="M10.2105 61.004H11.6105L15.0685 69.768L18.5125 61.004H19.9125V71H18.9605V62.362H18.9325L15.5165 71H14.6205L11.1905 62.362H11.1625V71H10.2105V61.004Z" fill="black"/>
<path d="M21.9006 61.004H28.8026V61.816H22.8526V65.428H28.4246V66.24H22.8526V70.188H28.8726V71H21.9006V61.004Z" fill="black"/>
<path d="M29.9474 71.084C29.8914 71.084 29.8214 71.0793 29.7374 71.07C29.6628 71.0607 29.5834 71.0513 29.4994 71.042C29.4154 71.0327 29.3408 71.0187 29.2754 71C29.2101 70.9907 29.1634 70.9813 29.1354 70.972V70.16C29.2101 70.1973 29.3221 70.2253 29.4714 70.244C29.6301 70.2533 29.7468 70.258 29.8214 70.258C29.9241 70.258 30.0454 70.2487 30.1854 70.23C30.3254 70.202 30.4701 70.118 30.6194 69.978C30.7781 69.8287 30.9321 69.6 31.0814 69.292C31.2401 68.9747 31.3754 68.5267 31.4874 67.948C31.6088 67.36 31.7068 66.618 31.7814 65.722C31.8561 64.826 31.8934 63.7247 31.8934 62.418V61.004H38.0394V71H37.0874V61.816H32.8174V62.362C32.8174 63.818 32.7708 65.0453 32.6774 66.044C32.5841 67.0333 32.4581 67.8547 32.2994 68.508C32.1408 69.152 31.9588 69.6513 31.7534 70.006C31.5574 70.3513 31.3521 70.6033 31.1374 70.762C30.9321 70.9207 30.7221 71.014 30.5074 71.042C30.3021 71.07 30.1154 71.084 29.9474 71.084Z" fill="black"/>
<path d="M40.0568 61.004H41.0088V69.978L46.7488 61.004H47.9808V71H47.0288V62.026L41.2888 71H40.0568V61.004Z" fill="black"/>
<path d="M56.3008 61.816H52.8288V61.004H60.7388V61.816H57.2528V71H56.3008V61.816Z" fill="black"/>
<path d="M64.5981 61.004H65.6621L69.5821 71H68.5601L67.3421 67.892H62.7921L61.5881 71H60.5801L64.5981 61.004ZM67.0201 67.08L65.0881 61.956L63.0861 67.08H67.0201Z" fill="black"/>
<path d="M70.4904 61.004H71.4424V66.38L77.2524 61.004H78.5404L74.0744 65.134L78.7504 71H77.5184L73.3604 65.792L71.4424 67.57V71H70.4904V61.004Z" fill="black"/>
<path d="M82.9426 65.316L78.7986 61.004H80.0866L85.0146 66.268V61.004H85.9666V66.268L90.8946 61.004H92.1826L88.0386 65.316L92.5326 71H91.3006L87.3666 66.016L85.9666 67.472V71H85.0146V67.472L83.6146 66.016L79.6806 71H78.4486L82.9426 65.316Z" fill="black"/>
<path d="M93.4318 61.004H100.334V61.816H94.3838V65.428H99.9558V66.24H94.3838V70.188H100.404V71H93.4318V61.004Z" fill="black"/>
<path d="M103.173 71.42C103.173 71.8307 103.075 72.1573 102.879 72.4C102.692 72.652 102.449 72.8247 102.151 72.918V72.4C102.263 72.3253 102.37 72.2227 102.473 72.092C102.575 71.9613 102.627 71.756 102.627 71.476V71H102.151V69.768H103.173V71.42Z" fill="black"/>
<path d="M109.524 61.004H117.224V71H116.272V61.816H110.476V71H109.524V61.004Z" fill="black"/>
<path d="M119.244 61.004H123.682C124.13 61.004 124.536 61.0693 124.9 61.2C125.264 61.3213 125.577 61.508 125.838 61.76C126.1 62.0027 126.3 62.3013 126.44 62.656C126.58 63.0107 126.65 63.412 126.65 63.86C126.65 64.308 126.58 64.7093 126.44 65.064C126.3 65.4187 126.1 65.722 125.838 65.974C125.577 66.2167 125.264 66.4033 124.9 66.534C124.536 66.6553 124.13 66.716 123.682 66.716H120.196V71H119.244V61.004ZM123.472 65.904C124.135 65.904 124.672 65.736 125.082 65.4C125.493 65.064 125.698 64.5507 125.698 63.86C125.698 63.1693 125.493 62.656 125.082 62.32C124.672 61.984 124.135 61.816 123.472 61.816H120.196V65.904H123.472Z" fill="black"/>
<path d="M132.249 71.196C131.465 71.196 130.774 71.056 130.177 70.776C129.589 70.4867 129.099 70.104 128.707 69.628C128.315 69.152 128.021 68.6013 127.825 67.976C127.629 67.3507 127.531 66.6927 127.531 66.002C127.531 65.3207 127.629 64.6673 127.825 64.042C128.021 63.4073 128.315 62.852 128.707 62.376C129.099 61.8907 129.589 61.508 130.177 61.228C130.774 60.9387 131.465 60.794 132.249 60.794C133.033 60.794 133.719 60.9387 134.307 61.228C134.895 61.508 135.385 61.8907 135.777 62.376C136.169 62.852 136.463 63.4073 136.659 64.042C136.855 64.6673 136.953 65.3207 136.953 66.002C136.953 66.6927 136.855 67.3507 136.659 67.976C136.463 68.6013 136.169 69.152 135.777 69.628C135.385 70.104 134.895 70.4867 134.307 70.776C133.719 71.056 133.033 71.196 132.249 71.196ZM132.249 70.398C132.902 70.398 133.467 70.272 133.943 70.02C134.419 69.768 134.806 69.4367 135.105 69.026C135.413 68.606 135.637 68.1347 135.777 67.612C135.926 67.0893 136.001 66.5527 136.001 66.002C136.001 65.4607 135.926 64.9287 135.777 64.406C135.637 63.874 135.413 63.4027 135.105 62.992C134.806 62.572 134.419 62.236 133.943 61.984C133.467 61.732 132.902 61.606 132.249 61.606C131.586 61.606 131.017 61.732 130.541 61.984C130.065 62.236 129.673 62.572 129.365 62.992C129.066 63.4027 128.842 63.874 128.693 64.406C128.553 64.9287 128.483 65.4607 128.483 66.002C128.483 66.5527 128.553 67.0893 128.693 67.612C128.842 68.1347 129.066 68.606 129.365 69.026C129.673 69.4367 130.065 69.768 130.541 70.02C131.017 70.272 131.586 70.398 132.249 70.398Z" fill="black"/>
<path d="M142.682 71.196C141.898 71.196 141.207 71.056 140.61 70.776C140.022 70.4867 139.532 70.104 139.14 69.628C138.748 69.152 138.454 68.6013 138.258 67.976C138.062 67.3507 137.964 66.6927 137.964 66.002C137.964 65.3207 138.062 64.6673 138.258 64.042C138.454 63.4073 138.748 62.852 139.14 62.376C139.532 61.8907 140.022 61.508 140.61 61.228C141.207 60.9387 141.898 60.794 142.682 60.794C143.158 60.794 143.62 60.864 144.068 61.004C144.525 61.144 144.936 61.354 145.3 61.634C145.673 61.9047 145.981 62.2407 146.224 62.642C146.476 63.0433 146.634 63.5053 146.7 64.028H145.748C145.664 63.6453 145.524 63.3047 145.328 63.006C145.141 62.698 144.908 62.4413 144.628 62.236C144.357 62.0307 144.054 61.8767 143.718 61.774C143.391 61.662 143.046 61.606 142.682 61.606C142.019 61.606 141.45 61.732 140.974 61.984C140.498 62.236 140.106 62.572 139.798 62.992C139.499 63.4027 139.275 63.874 139.126 64.406C138.986 64.9287 138.916 65.4607 138.916 66.002C138.916 66.5527 138.986 67.0893 139.126 67.612C139.275 68.1347 139.499 68.606 139.798 69.026C140.106 69.4367 140.498 69.768 140.974 70.02C141.45 70.272 142.019 70.398 142.682 70.398C143.139 70.398 143.554 70.314 143.928 70.146C144.31 69.978 144.637 69.7493 144.908 69.46C145.178 69.1707 145.398 68.8347 145.566 68.452C145.734 68.06 145.841 67.64 145.888 67.192H146.84C146.774 67.808 146.63 68.3633 146.406 68.858C146.182 69.3527 145.892 69.7727 145.538 70.118C145.183 70.4633 144.763 70.7293 144.278 70.916C143.802 71.1027 143.27 71.196 142.682 71.196Z" fill="black"/>
<path d="M150.705 61.816H147.233V61.004H155.143V61.816H151.657V71H150.705V61.816Z" fill="black"/>
<path d="M160.262 71.196C159.478 71.196 158.788 71.056 158.19 70.776C157.602 70.4867 157.112 70.104 156.72 69.628C156.328 69.152 156.034 68.6013 155.838 67.976C155.642 67.3507 155.544 66.6927 155.544 66.002C155.544 65.3207 155.642 64.6673 155.838 64.042C156.034 63.4073 156.328 62.852 156.72 62.376C157.112 61.8907 157.602 61.508 158.19 61.228C158.788 60.9387 159.478 60.794 160.262 60.794C161.046 60.794 161.732 60.9387 162.32 61.228C162.908 61.508 163.398 61.8907 163.79 62.376C164.182 62.852 164.476 63.4073 164.672 64.042C164.868 64.6673 164.966 65.3207 164.966 66.002C164.966 66.6927 164.868 67.3507 164.672 67.976C164.476 68.6013 164.182 69.152 163.79 69.628C163.398 70.104 162.908 70.4867 162.32 70.776C161.732 71.056 161.046 71.196 160.262 71.196ZM160.262 70.398C160.916 70.398 161.48 70.272 161.956 70.02C162.432 69.768 162.82 69.4367 163.118 69.026C163.426 68.606 163.65 68.1347 163.79 67.612C163.94 67.0893 164.014 66.5527 164.014 66.002C164.014 65.4607 163.94 64.9287 163.79 64.406C163.65 63.874 163.426 63.4027 163.118 62.992C162.82 62.572 162.432 62.236 161.956 61.984C161.48 61.732 160.916 61.606 160.262 61.606C159.6 61.606 159.03 61.732 158.554 61.984C158.078 62.236 157.686 62.572 157.378 62.992C157.08 63.4027 156.856 63.874 156.706 64.406C156.566 64.9287 156.496 65.4607 156.496 66.002C156.496 66.5527 156.566 67.0893 156.706 67.612C156.856 68.1347 157.08 68.606 157.378 69.026C157.686 69.4367 158.078 69.768 158.554 70.02C159.03 70.272 159.6 70.398 160.262 70.398Z" fill="black"/>
<path d="M2.00802 81.004H2.96002V85.344H8.89602V81.004H9.84802V91H8.89602V86.156H2.96002V91H2.00802V81.004Z" fill="black"/>
<path d="M14.7914 81.004H15.8554L19.7754 91H18.7534L17.5354 87.892H12.9854L11.7814 91H10.7734L14.7914 81.004ZM17.2134 87.08L15.2814 81.956L13.2794 87.08H17.2134Z" fill="black"/>
<path d="M24.5803 81.004H25.5323V85.344H31.4683V81.004H32.4203V91H31.4683V86.156H25.5323V91H24.5803V81.004Z" fill="black"/>
<path d="M38.6237 91.196C37.8397 91.196 37.149 91.056 36.5517 90.776C35.9637 90.4867 35.4737 90.104 35.0817 89.628C34.6897 89.152 34.3957 88.6013 34.1997 87.976C34.0037 87.3507 33.9057 86.6927 33.9057 86.002C33.9057 85.3207 34.0037 84.6673 34.1997 84.042C34.3957 83.4073 34.6897 82.852 35.0817 82.376C35.4737 81.8907 35.9637 81.508 36.5517 81.228C37.149 80.9387 37.8397 80.794 38.6237 80.794C39.4077 80.794 40.0937 80.9387 40.6817 81.228C41.2697 81.508 41.7597 81.8907 42.1517 82.376C42.5437 82.852 42.8377 83.4073 43.0337 84.042C43.2297 84.6673 43.3277 85.3207 43.3277 86.002C43.3277 86.6927 43.2297 87.3507 43.0337 87.976C42.8377 88.6013 42.5437 89.152 42.1517 89.628C41.7597 90.104 41.2697 90.4867 40.6817 90.776C40.0937 91.056 39.4077 91.196 38.6237 91.196ZM38.6237 90.398C39.277 90.398 39.8417 90.272 40.3177 90.02C40.7937 89.768 41.181 89.4367 41.4797 89.026C41.7877 88.606 42.0117 88.1347 42.1517 87.612C42.301 87.0893 42.3757 86.5527 42.3757 86.002C42.3757 85.4607 42.301 84.9287 42.1517 84.406C42.0117 83.874 41.7877 83.4027 41.4797 82.992C41.181 82.572 40.7937 82.236 40.3177 81.984C39.8417 81.732 39.277 81.606 38.6237 81.606C37.961 81.606 37.3917 81.732 36.9157 81.984C36.4397 82.236 36.0477 82.572 35.7397 82.992C35.441 83.4027 35.217 83.874 35.0677 84.406C34.9277 84.9287 34.8577 85.4607 34.8577 86.002C34.8577 86.5527 34.9277 87.0893 35.0677 87.612C35.217 88.1347 35.441 88.606 35.7397 89.026C36.0477 89.4367 36.4397 89.768 36.9157 90.02C37.3917 90.272 37.961 90.398 38.6237 90.398Z" fill="black"/>
<path d="M50.6667 86.45C50.5267 86.4873 50.3307 86.5293 50.0787 86.576C49.8267 86.6227 49.5513 86.6693 49.2527 86.716C48.9633 86.7533 48.6693 86.7907 48.3707 86.828C48.0813 86.856 47.8247 86.87 47.6007 86.87C46.882 86.87 46.308 86.786 45.8787 86.618C45.4587 86.4407 45.1367 86.2167 44.9127 85.946C44.6887 85.666 44.544 85.358 44.4787 85.022C44.4133 84.6767 44.3807 84.336 44.3807 84V81.004H45.3327V83.944C45.3327 84.1493 45.3513 84.3733 45.3887 84.616C45.426 84.8587 45.5193 85.0873 45.6687 85.302C45.818 85.5073 46.0327 85.6847 46.3127 85.834C46.602 85.974 46.9987 86.044 47.5027 86.044C47.8013 86.044 48.1093 86.03 48.4267 86.002C48.7533 85.9647 49.0613 85.9273 49.3507 85.89C49.64 85.8433 49.8967 85.7967 50.1207 85.75C50.354 85.7033 50.536 85.666 50.6667 85.638V81.004H51.6187V91H50.6667V86.45Z" fill="black"/>
<path d="M53.633 81.004H54.585V85.232H58.071C59.0043 85.232 59.7323 85.4887 60.255 86.002C60.7777 86.5153 61.039 87.22 61.039 88.116C61.039 89.012 60.7777 89.7167 60.255 90.23C59.7323 90.7433 59.0043 91 58.071 91H53.633V81.004ZM57.861 90.188C58.561 90.188 59.107 90.006 59.499 89.642C59.891 89.2687 60.087 88.76 60.087 88.116C60.087 87.472 59.891 86.968 59.499 86.604C59.107 86.2307 58.561 86.044 57.861 86.044H54.585V90.188H57.861Z" fill="black"/>
<path d="M66.3479 81.004H70.5759C70.9959 81.004 71.3972 81.046 71.7799 81.13C72.1719 81.2047 72.5125 81.34 72.8019 81.536C73.1005 81.7227 73.3385 81.9747 73.5159 82.292C73.6932 82.6 73.7819 82.9873 73.7819 83.454C73.7819 83.7153 73.7399 83.972 73.6559 84.224C73.5719 84.4667 73.4505 84.6907 73.2919 84.896C73.1425 85.092 72.9605 85.26 72.7459 85.4C72.5405 85.54 72.3072 85.638 72.0459 85.694V85.722C72.6899 85.806 73.2032 86.072 73.5859 86.52C73.9685 86.9587 74.1599 87.5047 74.1599 88.158C74.1599 88.4007 74.1225 88.6853 74.0479 89.012C73.9825 89.3293 73.8285 89.6373 73.5859 89.936C73.3432 90.2347 72.9839 90.4867 72.5079 90.692C72.0319 90.8973 71.3879 91 70.5759 91H66.3479V81.004ZM70.5759 90.188C70.9305 90.188 71.2665 90.16 71.5839 90.104C71.9012 90.0387 72.1812 89.9267 72.4239 89.768C72.6665 89.6093 72.8579 89.3993 72.9979 89.138C73.1379 88.8767 73.2079 88.5407 73.2079 88.13C73.2079 87.486 72.9792 87.0053 72.5219 86.688C72.0739 86.3613 71.4252 86.198 70.5759 86.198H67.2999V90.188H70.5759ZM70.5759 85.386C70.9492 85.386 71.2759 85.344 71.5559 85.26C71.8452 85.1667 72.0832 85.0453 72.2699 84.896C72.4565 84.7373 72.5965 84.5553 72.6899 84.35C72.7832 84.1447 72.8299 83.9253 72.8299 83.692C72.8299 82.4413 72.0785 81.816 70.5759 81.816H67.2999V85.386H70.5759Z" fill="black"/>
<path d="M75.6858 81.004H76.6377V85.232H80.1237C81.0571 85.232 81.7851 85.4887 82.3077 86.002C82.8304 86.5153 83.0918 87.22 83.0918 88.116C83.0918 89.012 82.8304 89.7167 82.3077 90.23C81.7851 90.7433 81.0571 91 80.1237 91H75.6858V81.004ZM79.9137 90.188C80.6137 90.188 81.1598 90.006 81.5518 89.642C81.9438 89.2687 82.1397 88.76 82.1397 88.116C82.1397 87.472 81.9438 86.968 81.5518 86.604C81.1598 86.2307 80.6137 86.044 79.9137 86.044H76.6377V90.188H79.9137ZM84.5618 81.004H85.5137V91H84.5618V81.004Z" fill="black"/>
<path d="M87.9456 91V89.768H88.9676V91H87.9456Z" fill="black"/>
<path d="M91.8421 91V89.768H92.8641V91H91.8421Z" fill="black"/>
<path d="M95.7386 91V89.768H96.7606V91H95.7386Z" fill="black"/>
<path d="M99.635 91V89.768H100.657V91H99.635Z" fill="black"/>
<path d="M103.112 81.004H104.064V85.344H110V81.004H110.952V91H110V86.156H104.064V91H103.112V81.004Z" fill="black"/>
<path d="M115.895 81.004H116.959L120.879 91H119.857L118.639 87.892H114.089L112.885 91H111.877L115.895 81.004ZM118.317 87.08L116.385 81.956L114.383 87.08H118.317Z" fill="black"/>
<path d="M126.029 91.196C125.245 91.196 124.555 91.056 123.957 90.776C123.369 90.4867 122.879 90.104 122.487 89.628C122.095 89.152 121.801 88.6013 121.605 87.976C121.409 87.3507 121.311 86.6927 121.311 86.002C121.311 85.3207 121.409 84.6673 121.605 84.042C121.801 83.4073 122.095 82.852 122.487 82.376C122.879 81.8907 123.369 81.508 123.957 81.228C124.555 80.9387 125.245 80.794 126.029 80.794C126.505 80.794 126.967 80.864 127.415 81.004C127.873 81.144 128.283 81.354 128.647 81.634C129.021 81.9047 129.329 82.2407 129.571 82.642C129.823 83.0433 129.982 83.5053 130.047 84.028H129.095C129.011 83.6453 128.871 83.3047 128.675 83.006C128.489 82.698 128.255 82.4413 127.975 82.236C127.705 82.0307 127.401 81.8767 127.065 81.774C126.739 81.662 126.393 81.606 126.029 81.606C125.367 81.606 124.797 81.732 124.321 81.984C123.845 82.236 123.453 82.572 123.145 82.992C122.847 83.4027 122.623 83.874 122.473 84.406C122.333 84.9287 122.263 85.4607 122.263 86.002C122.263 86.5527 122.333 87.0893 122.473 87.612C122.623 88.1347 122.847 88.606 123.145 89.026C123.453 89.4367 123.845 89.768 124.321 90.02C124.797 90.272 125.367 90.398 126.029 90.398C126.487 90.398 126.902 90.314 127.275 90.146C127.658 89.978 127.985 89.7493 128.255 89.46C128.526 89.1707 128.745 88.8347 128.913 88.452C129.081 88.06 129.189 87.64 129.235 87.192H130.187C130.122 87.808 129.977 88.3633 129.753 88.858C129.529 89.3527 129.24 89.7727 128.885 90.118C128.531 90.4633 128.111 90.7293 127.625 90.916C127.149 91.1027 126.617 91.196 126.029 91.196Z" fill="black"/>
<path d="M134.053 81.816H130.581V81.004H138.491V81.816H135.005V91H134.053V81.816Z" fill="black"/>
<path d="M143.61 91.196C142.826 91.196 142.135 91.056 141.538 90.776C140.95 90.4867 140.46 90.104 140.068 89.628C139.676 89.152 139.382 88.6013 139.186 87.976C138.99 87.3507 138.892 86.6927 138.892 86.002C138.892 85.3207 138.99 84.6673 139.186 84.042C139.382 83.4073 139.676 82.852 140.068 82.376C140.46 81.8907 140.95 81.508 141.538 81.228C142.135 80.9387 142.826 80.794 143.61 80.794C144.394 80.794 145.08 80.9387 145.668 81.228C146.256 81.508 146.746 81.8907 147.138 82.376C147.53 82.852 147.824 83.4073 148.02 84.042C148.216 84.6673 148.314 85.3207 148.314 86.002C148.314 86.6927 148.216 87.3507 148.02 87.976C147.824 88.6013 147.53 89.152 147.138 89.628C146.746 90.104 146.256 90.4867 145.668 90.776C145.08 91.056 144.394 91.196 143.61 91.196ZM143.61 90.398C144.263 90.398 144.828 90.272 145.304 90.02C145.78 89.768 146.167 89.4367 146.466 89.026C146.774 88.606 146.998 88.1347 147.138 87.612C147.287 87.0893 147.362 86.5527 147.362 86.002C147.362 85.4607 147.287 84.9287 147.138 84.406C146.998 83.874 146.774 83.4027 146.466 82.992C146.167 82.572 145.78 82.236 145.304 81.984C144.828 81.732 144.263 81.606 143.61 81.606C142.947 81.606 142.378 81.732 141.902 81.984C141.426 82.236 141.034 82.572 140.726 82.992C140.427 83.4027 140.203 83.874 140.054 84.406C139.914 84.9287 139.844 85.4607 139.844 86.002C139.844 86.5527 139.914 87.0893 140.054 87.612C140.203 88.1347 140.427 88.606 140.726 89.026C141.034 89.4367 141.426 89.768 141.902 90.02C142.378 90.272 142.947 90.398 143.61 90.398Z" fill="black"/>
<path d="M149.801 81.004H150.753V89.978L156.493 81.004H157.725V91H156.773V82.026L151.033 91H149.801V81.004ZM153.679 80.178C153.091 80.178 152.634 80.024 152.307 79.716C151.98 79.3987 151.78 78.946 151.705 78.358H152.251C152.298 78.7127 152.442 78.9927 152.685 79.198C152.937 79.4033 153.273 79.506 153.693 79.506C154.094 79.506 154.421 79.408 154.673 79.212C154.934 79.0067 155.102 78.722 155.177 78.358H155.723C155.62 78.946 155.401 79.3987 155.065 79.716C154.729 80.024 154.267 80.178 153.679 80.178Z" fill="black"/>
<path d="M159.74 81.004H160.692V86.38L166.502 81.004H167.79L163.324 85.134L168 91H166.768L162.61 85.792L160.692 87.57V91H159.74V81.004Z" fill="black"/>
<path d="M169.743 91.112C169.519 91.112 169.313 91.098 169.127 91.07C168.949 91.042 168.809 91.0093 168.707 90.972V90.132C168.828 90.1787 168.973 90.2207 169.141 90.258C169.309 90.286 169.505 90.3 169.729 90.3C170.083 90.3 170.377 90.188 170.611 89.964C170.853 89.74 171.087 89.39 171.311 88.914L171.437 88.648L167.727 81.004H168.749L171.997 87.64L175.161 81.004H176.169L172.235 89.152C172.029 89.5813 171.829 89.9267 171.633 90.188C171.437 90.44 171.236 90.636 171.031 90.776C170.835 90.916 170.629 91.0047 170.415 91.042C170.209 91.0887 169.985 91.112 169.743 91.112Z" fill="black"/>
</svg>
