<svg width="83" height="146" viewBox="0 0 83 146" fill="none" xmlns="http://www.w3.org/2000/svg">
<path d="M1.10628 45.6002H2.05828V54.7842L6.79028 54.7842V45.6002H7.74228V54.7842H12.4743V45.6002H13.4263V55.5962H1.10628V45.6002Z" fill="black"/>
<path d="M19.6341 55.7922C18.8501 55.7922 18.1594 55.6522 17.5621 55.3722C16.9741 55.0829 16.4841 54.7002 16.0921 54.2242C15.7001 53.7482 15.4061 53.1975 15.2101 52.5722C15.0141 51.9468 14.9161 51.2888 14.9161 50.5982C14.9161 49.9168 15.0141 49.2635 15.2101 48.6382C15.4061 48.0035 15.7001 47.4482 16.0921 46.9722C16.4841 46.4869 16.9741 46.1042 17.5621 45.8242C18.1594 45.5349 18.8501 45.3902 19.6341 45.3902C20.4181 45.3902 21.1041 45.5349 21.6921 45.8242C22.2801 46.1042 22.7701 46.4868 23.1621 46.9722C23.5541 47.4482 23.8481 48.0035 24.0441 48.6382C24.2401 49.2635 24.3381 49.9168 24.3381 50.5982C24.3381 51.2888 24.2401 51.9468 24.0441 52.5722C23.8481 53.1975 23.5541 53.7482 23.1621 54.2242C22.7701 54.7002 22.2801 55.0829 21.6921 55.3722C21.1041 55.6522 20.4181 55.7922 19.6341 55.7922ZM19.6341 54.9942C20.2874 54.9942 20.8521 54.8682 21.3281 54.6162C21.8041 54.3642 22.1914 54.0329 22.4901 53.6222C22.7981 53.2022 23.0221 52.7309 23.1621 52.2082C23.3114 51.6855 23.3861 51.1488 23.3861 50.5982C23.3861 50.0568 23.3114 49.5248 23.1621 49.0022C23.0221 48.4702 22.7981 47.9989 22.4901 47.5882C22.1914 47.1682 21.8041 46.8322 21.3281 46.5802C20.8521 46.3282 20.2874 46.2022 19.6341 46.2022C18.9714 46.2022 18.4021 46.3282 17.9261 46.5802C17.4501 46.8322 17.0581 47.1682 16.7501 47.5882C16.4514 47.9988 16.2274 48.4702 16.0781 49.0022C15.9381 49.5248 15.8681 50.0568 15.8681 50.5982C15.8681 51.1488 15.9381 51.6855 16.0781 52.2082C16.2274 52.7309 16.4514 53.2022 16.7501 53.6222C17.0581 54.0329 17.4501 54.3642 17.9261 54.6162C18.4021 54.8682 18.9714 54.9942 19.6341 54.9942Z" fill="black"/>
<path d="M25.825 45.6002H26.777V50.9762L32.587 45.6002H33.875L29.409 49.7302L34.085 55.5962H32.853L28.695 50.3882L26.777 52.1662V55.5962H25.825V45.6002Z" fill="black"/>
<path d="M35.7152 48.6522V45.5162H36.7372V48.6522L36.5412 53.0622H35.9112L35.7152 48.6522ZM35.7152 55.5962V54.3642L36.7372 54.3642V55.5962H35.7152Z" fill="black"/>
<path d="M5.29228 73.7922C4.50828 73.7922 3.81761 73.6522 3.22028 73.3722C2.63228 73.0829 2.14228 72.7002 1.75028 72.2242C1.35828 71.7482 1.06428 71.1975 0.86828 70.5722C0.67228 69.9468 0.57428 69.2888 0.57428 68.5982C0.57428 67.9168 0.67228 67.2635 0.86828 66.6382C1.06428 66.0035 1.35828 65.4482 1.75028 64.9722C2.14228 64.4869 2.63228 64.1042 3.22028 63.8242C3.81761 63.5348 4.50828 63.3902 5.29228 63.3902C6.07628 63.3902 6.76228 63.5348 7.35028 63.8242C7.93828 64.1042 8.42828 64.4868 8.82028 64.9722C9.21228 65.4482 9.50628 66.0035 9.70228 66.6382C9.89828 67.2635 9.99628 67.9168 9.99628 68.5982C9.99628 69.2888 9.89828 69.9468 9.70228 70.5722C9.50628 71.1975 9.21228 71.7482 8.82028 72.2242C8.42828 72.7002 7.93828 73.0829 7.35028 73.3722C6.76228 73.6522 6.07628 73.7922 5.29228 73.7922ZM5.29228 72.9942C5.94561 72.9942 6.51028 72.8682 6.98628 72.6162C7.46228 72.3642 7.84961 72.0329 8.14828 71.6222C8.45628 71.2022 8.68028 70.7309 8.82028 70.2082C8.96961 69.6855 9.04428 69.1488 9.04428 68.5982C9.04428 68.0568 8.96961 67.5248 8.82028 67.0022C8.68028 66.4702 8.45628 65.9988 8.14828 65.5882C7.84961 65.1682 7.46228 64.8322 6.98628 64.5802C6.51028 64.3282 5.94561 64.2022 5.29228 64.2022C4.62961 64.2022 4.06028 64.3282 3.58428 64.5802C3.10828 64.8322 2.71628 65.1682 2.40828 65.5882C2.10961 65.9988 1.88561 66.4702 1.73628 67.0022C1.59628 67.5248 1.52628 68.0568 1.52628 68.5982C1.52628 69.1488 1.59628 69.6855 1.73628 70.2082C1.88561 70.7309 2.10961 71.2022 2.40828 71.6222C2.71628 72.0328 3.10828 72.3642 3.58428 72.6162C4.06028 72.8682 4.62961 72.9942 5.29228 72.9942Z" fill="black"/>
<path d="M11.4832 63.6002H15.9212C16.3692 63.6002 16.7752 63.6655 17.1392 63.7962C17.5032 63.9175 17.8159 64.1042 18.0772 64.3562C18.3386 64.5988 18.5392 64.8975 18.6792 65.2522C18.8192 65.6068 18.8892 66.0082 18.8892 66.4562C18.8892 66.9042 18.8192 67.3055 18.6792 67.6602C18.5392 68.0149 18.3386 68.3182 18.0772 68.5702C17.8159 68.8128 17.5032 68.9995 17.1392 69.1302C16.7752 69.2515 16.3692 69.3122 15.9212 69.3122H12.4352V73.5962H11.4832V63.6002ZM15.7112 68.5002C16.3739 68.5002 16.9106 68.3322 17.3212 67.9962C17.7319 67.6602 17.9372 67.1469 17.9372 66.4562C17.9372 65.7655 17.7319 65.2522 17.3212 64.9162C16.9106 64.5802 16.3739 64.4122 15.7112 64.4122H12.4352V68.5002H15.7112Z" fill="black"/>
<path d="M20.3856 63.6002H26.5596V64.4122L21.3376 64.4122V73.5962H20.3856V63.6002Z" fill="black"/>
<path d="M30.419 63.6002H31.483L35.403 73.5962H34.381L33.163 70.4882H28.613L27.409 73.5962H26.401L30.419 63.6002ZM32.841 69.6762L30.909 64.5522L28.907 69.6762H32.841Z" fill="black"/>
<path d="M36.3114 63.6002H37.2634V67.9402H43.1994V63.6002H44.1514V73.5962H43.1994V68.7522H37.2634V73.5962H36.3114V63.6002Z" fill="black"/>
<path d="M46.1688 63.6002H47.1208V72.5742L52.8608 63.6002L54.0928 63.6002V73.5962H53.1408V64.6222L47.4008 73.5962H46.1688V63.6002Z" fill="black"/>
<path d="M59.6362 73.8062C59.0202 73.8062 58.4649 73.7315 57.9702 73.5822C57.4756 73.4235 57.0556 73.1995 56.7102 72.9102C56.3742 72.6115 56.1129 72.2522 55.9262 71.8322C55.7489 71.4029 55.6602 70.9222 55.6602 70.3902V70.3062H56.5702C56.5702 71.2302 56.8549 71.9162 57.4242 72.3642C57.9936 72.8122 58.7542 73.0362 59.7062 73.0362C60.1262 73.0362 60.5042 72.9755 60.8402 72.8542C61.1762 72.7235 61.4562 72.5508 61.6802 72.3362C61.9136 72.1215 62.0909 71.8742 62.2122 71.5942C62.3429 71.3049 62.4082 71.0015 62.4082 70.6842C62.4082 70.3949 62.3476 70.1335 62.2262 69.9002C62.1142 69.6575 61.9556 69.4522 61.7502 69.2842C61.5449 69.1162 61.3022 68.9855 61.0222 68.8922C60.7516 68.7988 60.4576 68.7522 60.1402 68.7522H58.5442V67.9402H60.1402C60.4016 67.9402 60.6536 67.9029 60.8962 67.8282C61.1389 67.7535 61.3536 67.6462 61.5402 67.5062C61.7269 67.3569 61.8716 67.1749 61.9742 66.9602C62.0862 66.7362 62.1422 66.4795 62.1422 66.1902C62.1422 65.8449 62.0769 65.5462 61.9462 65.2942C61.8249 65.0422 61.6569 64.8369 61.4422 64.6782C61.2276 64.5102 60.9709 64.3889 60.6722 64.3142C60.3736 64.2302 60.0562 64.1882 59.7202 64.1882C59.3282 64.1882 58.9642 64.2349 58.6282 64.3282C58.2922 64.4215 57.9982 64.5662 57.7462 64.7622C57.5036 64.9489 57.3076 65.1868 57.1582 65.4762C57.0182 65.7562 56.9342 66.0829 56.9062 66.4562H55.9822C56.0102 65.9429 56.1176 65.4948 56.3042 65.1122C56.5002 64.7295 56.7616 64.4122 57.0882 64.1602C57.4149 63.8989 57.7976 63.7075 58.2362 63.5862C58.6842 63.4555 59.1696 63.3902 59.6922 63.3902C60.1589 63.3902 60.5976 63.4462 61.0082 63.5582C61.4282 63.6609 61.7922 63.8242 62.1002 64.0482C62.4082 64.2722 62.6509 64.5569 62.8282 64.9022C63.0056 65.2382 63.0942 65.6395 63.0942 66.1062C63.0942 66.3675 63.0522 66.6148 62.9682 66.8482C62.8842 67.0722 62.7722 67.2775 62.6322 67.4642C62.4922 67.6415 62.3336 67.7955 62.1562 67.9262C61.9789 68.0569 61.8016 68.1549 61.6242 68.2202V68.2622C62.1562 68.4022 62.5762 68.6729 62.8842 69.0742C63.2016 69.4662 63.3602 69.9982 63.3602 70.6702C63.3602 70.9782 63.2949 71.3142 63.1642 71.6782C63.0429 72.0422 62.8376 72.3829 62.5482 72.7002C62.2589 73.0175 61.8762 73.2835 61.4002 73.4982C60.9242 73.7035 60.3362 73.8062 59.6362 73.8062Z" fill="black"/>
<path d="M64.8576 63.6002H66.2576L69.7156 72.3642L73.1596 63.6002H74.5596V73.5962H73.6076V64.9582H73.5796L70.1636 73.5962H69.2676L65.8376 64.9582H65.8096V73.5962H64.8576V63.6002Z" fill="black"/>
<path d="M5.29228 91.7922C4.50828 91.7922 3.81761 91.6522 3.22028 91.3722C2.63228 91.0828 2.14228 90.7002 1.75028 90.2242C1.35828 89.7482 1.06428 89.1975 0.86828 88.5722C0.67228 87.9468 0.57428 87.2888 0.57428 86.5982C0.57428 85.9168 0.67228 85.2635 0.86828 84.6382C1.06428 84.0035 1.35828 83.4482 1.75028 82.9722C2.14228 82.4869 2.63228 82.1042 3.22028 81.8242C3.81761 81.5348 4.50828 81.3902 5.29228 81.3902C6.07628 81.3902 6.76228 81.5348 7.35028 81.8242C7.93828 82.1042 8.42828 82.4868 8.82028 82.9722C9.21228 83.4482 9.50628 84.0035 9.70228 84.6382C9.89828 85.2635 9.99628 85.9168 9.99628 86.5982C9.99628 87.2888 9.89828 87.9468 9.70228 88.5722C9.50628 89.1975 9.21228 89.7482 8.82028 90.2242C8.42828 90.7002 7.93828 91.0828 7.35028 91.3722C6.76228 91.6522 6.07628 91.7922 5.29228 91.7922ZM5.29228 90.9942C5.94561 90.9942 6.51028 90.8682 6.98628 90.6162C7.46228 90.3642 7.84961 90.0328 8.14828 89.6222C8.45628 89.2022 8.68028 88.7309 8.82028 88.2082C8.96961 87.6855 9.04428 87.1488 9.04428 86.5982C9.04428 86.0568 8.96961 85.5248 8.82028 85.0022C8.68028 84.4702 8.45628 83.9988 8.14828 83.5882C7.84961 83.1682 7.46228 82.8322 6.98628 82.5802C6.51028 82.3282 5.94561 82.2022 5.29228 82.2022C4.62961 82.2022 4.06028 82.3282 3.58428 82.5802C3.10828 82.8322 2.71628 83.1682 2.40828 83.5882C2.10961 83.9988 1.88561 84.4702 1.73628 85.0022C1.59628 85.5248 1.52628 86.0568 1.52628 86.5982C1.52628 87.1488 1.59628 87.6855 1.73628 88.2082C1.88561 88.7309 2.10961 89.2022 2.40828 89.6222C2.71628 90.0328 3.10828 90.3642 3.58428 90.6162C4.06028 90.8682 4.62961 90.9942 5.29228 90.9942Z" fill="black"/>
<path d="M17.3352 87.0462C17.1952 87.0835 16.9992 87.1255 16.7472 87.1722C16.4952 87.2188 16.2199 87.2655 15.9212 87.3122C15.6319 87.3495 15.3379 87.3868 15.0392 87.4242C14.7499 87.4522 14.4932 87.4662 14.2692 87.4662C13.5506 87.4662 12.9766 87.3822 12.5472 87.2142C12.1272 87.0369 11.8052 86.8128 11.5812 86.5422C11.3572 86.2622 11.2126 85.9542 11.1472 85.6182C11.0819 85.2728 11.0492 84.9322 11.0492 84.5962V81.6002H12.0012V84.5402C12.0012 84.7455 12.0199 84.9695 12.0572 85.2122C12.0946 85.4548 12.1879 85.6835 12.3372 85.8982C12.4866 86.1035 12.7012 86.2809 12.9812 86.4302C13.2706 86.5702 13.6672 86.6402 14.1712 86.6402C14.4699 86.6402 14.7779 86.6262 15.0952 86.5982C15.4219 86.5608 15.7299 86.5235 16.0192 86.4862C16.3086 86.4395 16.5652 86.3929 16.7892 86.3462C17.0226 86.2995 17.2046 86.2622 17.3352 86.2342V81.6002H18.2872V91.5962H17.3352V87.0462Z" fill="black"/>
<path d="M20.3016 81.6002H21.2536V90.5742L26.9936 81.6002H28.2256V91.5962H27.2736V82.6222L21.5336 91.5962H20.3016V81.6002Z" fill="black"/>
<path d="M34.483 91.7922C33.699 91.7922 33.0084 91.6522 32.411 91.3722C31.823 91.0829 31.333 90.7002 30.941 90.2242C30.549 89.7482 30.255 89.1975 30.059 88.5722C29.863 87.9468 29.765 87.2888 29.765 86.5982C29.765 85.9168 29.863 85.2635 30.059 84.6382C30.255 84.0035 30.549 83.4482 30.941 82.9722C31.333 82.4869 31.823 82.1042 32.411 81.8242C33.0084 81.5349 33.699 81.3902 34.483 81.3902C34.959 81.3902 35.421 81.4602 35.869 81.6002C36.3264 81.7402 36.737 81.9502 37.101 82.2302C37.4744 82.5008 37.7824 82.8369 38.025 83.2382C38.277 83.6395 38.4357 84.1015 38.501 84.6242H37.549C37.465 84.2415 37.325 83.9009 37.129 83.6022C36.9424 83.2942 36.709 83.0375 36.429 82.8322C36.1584 82.6269 35.855 82.4728 35.519 82.3702C35.1924 82.2582 34.847 82.2022 34.483 82.2022C33.8204 82.2022 33.251 82.3282 32.775 82.5802C32.299 82.8322 31.907 83.1682 31.599 83.5882C31.3004 83.9988 31.0764 84.4702 30.927 85.0022C30.787 85.5248 30.717 86.0568 30.717 86.5982C30.717 87.1488 30.787 87.6855 30.927 88.2082C31.0764 88.7309 31.3004 89.2022 31.599 89.6222C31.907 90.0329 32.299 90.3642 32.775 90.6162C33.251 90.8682 33.8204 90.9942 34.483 90.9942C34.9404 90.9942 35.3557 90.9102 35.729 90.7422C36.1117 90.5742 36.4384 90.3455 36.709 90.0562C36.9797 89.7668 37.199 89.4309 37.367 89.0482C37.535 88.6562 37.6424 88.2362 37.689 87.7882H38.641C38.5757 88.4042 38.431 88.9595 38.207 89.4542C37.983 89.9489 37.6937 90.3689 37.339 90.7142C36.9844 91.0595 36.5644 91.3255 36.079 91.5122C35.603 91.6989 35.071 91.7922 34.483 91.7922Z" fill="black"/>
<path d="M42.5065 82.4122H39.0345V81.6002H46.9445V82.4122H43.4585V91.5962H42.5065V82.4122Z" fill="black"/>
<path d="M47.8778 81.6002H48.8298V90.5742L54.5698 81.6002H55.8018V91.5962H54.8498V82.6222L49.1098 91.5962H47.8778V81.6002Z" fill="black"/>
<path d="M60.2252 82.4122H56.7532V81.6002H64.6632V82.4122H61.1772V91.5962H60.2252V82.4122Z" fill="black"/>
<path d="M69.8385 91.7922C69.0545 91.7922 68.3639 91.6522 67.7665 91.3722C67.1785 91.0829 66.6885 90.7002 66.2965 90.2242C65.9045 89.7482 65.6105 89.1975 65.4145 88.5722C65.2185 87.9469 65.1205 87.2889 65.1205 86.5982C65.1205 85.9169 65.2185 85.2635 65.4145 84.6382C65.6105 84.0035 65.9045 83.4482 66.2965 82.9722C66.6885 82.4869 67.1785 82.1042 67.7665 81.8242C68.3639 81.5349 69.0545 81.3902 69.8385 81.3902C70.3145 81.3902 70.7765 81.4602 71.2245 81.6002C71.6819 81.7402 72.0925 81.9502 72.4565 82.2302C72.8298 82.5009 73.1378 82.8369 73.3805 83.2382C73.6325 83.6395 73.7912 84.1015 73.8565 84.6242H72.9045C72.8205 84.2415 72.6805 83.9009 72.4845 83.6022C72.2978 83.2942 72.0645 83.0375 71.7845 82.8322C71.5138 82.6269 71.2105 82.4729 70.8745 82.3702C70.5478 82.2582 70.2025 82.2022 69.8385 82.2022C69.1758 82.2022 68.6065 82.3282 68.1305 82.5802C67.6545 82.8322 67.2625 83.1682 66.9545 83.5882C66.6558 83.9988 66.4318 84.4702 66.2825 85.0022C66.1425 85.5248 66.0725 86.0569 66.0725 86.5982C66.0725 87.1489 66.1425 87.6855 66.2825 88.2082C66.4318 88.7309 66.6558 89.2022 66.9545 89.6222C67.2625 90.0329 67.6545 90.3642 68.1305 90.6162C68.6065 90.8682 69.1758 90.9942 69.8385 90.9942C70.2958 90.9942 70.7112 90.9102 71.0845 90.7422C71.4672 90.5742 71.7938 90.3455 72.0645 90.0562C72.3352 89.7668 72.5545 89.4309 72.7225 89.0482C72.8905 88.6562 72.9979 88.2362 73.0445 87.7882H73.9965C73.9312 88.4042 73.7865 88.9595 73.5625 89.4542C73.3385 89.9489 73.0492 90.3689 72.6945 90.7142C72.3398 91.0595 71.9199 91.3255 71.4345 91.5122C70.9585 91.6989 70.4265 91.7922 69.8385 91.7922Z" fill="black"/>
<path d="M77.9179 87.2562C77.5073 87.2375 77.1246 87.1628 76.7699 87.0322C76.4246 86.9015 76.1213 86.7195 75.8599 86.4862C75.6079 86.2529 75.4073 85.9729 75.2579 85.6462C75.1179 85.3102 75.0479 84.9229 75.0479 84.4842C75.0479 84.0362 75.1179 83.6348 75.2579 83.2802C75.3979 82.9255 75.5986 82.6269 75.8599 82.3842C76.1306 82.1322 76.4479 81.9408 76.8119 81.8102C77.1853 81.6702 77.6053 81.6002 78.0719 81.6002H82.2579V91.5962H81.3059V87.3122H79.0659L75.7339 91.5962H74.5019L77.9179 87.2562ZM81.3059 86.5002V82.4122H78.2819C77.5819 82.4122 77.0266 82.5989 76.6159 82.9722C76.2053 83.3362 75.9999 83.8402 75.9999 84.4842C75.9999 85.1282 76.2053 85.6275 76.6159 85.9822C77.0266 86.3275 77.5819 86.5002 78.2819 86.5002H81.3059Z" fill="black"/>
<path d="M5.29228 109.792C4.50828 109.792 3.81761 109.652 3.22028 109.372C2.63228 109.083 2.14228 108.7 1.75028 108.224C1.35828 107.748 1.06428 107.198 0.86828 106.572C0.67228 105.947 0.57428 105.289 0.57428 104.598C0.57428 103.917 0.67228 103.264 0.86828 102.638C1.06428 102.004 1.35828 101.448 1.75028 100.972C2.14228 100.487 2.63228 100.104 3.22028 99.8242C3.81761 99.5348 4.50828 99.3902 5.29228 99.3902C6.07628 99.3902 6.76228 99.5348 7.35028 99.8242C7.93828 100.104 8.42828 100.487 8.82028 100.972C9.21228 101.448 9.50628 102.004 9.70228 102.638C9.89828 103.264 9.99628 103.917 9.99628 104.598C9.99628 105.289 9.89828 105.947 9.70228 106.572C9.50628 107.198 9.21228 107.748 8.82028 108.224C8.42828 108.7 7.93828 109.083 7.35028 109.372C6.76228 109.652 6.07628 109.792 5.29228 109.792ZM5.29228 108.994C5.94561 108.994 6.51028 108.868 6.98628 108.616C7.46228 108.364 7.84961 108.033 8.14828 107.622C8.45628 107.202 8.68028 106.731 8.82028 106.208C8.96961 105.686 9.04428 105.149 9.04428 104.598C9.04428 104.057 8.96961 103.525 8.82028 103.002C8.68028 102.47 8.45628 101.999 8.14828 101.588C7.84961 101.168 7.46228 100.832 6.98628 100.58C6.51028 100.328 5.94561 100.202 5.29228 100.202C4.62961 100.202 4.06028 100.328 3.58428 100.58C3.10828 100.832 2.71628 101.168 2.40828 101.588C2.10961 101.999 1.88561 102.47 1.73628 103.002C1.59628 103.525 1.52628 104.057 1.52628 104.598C1.52628 105.149 1.59628 105.686 1.73628 106.208C1.88561 106.731 2.10961 107.202 2.40828 107.622C2.71628 108.033 3.10828 108.364 3.58428 108.616C4.06028 108.868 4.62961 108.994 5.29228 108.994Z" fill="black"/>
<path d="M13.8912 100.412H10.4192V99.6002H18.3292V100.412H14.8432V109.596H13.8912V100.412Z" fill="black"/>
<path d="M1.10628 117.6H8.80628V127.596H7.85428V118.412L2.05828 118.412V127.596H1.10628L1.10628 117.6Z" fill="black"/>
<path d="M13.753 117.6H14.817L18.737 127.596H17.715L16.497 124.488H11.947L10.743 127.596H9.73498L13.753 117.6ZM16.175 123.676L14.243 118.552L12.241 123.676H16.175Z" fill="black"/>
<path d="M19.6453 117.6H24.0833C24.5313 117.6 24.9373 117.666 25.3013 117.796C25.6653 117.918 25.978 118.104 26.2393 118.356C26.5007 118.599 26.7013 118.898 26.8413 119.252C26.9813 119.607 27.0513 120.008 27.0513 120.456C27.0513 120.904 26.9813 121.306 26.8413 121.66C26.7013 122.015 26.5007 122.318 26.2393 122.57C25.978 122.813 25.6653 123 25.3013 123.13C24.9373 123.252 24.5313 123.312 24.0833 123.312H20.5973V127.596H19.6453V117.6ZM23.8733 122.5C24.536 122.5 25.0727 122.332 25.4833 121.996C25.894 121.66 26.0993 121.147 26.0993 120.456C26.0993 119.766 25.894 119.252 25.4833 118.916C25.0727 118.58 24.536 118.412 23.8733 118.412H20.5973V122.5H23.8733Z" fill="black"/>
<path d="M31.3897 117.6H32.4537L36.3737 127.596H35.3517L34.1337 124.488H29.5837L28.3797 127.596H27.3717L31.3897 117.6ZM33.8117 123.676L31.8797 118.552L29.8777 123.676H33.8117Z" fill="black"/>
<path d="M40.8101 127.806C40.1941 127.806 39.6387 127.732 39.1441 127.582C38.6494 127.424 38.2294 127.2 37.8841 126.91C37.5481 126.612 37.2867 126.252 37.1001 125.832C36.9227 125.403 36.8341 124.922 36.8341 124.39V124.306H37.7441C37.7441 125.23 38.0287 125.916 38.5981 126.364C39.1674 126.812 39.9281 127.036 40.8801 127.036C41.3001 127.036 41.6781 126.976 42.0141 126.854C42.3501 126.724 42.6301 126.551 42.8541 126.336C43.0874 126.122 43.2647 125.874 43.3861 125.594C43.5167 125.305 43.5821 125.002 43.5821 124.684C43.5821 124.395 43.5214 124.134 43.4001 123.9C43.2881 123.658 43.1294 123.452 42.9241 123.284C42.7187 123.116 42.4761 122.986 42.1961 122.892C41.9254 122.799 41.6314 122.752 41.3141 122.752H39.7181V121.94H41.3141C41.5754 121.94 41.8274 121.903 42.0701 121.828C42.3127 121.754 42.5274 121.646 42.7141 121.506C42.9007 121.357 43.0454 121.175 43.1481 120.96C43.2601 120.736 43.3161 120.48 43.3161 120.19C43.3161 119.845 43.2507 119.546 43.1201 119.294C42.9987 119.042 42.8307 118.837 42.6161 118.678C42.4014 118.51 42.1447 118.389 41.8461 118.314C41.5474 118.23 41.2301 118.188 40.8941 118.188C40.5021 118.188 40.1381 118.235 39.8021 118.328C39.4661 118.422 39.1721 118.566 38.9201 118.762C38.6774 118.949 38.4814 119.187 38.3321 119.476C38.1921 119.756 38.1081 120.083 38.0801 120.456H37.1561C37.1841 119.943 37.2914 119.495 37.4781 119.112C37.6741 118.73 37.9354 118.412 38.2621 118.16C38.5887 117.899 38.9714 117.708 39.4101 117.586C39.8581 117.456 40.3434 117.39 40.8661 117.39C41.3327 117.39 41.7714 117.446 42.1821 117.558C42.6021 117.661 42.9661 117.824 43.2741 118.048C43.5821 118.272 43.8247 118.557 44.0021 118.902C44.1794 119.238 44.2681 119.64 44.2681 120.106C44.2681 120.368 44.2261 120.615 44.1421 120.848C44.0581 121.072 43.9461 121.278 43.8061 121.464C43.6661 121.642 43.5074 121.796 43.3301 121.926C43.1527 122.057 42.9754 122.155 42.7981 122.22V122.262C43.3301 122.402 43.7501 122.673 44.0581 123.074C44.3754 123.466 44.5341 123.998 44.5341 124.67C44.5341 124.978 44.4687 125.314 44.3381 125.678C44.2167 126.042 44.0114 126.383 43.7221 126.7C43.4327 127.018 43.0501 127.284 42.5741 127.498C42.0981 127.704 41.5101 127.806 40.8101 127.806Z" fill="black"/>
<path d="M46.0594 117.6H47.0114V126.574L52.7514 117.6H53.9834V127.596H53.0314V118.622L47.2914 127.596H46.0594V117.6Z" fill="black"/>
<path d="M58.4069 118.412H54.9349V117.6H62.8449V118.412H59.3589V127.596H58.4069V118.412Z" fill="black"/>
<path d="M67.9642 127.792C67.1802 127.792 66.4895 127.652 65.8922 127.372C65.3042 127.083 64.8141 126.7 64.4221 126.224C64.0301 125.748 63.7362 125.198 63.5402 124.572C63.3442 123.947 63.2462 123.289 63.2462 122.598C63.2462 121.917 63.3442 121.264 63.5402 120.638C63.7362 120.004 64.0301 119.448 64.4221 118.972C64.8141 118.487 65.3042 118.104 65.8922 117.824C66.4895 117.535 67.1802 117.39 67.9642 117.39C68.7482 117.39 69.4342 117.535 70.0222 117.824C70.6102 118.104 71.1002 118.487 71.4922 118.972C71.8842 119.448 72.1782 120.004 72.3742 120.638C72.5702 121.264 72.6682 121.917 72.6682 122.598C72.6682 123.289 72.5702 123.947 72.3742 124.572C72.1782 125.198 71.8842 125.748 71.4922 126.224C71.1002 126.7 70.6102 127.083 70.0222 127.372C69.4342 127.652 68.7482 127.792 67.9642 127.792ZM67.9642 126.994C68.6175 126.994 69.1822 126.868 69.6582 126.616C70.1342 126.364 70.5215 126.033 70.8202 125.622C71.1282 125.202 71.3522 124.731 71.4922 124.208C71.6415 123.686 71.7162 123.149 71.7162 122.598C71.7162 122.057 71.6415 121.525 71.4922 121.002C71.3522 120.47 71.1282 119.999 70.8202 119.588C70.5215 119.168 70.1342 118.832 69.6582 118.58C69.1822 118.328 68.6175 118.202 67.9642 118.202C67.3015 118.202 66.7322 118.328 66.2562 118.58C65.7802 118.832 65.3882 119.168 65.0802 119.588C64.7815 119.999 64.5575 120.47 64.4082 121.002C64.2682 121.525 64.1982 122.057 64.1982 122.598C64.1982 123.149 64.2682 123.686 64.4082 124.208C64.5575 124.731 64.7815 125.202 65.0802 125.622C65.3882 126.033 65.7802 126.364 66.2562 126.616C66.7322 126.868 67.3015 126.994 67.9642 126.994Z" fill="black"/>
<path d="M74.1551 117.6H78.3831C78.8031 117.6 79.2044 117.642 79.5871 117.726C79.9791 117.801 80.3198 117.936 80.6091 118.132C80.9078 118.319 81.1458 118.571 81.3231 118.888C81.5004 119.196 81.5891 119.584 81.5891 120.05C81.5891 120.312 81.5471 120.568 81.4631 120.82C81.3791 121.063 81.2578 121.287 81.0991 121.492C80.9498 121.688 80.7678 121.856 80.5531 121.996C80.3478 122.136 80.1144 122.234 79.8531 122.29V122.318C80.4971 122.402 81.0104 122.668 81.3931 123.116C81.7758 123.555 81.9671 124.101 81.9671 124.754C81.9671 124.997 81.9298 125.282 81.8551 125.608C81.7898 125.926 81.6358 126.234 81.3931 126.532C81.1504 126.831 80.7911 127.083 80.3151 127.288C79.8391 127.494 79.1951 127.596 78.3831 127.596H74.1551V117.6ZM78.3831 126.784C78.7378 126.784 79.0738 126.756 79.3911 126.7C79.7084 126.635 79.9884 126.523 80.2311 126.364C80.4738 126.206 80.6651 125.996 80.8051 125.734C80.9451 125.473 81.0151 125.137 81.0151 124.726C81.0151 124.082 80.7864 123.602 80.3291 123.284C79.8811 122.958 79.2324 122.794 78.3831 122.794H75.1071V126.784H78.3831ZM78.3831 121.982C78.7564 121.982 79.0831 121.94 79.3631 121.856C79.6524 121.763 79.8904 121.642 80.0771 121.492C80.2638 121.334 80.4038 121.152 80.4971 120.946C80.5904 120.741 80.6371 120.522 80.6371 120.288C80.6371 119.038 79.8858 118.412 78.3831 118.412H75.1071V121.982H78.3831Z" fill="black"/>
<path d="M1.10628 135.6H8.00828V136.412L2.05828 136.412V140.024H7.63028V140.836H2.05828V144.784H8.07828V145.596H1.10628V135.6Z" fill="black"/>
<path d="M13.6471 145.792C12.8631 145.792 12.1724 145.652 11.5751 145.372C10.9871 145.083 10.4971 144.7 10.1051 144.224C9.71311 143.748 9.41911 143.198 9.22311 142.572C9.02711 141.947 8.92911 141.289 8.92911 140.598C8.92911 139.917 9.02711 139.264 9.22311 138.638C9.41911 138.004 9.71311 137.448 10.1051 136.972C10.4971 136.487 10.9871 136.104 11.5751 135.824C12.1724 135.535 12.8631 135.39 13.6471 135.39C14.1231 135.39 14.5851 135.46 15.0331 135.6C15.4904 135.74 15.9011 135.95 16.2651 136.23C16.6384 136.501 16.9464 136.837 17.1891 137.238C17.4411 137.64 17.5998 138.102 17.6651 138.624H16.7131C16.6291 138.242 16.4891 137.901 16.2931 137.602C16.1064 137.294 15.8731 137.038 15.5931 136.832C15.3224 136.627 15.0191 136.473 14.6831 136.37C14.3564 136.258 14.0111 136.202 13.6471 136.202C12.9844 136.202 12.4151 136.328 11.9391 136.58C11.4631 136.832 11.0711 137.168 10.7631 137.588C10.4644 137.999 10.2404 138.47 10.0911 139.002C9.95111 139.525 9.88111 140.057 9.88111 140.598C9.88111 141.149 9.95111 141.686 10.0911 142.208C10.2404 142.731 10.4644 143.202 10.7631 143.622C11.0711 144.033 11.4631 144.364 11.9391 144.616C12.4151 144.868 12.9844 144.994 13.6471 144.994C14.1044 144.994 14.5198 144.91 14.8931 144.742C15.2758 144.574 15.6024 144.346 15.8731 144.056C16.1438 143.767 16.3631 143.431 16.5311 143.048C16.6991 142.656 16.8064 142.236 16.8531 141.788H17.8051C17.7398 142.404 17.5951 142.96 17.3711 143.454C17.1471 143.949 16.8578 144.369 16.5031 144.714C16.1484 145.06 15.7284 145.326 15.2431 145.512C14.7671 145.699 14.2351 145.792 13.6471 145.792Z" fill="black"/>
<path d="M19.0105 145.68C18.9545 145.68 18.8845 145.676 18.8005 145.666C18.7259 145.657 18.6465 145.648 18.5625 145.638C18.4785 145.629 18.4039 145.615 18.3385 145.596C18.2732 145.587 18.2265 145.578 18.1985 145.568V144.756C18.2732 144.794 18.3852 144.822 18.5345 144.84C18.6932 144.85 18.8099 144.854 18.8845 144.854C18.9872 144.854 19.1085 144.845 19.2485 144.826C19.3885 144.798 19.5332 144.714 19.6825 144.574C19.8412 144.425 19.9952 144.196 20.1445 143.888C20.3032 143.571 20.4385 143.123 20.5505 142.544C20.6719 141.956 20.7699 141.214 20.8445 140.318C20.9192 139.422 20.9565 138.321 20.9565 137.014V135.6H27.1025V145.596H26.1505V136.412H21.8805V136.958C21.8805 138.414 21.8339 139.642 21.7405 140.64C21.6472 141.63 21.5212 142.451 21.3625 143.104C21.2039 143.748 21.0219 144.248 20.8165 144.602C20.6205 144.948 20.4152 145.2 20.2005 145.358C19.9952 145.517 19.7852 145.61 19.5705 145.638C19.3652 145.666 19.1785 145.68 19.0105 145.68Z" fill="black"/>
<path d="M29.12 135.6H30.072V144.574L35.812 135.6H37.044V145.596H36.092V136.622L30.352 145.596H29.12V135.6Z" fill="black"/>
<path d="M39.4794 145.596V144.364H40.5014V145.596H39.4794Z" fill="black"/>
<path d="M43.3759 145.596V144.364H44.3979V145.596H43.3759Z" fill="black"/>
<path d="M47.2724 145.596V144.364H48.2944V145.596H47.2724Z" fill="black"/>
<path d="M1.03661 11L1.03661 0.919991L7.53261 0.919991V1.73199H1.98861V5.37199H7.02861V6.18399H1.98861L1.98861 11H1.03661Z" fill="black"/>
<path d="M9.24991 11V0.919991H10.2019V11H9.24991Z" fill="black"/>
<path d="M16.7164 5.60999C17.0711 5.60999 17.3977 5.57266 17.6964 5.49799C18.0044 5.42332 18.2704 5.30666 18.4944 5.14799C18.7184 4.97999 18.8957 4.76999 19.0264 4.51799C19.1571 4.26599 19.2224 3.96266 19.2224 3.60799C19.2224 3.23466 19.1524 2.92666 19.0124 2.68399C18.8817 2.44132 18.6997 2.24999 18.4664 2.10999C18.2424 1.96999 17.9811 1.87199 17.6824 1.81599C17.3931 1.75999 17.0897 1.73199 16.7724 1.73199H13.7484V5.60999H16.7164ZM13.7484 6.42199V11H12.7964V0.919991L16.7444 0.919991C17.8551 0.919991 18.7044 1.12999 19.2924 1.54999C19.8804 1.96066 20.1744 2.63266 20.1744 3.56599C20.1744 4.20066 20.0437 4.70466 19.7824 5.07799C19.5304 5.45132 19.1151 5.76866 18.5364 6.02999C18.8351 6.13266 19.0684 6.28199 19.2364 6.47799C19.4044 6.67399 19.5304 6.89799 19.6144 7.14999C19.6984 7.40199 19.7497 7.66799 19.7684 7.94799C19.7964 8.22799 19.8151 8.49866 19.8244 8.75999C19.8337 9.14266 19.8477 9.45999 19.8664 9.71199C19.8944 9.96399 19.9224 10.1693 19.9504 10.328C19.9877 10.4867 20.0297 10.6127 20.0764 10.706C20.1231 10.79 20.1791 10.8553 20.2444 10.902V11H19.1944C19.0917 10.832 19.0171 10.5987 18.9704 10.3C18.9331 10.0013 18.9004 9.68866 18.8724 9.36199C18.8537 9.03533 18.8351 8.71799 18.8164 8.40999C18.8071 8.10199 18.7837 7.84999 18.7464 7.65399C18.6904 7.38332 18.5971 7.16866 18.4664 7.00999C18.3451 6.84199 18.1957 6.71599 18.0184 6.63199C17.8411 6.54799 17.6404 6.49199 17.4164 6.46399C17.2017 6.43599 16.9777 6.42199 16.7444 6.42199H13.7484Z" fill="black"/>
<path d="M22.1483 11V0.919991L28.8543 0.919991V1.73199H23.1003V5.37199H28.2943V6.18399H23.1003V10.188L28.9943 10.188V11H22.1483Z" fill="black"/>
<path d="M31.0009 11V9.76799H32.0229V11H31.0009Z" fill="black"/>
<path d="M34.5614 11V0.919991L38.2434 0.919991C38.8967 0.919991 39.4334 0.994658 39.8534 1.14399C40.2827 1.29332 40.6187 1.49866 40.8614 1.75999C41.1134 2.02132 41.286 2.32466 41.3794 2.66999C41.482 3.00599 41.5334 3.36066 41.5334 3.73399C41.5334 4.29399 41.4167 4.75599 41.1834 5.11999C40.9594 5.48399 40.6654 5.77333 40.3014 5.98799C39.9374 6.19332 39.522 6.33799 39.0554 6.42199C38.598 6.50599 38.136 6.54799 37.6694 6.54799H35.5134V11H34.5614ZM37.6974 5.73599C38.1454 5.73599 38.5467 5.70799 38.9014 5.65199C39.256 5.59599 39.5547 5.49333 39.7974 5.34399C40.0494 5.18532 40.2407 4.97532 40.3714 4.71399C40.5114 4.44332 40.5814 4.09332 40.5814 3.66399C40.5814 3.02932 40.3714 2.54866 39.9514 2.22199C39.5407 1.89532 38.8827 1.73199 37.9774 1.73199H35.5134V5.73599H37.6974Z" fill="black"/>
<path d="M47.068 5.60999C47.4226 5.60999 47.7493 5.57266 48.048 5.49799C48.356 5.42332 48.622 5.30666 48.846 5.14799C49.07 4.97999 49.2473 4.76999 49.378 4.51799C49.5086 4.26599 49.574 3.96266 49.574 3.60799C49.574 3.23466 49.504 2.92666 49.364 2.68399C49.2333 2.44132 49.0513 2.24999 48.818 2.10999C48.594 1.96999 48.3326 1.87199 48.034 1.81599C47.7446 1.75999 47.4413 1.73199 47.124 1.73199L44.1 1.73199V5.60999H47.068ZM44.1 6.42199V11H43.148V0.919991L47.096 0.919991C48.2066 0.919991 49.056 1.12999 49.644 1.54999C50.232 1.96066 50.526 2.63266 50.526 3.56599C50.526 4.20066 50.3953 4.70466 50.134 5.07799C49.882 5.45133 49.4666 5.76866 48.888 6.02999C49.1866 6.13266 49.42 6.28199 49.588 6.47799C49.756 6.67399 49.882 6.89799 49.966 7.14999C50.05 7.40199 50.1013 7.66799 50.12 7.94799C50.148 8.22799 50.1666 8.49866 50.176 8.75999C50.1853 9.14266 50.1993 9.45999 50.218 9.71199C50.246 9.96399 50.274 10.1693 50.302 10.328C50.3393 10.4867 50.3813 10.6127 50.428 10.706C50.4746 10.79 50.5306 10.8553 50.596 10.902V11H49.546C49.4433 10.832 49.3686 10.5987 49.322 10.3C49.2846 10.0013 49.252 9.68866 49.224 9.36199C49.2053 9.03533 49.1866 8.71799 49.168 8.40999C49.1586 8.10199 49.1353 7.84999 49.098 7.65399C49.042 7.38333 48.9486 7.16866 48.818 7.00999C48.6966 6.84199 48.5473 6.71599 48.37 6.63199C48.1926 6.54799 47.992 6.49199 47.768 6.46399C47.5533 6.43599 47.3293 6.42199 47.096 6.42199H44.1Z" fill="black"/>
<path d="M52.4998 11V0.919991L59.2058 0.919992V1.73199L53.4518 1.73199V5.37199H58.6458V6.18399H53.4518V10.188H59.3458V11H52.4998Z" fill="black"/>
<path d="M61.4504 7.98999C61.4878 8.43799 61.5858 8.82066 61.7444 9.13799C61.9124 9.44599 62.1224 9.69799 62.3744 9.89399C62.6358 10.09 62.9344 10.2347 63.2704 10.328C63.6064 10.412 63.9658 10.454 64.3484 10.454C64.7964 10.454 65.1838 10.398 65.5104 10.286C65.8371 10.174 66.1031 10.0247 66.3084 9.83799C66.5138 9.64199 66.6631 9.41799 66.7564 9.16599C66.8591 8.91399 66.9104 8.64799 66.9104 8.36799C66.9104 7.97599 66.8218 7.65866 66.6444 7.41599C66.4671 7.17333 66.2338 6.97733 65.9444 6.82799C65.6644 6.66933 65.3378 6.54332 64.9644 6.44999C64.6004 6.35666 64.2224 6.26799 63.8304 6.18399C63.4478 6.09066 63.0698 5.98333 62.6964 5.86199C62.3324 5.74066 62.0058 5.57732 61.7164 5.37199C61.4364 5.16666 61.2078 4.90532 61.0304 4.58799C60.8531 4.26132 60.7644 3.85066 60.7644 3.35599C60.7644 3.01066 60.8344 2.67466 60.9744 2.34799C61.1238 2.02132 61.3384 1.73199 61.6184 1.47999C61.9078 1.22799 62.2671 1.02732 62.6964 0.877991C63.1258 0.728658 63.6204 0.653992 64.1804 0.653992C64.7498 0.653992 65.2444 0.733325 65.6644 0.891991C66.0938 1.05066 66.4484 1.26999 66.7284 1.54999C67.0084 1.82066 67.2184 2.13799 67.3584 2.50199C67.4984 2.86599 67.5684 3.25333 67.5684 3.66399H66.6584C66.6584 3.28133 66.5884 2.94999 66.4484 2.66999C66.3178 2.38999 66.1358 2.16133 65.9024 1.98399C65.6691 1.80666 65.4031 1.67599 65.1044 1.59199C64.8058 1.50799 64.4978 1.46599 64.1804 1.46599C63.6951 1.46599 63.2844 1.53599 62.9484 1.67599C62.6218 1.80666 62.3604 1.97933 62.1644 2.19399C61.9684 2.40866 61.8331 2.64666 61.7584 2.90799C61.6838 3.16933 61.6698 3.43066 61.7164 3.69199C61.7724 4.01866 61.9031 4.27999 62.1084 4.47599C62.3138 4.67199 62.5658 4.83532 62.8644 4.96599C63.1631 5.08732 63.4898 5.18999 63.8444 5.27399C64.2084 5.34866 64.5771 5.43266 64.9504 5.52599C65.3238 5.60999 65.6831 5.71266 66.0284 5.83399C66.3831 5.95533 66.6958 6.11866 66.9664 6.32399C67.2371 6.52933 67.4518 6.79533 67.6104 7.12199C67.7784 7.43933 67.8624 7.84066 67.8624 8.32599C67.8624 9.25933 67.5404 9.98266 66.8964 10.496C66.2524 11.0093 65.3471 11.266 64.1804 11.266C63.6578 11.266 63.1724 11.196 62.7244 11.056C62.2764 10.9253 61.8891 10.7247 61.5624 10.454C61.2358 10.174 60.9791 9.83332 60.7924 9.43199C60.6151 9.02132 60.5264 8.54066 60.5264 7.98999H61.4504Z" fill="black"/>
<path d="M70.009 7.98999C70.0464 8.43799 70.1444 8.82066 70.303 9.13799C70.471 9.44599 70.681 9.69799 70.933 9.89399C71.1944 10.09 71.493 10.2347 71.829 10.328C72.165 10.412 72.5244 10.454 72.907 10.454C73.355 10.454 73.7424 10.398 74.069 10.286C74.3957 10.174 74.6617 10.0247 74.867 9.83799C75.0724 9.64199 75.2217 9.41799 75.315 9.16599C75.4177 8.91399 75.469 8.64799 75.469 8.36799C75.469 7.97599 75.3804 7.65866 75.203 7.41599C75.0257 7.17333 74.7924 6.97733 74.503 6.82799C74.223 6.66933 73.8964 6.54332 73.523 6.44999C73.159 6.35666 72.781 6.26799 72.389 6.18399C72.0064 6.09066 71.6284 5.98333 71.255 5.86199C70.891 5.74066 70.5644 5.57733 70.275 5.37199C69.995 5.16666 69.7664 4.90532 69.589 4.58799C69.4117 4.26132 69.323 3.85066 69.323 3.35599C69.323 3.01066 69.393 2.67466 69.533 2.34799C69.6824 2.02132 69.897 1.73199 70.177 1.47999C70.4664 1.22799 70.8257 1.02733 71.255 0.877991C71.6844 0.728658 72.179 0.653992 72.739 0.653992C73.3084 0.653992 73.803 0.733325 74.223 0.891991C74.6524 1.05066 75.007 1.26999 75.287 1.54999C75.567 1.82066 75.777 2.13799 75.917 2.50199C76.057 2.86599 76.127 3.25333 76.127 3.66399H75.217C75.217 3.28133 75.147 2.94999 75.007 2.66999C74.8764 2.38999 74.6944 2.16133 74.461 1.98399C74.2277 1.80666 73.9617 1.67599 73.663 1.59199C73.3644 1.50799 73.0564 1.46599 72.739 1.46599C72.2537 1.46599 71.843 1.53599 71.507 1.67599C71.1804 1.80666 70.919 1.97933 70.723 2.19399C70.527 2.40866 70.3917 2.64666 70.317 2.90799C70.2424 3.16933 70.2284 3.43066 70.275 3.69199C70.331 4.01866 70.4617 4.27999 70.667 4.47599C70.8724 4.67199 71.1244 4.83533 71.423 4.96599C71.7217 5.08733 72.0484 5.18999 72.403 5.27399C72.767 5.34866 73.1357 5.43266 73.509 5.52599C73.8824 5.60999 74.2417 5.71266 74.587 5.83399C74.9417 5.95533 75.2544 6.11866 75.525 6.32399C75.7957 6.52933 76.0104 6.79533 76.169 7.12199C76.337 7.43933 76.421 7.84066 76.421 8.32599C76.421 9.25933 76.099 9.98266 75.455 10.496C74.811 11.0093 73.9057 11.266 72.739 11.266C72.2164 11.266 71.731 11.196 71.283 11.056C70.835 10.9253 70.4477 10.7247 70.121 10.454C69.7944 10.174 69.5377 9.83332 69.351 9.43199C69.1737 9.02132 69.085 8.54066 69.085 7.98999H70.009Z" fill="black"/>
<path d="M0.224609 18.92H7.56061V19.732H4.36861V29L3.41661 29L3.41661 19.732H0.224609L0.224609 18.92Z" fill="black"/>
<path d="M13.1979 24.604V23.792H17.5099V29H16.6979V27.278C16.5206 27.5767 16.3152 27.852 16.0819 28.104C15.8579 28.3467 15.5966 28.5567 15.2979 28.734C14.9992 28.902 14.6539 29.0327 14.2619 29.126C13.8699 29.2193 13.4266 29.266 12.9319 29.266C12.2972 29.266 11.7092 29.154 11.1679 28.93C10.6266 28.706 10.1599 28.3747 9.76791 27.936C9.37591 27.488 9.06791 26.928 8.84391 26.256C8.62924 25.584 8.52191 24.8 8.52191 23.904C8.52191 23.1667 8.61524 22.4807 8.80191 21.846C8.98857 21.202 9.27324 20.6467 9.65591 20.18C10.0479 19.704 10.5332 19.3307 11.1119 19.06C11.6999 18.7893 12.3906 18.654 13.1839 18.654C13.7159 18.654 14.2106 18.7193 14.6679 18.85C15.1346 18.9807 15.5499 19.1813 15.9139 19.452C16.2872 19.7133 16.5999 20.0447 16.8519 20.446C17.1039 20.838 17.2859 21.3047 17.3979 21.846H16.4179C16.3339 21.4727 16.1892 21.1367 15.9839 20.838C15.7879 20.5393 15.5499 20.292 15.2699 20.096C14.9899 19.8907 14.6772 19.7367 14.3319 19.634C13.9866 19.522 13.6272 19.466 13.2539 19.466C12.5912 19.466 12.0219 19.5827 11.5459 19.816C11.0699 20.0493 10.6779 20.3807 10.3699 20.81C10.0619 21.23 9.83324 21.7387 9.68391 22.336C9.54391 22.924 9.47391 23.5727 9.47391 24.282C9.47391 24.842 9.55324 25.374 9.71191 25.878C9.87991 26.382 10.1179 26.8253 10.4259 27.208C10.7432 27.5907 11.1259 27.894 11.5739 28.118C12.0312 28.342 12.5492 28.454 13.1279 28.454C13.3986 28.454 13.6786 28.426 13.9679 28.37C14.2572 28.3047 14.5372 28.202 14.8079 28.062C15.0786 27.922 15.3306 27.74 15.5639 27.516C15.7972 27.292 15.9979 27.0167 16.1659 26.69C16.3246 26.3727 16.4319 26.0413 16.4879 25.696C16.5532 25.3507 16.5906 24.9867 16.5999 24.604H13.1979Z" fill="black"/>
<path d="M20.1044 29V27.768H21.1264V29H20.1044ZM20.1044 23.344V22.112H21.1264V23.344H20.1044Z" fill="black"/>
<path d="M26.4789 24.17C26.1335 24.17 25.8162 24.212 25.5269 24.296C25.2375 24.38 24.9855 24.5107 24.7709 24.688C24.5562 24.856 24.3882 25.0753 24.2669 25.346C24.1455 25.6073 24.0849 25.92 24.0849 26.284C24.0849 26.592 24.1409 26.8767 24.2529 27.138C24.3742 27.3993 24.5375 27.628 24.7429 27.824C24.9575 28.0107 25.2142 28.16 25.5129 28.272C25.8209 28.384 26.1615 28.44 26.5349 28.44C26.8615 28.44 27.1649 28.3887 27.4449 28.286C27.7249 28.174 27.9675 28.02 28.1729 27.824C28.3875 27.628 28.5509 27.3947 28.6629 27.124C28.7842 26.8533 28.8449 26.5547 28.8449 26.228C28.8449 25.8827 28.7842 25.584 28.6629 25.332C28.5415 25.0707 28.3735 24.856 28.1589 24.688C27.9442 24.5107 27.6922 24.38 27.4029 24.296C27.1135 24.212 26.8055 24.17 26.4789 24.17ZM26.4369 19.886C26.1569 19.886 25.8955 19.9233 25.6529 19.998C25.4102 20.0727 25.1955 20.1847 25.0089 20.334C24.8315 20.4833 24.6915 20.67 24.5889 20.894C24.4862 21.118 24.4349 21.3747 24.4349 21.664C24.4349 21.972 24.4909 22.238 24.6029 22.462C24.7242 22.6767 24.8829 22.854 25.0789 22.994C25.2749 23.134 25.4989 23.2413 25.7509 23.316C26.0029 23.3813 26.2642 23.414 26.5349 23.414C26.8055 23.414 27.0575 23.3813 27.2909 23.316C27.5242 23.2413 27.7249 23.1247 27.8929 22.966C28.0609 22.8073 28.1915 22.6067 28.2849 22.364C28.3875 22.1213 28.4389 21.8227 28.4389 21.468C28.4389 20.964 28.2755 20.5767 27.9489 20.306C27.6222 20.026 27.1182 19.886 26.4369 19.886ZM24.9109 23.694C24.6682 23.5447 24.4582 23.4047 24.2809 23.274C24.1129 23.134 23.9729 22.9847 23.8609 22.826C23.7489 22.6673 23.6649 22.49 23.6089 22.294C23.5622 22.0887 23.5389 21.8367 23.5389 21.538C23.5389 21.202 23.6135 20.8847 23.7629 20.586C23.9122 20.2873 24.1129 20.0307 24.3649 19.816C24.6169 19.592 24.9109 19.4193 25.2469 19.298C25.5922 19.1767 25.9609 19.1207 26.3529 19.13C26.7262 19.13 27.0902 19.1767 27.4449 19.27C27.8089 19.3633 28.1309 19.508 28.4109 19.704C28.6909 19.9 28.9149 20.152 29.0829 20.46C29.2509 20.7587 29.3349 21.118 29.3349 21.538C29.3349 22.0513 29.2275 22.49 29.0129 22.854C28.8075 23.218 28.4669 23.5167 27.9909 23.75C28.5322 23.946 28.9569 24.2587 29.2649 24.688C29.5822 25.1173 29.7409 25.6213 29.7409 26.2C29.7409 26.6853 29.6569 27.1147 29.4889 27.488C29.3302 27.8613 29.0969 28.174 28.7889 28.426C28.4902 28.678 28.1262 28.8693 27.6969 29C27.2675 29.1307 26.7915 29.196 26.2689 29.196C25.9142 29.196 25.5502 29.1353 25.1769 29.014C24.8129 28.8927 24.4815 28.7107 24.1829 28.468C23.8935 28.2253 23.6555 27.922 23.4689 27.558C23.2822 27.194 23.1889 26.7693 23.1889 26.284C23.1889 25.696 23.3335 25.1733 23.6229 24.716C23.9215 24.2493 24.3509 23.9087 24.9109 23.694Z" fill="black"/>
<path d="M32.4382 20.208H32.4102V29H31.4582V18.92H32.5362L38.3602 27.726H38.3882V18.92H39.3402V29H38.2342L32.4382 20.208Z" fill="black"/>
</svg>
