<svg width="83" height="112" viewBox="0 0 83 112" fill="none" xmlns="http://www.w3.org/2000/svg">
<path d="M1.00856 1.00401H1.96056V10.188H6.69256V1.00401L7.64456 1.00401V10.188H12.3766V1.00401L13.3286 1.00401V11H1.00856L1.00856 1.00401Z" fill="black"/>
<path d="M19.5364 11.196C18.7524 11.196 18.0617 11.056 17.4644 10.776C16.8764 10.4867 16.3864 10.104 15.9944 9.62801C15.6024 9.15201 15.3084 8.60134 15.1124 7.97601C14.9164 7.35067 14.8184 6.69267 14.8184 6.00201C14.8184 5.32067 14.9164 4.66734 15.1124 4.04201C15.3084 3.40734 15.6024 2.85201 15.9944 2.37601C16.3864 1.89067 16.8764 1.50801 17.4644 1.22801C18.0617 0.938673 18.7524 0.794006 19.5364 0.794006C20.3204 0.794006 21.0064 0.938673 21.5944 1.22801C22.1824 1.50801 22.6724 1.89067 23.0644 2.37601C23.4564 2.85201 23.7504 3.40734 23.9464 4.04201C24.1424 4.66734 24.2404 5.32067 24.2404 6.00201C24.2404 6.69267 24.1424 7.35067 23.9464 7.97601C23.7504 8.60134 23.4564 9.15201 23.0644 9.62801C22.6724 10.104 22.1824 10.4867 21.5944 10.776C21.0064 11.056 20.3204 11.196 19.5364 11.196ZM19.5364 10.398C20.1897 10.398 20.7544 10.272 21.2304 10.02C21.7064 9.76801 22.0937 9.43667 22.3924 9.02601C22.7004 8.60601 22.9244 8.13467 23.0644 7.61201C23.2137 7.08934 23.2884 6.55267 23.2884 6.00201C23.2884 5.46067 23.2137 4.92867 23.0644 4.40601C22.9244 3.87401 22.7004 3.40267 22.3924 2.99201C22.0937 2.57201 21.7064 2.23601 21.2304 1.98401C20.7544 1.73201 20.1897 1.60601 19.5364 1.60601C18.8737 1.60601 18.3044 1.73201 17.8284 1.98401C17.3524 2.23601 16.9604 2.57201 16.6524 2.99201C16.3537 3.40267 16.1297 3.87401 15.9804 4.40601C15.8404 4.92867 15.7704 5.46067 15.7704 6.00201C15.7704 6.55267 15.8404 7.08934 15.9804 7.61201C16.1297 8.13467 16.3537 8.60601 16.6524 9.02601C16.9604 9.43667 17.3524 9.76801 17.8284 10.02C18.3044 10.272 18.8737 10.398 19.5364 10.398Z" fill="black"/>
<path d="M25.7273 1.00401L26.6793 1.00401V6.38001L32.4893 1.00401H33.7773L29.3113 5.13401L33.9873 11H32.7553L28.5973 5.79201L26.6793 7.57001V11H25.7273V1.00401Z" fill="black"/>
<path d="M35.6174 4.05601V0.920007H36.6394V4.05601L36.4434 8.46601H35.8134L35.6174 4.05601ZM35.6174 11V9.76801H36.6394V11H35.6174Z" fill="black"/>
<path d="M5.19456 31.196C4.41056 31.196 3.7199 31.056 3.12256 30.776C2.53456 30.4867 2.04456 30.104 1.65256 29.628C1.26056 29.152 0.966563 28.6013 0.770563 27.976C0.574563 27.3507 0.476563 26.6927 0.476562 26.002C0.476562 25.3207 0.574562 24.6673 0.770562 24.042C0.966563 23.4073 1.26056 22.852 1.65256 22.376C2.04456 21.8907 2.53456 21.508 3.12256 21.228C3.7199 20.9387 4.41056 20.794 5.19456 20.794C5.97856 20.794 6.66456 20.9387 7.25256 21.228C7.84056 21.508 8.33056 21.8907 8.72256 22.376C9.11456 22.852 9.40856 23.4073 9.60456 24.042C9.80056 24.6673 9.89856 25.3207 9.89856 26.002C9.89856 26.6927 9.80056 27.3507 9.60456 27.976C9.40856 28.6013 9.11456 29.152 8.72256 29.628C8.33056 30.104 7.84056 30.4867 7.25256 30.776C6.66456 31.056 5.97856 31.196 5.19456 31.196ZM5.19456 30.398C5.8479 30.398 6.41256 30.272 6.88856 30.02C7.36456 29.768 7.7519 29.4367 8.05056 29.026C8.35856 28.606 8.58256 28.1347 8.72256 27.612C8.8719 27.0893 8.94656 26.5527 8.94656 26.002C8.94656 25.4607 8.8719 24.9287 8.72256 24.406C8.58256 23.874 8.35856 23.4027 8.05056 22.992C7.7519 22.572 7.36456 22.236 6.88856 21.984C6.41256 21.732 5.8479 21.606 5.19456 21.606C4.5319 21.606 3.96256 21.732 3.48656 21.984C3.01056 22.236 2.61856 22.572 2.31056 22.992C2.0119 23.4027 1.7879 23.874 1.63856 24.406C1.49856 24.9287 1.42856 25.4607 1.42856 26.002C1.42856 26.5527 1.49856 27.0893 1.63856 27.612C1.7879 28.1347 2.0119 28.606 2.31056 29.026C2.61856 29.4367 3.01056 29.768 3.48656 30.02C3.96256 30.272 4.5319 30.398 5.19456 30.398Z" fill="black"/>
<path d="M11.3855 21.004H15.8235C16.2715 21.004 16.6775 21.0693 17.0415 21.2C17.4055 21.3213 17.7182 21.508 17.9795 21.76C18.2409 22.0027 18.4415 22.3013 18.5815 22.656C18.7215 23.0107 18.7915 23.412 18.7915 23.86C18.7915 24.308 18.7215 24.7093 18.5815 25.064C18.4415 25.4187 18.2409 25.722 17.9795 25.974C17.7182 26.2167 17.4055 26.4033 17.0415 26.534C16.6775 26.6553 16.2715 26.716 15.8235 26.716H12.3375V31H11.3855L11.3855 21.004ZM15.6135 25.904C16.2762 25.904 16.8128 25.736 17.2235 25.4C17.6342 25.064 17.8395 24.5507 17.8395 23.86C17.8395 23.1693 17.6342 22.656 17.2235 22.32C16.8128 21.984 16.2762 21.816 15.6135 21.816H12.3375V25.904H15.6135Z" fill="black"/>
<path d="M20.2879 21.004H26.4619V21.816H21.2399V31H20.2879V21.004Z" fill="black"/>
<path d="M30.3213 21.004H31.3853L35.3053 31H34.2833L33.0653 27.892H28.5153L27.3113 31H26.3033L30.3213 21.004ZM32.7433 27.08L30.8113 21.956L28.8093 27.08H32.7433Z" fill="black"/>
<path d="M36.2136 21.004H37.1656V25.344H43.1016V21.004L44.0536 21.004V31H43.1016V26.156H37.1656V31H36.2136V21.004Z" fill="black"/>
<path d="M46.0711 21.004H47.0231V29.978L52.7631 21.004H53.9951V31H53.0431V22.026L47.3031 31H46.0711V21.004Z" fill="black"/>
<path d="M59.5385 31.21C58.9225 31.21 58.3672 31.1353 57.8725 30.986C57.3778 30.8273 56.9578 30.6033 56.6125 30.314C56.2765 30.0153 56.0152 29.656 55.8285 29.236C55.6512 28.8067 55.5625 28.326 55.5625 27.794V27.71H56.4725C56.4725 28.634 56.7572 29.32 57.3265 29.768C57.8958 30.216 58.6565 30.44 59.6085 30.44C60.0285 30.44 60.4065 30.3793 60.7425 30.258C61.0785 30.1273 61.3585 29.9547 61.5825 29.74C61.8158 29.5253 61.9932 29.278 62.1145 28.998C62.2452 28.7087 62.3105 28.4053 62.3105 28.088C62.3105 27.7987 62.2499 27.5373 62.1285 27.304C62.0165 27.0613 61.8578 26.856 61.6525 26.688C61.4472 26.52 61.2045 26.3893 60.9245 26.296C60.6538 26.2027 60.3598 26.156 60.0425 26.156H58.4465V25.344H60.0425C60.3038 25.344 60.5558 25.3067 60.7985 25.232C61.0412 25.1573 61.2558 25.05 61.4425 24.91C61.6292 24.7607 61.7738 24.5787 61.8765 24.364C61.9885 24.14 62.0445 23.8833 62.0445 23.594C62.0445 23.2487 61.9792 22.95 61.8485 22.698C61.7272 22.446 61.5592 22.2407 61.3445 22.082C61.1299 21.914 60.8732 21.7927 60.5745 21.718C60.2758 21.634 59.9585 21.592 59.6225 21.592C59.2305 21.592 58.8665 21.6387 58.5305 21.732C58.1945 21.8253 57.9005 21.97 57.6485 22.166C57.4059 22.3527 57.2098 22.5907 57.0605 22.88C56.9205 23.16 56.8365 23.4867 56.8085 23.86H55.8845C55.9125 23.3467 56.0198 22.8987 56.2065 22.516C56.4025 22.1333 56.6639 21.816 56.9905 21.564C57.3172 21.3027 57.6998 21.1113 58.1385 20.99C58.5865 20.8593 59.0719 20.794 59.5945 20.794C60.0612 20.794 60.4998 20.85 60.9105 20.962C61.3305 21.0647 61.6945 21.228 62.0025 21.452C62.3105 21.676 62.5532 21.9607 62.7305 22.306C62.9078 22.642 62.9965 23.0433 62.9965 23.51C62.9965 23.7713 62.9545 24.0187 62.8705 24.252C62.7865 24.476 62.6745 24.6813 62.5345 24.868C62.3945 25.0453 62.2359 25.1993 62.0585 25.33C61.8812 25.4607 61.7038 25.5587 61.5265 25.624V25.666C62.0585 25.806 62.4785 26.0767 62.7865 26.478C63.1039 26.87 63.2625 27.402 63.2625 28.074C63.2625 28.382 63.1972 28.718 63.0665 29.082C62.9452 29.446 62.7398 29.7867 62.4505 30.104C62.1612 30.4213 61.7785 30.6873 61.3025 30.902C60.8265 31.1073 60.2385 31.21 59.5385 31.21Z" fill="black"/>
<path d="M64.7599 21.004H66.1599L69.6179 29.768L73.0619 21.004H74.4619V31H73.5099V22.362H73.4819L70.0659 31H69.1699L65.7399 22.362H65.7119V31H64.7599V21.004Z" fill="black"/>
<path d="M5.19456 51.196C4.41056 51.196 3.7199 51.056 3.12256 50.776C2.53456 50.4867 2.04456 50.104 1.65256 49.628C1.26056 49.152 0.966563 48.6013 0.770563 47.976C0.574563 47.3507 0.476563 46.6927 0.476563 46.002C0.476563 45.3207 0.574563 44.6673 0.770563 44.042C0.966563 43.4073 1.26056 42.852 1.65256 42.376C2.04456 41.8907 2.53456 41.508 3.12256 41.228C3.7199 40.9387 4.41056 40.794 5.19456 40.794C5.97856 40.794 6.66456 40.9387 7.25256 41.228C7.84056 41.508 8.33056 41.8907 8.72256 42.376C9.11456 42.852 9.40856 43.4073 9.60456 44.042C9.80056 44.6673 9.89856 45.3207 9.89856 46.002C9.89856 46.6927 9.80056 47.3507 9.60456 47.976C9.40856 48.6013 9.11456 49.152 8.72256 49.628C8.33056 50.104 7.84056 50.4867 7.25256 50.776C6.66456 51.056 5.97856 51.196 5.19456 51.196ZM5.19456 50.398C5.8479 50.398 6.41256 50.272 6.88856 50.02C7.36456 49.768 7.7519 49.4367 8.05056 49.026C8.35856 48.606 8.58256 48.1347 8.72256 47.612C8.8719 47.0893 8.94656 46.5527 8.94656 46.002C8.94656 45.4607 8.8719 44.9287 8.72256 44.406C8.58256 43.874 8.35856 43.4027 8.05056 42.992C7.7519 42.572 7.36456 42.236 6.88856 41.984C6.41256 41.732 5.8479 41.606 5.19456 41.606C4.5319 41.606 3.96256 41.732 3.48656 41.984C3.01056 42.236 2.61856 42.572 2.31056 42.992C2.0119 43.4027 1.7879 43.874 1.63856 44.406C1.49856 44.9287 1.42856 45.4607 1.42856 46.002C1.42856 46.5527 1.49856 47.0893 1.63856 47.612C1.7879 48.1347 2.0119 48.606 2.31056 49.026C2.61856 49.4367 3.01056 49.768 3.48656 50.02C3.96256 50.272 4.5319 50.398 5.19456 50.398Z" fill="black"/>
<path d="M17.2375 46.45C17.0975 46.4873 16.9015 46.5293 16.6495 46.576C16.3975 46.6227 16.1222 46.6693 15.8235 46.716C15.5342 46.7533 15.2402 46.7907 14.9415 46.828C14.6522 46.856 14.3955 46.87 14.1715 46.87C13.4528 46.87 12.8788 46.786 12.4495 46.618C12.0295 46.4407 11.7075 46.2167 11.4835 45.946C11.2595 45.666 11.1148 45.358 11.0495 45.022C10.9842 44.6767 10.9515 44.336 10.9515 44V41.004H11.9035V43.944C11.9035 44.1493 11.9222 44.3733 11.9595 44.616C11.9968 44.8587 12.0902 45.0873 12.2395 45.302C12.3888 45.5073 12.6035 45.6847 12.8835 45.834C13.1728 45.974 13.5695 46.044 14.0735 46.044C14.3722 46.044 14.6802 46.03 14.9975 46.002C15.3242 45.9647 15.6322 45.9273 15.9215 45.89C16.2108 45.8433 16.4675 45.7967 16.6915 45.75C16.9248 45.7033 17.1068 45.666 17.2375 45.638V41.004H18.1895V51H17.2375V46.45Z" fill="black"/>
<path d="M20.2039 41.004H21.1559V49.978L26.8959 41.004H28.1279V51H27.1759V42.026L21.4359 51H20.2039V41.004Z" fill="black"/>
<path d="M34.3853 51.196C33.6013 51.196 32.9107 51.056 32.3133 50.776C31.7253 50.4867 31.2353 50.104 30.8433 49.628C30.4513 49.152 30.1573 48.6013 29.9613 47.976C29.7653 47.3507 29.6673 46.6927 29.6673 46.002C29.6673 45.3207 29.7653 44.6673 29.9613 44.042C30.1573 43.4073 30.4513 42.852 30.8433 42.376C31.2353 41.8907 31.7253 41.508 32.3133 41.228C32.9107 40.9387 33.6013 40.794 34.3853 40.794C34.8613 40.794 35.3233 40.864 35.7713 41.004C36.2287 41.144 36.6393 41.354 37.0033 41.634C37.3767 41.9047 37.6847 42.2407 37.9273 42.642C38.1793 43.0433 38.338 43.5053 38.4033 44.028H37.4513C37.3673 43.6453 37.2273 43.3047 37.0313 43.006C36.8447 42.698 36.6113 42.4413 36.3313 42.236C36.0607 42.0307 35.7573 41.8767 35.4213 41.774C35.0947 41.662 34.7493 41.606 34.3853 41.606C33.7227 41.606 33.1533 41.732 32.6773 41.984C32.2013 42.236 31.8093 42.572 31.5013 42.992C31.2027 43.4027 30.9787 43.874 30.8293 44.406C30.6893 44.9287 30.6193 45.4607 30.6193 46.002C30.6193 46.5527 30.6893 47.0893 30.8293 47.612C30.9787 48.1347 31.2027 48.606 31.5013 49.026C31.8093 49.4367 32.2013 49.768 32.6773 50.02C33.1533 50.272 33.7227 50.398 34.3853 50.398C34.8427 50.398 35.258 50.314 35.6313 50.146C36.014 49.978 36.3407 49.7493 36.6113 49.46C36.882 49.1707 37.1013 48.8347 37.2693 48.452C37.4373 48.06 37.5447 47.64 37.5913 47.192H38.5433C38.478 47.808 38.3333 48.3633 38.1093 48.858C37.8853 49.3527 37.596 49.7727 37.2413 50.118C36.8867 50.4633 36.4667 50.7293 35.9813 50.916C35.5053 51.1027 34.9733 51.196 34.3853 51.196Z" fill="black"/>
<path d="M42.4087 41.816H38.9367V41.004H46.8468V41.816H43.3607L43.3608 51H42.4087V41.816Z" fill="black"/>
<path d="M47.78 41.004H48.732V49.978L54.472 41.004H55.704V51H54.752V42.026L49.012 51H47.78V41.004Z" fill="black"/>
<path d="M60.1275 41.816H56.6555V41.004H64.5655V41.816H61.0795L61.0795 51H60.1275V41.816Z" fill="black"/>
<path d="M69.7408 51.196C68.9568 51.196 68.2661 51.056 67.6688 50.776C67.0808 50.4867 66.5908 50.104 66.1988 49.628C65.8068 49.152 65.5128 48.6013 65.3168 47.976C65.1208 47.3507 65.0228 46.6927 65.0228 46.002C65.0228 45.3207 65.1208 44.6673 65.3168 44.042C65.5128 43.4073 65.8068 42.852 66.1988 42.376C66.5908 41.8907 67.0808 41.508 67.6688 41.228C68.2661 40.9387 68.9568 40.794 69.7408 40.794C70.2168 40.794 70.6788 40.864 71.1268 41.004C71.5841 41.144 71.9948 41.354 72.3588 41.634C72.7321 41.9047 73.0401 42.2407 73.2828 42.642C73.5348 43.0433 73.6935 43.5053 73.7588 44.028H72.8068C72.7228 43.6453 72.5828 43.3047 72.3868 43.006C72.2001 42.698 71.9668 42.4413 71.6868 42.236C71.4161 42.0307 71.1128 41.8767 70.7768 41.774C70.4501 41.662 70.1048 41.606 69.7408 41.606C69.0781 41.606 68.5088 41.732 68.0328 41.984C67.5568 42.236 67.1648 42.572 66.8568 42.992C66.5581 43.4027 66.3341 43.874 66.1848 44.406C66.0448 44.9287 65.9748 45.4607 65.9748 46.002C65.9748 46.5527 66.0448 47.0893 66.1848 47.612C66.3341 48.1347 66.5581 48.606 66.8568 49.026C67.1648 49.4367 67.5568 49.768 68.0328 50.02C68.5088 50.272 69.0781 50.398 69.7408 50.398C70.1981 50.398 70.6135 50.314 70.9868 50.146C71.3695 49.978 71.6961 49.7493 71.9668 49.46C72.2375 49.1707 72.4568 48.8347 72.6248 48.452C72.7928 48.06 72.9001 47.64 72.9468 47.192H73.8988C73.8335 47.808 73.6888 48.3633 73.4648 48.858C73.2408 49.3527 72.9515 49.7727 72.5968 50.118C72.2421 50.4633 71.8221 50.7293 71.3368 50.916C70.8608 51.1027 70.3288 51.196 69.7408 51.196Z" fill="black"/>
<path d="M77.8202 46.66C77.4096 46.6413 77.0269 46.5667 76.6722 46.436C76.3269 46.3053 76.0236 46.1233 75.7622 45.89C75.5102 45.6567 75.3096 45.3767 75.1602 45.05C75.0202 44.714 74.9502 44.3267 74.9502 43.888C74.9502 43.44 75.0202 43.0387 75.1602 42.684C75.3002 42.3293 75.5009 42.0307 75.7622 41.788C76.0329 41.536 76.3502 41.3447 76.7142 41.214C77.0876 41.074 77.5076 41.004 77.9742 41.004H82.1602V51H81.2082V46.716H78.9682L75.6362 51H74.4042L77.8202 46.66ZM81.2082 45.904V41.816H78.1842C77.4842 41.816 76.9289 42.0027 76.5182 42.376C76.1076 42.74 75.9022 43.244 75.9022 43.888C75.9022 44.532 76.1076 45.0313 76.5182 45.386C76.9289 45.7313 77.4842 45.904 78.1842 45.904H81.2082Z" fill="black"/>
<path d="M5.19456 71.196C4.41056 71.196 3.7199 71.056 3.12256 70.776C2.53456 70.4867 2.04456 70.104 1.65256 69.628C1.26056 69.152 0.966563 68.6013 0.770563 67.976C0.574563 67.3507 0.476563 66.6927 0.476563 66.002C0.476563 65.3207 0.574563 64.6673 0.770563 64.042C0.966563 63.4073 1.26056 62.852 1.65256 62.376C2.04456 61.8907 2.53456 61.508 3.12256 61.228C3.7199 60.9387 4.41056 60.794 5.19456 60.794C5.97856 60.794 6.66456 60.9387 7.25256 61.228C7.84056 61.508 8.33056 61.8907 8.72256 62.376C9.11456 62.852 9.40856 63.4073 9.60456 64.042C9.80056 64.6673 9.89856 65.3207 9.89856 66.002C9.89856 66.6927 9.80056 67.3507 9.60456 67.976C9.40856 68.6013 9.11456 69.152 8.72256 69.628C8.33056 70.104 7.84056 70.4867 7.25256 70.776C6.66456 71.056 5.97856 71.196 5.19456 71.196ZM5.19456 70.398C5.8479 70.398 6.41256 70.272 6.88856 70.02C7.36456 69.768 7.7519 69.4367 8.05056 69.026C8.35856 68.606 8.58256 68.1347 8.72256 67.612C8.8719 67.0893 8.94656 66.5527 8.94656 66.002C8.94656 65.4607 8.8719 64.9287 8.72256 64.406C8.58256 63.874 8.35856 63.4027 8.05056 62.992C7.7519 62.572 7.36456 62.236 6.88856 61.984C6.41256 61.732 5.8479 61.606 5.19456 61.606C4.5319 61.606 3.96256 61.732 3.48656 61.984C3.01056 62.236 2.61856 62.572 2.31056 62.992C2.0119 63.4027 1.7879 63.874 1.63856 64.406C1.49856 64.9287 1.42856 65.4607 1.42856 66.002C1.42856 66.5527 1.49856 67.0893 1.63856 67.612C1.7879 68.1347 2.0119 68.606 2.31056 69.026C2.61856 69.4367 3.01056 69.768 3.48656 70.02C3.96256 70.272 4.5319 70.398 5.19456 70.398Z" fill="black"/>
<path d="M13.7935 61.816H10.3215V61.004H18.2315V61.816H14.7455V71H13.7935V61.816Z" fill="black"/>
<path d="M1.00856 81.004H8.70856V91H7.75656V81.816H1.96056L1.96056 91H1.00856L1.00856 81.004Z" fill="black"/>
<path d="M13.6553 81.004H14.7193L18.6393 91H17.6173L16.3993 87.892H11.8493L10.6453 91H9.63727L13.6553 81.004ZM16.0773 87.08L14.1453 81.956L12.1433 87.08H16.0773Z" fill="black"/>
<path d="M19.5476 81.004H23.9856C24.4336 81.004 24.8396 81.0693 25.2036 81.2C25.5676 81.3213 25.8803 81.508 26.1416 81.76C26.403 82.0027 26.6036 82.3013 26.7436 82.656C26.8836 83.0107 26.9536 83.412 26.9536 83.86C26.9536 84.308 26.8836 84.7093 26.7436 85.064C26.6036 85.4187 26.403 85.722 26.1416 85.974C25.8803 86.2167 25.5676 86.4033 25.2036 86.534C24.8396 86.6553 24.4336 86.716 23.9856 86.716H20.4996V91H19.5476V81.004ZM23.7756 85.904C24.4383 85.904 24.975 85.736 25.3856 85.4C25.7963 85.064 26.0016 84.5507 26.0016 83.86C26.0016 83.1693 25.7963 82.656 25.3856 82.32C24.975 81.984 24.4383 81.816 23.7756 81.816H20.4996V85.904H23.7756Z" fill="black"/>
<path d="M31.292 81.004H32.356L36.276 91H35.254L34.036 87.892H29.486L28.282 91H27.274L31.292 81.004ZM33.714 87.08L31.782 81.956L29.78 87.08H33.714Z" fill="black"/>
<path d="M40.7123 91.21C40.0963 91.21 39.541 91.1353 39.0463 90.986C38.5517 90.8273 38.1317 90.6033 37.7863 90.314C37.4503 90.0153 37.189 89.656 37.0023 89.236C36.825 88.8067 36.7363 88.326 36.7363 87.794V87.71H37.6463C37.6463 88.634 37.931 89.32 38.5003 89.768C39.0697 90.216 39.8303 90.44 40.7823 90.44C41.2023 90.44 41.5803 90.3793 41.9163 90.258C42.2523 90.1273 42.5323 89.9547 42.7563 89.74C42.9897 89.5253 43.167 89.278 43.2883 88.998C43.419 88.7087 43.4843 88.4053 43.4843 88.088C43.4843 87.7987 43.4237 87.5373 43.3023 87.304C43.1903 87.0613 43.0317 86.856 42.8263 86.688C42.621 86.52 42.3783 86.3893 42.0983 86.296C41.8277 86.2027 41.5337 86.156 41.2163 86.156H39.6203V85.344H41.2163C41.4777 85.344 41.7297 85.3067 41.9723 85.232C42.215 85.1573 42.4297 85.05 42.6163 84.91C42.803 84.7607 42.9477 84.5787 43.0503 84.364C43.1623 84.14 43.2183 83.8833 43.2183 83.594C43.2183 83.2487 43.153 82.95 43.0223 82.698C42.901 82.446 42.733 82.2407 42.5183 82.082C42.3037 81.914 42.047 81.7927 41.7483 81.718C41.4497 81.634 41.1323 81.592 40.7963 81.592C40.4043 81.592 40.0403 81.6387 39.7043 81.732C39.3683 81.8253 39.0743 81.97 38.8223 82.166C38.5797 82.3527 38.3837 82.5907 38.2343 82.88C38.0943 83.16 38.0103 83.4867 37.9823 83.86H37.0583C37.0863 83.3467 37.1937 82.8987 37.3803 82.516C37.5763 82.1333 37.8377 81.816 38.1643 81.564C38.491 81.3027 38.8737 81.1113 39.3123 80.99C39.7603 80.8593 40.2457 80.794 40.7683 80.794C41.235 80.794 41.6737 80.85 42.0843 80.962C42.5043 81.0647 42.8683 81.228 43.1763 81.452C43.4843 81.676 43.727 81.9607 43.9043 82.306C44.0817 82.642 44.1703 83.0433 44.1703 83.51C44.1703 83.7713 44.1283 84.0187 44.0443 84.252C43.9603 84.476 43.8483 84.6813 43.7083 84.868C43.5683 85.0453 43.4097 85.1993 43.2323 85.33C43.055 85.4607 42.8777 85.5587 42.7003 85.624V85.666C43.2323 85.806 43.6523 86.0767 43.9603 86.478C44.2777 86.87 44.4363 87.402 44.4363 88.074C44.4363 88.382 44.371 88.718 44.2403 89.082C44.119 89.446 43.9137 89.7867 43.6243 90.104C43.335 90.4213 42.9523 90.6873 42.4763 90.902C42.0003 91.1073 41.4123 91.21 40.7123 91.21Z" fill="black"/>
<path d="M45.9617 81.004H46.9137V89.978L52.6537 81.004H53.8857V91H52.9337V82.026L47.1937 91H45.9617V81.004Z" fill="black"/>
<path d="M58.3091 81.816H54.8371V81.004H62.7471V81.816H59.2611V91H58.3091V81.816Z" fill="black"/>
<path d="M67.8664 91.196C67.0824 91.196 66.3918 91.056 65.7944 90.776C65.2064 90.4867 64.7164 90.104 64.3244 89.628C63.9324 89.152 63.6384 88.6013 63.4424 87.976C63.2464 87.3507 63.1484 86.6927 63.1484 86.002C63.1484 85.3207 63.2464 84.6673 63.4424 84.042C63.6384 83.4073 63.9324 82.852 64.3244 82.376C64.7164 81.8907 65.2064 81.508 65.7944 81.228C66.3918 80.9387 67.0824 80.794 67.8664 80.794C68.6504 80.794 69.3364 80.9387 69.9244 81.228C70.5124 81.508 71.0024 81.8907 71.3944 82.376C71.7864 82.852 72.0804 83.4073 72.2764 84.042C72.4724 84.6673 72.5704 85.3207 72.5704 86.002C72.5704 86.6927 72.4724 87.3507 72.2764 87.976C72.0804 88.6013 71.7864 89.152 71.3944 89.628C71.0024 90.104 70.5124 90.4867 69.9244 90.776C69.3364 91.056 68.6504 91.196 67.8664 91.196ZM67.8664 90.398C68.5198 90.398 69.0844 90.272 69.5604 90.02C70.0364 89.768 70.4238 89.4367 70.7224 89.026C71.0304 88.606 71.2544 88.1347 71.3944 87.612C71.5438 87.0893 71.6184 86.5527 71.6184 86.002C71.6184 85.4607 71.5438 84.9287 71.3944 84.406C71.2544 83.874 71.0304 83.4027 70.7224 82.992C70.4238 82.572 70.0364 82.236 69.5604 81.984C69.0844 81.732 68.5198 81.606 67.8664 81.606C67.2038 81.606 66.6344 81.732 66.1584 81.984C65.6824 82.236 65.2904 82.572 64.9824 82.992C64.6838 83.4027 64.4598 83.874 64.3104 84.406C64.1704 84.9287 64.1004 85.4607 64.1004 86.002C64.1004 86.5527 64.1704 87.0893 64.3104 87.612C64.4598 88.1347 64.6838 88.606 64.9824 89.026C65.2904 89.4367 65.6824 89.768 66.1584 90.02C66.6344 90.272 67.2038 90.398 67.8664 90.398Z" fill="black"/>
<path d="M74.0574 81.004H78.2854C78.7054 81.004 79.1067 81.046 79.4894 81.13C79.8814 81.2047 80.2221 81.34 80.5114 81.536C80.8101 81.7227 81.0481 81.9747 81.2254 82.292C81.4027 82.6 81.4914 82.9873 81.4914 83.454C81.4914 83.7153 81.4494 83.972 81.3654 84.224C81.2814 84.4667 81.1601 84.6907 81.0014 84.896C80.8521 85.092 80.6701 85.26 80.4554 85.4C80.2501 85.54 80.0167 85.638 79.7554 85.694V85.722C80.3994 85.806 80.9127 86.072 81.2954 86.52C81.6781 86.9587 81.8694 87.5047 81.8694 88.158C81.8694 88.4007 81.8321 88.6853 81.7574 89.012C81.6921 89.3293 81.5381 89.6373 81.2954 89.936C81.0527 90.2347 80.6934 90.4867 80.2174 90.692C79.7414 90.8973 79.0974 91 78.2854 91H74.0574V81.004ZM78.2854 90.188C78.6401 90.188 78.9761 90.16 79.2934 90.104C79.6107 90.0387 79.8907 89.9267 80.1334 89.768C80.3761 89.6093 80.5674 89.3993 80.7074 89.138C80.8474 88.8767 80.9174 88.5407 80.9174 88.13C80.9174 87.486 80.6887 87.0053 80.2314 86.688C79.7834 86.3613 79.1347 86.198 78.2854 86.198H75.0094V90.188H78.2854ZM78.2854 85.386C78.6587 85.386 78.9854 85.344 79.2654 85.26C79.5547 85.1667 79.7927 85.0453 79.9794 84.896C80.1661 84.7373 80.3061 84.5553 80.3994 84.35C80.4927 84.1447 80.5394 83.9253 80.5394 83.692C80.5394 82.4413 79.7881 81.816 78.2854 81.816H75.0094V85.386H78.2854Z" fill="black"/>
<path d="M1.00856 101.004H7.91056V101.816H1.96056V105.428H7.53256V106.24H1.96056V110.188H7.98056V111H1.00856L1.00856 101.004Z" fill="black"/>
<path d="M13.5494 111.196C12.7654 111.196 12.0747 111.056 11.4774 110.776C10.8894 110.487 10.3994 110.104 10.0074 109.628C9.61539 109.152 9.32139 108.601 9.12539 107.976C8.92939 107.351 8.83139 106.693 8.83139 106.002C8.83139 105.321 8.92939 104.667 9.12539 104.042C9.32139 103.407 9.61539 102.852 10.0074 102.376C10.3994 101.891 10.8894 101.508 11.4774 101.228C12.0747 100.939 12.7654 100.794 13.5494 100.794C14.0254 100.794 14.4874 100.864 14.9354 101.004C15.3927 101.144 15.8034 101.354 16.1674 101.634C16.5407 101.905 16.8487 102.241 17.0914 102.642C17.3434 103.043 17.5021 103.505 17.5674 104.028H16.6154C16.5314 103.645 16.3914 103.305 16.1954 103.006C16.0087 102.698 15.7754 102.441 15.4954 102.236C15.2247 102.031 14.9214 101.877 14.5854 101.774C14.2587 101.662 13.9134 101.606 13.5494 101.606C12.8867 101.606 12.3174 101.732 11.8414 101.984C11.3654 102.236 10.9734 102.572 10.6654 102.992C10.3667 103.403 10.1427 103.874 9.99339 104.406C9.85339 104.929 9.78339 105.461 9.78339 106.002C9.78339 106.553 9.85339 107.089 9.99339 107.612C10.1427 108.135 10.3667 108.606 10.6654 109.026C10.9734 109.437 11.3654 109.768 11.8414 110.02C12.3174 110.272 12.8867 110.398 13.5494 110.398C14.0067 110.398 14.4221 110.314 14.7954 110.146C15.1781 109.978 15.5047 109.749 15.7754 109.46C16.0461 109.171 16.2654 108.835 16.4334 108.452C16.6014 108.06 16.7087 107.64 16.7554 107.192H17.7074C17.6421 107.808 17.4974 108.363 17.2734 108.858C17.0494 109.353 16.7601 109.773 16.4054 110.118C16.0507 110.463 15.6307 110.729 15.1454 110.916C14.6694 111.103 14.1374 111.196 13.5494 111.196Z" fill="black"/>
<path d="M18.9128 111.084C18.8568 111.084 18.7868 111.079 18.7028 111.07C18.6281 111.061 18.5488 111.051 18.4648 111.042C18.3808 111.033 18.3061 111.019 18.2408 111C18.1755 110.991 18.1288 110.981 18.1008 110.972V110.16C18.1755 110.197 18.2875 110.225 18.4368 110.244C18.5955 110.253 18.7121 110.258 18.7868 110.258C18.8895 110.258 19.0108 110.249 19.1508 110.23C19.2908 110.202 19.4355 110.118 19.5848 109.978C19.7435 109.829 19.8975 109.6 20.0468 109.292C20.2055 108.975 20.3408 108.527 20.4528 107.948C20.5741 107.36 20.6721 106.618 20.7468 105.722C20.8215 104.826 20.8588 103.725 20.8588 102.418V101.004H27.0048V111H26.0528V101.816H21.7828V102.362C21.7828 103.818 21.7361 105.045 21.6428 106.044C21.5495 107.033 21.4235 107.855 21.2648 108.508C21.1061 109.152 20.9241 109.651 20.7188 110.006C20.5228 110.351 20.3175 110.603 20.1028 110.762C19.8975 110.921 19.6875 111.014 19.4728 111.042C19.2675 111.07 19.0808 111.084 18.9128 111.084Z" fill="black"/>
<path d="M29.0222 101.004H29.9742V109.978L35.7142 101.004H36.9462V111H35.9942V102.026L30.2542 111H29.0222L29.0222 101.004Z" fill="black"/>
<path d="M39.3817 111V109.768H40.4037V111H39.3817Z" fill="black"/>
<path d="M43.2782 111V109.768H44.3002V111H43.2782Z" fill="black"/>
<path d="M47.1747 111V109.768H48.1967V111H47.1747Z" fill="black"/>
</svg>
