<svg width="131" height="159" viewBox="0 0 131 159" fill="none" xmlns="http://www.w3.org/2000/svg">
<path d="M3.90531 6.16999C3.55998 6.16999 3.24265 6.21199 2.95331 6.29599C2.66398 6.37999 2.41198 6.51066 2.19731 6.68799C1.98265 6.85599 1.81465 7.07532 1.69331 7.34599C1.57198 7.60732 1.51131 7.91999 1.51131 8.28399C1.51131 8.59199 1.56731 8.87666 1.67931 9.13799C1.80065 9.39933 1.96398 9.62799 2.16931 9.82399C2.38398 10.0107 2.64065 10.16 2.93931 10.272C3.24731 10.384 3.58798 10.44 3.96131 10.44C4.28798 10.44 4.59131 10.3887 4.87131 10.286C5.15131 10.174 5.39398 10.02 5.59931 9.82399C5.81398 9.62799 5.97731 9.39466 6.08931 9.12399C6.21065 8.85333 6.27131 8.55466 6.27131 8.22799C6.27131 7.88266 6.21065 7.58399 6.08931 7.33199C5.96798 7.07066 5.79998 6.85599 5.58531 6.68799C5.37065 6.51066 5.11865 6.37999 4.82931 6.29599C4.53998 6.21199 4.23198 6.16999 3.90531 6.16999ZM3.86331 1.88599C3.58331 1.88599 3.32198 1.92332 3.07931 1.99799C2.83665 2.07266 2.62198 2.18466 2.43531 2.33399C2.25798 2.48332 2.11798 2.66999 2.01531 2.89399C1.91265 3.11799 1.86131 3.37466 1.86131 3.66399C1.86131 3.97199 1.91731 4.23799 2.02931 4.46199C2.15065 4.67666 2.30931 4.85399 2.50531 4.99399C2.70131 5.13399 2.92531 5.24133 3.17731 5.31599C3.42931 5.38133 3.69065 5.41399 3.96131 5.41399C4.23198 5.41399 4.48398 5.38133 4.71731 5.31599C4.95065 5.24133 5.15131 5.12466 5.31931 4.96599C5.48731 4.80732 5.61798 4.60666 5.71131 4.36399C5.81398 4.12133 5.86531 3.82266 5.86531 3.46799C5.86531 2.96399 5.70198 2.57666 5.37531 2.30599C5.04865 2.02599 4.54465 1.88599 3.86331 1.88599ZM2.33731 5.69399C2.09465 5.54466 1.88465 5.40466 1.70731 5.27399C1.53931 5.13399 1.39931 4.98466 1.28731 4.82599C1.17531 4.66732 1.09131 4.48999 1.03531 4.29399C0.988646 4.08866 0.965312 3.83666 0.965312 3.53799C0.965312 3.20199 1.03998 2.88466 1.18931 2.58599C1.33865 2.28733 1.53931 2.03066 1.79131 1.81599C2.04331 1.59199 2.33731 1.41933 2.67331 1.29799C3.01865 1.17666 3.38731 1.12066 3.77931 1.12999C4.15265 1.12999 4.51665 1.17666 4.87131 1.26999C5.23531 1.36332 5.55731 1.50799 5.83731 1.70399C6.11731 1.89999 6.34131 2.15199 6.50931 2.45999C6.67731 2.75866 6.76131 3.11799 6.76131 3.53799C6.76131 4.05132 6.65398 4.48999 6.43931 4.85399C6.23398 5.21799 5.89331 5.51666 5.41731 5.74999C5.95865 5.94599 6.38331 6.25866 6.69131 6.68799C7.00865 7.11732 7.16731 7.62132 7.16731 8.19999C7.16731 8.68533 7.08331 9.11466 6.91531 9.48799C6.75665 9.86133 6.52331 10.174 6.21531 10.426C5.91665 10.678 5.55265 10.8693 5.12331 11C4.69398 11.1307 4.21798 11.196 3.69531 11.196C3.34065 11.196 2.97665 11.1353 2.60331 11.014C2.23931 10.8927 1.90798 10.7107 1.60931 10.468C1.31998 10.2253 1.08198 9.92199 0.895312 9.55799C0.708646 9.19399 0.615312 8.76933 0.615312 8.28399C0.615312 7.69599 0.759979 7.17333 1.04931 6.71599C1.34798 6.24933 1.77731 5.90866 2.33731 5.69399Z" fill="black"/>
<path d="M15.5531 0.653992C14.8811 1.62466 14.3538 2.66532 13.9711 3.77599C13.5978 4.87732 13.4111 6.02066 13.4111 7.20599C13.4111 8.37266 13.6071 9.50199 13.9991 10.594C14.3911 11.686 14.9091 12.7127 15.5531 13.674H14.8391C14.4564 13.142 14.1158 12.624 13.8171 12.12C13.5184 11.6253 13.2664 11.1213 13.0611 10.608C12.8558 10.0853 12.7018 9.54399 12.5991 8.98399C12.4964 8.41466 12.4451 7.79866 12.4451 7.13599C12.4451 6.49199 12.4964 5.88999 12.5991 5.32999C12.7111 4.76066 12.8698 4.21466 13.0751 3.69199C13.2804 3.16933 13.5278 2.66066 13.8171 2.16599C14.1158 1.66199 14.4564 1.15799 14.8391 0.653992L15.5531 0.653992Z" fill="black"/>
<path d="M17.9892 8.82999C18.0919 9.36199 18.2972 9.76333 18.6052 10.034C18.9225 10.3047 19.3565 10.44 19.9072 10.44C20.4952 10.44 20.9619 10.2953 21.3072 10.006C21.6619 9.71666 21.9325 9.35266 22.1192 8.91399C22.3152 8.47533 22.4459 8.00399 22.5112 7.49999C22.5859 6.98666 22.6325 6.50599 22.6512 6.05799L22.6232 6.02999C22.3245 6.53399 21.9512 6.91666 21.5032 7.17799C21.0645 7.43933 20.5512 7.56999 19.9632 7.56999C19.4965 7.56999 19.0765 7.49533 18.7032 7.34599C18.3299 7.19666 18.0079 6.98199 17.7372 6.70199C17.4759 6.42199 17.2705 6.08599 17.1212 5.69399C16.9812 5.30199 16.9112 4.86799 16.9112 4.39199C16.9112 3.92533 16.9765 3.49599 17.1072 3.10399C17.2379 2.70266 17.4339 2.35732 17.6952 2.06799C17.9565 1.76933 18.2832 1.54066 18.6752 1.38199C19.0765 1.21399 19.5479 1.12999 20.0892 1.12999C20.7519 1.12999 21.3025 1.26066 21.7412 1.52199C22.1892 1.78332 22.5439 2.13799 22.8052 2.58599C23.0759 3.03399 23.2672 3.56133 23.3792 4.16799C23.4912 4.77466 23.5472 5.42333 23.5472 6.11399C23.5472 6.95399 23.4585 7.69133 23.2812 8.32599C23.1039 8.95133 22.8519 9.47866 22.5252 9.90799C22.2079 10.3373 21.8299 10.6593 21.3912 10.874C20.9525 11.0887 20.4719 11.196 19.9492 11.196C19.5665 11.196 19.2072 11.1493 18.8712 11.056C18.5352 10.9627 18.2412 10.818 17.9892 10.622C17.7372 10.426 17.5319 10.1787 17.3732 9.87999C17.2145 9.58132 17.1165 9.23133 17.0792 8.82999H17.9892ZM20.0892 1.88599C19.3332 1.90466 18.7639 2.13799 18.3812 2.58599C17.9985 3.03399 17.8072 3.64533 17.8072 4.41999C17.8072 5.17599 18.0032 5.76399 18.3952 6.18399C18.7965 6.60399 19.3612 6.81399 20.0892 6.81399C20.4345 6.81399 20.7425 6.74866 21.0132 6.61799C21.2932 6.48733 21.5265 6.30999 21.7132 6.08599C21.9092 5.86199 22.0539 5.60533 22.1472 5.31599C22.2499 5.01733 22.3012 4.69999 22.3012 4.36399C22.3012 3.63599 22.1052 3.04799 21.7132 2.59999C21.3212 2.14266 20.7799 1.90466 20.0892 1.88599Z" fill="black"/>
<path d="M25.0825 4.36399C25.0825 3.87866 25.1572 3.43999 25.3065 3.04799C25.4558 2.64666 25.6705 2.30599 25.9505 2.02599C26.2305 1.73666 26.5665 1.51732 26.9585 1.36799C27.3598 1.20932 27.8032 1.12999 28.2885 1.12999C28.7832 1.12999 29.2172 1.20466 29.5905 1.35399C29.9732 1.49399 30.2905 1.68533 30.5425 1.92799C30.8038 2.17066 30.9998 2.45999 31.1305 2.79599C31.2612 3.13199 31.3265 3.48666 31.3265 3.85999C31.3265 4.29866 31.2518 4.68599 31.1025 5.02199C30.9625 5.35799 30.7712 5.65666 30.5285 5.91799C30.2952 6.17933 30.0245 6.41266 29.7165 6.61799C29.4178 6.82333 29.1098 7.01933 28.7925 7.20599C28.4752 7.38333 28.1625 7.55599 27.8545 7.72399C27.5465 7.89199 27.2712 8.06933 27.0285 8.25599C26.8698 8.37733 26.7158 8.50799 26.5665 8.64799C26.4172 8.77866 26.2818 8.92333 26.1605 9.08199C26.0392 9.24066 25.9412 9.41799 25.8665 9.61399C25.7918 9.80066 25.7498 10.0107 25.7405 10.244H31.2425V11H24.7885C24.7978 10.524 24.8492 10.0947 24.9425 9.71199C25.0358 9.32933 25.2412 8.95599 25.5585 8.59199C25.9038 8.19999 26.2585 7.86399 26.6225 7.58399C26.9958 7.30399 27.3598 7.05666 27.7145 6.84199C28.0692 6.61799 28.4052 6.41733 28.7225 6.23999C29.0398 6.05333 29.3198 5.85266 29.5625 5.63799C29.8052 5.42333 29.9965 5.18066 30.1365 4.90999C30.2765 4.63933 30.3465 4.30799 30.3465 3.91599C30.3465 3.59866 30.2905 3.31399 30.1785 3.06199C30.0665 2.80999 29.9125 2.59532 29.7165 2.41799C29.5205 2.24066 29.2918 2.10999 29.0305 2.02599C28.7692 1.93266 28.4845 1.88599 28.1765 1.88599C27.8498 1.88599 27.5512 1.95599 27.2805 2.09599C27.0192 2.22666 26.7905 2.40399 26.5945 2.62799C26.4078 2.85199 26.2632 3.11333 26.1605 3.41199C26.0578 3.71066 26.0158 4.02799 26.0345 4.36399H25.0825Z" fill="black"/>
<path d="M32.8618 4.36399C32.8618 3.87866 32.9365 3.43999 33.0858 3.04799C33.2351 2.64666 33.4498 2.30599 33.7298 2.02599C34.0098 1.73666 34.3458 1.51732 34.7378 1.36799C35.1391 1.20933 35.5825 1.12999 36.0678 1.12999C36.5625 1.12999 36.9965 1.20466 37.3698 1.35399C37.7525 1.49399 38.0698 1.68533 38.3218 1.92799C38.5831 2.17066 38.7791 2.45999 38.9098 2.79599C39.0405 3.13199 39.1058 3.48666 39.1058 3.85999C39.1058 4.29866 39.0311 4.68599 38.8818 5.02199C38.7418 5.35799 38.5505 5.65666 38.3078 5.91799C38.0745 6.17933 37.8038 6.41266 37.4958 6.61799C37.1971 6.82333 36.8891 7.01933 36.5718 7.20599C36.2545 7.38333 35.9418 7.55599 35.6338 7.72399C35.3258 7.89199 35.0505 8.06933 34.8078 8.25599C34.6491 8.37733 34.4951 8.50799 34.3458 8.64799C34.1965 8.77866 34.0611 8.92333 33.9398 9.08199C33.8185 9.24066 33.7205 9.41799 33.6458 9.61399C33.5711 9.80066 33.5291 10.0107 33.5198 10.244H39.0218V11H32.5678C32.5771 10.524 32.6285 10.0947 32.7218 9.71199C32.8151 9.32933 33.0205 8.95599 33.3378 8.59199C33.6831 8.19999 34.0378 7.86399 34.4018 7.58399C34.7751 7.30399 35.1391 7.05666 35.4938 6.84199C35.8485 6.61799 36.1845 6.41733 36.5018 6.23999C36.8191 6.05333 37.0991 5.85266 37.3418 5.63799C37.5845 5.42333 37.7758 5.18066 37.9158 4.90999C38.0558 4.63933 38.1258 4.30799 38.1258 3.91599C38.1258 3.59866 38.0698 3.31399 37.9578 3.06199C37.8458 2.80999 37.6918 2.59533 37.4958 2.41799C37.2998 2.24066 37.0711 2.10999 36.8098 2.02599C36.5485 1.93266 36.2638 1.88599 35.9558 1.88599C35.6291 1.88599 35.3305 1.95599 35.0598 2.09599C34.7985 2.22666 34.5698 2.40399 34.3738 2.62799C34.1871 2.85199 34.0425 3.11333 33.9398 3.41199C33.8371 3.71066 33.7951 4.02799 33.8138 4.36399H32.8618Z" fill="black"/>
<path d="M40.4591 13.674C41.1311 12.7033 41.6538 11.6673 42.0271 10.566C42.4098 9.45533 42.6011 8.30733 42.6011 7.12199C42.6011 5.95533 42.4051 4.82599 42.0131 3.73399C41.6211 2.64199 41.1031 1.61533 40.4591 0.653992L41.1731 0.653992C41.5558 1.18599 41.8964 1.70399 42.1951 2.20799C42.4938 2.70266 42.7411 3.21132 42.9371 3.73399C43.1424 4.24733 43.2964 4.78866 43.3991 5.35799C43.5111 5.91799 43.5671 6.52933 43.5671 7.19199C43.5671 7.83599 43.5111 8.44266 43.3991 9.01199C43.2964 9.57199 43.1424 10.1133 42.9371 10.636C42.7318 11.1587 42.4798 11.6673 42.1811 12.162C41.8824 12.666 41.5464 13.17 41.1731 13.674H40.4591Z" fill="black"/>
<path d="M51.3277 5.51199C51.7477 5.51199 52.1304 5.48866 52.4757 5.44199C52.821 5.38599 53.115 5.28799 53.3577 5.14799C53.6097 4.99866 53.8057 4.80266 53.9457 4.55999C54.0857 4.31733 54.1557 4.00466 54.1557 3.62199C54.1557 3.31399 54.0997 3.05266 53.9877 2.83799C53.8757 2.61399 53.7217 2.43199 53.5257 2.29199C53.339 2.15199 53.115 2.04933 52.8537 1.98399C52.6017 1.91866 52.3357 1.88599 52.0557 1.88599C51.7384 1.88599 51.449 1.93733 51.1877 2.03999C50.9357 2.14266 50.7164 2.29199 50.5297 2.48799C50.343 2.67466 50.1984 2.89866 50.0957 3.15999C49.993 3.41199 49.9417 3.69199 49.9417 3.99999H49.0457C49.0457 3.55199 49.1204 3.15066 49.2697 2.79599C49.4284 2.43199 49.671 2.09599 49.9977 1.78799C50.3057 1.50799 50.651 1.33066 51.0337 1.25599C51.4257 1.17199 51.827 1.12999 52.2377 1.12999C52.6297 1.12999 52.9937 1.18133 53.3297 1.28399C53.675 1.37733 53.9737 1.52666 54.2257 1.73199C54.4777 1.92799 54.6784 2.17999 54.8277 2.48799C54.977 2.79599 55.0517 3.15533 55.0517 3.56599C55.0517 4.07933 54.935 4.52266 54.7017 4.89599C54.4777 5.26933 54.1277 5.55866 53.6517 5.76399C54.0064 5.87599 54.2957 6.02533 54.5197 6.21199C54.753 6.38933 54.935 6.58999 55.0657 6.81399C55.1964 7.02866 55.285 7.25733 55.3317 7.49999C55.3784 7.74266 55.4017 7.97599 55.4017 8.19999C55.4017 8.61066 55.3317 8.99333 55.1917 9.34799C55.0517 9.70266 54.8464 10.0153 54.5757 10.286C54.305 10.5567 53.969 10.776 53.5677 10.944C53.1757 11.1027 52.7277 11.1867 52.2237 11.196C51.6544 11.196 51.1597 11.1447 50.7397 11.042C50.3197 10.9393 49.9697 10.7713 49.6897 10.538C49.4097 10.2953 49.1904 9.98266 49.0317 9.59999C48.873 9.20799 48.7657 8.72266 48.7097 8.14399H49.6057C49.6057 8.89999 49.8297 9.47399 50.2777 9.86599C50.735 10.2487 51.3277 10.44 52.0557 10.44C52.4104 10.44 52.7417 10.3793 53.0497 10.258C53.3577 10.1367 53.619 9.97333 53.8337 9.76799C54.0577 9.56266 54.2257 9.32466 54.3377 9.05399C54.459 8.78333 54.515 8.50333 54.5057 8.21399C54.487 7.81266 54.3937 7.48133 54.2257 7.21999C54.0577 6.94933 53.829 6.73933 53.5397 6.58999C53.2597 6.43133 52.9284 6.32866 52.5457 6.28199C52.163 6.22599 51.757 6.21199 51.3277 6.23999V5.51199Z" fill="black"/>
<path d="M62.341 6.14199C62.341 5.60999 62.3083 5.09199 62.243 4.58799C62.187 4.07466 62.0703 3.61733 61.893 3.21599C61.7157 2.81466 61.4637 2.49266 61.137 2.24999C60.8197 2.00733 60.3997 1.88599 59.877 1.88599C59.3823 1.88599 58.9763 2.01199 58.659 2.26399C58.351 2.50666 58.1083 2.83333 57.931 3.24399C57.7537 3.65466 57.6277 4.12133 57.553 4.64399C57.4877 5.16666 57.455 5.69866 57.455 6.23999C57.455 6.87466 57.4923 7.45333 57.567 7.97599C57.651 8.48933 57.7863 8.92799 57.973 9.29199C58.1597 9.65599 58.407 9.94066 58.715 10.146C59.0323 10.342 59.429 10.44 59.905 10.44C60.437 10.44 60.8617 10.3093 61.179 10.048C61.5057 9.78666 61.753 9.45066 61.921 9.03999C62.089 8.62933 62.201 8.16733 62.257 7.65399C62.313 7.14066 62.341 6.63666 62.341 6.14199ZM59.905 1.12999C60.3903 1.12999 60.8103 1.20466 61.165 1.35399C61.5197 1.49399 61.8183 1.68999 62.061 1.94199C62.313 2.19399 62.5136 2.48799 62.663 2.82399C62.8216 3.15999 62.943 3.51933 63.027 3.90199C63.111 4.27533 63.167 4.66266 63.195 5.06399C63.223 5.46533 63.237 5.85733 63.237 6.23999C63.237 6.89333 63.1903 7.51866 63.097 8.11599C63.0037 8.71333 62.831 9.24066 62.579 9.69799C62.3363 10.1553 62.0003 10.5193 61.571 10.79C61.1417 11.0607 60.5863 11.196 59.905 11.196C59.2237 11.196 58.6636 11.0607 58.225 10.79C57.7956 10.5193 57.455 10.1553 57.203 9.69799C56.9603 9.23133 56.7923 8.69466 56.699 8.08799C56.6057 7.47199 56.559 6.82333 56.559 6.14199C56.559 5.51666 56.601 4.90533 56.685 4.30799C56.769 3.71066 56.9277 3.17866 57.161 2.71199C57.4037 2.23599 57.7443 1.85333 58.183 1.56399C58.6217 1.27466 59.1956 1.12999 59.905 1.12999Z" fill="black"/>
<path d="M69.9103 3.55199C69.8076 3.04799 69.6023 2.64666 69.2943 2.34799C68.9863 2.03999 68.5663 1.88599 68.0343 1.88599C67.4276 1.88599 66.9469 2.03066 66.5923 2.31999C66.2469 2.60933 65.9809 2.97799 65.7943 3.42599C65.6076 3.86466 65.4816 4.34533 65.4163 4.86799C65.3509 5.39066 65.2996 5.88533 65.2623 6.35199C65.4023 6.16533 65.5469 5.97866 65.6963 5.79199C65.8549 5.60533 66.0323 5.44199 66.2283 5.30199C66.4243 5.15266 66.653 5.03599 66.9143 4.95199C67.1756 4.85866 67.4883 4.81199 67.8523 4.81199C68.8509 4.81199 69.621 5.09666 70.1623 5.66599C70.713 6.22599 70.9883 7.00066 70.9883 7.98999C70.9883 8.98866 70.713 9.77266 70.1623 10.342C69.6116 10.9113 68.8323 11.196 67.8243 11.196C67.3296 11.196 66.8723 11.1167 66.4523 10.958C66.0323 10.79 65.6683 10.5193 65.3603 10.146C65.0523 9.77266 64.8096 9.28733 64.6323 8.68999C64.4549 8.08333 64.3663 7.34599 64.3663 6.47799C64.3663 5.88999 64.4176 5.28333 64.5203 4.65799C64.6229 4.02333 64.805 3.44466 65.0663 2.92199C65.337 2.39933 65.7009 1.96999 66.1583 1.63399C66.6249 1.29799 67.2223 1.12999 67.9503 1.12999C68.7343 1.12999 69.3876 1.33533 69.9103 1.74599C70.4329 2.15666 70.7409 2.75866 70.8343 3.55199H69.9103ZM67.8243 5.56799C67.4789 5.56799 67.1663 5.63333 66.8863 5.76399C66.6156 5.89466 66.3823 6.07199 66.1863 6.29599C65.9996 6.51999 65.8549 6.78133 65.7523 7.07999C65.6496 7.36933 65.5983 7.68199 65.5983 8.01799C65.5983 8.29799 65.6356 8.58266 65.7103 8.87199C65.7943 9.15199 65.9249 9.40866 66.1023 9.64199C66.2889 9.87533 66.5223 10.0667 66.8023 10.216C67.0823 10.3653 67.4276 10.44 67.8383 10.44C68.2583 10.44 68.6083 10.37 68.8883 10.23C69.1776 10.0807 69.4109 9.88933 69.5883 9.65599C69.7656 9.41333 69.8916 9.14733 69.9663 8.85799C70.0503 8.55933 70.0923 8.26066 70.0923 7.96199C70.0923 7.19666 69.9056 6.60866 69.5323 6.19799C69.1683 5.77799 68.5989 5.56799 67.8243 5.56799Z" fill="black"/>
<path d="M75.6736 6.92599V7.79399H72.1316V6.92599H75.6736Z" fill="black"/>
<path d="M77.0597 1.22799L83.3457 1.22799V2.06799C82.6364 2.87066 82.0344 3.69666 81.5397 4.54599C81.045 5.38599 80.639 6.20733 80.3217 7.00999C80.0044 7.80333 79.7664 8.54533 79.6077 9.23599C79.4584 9.92666 79.3697 10.5147 79.3417 11H78.3617C78.4084 10.2907 78.5484 9.53933 78.7817 8.74599C79.0244 7.94333 79.323 7.14999 79.6777 6.36599C80.0324 5.58199 80.4337 4.82599 80.8817 4.09799C81.3297 3.36066 81.7917 2.70266 82.2677 2.12399L77.0597 2.12399V1.22799Z" fill="black"/>
<path d="M87.919 6.16999C87.5737 6.16999 87.2563 6.21199 86.967 6.29599C86.6777 6.37999 86.4256 6.51066 86.211 6.68799C85.9963 6.85599 85.8283 7.07533 85.707 7.34599C85.5857 7.60733 85.525 7.91999 85.525 8.28399C85.525 8.59199 85.581 8.87666 85.693 9.13799C85.8143 9.39933 85.9777 9.62799 86.183 9.82399C86.3977 10.0107 86.6543 10.16 86.953 10.272C87.261 10.384 87.6016 10.44 87.975 10.44C88.3016 10.44 88.605 10.3887 88.885 10.286C89.165 10.174 89.4077 10.02 89.613 9.82399C89.8277 9.62799 89.991 9.39466 90.103 9.12399C90.2243 8.85333 90.285 8.55466 90.285 8.22799C90.285 7.88266 90.2243 7.58399 90.103 7.33199C89.9816 7.07066 89.8137 6.85599 89.599 6.68799C89.3843 6.51066 89.1323 6.37999 88.843 6.29599C88.5537 6.21199 88.2457 6.16999 87.919 6.16999ZM87.877 1.88599C87.597 1.88599 87.3357 1.92333 87.093 1.99799C86.8503 2.07266 86.6356 2.18466 86.449 2.33399C86.2716 2.48333 86.1317 2.66999 86.029 2.89399C85.9263 3.11799 85.875 3.37466 85.875 3.66399C85.875 3.97199 85.931 4.23799 86.043 4.46199C86.1643 4.67666 86.323 4.85399 86.519 4.99399C86.715 5.13399 86.939 5.24133 87.191 5.31599C87.443 5.38133 87.7043 5.41399 87.975 5.41399C88.2456 5.41399 88.4977 5.38133 88.731 5.31599C88.9643 5.24133 89.165 5.12466 89.333 4.96599C89.501 4.80733 89.6316 4.60666 89.725 4.36399C89.8276 4.12133 89.879 3.82266 89.879 3.46799C89.879 2.96399 89.7157 2.57666 89.389 2.30599C89.0623 2.02599 88.5583 1.88599 87.877 1.88599ZM86.351 5.69399C86.1083 5.54466 85.8983 5.40466 85.721 5.27399C85.553 5.13399 85.413 4.98466 85.301 4.82599C85.189 4.66733 85.105 4.48999 85.049 4.29399C85.0023 4.08866 84.979 3.83666 84.979 3.53799C84.979 3.20199 85.0537 2.88466 85.203 2.58599C85.3523 2.28733 85.553 2.03066 85.805 1.81599C86.057 1.59199 86.351 1.41933 86.687 1.29799C87.0323 1.17666 87.401 1.12066 87.793 1.12999C88.1663 1.12999 88.5303 1.17666 88.885 1.26999C89.249 1.36333 89.571 1.50799 89.851 1.70399C90.131 1.89999 90.355 2.15199 90.523 2.45999C90.691 2.75866 90.775 3.11799 90.775 3.53799C90.775 4.05133 90.6677 4.48999 90.453 4.85399C90.2477 5.21799 89.907 5.51666 89.431 5.74999C89.9723 5.94599 90.397 6.25866 90.705 6.68799C91.0223 7.11733 91.181 7.62133 91.181 8.19999C91.181 8.68533 91.097 9.11466 90.929 9.48799C90.7703 9.86133 90.537 10.174 90.229 10.426C89.9303 10.678 89.5663 10.8693 89.137 11C88.7077 11.1307 88.2317 11.196 87.709 11.196C87.3543 11.196 86.9903 11.1353 86.617 11.014C86.253 10.8927 85.9217 10.7107 85.623 10.468C85.3337 10.2253 85.0956 9.92199 84.909 9.55799C84.7223 9.19399 84.629 8.76933 84.629 8.28399C84.629 7.69599 84.7736 7.17333 85.063 6.71599C85.3616 6.24933 85.791 5.90866 86.351 5.69399Z" fill="black"/>
<path d="M95.8943 6.92599V7.79399H92.3523V6.92599H95.8943Z" fill="black"/>
<path d="M97.4204 4.36399C97.4204 3.87866 97.4951 3.43999 97.6444 3.04799C97.7937 2.64666 98.0084 2.30599 98.2884 2.02599C98.5684 1.73666 98.9044 1.51733 99.2964 1.36799C99.6977 1.20933 100.141 1.12999 100.626 1.12999C101.121 1.12999 101.555 1.20466 101.928 1.35399C102.311 1.49399 102.628 1.68533 102.88 1.92799C103.142 2.17066 103.338 2.45999 103.468 2.79599C103.599 3.13199 103.664 3.48666 103.664 3.85999C103.664 4.29866 103.59 4.68599 103.44 5.02199C103.3 5.35799 103.109 5.65666 102.866 5.91799C102.633 6.17933 102.362 6.41266 102.054 6.61799C101.756 6.82333 101.448 7.01933 101.13 7.20599C100.813 7.38333 100.5 7.55599 100.192 7.72399C99.8844 7.89199 99.6091 8.06933 99.3664 8.25599C99.2077 8.37733 99.0537 8.50799 98.9044 8.64799C98.7551 8.77866 98.6197 8.92333 98.4984 9.08199C98.3771 9.24066 98.2791 9.41799 98.2044 9.61399C98.1297 9.80066 98.0877 10.0107 98.0784 10.244H103.58V11L97.1264 11C97.1357 10.524 97.1871 10.0947 97.2804 9.71199C97.3737 9.32933 97.5791 8.95599 97.8964 8.59199C98.2417 8.19999 98.5964 7.86399 98.9604 7.58399C99.3337 7.30399 99.6977 7.05666 100.052 6.84199C100.407 6.61799 100.743 6.41733 101.06 6.23999C101.378 6.05333 101.658 5.85266 101.9 5.63799C102.143 5.42333 102.334 5.18066 102.474 4.90999C102.614 4.63933 102.684 4.30799 102.684 3.91599C102.684 3.59866 102.628 3.31399 102.516 3.06199C102.404 2.80999 102.25 2.59533 102.054 2.41799C101.858 2.24066 101.63 2.10999 101.368 2.02599C101.107 1.93266 100.822 1.88599 100.514 1.88599C100.188 1.88599 99.8891 1.95599 99.6184 2.09599C99.3571 2.22666 99.1284 2.40399 98.9324 2.62799C98.7457 2.85199 98.6011 3.11333 98.4984 3.41199C98.3957 3.71066 98.3537 4.02799 98.3724 4.36399H97.4204Z" fill="black"/>
<path d="M105.886 8.82999C105.988 9.36199 106.194 9.76333 106.502 10.034C106.819 10.3047 107.253 10.44 107.804 10.44C108.392 10.44 108.858 10.2953 109.204 10.006C109.558 9.71666 109.829 9.35266 110.016 8.91399C110.212 8.47533 110.342 8.00399 110.408 7.49999C110.482 6.98666 110.529 6.50599 110.548 6.05799L110.52 6.02999C110.221 6.53399 109.848 6.91666 109.4 7.17799C108.961 7.43933 108.448 7.56999 107.86 7.56999C107.393 7.56999 106.973 7.49533 106.6 7.34599C106.226 7.19666 105.904 6.98199 105.634 6.70199C105.372 6.42199 105.167 6.08599 105.018 5.69399C104.878 5.30199 104.808 4.86799 104.808 4.39199C104.808 3.92533 104.873 3.49599 105.004 3.10399C105.134 2.70266 105.33 2.35733 105.592 2.06799C105.853 1.76933 106.18 1.54066 106.572 1.38199C106.973 1.21399 107.444 1.12999 107.986 1.12999C108.648 1.12999 109.199 1.26066 109.638 1.52199C110.086 1.78333 110.44 2.13799 110.702 2.58599C110.972 3.03399 111.164 3.56133 111.276 4.16799C111.388 4.77466 111.444 5.42333 111.444 6.11399C111.444 6.95399 111.355 7.69133 111.178 8.32599C111 8.95133 110.748 9.47866 110.422 9.90799C110.104 10.3373 109.726 10.6593 109.288 10.874C108.849 11.0887 108.368 11.196 107.846 11.196C107.463 11.196 107.104 11.1493 106.768 11.056C106.432 10.9627 106.138 10.818 105.886 10.622C105.634 10.426 105.428 10.1787 105.27 9.87999C105.111 9.58133 105.013 9.23133 104.976 8.82999H105.886ZM107.986 1.88599C107.23 1.90466 106.66 2.13799 106.278 2.58599C105.895 3.03399 105.704 3.64533 105.704 4.41999C105.704 5.17599 105.9 5.76399 106.292 6.18399C106.693 6.60399 107.258 6.81399 107.986 6.81399C108.331 6.81399 108.639 6.74866 108.91 6.61799C109.19 6.48733 109.423 6.30999 109.61 6.08599C109.806 5.86199 109.95 5.60533 110.044 5.31599C110.146 5.01733 110.198 4.69999 110.198 4.36399C110.198 3.63599 110.002 3.04799 109.61 2.59999C109.218 2.14266 108.676 1.90466 107.986 1.88599Z" fill="black"/>
<path d="M9.04331 29.656H9.07131L11.2693 20.92H12.2493L9.60331 31H8.55331L6.21531 22.096H6.18731L3.84931 31H2.79931L0.195312 20.92H1.14731L3.31731 29.656H3.34531L5.68331 20.92H6.74731L9.04331 29.656Z" fill="black"/>
<path d="M21.4847 29.656H21.5127L23.7107 20.92H24.6907L22.0447 31H20.9947L18.6567 22.096H18.6287L16.2907 31H15.2407L12.6367 20.92H13.5887L15.7587 29.656H15.7867L18.1247 20.92H19.1887L21.4847 29.656Z" fill="black"/>
<path d="M33.9261 29.656H33.9541L36.1521 20.92H37.1321L34.4861 31H33.4361L31.0981 22.096H31.0701L28.7321 31H27.6821L25.0781 20.92H26.0301L28.2001 29.656H28.2281L30.5661 20.92H31.6301L33.9261 29.656Z" fill="black"/>
<path d="M37.7125 31V29.768H38.7345V31H37.7125Z" fill="black"/>
<path d="M45.1134 31V20.92H51.6094V21.732H46.0654V25.372H51.1054V26.184H46.0654V31H45.1134Z" fill="black"/>
<path d="M53.3267 31V20.92H54.2787V31H53.3267Z" fill="black"/>
<path d="M60.7932 25.61C61.1479 25.61 61.4746 25.5727 61.7732 25.498C62.0812 25.4233 62.3472 25.3067 62.5712 25.148C62.7952 24.98 62.9726 24.77 63.1032 24.518C63.2339 24.266 63.2992 23.9627 63.2992 23.608C63.2992 23.2347 63.2292 22.9267 63.0892 22.684C62.9586 22.4413 62.7766 22.25 62.5432 22.11C62.3192 21.97 62.0579 21.872 61.7592 21.816C61.4699 21.76 61.1666 21.732 60.8492 21.732H57.8252V25.61H60.7932ZM57.8252 26.422V31H56.8732V20.92H60.8212C61.9319 20.92 62.7812 21.13 63.3692 21.55C63.9572 21.9607 64.2512 22.6327 64.2512 23.566C64.2512 24.2007 64.1206 24.7047 63.8592 25.078C63.6072 25.4513 63.1919 25.7687 62.6132 26.03C62.9119 26.1327 63.1452 26.282 63.3132 26.478C63.4812 26.674 63.6072 26.898 63.6912 27.15C63.7752 27.402 63.8266 27.668 63.8452 27.948C63.8732 28.228 63.8919 28.4987 63.9012 28.76C63.9106 29.1427 63.9246 29.46 63.9432 29.712C63.9712 29.964 63.9992 30.1693 64.0272 30.328C64.0646 30.4867 64.1066 30.6127 64.1532 30.706C64.1999 30.79 64.2559 30.8553 64.3212 30.902V31H63.2712C63.1686 30.832 63.0939 30.5987 63.0472 30.3C63.0099 30.0013 62.9772 29.6887 62.9492 29.362C62.9306 29.0353 62.9119 28.718 62.8932 28.41C62.8839 28.102 62.8606 27.85 62.8232 27.654C62.7672 27.3833 62.6739 27.1687 62.5432 27.01C62.4219 26.842 62.2726 26.716 62.0952 26.632C61.9179 26.548 61.7172 26.492 61.4932 26.464C61.2786 26.436 61.0546 26.422 60.8212 26.422H57.8252Z" fill="black"/>
<path d="M66.2251 31V20.92H72.9311V21.732H67.1771V25.372H72.3711V26.184H67.1771V30.188H73.0711V31H66.2251Z" fill="black"/>
<path d="M1.09131 51L1.09131 40.92H4.77331C5.42665 40.92 5.96331 40.9947 6.38331 41.144C6.81265 41.2933 7.14865 41.4987 7.39131 41.76C7.64331 42.0213 7.81598 42.3247 7.90931 42.67C8.01198 43.006 8.06331 43.3607 8.06331 43.734C8.06331 44.294 7.94665 44.756 7.71331 45.12C7.48931 45.484 7.19531 45.7733 6.83131 45.988C6.46731 46.1933 6.05198 46.338 5.58531 46.422C5.12798 46.506 4.66598 46.548 4.19931 46.548H2.04331L2.04331 51H1.09131ZM4.22731 45.736C4.67531 45.736 5.07665 45.708 5.43131 45.652C5.78598 45.596 6.08465 45.4933 6.32731 45.344C6.57931 45.1853 6.77065 44.9753 6.90131 44.714C7.04131 44.4433 7.11131 44.0933 7.11131 43.664C7.11131 43.0293 6.90131 42.5487 6.48131 42.222C6.07065 41.8953 5.41265 41.732 4.50731 41.732H2.04331V45.736H4.22731Z" fill="black"/>
<path d="M13.5979 45.61C13.9526 45.61 14.2792 45.5727 14.5779 45.498C14.8859 45.4233 15.1519 45.3067 15.3759 45.148C15.5999 44.98 15.7772 44.77 15.9079 44.518C16.0386 44.266 16.1039 43.9627 16.1039 43.608C16.1039 43.2347 16.0339 42.9267 15.8939 42.684C15.7632 42.4413 15.5812 42.25 15.3479 42.11C15.1239 41.97 14.8626 41.872 14.5639 41.816C14.2746 41.76 13.9712 41.732 13.6539 41.732H10.6299V45.61H13.5979ZM10.6299 46.422V51H9.67791L9.67791 40.92H13.6259C14.7366 40.92 15.5859 41.13 16.1739 41.55C16.7619 41.9607 17.0559 42.6327 17.0559 43.566C17.0559 44.2007 16.9252 44.7047 16.6639 45.078C16.4119 45.4513 15.9966 45.7687 15.4179 46.03C15.7166 46.1327 15.9499 46.282 16.1179 46.478C16.2859 46.674 16.4119 46.898 16.4959 47.15C16.5799 47.402 16.6312 47.668 16.6499 47.948C16.6779 48.228 16.6966 48.4987 16.7059 48.76C16.7152 49.1427 16.7292 49.46 16.7479 49.712C16.7759 49.964 16.8039 50.1693 16.8319 50.328C16.8692 50.4867 16.9112 50.6127 16.9579 50.706C17.0046 50.79 17.0606 50.8553 17.1259 50.902V51H16.0759C15.9732 50.832 15.8986 50.5987 15.8519 50.3C15.8146 50.0013 15.7819 49.6887 15.7539 49.362C15.7352 49.0353 15.7166 48.718 15.6979 48.41C15.6886 48.102 15.6652 47.85 15.6279 47.654C15.5719 47.3833 15.4786 47.1687 15.3479 47.01C15.2266 46.842 15.0772 46.716 14.8999 46.632C14.7226 46.548 14.5219 46.492 14.2979 46.464C14.0832 46.436 13.8592 46.422 13.6259 46.422H10.6299Z" fill="black"/>
<path d="M19.0298 51V40.92H25.7358V41.732H19.9818V45.372H25.1758V46.184H19.9818V50.188H25.8758V51H19.0298Z" fill="black"/>
<path d="M27.9804 47.99C28.0177 48.438 28.1157 48.8207 28.2744 49.138C28.4424 49.446 28.6524 49.698 28.9044 49.894C29.1657 50.09 29.4644 50.2347 29.8004 50.328C30.1364 50.412 30.4957 50.454 30.8784 50.454C31.3264 50.454 31.7137 50.398 32.0404 50.286C32.3671 50.174 32.6331 50.0247 32.8384 49.838C33.0437 49.642 33.1931 49.418 33.2864 49.166C33.3891 48.914 33.4404 48.648 33.4404 48.368C33.4404 47.976 33.3517 47.6587 33.1744 47.416C32.9971 47.1733 32.7637 46.9773 32.4744 46.828C32.1944 46.6693 31.8677 46.5433 31.4944 46.45C31.1304 46.3567 30.7524 46.268 30.3604 46.184C29.9777 46.0907 29.5997 45.9833 29.2264 45.862C28.8624 45.7407 28.5357 45.5773 28.2464 45.372C27.9664 45.1667 27.7377 44.9053 27.5604 44.588C27.3831 44.2613 27.2944 43.8507 27.2944 43.356C27.2944 43.0107 27.3644 42.6747 27.5044 42.348C27.6537 42.0213 27.8684 41.732 28.1484 41.48C28.4377 41.228 28.7971 41.0273 29.2264 40.878C29.6557 40.7287 30.1504 40.654 30.7104 40.654C31.2797 40.654 31.7744 40.7333 32.1944 40.892C32.6237 41.0507 32.9784 41.27 33.2584 41.55C33.5384 41.8207 33.7484 42.138 33.8884 42.502C34.0284 42.866 34.0984 43.2533 34.0984 43.664H33.1884C33.1884 43.2813 33.1184 42.95 32.9784 42.67C32.8477 42.39 32.6657 42.1613 32.4324 41.984C32.1991 41.8067 31.9331 41.676 31.6344 41.592C31.3357 41.508 31.0277 41.466 30.7104 41.466C30.2251 41.466 29.8144 41.536 29.4784 41.676C29.1517 41.8067 28.8904 41.9793 28.6944 42.194C28.4984 42.4087 28.3631 42.6467 28.2884 42.908C28.2137 43.1693 28.1997 43.4307 28.2464 43.692C28.3024 44.0187 28.4331 44.28 28.6384 44.476C28.8437 44.672 29.0957 44.8353 29.3944 44.966C29.6931 45.0873 30.0197 45.19 30.3744 45.274C30.7384 45.3487 31.1071 45.4327 31.4804 45.526C31.8537 45.61 32.2131 45.7127 32.5584 45.834C32.9131 45.9553 33.2257 46.1187 33.4964 46.324C33.7671 46.5293 33.9817 46.7953 34.1404 47.122C34.3084 47.4393 34.3924 47.8407 34.3924 48.326C34.3924 49.2593 34.0704 49.9827 33.4264 50.496C32.7824 51.0093 31.8771 51.266 30.7104 51.266C30.1877 51.266 29.7024 51.196 29.2544 51.056C28.8064 50.9253 28.4191 50.7247 28.0924 50.454C27.7657 50.174 27.5091 49.8333 27.3224 49.432C27.1451 49.0213 27.0564 48.5407 27.0564 47.99H27.9804Z" fill="black"/>
<path d="M36.539 47.99C36.5763 48.438 36.6743 48.8207 36.833 49.138C37.001 49.446 37.211 49.698 37.463 49.894C37.7243 50.09 38.023 50.2347 38.359 50.328C38.695 50.412 39.0543 50.454 39.437 50.454C39.885 50.454 40.2723 50.398 40.599 50.286C40.9257 50.174 41.1917 50.0247 41.397 49.838C41.6023 49.642 41.7517 49.418 41.845 49.166C41.9477 48.914 41.999 48.648 41.999 48.368C41.999 47.976 41.9103 47.6587 41.733 47.416C41.5557 47.1733 41.3223 46.9773 41.033 46.828C40.753 46.6693 40.4263 46.5433 40.053 46.45C39.689 46.3567 39.311 46.268 38.919 46.184C38.5363 46.0907 38.1583 45.9833 37.785 45.862C37.421 45.7407 37.0943 45.5773 36.805 45.372C36.525 45.1667 36.2963 44.9053 36.119 44.588C35.9417 44.2613 35.853 43.8507 35.853 43.356C35.853 43.0107 35.923 42.6747 36.063 42.348C36.2123 42.0213 36.427 41.732 36.707 41.48C36.9963 41.228 37.3557 41.0273 37.785 40.878C38.2143 40.7287 38.709 40.654 39.269 40.654C39.8383 40.654 40.333 40.7333 40.753 40.892C41.1823 41.0507 41.537 41.27 41.817 41.55C42.097 41.8207 42.307 42.138 42.447 42.502C42.587 42.866 42.657 43.2533 42.657 43.664H41.747C41.747 43.2813 41.677 42.95 41.537 42.67C41.4063 42.39 41.2243 42.1613 40.991 41.984C40.7577 41.8067 40.4917 41.676 40.193 41.592C39.8943 41.508 39.5863 41.466 39.269 41.466C38.7837 41.466 38.373 41.536 38.037 41.676C37.7103 41.8067 37.449 41.9793 37.253 42.194C37.057 42.4087 36.9217 42.6467 36.847 42.908C36.7723 43.1693 36.7583 43.4307 36.805 43.692C36.861 44.0187 36.9917 44.28 37.197 44.476C37.4023 44.672 37.6543 44.8353 37.953 44.966C38.2517 45.0873 38.5783 45.19 38.933 45.274C39.297 45.3487 39.6657 45.4327 40.039 45.526C40.4123 45.61 40.7717 45.7127 41.117 45.834C41.4717 45.9553 41.7843 46.1187 42.055 46.324C42.3257 46.5293 42.5403 46.7953 42.699 47.122C42.867 47.4393 42.951 47.8407 42.951 48.326C42.951 49.2593 42.629 49.9827 41.985 50.496C41.341 51.0093 40.4357 51.266 39.269 51.266C38.7463 51.266 38.261 51.196 37.813 51.056C37.365 50.9253 36.9777 50.7247 36.651 50.454C36.3243 50.174 36.0677 49.8333 35.881 49.432C35.7037 49.0213 35.615 48.5407 35.615 47.99H36.539Z" fill="black"/>
<path d="M44.9996 51V49.768H46.0216V51H44.9996Z" fill="black"/>
<path d="M55.7561 43.846C55.5601 42.9873 55.1961 42.376 54.6641 42.012C54.1321 41.648 53.4367 41.466 52.5781 41.466C51.9714 41.466 51.4487 41.5873 51.0101 41.83C50.5714 42.0727 50.2074 42.3993 49.9181 42.81C49.6381 43.2207 49.4281 43.6967 49.2881 44.238C49.1574 44.77 49.0921 45.3347 49.0921 45.932C49.0921 46.492 49.1481 47.0427 49.2601 47.584C49.3814 48.1253 49.5774 48.6107 49.8481 49.04C50.1187 49.46 50.4827 49.8007 50.9401 50.062C51.3974 50.3233 51.9714 50.454 52.6621 50.454C53.0914 50.454 53.4834 50.384 53.8381 50.244C54.1927 50.104 54.5007 49.9127 54.7621 49.67C55.0327 49.418 55.2567 49.124 55.4341 48.788C55.6207 48.452 55.7607 48.0833 55.8541 47.682H56.8481C56.7361 48.1673 56.5727 48.6293 56.3581 49.068C56.1434 49.4973 55.8587 49.8753 55.5041 50.202C55.1587 50.5287 54.7341 50.79 54.2301 50.986C53.7354 51.1727 53.1521 51.266 52.4801 51.266C51.7054 51.266 51.0427 51.126 50.4921 50.846C49.9414 50.5567 49.4887 50.1693 49.1341 49.684C48.7887 49.1987 48.5367 48.6387 48.3781 48.004C48.2194 47.36 48.1401 46.6787 48.1401 45.96C48.1401 44.9987 48.2567 44.182 48.4901 43.51C48.7327 42.838 49.0641 42.292 49.4841 41.872C49.9041 41.4427 50.3987 41.1347 50.9681 40.948C51.5374 40.752 52.1581 40.654 52.8301 40.654C53.3434 40.654 53.8194 40.724 54.2581 40.864C54.7061 40.9947 55.0981 41.1953 55.4341 41.466C55.7794 41.7367 56.0594 42.0727 56.2741 42.474C56.4981 42.866 56.6521 43.3233 56.7361 43.846H55.7561Z" fill="black"/>
<path d="M58.3136 45.974C58.3136 45.2367 58.4116 44.546 58.6076 43.902C58.8129 43.258 59.1116 42.698 59.5036 42.222C59.8956 41.7367 60.3809 41.354 60.9596 41.074C61.5382 40.794 62.2056 40.654 62.9616 40.654C63.7456 40.654 64.4316 40.794 65.0196 41.074C65.6169 41.3447 66.1116 41.7227 66.5036 42.208C66.9049 42.684 67.2036 43.2487 67.3996 43.902C67.6049 44.546 67.7076 45.2367 67.7076 45.974C67.7076 46.702 67.6049 47.388 67.3996 48.032C67.2036 48.6667 66.9096 49.2267 66.5176 49.712C66.1256 50.188 65.6356 50.566 65.0476 50.846C64.4596 51.126 63.7782 51.266 63.0036 51.266C62.2289 51.266 61.5476 51.126 60.9596 50.846C60.3716 50.566 59.8816 50.188 59.4896 49.712C59.0976 49.2267 58.8036 48.6667 58.6076 48.032C58.4116 47.388 58.3136 46.702 58.3136 45.974ZM63.0176 50.454C63.6709 50.454 64.2309 50.3327 64.6976 50.09C65.1736 49.838 65.5609 49.5067 65.8596 49.096C66.1676 48.6853 66.3916 48.2093 66.5316 47.668C66.6809 47.1267 66.7556 46.562 66.7556 45.974C66.7556 45.274 66.6669 44.6487 66.4896 44.098C66.3216 43.538 66.0742 43.062 65.7476 42.67C65.4209 42.278 65.0242 41.9793 64.5576 41.774C64.0909 41.5687 63.5682 41.466 62.9896 41.466C62.3456 41.466 61.7856 41.592 61.3096 41.844C60.8429 42.096 60.4556 42.432 60.1476 42.852C59.8489 43.2627 59.6249 43.7387 59.4756 44.28C59.3356 44.8213 59.2656 45.386 59.2656 45.974C59.2656 46.5713 59.3356 47.1407 59.4756 47.682C59.6249 48.2233 59.8489 48.6993 60.1476 49.11C60.4556 49.5207 60.8429 49.8473 61.3096 50.09C61.7856 50.3327 62.3549 50.454 63.0176 50.454Z" fill="black"/>
<path d="M69.5601 51V40.92H71.0161L74.3201 49.81H74.3481L77.5961 40.92H79.0381V51H78.0861V42.012H78.0581L74.7541 51H73.8581L70.5401 42.012H70.5121V51H69.5601Z" fill="black"/>
<path d="M84.7687 52.26H83.9847L87.2747 40.654H88.0587L84.7687 52.26Z" fill="black"/>
<path d="M1.00731 61.004H5.23531C5.65531 61.004 6.05665 61.046 6.43931 61.13C6.83131 61.2047 7.17198 61.34 7.46131 61.536C7.75998 61.7227 7.99798 61.9747 8.17531 62.292C8.35265 62.6 8.44131 62.9873 8.44131 63.454C8.44131 63.7153 8.39931 63.972 8.31531 64.224C8.23131 64.4667 8.10998 64.6907 7.95131 64.896C7.80198 65.092 7.61998 65.26 7.40531 65.4C7.19998 65.54 6.96665 65.638 6.70531 65.694V65.722C7.34931 65.806 7.86265 66.072 8.24531 66.52C8.62798 66.9587 8.81931 67.5047 8.81931 68.158C8.81931 68.4007 8.78198 68.6853 8.70731 69.012C8.64198 69.3293 8.48798 69.6373 8.24531 69.936C8.00265 70.2347 7.64331 70.4867 7.16731 70.692C6.69131 70.8973 6.04731 71 5.23531 71H1.00731L1.00731 61.004ZM5.23531 70.188C5.58998 70.188 5.92598 70.16 6.24331 70.104C6.56065 70.0387 6.84065 69.9267 7.08331 69.768C7.32598 69.6093 7.51731 69.3993 7.65731 69.138C7.79731 68.8767 7.86731 68.5407 7.86731 68.13C7.86731 67.486 7.63865 67.0053 7.18131 66.688C6.73331 66.3613 6.08465 66.198 5.23531 66.198H1.95931V70.188H5.23531ZM5.23531 65.386C5.60865 65.386 5.93531 65.344 6.21531 65.26C6.50465 65.1667 6.74265 65.0453 6.92931 64.896C7.11598 64.7373 7.25598 64.5553 7.34931 64.35C7.44265 64.1447 7.48931 63.9253 7.48931 63.692C7.48931 62.4413 6.73798 61.816 5.23531 61.816H1.95931V65.386H5.23531Z" fill="black"/>
<path d="M11.2692 71.112C11.0452 71.112 10.8399 71.098 10.6532 71.07C10.4759 71.042 10.3359 71.0093 10.2332 70.972V70.132C10.3545 70.1787 10.4992 70.2207 10.6672 70.258C10.8352 70.286 11.0312 70.3 11.2552 70.3C11.6099 70.3 11.9039 70.188 12.1372 69.964C12.3799 69.74 12.6132 69.39 12.8372 68.914L12.9632 68.648L9.2532 61.004H10.2752L13.5232 67.64L16.6872 61.004H17.6952L13.7612 69.152C13.5559 69.5813 13.3552 69.9267 13.1592 70.188C12.9632 70.44 12.7625 70.636 12.5572 70.776C12.3612 70.916 12.1559 71.0047 11.9412 71.042C11.7359 71.0887 11.5119 71.112 11.2692 71.112Z" fill="black"/>
<path d="M18.3237 71.084C18.2677 71.084 18.1977 71.0793 18.1137 71.07C18.039 71.0607 17.9597 71.0513 17.8757 71.042C17.7917 71.0327 17.717 71.0187 17.6517 71C17.5863 70.9907 17.5397 70.9813 17.5117 70.972V70.16C17.5863 70.1973 17.6983 70.2253 17.8477 70.244C18.0063 70.2533 18.123 70.258 18.1977 70.258C18.3003 70.258 18.4217 70.2487 18.5617 70.23C18.7017 70.202 18.8463 70.118 18.9957 69.978C19.1543 69.8287 19.3083 69.6 19.4577 69.292C19.6163 68.9747 19.7517 68.5267 19.8637 67.948C19.985 67.36 20.083 66.618 20.1577 65.722C20.2323 64.826 20.2697 63.7247 20.2697 62.418V61.004H26.4157V71H25.4637V61.816H21.1937V62.362C21.1937 63.818 21.147 65.0453 21.0537 66.044C20.9603 67.0333 20.8343 67.8547 20.6757 68.508C20.517 69.152 20.335 69.6513 20.1297 70.006C19.9337 70.3513 19.7283 70.6033 19.5137 70.762C19.3083 70.9207 19.0983 71.014 18.8837 71.042C18.6783 71.07 18.4917 71.084 18.3237 71.084Z" fill="black"/>
<path d="M28.4331 61.004H29.3851V66.38L35.1951 61.004H36.4831L32.0171 65.134L36.6931 71H35.4611L31.3031 65.792L29.3851 67.57V71H28.4331V61.004Z" fill="black"/>
<path d="M40.4372 61.004H41.5012L45.4212 71H44.3992L43.1812 67.892H38.6312L37.4272 71H36.4192L40.4372 61.004ZM42.8592 67.08L40.9272 61.956L38.9252 67.08H42.8592Z" fill="black"/>
<path d="M46.3296 61.004H47.2816V65.344H53.2176V61.004H54.1696V71H53.2176V66.156H47.2816V71H46.3296V61.004Z" fill="black"/>
<path d="M60.0835 61.004H61.0355V66.38L66.8455 61.004H68.1335L63.6675 65.134L68.3435 71H67.1115L62.9535 65.792L61.0355 67.57V71H60.0835V61.004Z" fill="black"/>
<path d="M69.1616 61.004H73.5996C74.0476 61.004 74.4536 61.0693 74.8176 61.2C75.1816 61.3213 75.4943 61.508 75.7556 61.76C76.0169 62.0027 76.2176 62.3013 76.3576 62.656C76.4976 63.0107 76.5676 63.412 76.5676 63.86C76.5676 64.308 76.4976 64.7093 76.3576 65.064C76.2176 65.4187 76.0169 65.722 75.7556 65.974C75.4943 66.2167 75.1816 66.4033 74.8176 66.534C74.4536 66.6553 74.0476 66.716 73.5996 66.716H70.1136V71H69.1616V61.004ZM73.3896 65.904C74.0523 65.904 74.5889 65.736 74.9996 65.4C75.4103 65.064 75.6156 64.5507 75.6156 63.86C75.6156 63.1693 75.4103 62.656 74.9996 62.32C74.5889 61.984 74.0523 61.816 73.3896 61.816H70.1136V65.904H73.3896Z" fill="black"/>
<path d="M80.906 61.004H81.97L85.89 71H84.868L83.65 67.892H79.1L77.896 71H76.888L80.906 61.004ZM83.328 67.08L81.396 61.956L79.394 67.08H83.328Z" fill="black"/>
<path d="M86.7983 61.004L87.7503 61.004V66.38L93.5603 61.004H94.8483L90.3823 65.134L95.0583 71H93.8263L89.6683 65.792L87.7503 67.57V71H86.7983V61.004Z" fill="black"/>
<path d="M98.8025 61.004H99.8665L103.786 71H102.764L101.546 67.892H96.9965L95.7924 71H94.7845L98.8025 61.004ZM101.224 67.08L99.2924 61.956L97.2905 67.08H101.224Z" fill="black"/>
<path d="M107.103 61.816H103.631V61.004H111.541L111.541 61.816H108.055V71H107.103V61.816Z" fill="black"/>
<path d="M115.4 61.004H116.464L120.384 71H119.362L118.144 67.892H113.594L112.39 71H111.382L115.4 61.004ZM117.822 67.08L115.89 61.956L113.888 67.08H117.822Z" fill="black"/>
<path d="M122.216 71.112C121.992 71.112 121.787 71.098 121.6 71.07C121.423 71.042 121.283 71.0093 121.18 70.972V70.132C121.302 70.1787 121.446 70.2207 121.614 70.258C121.782 70.286 121.978 70.3 122.202 70.3C122.557 70.3 122.851 70.188 123.084 69.964C123.327 69.74 123.56 69.39 123.784 68.914L123.91 68.648L120.2 61.004H121.222L124.47 67.64L127.634 61.004H128.642L124.708 69.152C124.503 69.5813 124.302 69.9267 124.106 70.188C123.91 70.44 123.71 70.636 123.504 70.776C123.308 70.916 123.103 71.0047 122.888 71.042C122.683 71.0887 122.459 71.112 122.216 71.112Z" fill="black"/>
<path d="M130.965 71.42C130.965 71.8307 130.867 72.1573 130.671 72.4C130.484 72.652 130.242 72.8247 129.943 72.918V72.4C130.055 72.3253 130.162 72.2227 130.265 72.092C130.368 71.9613 130.419 71.756 130.419 71.476V71H129.943V69.768H130.965V71.42Z" fill="black"/>
<path d="M1.00731 81.004H1.95931V86.38L7.76931 81.004H9.05731L4.59131 85.134L9.26731 91H8.03531L3.87731 85.792L1.95931 87.57V91H1.00731L1.00731 81.004Z" fill="black"/>
<path d="M10.5054 91V89.768H11.5274V91H10.5054Z" fill="black"/>
<path d="M13.9399 84.364C13.9399 83.8787 14.0146 83.44 14.1639 83.048C14.3133 82.6467 14.5279 82.306 14.8079 82.026C15.0879 81.7367 15.4239 81.5173 15.8159 81.368C16.2173 81.2093 16.6606 81.13 17.1459 81.13C17.6406 81.13 18.0746 81.2047 18.4479 81.354C18.8306 81.494 19.1479 81.6853 19.3999 81.928C19.6613 82.1707 19.8573 82.46 19.9879 82.796C20.1186 83.132 20.1839 83.4867 20.1839 83.86C20.1839 84.2987 20.1093 84.686 19.9599 85.022C19.8199 85.358 19.6286 85.6567 19.3859 85.918C19.1526 86.1793 18.8819 86.4127 18.5739 86.618C18.2753 86.8233 17.9673 87.0193 17.6499 87.206C17.3326 87.3833 17.0199 87.556 16.7119 87.724C16.4039 87.892 16.1286 88.0693 15.8859 88.256C15.7273 88.3773 15.5733 88.508 15.4239 88.648C15.2746 88.7787 15.1393 88.9233 15.0179 89.082C14.8966 89.2407 14.7986 89.418 14.7239 89.614C14.6493 89.8007 14.6073 90.0107 14.5979 90.244H20.0999V91H13.6459C13.6553 90.524 13.7066 90.0947 13.7999 89.712C13.8933 89.3293 14.0986 88.956 14.4159 88.592C14.7613 88.2 15.1159 87.864 15.4799 87.584C15.8533 87.304 16.2173 87.0567 16.5719 86.842C16.9266 86.618 17.2626 86.4173 17.5799 86.24C17.8973 86.0533 18.1773 85.8527 18.4199 85.638C18.6626 85.4233 18.8539 85.1807 18.9939 84.91C19.1339 84.6393 19.2039 84.308 19.2039 83.916C19.2039 83.5987 19.1479 83.314 19.0359 83.062C18.9239 82.81 18.7699 82.5953 18.5739 82.418C18.3779 82.2407 18.1493 82.11 17.8879 82.026C17.6266 81.9327 17.3419 81.886 17.0339 81.886C16.7073 81.886 16.4086 81.956 16.1379 82.096C15.8766 82.2267 15.6479 82.404 15.4519 82.628C15.2653 82.852 15.1206 83.1133 15.0179 83.412C14.9153 83.7107 14.8733 84.028 14.8919 84.364H13.9399Z" fill="black"/>
<path d="M23.2032 91.42C23.2032 91.8307 23.1052 92.1573 22.9092 92.4C22.7226 92.652 22.4799 92.8247 22.1812 92.918V92.4C22.2932 92.3253 22.4006 92.2227 22.5032 92.092C22.6059 91.9613 22.6572 91.756 22.6572 91.476V91H22.1812V89.768H23.2032V91.42Z" fill="black"/>
<path d="M29.3722 81.228H35.6582V82.068C34.9489 82.8707 34.3469 83.6967 33.8522 84.546C33.3575 85.386 32.9515 86.2073 32.6342 87.01C32.3169 87.8033 32.0789 88.5453 31.9202 89.236C31.7709 89.9267 31.6822 90.5147 31.6542 91H30.6742C30.7209 90.2907 30.8609 89.5393 31.0942 88.746C31.3369 87.9433 31.6355 87.15 31.9902 86.366C32.3449 85.582 32.7462 84.826 33.1942 84.098C33.6422 83.3607 34.1042 82.7027 34.5802 82.124H29.3722V81.228Z" fill="black"/>
<path d="M44.856 91.196C44.2773 91.196 43.75 91.112 43.274 90.944C42.798 90.776 42.3826 90.5333 42.028 90.216C41.6733 89.8987 41.3793 89.516 41.146 89.068C40.9126 88.6107 40.754 88.0973 40.67 87.528H41.608C41.6826 87.948 41.804 88.3353 41.972 88.69C42.14 89.0353 42.3593 89.3387 42.63 89.6C42.9006 89.852 43.218 90.048 43.582 90.188C43.9553 90.328 44.3753 90.398 44.842 90.398C45.3833 90.398 45.8733 90.3 46.312 90.104C46.76 89.908 47.1426 89.6327 47.46 89.278C47.7866 88.914 48.0433 88.4753 48.23 87.962C48.4166 87.4487 48.5193 86.8747 48.538 86.24H43.456V85.442H48.51C48.4633 84.8633 48.342 84.3407 48.146 83.874C47.95 83.398 47.6933 82.992 47.376 82.656C47.0586 82.32 46.6853 82.0633 46.256 81.886C45.836 81.6993 45.3693 81.606 44.856 81.606C44.0346 81.606 43.344 81.8207 42.784 82.25C42.224 82.6793 41.8646 83.272 41.706 84.028H40.754C40.81 83.524 40.964 83.0713 41.216 82.67C41.468 82.2687 41.7806 81.928 42.154 81.648C42.5273 81.368 42.9473 81.158 43.414 81.018C43.8806 80.8687 44.352 80.794 44.828 80.794C45.584 80.794 46.2513 80.9387 46.83 81.228C47.4086 81.508 47.894 81.886 48.286 82.362C48.678 82.838 48.972 83.3933 49.168 84.028C49.3733 84.6627 49.476 85.33 49.476 86.03C49.476 86.814 49.364 87.5233 49.14 88.158C48.916 88.7927 48.5986 89.3387 48.188 89.796C47.7866 90.244 47.3013 90.5893 46.732 90.832C46.172 91.0747 45.5466 91.196 44.856 91.196Z" fill="black"/>
<path d="M53.3723 81.816H49.9003V81.004H57.8103V81.816H54.3243V91H53.3723V81.816Z" fill="black"/>
<path d="M61.6696 81.004H62.7336L66.6536 91H65.6316L64.4136 87.892H59.8636L58.6596 91H57.6516L61.6696 81.004ZM64.0916 87.08L62.1596 81.956L60.1576 87.08H64.0916Z" fill="black"/>
<path d="M70.936 85.316L66.792 81.004H68.08L73.008 86.268V81.004H73.96V86.268L78.888 81.004H80.176L76.032 85.316L80.526 91H79.294L75.36 86.016L73.96 87.472V91H73.008V87.472L71.608 86.016L67.674 91H66.442L70.936 85.316Z" fill="black"/>
<path d="M1.4693 157L1.4693 146.92H2.4213V157H1.4693Z" fill="black"/>
<path d="M5.98178 148.208H5.95378V157H5.00178V146.92H6.07978L11.9038 155.726H11.9318V146.92H12.8838V157H11.7778L5.98178 148.208Z" fill="black"/>
<path d="M15.5253 153.99C15.5626 154.438 15.6606 154.821 15.8193 155.138C15.9873 155.446 16.1973 155.698 16.4493 155.894C16.7106 156.09 17.0093 156.235 17.3453 156.328C17.6813 156.412 18.0406 156.454 18.4233 156.454C18.8713 156.454 19.2586 156.398 19.5853 156.286C19.912 156.174 20.178 156.025 20.3833 155.838C20.5886 155.642 20.738 155.418 20.8313 155.166C20.934 154.914 20.9853 154.648 20.9853 154.368C20.9853 153.976 20.8966 153.659 20.7193 153.416C20.542 153.173 20.3086 152.977 20.0193 152.828C19.7393 152.669 19.4126 152.543 19.0393 152.45C18.6753 152.357 18.2973 152.268 17.9053 152.184C17.5226 152.091 17.1446 151.983 16.7713 151.862C16.4073 151.741 16.0806 151.577 15.7913 151.372C15.5113 151.167 15.2826 150.905 15.1053 150.588C14.928 150.261 14.8393 149.851 14.8393 149.356C14.8393 149.011 14.9093 148.675 15.0493 148.348C15.1986 148.021 15.4133 147.732 15.6933 147.48C15.9826 147.228 16.342 147.027 16.7713 146.878C17.2006 146.729 17.6953 146.654 18.2553 146.654C18.8246 146.654 19.3193 146.733 19.7393 146.892C20.1686 147.051 20.5233 147.27 20.8033 147.55C21.0833 147.821 21.2933 148.138 21.4333 148.502C21.5733 148.866 21.6433 149.253 21.6433 149.664H20.7333C20.7333 149.281 20.6633 148.95 20.5233 148.67C20.3926 148.39 20.2106 148.161 19.9773 147.984C19.744 147.807 19.478 147.676 19.1793 147.592C18.8806 147.508 18.5726 147.466 18.2553 147.466C17.77 147.466 17.3593 147.536 17.0233 147.676C16.6966 147.807 16.4353 147.979 16.2393 148.194C16.0433 148.409 15.908 148.647 15.8333 148.908C15.7586 149.169 15.7446 149.431 15.7913 149.692C15.8473 150.019 15.978 150.28 16.1833 150.476C16.3886 150.672 16.6406 150.835 16.9393 150.966C17.238 151.087 17.5646 151.19 17.9193 151.274C18.2833 151.349 18.652 151.433 19.0253 151.526C19.3986 151.61 19.758 151.713 20.1033 151.834C20.458 151.955 20.7706 152.119 21.0413 152.324C21.312 152.529 21.5266 152.795 21.6853 153.122C21.8533 153.439 21.9373 153.841 21.9373 154.326C21.9373 155.259 21.6153 155.983 20.9713 156.496C20.3273 157.009 19.422 157.266 18.2553 157.266C17.7326 157.266 17.2473 157.196 16.7993 157.056C16.3513 156.925 15.964 156.725 15.6373 156.454C15.3106 156.174 15.054 155.833 14.8673 155.432C14.69 155.021 14.6013 154.541 14.6013 153.99H15.5253Z" fill="black"/>
<path d="M22.7819 146.92H30.1179V147.732H26.9259V157H25.9739V147.732H22.7819V146.92Z" fill="black"/>
<path d="M30.2066 157V155.768H31.2286V157H30.2066ZM30.2066 151.344V150.112H31.2286V151.344H30.2066Z" fill="black"/>
<path d="M33.7111 157V146.92H40.2071V147.732H34.6631V151.372H39.7031V152.184H34.6631V157H33.7111Z" fill="black"/>
<path d="M41.9244 157V146.92H42.8764V157H41.9244Z" fill="black"/>
<path d="M49.3909 151.61C49.7455 151.61 50.0722 151.573 50.3709 151.498C50.6789 151.423 50.9449 151.307 51.1689 151.148C51.3929 150.98 51.5702 150.77 51.7009 150.518C51.8315 150.266 51.8969 149.963 51.8969 149.608C51.8969 149.235 51.8269 148.927 51.6869 148.684C51.5562 148.441 51.3742 148.25 51.1409 148.11C50.9169 147.97 50.6555 147.872 50.3569 147.816C50.0675 147.76 49.7642 147.732 49.4469 147.732H46.4229V151.61H49.3909ZM46.4229 152.422V157H45.4709V146.92H49.4189C50.5295 146.92 51.3789 147.13 51.9669 147.55C52.5549 147.961 52.8489 148.633 52.8489 149.566C52.8489 150.201 52.7182 150.705 52.4569 151.078C52.2049 151.451 51.7895 151.769 51.2109 152.03C51.5095 152.133 51.7429 152.282 51.9109 152.478C52.0789 152.674 52.2049 152.898 52.2889 153.15C52.3729 153.402 52.4242 153.668 52.4429 153.948C52.4709 154.228 52.4895 154.499 52.4989 154.76C52.5082 155.143 52.5222 155.46 52.5409 155.712C52.5689 155.964 52.5969 156.169 52.6249 156.328C52.6622 156.487 52.7042 156.613 52.7509 156.706C52.7975 156.79 52.8535 156.855 52.9189 156.902V157H51.8689C51.7662 156.832 51.6915 156.599 51.6449 156.3C51.6075 156.001 51.5749 155.689 51.5469 155.362C51.5282 155.035 51.5095 154.718 51.4909 154.41C51.4815 154.102 51.4582 153.85 51.4209 153.654C51.3649 153.383 51.2715 153.169 51.1409 153.01C51.0195 152.842 50.8702 152.716 50.6929 152.632C50.5155 152.548 50.3149 152.492 50.0909 152.464C49.8762 152.436 49.6522 152.422 49.4189 152.422H46.4229Z" fill="black"/>
<path d="M54.8228 157V146.92H61.5288V147.732H55.7747V151.372H60.9688V152.184H55.7747V156.188H61.6688V157H54.8228Z" fill="black"/>
<path d="M69.2473 158.05V158.75H62.2473V158.05H69.2473Z" fill="black"/>
<path d="M70.3393 157V146.92H74.0213C74.6747 146.92 75.2113 146.995 75.6313 147.144C76.0607 147.293 76.3967 147.499 76.6393 147.76C76.8913 148.021 77.064 148.325 77.1573 148.67C77.26 149.006 77.3113 149.361 77.3113 149.734C77.3113 150.294 77.1947 150.756 76.9613 151.12C76.7373 151.484 76.4433 151.773 76.0793 151.988C75.7153 152.193 75.3 152.338 74.8333 152.422C74.376 152.506 73.914 152.548 73.4473 152.548H71.2913V157H70.3393ZM73.4753 151.736C73.9233 151.736 74.3247 151.708 74.6793 151.652C75.034 151.596 75.3327 151.493 75.5753 151.344C75.8273 151.185 76.0187 150.975 76.1493 150.714C76.2893 150.443 76.3593 150.093 76.3593 149.664C76.3593 149.029 76.1493 148.549 75.7293 148.222C75.3187 147.895 74.6607 147.732 73.7553 147.732H71.2913V151.736H73.4753Z" fill="black"/>
<path d="M82.8459 151.61C83.2006 151.61 83.5273 151.573 83.8259 151.498C84.1339 151.423 84.3999 151.307 84.6239 151.148C84.8479 150.98 85.0253 150.77 85.1559 150.518C85.2866 150.266 85.3519 149.963 85.3519 149.608C85.3519 149.235 85.2819 148.927 85.1419 148.684C85.0113 148.441 84.8293 148.25 84.5959 148.11C84.3719 147.97 84.1106 147.872 83.8119 147.816C83.5226 147.76 83.2193 147.732 82.9019 147.732H79.8779V151.61H82.8459ZM79.8779 152.422V157H78.9259V146.92H82.8739C83.9846 146.92 84.8339 147.13 85.4219 147.55C86.0099 147.961 86.3039 148.633 86.3039 149.566C86.3039 150.201 86.1733 150.705 85.9119 151.078C85.6599 151.451 85.2446 151.769 84.6659 152.03C84.9646 152.133 85.1979 152.282 85.3659 152.478C85.5339 152.674 85.6599 152.898 85.7439 153.15C85.8279 153.402 85.8793 153.668 85.8979 153.948C85.9259 154.228 85.9446 154.499 85.9539 154.76C85.9633 155.143 85.9773 155.46 85.9959 155.712C86.0239 155.964 86.0519 156.169 86.0799 156.328C86.1173 156.487 86.1593 156.613 86.2059 156.706C86.2526 156.79 86.3086 156.855 86.3739 156.902V157H85.3239C85.2213 156.832 85.1466 156.599 85.0999 156.3C85.0626 156.001 85.0299 155.689 85.0019 155.362C84.9833 155.035 84.9646 154.718 84.9459 154.41C84.9366 154.102 84.9133 153.85 84.8759 153.654C84.8199 153.383 84.7266 153.169 84.5959 153.01C84.4746 152.842 84.3253 152.716 84.1479 152.632C83.9706 152.548 83.7699 152.492 83.5459 152.464C83.3313 152.436 83.1073 152.422 82.8739 152.422H79.8779Z" fill="black"/>
<path d="M88.2778 157V146.92H94.9838V147.732H89.2298V151.372H94.4238V152.184H89.2298V156.188H95.1238V157H88.2778Z" fill="black"/>
<path d="M97.2284 153.99C97.2658 154.438 97.3638 154.821 97.5224 155.138C97.6904 155.446 97.9004 155.698 98.1524 155.894C98.4138 156.09 98.7124 156.235 99.0484 156.328C99.3844 156.412 99.7438 156.454 100.126 156.454C100.574 156.454 100.962 156.398 101.288 156.286C101.615 156.174 101.881 156.025 102.086 155.838C102.292 155.642 102.441 155.418 102.534 155.166C102.637 154.914 102.688 154.648 102.688 154.368C102.688 153.976 102.6 153.659 102.422 153.416C102.245 153.173 102.012 152.977 101.722 152.828C101.442 152.669 101.116 152.543 100.742 152.45C100.378 152.357 100 152.268 99.6084 152.184C99.2258 152.091 98.8478 151.983 98.4744 151.862C98.1104 151.741 97.7838 151.577 97.4944 151.372C97.2144 151.167 96.9858 150.905 96.8084 150.588C96.6311 150.261 96.5424 149.851 96.5424 149.356C96.5424 149.011 96.6124 148.675 96.7524 148.348C96.9018 148.021 97.1164 147.732 97.3964 147.48C97.6858 147.228 98.0451 147.027 98.4744 146.878C98.9038 146.729 99.3984 146.654 99.9584 146.654C100.528 146.654 101.022 146.733 101.442 146.892C101.872 147.051 102.226 147.27 102.506 147.55C102.786 147.821 102.996 148.138 103.136 148.502C103.276 148.866 103.346 149.253 103.346 149.664H102.436C102.436 149.281 102.366 148.95 102.226 148.67C102.096 148.39 101.914 148.161 101.68 147.984C101.447 147.807 101.181 147.676 100.882 147.592C100.584 147.508 100.276 147.466 99.9584 147.466C99.4731 147.466 99.0624 147.536 98.7264 147.676C98.3998 147.807 98.1384 147.979 97.9424 148.194C97.7464 148.409 97.6111 148.647 97.5364 148.908C97.4618 149.169 97.4478 149.431 97.4944 149.692C97.5504 150.019 97.6811 150.28 97.8864 150.476C98.0918 150.672 98.3438 150.835 98.6424 150.966C98.9411 151.087 99.2678 151.19 99.6224 151.274C99.9864 151.349 100.355 151.433 100.728 151.526C101.102 151.61 101.461 151.713 101.806 151.834C102.161 151.955 102.474 152.119 102.744 152.324C103.015 152.529 103.23 152.795 103.388 153.122C103.556 153.439 103.64 153.841 103.64 154.326C103.64 155.259 103.318 155.983 102.674 156.496C102.03 157.009 101.125 157.266 99.9584 157.266C99.4358 157.266 98.9504 157.196 98.5024 157.056C98.0544 156.925 97.6671 156.725 97.3404 156.454C97.0138 156.174 96.7571 155.833 96.5704 155.432C96.3931 155.021 96.3044 154.541 96.3044 153.99H97.2284Z" fill="black"/>
<path d="M105.787 153.99C105.824 154.438 105.922 154.821 106.081 155.138C106.249 155.446 106.459 155.698 106.711 155.894C106.972 156.09 107.271 156.235 107.607 156.328C107.943 156.412 108.302 156.454 108.685 156.454C109.133 156.454 109.52 156.398 109.847 156.286C110.174 156.174 110.44 156.025 110.645 155.838C110.85 155.642 111 155.418 111.093 155.166C111.196 154.914 111.247 154.648 111.247 154.368C111.247 153.976 111.158 153.659 110.981 153.416C110.804 153.173 110.57 152.977 110.281 152.828C110.001 152.669 109.674 152.543 109.301 152.45C108.937 152.357 108.559 152.268 108.167 152.184C107.784 152.091 107.406 151.983 107.033 151.862C106.669 151.741 106.342 151.577 106.053 151.372C105.773 151.167 105.544 150.905 105.367 150.588C105.19 150.261 105.101 149.851 105.101 149.356C105.101 149.011 105.171 148.675 105.311 148.348C105.46 148.021 105.675 147.732 105.955 147.48C106.244 147.228 106.604 147.027 107.033 146.878C107.462 146.729 107.957 146.654 108.517 146.654C109.086 146.654 109.581 146.733 110.001 146.892C110.43 147.051 110.785 147.27 111.065 147.55C111.345 147.821 111.555 148.138 111.695 148.502C111.835 148.866 111.905 149.253 111.905 149.664H110.995C110.995 149.281 110.925 148.95 110.785 148.67C110.654 148.39 110.472 148.161 110.239 147.984C110.006 147.807 109.74 147.676 109.441 147.592C109.142 147.508 108.834 147.466 108.517 147.466C108.032 147.466 107.621 147.536 107.285 147.676C106.958 147.807 106.697 147.979 106.501 148.194C106.305 148.409 106.17 148.647 106.095 148.908C106.02 149.169 106.006 149.431 106.053 149.692C106.109 150.019 106.24 150.28 106.445 150.476C106.65 150.672 106.902 150.835 107.201 150.966C107.5 151.087 107.826 151.19 108.181 151.274C108.545 151.349 108.914 151.433 109.287 151.526C109.66 151.61 110.02 151.713 110.365 151.834C110.72 151.955 111.032 152.119 111.303 152.324C111.574 152.529 111.788 152.795 111.947 153.122C112.115 153.439 112.199 153.841 112.199 154.326C112.199 155.259 111.877 155.983 111.233 156.496C110.589 157.009 109.684 157.266 108.517 157.266C107.994 157.266 107.509 157.196 107.061 157.056C106.613 156.925 106.226 156.725 105.899 156.454C105.572 156.174 105.316 155.833 105.129 155.432C104.952 155.021 104.863 154.541 104.863 153.99H105.787Z" fill="black"/>
</svg>
