<svg width="102" height="132" viewBox="0 0 102 132" fill="none" xmlns="http://www.w3.org/2000/svg">
<path d="M1.036 111L1.036 100.92H7.532V101.732L1.988 101.732V105.372H7.028V106.184H1.988V111H1.036Z" fill="black"/>
<path d="M9.2493 111L9.2493 100.92H10.2013V111H9.2493Z" fill="black"/>
<path d="M16.7158 105.61C17.0704 105.61 17.3971 105.573 17.6958 105.498C18.0038 105.423 18.2698 105.307 18.4938 105.148C18.7178 104.98 18.8951 104.77 19.0258 104.518C19.1564 104.266 19.2218 103.963 19.2218 103.608C19.2218 103.235 19.1518 102.927 19.0118 102.684C18.8811 102.441 18.6991 102.25 18.4658 102.11C18.2418 101.97 17.9804 101.872 17.6818 101.816C17.3924 101.76 17.0891 101.732 16.7718 101.732H13.7478V105.61H16.7158ZM13.7478 106.422V111H12.7958V100.92H16.7438C17.8544 100.92 18.7038 101.13 19.2918 101.55C19.8798 101.961 20.1738 102.633 20.1738 103.566C20.1738 104.201 20.0431 104.705 19.7818 105.078C19.5298 105.451 19.1144 105.769 18.5358 106.03C18.8344 106.133 19.0678 106.282 19.2358 106.478C19.4038 106.674 19.5298 106.898 19.6138 107.15C19.6978 107.402 19.7491 107.668 19.7678 107.948C19.7958 108.228 19.8144 108.499 19.8238 108.76C19.8331 109.143 19.8471 109.46 19.8658 109.712C19.8938 109.964 19.9218 110.169 19.9498 110.328C19.9871 110.487 20.0291 110.613 20.0758 110.706C20.1224 110.79 20.1784 110.855 20.2438 110.902V111H19.1938C19.0911 110.832 19.0164 110.599 18.9698 110.3C18.9324 110.001 18.8998 109.689 18.8718 109.362C18.8531 109.035 18.8344 108.718 18.8158 108.41C18.8064 108.102 18.7831 107.85 18.7458 107.654C18.6898 107.383 18.5964 107.169 18.4658 107.01C18.3444 106.842 18.1951 106.716 18.0178 106.632C17.8404 106.548 17.6398 106.492 17.4158 106.464C17.2011 106.436 16.9771 106.422 16.7438 106.422H13.7478Z" fill="black"/>
<path d="M22.1477 111V100.92H28.8537V101.732H23.0997V105.372H28.2937V106.184H23.0997V110.188H28.9937V111H22.1477Z" fill="black"/>
<path d="M31.0003 111V109.768H32.0223V111H31.0003Z" fill="black"/>
<path d="M34.5607 111V100.92H38.2427C38.8961 100.92 39.4327 100.995 39.8527 101.144C40.2821 101.293 40.6181 101.499 40.8607 101.76C41.1127 102.021 41.2854 102.325 41.3787 102.67C41.4814 103.006 41.5327 103.361 41.5327 103.734C41.5327 104.294 41.4161 104.756 41.1828 105.12C40.9588 105.484 40.6648 105.773 40.3008 105.988C39.9368 106.193 39.5214 106.338 39.0547 106.422C38.5974 106.506 38.1354 106.548 37.6688 106.548H35.5127V111H34.5607ZM37.6968 105.736C38.1448 105.736 38.5461 105.708 38.9007 105.652C39.2554 105.596 39.5541 105.493 39.7967 105.344C40.0487 105.185 40.2401 104.975 40.3708 104.714C40.5108 104.443 40.5807 104.093 40.5807 103.664C40.5807 103.029 40.3707 102.549 39.9507 102.222C39.5401 101.895 38.8821 101.732 37.9767 101.732H35.5127V105.736H37.6968Z" fill="black"/>
<path d="M47.0673 105.61C47.422 105.61 47.7487 105.573 48.0473 105.498C48.3553 105.423 48.6213 105.307 48.8453 105.148C49.0693 104.98 49.2467 104.77 49.3773 104.518C49.508 104.266 49.5733 103.963 49.5733 103.608C49.5733 103.235 49.5033 102.927 49.3633 102.684C49.2327 102.441 49.0507 102.25 48.8173 102.11C48.5933 101.97 48.332 101.872 48.0333 101.816C47.744 101.76 47.4407 101.732 47.1233 101.732H44.0993V105.61H47.0673ZM44.0993 106.422V111H43.1473V100.92H47.0953C48.206 100.92 49.0553 101.13 49.6433 101.55C50.2313 101.961 50.5253 102.633 50.5253 103.566C50.5253 104.201 50.3947 104.705 50.1333 105.078C49.8813 105.451 49.466 105.769 48.8873 106.03C49.186 106.133 49.4193 106.282 49.5873 106.478C49.7553 106.674 49.8813 106.898 49.9653 107.15C50.0493 107.402 50.1007 107.668 50.1193 107.948C50.1473 108.228 50.166 108.499 50.1753 108.76C50.1847 109.143 50.1987 109.46 50.2173 109.712C50.2453 109.964 50.2733 110.169 50.3013 110.328C50.3387 110.487 50.3807 110.613 50.4273 110.706C50.474 110.79 50.53 110.855 50.5953 110.902V111H49.5453C49.4427 110.832 49.368 110.599 49.3213 110.3C49.284 110.001 49.2513 109.689 49.2233 109.362C49.2047 109.035 49.186 108.718 49.1673 108.41C49.158 108.102 49.1347 107.85 49.0973 107.654C49.0413 107.383 48.948 107.169 48.8173 107.01C48.696 106.842 48.5467 106.716 48.3693 106.632C48.192 106.548 47.9913 106.492 47.7673 106.464C47.5527 106.436 47.3287 106.422 47.0953 106.422H44.0993Z" fill="black"/>
<path d="M52.4992 111V100.92H59.2052V101.732H53.4512V105.372H58.6452V106.184H53.4512V110.188H59.3452V111H52.4992Z" fill="black"/>
<path d="M61.4498 107.99C61.4872 108.438 61.5852 108.821 61.7438 109.138C61.9118 109.446 62.1218 109.698 62.3738 109.894C62.6352 110.09 62.9338 110.235 63.2698 110.328C63.6058 110.412 63.9652 110.454 64.3478 110.454C64.7958 110.454 65.1832 110.398 65.5098 110.286C65.8365 110.174 66.1025 110.025 66.3078 109.838C66.5132 109.642 66.6625 109.418 66.7558 109.166C66.8585 108.914 66.9098 108.648 66.9098 108.368C66.9098 107.976 66.8212 107.659 66.6438 107.416C66.4665 107.173 66.2332 106.977 65.9438 106.828C65.6638 106.669 65.3372 106.543 64.9638 106.45C64.5998 106.357 64.2218 106.268 63.8298 106.184C63.4472 106.091 63.0692 105.983 62.6958 105.862C62.3318 105.741 62.0052 105.577 61.7158 105.372C61.4358 105.167 61.2072 104.905 61.0298 104.588C60.8525 104.261 60.7638 103.851 60.7638 103.356C60.7638 103.011 60.8338 102.675 60.9738 102.348C61.1232 102.021 61.3378 101.732 61.6178 101.48C61.9072 101.228 62.2665 101.027 62.6958 100.878C63.1252 100.729 63.6198 100.654 64.1798 100.654C64.7492 100.654 65.2438 100.733 65.6638 100.892C66.0932 101.051 66.4478 101.27 66.7278 101.55C67.0078 101.821 67.2178 102.138 67.3578 102.502C67.4978 102.866 67.5678 103.253 67.5678 103.664H66.6578C66.6578 103.281 66.5878 102.95 66.4478 102.67C66.3172 102.39 66.1352 102.161 65.9018 101.984C65.6685 101.807 65.4025 101.676 65.1038 101.592C64.8052 101.508 64.4972 101.466 64.1798 101.466C63.6945 101.466 63.2838 101.536 62.9478 101.676C62.6212 101.807 62.3598 101.979 62.1638 102.194C61.9678 102.409 61.8325 102.647 61.7578 102.908C61.6832 103.169 61.6692 103.431 61.7158 103.692C61.7718 104.019 61.9025 104.28 62.1078 104.476C62.3132 104.672 62.5652 104.835 62.8638 104.966C63.1625 105.087 63.4892 105.19 63.8438 105.274C64.2078 105.349 64.5765 105.433 64.9498 105.526C65.3232 105.61 65.6825 105.713 66.0278 105.834C66.3825 105.955 66.6952 106.119 66.9658 106.324C67.2365 106.529 67.4512 106.795 67.6098 107.122C67.7778 107.439 67.8618 107.841 67.8618 108.326C67.8618 109.259 67.5398 109.983 66.8958 110.496C66.2518 111.009 65.3465 111.266 64.1798 111.266C63.6572 111.266 63.1718 111.196 62.7238 111.056C62.2758 110.925 61.8885 110.725 61.5618 110.454C61.2352 110.174 60.9785 109.833 60.7918 109.432C60.6145 109.021 60.5258 108.541 60.5258 107.99H61.4498Z" fill="black"/>
<path d="M70.0084 107.99C70.0458 108.438 70.1438 108.821 70.3024 109.138C70.4704 109.446 70.6804 109.698 70.9324 109.894C71.1938 110.09 71.4924 110.235 71.8284 110.328C72.1644 110.412 72.5238 110.454 72.9064 110.454C73.3544 110.454 73.7418 110.398 74.0684 110.286C74.3951 110.174 74.6611 110.025 74.8664 109.838C75.0718 109.642 75.2211 109.418 75.3144 109.166C75.4171 108.914 75.4684 108.648 75.4684 108.368C75.4684 107.976 75.3798 107.659 75.2024 107.416C75.0251 107.173 74.7918 106.977 74.5024 106.828C74.2224 106.669 73.8958 106.543 73.5224 106.45C73.1584 106.357 72.7804 106.268 72.3884 106.184C72.0058 106.091 71.6278 105.983 71.2544 105.862C70.8904 105.741 70.5638 105.577 70.2744 105.372C69.9944 105.167 69.7658 104.905 69.5884 104.588C69.4111 104.261 69.3224 103.851 69.3224 103.356C69.3224 103.011 69.3924 102.675 69.5324 102.348C69.6818 102.021 69.8964 101.732 70.1764 101.48C70.4658 101.228 70.8251 101.027 71.2544 100.878C71.6838 100.729 72.1784 100.654 72.7384 100.654C73.3078 100.654 73.8024 100.733 74.2224 100.892C74.6518 101.051 75.0064 101.27 75.2864 101.55C75.5664 101.821 75.7764 102.138 75.9164 102.502C76.0564 102.866 76.1264 103.253 76.1264 103.664H75.2164C75.2164 103.281 75.1464 102.95 75.0064 102.67C74.8758 102.39 74.6938 102.161 74.4604 101.984C74.2271 101.807 73.9611 101.676 73.6624 101.592C73.3638 101.508 73.0558 101.466 72.7384 101.466C72.2531 101.466 71.8424 101.536 71.5064 101.676C71.1798 101.807 70.9184 101.979 70.7224 102.194C70.5264 102.409 70.3911 102.647 70.3164 102.908C70.2418 103.169 70.2278 103.431 70.2744 103.692C70.3304 104.019 70.4611 104.28 70.6664 104.476C70.8718 104.672 71.1238 104.835 71.4224 104.966C71.7211 105.087 72.0478 105.19 72.4024 105.274C72.7664 105.349 73.1351 105.433 73.5084 105.526C73.8818 105.61 74.2411 105.713 74.5864 105.834C74.9411 105.955 75.2538 106.119 75.5244 106.324C75.7951 106.529 76.0098 106.795 76.1684 107.122C76.3364 107.439 76.4204 107.841 76.4204 108.326C76.4204 109.259 76.0984 109.983 75.4544 110.496C74.8104 111.009 73.9051 111.266 72.7384 111.266C72.2158 111.266 71.7304 111.196 71.2824 111.056C70.8344 110.925 70.4471 110.725 70.1204 110.454C69.7938 110.174 69.5371 109.833 69.3504 109.432C69.1731 109.021 69.0844 108.541 69.0844 107.99H70.0084Z" fill="black"/>
<path d="M0.224 120.92H7.56V121.732L4.368 121.732V131H3.416V121.732H0.224L0.224 120.92Z" fill="black"/>
<path d="M13.1973 126.604V125.792H17.5093V131H16.6973V129.278C16.52 129.577 16.3146 129.852 16.0813 130.104C15.8573 130.347 15.596 130.557 15.2973 130.734C14.9986 130.902 14.6533 131.033 14.2613 131.126C13.8693 131.219 13.426 131.266 12.9313 131.266C12.2966 131.266 11.7086 131.154 11.1673 130.93C10.626 130.706 10.1593 130.375 9.7673 129.936C9.3753 129.488 9.0673 128.928 8.8433 128.256C8.62863 127.584 8.5213 126.8 8.5213 125.904C8.5213 125.167 8.61463 124.481 8.8013 123.846C8.98796 123.202 9.27263 122.647 9.6553 122.18C10.0473 121.704 10.5326 121.331 11.1113 121.06C11.6993 120.789 12.39 120.654 13.1833 120.654C13.7153 120.654 14.21 120.719 14.6673 120.85C15.134 120.981 15.5493 121.181 15.9133 121.452C16.2866 121.713 16.5993 122.045 16.8513 122.446C17.1033 122.838 17.2853 123.305 17.3973 123.846H16.4173C16.3333 123.473 16.1886 123.137 15.9833 122.838C15.7873 122.539 15.5493 122.292 15.2693 122.096C14.9893 121.891 14.6766 121.737 14.3313 121.634C13.986 121.522 13.6266 121.466 13.2533 121.466C12.5906 121.466 12.0213 121.583 11.5453 121.816C11.0693 122.049 10.6773 122.381 10.3693 122.81C10.0613 123.23 9.83263 123.739 9.6833 124.336C9.5433 124.924 9.4733 125.573 9.4733 126.282C9.4733 126.842 9.55263 127.374 9.7113 127.878C9.8793 128.382 10.1173 128.825 10.4253 129.208C10.7426 129.591 11.1253 129.894 11.5733 130.118C12.0306 130.342 12.5486 130.454 13.1273 130.454C13.398 130.454 13.678 130.426 13.9673 130.37C14.2566 130.305 14.5366 130.202 14.8073 130.062C15.078 129.922 15.33 129.74 15.5633 129.516C15.7966 129.292 15.9973 129.017 16.1653 128.69C16.324 128.373 16.4313 128.041 16.4873 127.696C16.5526 127.351 16.59 126.987 16.5993 126.604H13.1973Z" fill="black"/>
<path d="M20.1038 131V129.768H21.1258V131H20.1038ZM20.1038 125.344V124.112H21.1258V125.344H20.1038Z" fill="black"/>
<path d="M26.4783 126.17C26.1329 126.17 25.8156 126.212 25.5263 126.296C25.2369 126.38 24.9849 126.511 24.7703 126.688C24.5556 126.856 24.3876 127.075 24.2663 127.346C24.1449 127.607 24.0843 127.92 24.0843 128.284C24.0843 128.592 24.1403 128.877 24.2523 129.138C24.3736 129.399 24.5369 129.628 24.7423 129.824C24.9569 130.011 25.2136 130.16 25.5123 130.272C25.8203 130.384 26.1609 130.44 26.5343 130.44C26.8609 130.44 27.1643 130.389 27.4443 130.286C27.7243 130.174 27.9669 130.02 28.1723 129.824C28.3869 129.628 28.5503 129.395 28.6623 129.124C28.7836 128.853 28.8443 128.555 28.8443 128.228C28.8443 127.883 28.7836 127.584 28.6623 127.332C28.5409 127.071 28.3729 126.856 28.1583 126.688C27.9436 126.511 27.6916 126.38 27.4023 126.296C27.1129 126.212 26.8049 126.17 26.4783 126.17ZM26.4363 121.886C26.1563 121.886 25.8949 121.923 25.6523 121.998C25.4096 122.073 25.1949 122.185 25.0083 122.334C24.8309 122.483 24.6909 122.67 24.5883 122.894C24.4856 123.118 24.4343 123.375 24.4343 123.664C24.4343 123.972 24.4903 124.238 24.6023 124.462C24.7236 124.677 24.8823 124.854 25.0783 124.994C25.2743 125.134 25.4983 125.241 25.7503 125.316C26.0023 125.381 26.2636 125.414 26.5343 125.414C26.8049 125.414 27.0569 125.381 27.2903 125.316C27.5236 125.241 27.7243 125.125 27.8923 124.966C28.0603 124.807 28.1909 124.607 28.2843 124.364C28.3869 124.121 28.4383 123.823 28.4383 123.468C28.4383 122.964 28.2749 122.577 27.9483 122.306C27.6216 122.026 27.1176 121.886 26.4363 121.886ZM24.9103 125.694C24.6676 125.545 24.4576 125.405 24.2803 125.274C24.1123 125.134 23.9723 124.985 23.8603 124.826C23.7483 124.667 23.6643 124.49 23.6083 124.294C23.5616 124.089 23.5383 123.837 23.5383 123.538C23.5383 123.202 23.6129 122.885 23.7623 122.586C23.9116 122.287 24.1123 122.031 24.3643 121.816C24.6163 121.592 24.9103 121.419 25.2463 121.298C25.5916 121.177 25.9603 121.121 26.3523 121.13C26.7256 121.13 27.0896 121.177 27.4443 121.27C27.8083 121.363 28.1303 121.508 28.4103 121.704C28.6903 121.9 28.9143 122.152 29.0823 122.46C29.2503 122.759 29.3343 123.118 29.3343 123.538C29.3343 124.051 29.2269 124.49 29.0123 124.854C28.8069 125.218 28.4663 125.517 27.9903 125.75C28.5316 125.946 28.9563 126.259 29.2643 126.688C29.5816 127.117 29.7403 127.621 29.7403 128.2C29.7403 128.685 29.6563 129.115 29.4883 129.488C29.3296 129.861 29.0963 130.174 28.7883 130.426C28.4896 130.678 28.1256 130.869 27.6963 131C27.2669 131.131 26.7909 131.196 26.2683 131.196C25.9136 131.196 25.5496 131.135 25.1763 131.014C24.8123 130.893 24.4809 130.711 24.1823 130.468C23.8929 130.225 23.6549 129.922 23.4683 129.558C23.2816 129.194 23.1883 128.769 23.1883 128.284C23.1883 127.696 23.3329 127.173 23.6223 126.716C23.9209 126.249 24.3503 125.909 24.9103 125.694Z" fill="black"/>
<path d="M32.4376 122.208H32.4096V131H31.4576V120.92H32.5356L38.3596 129.726H38.3876V120.92H39.3396V131H38.2336L32.4376 122.208Z" fill="black"/>
<path d="M5.124 10.076C4.396 10.0667 3.74267 9.96402 3.164 9.76802C2.58533 9.57202 2.09067 9.29669 1.68 8.94202C1.27867 8.57802 0.966 8.14402 0.742 7.64002C0.527333 7.12669 0.42 6.55269 0.42 5.91802C0.42 5.30202 0.527333 4.74202 0.742 4.23802C0.956666 3.73402 1.26467 3.30469 1.666 2.95002C2.07667 2.58602 2.57133 2.30602 3.15 2.11002C3.72867 1.90469 4.38667 1.79269 5.124 1.77402V0.710022L6.076 0.710022V1.77402C6.81333 1.79269 7.47133 1.90469 8.05 2.11002C8.62867 2.30602 9.11867 2.58602 9.52 2.95002C9.93067 3.30469 10.2433 3.73402 10.458 4.23802C10.6727 4.74202 10.78 5.30202 10.78 5.91802C10.78 6.55269 10.668 7.12669 10.444 7.64002C10.2293 8.14402 9.91667 8.57802 9.506 8.94202C9.10467 9.29669 8.61467 9.57202 8.036 9.76802C7.45733 9.96402 6.804 10.0667 6.076 10.076V11.336H5.124V10.076ZM5.124 2.55802C3.864 2.61402 2.92133 2.92669 2.296 3.49602C1.67067 4.06536 1.358 4.87269 1.358 5.91802C1.358 6.95402 1.67533 7.76136 2.31 8.34002C2.94467 8.90936 3.88267 9.23135 5.124 9.30602V2.55802ZM6.076 9.30602C7.31733 9.23136 8.25533 8.90936 8.89 8.34002C9.52467 7.76136 9.842 6.95402 9.842 5.91802C9.842 4.87269 9.52933 4.06536 8.904 3.49602C8.27867 2.92669 7.336 2.61402 6.076 2.55802V9.30602Z" fill="black"/>
<path d="M12.2053 1.00402L13.1573 1.00402V9.97802L18.8973 1.00402H20.1293V11H19.1773V2.02602L13.4373 11H12.2053V1.00402Z" fill="black"/>
<path d="M22.1447 1.00402H23.0967V6.38002L28.9067 1.00402H30.1947L25.7287 5.13402L30.4047 11L29.1727 11L25.0147 5.79202L23.0967 7.57002V11H22.1447V1.00402Z" fill="black"/>
<path d="M32.1468 11.112C31.9228 11.112 31.7175 11.098 31.5308 11.07C31.3535 11.042 31.2135 11.0094 31.1108 10.972V10.132C31.2322 10.1787 31.3768 10.2207 31.5448 10.258C31.7128 10.286 31.9088 10.3 32.1328 10.3C32.4875 10.3 32.7815 10.188 33.0148 9.96402C33.2575 9.74002 33.4908 9.39002 33.7148 8.91402L33.8408 8.64802L30.1308 1.00402L31.1528 1.00402L34.4008 7.64002L37.5648 1.00402H38.5728L34.6388 9.15202C34.4335 9.58136 34.2328 9.92669 34.0368 10.188C33.8408 10.44 33.6402 10.636 33.4348 10.776C33.2388 10.916 33.0335 11.0047 32.8188 11.042C32.6135 11.0887 32.3895 11.112 32.1468 11.112Z" fill="black"/>
<path d="M43.6953 11.196C42.9113 11.196 42.2206 11.056 41.6233 10.776C41.0353 10.4867 40.5453 10.104 40.1533 9.62802C39.7613 9.15202 39.4673 8.60136 39.2713 7.97602C39.0753 7.35069 38.9773 6.69269 38.9773 6.00202C38.9773 5.32069 39.0753 4.66736 39.2713 4.04202C39.4673 3.40736 39.7613 2.85202 40.1533 2.37602C40.5453 1.89069 41.0353 1.50802 41.6233 1.22802C42.2206 0.938689 42.9113 0.794022 43.6953 0.794022C44.1713 0.794022 44.6333 0.864022 45.0813 1.00402C45.5386 1.14402 45.9493 1.35402 46.3133 1.63402C46.6866 1.90469 46.9946 2.24069 47.2373 2.64202C47.4893 3.04336 47.648 3.50536 47.7133 4.02802H46.7613C46.6773 3.64536 46.5373 3.30469 46.3413 3.00602C46.1546 2.69802 45.9213 2.44136 45.6413 2.23602C45.3706 2.03069 45.0673 1.87669 44.7313 1.77402C44.4046 1.66202 44.0593 1.60602 43.6953 1.60602C43.0326 1.60602 42.4633 1.73202 41.9873 1.98402C41.5113 2.23602 41.1193 2.57202 40.8113 2.99202C40.5126 3.40269 40.2886 3.87402 40.1393 4.40602C39.9993 4.92869 39.9293 5.46069 39.9293 6.00202C39.9293 6.55269 39.9993 7.08936 40.1393 7.61202C40.2886 8.13469 40.5126 8.60602 40.8113 9.02602C41.1193 9.43669 41.5113 9.76802 41.9873 10.02C42.4633 10.272 43.0326 10.398 43.6953 10.398C44.1526 10.398 44.568 10.314 44.9413 10.146C45.324 9.97802 45.6506 9.74936 45.9213 9.46002C46.192 9.17069 46.4113 8.83469 46.5793 8.45202C46.7473 8.06002 46.8546 7.64002 46.9013 7.19202H47.8533C47.788 7.80802 47.6433 8.36336 47.4193 8.85802C47.1953 9.35269 46.906 9.77269 46.5513 10.118C46.1966 10.4634 45.7766 10.7294 45.2913 10.916C44.8153 11.1027 44.2833 11.196 43.6953 11.196Z" fill="black"/>
<path d="M53.2072 1.00402L57.4352 1.00402C57.8552 1.00402 58.2566 1.04602 58.6392 1.13002C59.0312 1.20469 59.3719 1.34002 59.6612 1.53602C59.9599 1.72269 60.1979 1.97469 60.3752 2.29202C60.5526 2.60002 60.6412 2.98736 60.6412 3.45402C60.6412 3.71536 60.5992 3.97202 60.5152 4.22402C60.4312 4.46669 60.3099 4.69069 60.1512 4.89602C60.0019 5.09202 59.8199 5.26002 59.6052 5.40002C59.3999 5.54002 59.1666 5.63802 58.9052 5.69402V5.72202C59.5492 5.80602 60.0626 6.07202 60.4452 6.52002C60.8279 6.95869 61.0192 7.50469 61.0192 8.15802C61.0192 8.40069 60.9819 8.68536 60.9072 9.01202C60.8419 9.32936 60.6879 9.63736 60.4452 9.93602C60.2026 10.2347 59.8432 10.4867 59.3672 10.692C58.8912 10.8974 58.2472 11 57.4352 11H53.2072V1.00402ZM57.4352 10.188C57.7899 10.188 58.1259 10.16 58.4432 10.104C58.7606 10.0387 59.0406 9.92669 59.2832 9.76802C59.5259 9.60936 59.7172 9.39936 59.8572 9.13802C59.9972 8.87669 60.0672 8.54069 60.0672 8.13002C60.0672 7.48602 59.8386 7.00536 59.3812 6.68802C58.9332 6.36136 58.2846 6.19802 57.4352 6.19802H54.1592V10.188H57.4352ZM57.4352 5.38602C57.8086 5.38602 58.1352 5.34402 58.4152 5.26002C58.7046 5.16669 58.9426 5.04536 59.1292 4.89602C59.3159 4.73736 59.4559 4.55536 59.5492 4.35002C59.6426 4.14469 59.6892 3.92536 59.6892 3.69202C59.6892 2.44136 58.9379 1.81602 57.4352 1.81602H54.1592V5.38602H57.4352Z" fill="black"/>
<path d="M62.5451 1.00402H63.4971V5.23202H66.9831C67.9164 5.23202 68.6444 5.48869 69.1671 6.00202C69.6898 6.51536 69.9511 7.22002 69.9511 8.11602C69.9511 9.01202 69.6898 9.71669 69.1671 10.23C68.6444 10.7434 67.9164 11 66.9831 11H62.5451V1.00402ZM66.7731 10.188C67.4731 10.188 68.0191 10.006 68.4111 9.64202C68.8031 9.26869 68.9991 8.76002 68.9991 8.11602C68.9991 7.47202 68.8031 6.96802 68.4111 6.60402C68.0191 6.23069 67.4731 6.04402 66.7731 6.04402H63.4971V10.188H66.7731ZM71.4211 1.00402H72.3731V11H71.4211V1.00402Z" fill="black"/>
<path d="M74.385 1.00402L78.823 1.00402C79.271 1.00402 79.677 1.06936 80.041 1.20002C80.405 1.32136 80.7176 1.50802 80.979 1.76002C81.2403 2.00269 81.441 2.30136 81.581 2.65602C81.721 3.01069 81.791 3.41202 81.791 3.86002C81.791 4.30802 81.721 4.70936 81.581 5.06402C81.441 5.41869 81.2403 5.72202 80.979 5.97402C80.7176 6.21669 80.405 6.40336 80.041 6.53402C79.677 6.65536 79.271 6.71602 78.823 6.71602H75.337V11H74.385V1.00402ZM78.613 5.90402C79.2756 5.90402 79.8123 5.73602 80.223 5.40002C80.6336 5.06402 80.839 4.55069 80.839 3.86002C80.839 3.16936 80.6336 2.65602 80.223 2.32002C79.8123 1.98402 79.2756 1.81602 78.613 1.81602H75.337V5.90402H78.613Z" fill="black"/>
<path d="M87.3893 11.196C86.6053 11.196 85.9146 11.056 85.3173 10.776C84.7293 10.4867 84.2393 10.104 83.8473 9.62802C83.4553 9.15202 83.1613 8.60136 82.9653 7.97602C82.7693 7.35069 82.6713 6.69269 82.6713 6.00202C82.6713 5.32069 82.7693 4.66736 82.9653 4.04202C83.1613 3.40736 83.4553 2.85202 83.8473 2.37602C84.2393 1.89069 84.7293 1.50802 85.3173 1.22802C85.9146 0.938689 86.6053 0.794023 87.3893 0.794023C88.1733 0.794023 88.8593 0.938689 89.4473 1.22802C90.0353 1.50802 90.5253 1.89069 90.9173 2.37602C91.3093 2.85202 91.6033 3.40736 91.7993 4.04202C91.9953 4.66736 92.0933 5.32069 92.0933 6.00202C92.0933 6.69269 91.9953 7.35069 91.7993 7.97602C91.6033 8.60136 91.3093 9.15202 90.9173 9.62802C90.5253 10.104 90.0353 10.4867 89.4473 10.776C88.8593 11.056 88.1733 11.196 87.3893 11.196ZM87.3893 10.398C88.0426 10.398 88.6073 10.272 89.0833 10.02C89.5593 9.76802 89.9466 9.43669 90.2453 9.02602C90.5533 8.60602 90.7773 8.13469 90.9173 7.61202C91.0666 7.08936 91.1413 6.55269 91.1413 6.00202C91.1413 5.46069 91.0666 4.92869 90.9173 4.40602C90.7773 3.87402 90.5533 3.40269 90.2453 2.99202C89.9466 2.57202 89.5593 2.23602 89.0833 1.98402C88.6073 1.73202 88.0426 1.60602 87.3893 1.60602C86.7266 1.60602 86.1573 1.73202 85.6813 1.98402C85.2053 2.23602 84.8133 2.57202 84.5053 2.99202C84.2066 3.40269 83.9826 3.87402 83.8333 4.40602C83.6933 4.92869 83.6233 5.46069 83.6233 6.00202C83.6233 6.55269 83.6933 7.08936 83.8333 7.61202C83.9826 8.13469 84.2066 8.60602 84.5053 9.02602C84.8133 9.43669 85.2053 9.76802 85.6813 10.02C86.1573 10.272 86.7266 10.398 87.3893 10.398Z" fill="black"/>
<path d="M97.8223 11.196C97.0383 11.196 96.3476 11.056 95.7503 10.776C95.1623 10.4867 94.6723 10.104 94.2803 9.62802C93.8883 9.15202 93.5943 8.60136 93.3983 7.97602C93.2023 7.35069 93.1043 6.69269 93.1043 6.00202C93.1043 5.32069 93.2023 4.66736 93.3983 4.04202C93.5943 3.40736 93.8883 2.85202 94.2803 2.37602C94.6723 1.89069 95.1623 1.50802 95.7503 1.22802C96.3476 0.938689 97.0383 0.794023 97.8223 0.794023C98.2983 0.794023 98.7603 0.864023 99.2083 1.00402C99.6656 1.14402 100.076 1.35402 100.44 1.63402C100.814 1.90469 101.122 2.24069 101.364 2.64202C101.616 3.04336 101.775 3.50536 101.84 4.02802H100.888C100.804 3.64536 100.664 3.30469 100.468 3.00602C100.282 2.69802 100.048 2.44136 99.7683 2.23602C99.4976 2.03069 99.1943 1.87669 98.8583 1.77402C98.5316 1.66202 98.1863 1.60602 97.8223 1.60602C97.1596 1.60602 96.5903 1.73202 96.1143 1.98402C95.6383 2.23602 95.2463 2.57202 94.9383 2.99202C94.6396 3.40269 94.4156 3.87402 94.2663 4.40602C94.1263 4.92869 94.0563 5.46069 94.0563 6.00202C94.0563 6.55269 94.1263 7.08936 94.2663 7.61202C94.4156 8.13469 94.6396 8.60602 94.9383 9.02602C95.2463 9.43669 95.6383 9.76802 96.1143 10.02C96.5903 10.272 97.1596 10.398 97.8223 10.398C98.2796 10.398 98.6949 10.314 99.0683 10.146C99.4509 9.97802 99.7776 9.74936 100.048 9.46002C100.319 9.17069 100.538 8.83469 100.706 8.45202C100.874 8.06002 100.982 7.64002 101.028 7.19202H101.98C101.915 7.80802 101.77 8.36336 101.546 8.85802C101.322 9.35269 101.033 9.77269 100.678 10.118C100.324 10.4634 99.9036 10.7294 99.4183 10.916C98.9423 11.1027 98.4103 11.196 97.8223 11.196Z" fill="black"/>
<path d="M1.008 21.004H5.446C5.894 21.004 6.3 21.0694 6.664 21.2C7.028 21.3214 7.34067 21.508 7.602 21.76C7.86333 22.0027 8.064 22.3014 8.204 22.656C8.344 23.0107 8.414 23.412 8.414 23.86C8.414 24.308 8.344 24.7094 8.204 25.064C8.064 25.4187 7.86333 25.722 7.602 25.974C7.34067 26.2167 7.028 26.4034 6.664 26.534C6.3 26.6554 5.894 26.716 5.446 26.716H1.96L1.96 31H1.008V21.004ZM5.236 25.904C5.89867 25.904 6.43533 25.736 6.846 25.4C7.25667 25.064 7.462 24.5507 7.462 23.86C7.462 23.1694 7.25667 22.656 6.846 22.32C6.43533 21.984 5.89867 21.816 5.236 21.816L1.96 21.816V25.904H5.236Z" fill="black"/>
<path d="M12.7524 21.004H13.8164L17.7364 31H16.7144L15.4964 27.892H10.9464L9.74236 31H8.73436L12.7524 21.004ZM15.1744 27.08L13.2424 21.956L11.2404 27.08H15.1744Z" fill="black"/>
<path d="M22.1727 31.21C21.5567 31.21 21.0014 31.1354 20.5067 30.986C20.0121 30.8274 19.5921 30.6034 19.2467 30.314C18.9107 30.0154 18.6494 29.656 18.4627 29.236C18.2854 28.8067 18.1967 28.326 18.1967 27.794V27.71H19.1067C19.1067 28.634 19.3914 29.32 19.9607 29.768C20.5301 30.216 21.2907 30.44 22.2427 30.44C22.6627 30.44 23.0407 30.3794 23.3767 30.258C23.7127 30.1274 23.9927 29.9547 24.2167 29.74C24.4501 29.5254 24.6274 29.278 24.7487 28.998C24.8794 28.7087 24.9447 28.4054 24.9447 28.088C24.9447 27.7987 24.8841 27.5374 24.7627 27.304C24.6507 27.0614 24.4921 26.856 24.2867 26.688C24.0814 26.52 23.8387 26.3894 23.5587 26.296C23.2881 26.2027 22.9941 26.156 22.6767 26.156H21.0807V25.344H22.6767C22.9381 25.344 23.1901 25.3067 23.4327 25.232C23.6754 25.1574 23.8901 25.05 24.0767 24.91C24.2634 24.7607 24.4081 24.5787 24.5107 24.364C24.6227 24.14 24.6787 23.8834 24.6787 23.594C24.6787 23.2487 24.6134 22.95 24.4827 22.698C24.3614 22.446 24.1934 22.2407 23.9787 22.082C23.7641 21.914 23.5074 21.7927 23.2087 21.718C22.9101 21.634 22.5927 21.592 22.2567 21.592C21.8647 21.592 21.5007 21.6387 21.1647 21.732C20.8287 21.8254 20.5347 21.97 20.2827 22.166C20.0401 22.3527 19.8441 22.5907 19.6947 22.88C19.5547 23.16 19.4707 23.4867 19.4427 23.86H18.5187C18.5467 23.3467 18.6541 22.8987 18.8407 22.516C19.0367 22.1334 19.2981 21.816 19.6247 21.564C19.9514 21.3027 20.3341 21.1114 20.7727 20.99C21.2207 20.8594 21.7061 20.794 22.2287 20.794C22.6954 20.794 23.1341 20.85 23.5447 20.962C23.9647 21.0647 24.3287 21.228 24.6367 21.452C24.9447 21.676 25.1874 21.9607 25.3647 22.306C25.5421 22.642 25.6307 23.0434 25.6307 23.51C25.6307 23.7714 25.5887 24.0187 25.5047 24.252C25.4207 24.476 25.3087 24.6814 25.1687 24.868C25.0287 25.0454 24.8701 25.1994 24.6927 25.33C24.5154 25.4607 24.3381 25.5587 24.1607 25.624V25.666C24.6927 25.806 25.1127 26.0767 25.4207 26.478C25.7381 26.87 25.8967 27.402 25.8967 28.074C25.8967 28.382 25.8314 28.718 25.7007 29.082C25.5794 29.446 25.3741 29.7867 25.0847 30.104C24.7954 30.4214 24.4127 30.6874 23.9367 30.902C23.4607 31.1074 22.8727 31.21 22.1727 31.21Z" fill="black"/>
<path d="M27.3941 21.004H28.7941L32.2521 29.768L35.6961 21.004H37.0961V31H36.1441V22.362H36.1161L32.7001 31H31.8041L28.3741 22.362H28.3461V31H27.3941V21.004Z" fill="black"/>
<path d="M39.0842 21.004H45.9862V21.816H40.0362V25.428H45.6082V26.24H40.0362V30.188H46.0562V31H39.0842V21.004Z" fill="black"/>
<path d="M47.383 21.004H51.821C52.269 21.004 52.675 21.0694 53.039 21.2C53.403 21.3214 53.7157 21.508 53.977 21.76C54.2383 22.0027 54.439 22.3014 54.579 22.656C54.719 23.0107 54.789 23.412 54.789 23.86C54.789 24.308 54.719 24.7094 54.579 25.064C54.439 25.4187 54.2383 25.722 53.977 25.974C53.7157 26.2167 53.403 26.4034 53.039 26.534C52.675 26.6554 52.269 26.716 51.821 26.716H48.335V31H47.383V21.004ZM51.611 25.904C52.2737 25.904 52.8103 25.736 53.221 25.4C53.6317 25.064 53.837 24.5507 53.837 23.86C53.837 23.1694 53.6317 22.656 53.221 22.32C52.8103 21.984 52.2737 21.816 51.611 21.816H48.335V25.904H51.611Z" fill="black"/>
<path d="M60.3874 31.196C59.6034 31.196 58.9127 31.056 58.3154 30.776C57.7274 30.4867 57.2374 30.104 56.8454 29.628C56.4534 29.152 56.1594 28.6014 55.9634 27.976C55.7674 27.3507 55.6694 26.6927 55.6694 26.002C55.6694 25.3207 55.7674 24.6674 55.9634 24.042C56.1594 23.4074 56.4534 22.852 56.8454 22.376C57.2374 21.8907 57.7274 21.508 58.3154 21.228C58.9127 20.9387 59.6034 20.794 60.3874 20.794C61.1714 20.794 61.8574 20.9387 62.4454 21.228C63.0334 21.508 63.5234 21.8907 63.9154 22.376C64.3074 22.852 64.6014 23.4074 64.7974 24.042C64.9934 24.6674 65.0914 25.3207 65.0914 26.002C65.0914 26.6927 64.9934 27.3507 64.7974 27.976C64.6014 28.6014 64.3074 29.152 63.9154 29.628C63.5234 30.104 63.0334 30.4867 62.4454 30.776C61.8574 31.056 61.1714 31.196 60.3874 31.196ZM60.3874 30.398C61.0407 30.398 61.6054 30.272 62.0814 30.02C62.5574 29.768 62.9447 29.4367 63.2434 29.026C63.5514 28.606 63.7754 28.1347 63.9154 27.612C64.0647 27.0894 64.1394 26.5527 64.1394 26.002C64.1394 25.4607 64.0647 24.9287 63.9154 24.406C63.7754 23.874 63.5514 23.4027 63.2434 22.992C62.9447 22.572 62.5574 22.236 62.0814 21.984C61.6054 21.732 61.0407 21.606 60.3874 21.606C59.7247 21.606 59.1554 21.732 58.6794 21.984C58.2034 22.236 57.8114 22.572 57.5034 22.992C57.2047 23.4027 56.9807 23.874 56.8314 24.406C56.6914 24.9287 56.6214 25.4607 56.6214 26.002C56.6214 26.5527 56.6914 27.0894 56.8314 27.612C56.9807 28.1347 57.2047 28.606 57.5034 29.026C57.8114 29.4367 58.2034 29.768 58.6794 30.02C59.1554 30.272 59.7247 30.398 60.3874 30.398Z" fill="black"/>
<path d="M66.5503 21.004H67.9503L71.4083 29.768L74.8523 21.004H76.2523V31H75.3003V22.362H75.2723L71.8563 31H70.9603L67.5303 22.362H67.5023V31H66.5503V21.004Z" fill="black"/>
<path d="M86.3789 31.196C85.5949 31.196 84.9042 31.056 84.3069 30.776C83.7189 30.4867 83.2289 30.104 82.8369 29.628C82.4449 29.152 82.1509 28.6014 81.9549 27.976C81.7589 27.3507 81.6609 26.6927 81.6609 26.002C81.6609 25.3207 81.7589 24.6674 81.9549 24.042C82.1509 23.4074 82.4449 22.852 82.8369 22.376C83.2289 21.8907 83.7189 21.508 84.3069 21.228C84.9042 20.9387 85.5949 20.794 86.3789 20.794C86.8549 20.794 87.3169 20.864 87.7649 21.004C88.2222 21.144 88.6329 21.354 88.9969 21.634C89.3702 21.9047 89.6782 22.2407 89.9209 22.642C90.1729 23.0434 90.3316 23.5054 90.3969 24.028H89.4449C89.3609 23.6454 89.2209 23.3047 89.0249 23.006C88.8382 22.698 88.6049 22.4414 88.3249 22.236C88.0542 22.0307 87.7509 21.8767 87.4149 21.774C87.0882 21.662 86.7429 21.606 86.3789 21.606C85.7162 21.606 85.1469 21.732 84.6709 21.984C84.1949 22.236 83.8029 22.572 83.4949 22.992C83.1962 23.4027 82.9722 23.874 82.8229 24.406C82.6829 24.9287 82.6129 25.4607 82.6129 26.002C82.6129 26.5527 82.6829 27.0894 82.8229 27.612C82.9722 28.1347 83.1962 28.606 83.4949 29.026C83.8029 29.4367 84.1949 29.768 84.6709 30.02C85.1469 30.272 85.7162 30.398 86.3789 30.398C86.8362 30.398 87.2516 30.314 87.6249 30.146C88.0076 29.978 88.3342 29.7494 88.6049 29.46C88.8756 29.1707 89.0949 28.8347 89.2629 28.452C89.4309 28.06 89.5382 27.64 89.5849 27.192H90.5369C90.4716 27.808 90.3269 28.3634 90.1029 28.858C89.8789 29.3527 89.5896 29.7727 89.2349 30.118C88.8802 30.4634 88.4602 30.7294 87.9749 30.916C87.4989 31.1027 86.9669 31.196 86.3789 31.196Z" fill="black"/>
<path d="M0 50.188H1.05C1.40467 49.5347 1.68 48.8674 1.876 48.186C2.072 47.4954 2.21667 46.8094 2.31 46.128C2.41267 45.4467 2.47333 44.784 2.492 44.14C2.52 43.496 2.534 42.8894 2.534 42.32V41.004H8.722V50.188H9.912V53.66H8.96V51H0.952V53.66H2.25918e-08L0 50.188ZM7.77 50.188V41.816H3.486V42.152C3.486 42.712 3.47667 43.3234 3.458 43.986C3.44867 44.6394 3.39733 45.316 3.304 46.016C3.21067 46.716 3.066 47.4207 2.87 48.13C2.68333 48.8394 2.41267 49.5254 2.058 50.188H7.77Z" fill="black"/>
<path d="M15.2155 51.196C14.4315 51.196 13.7408 51.056 13.1435 50.776C12.5555 50.4867 12.0655 50.104 11.6735 49.628C11.2815 49.152 10.9875 48.6014 10.7915 47.976C10.5955 47.3507 10.4975 46.6927 10.4975 46.002C10.4975 45.3207 10.5955 44.6674 10.7915 44.042C10.9875 43.4074 11.2815 42.852 11.6735 42.376C12.0655 41.8907 12.5555 41.508 13.1435 41.228C13.7408 40.9387 14.4315 40.794 15.2155 40.794C15.9995 40.794 16.6855 40.9387 17.2735 41.228C17.8615 41.508 18.3515 41.8907 18.7435 42.376C19.1355 42.852 19.4295 43.4074 19.6255 44.042C19.8215 44.6674 19.9195 45.3207 19.9195 46.002C19.9195 46.6927 19.8215 47.3507 19.6255 47.976C19.4295 48.6014 19.1355 49.152 18.7435 49.628C18.3515 50.104 17.8615 50.4867 17.2735 50.776C16.6855 51.056 15.9995 51.196 15.2155 51.196ZM15.2155 50.398C15.8688 50.398 16.4335 50.272 16.9095 50.02C17.3855 49.768 17.7728 49.4367 18.0715 49.026C18.3795 48.606 18.6035 48.1347 18.7435 47.612C18.8928 47.0894 18.9675 46.5527 18.9675 46.002C18.9675 45.4607 18.8928 44.9287 18.7435 44.406C18.6035 43.874 18.3795 43.4027 18.0715 42.992C17.7728 42.572 17.3855 42.236 16.9095 41.984C16.4335 41.732 15.8688 41.606 15.2155 41.606C14.5528 41.606 13.9835 41.732 13.5075 41.984C13.0315 42.236 12.6395 42.572 12.3315 42.992C12.0328 43.4027 11.8088 43.874 11.6595 44.406C11.5195 44.9287 11.4495 45.4607 11.4495 46.002C11.4495 46.5527 11.5195 47.0894 11.6595 47.612C11.8088 48.1347 12.0328 48.606 12.3315 49.026C12.6395 49.4367 13.0315 49.768 13.5075 50.02C13.9835 50.272 14.5528 50.398 15.2155 50.398Z" fill="black"/>
<path d="M21.3784 41.004H22.7784L26.2364 49.768L29.6804 41.004H31.0804L31.0804 51H30.1284V42.362H30.1004L26.6844 51H25.7884L22.3584 42.362H22.3304L22.3304 51H21.3784V41.004Z" fill="black"/>
<path d="M33.8805 44.056V40.92H34.9025V44.056L34.7065 48.466H34.0765L33.8805 44.056ZM33.8805 51V49.768H34.9025V51H33.8805Z" fill="black"/>
<path d="M41.6271 41.004H42.5791V50.188H47.3111V41.004H48.2631V50.188H52.9951V41.004H53.9471V51H41.6271V41.004Z" fill="black"/>
<path d="M60.1549 51.196C59.3709 51.196 58.6803 51.056 58.0829 50.776C57.4949 50.4867 57.0049 50.104 56.6129 49.628C56.2209 49.152 55.9269 48.6014 55.7309 47.976C55.5349 47.3507 55.4369 46.6927 55.4369 46.002C55.4369 45.3207 55.5349 44.6674 55.7309 44.042C55.9269 43.4074 56.2209 42.852 56.6129 42.376C57.0049 41.8907 57.4949 41.508 58.0829 41.228C58.6803 40.9387 59.3709 40.794 60.1549 40.794C60.9389 40.794 61.6249 40.9387 62.2129 41.228C62.8009 41.508 63.2909 41.8907 63.6829 42.376C64.0749 42.852 64.3689 43.4074 64.5649 44.042C64.7609 44.6674 64.8589 45.3207 64.8589 46.002C64.8589 46.6927 64.7609 47.3507 64.5649 47.976C64.3689 48.6014 64.0749 49.152 63.6829 49.628C63.2909 50.104 62.8009 50.4867 62.2129 50.776C61.6249 51.056 60.9389 51.196 60.1549 51.196ZM60.1549 50.398C60.8083 50.398 61.3729 50.272 61.8489 50.02C62.3249 49.768 62.7123 49.4367 63.0109 49.026C63.3189 48.606 63.5429 48.1347 63.6829 47.612C63.8323 47.0894 63.9069 46.5527 63.9069 46.002C63.9069 45.4607 63.8323 44.9287 63.6829 44.406C63.5429 43.874 63.3189 43.4027 63.0109 42.992C62.7123 42.572 62.3249 42.236 61.8489 41.984C61.3729 41.732 60.8083 41.606 60.1549 41.606C59.4923 41.606 58.9229 41.732 58.4469 41.984C57.9709 42.236 57.5789 42.572 57.2709 42.992C56.9723 43.4027 56.7483 43.874 56.5989 44.406C56.4589 44.9287 56.3889 45.4607 56.3889 46.002C56.3889 46.5527 56.4589 47.0894 56.5989 47.612C56.7483 48.1347 56.9723 48.606 57.2709 49.026C57.5789 49.4367 57.9709 49.768 58.4469 50.02C58.9229 50.272 59.4923 50.398 60.1549 50.398Z" fill="black"/>
<path d="M66.3459 41.004H67.2979V46.38L73.1079 41.004H74.3959L69.9299 45.134L74.6059 51H73.3739L69.2159 45.792L67.2979 47.57V51H66.3459V41.004Z" fill="black"/>
<path d="M76.236 44.056V40.92H77.258V44.056L77.062 48.466H76.432L76.236 44.056ZM76.236 51V49.768H77.258V51H76.236Z" fill="black"/>
<path d="M80.8981 44.056V40.92H81.9201V44.056L81.7241 48.466H81.0941L80.8981 44.056ZM80.8981 51V49.768H81.9201V51H80.8981Z" fill="black"/>
<path d="M85.5602 44.056V40.92H86.5822V44.056L86.3862 48.466H85.7562L85.5602 44.056ZM85.5602 51V49.768H86.5822V51H85.5602Z" fill="black"/>
</svg>
