<svg width="15" height="154" viewBox="0 0 15 154" fill="none" xmlns="http://www.w3.org/2000/svg">
<path d="M14.206 5.18C14.206 6.57067 13.7207 7.7 12.75 8.568C11.7793 9.44533 10.5147 9.884 8.95601 9.884C7.40667 9.884 6.15134 9.45 5.19001 8.582C4.23801 7.714 3.76201 6.57533 3.76201 5.166C3.76201 3.766 4.24267 2.63667 5.20401 1.778C6.16534 0.919334 7.42534 0.49 8.98401 0.49C10.5427 0.49 11.8027 0.919334 12.764 1.778C13.7253 2.646 14.206 3.78 14.206 5.18ZM13.38 5.166C13.38 4.05533 12.9787 3.15467 12.176 2.464C11.3733 1.78267 10.3187 1.442 9.01201 1.442C7.67734 1.442 6.60401 1.78267 5.79201 2.464C4.98934 3.14533 4.58801 4.05067 4.58801 5.18C4.58801 6.30933 4.98934 7.21467 5.79201 7.896C6.59467 8.58667 7.65401 8.932 8.97001 8.932C10.286 8.932 11.35 8.58667 12.162 7.896C12.974 7.20533 13.38 6.29533 13.38 5.166Z" fill="black"/>
<path d="M7.82201 19.771C6.59001 19.6683 5.60534 19.225 4.86801 18.441C4.14001 17.6663 3.77601 16.6816 3.77601 15.487C3.77601 14.1056 4.24734 12.9996 5.19001 12.169C6.13267 11.3383 7.39267 10.923 8.97001 10.923C10.4447 10.923 11.686 11.3336 12.694 12.155C13.702 12.9856 14.206 14.1243 14.206 15.571C14.206 16.579 13.9073 17.4796 13.31 18.273C12.722 19.0756 11.9427 19.533 10.972 19.645V18.693C11.7093 18.5436 12.2927 18.1843 12.722 17.615C13.1607 17.0456 13.38 16.355 13.38 15.543C13.38 14.4416 12.974 13.5503 12.162 12.869C11.3593 12.197 10.2953 11.861 8.97001 11.861C7.64467 11.861 6.58067 12.1923 5.77801 12.855C4.98467 13.527 4.58801 14.4136 4.58801 15.515C4.58801 16.4763 4.88201 17.2416 5.47001 17.811C6.06734 18.3803 6.85134 18.721 7.82201 18.833V19.771Z" fill="black"/>
<path d="M13.968 27.8563H13.156L13.156 24.3563H4.00001L4.00001 23.4043H13.156V19.9043H13.968V27.8563Z" fill="black"/>
<path d="M14.206 32.7015C14.206 34.0922 13.7207 35.2215 12.75 36.0895C11.7793 36.9668 10.5147 37.4055 8.95601 37.4055C7.40667 37.4055 6.15134 36.9715 5.19001 36.1035C4.23801 35.2355 3.76201 34.0968 3.76201 32.6875C3.76201 31.2875 4.24267 30.1582 5.20401 29.2995C6.16534 28.4408 7.42534 28.0115 8.98401 28.0115C10.5427 28.0115 11.8027 28.4408 12.764 29.2995C13.7253 30.1675 14.206 31.3015 14.206 32.7015ZM13.38 32.6875C13.38 31.5768 12.9787 30.6762 12.176 29.9855C11.3733 29.3042 10.3187 28.9635 9.01201 28.9635C7.67734 28.9635 6.60401 29.3042 5.79201 29.9855C4.98934 30.6668 4.58801 31.5722 4.58801 32.7015C4.58801 33.8308 4.98934 34.7362 5.79201 35.4175C6.59467 36.1082 7.65401 36.4535 8.97001 36.4535C10.286 36.4535 11.35 36.1082 12.162 35.4175C12.974 34.7268 13.38 33.8168 13.38 32.6875Z" fill="black"/>
<path d="M13.968 38.9484V43.2184C13.968 44.1798 13.7253 44.9404 13.24 45.5004C12.764 46.0698 12.0733 46.3544 11.168 46.3544C10.216 46.3544 9.49267 46.0698 8.998 45.5004C8.50334 44.9311 8.25601 44.1611 8.25601 43.1904V39.9004H4.00001V38.9484H13.968ZM13.156 39.9004H9.05401V42.9244C9.05401 43.6618 9.21734 44.2591 9.54401 44.7164C9.88001 45.1738 10.398 45.4024 11.098 45.4024C11.7887 45.4024 12.302 45.1924 12.638 44.7724C12.9833 44.3524 13.156 43.7691 13.156 43.0224V39.9004Z" fill="black"/>
<path d="M14.206 51.8968C14.206 53.2875 13.7207 54.4168 12.75 55.2848C11.7793 56.1621 10.5147 56.6008 8.956 56.6008C7.40667 56.6008 6.15134 56.1668 5.19 55.2988C4.238 54.4308 3.762 53.2921 3.762 51.8828C3.762 50.4828 4.24267 49.3535 5.204 48.4948C6.16534 47.6361 7.42534 47.2068 8.984 47.2068C10.5427 47.2068 11.8027 47.6361 12.764 48.4948C13.7253 49.3628 14.206 50.4968 14.206 51.8968ZM13.38 51.8828C13.38 50.7721 12.9787 49.8715 12.176 49.1808C11.3733 48.4995 10.3187 48.1588 9.012 48.1588C7.67734 48.1588 6.604 48.4995 5.792 49.1808C4.98934 49.8621 4.588 50.7675 4.588 51.8968C4.588 53.0261 4.98934 53.9315 5.792 54.6128C6.59467 55.3035 7.65401 55.6488 8.97001 55.6488C10.286 55.6488 11.35 55.3035 12.162 54.6128C12.974 53.9221 13.38 53.0121 13.38 51.8828Z" fill="black"/>
<path d="M8.984 61.9017L4 57.9677V56.7357L9.684 61.2297L13.968 57.0857V58.3737L8.732 63.3017H13.968V64.2537H8.732L13.968 69.1817V70.4697L9.684 66.3257L4 70.8197V69.5877L8.984 65.6537L7.528 64.2537H4V63.3017H7.528L8.984 61.9017Z" fill="black"/>
<path d="M13.968 79.5589H4V78.6069H8.816V72.6569H4V71.7049H13.968V72.6569H9.628L9.628 78.6069H13.968V79.5589Z" fill="black"/>
<path d="M14.206 85.7484C14.206 87.139 13.7207 88.2684 12.75 89.1364C11.7793 90.0137 10.5147 90.4524 8.956 90.4524C7.40667 90.4524 6.15134 90.0184 5.19 89.1504C4.238 88.2824 3.762 87.1437 3.762 85.7344C3.762 84.3344 4.24267 83.205 5.204 82.3464C6.16534 81.4877 7.42534 81.0584 8.984 81.0584C10.5427 81.0584 11.8027 81.4877 12.764 82.3464C13.7253 83.2144 14.206 84.3484 14.206 85.7484ZM13.38 85.7344C13.38 84.6237 12.9787 83.723 12.176 83.0324C11.3733 82.351 10.3187 82.0104 9.012 82.0104C7.67734 82.0104 6.604 82.351 5.792 83.0324C4.98934 83.7137 4.588 84.619 4.588 85.7484C4.588 86.8777 4.98934 87.783 5.792 88.4644C6.59467 89.155 7.654 89.5004 8.97 89.5004C10.286 89.5004 11.35 89.155 12.162 88.4644C12.974 87.7737 13.38 86.8637 13.38 85.7344Z" fill="black"/>
<path d="M5.442 93.4793H4.406C3.79 93.4793 3.29067 93.4 2.908 93.2413C2.52534 93.0826 2.24534 92.7513 2.068 92.2473H2.656C2.824 92.658 3.272 92.868 4 92.8773V92.3313H5.442V93.4793Z" fill="black"/>
<path d="M4 100.67L4 99.7323H13.968V105.906H13.156V100.67H4Z" fill="black"/>
<path d="M14.206 111.178C14.206 112.569 13.7207 113.698 12.75 114.566C11.7793 115.443 10.5147 115.882 8.956 115.882C7.40667 115.882 6.15134 115.448 5.19 114.58C4.238 113.712 3.762 112.573 3.762 111.164C3.762 109.764 4.24267 108.635 5.204 107.776C6.16534 106.917 7.42534 106.488 8.984 106.488C10.5427 106.488 11.8027 106.917 12.764 107.776C13.7253 108.644 14.206 109.778 14.206 111.178ZM13.38 111.164C13.38 110.053 12.9787 109.153 12.176 108.462C11.3733 107.781 10.3187 107.44 9.012 107.44C7.67734 107.44 6.604 107.781 5.792 108.462C4.98934 109.143 4.588 110.049 4.588 111.178C4.588 112.307 4.98934 113.213 5.792 113.894C6.59467 114.585 7.654 114.93 8.97 114.93C10.286 114.93 11.35 114.585 12.162 113.894C12.974 113.203 13.38 112.293 13.38 111.164Z" fill="black"/>
<path d="M13.968 117.425L13.968 121.695C13.968 122.656 13.7253 123.417 13.24 123.977C12.764 124.546 12.0733 124.831 11.168 124.831C10.216 124.831 9.49267 124.546 8.998 123.977C8.50334 123.408 8.256 122.638 8.256 121.667V118.377H4V117.425H13.968ZM13.156 118.377H9.054V121.401C9.054 122.138 9.21733 122.736 9.544 123.193C9.88 123.65 10.398 123.879 11.098 123.879C11.7887 123.879 12.302 123.669 12.638 123.249C12.9833 122.829 13.156 122.246 13.156 121.499V118.377Z" fill="black"/>
<path d="M8.424 129.911L4 126.481V125.249L8.424 128.679C8.452 127.793 8.70867 127.088 9.194 126.565C9.68867 126.052 10.3607 125.795 11.21 125.795C12.078 125.795 12.7547 126.066 13.24 126.607C13.7253 127.149 13.968 127.886 13.968 128.819V133.005H4L4 132.053H8.424V129.911ZM9.236 132.053H13.156V129.029C13.156 128.32 12.988 127.76 12.652 127.349C12.3253 126.948 11.8447 126.747 11.21 126.747C10.5753 126.747 10.0853 126.948 9.74 127.349C9.404 127.76 9.236 128.32 9.236 129.029V132.053Z" fill="black"/>
<path d="M8.76 141.012C8.676 140.676 8.58267 140.181 8.48 139.528C8.38667 138.874 8.34 138.347 8.34 137.946C8.34 137.395 8.396 136.919 8.508 136.518C8.62933 136.116 8.77867 135.804 8.956 135.58C9.13333 135.356 9.35733 135.174 9.628 135.034C9.89867 134.903 10.1507 134.819 10.384 134.782C10.6267 134.744 10.902 134.726 11.21 134.726H13.968V135.678H11.266C11.07 135.678 10.8927 135.687 10.734 135.706C10.5753 135.724 10.3887 135.776 10.174 135.86C9.96867 135.953 9.796 136.07 9.656 136.21C9.52533 136.359 9.40867 136.574 9.306 136.854C9.21267 137.134 9.166 137.465 9.166 137.848C9.166 138.874 9.30133 139.929 9.572 141.012H13.968L13.968 141.964H4V141.012H8.76Z" fill="black"/>
<path d="M14.206 148.147C14.206 149.537 13.7207 150.667 12.75 151.535C11.7793 152.412 10.5147 152.851 8.956 152.851C7.40667 152.851 6.15133 152.417 5.19 151.549C4.238 150.681 3.762 149.542 3.762 148.133C3.762 146.733 4.24267 145.603 5.204 144.745C6.16533 143.886 7.42533 143.457 8.984 143.457C10.5427 143.457 11.8027 143.886 12.764 144.745C13.7253 145.613 14.206 146.747 14.206 148.147ZM13.38 148.133C13.38 147.022 12.9787 146.121 12.176 145.431C11.3733 144.749 10.3187 144.409 9.012 144.409C7.67733 144.409 6.604 144.749 5.792 145.431C4.98933 146.112 4.588 147.017 4.588 148.147C4.588 149.276 4.98933 150.181 5.792 150.863C6.59467 151.553 7.654 151.899 8.97 151.899C10.286 151.899 11.35 151.553 12.162 150.863C12.974 150.172 13.38 149.262 13.38 148.133Z" fill="black"/>
<path d="M1.20001 3.0598e-08L1.2 153.341H0.5L0.500007 0L1.20001 3.0598e-08Z" fill="black"/>
</svg>
