<svg width="172" height="132" viewBox="0 0 172 132" fill="none" xmlns="http://www.w3.org/2000/svg">
<path d="M6.25002 11.1959C5.46602 11.1959 4.77535 11.0559 4.17802 10.7759C3.59002 10.4866 3.10002 10.1039 2.70802 9.62795C2.31602 9.15195 2.02202 8.60128 1.82602 7.97595C1.63002 7.35061 1.53202 6.69261 1.53202 6.00195C1.53202 5.32061 1.63002 4.66728 1.82602 4.04195C2.02202 3.40728 2.31602 2.85195 2.70802 2.37594C3.10002 1.89061 3.59002 1.50795 4.17802 1.22795C4.77535 0.938612 5.46602 0.793945 6.25002 0.793945C6.72602 0.793945 7.18802 0.863945 7.63602 1.00395C8.09335 1.14394 8.50402 1.35395 8.86802 1.63395C9.24135 1.90461 9.54935 2.24061 9.79202 2.64195C10.044 3.04328 10.2027 3.50528 10.268 4.02795H9.31602C9.23202 3.64528 9.09202 3.30461 8.89602 3.00595C8.70935 2.69795 8.47602 2.44128 8.19602 2.23595C7.92535 2.03061 7.62202 1.87661 7.28602 1.77395C6.95935 1.66195 6.61402 1.60595 6.25002 1.60595C5.58735 1.60595 5.01802 1.73195 4.54202 1.98395C4.06602 2.23595 3.67402 2.57195 3.36602 2.99195C3.06735 3.40261 2.84335 3.87395 2.69402 4.40595C2.55402 4.92861 2.48402 5.46061 2.48402 6.00195C2.48402 6.55261 2.55402 7.08928 2.69402 7.61195C2.84335 8.13461 3.06735 8.60595 3.36602 9.02595C3.67402 9.43661 4.06602 9.76795 4.54202 10.0199C5.01802 10.2719 5.58735 10.3979 6.25002 10.3979C6.70735 10.3979 7.12268 10.3139 7.49602 10.1459C7.87868 9.97795 8.20535 9.74928 8.47602 9.45995C8.74668 9.17061 8.96602 8.83461 9.13402 8.45195C9.30202 8.05995 9.40935 7.63995 9.45602 7.19195H10.408C10.3427 7.80795 10.198 8.36328 9.97402 8.85795C9.75002 9.35261 9.46068 9.77261 9.10602 10.1179C8.75135 10.4633 8.33135 10.7293 7.84602 10.9159C7.37002 11.1026 6.83802 11.1959 6.25002 11.1959Z" fill="black"/>
<path d="M11.8654 1.00395L18.7674 1.00395V1.81595H12.8174V5.42795H18.3894V6.23995H12.8174V10.1879L18.8374 10.1879V10.9999H11.8654V1.00395Z" fill="black"/>
<path d="M20.1643 1.00395L21.1163 1.00395V5.34395L27.0523 5.34395V1.00395H28.0043V10.9999H27.0523V6.15595H21.1163L21.1163 10.9999H20.1643V1.00395Z" fill="black"/>
<path d="M34.2637 11.1959C33.4797 11.1959 32.789 11.0559 32.1917 10.7759C31.6037 10.4866 31.1137 10.1039 30.7217 9.62795C30.3297 9.15195 30.0357 8.60128 29.8397 7.97595C29.6437 7.35061 29.5457 6.69261 29.5457 6.00195C29.5457 5.32061 29.6437 4.66728 29.8397 4.04195C30.0357 3.40728 30.3297 2.85195 30.7217 2.37595C31.1137 1.89061 31.6037 1.50795 32.1917 1.22795C32.789 0.938612 33.4797 0.793946 34.2637 0.793946C34.7397 0.793946 35.2017 0.863946 35.6497 1.00395C36.107 1.14395 36.5177 1.35395 36.8817 1.63395C37.255 1.90461 37.563 2.24061 37.8057 2.64195C38.0577 3.04328 38.2164 3.50528 38.2817 4.02795H37.3297C37.2457 3.64528 37.1057 3.30461 36.9097 3.00595C36.723 2.69795 36.4897 2.44128 36.2097 2.23595C35.939 2.03061 35.6357 1.87661 35.2997 1.77395C34.973 1.66195 34.6277 1.60595 34.2637 1.60595C33.601 1.60595 33.0317 1.73195 32.5557 1.98395C32.0797 2.23595 31.6877 2.57195 31.3797 2.99195C31.081 3.40261 30.857 3.87395 30.7077 4.40595C30.5677 4.92861 30.4977 5.46061 30.4977 6.00195C30.4977 6.55261 30.5677 7.08928 30.7077 7.61195C30.857 8.13461 31.081 8.60595 31.3797 9.02595C31.6877 9.43661 32.0797 9.76795 32.5557 10.0199C33.0317 10.2719 33.601 10.3979 34.2637 10.3979C34.721 10.3979 35.1364 10.3139 35.5097 10.1459C35.8924 9.97795 36.219 9.74928 36.4897 9.45995C36.7604 9.17061 36.9797 8.83461 37.1477 8.45195C37.3157 8.05995 37.423 7.63995 37.4697 7.19195H38.4217C38.3564 7.80795 38.2117 8.36328 37.9877 8.85795C37.7637 9.35261 37.4744 9.77261 37.1197 10.1179C36.765 10.4633 36.345 10.7293 35.8597 10.9159C35.3837 11.1026 34.8517 11.1959 34.2637 11.1959Z" fill="black"/>
<path d="M42.8051 1.00395L43.8691 1.00395L47.7891 10.9999H46.7671L45.5491 7.89195H40.9991L39.7951 10.9999H38.7871L42.8051 1.00395ZM45.2271 7.07995L43.2951 1.95595L41.2931 7.07995H45.2271Z" fill="black"/>
<path d="M56.6355 10.9999H48.6975V1.00395L49.6495 1.00395V10.1879H55.4455V1.00395H56.3975V10.1879H57.5875V13.6599H56.6355V10.9999Z" fill="black"/>
<path d="M58.7053 1.00395H59.6573V9.97795L65.3973 1.00395L66.6293 1.00395V10.9999H65.6773V2.02595L59.9373 10.9999H58.7053V1.00395Z" fill="black"/>
<path d="M71.1087 6.65995C70.6981 6.64128 70.3154 6.56661 69.9607 6.43595C69.6154 6.30528 69.3121 6.12328 69.0507 5.88995C68.7987 5.65661 68.5981 5.37661 68.4487 5.04995C68.3087 4.71395 68.2387 4.32661 68.2387 3.88795C68.2387 3.43995 68.3087 3.03861 68.4487 2.68395C68.5887 2.32928 68.7894 2.03061 69.0507 1.78795C69.3214 1.53595 69.6387 1.34461 70.0027 1.21395C70.3761 1.07395 70.7961 1.00395 71.2627 1.00395L75.4487 1.00395V10.9999H74.4967V6.71595H72.2567L68.9247 10.9999H67.6927L71.1087 6.65995ZM74.4967 5.90395V1.81595L71.4727 1.81595C70.7727 1.81595 70.2174 2.00261 69.8067 2.37595C69.3961 2.73995 69.1907 3.24395 69.1907 3.88795C69.1907 4.53195 69.3961 5.03128 69.8067 5.38595C70.2174 5.73128 70.7727 5.90395 71.4727 5.90395H74.4967Z" fill="black"/>
<path d="M78.2751 4.05595V0.919946H79.2971V4.05595L79.1011 8.46595H78.4711L78.2751 4.05595ZM78.2751 10.9999V9.76795H79.2971V10.9999H78.2751Z" fill="black"/>
<path d="M82.9372 4.05595V0.919946L83.9592 0.919946V4.05595L83.7632 8.46595H83.1332L82.9372 4.05595ZM82.9372 10.9999V9.76795H83.9592V10.9999H82.9372Z" fill="black"/>
<path d="M87.5993 4.05595V0.919946L88.6213 0.919946V4.05595L88.4253 8.46595H87.7953L87.5993 4.05595ZM87.5993 10.9999V9.76795H88.6213V10.9999H87.5993Z" fill="black"/>
<path d="M95.3459 1.00395L99.5739 1.00395C99.9939 1.00395 100.395 1.04595 100.778 1.12995C101.17 1.20461 101.511 1.33995 101.8 1.53595C102.099 1.72261 102.337 1.97461 102.514 2.29195C102.691 2.59995 102.78 2.98728 102.78 3.45395C102.78 3.71528 102.738 3.97195 102.654 4.22395C102.57 4.46661 102.449 4.69061 102.29 4.89595C102.141 5.09195 101.959 5.25995 101.744 5.39995C101.539 5.53995 101.305 5.63795 101.044 5.69395V5.72195C101.688 5.80595 102.201 6.07195 102.584 6.51995C102.967 6.95861 103.158 7.50461 103.158 8.15795C103.158 8.40061 103.121 8.68528 103.046 9.01195C102.981 9.32928 102.827 9.63728 102.584 9.93595C102.341 10.2346 101.982 10.4866 101.506 10.6919C101.03 10.8973 100.386 10.9999 99.5739 10.9999H95.3459V1.00395ZM99.5739 10.1879C99.9286 10.1879 100.265 10.1599 100.582 10.1039C100.899 10.0386 101.179 9.92661 101.422 9.76795C101.665 9.60928 101.856 9.39928 101.996 9.13795C102.136 8.87661 102.206 8.54061 102.206 8.12995C102.206 7.48595 101.977 7.00528 101.52 6.68795C101.072 6.36128 100.423 6.19795 99.5739 6.19795L96.2979 6.19795V10.1879H99.5739ZM99.5739 5.38595C99.9472 5.38595 100.274 5.34395 100.554 5.25995C100.843 5.16661 101.081 5.04528 101.268 4.89595C101.455 4.73728 101.595 4.55528 101.688 4.34995C101.781 4.14461 101.828 3.92528 101.828 3.69195C101.828 2.44128 101.077 1.81595 99.5739 1.81595L96.2979 1.81595V5.38595H99.5739Z" fill="black"/>
<path d="M108.58 1.00395L112.808 1.00395C113.228 1.00395 113.63 1.04595 114.012 1.12995C114.404 1.20461 114.745 1.33995 115.034 1.53595C115.333 1.72261 115.571 1.97461 115.748 2.29195C115.926 2.59995 116.014 2.98728 116.014 3.45395C116.014 3.71528 115.972 3.97195 115.888 4.22395C115.804 4.46661 115.683 4.69061 115.524 4.89595C115.375 5.09195 115.193 5.25995 114.978 5.39995C114.773 5.53995 114.54 5.63795 114.278 5.69395V5.72195C114.922 5.80595 115.436 6.07195 115.818 6.51995C116.201 6.95861 116.392 7.50461 116.392 8.15795C116.392 8.40061 116.355 8.68528 116.28 9.01195C116.215 9.32928 116.061 9.63728 115.818 9.93595C115.576 10.2346 115.216 10.4866 114.74 10.6919C114.264 10.8973 113.62 10.9999 112.808 10.9999H108.58V1.00395ZM112.808 10.1879C113.163 10.1879 113.499 10.1599 113.816 10.1039C114.134 10.0386 114.414 9.92661 114.656 9.76795C114.899 9.60928 115.09 9.39928 115.23 9.13795C115.37 8.87661 115.44 8.54061 115.44 8.12995C115.44 7.48595 115.212 7.00528 114.754 6.68795C114.306 6.36128 113.658 6.19795 112.808 6.19795H109.532V10.1879H112.808ZM112.808 5.38595C113.182 5.38595 113.508 5.34395 113.788 5.25995C114.078 5.16661 114.316 5.04528 114.502 4.89595C114.689 4.73728 114.829 4.55528 114.922 4.34995C115.016 4.14461 115.062 3.92528 115.062 3.69195C115.062 2.44128 114.311 1.81595 112.808 1.81595H109.532V5.38595H112.808Z" fill="black"/>
<path d="M118.842 11.1119C118.618 11.1119 118.413 11.0979 118.226 11.0699C118.049 11.0419 117.909 11.0093 117.806 10.9719V10.1319C117.928 10.1786 118.072 10.2206 118.24 10.2579C118.408 10.2859 118.604 10.2999 118.828 10.2999C119.183 10.2999 119.477 10.1879 119.71 9.96395C119.953 9.73995 120.186 9.38995 120.41 8.91395L120.536 8.64795L116.826 1.00395L117.848 1.00395L121.096 7.63995L124.26 1.00395L125.268 1.00395L121.334 9.15195C121.129 9.58128 120.928 9.92661 120.732 10.1879C120.536 10.4399 120.336 10.6359 120.13 10.7759C119.934 10.9159 119.729 11.0046 119.514 11.0419C119.309 11.0886 119.085 11.1119 118.842 11.1119Z" fill="black"/>
<path d="M125.897 11.0839C125.841 11.0839 125.771 11.0793 125.687 11.0699C125.612 11.0606 125.533 11.0513 125.449 11.0419C125.365 11.0326 125.29 11.0186 125.225 10.9999C125.159 10.9906 125.113 10.9813 125.085 10.9719V10.1599C125.159 10.1973 125.271 10.2253 125.421 10.2439C125.579 10.2533 125.696 10.2579 125.771 10.2579C125.873 10.2579 125.995 10.2486 126.135 10.2299C126.275 10.2019 126.419 10.1179 126.569 9.97795C126.727 9.82861 126.881 9.59995 127.031 9.29195C127.189 8.97461 127.325 8.52661 127.437 7.94795C127.558 7.35995 127.656 6.61795 127.731 5.72195C127.805 4.82595 127.843 3.72461 127.843 2.41795V1.00395L133.989 1.00395V10.9999H133.037V1.81595L128.767 1.81595V2.36195C128.767 3.81795 128.72 5.04528 128.627 6.04395C128.533 7.03328 128.407 7.85461 128.249 8.50795C128.09 9.15195 127.908 9.65128 127.703 10.0059C127.507 10.3513 127.301 10.6033 127.087 10.7619C126.881 10.9206 126.671 11.0139 126.457 11.0419C126.251 11.0699 126.065 11.0839 125.897 11.0839Z" fill="black"/>
<path d="M136.006 1.00395L136.958 1.00395V6.37995L142.768 1.00395H144.056L139.59 5.13395L144.266 10.9999H143.034L138.876 5.79195L136.958 7.56995V10.9999H136.006V1.00395Z" fill="black"/>
<path d="M148.01 1.00395L149.074 1.00395L152.994 10.9999H151.972L150.754 7.89195H146.204L145 10.9999H143.992L148.01 1.00395ZM150.432 7.07995L148.5 1.95595L146.498 7.07995H150.432Z" fill="black"/>
<path d="M153.903 1.00395L154.855 1.00395V5.34395H160.791V1.00395H161.743V10.9999H160.791V6.15595H154.855V10.9999H153.903V1.00395Z" fill="black"/>
<path d="M163.76 1.00395L170.662 1.00395V1.81595L164.712 1.81595V5.42795H170.284V6.23995H164.712V10.1879H170.732V10.9999H163.76V1.00395Z" fill="black"/>
<path d="M6.19402 31.1959C5.41002 31.1959 4.71935 31.0559 4.12202 30.7759C3.53402 30.4866 3.04402 30.1039 2.65202 29.6279C2.26002 29.1519 1.96602 28.6013 1.77002 27.9759C1.57402 27.3506 1.47602 26.6926 1.47602 26.0019C1.47602 25.3206 1.57402 24.6673 1.77002 24.0419C1.96602 23.4073 2.26002 22.8519 2.65202 22.3759C3.04402 21.8906 3.53402 21.5079 4.12202 21.2279C4.71935 20.9386 5.41002 20.7939 6.19402 20.7939C6.97802 20.7939 7.66402 20.9386 8.25202 21.2279C8.84002 21.5079 9.33002 21.8906 9.72202 22.3759C10.114 22.8519 10.408 23.4073 10.604 24.0419C10.8 24.6673 10.898 25.3206 10.898 26.0019C10.898 26.6926 10.8 27.3506 10.604 27.9759C10.408 28.6013 10.114 29.1519 9.72202 29.6279C9.33002 30.1039 8.84002 30.4866 8.25202 30.7759C7.66402 31.0559 6.97802 31.1959 6.19402 31.1959ZM6.19402 30.3979C6.84735 30.3979 7.41202 30.2719 7.88802 30.0199C8.36402 29.7679 8.75135 29.4366 9.05002 29.0259C9.35802 28.6059 9.58202 28.1346 9.72202 27.6119C9.87135 27.0893 9.94602 26.5526 9.94602 26.0019C9.94602 25.4606 9.87135 24.9286 9.72202 24.4059C9.58202 23.8739 9.35802 23.4026 9.05002 22.9919C8.75135 22.5719 8.36402 22.2359 7.88802 21.9839C7.41202 21.7319 6.84735 21.6059 6.19402 21.6059C5.53135 21.6059 4.96202 21.7319 4.48602 21.9839C4.01002 22.2359 3.61802 22.5719 3.31002 22.9919C3.01135 23.4026 2.78735 23.8739 2.63802 24.4059C2.49802 24.9286 2.42802 25.4606 2.42802 26.0019C2.42802 26.5526 2.49802 27.0893 2.63802 27.6119C2.78735 28.1346 3.01135 28.6059 3.31002 29.0259C3.61802 29.4366 4.01002 29.7679 4.48602 30.0199C4.96202 30.2719 5.53135 30.3979 6.19402 30.3979Z" fill="black"/>
<path d="M12.385 21.0039H19.287V21.8159L13.337 21.8159V25.2319H17.103C18.0363 25.2319 18.7643 25.4886 19.287 26.0019C19.8096 26.5153 20.071 27.2199 20.071 28.1159C20.071 29.0119 19.8096 29.7166 19.287 30.2299C18.7643 30.7433 18.0363 30.9999 17.103 30.9999H12.385V21.0039ZM16.893 30.1879C17.593 30.1879 18.139 30.0059 18.531 29.6419C18.923 29.2686 19.119 28.7599 19.119 28.1159C19.119 27.4719 18.923 26.9679 18.531 26.6039C18.139 26.2306 17.593 26.0439 16.893 26.0439H13.337V30.1879H16.893Z" fill="black"/>
<path d="M21.7229 21.0039H22.6749V25.3439H28.6109V21.0039H29.5629L29.5629 30.9999H28.6109V26.1559H22.6749V30.9999H21.7229V21.0039Z" fill="black"/>
<path d="M34.5063 21.0039H35.5703L39.4903 30.9999H38.4683L37.2503 27.8919H32.7003L31.4963 30.9999H30.4883L34.5063 21.0039ZM36.9283 27.0799L34.9963 21.9559L32.9943 27.0799H36.9283Z" fill="black"/>
<path d="M40.3986 21.0039H44.8366C45.2846 21.0039 45.6906 21.0693 46.0546 21.1999C46.4186 21.3213 46.7313 21.5079 46.9926 21.7599C47.254 22.0026 47.4546 22.3013 47.5946 22.6559C47.7346 23.0106 47.8046 23.4119 47.8046 23.8599C47.8046 24.3079 47.7346 24.7093 47.5946 25.0639C47.4546 25.4186 47.254 25.7219 46.9926 25.9739C46.7313 26.2166 46.4186 26.4033 46.0546 26.5339C45.6906 26.6553 45.2846 26.7159 44.8366 26.7159H41.3506V30.9999H40.3986V21.0039ZM44.6266 25.9039C45.2893 25.9039 45.826 25.7359 46.2366 25.3999C46.6473 25.0639 46.8526 24.5506 46.8526 23.8599C46.8526 23.1693 46.6473 22.6559 46.2366 22.3199C45.826 21.9839 45.2893 21.8159 44.6266 21.8159H41.3506V25.9039H44.6266Z" fill="black"/>
<path d="M50.141 31.1119C49.917 31.1119 49.7117 31.0979 49.525 31.0699C49.3477 31.0419 49.2077 31.0093 49.105 30.9719V30.1319C49.2263 30.1786 49.371 30.2206 49.539 30.2579C49.707 30.2859 49.903 30.2999 50.127 30.2999C50.4817 30.2999 50.7757 30.1879 51.009 29.9639C51.2517 29.7399 51.485 29.3899 51.709 28.9139L51.835 28.6479L48.125 21.0039H49.147L52.395 27.6399L55.559 21.0039H56.567L52.633 29.1519C52.4277 29.5813 52.227 29.9266 52.031 30.1879C51.835 30.4399 51.6343 30.6359 51.429 30.7759C51.233 30.9159 51.0277 31.0046 50.813 31.0419C50.6077 31.0886 50.3837 31.1119 50.141 31.1119Z" fill="black"/>
<path d="M60.8215 25.3159L56.6775 21.0039H57.9655L62.8935 26.2679L62.8935 21.0039H63.8455V26.2679L68.7735 21.0039H70.0615L65.9175 25.3159L70.4115 30.9999H69.1795L65.2455 26.0159L63.8455 27.4719V30.9999H62.8935V27.4719L61.4935 26.0159L57.5595 30.9999H56.3275L60.8215 25.3159Z" fill="black"/>
<path d="M71.3108 21.0039H78.2128V21.8159H72.2627V25.4279H77.8347V26.2399H72.2627V30.1879H78.2828V30.9999H71.3108V21.0039Z" fill="black"/>
<path d="M79.6096 21.0039H80.5616V25.3439H86.4976V21.0039H87.4496V30.9999H86.4976V26.1559H80.5616V30.9999H79.6096V21.0039Z" fill="black"/>
<path d="M93.653 31.1959C92.869 31.1959 92.1783 31.0559 91.581 30.7759C90.993 30.4866 90.503 30.1039 90.111 29.6279C89.719 29.1519 89.425 28.6013 89.229 27.9759C89.033 27.3506 88.935 26.6926 88.935 26.0019C88.935 25.3206 89.033 24.6673 89.229 24.0419C89.425 23.4073 89.719 22.8519 90.111 22.3759C90.503 21.8906 90.993 21.5079 91.581 21.2279C92.1783 20.9386 92.869 20.7939 93.653 20.7939C94.437 20.7939 95.123 20.9386 95.711 21.2279C96.299 21.5079 96.789 21.8906 97.181 22.3759C97.573 22.8519 97.867 23.4073 98.063 24.0419C98.259 24.6673 98.357 25.3206 98.357 26.0019C98.357 26.6926 98.259 27.3506 98.063 27.9759C97.867 28.6013 97.573 29.1519 97.181 29.6279C96.789 30.1039 96.299 30.4866 95.711 30.7759C95.123 31.0559 94.437 31.1959 93.653 31.1959ZM93.653 30.3979C94.3063 30.3979 94.871 30.2719 95.347 30.0199C95.823 29.7679 96.2103 29.4366 96.509 29.0259C96.817 28.6059 97.041 28.1346 97.181 27.6119C97.3303 27.0893 97.405 26.5526 97.405 26.0019C97.405 25.4606 97.3303 24.9286 97.181 24.4059C97.041 23.8739 96.817 23.4026 96.509 22.9919C96.2103 22.5719 95.823 22.2359 95.347 21.9839C94.871 21.7319 94.3063 21.6059 93.653 21.6059C92.9903 21.6059 92.421 21.7319 91.945 21.9839C91.469 22.2359 91.077 22.5719 90.769 22.9919C90.4703 23.4026 90.2463 23.8739 90.097 24.4059C89.957 24.9286 89.887 25.4606 89.887 26.0019C89.887 26.5526 89.957 27.0893 90.097 27.6119C90.2463 28.1346 90.4703 28.6059 90.769 29.0259C91.077 29.4366 91.469 29.7679 91.945 30.0199C92.421 30.2719 92.9903 30.3979 93.653 30.3979Z" fill="black"/>
<path d="M103.74 21.0039H104.692V25.3439H110.628V21.0039H111.58V30.9999H110.628V26.1559H104.692V30.9999H103.74V21.0039Z" fill="black"/>
<path d="M113.598 21.0039H120.5V21.8159H114.55V25.4279H120.122V26.2399H114.55V30.1879H120.57V30.9999H113.598V21.0039Z" fill="black"/>
<path d="M127.749 26.4499C127.609 26.4873 127.413 26.5293 127.161 26.5759C126.909 26.6226 126.633 26.6693 126.335 26.7159C126.045 26.7533 125.751 26.7906 125.453 26.8279C125.163 26.8559 124.907 26.8699 124.683 26.8699C123.964 26.8699 123.39 26.7859 122.961 26.6179C122.541 26.4406 122.219 26.2166 121.995 25.9459C121.771 25.6659 121.626 25.3579 121.561 25.0219C121.495 24.6766 121.463 24.3359 121.463 23.9999V21.0039H122.415V23.9439C122.415 24.1493 122.433 24.3733 122.471 24.6159C122.508 24.8586 122.601 25.0873 122.751 25.3019C122.9 25.5073 123.115 25.6846 123.395 25.8339C123.684 25.9739 124.081 26.0439 124.585 26.0439C124.883 26.0439 125.191 26.0299 125.509 26.0019C125.835 25.9646 126.143 25.9273 126.433 25.8899C126.722 25.8433 126.979 25.7966 127.203 25.7499C127.436 25.7033 127.618 25.6659 127.749 25.6379V21.0039H128.701V30.9999H127.749V26.4499Z" fill="black"/>
<path d="M133.123 21.8159H129.651V21.0039H137.561V21.8159H134.075V30.9999H133.123V21.8159Z" fill="black"/>
<path d="M142.68 31.1959C141.896 31.1959 141.206 31.0559 140.608 30.7759C140.02 30.4866 139.53 30.1039 139.138 29.6279C138.746 29.1519 138.452 28.6013 138.256 27.9759C138.06 27.3506 137.962 26.6926 137.962 26.0019C137.962 25.3206 138.06 24.6673 138.256 24.0419C138.452 23.4073 138.746 22.8519 139.138 22.3759C139.53 21.8906 140.02 21.5079 140.608 21.2279C141.206 20.9386 141.896 20.7939 142.68 20.7939C143.464 20.7939 144.15 20.9386 144.738 21.2279C145.326 21.5079 145.816 21.8906 146.208 22.3759C146.6 22.8519 146.894 23.4073 147.09 24.0419C147.286 24.6673 147.384 25.3206 147.384 26.0019C147.384 26.6926 147.286 27.3506 147.09 27.9759C146.894 28.6013 146.6 29.1519 146.208 29.6279C145.816 30.1039 145.326 30.4866 144.738 30.7759C144.15 31.0559 143.464 31.1959 142.68 31.1959ZM142.68 30.3979C143.334 30.3979 143.898 30.2719 144.374 30.0199C144.85 29.7679 145.238 29.4366 145.536 29.0259C145.844 28.6059 146.068 28.1346 146.208 27.6119C146.358 27.0893 146.432 26.5526 146.432 26.0019C146.432 25.4606 146.358 24.9286 146.208 24.4059C146.068 23.8739 145.844 23.4026 145.536 22.9919C145.238 22.5719 144.85 22.2359 144.374 21.9839C143.898 21.7319 143.334 21.6059 142.68 21.6059C142.018 21.6059 141.448 21.7319 140.972 21.9839C140.496 22.2359 140.104 22.5719 139.796 22.9919C139.498 23.4026 139.274 23.8739 139.124 24.4059C138.984 24.9286 138.914 25.4606 138.914 26.0019C138.914 26.5526 138.984 27.0893 139.124 27.6119C139.274 28.1346 139.498 28.6059 139.796 29.0259C140.104 29.4366 140.496 29.7679 140.972 30.0199C141.448 30.2719 142.018 30.3979 142.68 30.3979Z" fill="black"/>
<path d="M149.683 24.0559V20.9199H150.705V24.0559L150.509 28.4659H149.879L149.683 24.0559ZM149.683 30.9999V29.7679H150.705V30.9999H149.683Z" fill="black"/>
<path d="M2.93202 71.1119C2.70802 71.1119 2.50268 71.0979 2.31602 71.0699C2.13868 71.0419 1.99868 71.0093 1.89602 70.9719V70.1319C2.01735 70.1786 2.16202 70.2206 2.33002 70.2579C2.49802 70.2859 2.69402 70.2999 2.91802 70.2999C3.27268 70.2999 3.56668 70.1879 3.80002 69.9639C4.04268 69.7399 4.27602 69.3899 4.50002 68.9139L4.62602 68.6479L0.916016 61.0039H1.93802L5.18602 67.6399L8.35002 61.0039H9.35802L5.42402 69.1519C5.21868 69.5813 5.01802 69.9266 4.82202 70.1879C4.62602 70.4399 4.42535 70.6359 4.22002 70.7759C4.02402 70.9159 3.81868 71.0046 3.60402 71.0419C3.39868 71.0886 3.17468 71.1119 2.93202 71.1119Z" fill="black"/>
<path d="M16.0905 66.4499C15.9505 66.4873 15.7545 66.5293 15.5025 66.5759C15.2505 66.6226 14.9752 66.6693 14.6765 66.7159C14.3872 66.7533 14.0932 66.7906 13.7945 66.8279C13.5052 66.8559 13.2485 66.8699 13.0245 66.8699C12.3058 66.8699 11.7318 66.7859 11.3025 66.6179C10.8825 66.4406 10.5605 66.2166 10.3365 65.9459C10.1125 65.6659 9.96782 65.3579 9.90248 65.0219C9.83715 64.6766 9.80448 64.3359 9.80448 63.9999V61.0039H10.7565V63.9439C10.7565 64.1493 10.7752 64.3733 10.8125 64.6159C10.8498 64.8586 10.9432 65.0873 11.0925 65.3019C11.2418 65.5073 11.4565 65.6846 11.7365 65.8339C12.0258 65.9739 12.4225 66.0439 12.9265 66.0439C13.2252 66.0439 13.5332 66.0299 13.8505 66.0019C14.1772 65.9646 14.4852 65.9273 14.7745 65.8899C15.0638 65.8433 15.3205 65.7966 15.5445 65.7499C15.7778 65.7033 15.9598 65.6659 16.0905 65.6379V61.0039H17.0425V70.9999H16.0905V66.4499Z" fill="black"/>
<path d="M19.0568 61.0039H25.9588V61.8159H20.0088V65.4279H25.5808V66.2399H20.0088V70.1879H26.0288V70.9999H19.0568V61.0039Z" fill="black"/>
<path d="M27.3557 61.0039H28.3077V65.3439H34.2437V61.0039H35.1957V70.9999H34.2437V66.1559H28.3077V70.9999H27.3557V61.0039Z" fill="black"/>
<path d="M37.2131 61.0039H38.1651V65.2319H41.6511C42.5844 65.2319 43.3124 65.4886 43.8351 66.0019C44.3578 66.5153 44.6191 67.2199 44.6191 68.1159C44.6191 69.0119 44.3578 69.7166 43.8351 70.2299C43.3124 70.7433 42.5844 70.9999 41.6511 70.9999H37.2131V61.0039ZM41.4411 70.1879C42.1411 70.1879 42.6871 70.0059 43.0791 69.6419C43.4711 69.2686 43.6671 68.7599 43.6671 68.1159C43.6671 67.4719 43.4711 66.9679 43.0791 66.6039C42.6871 66.2306 42.1411 66.0439 41.4411 66.0439H38.1651V70.1879H41.4411ZM46.0891 61.0039H47.0411V70.9999H46.0891V61.0039Z" fill="black"/>
<path d="M49.0529 61.0039H55.9549V61.8159H50.0049V65.4279H55.5769V66.2399H50.0049V70.1879H56.0249V70.9999H49.0529V61.0039Z" fill="black"/>
<path d="M65.4342 71.1959C64.6502 71.1959 63.9596 71.0559 63.3623 70.7759C62.7743 70.4866 62.2843 70.1039 61.8923 69.6279C61.5003 69.1519 61.2063 68.6013 61.0103 67.9759C60.8143 67.3506 60.7163 66.6926 60.7163 66.0019C60.7163 65.3206 60.8143 64.6673 61.0103 64.0419C61.2063 63.4073 61.5003 62.8519 61.8923 62.3759C62.2843 61.8906 62.7743 61.5079 63.3623 61.2279C63.9596 60.9386 64.6502 60.7939 65.4342 60.7939C66.2182 60.7939 66.9042 60.9386 67.4922 61.2279C68.0802 61.5079 68.5702 61.8906 68.9622 62.3759C69.3542 62.8519 69.6483 63.4073 69.8443 64.0419C70.0403 64.6673 70.1383 65.3206 70.1383 66.0019C70.1383 66.6926 70.0403 67.3506 69.8443 67.9759C69.6483 68.6013 69.3542 69.1519 68.9622 69.6279C68.5702 70.1039 68.0802 70.4866 67.4922 70.7759C66.9042 71.0559 66.2182 71.1959 65.4342 71.1959ZM65.4342 70.3979C66.0876 70.3979 66.6523 70.2719 67.1283 70.0199C67.6043 69.7679 67.9916 69.4366 68.2903 69.0259C68.5983 68.6059 68.8222 68.1346 68.9622 67.6119C69.1116 67.0893 69.1862 66.5526 69.1862 66.0019C69.1862 65.4606 69.1116 64.9286 68.9622 64.4059C68.8222 63.8739 68.5983 63.4026 68.2903 62.9919C67.9916 62.5719 67.6043 62.2359 67.1283 61.9839C66.6523 61.7319 66.0876 61.6059 65.4342 61.6059C64.7716 61.6059 64.2022 61.7319 63.7262 61.9839C63.2502 62.2359 62.8583 62.5719 62.5503 62.9919C62.2516 63.4026 62.0276 63.8739 61.8783 64.4059C61.7383 64.9286 61.6683 65.4606 61.6683 66.0019C61.6683 66.5526 61.7383 67.0893 61.8783 67.6119C62.0276 68.1346 62.2516 68.6059 62.5503 69.0259C62.8583 69.4366 63.2502 69.7679 63.7262 70.0199C64.2022 70.2719 64.7716 70.3979 65.4342 70.3979Z" fill="black"/>
<path d="M71.6252 61.0039H78.5272V61.8159H72.5772V65.2319H76.3432C77.2765 65.2319 78.0045 65.4886 78.5272 66.0019C79.0499 66.5153 79.3112 67.2199 79.3112 68.1159C79.3112 69.0119 79.0499 69.7166 78.5272 70.2299C78.0045 70.7433 77.2765 70.9999 76.3432 70.9999H71.6252V61.0039ZM76.1332 70.188C76.8332 70.188 77.3792 70.0059 77.7712 69.6419C78.1632 69.2686 78.3592 68.7599 78.3592 68.1159C78.3592 67.4719 78.1632 66.9679 77.7712 66.6039C77.3792 66.2306 76.8332 66.0439 76.1332 66.0439H72.5772V70.188H76.1332Z" fill="black"/>
<path d="M80.9631 61.0039H81.9151V65.3439H87.8511V61.0039H88.8031V70.9999H87.8511V66.1559H81.9151V70.9999H80.9631V61.0039Z" fill="black"/>
<path d="M93.7465 61.0039H94.8105L98.7305 70.9999H97.7085L96.4905 67.8919H91.9405L90.7365 70.9999H89.7285L93.7465 61.0039ZM96.1685 67.0799L94.2365 61.9559L92.2345 67.0799H96.1685Z" fill="black"/>
<path d="M99.6389 61.0039H104.077C104.525 61.0039 104.931 61.0693 105.295 61.1999C105.659 61.3213 105.972 61.5079 106.233 61.7599C106.494 62.0026 106.695 62.3013 106.835 62.6559C106.975 63.0106 107.045 63.4119 107.045 63.8599C107.045 64.3079 106.975 64.7093 106.835 65.0639C106.695 65.4186 106.494 65.7219 106.233 65.9739C105.972 66.2166 105.659 66.4033 105.295 66.5339C104.931 66.6553 104.525 66.716 104.077 66.716H100.591V70.9999H99.6389V61.0039ZM103.867 65.9039C104.53 65.9039 105.066 65.7359 105.477 65.3999C105.888 65.0639 106.093 64.5506 106.093 63.8599C106.093 63.1693 105.888 62.6559 105.477 62.3199C105.066 61.9839 104.53 61.8159 103.867 61.8159H100.591V65.9039H103.867Z" fill="black"/>
<path d="M109.381 71.1119C109.157 71.1119 108.952 71.0979 108.765 71.0699C108.588 71.0419 108.448 71.0093 108.345 70.9719V70.132C108.467 70.1786 108.611 70.2206 108.779 70.2579C108.947 70.2859 109.143 70.2999 109.367 70.2999C109.722 70.2999 110.016 70.1879 110.249 69.9639C110.492 69.7399 110.725 69.3899 110.949 68.9139L111.075 68.6479L107.365 61.0039H108.387L111.635 67.6399L114.799 61.0039H115.807L111.873 69.1519C111.668 69.5813 111.467 69.9266 111.271 70.188C111.075 70.44 110.875 70.6359 110.669 70.7759C110.473 70.9159 110.268 71.0046 110.053 71.0419C109.848 71.0886 109.624 71.1119 109.381 71.1119Z" fill="black"/>
<path d="M120.062 65.3159L115.918 61.0039H117.206L122.134 66.2679V61.0039H123.086V66.2679L128.014 61.0039H129.302L125.158 65.3159L129.652 70.9999H128.42L124.486 66.0159L123.086 67.4719V70.9999H122.134V67.4719L120.734 66.0159L116.8 70.9999H115.568L120.062 65.3159Z" fill="black"/>
<path d="M130.551 61.0039H131.503V69.9779L137.243 61.0039H138.475V70.9999H137.523V62.0259L131.783 70.9999H130.551V61.0039Z" fill="black"/>
<path d="M140.238 71.0839C140.182 71.0839 140.112 71.0793 140.028 71.0699C139.954 71.0606 139.874 71.0513 139.79 71.0419C139.706 71.0326 139.632 71.0186 139.566 70.9999C139.501 70.9906 139.454 70.9813 139.426 70.9719V70.16C139.501 70.1973 139.613 70.2253 139.762 70.2439C139.921 70.2533 140.038 70.2579 140.112 70.2579C140.215 70.2579 140.336 70.2486 140.476 70.2299C140.616 70.2019 140.761 70.1179 140.91 69.9779C141.069 69.8286 141.223 69.5999 141.372 69.2919C141.531 68.9746 141.666 68.5266 141.778 67.9479C141.9 67.3599 141.998 66.6179 142.072 65.7219C142.147 64.8259 142.184 63.7246 142.184 62.4179V61.0039H148.33V70.9999H147.378V61.8159H143.108V62.3619C143.108 63.8179 143.062 65.0453 142.968 66.0439C142.875 67.0333 142.749 67.8546 142.59 68.5079C142.432 69.1519 142.25 69.6513 142.044 70.0059C141.848 70.3513 141.643 70.6033 141.428 70.7619C141.223 70.9206 141.013 71.0139 140.798 71.0419C140.593 71.0699 140.406 71.0839 140.238 71.0839Z" fill="black"/>
<path d="M150.348 61.0039H151.3V69.9779L157.04 61.0039H158.272V70.9999H157.32V62.0259L151.58 70.9999H150.348V61.0039Z" fill="black"/>
<path d="M1.75602 91.0839C1.70002 91.0839 1.63002 91.0793 1.54602 91.0699C1.47135 91.0606 1.39202 91.0513 1.30802 91.0419C1.22402 91.0326 1.14935 91.0186 1.08402 90.9999C1.01868 90.9906 0.972016 90.9813 0.944016 90.9719L0.944016 90.1599C1.01868 90.1973 1.13068 90.2253 1.28002 90.2439C1.43868 90.2533 1.55535 90.2579 1.63002 90.2579C1.73268 90.2579 1.85402 90.2486 1.99402 90.2299C2.13402 90.2019 2.27868 90.1179 2.42802 89.9779C2.58668 89.8286 2.74068 89.5999 2.89002 89.2919C3.04868 88.9746 3.18402 88.5266 3.29602 87.9479C3.41735 87.3599 3.51535 86.6179 3.59002 85.7219C3.66468 84.8259 3.70202 83.7246 3.70202 82.4179V81.0039H9.84802V90.9999H8.89602V81.8159H4.62602V82.3619C4.62602 83.8179 4.57935 85.0453 4.48602 86.0439C4.39268 87.0333 4.26668 87.8546 4.10802 88.5079C3.94935 89.1519 3.76735 89.6513 3.56202 90.0059C3.36602 90.3513 3.16068 90.6033 2.94602 90.7619C2.74068 90.9206 2.53068 91.0139 2.31602 91.0419C2.11068 91.0699 1.92402 91.0839 1.75602 91.0839Z" fill="black"/>
<path d="M19.5374 91.1959C18.8001 91.1959 18.1514 91.0606 17.5914 90.7899C17.0314 90.5193 16.5554 90.1553 16.1634 89.6979C15.7808 89.2313 15.4868 88.6993 15.2814 88.1019C15.0854 87.4953 14.9781 86.8559 14.9594 86.1839H12.8174V90.9999H11.8654V81.0039H12.8174L12.8174 85.3719H14.9874C15.0434 84.7559 15.1788 84.1726 15.3934 83.6219C15.6174 83.0619 15.9208 82.5719 16.3034 82.1519C16.6861 81.7319 17.1434 81.4006 17.6754 81.1579C18.2168 80.9153 18.8374 80.7939 19.5374 80.7939C20.2841 80.7939 20.9421 80.9386 21.5114 81.2279C22.0808 81.5079 22.5568 81.8906 22.9394 82.3759C23.3221 82.8519 23.6114 83.4073 23.8074 84.0419C24.0034 84.6673 24.1014 85.3206 24.1014 86.0019C24.1014 86.6926 24.0034 87.3506 23.8074 87.9759C23.6114 88.6013 23.3221 89.1519 22.9394 89.6279C22.5568 90.1039 22.0808 90.4866 21.5114 90.7759C20.9421 91.0559 20.2841 91.1959 19.5374 91.1959ZM19.5374 90.3979C20.1628 90.3979 20.6994 90.2719 21.1474 90.0199C21.6048 89.7679 21.9781 89.4366 22.2674 89.0259C22.5661 88.6059 22.7854 88.1346 22.9254 87.6119C23.0748 87.0893 23.1494 86.5526 23.1494 86.0019C23.1494 85.4606 23.0748 84.9286 22.9254 84.4059C22.7854 83.8739 22.5661 83.4026 22.2674 82.9919C21.9781 82.5719 21.6048 82.2359 21.1474 81.9839C20.6994 81.7319 20.1628 81.6059 19.5374 81.6059C18.9121 81.6059 18.3708 81.7319 17.9134 81.9839C17.4561 82.2359 17.0781 82.5719 16.7794 82.9919C16.4901 83.4026 16.2708 83.8739 16.1214 84.4059C15.9814 84.9286 15.9114 85.4606 15.9114 86.0019C15.9114 86.5526 15.9814 87.0893 16.1214 87.6119C16.2708 88.1346 16.4901 88.6059 16.7794 89.0259C17.0781 89.4366 17.4561 89.7679 17.9134 90.0199C18.3708 90.2719 18.9121 90.3979 19.5374 90.3979Z" fill="black"/>
<path d="M24.584 90.1879H25.634C25.9887 89.5346 26.264 88.8673 26.46 88.1859C26.656 87.4953 26.8007 86.8093 26.894 86.1279C26.9967 85.4466 27.0573 84.7839 27.076 84.1399C27.104 83.4959 27.118 82.8893 27.118 82.3199V81.0039H33.306V90.1879H34.496V93.6599H33.544V90.9999H25.536L25.536 93.6599H24.584V90.1879ZM32.354 90.1879V81.8159H28.07V82.1519C28.07 82.7119 28.0607 83.3233 28.042 83.9859C28.0327 84.6393 27.9813 85.3159 27.888 86.0159C27.7947 86.7159 27.65 87.4206 27.454 88.1299C27.2673 88.8393 26.9967 89.5253 26.642 90.1879H32.354Z" fill="black"/>
<path d="M35.6135 81.0039H42.5155V81.8159H36.5655V85.4279H42.1375V86.2399H36.5655V90.1879H42.5855V90.9999H35.6135V81.0039Z" fill="black"/>
<path d="M43.9123 81.0039H44.8643V89.9779L50.6043 81.0039H51.8363V90.9999H50.8843V82.0259L45.1443 90.9999H43.9123V81.0039ZM47.7903 80.1779C47.2023 80.1779 46.745 80.0239 46.4183 79.7159C46.0916 79.3986 45.891 78.9459 45.8163 78.3579H46.3623C46.409 78.7126 46.5536 78.9926 46.7963 79.1979C47.0483 79.4033 47.3843 79.5059 47.8043 79.5059C48.2056 79.5059 48.5323 79.4079 48.7843 79.2119C49.0456 79.0066 49.2136 78.7219 49.2883 78.3579H49.8343C49.7316 78.9459 49.5123 79.3986 49.1763 79.7159C48.8403 80.0239 48.3783 80.1779 47.7903 80.1779Z" fill="black"/>
<path d="M57.7482 81.0039H61.9762C62.3962 81.0039 62.7976 81.0459 63.1803 81.1299C63.5723 81.2046 63.9129 81.3399 64.2023 81.5359C64.5009 81.7226 64.7389 81.9746 64.9163 82.2919C65.0936 82.5999 65.1823 82.9873 65.1823 83.4539C65.1823 83.7153 65.1403 83.9719 65.0563 84.2239C64.9723 84.4666 64.8509 84.6906 64.6922 84.8959C64.5429 85.0919 64.3609 85.2599 64.1463 85.3999C63.9409 85.5399 63.7076 85.6379 63.4463 85.6939V85.7219C64.0903 85.8059 64.6036 86.0719 64.9863 86.5199C65.3689 86.9586 65.5602 87.5046 65.5602 88.1579C65.5602 88.4006 65.5229 88.6853 65.4482 89.0119C65.3829 89.3293 65.2289 89.6373 64.9863 89.9359C64.7436 90.2346 64.3842 90.4866 63.9082 90.6919C63.4322 90.8973 62.7882 90.9999 61.9762 90.9999H57.7482V81.0039ZM61.9762 90.1879C62.3309 90.1879 62.6669 90.1599 62.9842 90.1039C63.3016 90.0386 63.5816 89.9266 63.8242 89.7679C64.0669 89.6093 64.2583 89.3993 64.3983 89.1379C64.5383 88.8766 64.6082 88.5406 64.6082 88.1299C64.6082 87.4859 64.3796 87.0053 63.9222 86.6879C63.4742 86.3613 62.8256 86.1979 61.9762 86.1979H58.7002V90.1879H61.9762ZM61.9762 85.3859C62.3496 85.3859 62.6762 85.3439 62.9562 85.2599C63.2456 85.1666 63.4836 85.0453 63.6702 84.8959C63.8569 84.7373 63.9969 84.5553 64.0903 84.3499C64.1836 84.1446 64.2303 83.9253 64.2303 83.6919C64.2303 82.4413 63.4789 81.8159 61.9762 81.8159H58.7002V85.3859H61.9762Z" fill="black"/>
<path d="M74.3566 85.3159L70.2126 81.0039H71.5006L76.4286 86.2679V81.0039H77.3806V86.2679L82.3086 81.0039H83.5966L79.4526 85.3159L83.9466 90.9999H82.7146L78.7806 86.0159L77.3806 87.4719V90.9999H76.4286V87.4719L75.0286 86.0159L71.0946 90.9999H69.8626L74.3566 85.3159Z" fill="black"/>
<path d="M84.8459 81.0039H91.7479V81.8159H85.7979V85.4279H91.3699V86.2399H85.7979V90.188H91.8179V90.9999H84.8459V81.0039Z" fill="black"/>
<path d="M93.1447 81.0039H97.5827C98.0307 81.0039 98.4367 81.0693 98.8007 81.1999C99.1647 81.3213 99.4774 81.5079 99.7387 81.7599C100 82.0026 100.201 82.3013 100.341 82.6559C100.481 83.0106 100.551 83.4119 100.551 83.8599C100.551 84.3079 100.481 84.7093 100.341 85.0639C100.201 85.4186 100 85.7219 99.7387 85.9739C99.4774 86.2166 99.1647 86.4033 98.8007 86.5339C98.4367 86.6553 98.0307 86.716 97.5827 86.716H94.0967V90.9999H93.1447V81.0039ZM97.3727 85.9039C98.0354 85.9039 98.5721 85.7359 98.9827 85.3999C99.3934 85.0639 99.5987 84.5506 99.5987 83.8599C99.5987 83.1693 99.3934 82.6559 98.9827 82.3199C98.5721 81.9839 98.0354 81.8159 97.3727 81.8159H94.0967V85.9039H97.3727Z" fill="black"/>
<path d="M101.711 91.0839C101.655 91.0839 101.585 91.0793 101.501 91.0699C101.426 91.0606 101.347 91.0513 101.263 91.0419C101.179 91.0326 101.104 91.0186 101.039 90.9999C100.974 90.9906 100.927 90.9813 100.899 90.9719V90.16C100.974 90.1973 101.086 90.2253 101.235 90.2439C101.394 90.2533 101.51 90.2579 101.585 90.2579C101.688 90.2579 101.809 90.2486 101.949 90.2299C102.089 90.2019 102.234 90.1179 102.383 89.9779C102.542 89.8286 102.696 89.5999 102.845 89.2919C103.004 88.9746 103.139 88.5266 103.251 87.9479C103.372 87.3599 103.47 86.6179 103.545 85.7219C103.62 84.8259 103.657 83.7246 103.657 82.4179V81.0039H109.803V90.9999H108.851V81.8159H104.581V82.3619C104.581 83.8179 104.534 85.0453 104.441 86.0439C104.348 87.0333 104.222 87.8546 104.063 88.5079C103.904 89.1519 103.722 89.6513 103.517 90.0059C103.321 90.3513 103.116 90.6033 102.901 90.7619C102.696 90.9206 102.486 91.0139 102.271 91.0419C102.066 91.0699 101.879 91.0839 101.711 91.0839Z" fill="black"/>
<path d="M111.821 81.0039H118.723V81.8159H112.773V85.4279H118.345V86.2399H112.773V90.188H118.793V90.9999H111.821V81.0039Z" fill="black"/>
<path d="M2.00802 101.004H6.23602C6.65602 101.004 7.05735 101.046 7.44002 101.13C7.83202 101.205 8.17268 101.34 8.46202 101.536C8.76068 101.723 8.99868 101.975 9.17602 102.292C9.35335 102.6 9.44202 102.987 9.44202 103.454C9.44202 103.715 9.40002 103.972 9.31602 104.224C9.23202 104.467 9.11068 104.691 8.95202 104.896C8.80268 105.092 8.62068 105.26 8.40602 105.4C8.20068 105.54 7.96735 105.638 7.70602 105.694V105.722C8.35002 105.806 8.86335 106.072 9.24602 106.52C9.62868 106.959 9.82002 107.505 9.82002 108.158C9.82002 108.401 9.78268 108.685 9.70802 109.012C9.64268 109.329 9.48868 109.637 9.24602 109.936C9.00335 110.235 8.64402 110.487 8.16802 110.692C7.69202 110.897 7.04802 111 6.23602 111H2.00802V101.004ZM6.23602 110.188C6.59068 110.188 6.92668 110.16 7.24402 110.104C7.56135 110.039 7.84135 109.927 8.08402 109.768C8.32668 109.609 8.51802 109.399 8.65802 109.138C8.79802 108.877 8.86802 108.541 8.86802 108.13C8.86802 107.486 8.63935 107.005 8.18202 106.688C7.73402 106.361 7.08535 106.198 6.23602 106.198H2.96002V110.188H6.23602ZM6.23602 105.386C6.60935 105.386 6.93602 105.344 7.21602 105.26C7.50535 105.167 7.74335 105.045 7.93002 104.896C8.11668 104.737 8.25668 104.555 8.35002 104.35C8.44335 104.145 8.49002 103.925 8.49002 103.692C8.49002 102.441 7.73868 101.816 6.23602 101.816H2.96002V105.386H6.23602Z" fill="black"/>
<path d="M12.2699 111.112C12.0459 111.112 11.8406 111.098 11.6539 111.07C11.4766 111.042 11.3366 111.009 11.2339 110.972V110.132C11.3552 110.179 11.4999 110.221 11.6679 110.258C11.8359 110.286 12.0319 110.3 12.2559 110.3C12.6106 110.3 12.9046 110.188 13.1379 109.964C13.3806 109.74 13.6139 109.39 13.8379 108.914L13.9639 108.648L10.2539 101.004H11.2759L14.5239 107.64L17.6879 101.004H18.6959L14.7619 109.152C14.5566 109.581 14.3559 109.927 14.1599 110.188C13.9639 110.44 13.7632 110.636 13.5579 110.776C13.3619 110.916 13.1566 111.005 12.9419 111.042C12.7366 111.089 12.5126 111.112 12.2699 111.112Z" fill="black"/>
<path d="M19.3244 111.084C19.2684 111.084 19.1984 111.079 19.1144 111.07C19.0397 111.061 18.9604 111.051 18.8764 111.042C18.7924 111.033 18.7177 111.019 18.6524 111C18.587 110.991 18.5404 110.981 18.5124 110.972V110.16C18.587 110.197 18.699 110.225 18.8484 110.244C19.007 110.253 19.1237 110.258 19.1984 110.258C19.301 110.258 19.4224 110.249 19.5624 110.23C19.7024 110.202 19.847 110.118 19.9964 109.978C20.155 109.829 20.309 109.6 20.4584 109.292C20.617 108.975 20.7524 108.527 20.8644 107.948C20.9857 107.36 21.0837 106.618 21.1584 105.722C21.233 104.826 21.2704 103.725 21.2704 102.418V101.004H27.4164V111H26.4644V101.816H22.1944V102.362C22.1944 103.818 22.1477 105.045 22.0544 106.044C21.961 107.033 21.835 107.855 21.6764 108.508C21.5177 109.152 21.3357 109.651 21.1304 110.006C20.9344 110.351 20.729 110.603 20.5144 110.762C20.309 110.921 20.099 111.014 19.8844 111.042C19.679 111.07 19.4924 111.084 19.3244 111.084Z" fill="black"/>
<path d="M29.4338 101.004H30.3858V106.38L36.1958 101.004H37.4838L33.0178 105.134L37.6938 111H36.4618L32.3038 105.792L30.3858 107.57V111H29.4338V101.004Z" fill="black"/>
<path d="M41.4379 101.004H42.5019L46.4219 111H45.3999L44.1819 107.892H39.6319L38.4279 111H37.4199L41.4379 101.004ZM43.8599 107.08L41.9279 101.956L39.9259 107.08H43.8599Z" fill="black"/>
<path d="M47.3303 101.004H48.2823V105.344H54.2183V101.004H55.1703V111H54.2183V106.156H48.2823V111H47.3303V101.004Z" fill="black"/>
<path d="M60.1137 101.004H61.1777L65.0977 111H64.0757L62.8577 107.892H58.3077L57.1037 111H56.0957L60.1137 101.004ZM62.5357 107.08L60.6037 101.956L58.6017 107.08H62.5357Z" fill="black"/>
<path d="M66.8181 104.056V100.92H67.8401V104.056L67.6441 108.466H67.0141L66.8181 104.056ZM66.8181 111V109.768H67.8401V111H66.8181Z" fill="black"/>
<path d="M71.4802 104.056V100.92H72.5022V104.056L72.3062 108.466H71.6762L71.4802 104.056ZM71.4802 111V109.768H72.5022V111H71.4802Z" fill="black"/>
<path d="M76.1423 104.056V100.92H77.1643V104.056L76.9683 108.466H76.3383L76.1423 104.056ZM76.1423 111V109.768H77.1643V111H76.1423Z" fill="black"/>
<path d="M83.8889 101.004H88.1169C88.5369 101.004 88.9382 101.046 89.3209 101.13C89.7129 101.205 90.0535 101.34 90.3429 101.536C90.6415 101.723 90.8795 101.975 91.0569 102.292C91.2342 102.6 91.3229 102.987 91.3229 103.454C91.3229 103.715 91.2809 103.972 91.1969 104.224C91.1129 104.467 90.9915 104.691 90.8329 104.896C90.6835 105.092 90.5015 105.26 90.2869 105.4C90.0815 105.54 89.8482 105.638 89.5869 105.694V105.722C90.2309 105.806 90.7442 106.072 91.1269 106.52C91.5095 106.959 91.7009 107.505 91.7009 108.158C91.7009 108.401 91.6635 108.685 91.5889 109.012C91.5235 109.329 91.3695 109.637 91.1269 109.936C90.8842 110.235 90.5249 110.487 90.0489 110.692C89.5729 110.897 88.9289 111 88.1169 111H83.8889V101.004ZM88.1169 110.188C88.4715 110.188 88.8075 110.16 89.1249 110.104C89.4422 110.039 89.7222 109.927 89.9649 109.768C90.2075 109.609 90.3989 109.399 90.5389 109.138C90.6789 108.877 90.7489 108.541 90.7489 108.13C90.7489 107.486 90.5202 107.005 90.0629 106.688C89.6149 106.361 88.9662 106.198 88.1169 106.198H84.8409V110.188H88.1169ZM88.1169 105.386C88.4902 105.386 88.8169 105.344 89.0969 105.26C89.3862 105.167 89.6242 105.045 89.8109 104.896C89.9975 104.737 90.1375 104.555 90.2309 104.35C90.3242 104.145 90.3709 103.925 90.3709 103.692C90.3709 102.441 89.6195 101.816 88.1169 101.816H84.8409V105.386H88.1169Z" fill="black"/>
<path d="M93.2268 101.004H97.6648C98.1128 101.004 98.5188 101.069 98.8828 101.2C99.2468 101.321 99.5594 101.508 99.8208 101.76C100.082 102.003 100.283 102.301 100.423 102.656C100.563 103.011 100.633 103.412 100.633 103.86C100.633 104.308 100.563 104.709 100.423 105.064C100.283 105.419 100.082 105.722 99.8208 105.974C99.5594 106.217 99.2468 106.403 98.8828 106.534C98.5188 106.655 98.1128 106.716 97.6648 106.716H94.1788V111H93.2268V101.004ZM97.4548 105.904C98.1174 105.904 98.6541 105.736 99.0648 105.4C99.4754 105.064 99.6808 104.551 99.6808 103.86C99.6808 103.169 99.4754 102.656 99.0648 102.32C98.6541 101.984 98.1174 101.816 97.4548 101.816H94.1788V105.904H97.4548Z" fill="black"/>
<path d="M104.971 101.004H106.035L109.955 111H108.933L107.715 107.892H103.165L101.961 111H100.953L104.971 101.004ZM107.393 107.08L105.461 101.956L103.459 107.08H107.393Z" fill="black"/>
<path d="M116.715 106.45C116.575 106.487 116.379 106.529 116.127 106.576C115.875 106.623 115.6 106.669 115.301 106.716C115.012 106.753 114.718 106.791 114.419 106.828C114.13 106.856 113.873 106.87 113.649 106.87C112.931 106.87 112.357 106.786 111.927 106.618C111.507 106.441 111.185 106.217 110.961 105.946C110.737 105.666 110.593 105.358 110.527 105.022C110.462 104.677 110.429 104.336 110.429 104V101.004H111.381V103.944C111.381 104.149 111.4 104.373 111.437 104.616C111.475 104.859 111.568 105.087 111.717 105.302C111.867 105.507 112.081 105.685 112.361 105.834C112.651 105.974 113.047 106.044 113.551 106.044C113.85 106.044 114.158 106.03 114.475 106.002C114.802 105.965 115.11 105.927 115.399 105.89C115.689 105.843 115.945 105.797 116.169 105.75C116.403 105.703 116.585 105.666 116.715 105.638V101.004H117.667V111H116.715V106.45Z" fill="black"/>
<path d="M119.682 101.004H120.634V109.978L126.374 101.004H127.606V111H126.654V102.026L120.914 111H119.682V101.004Z" fill="black"/>
<path d="M2.00802 121.004H6.23602C6.65602 121.004 7.05735 121.046 7.44002 121.13C7.83202 121.205 8.17268 121.34 8.46202 121.536C8.76068 121.723 8.99868 121.975 9.17602 122.292C9.35335 122.6 9.44202 122.987 9.44202 123.454C9.44202 123.715 9.40002 123.972 9.31602 124.224C9.23202 124.467 9.11068 124.691 8.95202 124.896C8.80268 125.092 8.62068 125.26 8.40602 125.4C8.20068 125.54 7.96735 125.638 7.70602 125.694V125.722C8.35002 125.806 8.86335 126.072 9.24602 126.52C9.62868 126.959 9.82002 127.505 9.82002 128.158C9.82002 128.401 9.78268 128.685 9.70802 129.012C9.64268 129.329 9.48868 129.637 9.24602 129.936C9.00335 130.235 8.64402 130.487 8.16802 130.692C7.69202 130.897 7.04802 131 6.23602 131H2.00802V121.004ZM6.23602 130.188C6.59068 130.188 6.92668 130.16 7.24402 130.104C7.56135 130.039 7.84135 129.927 8.08402 129.768C8.32668 129.609 8.51802 129.399 8.65802 129.138C8.79802 128.877 8.86802 128.541 8.86802 128.13C8.86802 127.486 8.63935 127.005 8.18202 126.688C7.73402 126.361 7.08535 126.198 6.23602 126.198H2.96002V130.188H6.23602ZM6.23602 125.386C6.60935 125.386 6.93602 125.344 7.21602 125.26C7.50535 125.167 7.74335 125.045 7.93002 124.896C8.11668 124.737 8.25668 124.555 8.35002 124.35C8.44335 124.145 8.49002 123.925 8.49002 123.692C8.49002 122.441 7.73868 121.816 6.23602 121.816H2.96002V125.386H6.23602Z" fill="black"/>
<path d="M15.2424 121.004H16.1944V130.188H20.9264V121.004H21.8784V130.188H26.6104V121.004H27.5624V131H15.2424L15.2424 121.004Z" fill="black"/>
<path d="M33.7702 131.196C32.9862 131.196 32.2955 131.056 31.6982 130.776C31.1102 130.487 30.6202 130.104 30.2282 129.628C29.8362 129.152 29.5422 128.601 29.3462 127.976C29.1502 127.351 29.0522 126.693 29.0522 126.002C29.0522 125.321 29.1502 124.667 29.3462 124.042C29.5422 123.407 29.8362 122.852 30.2282 122.376C30.6202 121.891 31.1102 121.508 31.6982 121.228C32.2955 120.939 32.9862 120.794 33.7702 120.794C34.5542 120.794 35.2402 120.939 35.8282 121.228C36.4162 121.508 36.9062 121.891 37.2982 122.376C37.6902 122.852 37.9842 123.407 38.1802 124.042C38.3762 124.667 38.4742 125.321 38.4742 126.002C38.4742 126.693 38.3762 127.351 38.1802 127.976C37.9842 128.601 37.6902 129.152 37.2982 129.628C36.9062 130.104 36.4162 130.487 35.8282 130.776C35.2402 131.056 34.5542 131.196 33.7702 131.196ZM33.7702 130.398C34.4235 130.398 34.9882 130.272 35.4642 130.02C35.9402 129.768 36.3275 129.437 36.6262 129.026C36.9342 128.606 37.1582 128.135 37.2982 127.612C37.4475 127.089 37.5222 126.553 37.5222 126.002C37.5222 125.461 37.4475 124.929 37.2982 124.406C37.1582 123.874 36.9342 123.403 36.6262 122.992C36.3275 122.572 35.9402 122.236 35.4642 121.984C34.9882 121.732 34.4235 121.606 33.7702 121.606C33.1075 121.606 32.5382 121.732 32.0622 121.984C31.5862 122.236 31.1942 122.572 30.8862 122.992C30.5875 123.403 30.3635 123.874 30.2142 124.406C30.0742 124.929 30.0042 125.461 30.0042 126.002C30.0042 126.553 30.0742 127.089 30.2142 127.612C30.3635 128.135 30.5875 128.606 30.8862 129.026C31.1942 129.437 31.5862 129.768 32.0622 130.02C32.5382 130.272 33.1075 130.398 33.7702 130.398Z" fill="black"/>
<path d="M39.9611 121.004H40.9131V126.38L46.7231 121.004H48.0111L43.5451 125.134L48.2211 131H46.9891L42.8311 125.792L40.9131 127.57V131H39.9611V121.004Z" fill="black"/>
<path d="M49.0393 121.004H55.9413V121.816H49.9913V125.428H55.5633V126.24H49.9913V130.188H56.0113V131H49.0393V121.004Z" fill="black"/>
<path d="M58.1501 124.056V120.92H59.1721V124.056L58.9761 128.466H58.3461L58.1501 124.056ZM58.1501 131V129.768H59.1721V131H58.1501Z" fill="black"/>
<path d="M70.0827 131.196C69.2987 131.196 68.608 131.056 68.0107 130.776C67.4227 130.487 66.9327 130.104 66.5407 129.628C66.1487 129.152 65.8547 128.601 65.6587 127.976C65.4627 127.351 65.3647 126.693 65.3647 126.002C65.3647 125.321 65.4627 124.667 65.6587 124.042C65.8547 123.407 66.1487 122.852 66.5407 122.376C66.9327 121.891 67.4227 121.508 68.0107 121.228C68.608 120.939 69.2987 120.794 70.0827 120.794C70.8667 120.794 71.5527 120.939 72.1407 121.228C72.7287 121.508 73.2187 121.891 73.6107 122.376C74.0027 122.852 74.2967 123.407 74.4927 124.042C74.6887 124.667 74.7867 125.321 74.7867 126.002C74.7867 126.693 74.6887 127.351 74.4927 127.976C74.2967 128.601 74.0027 129.152 73.6107 129.628C73.2187 130.104 72.7287 130.487 72.1407 130.776C71.5527 131.056 70.8667 131.196 70.0827 131.196ZM70.0827 130.398C70.736 130.398 71.3007 130.272 71.7767 130.02C72.2527 129.768 72.64 129.437 72.9387 129.026C73.2467 128.606 73.4707 128.135 73.6107 127.612C73.76 127.089 73.8347 126.553 73.8347 126.002C73.8347 125.461 73.76 124.929 73.6107 124.406C73.4707 123.874 73.2467 123.403 72.9387 122.992C72.64 122.572 72.2527 122.236 71.7767 121.984C71.3007 121.732 70.736 121.606 70.0827 121.606C69.42 121.606 68.8507 121.732 68.3747 121.984C67.8987 122.236 67.5067 122.572 67.1987 122.992C66.9 123.403 66.676 123.874 66.5267 124.406C66.3867 124.929 66.3167 125.461 66.3167 126.002C66.3167 126.553 66.3867 127.089 66.5267 127.612C66.676 128.135 66.9 128.606 67.1987 129.026C67.5067 129.437 67.8987 129.768 68.3747 130.02C68.8507 130.272 69.42 130.398 70.0827 130.398Z" fill="black"/>
<path d="M76.2736 121.004H77.2256V125.344H83.1616V121.004H84.1136V131H83.1616V126.156H77.2256V131H76.2736V121.004Z" fill="black"/>
<path d="M89.0571 121.004H90.1211L94.0411 131H93.0191L91.8011 127.892H87.2511L86.0471 131H85.0391L89.0571 121.004ZM91.4791 127.08L89.5471 121.956L87.5451 127.08H91.4791Z" fill="black"/>
<path d="M98.8459 121.004H103.074C103.494 121.004 103.895 121.046 104.278 121.13C104.67 121.205 105.011 121.34 105.3 121.536C105.599 121.723 105.837 121.975 106.014 122.292C106.191 122.6 106.28 122.987 106.28 123.454C106.28 123.715 106.238 123.972 106.154 124.224C106.07 124.467 105.949 124.691 105.79 124.896C105.641 125.092 105.459 125.26 105.244 125.4C105.039 125.54 104.805 125.638 104.544 125.694V125.722C105.188 125.806 105.701 126.072 106.084 126.52C106.467 126.959 106.658 127.505 106.658 128.158C106.658 128.401 106.621 128.685 106.546 129.012C106.481 129.329 106.327 129.637 106.084 129.936C105.841 130.235 105.482 130.487 105.006 130.692C104.53 130.897 103.886 131 103.074 131H98.8459V121.004ZM103.074 130.188C103.429 130.188 103.765 130.16 104.082 130.104C104.399 130.039 104.679 129.927 104.922 129.768C105.165 129.609 105.356 129.399 105.496 129.138C105.636 128.877 105.706 128.541 105.706 128.13C105.706 127.486 105.477 127.005 105.02 126.688C104.572 126.361 103.923 126.198 103.074 126.198H99.7979V130.188H103.074ZM103.074 125.386C103.447 125.386 103.774 125.344 104.054 125.26C104.343 125.167 104.581 125.045 104.768 124.896C104.955 124.737 105.095 124.555 105.188 124.35C105.281 124.145 105.328 123.925 105.328 123.692C105.328 122.441 104.577 121.816 103.074 121.816H99.7979V125.386H103.074Z" fill="black"/>
<path d="M108.184 121.004H109.136V125.232H112.622C113.555 125.232 114.283 125.489 114.806 126.002C115.328 126.515 115.59 127.22 115.59 128.116C115.59 129.012 115.328 129.717 114.806 130.23C114.283 130.743 113.555 131 112.622 131H108.184V121.004ZM112.412 130.188C113.112 130.188 113.658 130.006 114.05 129.642C114.442 129.269 114.638 128.76 114.638 128.116C114.638 127.472 114.442 126.968 114.05 126.604C113.658 126.231 113.112 126.044 112.412 126.044H109.136V130.188H112.412ZM117.06 121.004H118.012V131H117.06V121.004Z" fill="black"/>
<path d="M123.398 125.316L119.254 121.004H120.542L125.47 126.268V121.004H126.422V126.268L131.35 121.004H132.638L128.494 125.316L132.988 131H131.756L127.822 126.016L126.422 127.472V131H125.47V127.472L124.07 126.016L120.136 131H118.904L123.398 125.316Z" fill="black"/>
<path d="M133.887 121.004H134.839V129.978L140.579 121.004H141.811V131H140.859V122.026L135.119 131H133.887V121.004Z" fill="black"/>
<path d="M143.574 131.084C143.518 131.084 143.448 131.079 143.364 131.07C143.29 131.061 143.21 131.051 143.126 131.042C143.042 131.033 142.968 131.019 142.902 131C142.837 130.991 142.79 130.981 142.762 130.972V130.16C142.837 130.197 142.949 130.225 143.098 130.244C143.257 130.253 143.374 130.258 143.448 130.258C143.551 130.258 143.672 130.249 143.812 130.23C143.952 130.202 144.097 130.118 144.246 129.978C144.405 129.829 144.559 129.6 144.708 129.292C144.867 128.975 145.002 128.527 145.114 127.948C145.236 127.36 145.334 126.618 145.408 125.722C145.483 124.826 145.52 123.725 145.52 122.418V121.004H151.666V131H150.714V121.816H146.444V122.362C146.444 123.818 146.398 125.045 146.304 126.044C146.211 127.033 146.085 127.855 145.926 128.508C145.768 129.152 145.586 129.651 145.38 130.006C145.184 130.351 144.979 130.603 144.764 130.762C144.559 130.921 144.349 131.014 144.134 131.042C143.929 131.07 143.742 131.084 143.574 131.084Z" fill="black"/>
<path d="M156.61 121.004H157.674L161.594 131H160.572L159.354 127.892H154.804L153.6 131H152.592L156.61 121.004ZM159.032 127.08L157.1 121.956L155.098 127.08H159.032Z" fill="black"/>
<path d="M166.819 131V129.768H167.841V131H166.819Z" fill="black"/>
<path d="M170.715 131V129.768H171.737V131H170.715Z" fill="black"/>
</svg>
