<svg width="768" height="1280" viewBox="0 0 768 1280" fill="none" xmlns="http://www.w3.org/2000/svg">
<g clip-path="url(#clip0)">
<path d="M732.545 653.003L745.845 643.44L739.853 658.677L756.237 658.748L742.431 667.565L755.642 677.243L739.293 676.267L744.28 691.85L731.63 681.461L726.491 697L722.367 681.159L709.067 690.722L715.059 675.485L698.666 675.414L712.481 666.597L699.262 656.918L715.619 657.904L710.632 642.312L723.282 652.71L728.421 637.162L732.545 653.003Z" fill="#2FAD74"/>
<path d="M665.028 555C667.56 564.236 669.554 573.61 671.002 583.077C671.224 584.542 671.42 586.122 670.744 587.445C669.473 589.922 666.086 590.109 663.312 590.109C630.744 589.545 598.823 599.224 572.066 617.777C560.162 626.079 548.419 638.848 551.059 653.099C609.46 645.711 667.665 637.06 725.675 627.145L708.082 555" fill="black"/>
<path d="M608.238 578.646C608.054 577.285 608.37 575.904 609.127 574.757C609.688 574.065 610.394 573.504 611.196 573.114C611.998 572.725 612.876 572.515 613.767 572.502C616.95 572.413 619.208 574.446 620.612 576.293C623.066 579.517 632.676 595.668 624.08 595.721C614.656 595.783 608.558 583.042 608.238 578.646Z" stroke="#1D1D1B" stroke-width="2.09" stroke-miterlimit="10"/>
<path d="M643.046 572.378C642.821 571.025 642.114 569.798 641.055 568.924C640.31 568.425 639.463 568.098 638.577 567.964C637.69 567.83 636.784 567.894 635.925 568.152C632.858 569.039 631.302 571.606 630.511 573.79C629.124 577.59 624.715 595.864 632.947 593.378C641.97 590.652 644.042 576.685 643.046 572.378Z" stroke="#1D1D1B" stroke-width="2.09" stroke-miterlimit="10"/>
</g>
<defs>
<clipPath id="clip0">
<rect width="768" height="1280" fill="white"/>
</clipPath>
</defs>
</svg>
