<svg width="768" height="1280" viewBox="0 0 768 1280" fill="none" xmlns="http://www.w3.org/2000/svg">
<g clip-path="url(#clip0)">
<path d="M392.836 214.655C385.226 193.725 380.488 170.76 385.568 149.051C391.181 125.097 408.248 105.613 427.217 90.8487C492.079 40.4092 586.793 36.5278 655.308 81.4876C663.879 86.8992 671.998 92.9949 679.586 99.7151C689.911 109.265 698.459 120.571 704.834 133.107C711.094 145.455 714.671 170.037 700.363 200.042C720.295 242.3 742.887 283.251 768.003 322.65L694.788 353.872C694.788 353.872 694.998 432.186 673.307 461.924C659.989 480.133 634.702 484.889 613.545 478.877C592.387 472.865 574.635 458.062 558.273 442.841C523.073 410.058 499.29 372.043 468.562 335.721C437.834 299.399 409.256 260.319 392.836 214.655Z" fill="#2FAD74"/>
<path d="M665.397 331.725C661.241 330.474 657.364 328.433 653.981 325.713C649.621 321.735 646.871 316.296 646.25 310.427C645.629 304.557 647.182 298.664 650.614 293.862C654.841 288.745 660.606 285.129 667.053 283.55C674.631 281.523 682.602 281.467 690.208 283.389C697.814 285.31 704.803 289.145 710.509 294.528C715.809 299.343 719.329 305.806 720.498 312.87C721.016 316.391 720.583 319.987 719.245 323.285C717.907 326.584 715.712 329.464 712.888 331.63C701.719 339.241 677.232 335.607 665.397 331.725Z" fill="#ED603C"/>
<path d="M689.003 330.376C685.742 329.918 682.576 328.942 679.623 327.484C676.649 326.011 674.325 323.49 673.097 320.406C672.847 319.881 672.73 319.303 672.757 318.722C672.783 318.141 672.952 317.576 673.249 317.076C673.833 316.475 674.605 316.092 675.437 315.992C678.955 315.541 682.529 316.041 685.788 317.438C689.668 318.85 693.397 320.648 696.918 322.803C699.925 324.706 704.053 327.465 700.248 330.072C697.166 332.203 692.39 330.966 689.003 330.376Z" fill="black"/>
<path d="M671.491 230.895C674.604 214.608 651.181 196.446 619.175 190.329C587.169 184.212 558.699 192.456 555.586 208.743C552.474 225.03 575.896 243.192 607.903 249.309C639.909 255.426 668.379 247.182 671.491 230.895Z" fill="black"/>
<path d="M650.636 226.908C652.628 216.483 637.635 204.858 617.147 200.942C596.659 197.027 578.436 202.303 576.443 212.728C574.451 223.152 589.445 234.777 609.932 238.693C630.42 242.608 648.644 237.332 650.636 226.908Z" fill="white"/>
<path d="M615.77 239.619C621.423 239.619 626.006 235.036 626.006 229.383C626.006 223.73 621.423 219.147 615.77 219.147C610.116 219.147 605.533 223.73 605.533 229.383C605.533 235.036 610.116 239.619 615.77 239.619Z" fill="black"/>
<path d="M391.523 146.788C375.332 127.001 360.377 94.7695 364.239 68.3986C370.689 69.1597 377.9 73.4216 384.103 75.7239C391.409 78.4637 399.02 81.0133 406.63 83.2394C413.575 85.142 420.596 86.8164 427.445 89.0996C435.76 91.8965 444.569 89.8416 453.055 91.2115C461.201 92.3659 468.9 95.6472 475.373 100.725C477.234 102.252 478.913 103.989 480.377 105.9C481.63 107.622 482.773 109.42 483.802 111.285C486.751 116.384 489.7 121.064 490.538 127.001C491.299 132.556 490.157 137.903 490.157 143.44C489.432 151.652 486.708 159.563 482.223 166.481C478.246 172.683 472.348 180.009 465.099 182.292C459.277 184.195 453.246 185.964 447.176 185.374C443.761 184.902 440.41 184.047 437.187 182.825C432.802 181.057 428.628 178.804 424.744 176.108C420.511 173.521 416.439 170.681 412.548 167.603C404.784 161.472 397.732 154.49 391.523 146.788V146.788Z" fill="#ED603C"/>
<path d="M385.587 76.2762C387.489 55.9368 391.846 45.6054 393.197 25.2469C387.756 33.6377 381.781 40.6965 376.34 49.0302C374.037 39.7452 367.93 16 367.93 16L365.894 28.6527C364.81 35.8447 363.991 42.447 362.831 49.5819C355.715 40.7536 338.553 25.8558 338.553 25.8558C338.553 25.8558 342.358 37.6332 349.969 56.5647C340.481 52.7847 331.056 48.7638 321.695 44.5018C330.333 54.0151 340.265 63.5284 349.227 72.8705C349.227 72.8705 325.215 77.3608 322.59 77.7032C322.59 77.7032 351.453 86.7979 364.334 89.4046C364.811 89.4938 365.295 89.5447 365.78 89.5568C369.319 89.6576 372.846 89.1095 376.187 87.9396C378.462 87.2355 380.576 86.0912 382.409 84.5718C383.017 83.8309 383.583 83.0559 384.103 82.2506C384.784 81.083 385.218 79.7877 385.377 78.4453L385.587 76.2762Z" fill="black"/>
<path d="M753.751 66.5526H754.721L750.44 143.173C738.224 125.656 727.506 107.141 718.4 87.8243C716.992 110.77 715.571 133.716 714.138 156.662C700.842 138.499 688.942 119.354 678.539 99.3925C676.142 122.11 673.706 145.056 675.723 167.888L645.775 112.007C641.371 130.035 638.821 148.466 638.164 167.013C628.392 152.631 620.316 137.168 614.096 120.931C609.72 137.94 606.181 155.14 603.479 172.531C591.471 153.389 582.126 132.701 575.7 111.037C598.018 96.7287 621.174 88.6234 646.517 80.5942C646.517 80.5942 719.884 55.0225 754.683 66.5335" fill="black"/>
<path d="M674.907 436.591C709.731 423.571 733.041 399.859 726.973 383.629C720.904 367.398 687.755 364.795 652.932 377.815C618.109 390.835 594.798 414.547 600.867 430.778C606.935 447.009 640.084 449.611 674.907 436.591Z" fill="black"/>
<path d="M724.505 380.605C701.751 379.61 679.056 383.616 658.017 392.34C636.978 401.065 618.108 414.296 602.735 431.101C625.237 434.989 648.387 432.04 669.195 422.634C690.676 412.912 710.14 399.27 724.505 380.605Z" fill="white"/>
<path d="M684.134 380.529C686.55 391.203 685.313 402.029 677.893 408.308C670.472 414.587 657.572 416.946 649.353 413.845C646.921 413.015 644.673 411.723 642.732 410.039C640.417 407.614 638.439 404.888 636.853 401.934C637.329 399.088 638.398 396.374 639.992 393.969C641.585 391.563 643.665 389.518 646.099 387.969C654.713 382.244 665.18 380.006 675.381 381.709C676.077 381.912 676.816 381.912 677.512 381.709C678.034 381.441 678.52 381.109 678.958 380.72C680.614 379.445 682.269 380.377 684.134 380.529Z" fill="black"/>
<path d="M414.8 230.146C418.949 231.929 423.199 233.465 427.528 234.747C433.05 236.329 438.049 239.371 442.002 243.555C453.962 256.087 465.174 267.277 472.768 283.622C476.547 291.786 479.898 300.415 480.058 309.403C480.219 318.39 476.868 327.914 469.542 333.071C462.982 337.69 454.444 338.245 447.278 341.807C427.171 351.833 425.585 379.404 416.191 399.778C413.677 405.256 409.916 410.842 404.105 412.435C398.294 414.028 392.519 411.307 387.439 408.335C368.061 396.974 351.95 380.756 340.683 361.268C335.763 352.728 331.77 343.365 331.485 333.518C330.808 310.423 350.095 284.607 360.612 264.663C373.357 240.315 388.062 224.882 414.8 230.146Z" stroke="black" stroke-width="1.5" stroke-miterlimit="10"/>
</g>
<defs>
<clipPath id="clip0">
<rect width="768" height="1280" fill="white"/>
</clipPath>
</defs>
</svg>
