<svg width="768" height="1280" viewBox="0 0 768 1280" fill="none" xmlns="http://www.w3.org/2000/svg">
<g clip-path="url(#clip0)">
<path d="M212.945 525.745C231.429 506.707 255.006 493.571 278.229 480.709C293.963 471.98 310.208 463.119 328.073 461.138C356.489 458.003 384.651 473.448 402.844 495.523C421.038 517.598 430.609 545.457 437.184 573.277C453.834 644.12 453.166 717.931 435.235 788.46C423.936 832.675 405.175 876.226 372.878 908.472C340.582 940.718 293.003 959.964 248.447 950.145C217.04 943.222 190.143 923.015 167.307 900.347C146.258 879.673 128.112 856.238 113.366 830.683C106.562 818.738 100.482 805.772 100.416 792.022C100.334 778.824 105.884 766.042 106.357 752.813C106.83 739.583 102.174 726.51 101.734 713.174C101.388 697.154 104.239 681.225 110.12 666.319C115.905 652.135 125.184 639.644 137.092 630.007C146.449 622.236 159.07 618.919 166.966 609.266C187.222 584.495 189.071 550.336 212.945 525.745Z" fill="#EBFF00"/>
<path d="M98.1494 544.538C91.8356 541.274 84.8258 539.586 77.7184 539.619C60.6282 540.319 46.7717 555.814 43.3719 572.57C40.69 585.851 43.2984 599.581 45.8933 612.878L56.593 667.62C60.3885 687.092 64.2608 706.79 72.552 724.807C74.9885 730.127 81.0928 736.091 85.6165 732.392C86.8779 731.188 87.7571 729.639 88.1446 727.938C91.5912 716.681 89.4716 704.539 90.5209 692.799C92.0675 675.771 100.293 660.666 110.666 647.413C120.206 635.252 139.482 624.255 141.588 609.484C145.199 583.923 119.101 554.497 98.1494 544.538Z" fill="black"/>
<path d="M436.201 725.445C446.61 708.757 428.453 678.639 395.645 658.174C362.838 637.71 327.804 634.648 317.394 651.336C306.984 668.024 325.142 698.142 357.949 718.606C390.757 739.071 425.791 742.133 436.201 725.445Z" fill="black"/>
<path d="M414.816 712.111C421.479 701.43 409.86 682.153 388.863 669.056C367.867 655.959 345.444 654.001 338.781 664.682C332.118 675.364 343.738 694.641 364.734 707.738C385.731 720.835 408.153 722.793 414.816 712.111Z" fill="white"/>
<path d="M347.06 689.879C353.315 692.297 360.346 689.187 362.764 682.932C365.182 676.677 362.071 669.647 355.817 667.229C349.562 664.811 342.531 667.921 340.113 674.176C337.695 680.431 340.806 687.461 347.06 689.879Z" fill="black"/>
<path d="M360.61 613.077C372.246 611.799 384.719 612.654 394.5 619.069C402.372 624.251 407.762 632.572 412.389 640.91C413.129 642.569 414.261 644.023 415.688 645.148C416.422 645.683 417.327 645.93 418.231 645.842C419.135 645.755 419.975 645.34 420.594 644.675C421.153 643.694 421.368 642.555 421.203 641.438C420.832 632.55 418.023 623.935 413.082 616.537C408.141 609.139 401.259 603.243 393.191 599.495C385.123 595.748 376.179 594.292 367.339 595.289C358.499 596.286 350.103 599.696 343.072 605.146C330.211 615.084 355.696 613.613 360.61 613.077Z" fill="#D597C3"/>
<path d="M369.375 585.48C381.016 584.188 393.504 585.049 403.265 591.472C411.142 596.64 416.532 604.961 421.159 613.299C421.899 614.958 423.032 616.412 424.458 617.537C425.192 618.071 426.097 618.318 427.001 618.231C427.905 618.144 428.746 617.729 429.364 617.064C429.919 616.083 430.139 614.949 429.988 613.832C429.612 604.946 426.799 596.335 421.857 588.94C416.915 581.546 410.034 575.653 401.968 571.906C393.902 568.159 384.961 566.703 376.122 567.697C367.284 568.69 358.889 572.096 351.857 577.54C338.982 587.473 364.461 586.016 369.375 585.48Z" fill="#D597C3"/>
<path d="M259.876 537.009C271.517 535.717 284.005 536.578 293.766 543.001C301.643 548.169 307.033 556.49 311.66 564.828C312.4 566.487 313.533 567.941 314.959 569.066C315.693 569.6 316.598 569.847 317.502 569.76C318.406 569.673 319.247 569.258 319.865 568.593C320.42 567.613 320.64 566.478 320.489 565.361C320.113 556.475 317.3 547.864 312.358 540.469C307.416 533.075 300.535 527.182 292.469 523.435C284.403 519.688 275.462 518.232 266.623 519.226C257.785 520.219 249.39 523.625 242.357 529.069C229.483 539.002 254.962 537.546 259.876 537.009Z" fill="#D597C3"/>
<path d="M306.036 717.056C305.703 718.664 304.95 720.156 303.854 721.38C303.3 721.983 302.588 722.42 301.799 722.641C301.01 722.863 300.175 722.859 299.387 722.632C298.685 722.298 298.06 721.822 297.551 721.234C297.041 720.646 296.659 719.96 296.429 719.217C294.5 714.456 295.101 709.027 296.606 704.112C298.031 699.063 299.927 694.16 302.268 689.465C303.469 693.385 304.573 697.68 305.564 701.716C306.986 706.712 307.148 711.982 306.036 717.056Z" fill="black"/>
<path d="M70.1303 615.203C69.9398 603.478 71.0578 591.518 77.3203 582.172C82.1057 574.986 91.971 569.518 101.453 573.727C105.845 575.909 109.493 579.341 111.941 583.591C118.553 594.244 119.151 607.13 113.458 616.45C109.048 623.599 101.536 628.43 95.6979 634.55C86.5309 644.172 83.6781 655.511 81.6813 668.382C70.2177 663.638 70.3142 624.392 70.1303 615.203Z" fill="white"/>
<path d="M128.663 710.784C136.316 729.558 151.132 744.321 165.57 758.526C166.211 759.168 167.24 760.126 168.443 761.183C169.41 762.03 170.551 762.654 171.787 763.009C173.022 763.364 174.32 763.443 175.589 763.238C176.858 763.034 178.066 762.552 179.127 761.827C180.188 761.103 181.077 760.152 181.728 759.045C184.635 754.079 188.213 748.188 190.099 745.692C196.414 737.403 199.763 734.616 199.606 727.018C199.502 722.891 198.461 718.842 196.563 715.177L174.167 670.939C171.322 665.192 167.188 660.18 162.086 656.296C128.688 631.322 120.423 690.549 128.663 710.784Z" fill="#ED603C"/>
<path d="M244.706 876.522C288.094 893.295 333.623 880.103 346.397 847.058C359.172 814.012 334.354 773.627 290.966 756.854C247.577 740.082 202.049 753.273 189.274 786.319C176.5 819.364 201.318 859.75 244.706 876.522Z" fill="#D597C3"/>
<path d="M304.088 737.484C319.38 743.906 332.771 753.114 342.246 766.833C343.765 768.95 345.159 771.135 346.442 773.392C353.275 785.361 356.874 798.903 356.884 812.685C356.895 826.467 353.317 840.014 346.502 851.994C339.688 863.973 329.871 873.972 318.019 881.006C306.167 888.04 292.688 891.867 278.908 892.11C276.426 892.661 273.912 893.064 271.382 893.315C268.894 893.589 266.392 893.721 263.889 893.71C257.163 894.039 250.447 892.876 244.223 890.304C242.133 889.476 240.093 888.528 238.112 887.465C228.962 882.083 219.169 877.878 208.967 874.947C185.688 868.368 190.219 837.83 186.147 818.136C185.858 815.523 185.646 813.005 185.59 810.383C185.114 788.932 193.176 768.169 208.003 752.659C209.791 750.8 211.671 749.033 213.637 747.365C219.318 741.694 227.212 735.876 235.558 737.489C239.513 737.948 243.269 739.469 246.43 741.889C257.429 754.008 272.092 741.112 283.25 736.045C287.406 734.438 291.916 733.971 296.313 734.693L304.088 737.484ZM257.615 865.496C268.884 864.059 278.743 857.371 290.051 858.516C293.063 858.94 296.045 859.188 298.918 859.376C322.08 860.595 340.86 853.521 346.384 839.232C349.799 830.398 347.504 820.113 340.917 810.079C339.549 808.001 338.062 806.003 336.465 804.096C333.605 801.064 330.64 798.305 326.861 797.651C319.09 796.6 311.568 794.177 304.645 790.495C302.425 789.34 300.278 788.082 298.168 786.773C274.227 781.353 251.524 777.415 231.719 762.831C229.622 762.517 227.503 762.375 225.383 762.405C223.134 762.546 220.947 762.797 218.821 763.16C214.891 764.183 211.152 765.833 207.749 768.047C204.358 770.265 201.5 773.207 199.382 776.662C196.637 781.099 195.075 786.166 194.846 791.38C194.618 796.593 195.729 801.777 198.075 806.438C198.962 808.328 199.947 810.17 201.027 811.957C209.823 833.18 230.903 845.361 245.641 861.986C247.501 863.365 249.613 864.367 251.858 864.933C253.751 865.328 255.681 865.516 257.615 865.496V865.496Z" fill="black"/>
<path d="M246.652 791.641C246.343 792.24 246.213 792.916 246.279 793.587C246.437 794.036 246.681 794.449 246.999 794.804C247.317 795.158 247.701 795.446 248.13 795.652C255.641 800.479 263.525 804.699 271.707 808.271C275.096 799.247 278.134 790.069 280.811 780.802C281.191 780.023 281.277 779.134 281.053 778.298C280.829 777.461 280.31 776.734 279.592 776.249C276 772.77 271.769 769.028 266.728 769.17C255.371 769.47 250.137 782.883 246.652 791.641Z" fill="white"/>
<path d="M302.725 813.322C302.539 813.97 302.177 814.554 301.678 815.008C301.26 815.235 300.801 815.377 300.327 815.426C299.854 815.475 299.375 815.429 298.919 815.291C290.115 813.811 281.443 811.631 272.985 808.771C276.547 799.812 280.472 790.978 284.739 782.325C285.046 781.522 285.569 780.819 286.249 780.292C287.003 779.896 287.853 779.718 288.703 779.776C293.701 779.618 299.335 779.689 302.97 783.185C311.186 791.051 306.023 804.492 302.725 813.322Z" fill="white"/>
<path d="M307.469 802.138C307.677 799.638 308.147 797.166 308.871 794.764C309.249 793.564 309.958 792.496 310.916 791.681C311.874 790.867 313.043 790.339 314.288 790.16C315.978 790.181 317.598 790.837 318.828 791.997C320.471 793.519 321.786 795.36 322.693 797.409C323.599 799.457 324.077 801.669 324.098 803.909C324.102 808.389 323.381 812.84 321.965 817.089C321.832 817.79 321.507 818.439 321.026 818.965C320.58 819.314 320.049 819.541 319.488 819.621C316.833 819.951 314.138 819.595 311.66 818.586C309.774 817.972 306.157 817.496 304.715 816.116C303.02 814.456 304.204 812.627 304.949 810.742C306.089 807.971 306.934 805.087 307.469 802.138V802.138Z" fill="white"/>
<path d="M241.493 768.16C243.099 766.635 245.021 765.484 247.124 764.79C248.179 764.46 249.292 764.361 250.388 764.501C251.485 764.641 252.538 765.016 253.476 765.6C253.931 765.888 254.323 766.267 254.626 766.713C254.929 767.158 255.138 767.661 255.239 768.191C255.277 769.195 255.051 770.191 254.583 771.08C251.814 777.564 248.674 783.854 245.558 790.171C245.374 790.612 245.102 791.011 244.759 791.343C244.277 791.628 243.731 791.788 243.172 791.807C242.612 791.827 242.057 791.705 241.556 791.455C238.447 790.59 235.739 788.663 233.901 786.01C230.159 779.939 237.156 772.013 241.493 768.16Z" fill="white"/>
<path d="M228.179 820.942C228.77 819.443 229.796 818.155 231.123 817.242C233.225 816.063 235.803 816.714 238.065 817.506C240.349 818.312 242.591 819.234 244.782 820.267C246.076 820.752 247.212 821.584 248.065 822.672C249.272 824.488 248.818 826.896 248.233 829.007C246.236 836.231 243.371 843.186 239.699 849.719C239.383 850.429 238.864 851.03 238.209 851.447C236.699 852.246 234.959 850.998 233.703 849.821C229.835 846.202 224.787 843.083 223.878 837.942C222.969 832.802 225.966 825.517 228.179 820.942Z" fill="white"/>
<path d="M250.182 828.642C250.458 827.903 250.843 827.208 251.324 826.582C251.989 825.925 252.819 825.458 253.726 825.229C254.633 825.001 255.585 825.021 256.483 825.285C258.267 825.848 259.933 826.732 261.399 827.893C262.201 828.349 262.86 829.019 263.3 829.83C263.641 831.031 263.519 832.317 262.96 833.434L254.362 857.676C253.565 859.738 252.663 862.072 250.616 862.811C248.57 863.55 245.741 862.226 244.018 860.425C242.739 859.091 239.463 856.541 239.268 854.705C239.034 852.541 241.531 848.849 242.39 846.926L250.182 828.642Z" fill="white"/>
<path d="M277.652 841.084C277.927 840.402 278.084 839.678 278.117 838.943C278.023 838.039 277.693 837.176 277.161 836.439C276.628 835.702 275.912 835.117 275.084 834.743C273.39 833.971 271.577 833.492 269.722 833.328C268.839 833.119 267.918 833.143 267.046 833.397C266.026 833.975 265.272 834.93 264.948 836.058L255.716 857.981C254.98 859.886 254.144 862.048 255.169 863.909C256.194 865.77 259 865.11 261.459 865.007C263.891 864.533 266.232 863.677 268.397 862.472C269.182 862.075 269.874 861.514 270.423 860.826C270.973 860.138 271.369 859.341 271.583 858.487L277.652 841.084Z" fill="white"/>
<path d="M275.946 851.027L279.251 841.541C279.427 840.883 279.737 840.269 280.162 839.737C281.057 838.976 282.209 838.585 283.382 838.645C284.85 838.589 286.32 838.661 287.775 838.862C289.99 839.175 292.452 840.045 293.303 842.102C293.753 843.648 293.693 845.298 293.129 846.807C292.216 850.404 291.269 854.004 290.284 857.573C290.234 857.938 290.1 858.286 289.891 858.59C289.292 859.247 288.246 859.056 287.375 858.884C283.18 858.069 279.576 859.474 275.618 860.56C273.175 861.261 273.776 859.322 274.133 857.419C274.573 855.245 275.179 853.108 275.946 851.027V851.027Z" fill="white"/>
<path d="M505.323 510.022L407.656 519.368L430.929 556.572L505.323 510.022Z" fill="black"/>
<path d="M458.893 435.811L407.762 519.545L384.49 482.341L458.893 435.811Z" fill="black"/>
<path d="M280.323 655.049C277.822 634.613 270.093 592.111 267.294 575.724L239.023 570.012C225.494 580.318 211.969 590.626 198.45 600.935C200.493 623.404 204.114 645.702 209.289 667.663L280.323 655.049Z" fill="black"/>
<path d="M183.542 623.857C183.694 608.086 189.308 592.855 199.429 580.758C205.551 573.93 212.616 568.011 220.411 563.179C232.177 555.434 245.524 548.58 257.774 551.373C262.24 552.509 266.407 554.603 269.984 557.509C284.415 568.666 292.487 588.442 293.896 609.278C295.304 630.114 290.572 651.934 282.812 672.222C279.391 681.07 275.319 690.028 268.911 696.603C256.194 709.658 237.135 709.96 223.736 701.752C203.753 689.501 183.567 651.548 183.542 623.857Z" stroke="#1D1D1B" stroke-width="2" stroke-miterlimit="10"/>
<path d="M459.416 650.627C473.611 631.109 501.588 619.086 522.393 631.39C538.823 641.106 545.148 662.976 541.466 681.73C537.784 700.484 526.002 716.573 513.109 730.62C503.467 741.16 492.538 751.775 489.463 765.787C487.717 773.731 489.718 782.302 483.125 788.996C478.379 793.815 473.239 795.172 467.405 796.265C459.511 797.837 450.275 798.495 444.445 792.895C438.33 787.033 438.897 777.224 439.941 768.832C442.795 745.715 447.497 722.043 448.602 698.775C449.403 681.892 446.817 664.621 459.416 650.627Z" fill="#2FAD74"/>
<path d="M515.299 684.557C517.308 677.09 518.041 659.71 513.262 653.646C508.483 647.582 493.149 645.27 485.945 648.119C479.644 650.577 473.444 659.886 470.065 665.791C466.742 671.823 464.645 678.467 463.894 685.335C463.007 692.346 467.825 703.186 468.762 710.214C470.754 725.06 463.97 741.597 463.03 751.832L465.618 752.977C469.582 747.377 483.369 724.207 494.668 713.814C503.046 705.927 512.286 695.757 515.299 684.557Z" fill="white"/>
<path d="M483.355 703.739C475.013 706.244 466.219 701.511 463.715 693.169C461.21 684.826 465.943 676.033 474.285 673.528C482.628 671.024 491.421 675.756 493.926 684.099C496.43 692.441 491.698 701.235 483.355 703.739Z" fill="black"/>
</g>
<defs>
<clipPath id="clip0">
<rect width="768" height="1280" fill="white"/>
</clipPath>
</defs>
</svg>
