<svg width="768" height="1280" viewBox="0 0 768 1280" fill="none" xmlns="http://www.w3.org/2000/svg">
<g clip-path="url(#clip0)">
<path d="M540.237 808.478L569.607 871.173L619.109 806.697C619.109 806.697 657.838 787.118 689.475 732.541C690.81 734.837 692.202 736.663 692.995 738.704C699.659 755.801 702.217 773.339 700.796 791.559C699.141 812.776 674.909 867.964 674.909 867.964C678.133 866.89 690.005 866.096 700.622 860.469C716.411 853.679 740.004 834.338 740.004 834.338L726.99 895.897L682.932 944.342L693.045 973.747C693.045 973.747 716.434 978.017 727.378 971.592C736.55 966.192 748.148 941.089 748.148 941.089C747.423 940.917 748.89 941.268 748.148 941.089C748.148 941.089 744.612 988.093 739.703 1000.56C730.057 1025.04 715.753 1046.51 692.461 1060.79C678.727 1069.22 663.611 1074.12 647.621 1075.66C635.013 1076.87 622.077 1077.64 609.498 1076.32C585.595 1073.81 562.723 1067.39 542.298 1053.53C531.896 1046.45 522.251 1038.8 513.957 1029.4C498.967 1012.43 489.994 992.714 485.861 970.874C480.258 941.307 499.884 887.561 499.884 887.561L540.237 808.478Z" fill="#ED603C"/>
<path d="M559.267 971.676C569.533 962.434 578.904 952.013 585.656 939.927C592.408 927.842 596.588 914.108 595.994 900.323C580.152 914.962 568.39 933.469 561.862 954.028C560.779 957.505 559.974 961.063 559.457 964.668C559.203 967.131 559.462 969.254 559.267 971.676Z" fill="white"/>
<path d="M590.886 929.092C584.902 931.87 579.227 935.681 575.375 940.955C571.522 946.229 569.578 953.146 571.475 959.459C574.786 955.793 577.882 951.937 580.747 947.912C584.946 942.094 588.359 935.746 590.897 929.035L590.886 929.092Z" fill="black"/>
<path d="M593.609 964.461C598.667 942.712 609.118 922.586 623.999 905.938C636.074 892.482 650.322 881.194 664.49 869.97C659.002 887.313 650.2 903.409 639.71 918.213C632.536 928.208 624.793 937.783 616.518 946.888C612.393 951.476 608.153 956.02 603.883 960.491C599.783 964.782 595.776 969.066 591.863 973.518C592.339 970.479 592.921 967.46 593.609 964.461Z" fill="white"/>
<path d="M650.022 902.23L647.539 902.354C647.539 902.354 642.507 904.424 639.786 905.961C626.069 913.691 617.34 930.636 616.974 946.383C616.974 946.383 624.969 937.371 627.808 933.773C635.284 924.307 643.456 914.89 648.903 904.137C649.073 903.797 650.022 902.23 650.022 902.23V902.23Z" fill="black"/>
<path d="M653.006 1001.23C660.668 987.272 672.676 976.414 686.692 968.908C700.223 961.672 715.1 957.495 730.283 955.235C721.23 968.137 708.939 982.199 694.269 990.439C679.844 998.594 664.486 1004.97 648.529 1009.44L653.006 1001.23Z" fill="white"/>
<path d="M686.94 986.241C686.174 986.43 678.836 988.829 678.038 988.827C676.248 988.81 672.974 988.824 671.179 988.71C668.293 988.546 664.967 988.721 663.332 986.333C673.595 975.893 686.145 967.982 699.991 963.225V963.225C699.587 967.769 698.21 972.173 695.954 976.139C693.698 980.104 690.616 983.538 686.917 986.207" fill="black"/>
<path d="M668.631 941.34C663.048 950.337 660.005 958.864 652.711 965.325C645.417 971.786 638.521 975.811 630.056 980.599C632.21 971.027 637.438 961.402 645.433 955.73C655.836 948.396 660.166 946.29 668.631 941.34Z" fill="white"/>
<path d="M648.29 953.766C649.769 955.017 649.859 957.02 649.538 958.931C648.757 963.658 644.89 967.313 640.72 969.67C638.376 971.085 635.694 971.843 632.956 971.864C636.029 964.364 641.397 958.029 648.29 953.766V953.766Z" fill="black"/>
<path d="M589.426 989.772C591.642 987.999 594.075 986.515 596.666 985.357C604.075 981.702 611.551 978.242 619.094 974.976C614.247 982.928 609.301 991.013 602.363 998.061C595.007 1005.54 585.406 1012.12 576.247 1017.34C578.152 1010.44 582.822 995.49 589.426 989.772Z" fill="white"/>
<path d="M607.038 992.849C605.128 991.391 602.723 990.74 600.338 991.037C598.037 991.39 595.841 992.245 593.907 993.542C587.262 997.702 582.567 1005.5 583.009 1013.34C590.854 1008.7 600.521 1001.08 607.038 992.849Z" fill="black"/>
<path d="M515.57 904.441L554.783 929.136L555.83 929.796L555.93 928.562L560.477 872.579C560.503 872.534 560.534 872.478 560.57 872.412C560.683 872.206 560.848 871.9 561.056 871.496C561.472 870.69 562.061 869.493 562.76 867.922C564.157 864.78 565.995 860.141 567.765 854.134C571.237 842.351 574.452 825.303 573.583 803.961C573.734 804.032 573.883 804.102 574.028 804.17C574.29 804.292 574.543 804.41 574.781 804.525C575.5 804.871 576.13 805.206 576.686 805.611L576.687 805.611C586.863 813.007 594.84 822.181 600.787 833.234C602.492 836.403 604.198 841.349 605.798 847.035C607.395 852.707 608.873 859.063 610.135 865.023C611.397 870.981 612.44 876.536 613.169 880.601C613.533 882.633 613.819 884.293 614.013 885.444C614.11 886.02 614.184 886.468 614.234 886.772C614.259 886.925 614.278 887.041 614.291 887.119L614.305 887.207L614.309 887.229L614.309 887.234L614.31 887.236C614.31 887.236 614.31 887.236 615.05 887.117L614.31 887.236L614.578 888.908L615.636 887.586C615.961 887.179 616.599 886.571 617.505 885.721C617.564 885.665 617.625 885.609 617.686 885.551C618.538 884.752 619.568 883.786 620.668 882.672C623.022 880.288 625.726 877.196 627.795 873.493C631.146 868.478 634.427 860.924 636.861 854.665C638.083 851.521 639.098 848.687 639.807 846.64C639.974 846.158 640.124 845.72 640.256 845.331L654.943 883.93L647.569 928.494L647.497 928.93L647.844 929.205L664.722 942.546L665.068 942.819L665.475 942.65L665.451 942.592C665.475 942.65 665.475 942.65 665.475 942.65L665.476 942.65L665.478 942.649L665.488 942.645L665.522 942.63C665.552 942.618 665.596 942.599 665.654 942.574C665.769 942.525 665.936 942.452 666.151 942.357C666.579 942.167 667.194 941.888 667.943 941.528C669.44 940.809 671.479 939.767 673.645 938.476C675.809 937.186 678.113 935.639 680.132 933.909C682.144 932.184 683.913 930.243 684.961 928.155L684.962 928.154C685.853 926.372 686.312 923.83 686.527 921.102C686.743 918.353 686.716 915.329 686.587 912.528C686.476 910.128 686.29 907.881 686.113 906.097C686.3 906.452 686.498 906.829 686.707 907.227C688.192 910.058 690.19 913.927 692.245 918.079C694.3 922.232 696.409 926.662 698.116 930.618C699.831 934.593 701.114 938.03 701.552 940.22C705.109 958.009 704.84 975.707 696.773 992.578L696.772 992.578C692.016 1002.54 685.156 1010.97 676.546 1017.8L676.546 1017.8C669.699 1023.23 662.53 1028.49 654.813 1032.42C640.084 1039.88 624.54 1044.68 607.661 1044.27C599.013 1044.05 590.621 1043.21 582.373 1040.87L582.373 1040.87C567.467 1036.64 554.994 1028.6 544.5 1017.51L544.5 1017.51C537.461 1010.08 531.735 996.766 527.758 985.205C525.776 979.443 524.24 974.152 523.2 970.3C522.679 968.375 522.283 966.81 522.017 965.728C521.884 965.187 521.784 964.766 521.717 964.481C521.683 964.339 521.658 964.231 521.641 964.158L521.626 964.093L515.57 904.441Z" stroke="black" stroke-width="1.5"/>
</g>
<defs>
<clipPath id="clip0">
<rect width="768" height="1280" fill="white"/>
</clipPath>
</defs>
</svg>
