<svg width="768" height="1280" viewBox="0 0 768 1280" fill="none" xmlns="http://www.w3.org/2000/svg">
<g clip-path="url(#clip0)">
<path d="M182.422 1018.94C184.914 1033.12 190.176 1045.67 191.575 1059.54C207.901 1023.69 229.7 990.596 256.191 961.441L241.823 1056.61C261.814 1017.24 288.344 981.539 320.281 951.041C305.332 988.867 284.001 1046.8 260.921 1080.35C278.72 1058.26 297.862 1033.05 312.003 1017.75C299.002 1072.51 260.287 1145.8 216.747 1183.9L197.714 1174.78C194.021 1173.13 186.061 1166.76 183.094 1163.99C176.426 1157.81 165.279 1147.1 165.181 1146.02C164.422 1139.72 162.54 1122.27 162.982 1109.22C163.506 1093.83 164.428 1078.8 167.586 1063.61C169.281 1055.55 170.605 1047.24 174.079 1039.75L182.422 1018.94Z" fill="black"/>
<path d="M183.873 1258.22L140.082 1241.29L134.566 1127.65L259.046 1176.04L183.873 1258.22Z" fill="#ED603C"/>
<path d="M214.803 1055.18C214.312 1042.3 217.071 1029.51 222.826 1017.97C227.511 1008.66 233.718 1000.21 239.907 991.805C239.349 1002.28 237.168 1012.61 233.442 1022.42C230.967 1029.07 228.112 1035.58 224.891 1041.91C223.287 1045.09 221.636 1048.24 219.939 1051.36C218.314 1054.36 216.727 1057.36 215.231 1060.44C215.011 1058.72 214.871 1056.95 214.803 1055.18Z" fill="#2FAD74"/>
<path d="M235.476 1046.3C234.802 1052.37 235.316 1057.57 233.113 1062.72C230.955 1067.54 228.261 1072.09 225.084 1076.3C223.845 1070.78 224.191 1064.46 226.953 1059.53C229.525 1054.95 232.371 1050.53 235.476 1046.3V1046.3Z" fill="#2FAD74"/>
<path d="M179.286 1097.78C182.496 1090.46 184.496 1082.67 185.208 1074.71C185.909 1066.72 184.386 1058.69 180.808 1051.51C176.164 1063.06 174.606 1075.62 176.287 1087.95C176.574 1090.03 177.031 1092.08 177.654 1094.08C178.123 1095.41 178.81 1096.48 179.286 1097.78Z" fill="#2FAD74"/>
<path d="M202.127 1069.37C204.95 1074.54 205.929 1080.53 204.904 1086.33C203.877 1092.1 201.496 1097.54 197.956 1102.2C194.76 1097.26 193.591 1091.28 194.694 1085.5C195.756 1079.94 198.311 1074.79 200.944 1069.79C200.915 1070.24 202.188 1068.86 202.127 1069.37Z" fill="#2FAD74"/>
<path d="M280.455 1003.08C276.249 1006.82 272.564 1011.11 269.496 1015.84C266.417 1020.59 264.786 1026.13 264.802 1031.8C268.665 1028.56 272.688 1025.19 275.055 1020.74C276.315 1018.18 277.294 1015.49 277.976 1012.72C278.982 1009.23 279.458 1006.57 280.455 1003.08Z" fill="#2FAD74"/>
<path d="M300.269 989.376C298.506 1001.76 293.213 1013.38 285.02 1022.84C284.698 1016.29 286.117 1009.77 289.133 1003.94C292.123 998.044 295.992 994.325 300.269 989.376Z" fill="#2FAD74"/>
<path d="M246.437 1077.67C247.112 1068.53 250.437 1059.78 256.005 1052.5C261.37 1045.47 267.904 1039.41 275.32 1034.59C273.791 1043.57 270.855 1053.93 265.256 1061.85C259.751 1069.66 253.323 1076.79 246.112 1083.06L246.437 1077.67Z" fill="#2FAD74"/>
<path d="M219.029 1098.26C219.965 1096.34 221.143 1094.53 222.534 1092.9C226.402 1088 230.39 1083.22 234.497 1078.57C233.774 1085.55 233.007 1092.7 230.565 1099.73C227.682 1107.42 223.785 1114.7 218.978 1121.36C218.009 1116.03 216.359 1104.31 219.029 1098.26Z" fill="#2FAD74"/>
<path d="M277.938 1075.81L274.735 1088.56C274.319 1090.49 273.693 1092.38 272.866 1094.18C271.032 1097.84 267.706 1100.46 264.567 1103.07C260.716 1106.29 257.148 1109.85 253.448 1113.18C255.119 1106.98 256.524 1099.42 259.526 1093.8C263.604 1086.06 271.001 1080.73 277.938 1075.81Z" fill="#2FAD74"/>
</g>
<defs>
<clipPath id="clip0">
<rect width="768" height="1280" fill="white"/>
</clipPath>
</defs>
</svg>
