<svg width="768" height="1280" viewBox="0 0 768 1280" fill="none" xmlns="http://www.w3.org/2000/svg">
<g clip-path="url(#clip0)">
<path d="M163.449 979.341L140.621 1008.15L167.822 1032.86L131.819 1040.26L136.767 1076.68L104.435 1059.2L84.8161 1090.28L71.2845 1056.1L36.2776 1067.3L47.8775 1032.42L13.8632 1018.5L45.1667 999.24L28.0606 966.71L64.4207 972.077L72.2269 936.162L96.6302 963.645L125.696 941.15L126.724 977.89L163.449 979.341Z" fill="#2FAD74"/>
<path d="M286.531 1194.96C303.285 1193.91 318.151 1205.57 319.753 1222.29C320.522 1230.32 318.064 1238.33 312.92 1244.56C307.775 1250.79 300.366 1254.73 292.322 1255.52C275.542 1257.14 260.142 1244.96 259.093 1228.19C258.012 1210.85 270.267 1195.98 286.531 1194.96Z" fill="black"/>
<path d="M278.647 1248.6C287.175 1250.56 295.829 1244.67 297.977 1235.45C300.124 1226.22 294.951 1217.15 286.423 1215.19C277.894 1213.22 269.24 1219.11 267.092 1228.34C264.945 1237.56 270.118 1246.64 278.647 1248.6Z" fill="white"/>
<path d="M285.064 1229.77C288.262 1230.51 291.457 1228.51 292.201 1225.32C292.944 1222.13 290.954 1218.94 287.756 1218.2C284.557 1217.47 281.362 1219.46 280.619 1222.65C279.876 1225.85 281.866 1229.03 285.064 1229.77Z" fill="black"/>
</g>
<defs>
<clipPath id="clip0">
<rect width="768" height="1280" fill="white"/>
</clipPath>
</defs>
</svg>
