<svg width="768" height="1280" viewBox="0 0 768 1280" fill="none" xmlns="http://www.w3.org/2000/svg">
<g clip-path="url(#clip0)">
<path d="M66.2933 191.623C76.4171 159.974 95.6704 128.175 113.133 99.9064C113.624 99.1112 106.906 97.4109 103.641 95.441C84.4435 83.8221 72.8883 76.5246 54.4761 63.667C46.0307 57.7773 37.0905 50.9134 33.8053 41.3091C33.3568 39.978 34.612 38.6716 35.9238 39.1288C48.9509 43.6403 80.1223 57.1527 98.1486 65.5929C99.3981 66.1814 102.695 67.6986 103.024 67.1647C103.275 66.7692 101.854 65.458 98.6725 62.6292C92.3604 57.004 90.6282 55.6781 88.1307 52.9531C83.5147 47.9433 83.1532 45.6772 83.4612 44.0902C83.5252 43.753 84.1339 42.1764 85.5174 41.8735C90.3595 40.8131 96.0989 43.4215 100.241 46.5618C113.953 56.9843 126.255 67.9453 139.955 78.3636C141.825 79.7933 143.754 81.2709 144.865 83.3683C147.271 87.8785 145.171 93.434 143.049 98.1422C139.424 106.154 128.879 121.797 126.738 126.588C107.006 170.763 99.6487 185.326 108.291 238.832C109.873 248.645 112.81 257.291 108.17 266.881C97.3956 289.173 69.1562 298.553 60.8346 270.784C53.4298 245.995 58.5468 215.808 66.2933 191.623Z" fill="#2FAD74"/>
<path d="M95.8309 54.2899C96.3933 54.1792 97.0062 54.0358 97.3875 53.5979C98.1391 52.7181 97.5183 51.3711 96.8127 50.4836C94.4977 47.5391 91.3731 45.2587 87.8806 43.9514C87.0253 43.6281 86.1177 43.3756 85.2083 43.4974C84.2989 43.6192 83.3978 44.2227 83.1505 45.1121C82.8826 46.1231 83.371 47.3166 83.957 48.1847C85.3518 50.2381 86.8707 52.1315 88.7118 53.8104C89.016 54.0854 89.3446 54.2959 89.6918 54.4535C91.5048 55.2767 93.8259 54.6609 95.8309 54.2899Z" fill="#ED603C"/>
<path d="M89.8857 74.769C82.9429 71.472 71.6568 65.8606 63.2461 61.375C52.0396 55.4187 41.1332 48.9033 30.7084 41.6516" stroke="white" stroke-width="0.5" stroke-miterlimit="10"/>
<path d="M77.1582 73.9632C72.7851 71.3919 70.2908 70.1645 62.4151 65.6742C51.3814 59.3952 40.4255 52.8093 30.8378 44.4514" stroke="white" stroke-width="0.5" stroke-miterlimit="10"/>
<path d="M41.5284 47.0695C41.56 46.9521 41.543 46.8292 41.5217 46.7177C41.1583 44.9249 39.7324 43.5582 38.2183 42.559C36.8358 41.6484 35.343 40.9289 33.8571 40.2249C33.7614 40.1758 33.6614 40.1381 33.5485 40.1342C33.3451 40.1349 33.1707 40.3276 33.1091 40.5242C33.0586 40.725 33.1013 40.9481 33.1525 41.1485C33.5527 42.7095 34.6 44.0366 35.8312 45.0452C36.812 45.8427 37.9211 46.4689 39.0473 47.0499C39.5079 47.2757 41.3041 47.8642 41.5284 47.0695Z" fill="#ED603C"/>
<path d="M42.2774 51.4539C42.3005 51.3592 42.2903 51.2519 42.2647 51.1517C41.9533 49.6242 40.7333 48.4517 39.4422 47.6016C38.2648 46.8202 36.9968 46.2115 35.7133 45.61C35.6287 45.565 35.5398 45.5315 35.4535 45.5247C35.2766 45.5225 35.1261 45.6855 35.0842 45.8636C35.0422 46.0418 35.0755 46.2224 35.113 46.3918C35.4595 47.7256 36.3539 48.8527 37.3996 49.7136C38.2352 50.3916 39.1863 50.9321 40.1433 51.4232C40.5637 51.6209 42.0891 52.1199 42.2774 51.4539Z" fill="#ED603C"/>
<path d="M43.6209 55.0666C43.6337 55.0327 43.6175 54.9749 43.597 54.9283C43.3221 54.1777 42.4695 53.3769 41.5809 52.7047C40.7726 52.0888 39.9011 51.5395 39.0338 50.9788C38.9825 50.9465 38.9202 50.91 38.8646 50.889C38.7535 50.847 38.6612 50.8897 38.6356 50.9576C38.6099 51.0255 38.6398 51.1144 38.6807 51.2075C38.9591 51.8818 39.6049 52.5915 40.338 53.2049C40.9258 53.6987 41.5683 54.1485 42.2305 54.5799C42.4937 54.757 43.5225 55.3269 43.6209 55.0666Z" fill="#ED603C"/>
<path d="M78.7693 307.661C74.0492 262.079 85.1544 216.886 110.273 179.453C135.2 142.564 184.369 109.216 217.872 103.691C217.872 103.691 242.638 99.4952 253.904 100.83C279.224 103.828 295.801 113.112 314.787 126.694C317.966 128.864 320.879 131.397 323.461 134.236C324.282 135.175 323.281 135.761 322.34 136.514C317.741 140.178 308.986 135.137 302.413 133.632C295.618 132.07 288.688 129.929 281.73 129.522C278.454 129.328 274.909 128.848 271.634 128.908C269.555 128.947 259.589 129.189 259.589 129.189C261.292 130.531 263.065 131.782 264.9 132.939C270.858 135.596 275.525 137.806 282.118 138.595C284.718 138.904 295.598 142.39 294.598 147.935C294.489 148.194 294.339 148.433 294.154 148.644C293.608 149.215 292.74 148.818 291.997 148.872C289.081 148.982 280.897 147.134 279.745 147.009C274.447 146.426 269.131 146.123 263.846 145.633C258.561 145.144 255.974 143.852 250.814 142.625C246.164 141.513 237.762 139.523 233.944 136.534L227.247 131.27C224.09 131.089 220.931 131.102 217.791 131.308C215.257 131.613 212.776 132.187 210.389 133.02C208.911 133.498 205.149 134.984 205.149 134.984C174.288 147.678 146.579 173.543 132.665 203.383C127.254 214.986 121.983 226.444 119.028 238.943C117.465 245.593 116.203 252.314 115.244 259.104C113.965 268.147 116.331 290.941 113.886 298.819C111.441 306.696 108.296 310.037 105.525 312.316C100.09 316.778 91.7096 320.374 84.2275 316.112C82.7073 315.213 81.4168 313.975 80.4663 312.504C79.5158 311.032 78.9335 309.371 78.7693 307.661Z" fill="#D597C3"/>
<path d="M324.368 133.166C319.419 131.481 310.077 126.505 303.984 123.833C301.138 122.583 296.944 122.052 294.022 121.013C287.878 118.837 275.275 116.709 268.878 115.782" stroke="white" stroke-width="0.5" stroke-miterlimit="10"/>
<path d="M308.596 120.04L292.99 113.554C291.418 112.9 289.843 112.249 288.224 111.743C283.947 110.421 271.03 107.334 271.03 107.334" stroke="white" stroke-width="0.5" stroke-miterlimit="10"/>
<path d="M292.457 144.505C292.457 144.505 291.307 143.862 290.712 143.548C289.959 143.151 289.151 142.871 288.319 142.718C287.416 142.529 286.49 142.522 285.599 142.698C285.155 142.792 284.746 142.993 284.408 143.284C284.071 143.575 283.816 143.946 283.665 144.365C283.566 144.825 283.595 145.307 283.747 145.763C283.9 146.219 284.171 146.631 284.534 146.959C285.268 147.607 286.143 148.079 287.085 148.336C288.447 148.774 289.85 149.05 291.266 149.16C292.221 149.236 295.399 149.614 295.876 148.534C296.409 147.322 293.996 145.374 292.457 144.505Z" fill="#2FAD74"/>
<path d="M318.526 134.159C318.155 133.892 317.86 133.534 317.673 133.123C317.583 132.913 317.565 132.682 317.622 132.466C317.678 132.25 317.806 132.061 317.985 131.928C318.341 131.77 318.75 131.754 319.129 131.882C322.497 132.644 326.466 133.688 325.407 135.475C324.079 137.657 319.776 135.191 318.526 134.159Z" fill="#2FAD74"/>
<path d="M319.937 131.326C319.546 131.14 319.19 130.887 318.885 130.581C318.576 130.253 318.402 129.827 318.4 129.39C318.395 129.339 318.4 129.288 318.417 129.241C318.434 129.194 318.461 129.151 318.497 129.116C318.534 129.092 318.575 129.075 318.619 129.067C318.663 129.06 318.708 129.061 318.753 129.071L320.147 129.992C320.147 129.992 322.351 131.79 322.189 131.959C321.911 132.339 320.316 131.529 319.937 131.326Z" fill="#2FAD74"/>
<path d="M57.2986 243.607L123.699 221.776L320.512 380.15L42.2662 512.393L57.2986 243.607Z" fill="#ED603C"/>
</g>
<defs>
<clipPath id="clip0">
<rect width="768" height="1280" fill="white"/>
</clipPath>
</defs>
</svg>
