<svg width="768" height="1280" viewBox="0 0 768 1280" fill="none" xmlns="http://www.w3.org/2000/svg">
<g clip-path="url(#clip0)">
<path d="M277.638 196.557C313.214 184.437 352.005 174.716 388.681 166.509C366.196 179.432 342.138 192.462 319.654 205.385C317.494 205.319 316.97 208.829 318.601 210.231C320.25 211.626 322.668 211.452 324.808 211.227C355.783 207.665 385.584 207.34 416.559 203.778C387.769 218.476 358.158 232.165 327.079 240.994C358.971 244.364 390.469 251.444 422.362 254.815C417.99 254.366 409.437 259.46 405.179 260.944C398.841 263.137 392.488 265.294 386.107 267.336C373.351 271.439 360.466 275.192 347.448 278.343C321.569 284.618 295.277 287.087 268.93 290.412C283.034 293.354 297.592 294.097 311.911 292.62C317.829 292.015 323.707 291.022 329.657 290.936C350.772 290.583 370.419 301.394 387.738 313.47C381.698 313.744 376.079 315.924 370.077 316.481C362.763 317.158 355.462 317.916 348.152 318.506C333.49 319.684 318.795 320.493 304.093 320.793C274.715 321.404 245.254 320.005 216.192 315.641C215.922 315.609 215.645 315.559 215.393 315.519C163.327 307.596 112.18 289.748 69.4746 258.929C91.2844 258.36 109.722 252.519 131.531 251.95C155.534 251.326 180.12 250.576 202.45 241.769C229.102 231.281 252.5 210.29 277.638 196.557Z" fill="black"/>
<path d="M285.736 156.244C280.48 164.128 276.643 172.973 274.458 182.188C273.979 184.229 273.538 186.359 272.264 188.041C271.312 189.285 269.986 190.158 268.677 191.024C255.428 199.687 242.418 209.398 228.623 217.147C235.489 196.462 251.379 178.896 268.895 166.358C274.025 162.707 279.807 158.495 285.736 156.244Z" fill="black"/>
<path d="M153.562 281.867C164.738 288.231 176.087 294.648 188.55 297.834C205.443 302.145 223.227 300.253 240.529 298.037C232.537 286.435 220.333 278.194 207.203 273.125C194.073 268.055 179.967 265.945 165.939 264.802C159.863 264.304 140.068 261.655 135.723 267.46C131.878 272.6 149.714 279.678 153.562 281.867Z" fill="#EBFF00"/>
<path d="M228.257 262.165C237.101 269.391 248.639 272.657 260.036 273.385C271.433 274.113 282.828 272.476 294.117 270.842C286.087 265.245 277.963 259.582 268.857 256.029C263.729 254.032 258.381 252.707 253.023 251.407C244.208 249.262 235.403 247.091 226.588 244.945C210.102 240.884 223.161 257.981 228.257 262.165Z" fill="#EBFF00"/>
<path d="M277.996 246.631C294.917 247.713 311.619 252.321 326.714 260.055C317.078 261.718 308.205 264.797 298.634 261.743C290.372 259.103 282.948 253.776 277.996 246.631Z" fill="#EBFF00"/>
<path d="M296.794 310.848C285.575 314.561 273.894 314.063 262.855 309.835C259.792 308.669 256.643 307.009 255.139 304.08C269.766 303.216 283.404 304.933 296.794 310.848Z" fill="#EBFF00"/>
<path d="M282.891 238.16C295.313 238.252 307.746 234.587 318.128 227.764C306.559 222.657 293.298 222.397 280.939 225.005C268.606 227.624 257.037 232.938 245.914 238.741C258.541 236.506 270.093 238.083 282.891 238.16Z" fill="#EBFF00"/>
<path d="M189.761 259.334C195.84 260.428 202.083 260.129 208.264 259.837C206.376 253.665 202.146 248.232 196.592 244.908C196.252 244.714 195.557 244.291 195.151 244.19C195.151 244.19 194.402 244.429 193.618 244.684C189.697 245.915 184.819 247.049 181.354 247.806C178.863 248.353 172.901 249.297 172.901 249.297C174.562 254.309 185.347 258.541 189.761 259.334Z" fill="#EBFF00"/>
<path d="M210.419 274.458C208.607 275.734 205.682 278.131 203.888 279.399C200.591 281.723 197.186 284.094 193.278 285.107C186.323 286.908 179.084 284.121 172.439 281.377C171.542 276.31 170.274 270.189 169.395 265.115C172.592 265.263 183.647 266.629 186.865 267.365C197.494 269.811 205.921 271.997 210.419 274.458Z" fill="white"/>
<path d="M263.654 254.236C263.562 254.169 263.787 254.05 263.834 254.158C263.88 254.265 263.786 254.392 263.694 254.474C261.149 256.665 258.621 258.847 256.084 261.055C255.605 261.476 255.073 261.92 254.447 261.999C254.006 262.063 253.548 261.941 253.116 261.83C249.924 260.955 246.74 260.098 243.547 259.223C243.185 259.125 242.797 259.016 242.513 258.755C242.147 258.403 242.045 257.872 241.976 257.369C241.532 254.428 241.133 251.639 240.689 248.699C240.758 248.563 240.92 248.493 241.066 248.536C242.669 248.842 244.112 249.368 245.728 249.605C246.501 249.717 247.287 249.909 248.066 250.083C253.421 251.277 258.506 252.291 263.654 254.236Z" fill="white"/>
<path d="M345.707 310.15C343.016 310.528 339.811 311.001 337.12 311.38C333.969 311.829 330.924 311.786 327.743 311.822C319.857 311.917 311.739 308.233 305.383 303.551C305.529 303.594 307.518 303.265 307.646 303.316C313.261 302.16 321.321 301.138 330.937 302.084C341.416 303.103 349.698 306.033 355.169 308.478C353.151 308.543 347.729 309.849 345.707 310.15Z" fill="#EBFF00"/>
</g>
<defs>
<clipPath id="clip0">
<rect width="768" height="1280" fill="white"/>
</clipPath>
</defs>
</svg>
