<svg width="1440" height="1662" viewBox="0 0 1440 1662" fill="none" xmlns="http://www.w3.org/2000/svg">
<path d="M1214.66 1075.48C1220.2 1095.67 1224.56 1116.16 1227.72 1136.86C1228.21 1140.06 1228.64 1143.51 1227.16 1146.41C1224.38 1151.82 1216.98 1152.23 1210.91 1152.23C1139.72 1151 1069.93 1172.16 1011.44 1212.72C985.417 1230.87 959.744 1258.78 965.516 1289.93C1093.19 1273.78 1220.43 1254.87 1347.24 1233.19L1308.78 1075.48" fill="black"/>
<path d="M1090.52 1127.17C1090.12 1124.2 1090.81 1121.18 1092.47 1118.67C1093.69 1117.16 1095.24 1115.93 1096.99 1115.08C1098.74 1114.23 1100.66 1113.77 1102.61 1113.74C1109.57 1113.55 1114.5 1117.99 1117.58 1122.03C1122.94 1129.08 1143.95 1164.38 1125.15 1164.5C1104.55 1164.64 1091.22 1136.78 1090.52 1127.17Z" stroke="#1D1D1B" stroke-width="2.09" stroke-miterlimit="10"/>
<path d="M1166.61 1113.47C1166.12 1110.51 1164.57 1107.83 1162.26 1105.92C1160.63 1104.83 1158.78 1104.11 1156.84 1103.82C1154.9 1103.53 1152.92 1103.67 1151.04 1104.23C1144.34 1106.17 1140.94 1111.78 1139.21 1116.56C1136.17 1124.86 1126.54 1164.81 1144.53 1159.38C1164.26 1153.42 1168.79 1122.88 1166.61 1113.47Z" stroke="#1D1D1B" stroke-width="2.09" stroke-miterlimit="10"/>
</svg>
