<svg width="1440" height="1662" viewBox="0 0 1440 1662" fill="none" xmlns="http://www.w3.org/2000/svg">
<path d="M613.107 1077.52C632.933 1075.34 654.184 1076.8 670.849 1087.73C684.26 1096.56 693.444 1110.74 701.328 1124.94C702.589 1127.77 704.518 1130.25 706.948 1132.16C708.199 1133.07 709.741 1133.49 711.281 1133.35C712.821 1133.2 714.254 1132.49 715.308 1131.36C716.26 1129.69 716.626 1127.74 716.346 1125.84C715.714 1110.7 710.926 1096.02 702.508 1083.41C694.09 1070.81 682.365 1060.76 668.619 1054.38C654.872 1047.99 639.633 1045.51 624.572 1047.21C609.51 1048.91 595.205 1054.72 583.225 1064.01C561.313 1080.94 604.735 1078.43 613.107 1077.52Z" fill="#D597C3"/>
<path d="M628.025 1030.49C647.859 1028.29 669.135 1029.76 685.767 1040.7C699.187 1049.51 708.371 1063.69 716.254 1077.89C717.516 1080.72 719.445 1083.2 721.875 1085.11C723.126 1086.02 724.668 1086.44 726.208 1086.3C727.748 1086.15 729.181 1085.44 730.235 1084.31C731.18 1082.64 731.554 1080.7 731.297 1078.8C730.656 1063.66 725.863 1048.99 717.443 1036.39C709.023 1023.79 697.3 1013.75 683.557 1007.37C669.814 1000.98 654.58 998.502 639.521 1000.19C624.462 1001.89 610.159 1007.69 598.177 1016.97C576.24 1033.89 619.652 1031.41 628.025 1030.49Z" fill="#D597C3"/>
<path d="M441.471 947.911C461.306 945.708 482.582 947.175 499.213 958.119C512.633 966.924 521.818 981.101 529.701 995.309C530.962 998.135 532.891 1000.61 535.322 1002.53C536.573 1003.44 538.114 1003.86 539.654 1003.71C541.194 1003.56 542.627 1002.86 543.681 1001.72C544.627 1000.05 545 998.119 544.744 996.217C544.102 981.077 539.309 966.405 530.889 953.806C522.469 941.207 510.746 931.167 497.003 924.783C483.26 918.399 468.026 915.918 452.967 917.611C437.909 919.304 423.606 925.106 411.623 934.382C389.687 951.306 433.099 948.824 441.471 947.911Z" fill="#D597C3"/>
</svg>
