<svg width="1440" height="1662" viewBox="0 0 1440 1662" fill="none" xmlns="http://www.w3.org/2000/svg">
<path d="M1414.13 108.693H1416L1407.75 254.234C1384.21 220.961 1363.55 185.792 1346 149.099C1343.29 192.685 1340.55 236.272 1337.79 279.858C1312.17 245.356 1289.23 208.991 1269.19 171.073C1264.57 214.226 1259.87 257.812 1263.76 301.182L1206.04 195.035C1197.56 229.279 1192.64 264.289 1191.38 299.519C1172.55 272.2 1156.98 242.827 1144.99 211.985C1136.56 244.295 1129.74 276.967 1124.53 310C1101.39 273.639 1083.38 234.342 1071 193.191C1114.01 166.013 1158.63 150.617 1207.47 135.365C1207.47 135.365 1348.86 86.7913 1415.93 108.657" fill="black"/>
</svg>
