<svg width="1440" height="1662" viewBox="0 0 1440 1662" fill="none" xmlns="http://www.w3.org/2000/svg">
<path d="M781.452 1141.5C805.637 1108.24 853.305 1087.76 888.752 1108.72C916.746 1125.28 927.522 1162.54 921.248 1194.49C914.975 1226.44 894.902 1253.86 872.935 1277.79C856.505 1295.75 837.885 1313.83 832.647 1337.71C829.671 1351.24 833.081 1365.85 821.848 1377.25C813.761 1385.46 805.004 1387.77 795.063 1389.63C781.614 1392.31 765.878 1393.43 755.945 1383.89C745.526 1373.91 746.492 1357.19 748.27 1342.89C753.133 1303.51 761.144 1263.18 763.027 1223.53C764.391 1194.77 759.985 1165.34 781.452 1141.5Z" fill="#ED603C"/>
<path d="M876.666 1199.31C880.089 1186.59 881.338 1156.97 873.196 1146.64C865.053 1136.31 838.927 1132.37 826.653 1137.23C815.917 1141.41 805.353 1157.27 799.596 1167.34C793.934 1177.61 790.361 1188.93 789.083 1200.64C787.57 1212.58 795.78 1231.05 797.377 1243.02C800.77 1268.32 789.211 1296.49 787.609 1313.93L792.019 1315.88C798.773 1306.34 822.264 1266.86 841.514 1249.16C855.789 1235.72 871.532 1218.39 876.666 1199.31Z" fill="white"/>
<path d="M822.232 1231.99C808.018 1236.26 793.036 1228.2 788.768 1213.98C784.501 1199.77 792.564 1184.79 806.778 1180.52C820.992 1176.25 835.974 1184.31 840.242 1198.53C844.509 1212.74 836.446 1227.72 822.232 1231.99Z" fill="black"/>
</svg>
