<svg width="1440" height="1662" viewBox="0 0 1440 1662" fill="none" xmlns="http://www.w3.org/2000/svg">
<g clip-path="url(#clip0)">
<path d="M165.924 960.737C155.166 955.176 143.223 952.3 131.113 952.355C101.995 953.549 78.3864 979.949 72.5939 1008.5C68.0244 1031.13 72.4686 1054.52 76.8898 1077.17L95.1199 1170.44C101.587 1203.62 108.184 1237.18 122.311 1267.88C126.462 1276.94 136.863 1287.1 144.57 1280.8C146.719 1278.75 148.217 1276.11 148.878 1273.21C154.75 1254.03 151.139 1233.35 152.926 1213.34C155.561 1184.33 169.576 1158.6 187.25 1136.02C203.503 1115.3 236.346 1096.56 239.934 1071.39C246.087 1027.84 201.621 977.705 165.924 960.737Z" fill="black"/>
<path d="M118.183 1081.14C117.859 1061.16 119.764 1040.78 130.434 1024.86C138.587 1012.62 155.396 1003.3 171.551 1010.47C179.033 1014.19 185.25 1020.04 189.421 1027.28C200.686 1045.43 201.704 1067.38 192.005 1083.26C184.492 1095.44 171.693 1103.67 161.745 1114.1C146.127 1130.5 141.266 1149.82 137.864 1171.75C118.332 1163.66 118.497 1096.79 118.183 1081.14Z" fill="white"/>
</g>
<defs>
<clipPath id="clip0">
<rect width="1440" height="1662" fill="white"/>
</clipPath>
</defs>
</svg>
