<svg width="1440" height="1662" viewBox="0 0 1440 1662" fill="none" xmlns="http://www.w3.org/2000/svg">
<path d="M709.992 127.524C713.744 88.5421 722.336 68.7411 725 29.7225C714.269 45.804 702.488 59.3328 691.757 75.3049C687.217 57.5095 675.174 12 675.174 12L671.159 36.2499C669.02 50.034 667.407 62.6877 665.118 76.3625C651.086 59.4422 617.243 30.8894 617.243 30.8894C617.243 30.8894 624.747 53.4618 639.755 89.7455C621.045 82.5009 602.46 74.7944 584 66.626C601.034 84.859 620.619 103.092 638.291 120.997C638.291 120.997 590.941 129.603 585.763 130.259C585.763 130.259 642.681 147.69 668.082 152.686C669.023 152.857 669.977 152.954 670.934 152.977C677.912 153.171 684.868 152.12 691.457 149.878C695.942 148.528 700.111 146.335 703.726 143.423C704.925 142.003 706.04 140.518 707.065 138.975C708.409 136.737 709.265 134.254 709.579 131.681L709.992 127.524Z" fill="black"/>
<path d="M725.856 393.758C711.369 353.95 702.35 310.269 712.021 268.978C722.705 223.415 755.192 186.358 791.301 158.275C914.768 62.3373 1095.06 54.9547 1225.48 140.47C1241.8 150.763 1257.25 162.357 1271.7 175.139C1291.35 193.303 1307.62 214.807 1319.76 238.651C1331.67 262.138 1338.48 308.894 1311.25 365.965C1349.19 446.34 1392.19 524.231 1440 599.168L1300.63 658.554C1300.63 658.554 1301.03 807.509 1259.74 864.073C1234.39 898.706 1186.26 907.753 1145.98 896.317C1105.71 884.881 1071.92 856.726 1040.77 827.775C973.767 765.421 928.495 693.115 870.003 624.03C811.511 554.945 757.112 480.612 725.856 393.758Z" fill="#2FAD74"/>
<path d="M1244.96 617.538C1236.99 615.11 1229.56 611.148 1223.08 605.868C1214.72 598.147 1209.45 587.592 1208.26 576.199C1207.07 564.807 1210.04 553.368 1216.62 544.048C1224.73 534.117 1235.78 527.097 1248.14 524.032C1262.66 520.098 1277.95 519.99 1292.53 523.72C1307.11 527.449 1320.5 534.892 1331.44 545.341C1341.6 554.686 1348.35 567.23 1350.59 580.941C1351.59 587.776 1350.76 594.755 1348.19 601.157C1345.63 607.559 1341.42 613.15 1336 617.354C1314.59 632.125 1267.65 625.072 1244.96 617.538Z" fill="#ED603C"/>
<path d="M1289.79 615.375C1283.61 614.545 1277.61 612.775 1272.02 610.131C1266.38 607.459 1261.98 602.888 1259.65 597.296C1259.18 596.345 1258.96 595.296 1259.01 594.243C1259.06 593.19 1259.38 592.165 1259.94 591.258C1261.05 590.167 1262.51 589.473 1264.09 589.292C1270.75 588.475 1277.52 589.38 1283.7 591.914C1291.05 594.475 1298.12 597.734 1304.79 601.644C1310.49 605.094 1318.31 610.097 1311.1 614.823C1305.26 618.688 1296.21 616.445 1289.79 615.375Z" fill="black"/>
<path d="M1255.96 424.496C1261.91 393.355 1217.13 358.629 1155.93 346.933C1094.73 335.236 1040.3 351 1034.35 382.141C1028.39 413.282 1073.18 448.009 1134.38 459.705C1195.57 471.401 1250.01 455.638 1255.96 424.496Z" fill="black"/>
<path d="M765.828 421.961C773.785 425.357 781.936 428.283 790.238 430.723C800.83 433.736 810.417 439.529 817.998 447.497C840.938 471.363 862.443 492.671 877.007 523.799C884.254 539.345 890.682 555.779 890.989 572.894C891.297 590.009 884.87 608.147 870.819 617.966C858.237 626.762 841.861 627.819 828.118 634.603C789.554 653.696 786.511 706.2 768.494 744.999C763.674 755.431 756.46 766.069 745.315 769.103C734.17 772.137 723.093 766.955 713.349 761.296C676.183 739.66 645.284 708.776 623.674 671.663C614.238 655.401 606.58 637.57 606.033 618.818C604.734 574.837 641.725 525.674 661.896 487.693C686.341 441.326 714.546 411.937 765.828 421.961Z" stroke="black" stroke-width="2" stroke-miterlimit="10"/>
<path d="M1216.08 416.875C1219.89 396.943 1191.22 374.716 1152.05 367.229C1112.88 359.742 1078.03 369.831 1074.22 389.763C1070.41 409.695 1099.08 431.922 1138.26 439.409C1177.43 446.896 1212.27 436.807 1216.08 416.875Z" fill="white"/>
<path d="M723.431 264.963C693.002 227.108 664.897 165.449 672.156 115C684.277 116.456 697.829 124.609 709.486 129.013C723.216 134.255 737.519 139.132 751.822 143.391C764.873 147.031 778.067 150.234 790.939 154.602C806.565 159.952 823.12 156.021 839.068 158.642C854.377 160.85 868.844 167.128 881.01 176.841C884.507 179.764 887.663 183.086 890.414 186.742C892.767 190.036 894.917 193.477 896.85 197.043C902.393 206.798 907.935 215.752 909.508 227.108C910.939 237.736 908.793 247.964 908.793 258.557C907.431 274.268 902.312 289.401 893.883 302.635C886.41 314.501 875.325 328.515 861.702 332.883C850.76 336.523 839.425 339.908 828.019 338.779C821.601 337.877 815.304 336.241 809.247 333.902C801.006 330.519 793.162 326.21 785.862 321.053C777.908 316.103 770.254 310.67 762.942 304.783C748.352 293.053 735.099 279.696 723.431 264.963V264.963Z" fill="#ED603C"/>
<path d="M1262.49 817.795C1329.08 792.901 1373.65 747.563 1362.04 716.529C1350.44 685.496 1287.06 680.519 1220.48 705.414C1153.89 730.308 1109.32 775.647 1120.92 806.68C1132.53 837.713 1195.91 842.69 1262.49 817.795Z" fill="black"/>
<path d="M1359 710.29C1315.27 708.35 1271.66 716.161 1231.23 733.173C1190.8 750.184 1154.54 775.982 1125 808.749C1168.24 816.331 1212.73 810.58 1252.71 792.241C1293.99 773.283 1331.4 746.684 1359 710.29Z" fill="white"/>
<path d="M1278.94 710.885C1283.38 730.93 1281.11 751.26 1267.46 763.051C1253.82 774.842 1230.1 779.273 1214.99 773.449C1210.51 771.89 1206.38 769.463 1202.81 766.303C1198.55 761.748 1194.92 756.628 1192 751.082C1192.88 745.737 1194.84 740.641 1197.77 736.123C1200.7 731.605 1204.53 727.766 1209 724.856C1224.84 714.105 1244.09 709.903 1262.85 713.1C1264.13 713.482 1265.49 713.482 1266.77 713.1C1267.72 712.598 1268.62 711.973 1269.42 711.243C1272.47 708.849 1275.51 710.599 1278.94 710.885Z" fill="black"/>
</svg>
