<svg width="1440" height="1662" viewBox="0 0 1440 1662" fill="none" xmlns="http://www.w3.org/2000/svg">
<g clip-path="url(#clip0)">
<path d="M361.508 928.721C393.003 896.284 433.172 873.902 472.739 851.988C499.547 837.115 527.226 822.018 557.664 818.643C606.08 813.301 654.062 839.616 685.059 877.227C716.057 914.839 732.365 962.306 743.568 1009.71C771.936 1130.41 770.797 1256.17 740.246 1376.33C720.995 1451.67 689.03 1525.87 634.003 1580.81C578.976 1635.75 497.911 1668.54 421.996 1651.81C368.486 1640.02 322.658 1605.59 283.751 1566.97C247.888 1531.74 216.97 1491.81 191.846 1448.27C180.254 1427.92 169.894 1405.83 169.782 1382.4C169.642 1359.92 179.098 1338.14 179.904 1315.6C180.71 1293.06 172.777 1270.78 172.027 1248.06C171.439 1220.77 176.296 1193.63 186.315 1168.23C196.172 1144.06 211.981 1122.78 232.271 1106.36C248.213 1093.12 269.717 1087.47 283.169 1071.02C317.683 1028.82 320.833 970.619 361.508 928.721Z" fill="#EBFF00"/>
<path d="M741.901 1268.97C759.636 1240.54 728.7 1189.22 672.803 1154.35C616.905 1119.48 557.213 1114.27 539.478 1142.7C521.742 1171.13 552.678 1222.45 608.576 1257.32C664.473 1292.18 724.165 1297.4 741.901 1268.97Z" fill="black"/>
<path d="M705.477 1246.25C716.83 1228.06 697.032 1195.21 661.258 1172.9C625.484 1150.58 587.281 1147.25 575.928 1165.45C564.576 1183.64 584.374 1216.49 620.147 1238.8C655.921 1261.12 694.125 1264.45 705.477 1246.25Z" fill="white"/>
<path d="M520.114 1254.67C519.546 1257.42 518.264 1259.96 516.397 1262.04C515.452 1263.07 514.24 1263.81 512.895 1264.19C511.551 1264.57 510.128 1264.56 508.787 1264.18C507.59 1263.61 506.525 1262.8 505.657 1261.79C504.79 1260.79 504.139 1259.62 503.745 1258.36C500.46 1250.25 501.484 1241 504.048 1232.62C506.476 1224.02 509.706 1215.66 513.695 1207.67C515.74 1214.34 517.622 1221.66 519.31 1228.54C521.733 1237.05 522.009 1246.03 520.114 1254.67Z" fill="black"/>
<path d="M217.924 1243.99C230.963 1275.98 256.206 1301.13 280.806 1325.33C281.897 1326.42 283.65 1328.06 285.701 1329.86C287.348 1331.3 289.293 1332.36 291.397 1332.97C293.502 1333.57 295.714 1333.71 297.876 1333.36C300.038 1333.01 302.096 1332.19 303.904 1330.96C305.712 1329.72 307.226 1328.1 308.336 1326.21C313.289 1317.75 319.384 1307.72 322.599 1303.46C333.358 1289.34 339.063 1284.59 338.796 1271.65C338.618 1264.62 336.846 1257.72 333.612 1251.47L295.453 1176.1C290.607 1166.31 283.562 1157.77 274.87 1151.15C217.966 1108.6 203.884 1209.51 217.924 1243.99Z" fill="#ED603C"/>
<path d="M415.624 1526.38C489.549 1554.95 567.121 1532.48 588.886 1476.17C610.651 1419.87 568.367 1351.06 494.442 1322.49C420.516 1293.91 342.944 1316.38 321.18 1372.69C299.415 1428.99 341.699 1497.8 415.624 1526.38Z" fill="#D597C3"/>
<path d="M516.807 1289.48C542.861 1300.42 565.677 1316.11 581.822 1339.49C584.409 1343.09 586.783 1346.82 588.97 1350.66C600.612 1371.06 606.744 1394.13 606.762 1417.61C606.78 1441.09 600.683 1464.17 589.073 1484.58C577.462 1504.99 560.737 1522.03 540.543 1534.02C520.35 1546 497.384 1552.52 473.905 1552.93C469.676 1553.87 465.394 1554.56 461.083 1554.99C456.844 1555.45 452.581 1555.68 448.317 1555.66C436.856 1556.22 425.413 1554.24 414.809 1549.86C411.248 1548.45 407.772 1546.83 404.397 1545.02C388.807 1535.85 372.123 1528.69 354.739 1523.69C315.078 1512.48 322.798 1460.45 315.86 1426.9C315.366 1422.44 315.005 1418.16 314.91 1413.69C314.1 1377.14 327.836 1341.76 353.098 1315.34C356.143 1312.17 359.347 1309.16 362.697 1306.32C372.376 1296.66 385.826 1286.74 400.046 1289.49C406.784 1290.27 413.184 1292.86 418.57 1296.99C437.31 1317.64 462.292 1295.66 481.303 1287.03C488.384 1284.29 496.069 1283.5 503.56 1284.73L516.807 1289.48ZM437.626 1507.59C456.826 1505.14 473.625 1493.75 492.891 1495.7C498.023 1496.42 503.104 1496.84 507.999 1497.16C547.461 1499.24 579.46 1487.19 588.871 1462.84C594.69 1447.79 590.78 1430.27 579.556 1413.17C577.225 1409.63 574.693 1406.23 571.972 1402.98C567.099 1397.81 562.046 1393.11 555.607 1391.99C542.368 1390.2 529.552 1386.08 517.756 1379.8C513.974 1377.84 510.316 1375.69 506.72 1373.46C465.93 1364.23 427.249 1357.52 393.505 1332.67C389.932 1332.13 386.322 1331.89 382.709 1331.94C378.878 1332.18 375.152 1332.61 371.529 1333.23C364.834 1334.97 358.464 1337.78 352.664 1341.56C346.886 1345.33 342.018 1350.35 338.41 1356.23C333.732 1363.79 331.071 1372.43 330.681 1381.31C330.292 1390.19 332.186 1399.03 336.183 1406.97C337.693 1410.19 339.372 1413.33 341.212 1416.37C356.199 1452.53 392.115 1473.28 417.225 1501.61C420.394 1503.96 423.993 1505.66 427.818 1506.63C431.043 1507.3 434.331 1507.62 437.626 1507.59V1507.59Z" fill="black"/>
<path d="M418.945 1381.76C418.418 1382.78 418.197 1383.93 418.308 1385.07C418.577 1385.84 418.994 1386.54 419.535 1387.15C420.077 1387.75 420.731 1388.24 421.463 1388.59C434.259 1396.81 447.692 1404 461.632 1410.09C467.408 1394.72 472.583 1379.08 477.145 1363.29C477.792 1361.96 477.938 1360.45 477.557 1359.02C477.175 1357.6 476.291 1356.36 475.068 1355.53C468.947 1349.6 461.738 1343.23 453.149 1343.47C433.8 1343.98 424.881 1366.84 418.945 1381.76Z" fill="white"/>
<path d="M514.477 1418.69C514.161 1419.8 513.543 1420.79 512.694 1421.56C511.982 1421.95 511.199 1422.2 510.392 1422.28C509.585 1422.36 508.77 1422.28 507.993 1422.05C492.992 1419.53 478.216 1415.81 463.807 1410.94C469.875 1395.68 476.563 1380.62 483.832 1365.88C484.357 1364.51 485.247 1363.31 486.405 1362.42C487.691 1361.74 489.138 1361.44 490.586 1361.54C499.102 1361.27 508.701 1361.39 514.895 1367.35C528.894 1380.75 520.097 1403.65 514.477 1418.69Z" fill="white"/>
<path d="M522.565 1399.64C522.92 1395.38 523.721 1391.17 524.954 1387.07C525.598 1385.03 526.805 1383.21 528.438 1381.82C530.071 1380.43 532.063 1379.53 534.184 1379.23C537.063 1379.27 539.824 1380.38 541.918 1382.36C544.719 1384.95 546.959 1388.09 548.503 1391.58C550.047 1395.07 550.862 1398.84 550.897 1402.65C550.904 1410.29 549.677 1417.87 547.263 1425.11C547.037 1426.3 546.483 1427.41 545.663 1428.31C544.903 1428.9 544 1429.29 543.044 1429.42C538.52 1429.99 533.928 1429.38 529.706 1427.66C526.493 1426.62 520.329 1425.8 517.874 1423.45C514.985 1420.62 517.003 1417.51 518.272 1414.3C520.214 1409.57 521.653 1404.66 522.565 1399.64V1399.64Z" fill="white"/>
<path d="M410.155 1341.74C412.89 1339.15 416.166 1337.19 419.748 1336C421.545 1335.44 423.443 1335.27 425.31 1335.51C427.178 1335.75 428.973 1336.39 430.571 1337.38C431.347 1337.87 432.014 1338.52 432.53 1339.28C433.047 1340.04 433.403 1340.9 433.575 1341.8C433.64 1343.51 433.255 1345.21 432.457 1346.72C427.739 1357.77 422.389 1368.49 417.08 1379.25C416.767 1380 416.304 1380.68 415.719 1381.24C414.898 1381.73 413.968 1382 413.014 1382.04C412.061 1382.07 411.115 1381.86 410.262 1381.43C404.964 1379.96 400.35 1376.68 397.22 1372.16C390.843 1361.81 402.766 1348.31 410.155 1341.74Z" fill="white"/>
<path d="M387.473 1431.68C388.481 1429.12 390.228 1426.93 392.49 1425.37C396.07 1423.36 400.464 1424.47 404.317 1425.82C408.209 1427.2 412.028 1428.77 415.761 1430.53C417.966 1431.35 419.902 1432.77 421.355 1434.63C423.412 1437.72 422.639 1441.82 421.641 1445.42C418.24 1457.73 413.358 1469.58 407.102 1480.71C406.562 1481.92 405.679 1482.94 404.562 1483.65C401.989 1485.01 399.026 1482.89 396.885 1480.88C390.295 1474.72 381.695 1469.4 380.145 1460.64C378.596 1451.88 383.702 1439.47 387.473 1431.68Z" fill="white"/>
<path d="M424.957 1444.8C425.427 1443.54 426.083 1442.35 426.903 1441.29C428.036 1440.17 429.45 1439.37 430.996 1438.98C432.542 1438.59 434.163 1438.63 435.692 1439.08C438.732 1440.03 441.571 1441.54 444.069 1443.52C445.435 1444.3 446.557 1445.44 447.308 1446.82C447.888 1448.87 447.681 1451.06 446.729 1452.96L432.08 1494.26C430.722 1497.78 429.184 1501.75 425.697 1503.01C422.21 1504.27 417.39 1502.02 414.455 1498.95C412.277 1496.68 406.694 1492.33 406.361 1489.2C405.964 1485.51 410.218 1479.22 411.681 1475.95L424.957 1444.8Z" fill="white"/>
<path d="M471.757 1465.99C472.225 1464.83 472.493 1463.6 472.549 1462.35C472.388 1460.8 471.826 1459.33 470.919 1458.08C470.013 1456.82 468.793 1455.83 467.381 1455.19C464.495 1453.87 461.406 1453.06 458.246 1452.78C456.742 1452.42 455.171 1452.46 453.687 1452.89C451.947 1453.88 450.664 1455.51 450.111 1457.43L434.382 1494.78C433.128 1498.03 431.704 1501.71 433.45 1504.88C435.197 1508.05 439.977 1506.93 444.167 1506.75C448.31 1505.94 452.299 1504.49 455.987 1502.43C457.326 1501.76 458.504 1500.8 459.44 1499.63C460.377 1498.46 461.051 1497.1 461.416 1495.64L471.757 1465.99Z" fill="white"/>
<path d="M468.855 1482.93L474.486 1466.77C474.785 1465.65 475.314 1464.6 476.038 1463.7C477.563 1462.4 479.525 1461.74 481.524 1461.84C484.025 1461.74 486.529 1461.87 489.008 1462.21C492.784 1462.74 496.978 1464.22 498.427 1467.73C499.195 1470.36 499.091 1473.17 498.132 1475.74C496.576 1481.87 494.962 1488.01 493.284 1494.09C493.199 1494.71 492.97 1495.3 492.615 1495.82C491.593 1496.94 489.812 1496.61 488.327 1496.32C481.181 1494.93 475.04 1497.33 468.296 1499.18C464.133 1500.37 465.158 1497.07 465.766 1493.82C466.516 1490.12 467.549 1486.48 468.855 1482.93V1482.93Z" fill="white"/>
<path d="M859.661 901.934L693.256 917.857L732.908 981.246L859.661 901.934Z" fill="black"/>
<path d="M780.558 775.491L693.441 918.158L653.79 854.769L780.558 775.491Z" fill="black"/>
<path d="M476.313 1149.02C472.051 1114.21 458.882 1041.79 454.113 1013.87L405.945 1004.14C382.894 1021.7 359.851 1039.26 336.817 1056.83C340.297 1095.11 346.468 1133.1 355.284 1170.52L476.313 1149.02Z" fill="black"/>
<path d="M311.417 1095.88C311.676 1069.01 321.242 1043.06 338.486 1022.45C348.916 1010.81 360.953 1000.73 374.234 992.498C394.281 979.301 417.022 967.623 437.894 972.383C445.504 974.318 452.602 977.885 458.697 982.836C483.285 1001.85 497.039 1035.54 499.438 1071.04C501.838 1106.54 493.775 1143.72 480.553 1178.28C474.726 1193.36 467.788 1208.62 456.868 1219.82C435.203 1242.07 402.73 1242.58 379.9 1228.6C345.852 1207.72 311.461 1143.06 311.417 1095.88Z" stroke="#1D1D1B" stroke-width="2" stroke-miterlimit="10"/>
</g>
<defs>
<clipPath id="clip0">
<rect width="1440" height="1662" fill="white"/>
</clipPath>
</defs>
</svg>
