<svg width="1440" height="1662" viewBox="0 0 1440 1662" fill="none" xmlns="http://www.w3.org/2000/svg">
<path d="M122.664 571.273C113.639 484.119 134.872 397.707 182.901 326.135C230.562 255.601 324.574 191.839 388.633 181.276C388.633 181.276 435.986 173.253 457.528 175.806C505.941 181.537 537.635 199.289 573.937 225.257C580.017 229.407 585.587 234.25 590.523 239.679C592.092 241.473 590.178 242.595 588.379 244.035C579.585 251.04 562.846 241.402 550.278 238.523C537.287 235.537 524.035 231.443 510.731 230.665C504.467 230.294 497.69 229.377 491.427 229.49C487.452 229.566 468.397 230.028 468.397 230.028C471.654 232.593 475.044 234.987 478.553 237.199C489.944 242.279 498.867 246.504 511.473 248.012C516.445 248.604 537.247 255.268 535.335 265.871C535.126 266.366 534.84 266.823 534.487 267.228C533.443 268.318 531.783 267.56 530.363 267.663C524.787 267.874 509.138 264.34 506.936 264.101C496.806 262.986 486.643 262.407 476.537 261.471C466.432 260.534 461.486 258.065 451.62 255.718C442.728 253.593 426.663 249.788 419.363 244.072L406.559 234.007C400.521 233.661 394.483 233.686 388.478 234.08C383.634 234.662 378.889 235.76 374.326 237.354C371.499 238.268 364.306 241.109 364.306 241.109C305.299 265.38 252.319 314.835 225.714 371.89C215.369 394.076 205.29 415.983 199.64 439.881C196.651 452.598 194.239 465.448 192.405 478.431C189.96 495.72 194.483 539.304 189.808 554.366C185.134 569.429 179.119 575.816 173.822 580.173C163.43 588.706 147.406 595.581 133.1 587.431C130.193 585.713 127.726 583.346 125.908 580.533C124.091 577.719 122.978 574.542 122.664 571.273Z" fill="#D597C3"/>
<path d="M592.261 237.632C582.797 234.41 564.936 224.894 553.285 219.787C547.843 217.397 539.826 216.38 534.237 214.394C522.491 210.234 498.394 206.164 486.161 204.392" stroke="white" stroke-width="0.5" stroke-miterlimit="10"/>
<path d="M562.107 212.532L532.267 200.132C529.263 198.88 526.252 197.636 523.156 196.668C514.978 194.141 490.281 188.238 490.281 188.238" stroke="white" stroke-width="0.5" stroke-miterlimit="10"/>
<path d="M531.246 259.312C531.246 259.312 529.047 258.082 527.91 257.482C526.469 256.724 524.925 256.189 523.335 255.896C521.607 255.533 519.837 255.52 518.133 255.857C517.284 256.036 516.502 256.421 515.857 256.977C515.212 257.534 514.724 258.244 514.436 259.044C514.247 259.924 514.301 260.846 514.593 261.717C514.884 262.589 515.404 263.377 516.097 264.003C517.501 265.243 519.173 266.146 520.975 266.637C523.578 267.474 526.262 268.003 528.968 268.213C530.795 268.359 536.872 269.081 537.783 267.016C538.803 264.697 534.188 260.974 531.246 259.312Z" fill="#2FAD74"/>
<path d="M581.098 239.527C580.388 239.017 579.824 238.332 579.467 237.547C579.295 237.144 579.261 236.703 579.368 236.29C579.476 235.878 579.72 235.516 580.063 235.262C580.743 234.96 581.525 234.929 582.249 235.173C588.69 236.63 596.28 238.626 594.255 242.043C591.714 246.216 583.487 241.5 581.098 239.527Z" fill="#2FAD74"/>
<path d="M583.792 234.115C583.044 233.758 582.363 233.276 581.78 232.69C581.189 232.063 580.858 231.248 580.853 230.412C580.843 230.315 580.854 230.218 580.886 230.128C580.918 230.037 580.97 229.956 581.039 229.889C581.109 229.842 581.188 229.811 581.272 229.796C581.356 229.781 581.443 229.783 581.527 229.802L584.194 231.564C584.194 231.564 588.407 235.001 588.098 235.324C587.566 236.052 584.517 234.503 583.792 234.115Z" fill="#2FAD74"/>
</svg>
