<svg width="1440" height="1662" viewBox="0 0 1440 1662" fill="none" xmlns="http://www.w3.org/2000/svg">
<g clip-path="url(#clip0)">
<path d="M98.802 349.406C118.159 288.891 154.972 228.091 188.36 174.04C189.299 172.52 176.456 169.269 170.212 165.502C133.506 143.287 111.412 129.334 76.2072 104.749C60.0592 93.4882 42.9654 80.3642 36.684 62.0003C35.8263 59.4554 38.2263 56.9575 40.7346 57.8316C65.6429 66.4577 125.244 92.2939 159.71 108.432C162.1 109.557 168.403 112.458 169.032 111.437C169.512 110.681 166.796 108.174 160.712 102.765C148.643 92.0096 145.331 89.4745 140.556 84.2642C131.73 74.6851 131.039 70.3524 131.628 67.318C131.75 66.6733 132.914 63.6587 135.559 63.0795C144.817 61.052 155.791 66.0393 163.712 72.0438C189.928 91.9719 213.451 112.93 239.646 132.85C243.222 135.584 246.91 138.409 249.033 142.419C253.634 151.043 249.619 161.665 245.561 170.667C238.63 185.986 218.468 215.895 214.374 225.057C176.647 309.52 162.579 337.365 179.103 439.672C182.129 458.433 187.744 474.966 178.872 493.302C158.271 535.925 104.276 553.86 88.3648 500.765C74.2066 453.367 83.9904 395.649 98.802 349.406Z" fill="#2FAD74"/>
<path d="M155.276 86.8147C156.351 86.603 157.523 86.3288 158.252 85.4916C159.689 83.8093 158.502 81.2338 157.153 79.5368C152.727 73.907 146.752 69.5467 140.075 67.0471C138.439 66.4289 136.704 65.9461 134.965 66.179C133.226 66.412 131.503 67.5659 131.031 69.2665C130.518 71.1995 131.452 73.4814 132.573 75.1414C135.24 79.0676 138.144 82.6877 141.664 85.8978C142.246 86.4237 142.874 86.8261 143.538 87.1275C147.004 88.7015 151.442 87.524 155.276 86.8147Z" fill="#ED603C"/>
<path d="M143.92 125.972C130.645 119.668 109.066 108.939 92.984 100.362C71.5568 88.9732 50.7035 76.5156 30.7708 62.6501" stroke="white" stroke-width="0.5" stroke-miterlimit="10"/>
<path d="M119.58 124.434C111.218 119.517 106.449 117.17 91.3903 108.585C70.2934 96.579 49.3454 83.9865 31.0134 68.006" stroke="white" stroke-width="0.5" stroke-miterlimit="10"/>
<path d="M51.4498 73.0104C51.5103 72.786 51.4777 72.5511 51.437 72.3379C50.7422 68.9099 48.0158 66.2967 45.1209 64.3863C42.4775 62.6452 39.6232 61.2695 36.782 59.9235C36.599 59.8296 36.4078 59.7573 36.1921 59.75C35.8031 59.7513 35.4697 60.1198 35.3519 60.4957C35.2553 60.8796 35.3368 61.3061 35.4347 61.6893C36.2 64.674 38.2025 67.2114 40.5565 69.1399C42.4319 70.6649 44.5525 71.8622 46.7059 72.9729C47.5865 73.4047 51.021 74.5299 51.4498 73.0104Z" fill="#ED603C"/>
<path d="M52.8846 81.3943C52.9288 81.2131 52.9092 81.008 52.8603 80.8164C52.265 77.8959 49.9323 75.654 47.4637 74.0284C45.2125 72.5345 42.7879 71.3706 40.3339 70.2204C40.1721 70.1345 40.0022 70.0703 39.8371 70.0574C39.4989 70.0532 39.2112 70.3648 39.131 70.7054C39.0507 71.046 39.1143 71.3915 39.1861 71.7154C39.8486 74.2656 41.5586 76.4205 43.5582 78.0666C45.1559 79.363 46.9743 80.3966 48.8042 81.3356C49.608 81.7136 52.5246 82.6677 52.8846 81.3943Z" fill="#ED603C"/>
<path d="M55.4508 88.2987C55.4754 88.2338 55.4444 88.1232 55.4052 88.0342C54.8795 86.5991 53.2493 85.0678 51.5503 83.7826C50.0048 82.6049 48.3384 81.5546 46.6802 80.4827C46.5822 80.4209 46.4629 80.351 46.3567 80.3109C46.1443 80.2306 45.9678 80.3122 45.9187 80.442C45.8696 80.5719 45.9268 80.7419 46.0051 80.9199C46.5374 82.2091 47.7722 83.5662 49.1739 84.739C50.2978 85.6831 51.5263 86.5431 52.7924 87.368C53.2956 87.7065 55.2627 88.7963 55.4508 88.2987Z" fill="#ED603C"/>
</g>
<defs>
<clipPath id="clip0">
<rect width="1440" height="1662" fill="white"/>
</clipPath>
</defs>
</svg>
