<svg width="1440" height="1662" viewBox="0 0 1440 1662" fill="none" xmlns="http://www.w3.org/2000/svg">
<g clip-path="url(#clip0)">
<path d="M823.93 47.3545L1405.19 291.288" stroke="black"/>
<path d="M33 48L33 830" stroke="black"/>
<path d="M375.567 292.466L823.002 566" stroke="black"/>
<path d="M1101.5 566L1405.06 831.346" stroke="black"/>
<path d="M375.5 565.499L32.0398 293.429" stroke="black"/>
<path d="M1281 48L1281 830" stroke="black"/>
<path d="M1101 48L1101 830" stroke="black"/>
<path d="M1405 48L1405 830" stroke="black"/>
<path d="M546 830L546 48" stroke="black"/>
<path d="M823 48L823 539" stroke="black"/>
<path d="M823 48L823 830" stroke="black"/>
<path d="M376 48L376 830" stroke="black"/>
<path d="M1405 290L823 290" stroke="black"/>
<path d="M33 290L823 290" stroke="black"/>
<path d="M33 566L1405 566" stroke="black"/>
<path d="M33 830L33 1615" stroke="black"/>
<path d="M823.002 830L375.571 1076.56" stroke="black"/>
<path d="M375.567 1076.46L823.533 1351.03" stroke="black"/>
<path d="M1101.24 1350.23L823 1614.74" stroke="black"/>
<path d="M1405.23 960.069L1281.77 1076.53" stroke="black"/>
<path d="M374.703 1350.17L32.0398 1077.42" stroke="black"/>
<path d="M1281 830L1281 1615" stroke="black"/>
<path d="M1101 830L1101 1615" stroke="black"/>
<path d="M1405 830L1405 1615" stroke="black"/>
<path d="M546 1615L546 830" stroke="black"/>
<path d="M823 830L823 1323" stroke="black"/>
<path d="M823 830L823 1615" stroke="black"/>
<path d="M376 830L376 1615" stroke="black"/>
<path d="M1405 1076H823" stroke="black"/>
<path d="M1405 959L1281 959" stroke="black"/>
<path d="M33 1076L823 1076" stroke="black"/>
<path d="M33 1350L1405 1350" stroke="black"/>
<path d="M33 830L1407 830" stroke="black"/>
</g>
<defs>
<clipPath id="clip0">
<rect width="1440" height="1662" fill="white"/>
</clipPath>
</defs>
</svg>
