<svg width="1440" height="1662" viewBox="0 0 1440 1662" fill="none" xmlns="http://www.w3.org/2000/svg">
<path d="M502.893 358.84C570.916 335.666 645.084 317.079 715.21 301.387C672.219 326.096 626.219 351.01 583.228 375.719C579.099 375.594 578.096 382.304 581.215 384.986C584.368 387.653 588.99 387.319 593.083 386.89C652.309 380.079 709.288 379.457 768.514 372.646C713.466 400.749 656.849 426.925 597.425 443.804C658.405 450.25 718.629 463.787 779.609 470.232C771.251 469.374 754.896 479.112 746.754 481.949C734.637 486.143 722.49 490.268 710.289 494.173C685.9 502.016 661.263 509.193 636.371 515.217C586.891 527.216 536.619 531.937 486.242 538.294C513.21 543.919 541.044 545.339 568.424 542.515C579.739 541.358 590.977 539.461 602.355 539.295C642.728 538.621 680.293 559.292 713.407 582.382C701.858 582.906 691.116 587.075 679.638 588.139C665.654 589.434 651.694 590.882 637.718 592.011C609.683 594.263 581.587 595.809 553.476 596.384C497.304 597.551 440.974 594.876 385.405 586.533C384.889 586.471 384.359 586.375 383.877 586.299C284.326 571.15 186.532 537.025 104.877 478.098C146.578 477.01 181.831 465.842 223.532 464.755C269.424 463.561 316.435 462.127 359.131 445.288C410.089 425.233 454.827 385.098 502.893 358.84Z" fill="black"/>
<path d="M518.375 281.76C508.326 296.833 500.99 313.745 496.812 331.365C495.896 335.267 495.054 339.34 492.618 342.555C490.797 344.934 488.261 346.604 485.76 348.259C460.426 364.824 435.552 383.39 409.175 398.208C422.302 358.656 452.685 325.07 486.176 301.098C495.984 294.116 507.039 286.063 518.375 281.76Z" fill="black"/>
<path d="M265.659 521.956C287.029 534.124 308.728 546.394 332.557 552.484C364.857 560.728 398.86 557.11 431.943 552.873C416.662 530.69 393.328 514.932 368.223 505.239C343.118 495.546 316.146 491.511 289.325 489.326C277.707 488.373 239.858 483.309 231.55 494.408C224.198 504.237 258.302 517.77 265.659 521.956Z" fill="#EBFF00"/>
<path d="M408.48 484.281C425.39 498.098 447.452 504.343 469.244 505.734C491.035 507.125 512.822 503.996 534.408 500.872C519.052 490.171 503.52 479.343 486.109 472.548C476.305 468.731 466.079 466.197 455.833 463.712C438.979 459.61 422.144 455.458 405.289 451.356C373.766 443.59 398.737 476.282 408.48 484.281Z" fill="#EBFF00"/>
<path d="M503.57 454.582C535.923 456.651 567.858 465.461 596.72 480.248C578.296 483.428 561.331 489.316 543.031 483.477C527.233 478.428 513.038 468.243 503.57 454.582Z" fill="#EBFF00"/>
<path d="M539.523 577.366C518.072 584.466 495.737 583.513 474.63 575.429C468.774 573.2 462.752 570.025 459.877 564.426C487.846 562.772 513.92 566.055 539.523 577.366Z" fill="#EBFF00"/>
<path d="M512.935 438.383C536.685 438.559 560.459 431.552 580.31 418.505C558.189 408.741 532.832 408.243 509.202 413.231C485.622 418.239 463.501 428.399 442.233 439.494C466.376 435.22 488.464 438.235 512.935 438.383Z" fill="#EBFF00"/>
<path d="M334.881 478.871C346.504 480.962 358.44 480.392 370.259 479.832C366.65 468.032 358.561 457.644 347.941 451.287C347.292 450.917 345.963 450.108 345.187 449.915C345.187 449.915 343.755 450.372 342.255 450.86C334.759 453.213 325.432 455.382 318.806 456.829C314.044 457.875 302.643 459.68 302.643 459.68C305.82 469.263 326.442 477.355 334.881 478.871Z" fill="#EBFF00"/>
<path d="M374.38 507.786C370.915 510.226 365.323 514.809 361.892 517.234C355.588 521.678 349.079 526.212 341.606 528.148C328.307 531.59 314.466 526.263 301.76 521.015C300.046 511.327 297.621 499.625 295.941 489.922C302.053 490.206 323.192 492.817 329.344 494.225C349.666 498.901 365.78 503.08 374.38 507.786Z" fill="white"/>
<path d="M476.158 469.121C475.981 468.995 476.412 468.767 476.501 468.973C476.591 469.179 476.41 469.42 476.234 469.578C471.367 473.766 466.535 477.939 461.683 482.161C460.768 482.965 459.751 483.814 458.554 483.966C457.71 484.087 456.835 483.855 456.009 483.643C449.906 481.97 443.817 480.331 437.713 478.658C437.02 478.47 436.278 478.262 435.736 477.763C435.036 477.089 434.84 476.074 434.709 475.112C433.86 469.49 433.097 464.157 432.249 458.535C432.38 458.275 432.689 458.141 432.969 458.223C436.034 458.809 438.793 459.814 441.882 460.267C443.361 460.482 444.864 460.849 446.353 461.181C456.593 463.465 466.315 465.403 476.158 469.121Z" fill="white"/>
<path d="M540.357 346.72C540.357 346.72 539.742 354.606 539.401 354.102C536.008 359.811 532.238 363.238 527.841 368.322C521.246 375.949 511.738 381.742 501.93 384.12C492.122 386.497 477.161 383.286 469.535 379.135C469.535 379.135 500.714 356.409 517.52 353.443C521.238 352.809 526.748 350.95 526.748 350.95L540.357 346.72Z" fill="#EBFF00"/>
<path d="M516.135 353.922C516.267 353.661 516.267 353.661 516.267 353.661C516.429 353.753 516.4 353.97 516.391 354.136C515.631 358.867 514.851 363.646 514.09 368.377C513.956 369.29 513.769 370.268 513.163 370.938C512.718 371.416 512.15 371.703 511.533 371.971C507.236 373.997 502.974 376.008 498.677 378.033C498.163 378.256 497.663 378.514 497.113 378.467C496.396 378.411 495.786 377.942 495.243 377.444C492.065 374.625 488.843 371.703 485.68 368.918C485.68 368.918 485.993 368.701 486.135 368.558C487.636 367.133 489.632 365.534 491.625 364.303C492.594 363.72 495.057 362.163 496.026 361.58C502.485 357.68 508.03 354.869 516.135 353.922Z" fill="white"/>
<path d="M633.043 576.031C627.897 576.755 621.77 577.659 616.623 578.382C610.599 579.242 604.777 579.158 598.695 579.228C583.616 579.409 568.094 572.366 555.941 563.414C556.222 563.496 560.023 562.867 560.269 562.964C571.005 560.754 586.416 558.8 604.802 560.608C624.838 562.556 640.673 568.16 651.134 572.833C647.276 572.957 636.909 575.455 633.043 576.031Z" fill="#EBFF00"/>
</svg>
