<svg width="375" height="1293" viewBox="0 0 375 1293" fill="none" xmlns="http://www.w3.org/2000/svg">
<g clip-path="url(#clip0)">
<path d="M353.262 415.503L361.608 409.502L357.847 419.064L368.13 419.108L359.465 424.642L367.756 430.716L357.496 430.103L360.626 439.882L352.687 433.362L349.462 443.114L346.874 433.173L338.527 439.174L342.288 429.612L332 429.568L340.67 424.034L332.374 417.96L342.639 418.579L339.509 408.794L347.448 415.319L350.673 405.562L353.262 415.503Z" fill="#2FAD74"/>
<path d="M316.758 354C318.347 359.796 319.599 365.679 320.507 371.62C320.647 372.539 320.769 373.531 320.345 374.361C319.548 375.916 317.422 376.033 315.681 376.033C295.243 375.679 275.211 381.754 258.419 393.397C250.948 398.607 243.579 406.62 245.236 415.563C281.886 410.927 318.413 405.498 354.818 399.275L343.777 354" fill="black"/>
<path d="M281.122 368.839C281.007 367.985 281.205 367.118 281.68 366.399C282.032 365.964 282.475 365.612 282.978 365.368C283.482 365.123 284.033 364.992 284.592 364.983C286.589 364.927 288.006 366.204 288.888 367.363C290.428 369.385 296.459 379.521 291.064 379.555C285.15 379.594 281.323 371.598 281.122 368.839Z" stroke="#1D1D1B" stroke-miterlimit="10"/>
<path d="M302.963 364.905C302.822 364.056 302.378 363.286 301.713 362.738C301.246 362.425 300.715 362.219 300.158 362.135C299.602 362.052 299.033 362.092 298.494 362.253C296.57 362.81 295.593 364.421 295.097 365.791C294.226 368.176 291.459 379.644 296.625 378.084C302.288 376.373 303.588 367.608 302.963 364.905Z" stroke="#1D1D1B" stroke-miterlimit="10"/>
</g>
<defs>
<clipPath id="clip0">
<rect width="375" height="1293" fill="white"/>
</clipPath>
</defs>
</svg>
