<svg width="375" height="1293" viewBox="0 0 375 1293" fill="none" xmlns="http://www.w3.org/2000/svg">
<g clip-path="url(#clip0)">
<path d="M100.487 148.84C94.979 133.994 91.5503 117.705 95.2268 102.306C99.2889 85.3154 111.641 71.4958 125.369 61.0232C172.311 25.2461 240.857 22.493 290.442 54.3833C296.645 58.2218 302.521 62.5455 308.013 67.3121C315.485 74.0858 321.672 82.105 326.285 90.997C330.816 99.7557 333.404 117.192 323.049 138.475C337.475 168.449 353.825 197.496 372.001 225.441L319.015 247.587C319.015 247.587 319.166 303.136 303.469 324.229C293.83 337.145 275.53 340.519 260.217 336.254C244.905 331.989 232.058 321.49 220.216 310.693C194.742 287.44 177.529 260.476 155.291 234.712C133.053 208.949 112.37 181.229 100.487 148.84Z" fill="#2FAD74"/>
<path d="M297.739 231.879C294.731 230.992 291.926 229.544 289.477 227.615C286.322 224.793 284.331 220.936 283.882 216.772C283.433 212.609 284.556 208.429 287.04 205.023C290.099 201.394 294.272 198.828 298.937 197.708C304.422 196.27 310.191 196.231 315.695 197.594C321.2 198.957 326.258 201.677 330.388 205.495C334.223 208.91 336.771 213.494 337.617 218.505C337.991 221.003 337.678 223.553 336.71 225.893C335.742 228.232 334.153 230.276 332.109 231.812C324.026 237.21 306.304 234.632 297.739 231.879Z" fill="#ED603C"/>
<path d="M314.829 230.92C312.469 230.596 310.177 229.903 308.04 228.869C305.888 227.824 304.206 226.036 303.317 223.848C303.136 223.476 303.052 223.066 303.071 222.654C303.09 222.242 303.213 221.841 303.428 221.487C303.85 221.06 304.409 220.788 305.011 220.717C307.557 220.398 310.143 220.752 312.502 221.743C315.31 222.745 318.009 224.02 320.557 225.549C322.733 226.899 325.721 228.855 322.967 230.704C320.736 232.216 317.28 231.339 314.829 230.92Z" fill="black"/>
<path d="M302.155 160.358C304.408 148.806 287.457 135.924 264.293 131.585C241.13 127.246 220.526 133.093 218.273 144.646C216.02 156.198 232.972 169.081 256.135 173.42C279.299 177.759 299.902 171.911 302.155 160.358Z" fill="black"/>
<path d="M287.061 157.531C288.503 150.137 277.652 141.891 262.824 139.114C247.997 136.336 234.808 140.079 233.366 147.473C231.924 154.867 242.775 163.113 257.603 165.89C272.43 168.668 285.619 164.925 287.061 157.531Z" fill="white"/>
<path d="M261.828 166.547C265.919 166.547 269.236 163.296 269.236 159.286C269.236 155.276 265.919 152.025 261.828 152.025C257.736 152.025 254.419 155.276 254.419 159.286C254.419 163.296 257.736 166.547 261.828 166.547Z" fill="black"/>
<path d="M99.5349 100.701C87.8167 86.6658 76.9936 63.8041 79.7889 45.0991C84.4569 45.6389 89.6757 48.662 94.1647 50.295C99.4523 52.2383 104.96 54.0468 110.468 55.6257C115.494 56.9753 120.575 58.1629 125.532 59.7824C131.55 61.7663 137.925 60.3088 144.067 61.2804C149.962 62.0993 155.533 64.4267 160.219 68.0283C161.565 69.1118 162.781 70.3435 163.84 71.6991C164.746 72.9206 165.574 74.1962 166.319 75.5184C168.453 79.1352 170.587 82.4552 171.193 86.6658C171.744 90.6065 170.918 94.3988 170.918 98.3261C170.393 104.151 168.422 109.762 165.176 114.669C162.298 119.069 158.029 124.265 152.783 125.884C148.569 127.234 144.204 128.489 139.812 128.071C137.34 127.736 134.915 127.129 132.583 126.262C129.409 125.008 126.388 123.41 123.577 121.498C120.514 119.663 117.567 117.648 114.751 115.466C109.132 111.116 104.028 106.164 99.5349 100.701Z" fill="#ED603C"/>
<path d="M95.2392 50.6859C96.6162 36.2591 99.7695 28.9309 100.747 14.4905C96.809 20.4421 92.4853 25.449 88.5471 31.3601C86.8809 24.7742 82.4608 7.93164 82.4608 7.93164L80.9874 16.9063C80.2025 22.0076 79.6104 26.6906 78.7705 31.7515C73.6205 25.4895 61.2001 14.9224 61.2001 14.9224C61.2001 14.9224 63.9541 23.2762 69.462 36.7044C62.5955 34.0233 55.7748 31.1712 49 28.1482C55.2515 34.896 62.4394 41.6438 68.925 48.2702C68.925 48.2702 51.5474 51.4552 49.6472 51.6981C49.6472 51.6981 70.5361 58.1491 79.8583 59.998C80.2036 60.0613 80.5536 60.0974 80.9048 60.1059C83.4659 60.1774 86.0187 59.7886 88.4369 58.9588C90.083 58.4594 91.6129 57.6478 92.9397 56.5701C93.3798 56.0445 93.789 55.4948 94.1652 54.9236C94.6583 54.0954 94.9724 53.1767 95.0878 52.2245L95.2392 50.6859Z" fill="black"/>
<path d="M361.687 43.7901H362.389L359.291 98.1372C350.45 85.7127 342.693 72.5799 336.103 58.8783C335.084 75.1541 334.056 91.4298 333.018 107.706C323.396 94.8222 314.783 81.2427 307.255 67.0836C305.52 83.1975 303.757 99.4733 305.217 115.668L283.543 76.0313C280.356 88.8187 278.51 101.892 278.035 115.047C270.963 104.846 265.118 93.8778 260.616 82.3607C257.449 94.4259 254.888 106.626 252.933 118.961C244.242 105.383 237.479 90.7093 232.829 75.343C248.981 65.1943 265.739 59.4451 284.08 53.7499C284.08 53.7499 337.177 35.6117 362.362 43.7766" fill="black"/>
<path d="M304.627 306.261C329.829 297.025 346.699 280.206 342.307 268.694C337.916 257.181 313.925 255.335 288.723 264.57C263.521 273.805 246.651 290.625 251.042 302.137C255.434 313.649 279.425 315.496 304.627 306.261Z" fill="black"/>
<path d="M340.523 266.549C324.055 265.844 307.63 268.685 292.404 274.874C277.178 281.062 263.521 290.447 252.396 302.367C268.68 305.125 285.435 303.033 300.494 296.361C316.04 289.465 330.126 279.789 340.523 266.549Z" fill="white"/>
<path d="M311.301 266.495C313.05 274.067 312.155 281.746 306.785 286.199C301.414 290.653 292.078 292.326 286.13 290.126C284.37 289.538 282.743 288.621 281.338 287.427C279.662 285.707 278.231 283.773 277.083 281.678C277.428 279.66 278.202 277.735 279.355 276.028C280.508 274.321 282.014 272.872 283.775 271.772C290.009 267.712 297.584 266.125 304.967 267.332C305.471 267.476 306.006 267.476 306.509 267.332C306.887 267.142 307.238 266.907 307.556 266.63C308.754 265.726 309.952 266.388 311.301 266.495Z" fill="black"/>
<path d="M170.551 310.333C195.696 291.985 243.538 258.077 243.538 258.077L223.543 233.71L200.054 205.682L156.811 150.777C136.237 180.15 114.12 209.385 93.5454 238.758C116.058 261.197 139.576 287.492 162.103 309.931C162.993 311.007 164.198 311.791 165.556 312.178C167.381 312.566 169.093 311.401 170.551 310.333Z" fill="#EBFF00"/>
<path d="M116.385 159.828C119.387 161.093 122.463 162.183 125.596 163.092C129.593 164.214 133.21 166.371 136.071 169.339C144.727 178.229 152.842 186.165 158.337 197.759C161.072 203.55 163.497 209.671 163.613 216.045C163.729 222.42 161.304 229.176 156.002 232.833C151.255 236.11 145.075 236.503 139.889 239.03C125.338 246.142 124.19 265.698 117.391 280.149C115.572 284.035 112.85 287.997 108.645 289.127C104.439 290.257 100.259 288.327 96.5827 286.219C82.5586 278.161 70.8992 266.657 62.7449 252.834C59.1844 246.777 56.2947 240.135 56.0883 233.151C55.598 216.769 69.5563 198.458 77.1676 184.311C86.3914 167.041 97.0342 156.095 116.385 159.828Z" stroke="black" stroke-width="1.3" stroke-miterlimit="10"/>
</g>
<defs>
<clipPath id="clip0">
<rect width="375" height="1293" fill="white"/>
</clipPath>
</defs>
</svg>
