<svg width="375" height="1293" viewBox="0 0 375 1293" fill="none" xmlns="http://www.w3.org/2000/svg">
<g clip-path="url(#clip0)">
<path d="M129.125 653.475C142.76 639.432 160.152 629.741 177.283 620.253C188.89 613.814 200.873 607.278 214.052 605.816C235.014 603.503 255.788 614.897 269.209 631.181C282.629 647.465 289.69 668.016 294.54 688.539C306.823 740.797 306.329 795.246 293.102 847.273C284.767 879.889 270.928 912.016 247.104 935.803C223.279 959.59 188.181 973.787 155.313 966.544C132.146 961.437 112.304 946.531 95.4591 929.81C79.9317 914.559 66.5459 897.271 55.668 878.42C50.649 869.608 46.1638 860.044 46.1152 849.9C46.0545 840.165 50.1485 830.736 50.4976 820.977C50.8467 811.218 47.412 801.574 47.0873 791.736C46.8325 779.919 48.9356 768.169 53.2735 757.173C57.5412 746.71 64.3857 737.495 73.1705 730.387C80.0727 724.654 89.383 722.207 95.2072 715.087C110.15 696.813 111.514 671.616 129.125 653.475Z" fill="#EBFF00"/>
<path d="M44.4462 667.338C39.7887 664.931 34.6178 663.686 29.3748 663.709C16.7678 664.226 6.54627 675.656 4.03834 688.017C2.05995 697.814 3.98413 707.942 5.89828 717.751L13.7912 758.133C16.591 772.497 19.4475 787.028 25.5638 800.318C27.3611 804.242 31.864 808.642 35.2011 805.913C36.1316 805.025 36.7802 803.882 37.066 802.628C39.6085 794.324 38.0449 785.367 38.8189 776.707C39.9598 764.145 46.0273 753.003 53.6795 743.226C60.7165 734.256 74.9363 726.144 76.4898 715.247C79.1535 696.391 59.9016 674.685 44.4462 667.338Z" fill="black"/>
<path d="M293.818 800.789C301.497 788.479 288.103 766.262 263.902 751.165C239.7 736.069 213.857 733.811 206.178 746.121C198.499 758.431 211.893 780.649 236.094 795.745C260.296 810.841 286.139 813.099 293.818 800.789Z" fill="black"/>
<path d="M278.048 790.953C282.963 783.074 274.392 768.854 258.903 759.192C243.414 749.531 226.874 748.086 221.959 755.966C217.044 763.846 225.615 778.066 241.104 787.727C256.592 797.388 273.133 798.833 278.048 790.953Z" fill="white"/>
<path d="M228.06 774.553C232.674 776.336 237.861 774.042 239.644 769.428C241.428 764.814 239.133 759.627 234.519 757.844C229.905 756.06 224.719 758.355 222.935 762.969C221.152 767.583 223.446 772.769 228.06 774.553Z" fill="black"/>
<path d="M238.055 717.898C246.639 716.955 255.84 717.586 263.055 722.318C268.861 726.141 272.838 732.279 276.251 738.43C276.797 739.654 277.632 740.726 278.684 741.556C279.226 741.95 279.893 742.133 280.56 742.068C281.227 742.004 281.847 741.698 282.303 741.207C282.716 740.484 282.874 739.643 282.753 738.819C282.479 732.262 280.407 725.908 276.762 720.45C273.117 714.993 268.041 710.644 262.089 707.879C256.137 705.115 249.54 704.041 243.019 704.776C236.497 705.512 230.304 708.027 225.117 712.047C215.631 719.379 234.43 718.294 238.055 717.898Z" fill="#D597C3"/>
<path d="M244.518 697.54C253.106 696.587 262.317 697.222 269.518 701.96C275.328 705.772 279.305 711.911 282.718 718.062C283.264 719.285 284.099 720.358 285.151 721.188C285.693 721.582 286.36 721.764 287.027 721.7C287.694 721.636 288.314 721.329 288.771 720.839C289.18 720.116 289.342 719.278 289.231 718.455C288.953 711.9 286.878 705.548 283.232 700.093C279.587 694.638 274.511 690.291 268.561 687.527C262.611 684.763 256.015 683.689 249.495 684.422C242.976 685.155 236.783 687.667 231.595 691.683C222.098 699.01 240.893 697.936 244.518 697.54Z" fill="#D597C3"/>
<path d="M163.746 661.785C172.334 660.831 181.545 661.467 188.746 666.205C194.556 670.017 198.533 676.155 201.946 682.306C202.492 683.53 203.327 684.603 204.379 685.432C204.921 685.827 205.588 686.009 206.255 685.944C206.922 685.88 207.542 685.574 207.999 685.083C208.408 684.36 208.57 683.523 208.459 682.7C208.181 676.145 206.106 669.792 202.46 664.338C198.815 658.883 193.739 654.536 187.789 651.772C181.839 649.008 175.243 647.934 168.723 648.667C162.204 649.4 156.011 651.911 150.823 655.928C141.326 663.255 160.121 662.181 163.746 661.785Z" fill="#D597C3"/>
<path d="M197.798 794.6C197.552 795.786 196.997 796.887 196.188 797.79C195.779 798.235 195.254 798.557 194.672 798.72C194.09 798.883 193.474 798.881 192.893 798.713C192.375 798.467 191.914 798.116 191.538 797.682C191.163 797.249 190.881 796.742 190.711 796.194C189.288 792.682 189.732 788.677 190.842 785.052C191.893 781.327 193.291 777.71 195.019 774.247C195.904 777.139 196.719 780.307 197.45 783.284C198.499 786.969 198.618 790.857 197.798 794.6Z" fill="black"/>
<path d="M23.7738 719.466C23.6332 710.816 24.458 701.994 29.0777 695.099C32.6077 689.799 39.8851 685.765 46.8796 688.87C50.1193 690.48 52.811 693.011 54.6166 696.146C59.4941 704.005 59.9348 713.511 55.7355 720.385C52.4827 725.659 46.941 729.223 42.6343 733.738C35.872 740.836 33.7676 749.2 32.2946 758.695C23.8382 755.195 23.9094 726.244 23.7738 719.466Z" fill="white"/>
<path d="M66.9574 789.973C72.6028 803.822 83.5319 814.712 94.1828 825.191C94.6552 825.665 95.4141 826.371 96.3022 827.151C97.0152 827.776 97.8572 828.236 98.7683 828.498C99.6795 828.76 100.637 828.818 101.573 828.667C102.509 828.517 103.4 828.161 104.183 827.627C104.966 827.092 105.621 826.391 106.102 825.574C108.247 821.911 110.886 817.565 112.277 815.724C116.935 809.609 119.406 807.553 119.29 801.948C119.213 798.904 118.446 795.918 117.045 793.214L100.524 760.58C98.426 756.341 95.3761 752.644 91.6128 749.778C66.9758 731.356 60.8789 775.046 66.9574 789.973Z" fill="#ED603C"/>
<path d="M152.557 912.235C184.564 924.607 218.149 914.876 227.572 890.5C236.995 866.123 218.688 836.332 186.682 823.959C154.675 811.586 121.09 821.317 111.667 845.694C102.243 870.071 120.551 899.862 152.557 912.235Z" fill="#D597C3"/>
<path d="M196.363 809.67C207.644 814.407 217.522 821.2 224.512 831.319C225.632 832.881 226.66 834.493 227.607 836.158C232.647 844.987 235.302 854.976 235.31 865.143C235.318 875.31 232.678 885.303 227.651 894.14C222.624 902.977 215.383 910.353 206.64 915.542C197.897 920.731 187.954 923.554 177.789 923.733C175.958 924.14 174.104 924.436 172.237 924.622C170.402 924.824 168.556 924.922 166.71 924.913C161.748 925.156 156.794 924.298 152.202 922.401C150.661 921.79 149.156 921.091 147.695 920.306C140.945 916.337 133.721 913.234 126.195 911.072C109.023 906.219 112.365 883.692 109.362 869.164C109.148 867.237 108.992 865.379 108.95 863.445C108.6 847.621 114.547 832.305 125.484 820.863C126.803 819.492 128.19 818.189 129.64 816.958C133.831 812.775 139.654 808.483 145.811 809.673C148.728 810.012 151.499 811.134 153.831 812.919C161.945 821.859 172.76 812.346 180.992 808.608C184.058 807.422 187.385 807.078 190.628 807.61L196.363 809.67ZM162.081 904.1C170.394 903.04 177.667 898.107 186.009 898.952C188.231 899.264 190.43 899.447 192.55 899.586C209.635 900.485 223.489 895.267 227.564 884.726C230.083 878.209 228.39 870.623 223.531 863.221C222.522 861.688 221.425 860.214 220.247 858.807C218.137 856.571 215.95 854.536 213.162 854.053C207.43 853.277 201.881 851.49 196.774 848.774C195.137 847.922 193.553 846.995 191.996 846.029C174.336 842.03 157.589 839.125 142.979 828.367C141.432 828.135 139.869 828.031 138.305 828.053C136.646 828.157 135.033 828.342 133.464 828.61C130.565 829.364 127.807 830.581 125.296 832.215C122.795 833.851 120.687 836.021 119.125 838.57C117.1 841.843 115.948 845.581 115.779 849.427C115.61 853.272 116.43 857.097 118.161 860.535C118.814 861.929 119.541 863.288 120.338 864.606C126.827 880.262 142.377 889.248 153.248 901.511C154.62 902.529 156.179 903.267 157.835 903.685C159.231 903.976 160.655 904.115 162.081 904.1V904.1Z" fill="black"/>
<path d="M153.991 849.62C153.763 850.062 153.667 850.56 153.716 851.055C153.832 851.387 154.013 851.692 154.247 851.953C154.481 852.214 154.765 852.427 155.081 852.579C160.622 856.139 166.437 859.252 172.473 861.888C174.974 855.23 177.214 848.46 179.189 841.624C179.47 841.05 179.533 840.394 179.368 839.777C179.202 839.16 178.82 838.623 178.29 838.266C175.64 835.7 172.519 832.939 168.8 833.043C160.423 833.265 156.561 843.16 153.991 849.62Z" fill="white"/>
<path d="M195.355 865.613C195.218 866.091 194.951 866.521 194.583 866.856C194.275 867.024 193.936 867.129 193.586 867.165C193.237 867.201 192.884 867.167 192.548 867.065C186.053 865.974 179.656 864.365 173.417 862.255C176.044 855.647 178.94 849.13 182.087 842.747C182.314 842.155 182.699 841.636 183.201 841.247C183.758 840.956 184.384 840.824 185.011 840.867C188.698 840.75 192.854 840.803 195.536 843.381C201.597 849.184 197.788 859.099 195.355 865.613Z" fill="white"/>
<path d="M198.854 857.362C199.008 855.518 199.355 853.695 199.888 851.923C200.167 851.038 200.69 850.25 201.397 849.649C202.104 849.048 202.966 848.659 203.884 848.527C205.131 848.542 206.326 849.026 207.233 849.882C208.445 851.004 209.416 852.363 210.084 853.874C210.753 855.385 211.105 857.016 211.121 858.669C211.124 861.973 210.592 865.257 209.547 868.392C209.449 868.908 209.209 869.387 208.855 869.775C208.525 870.033 208.134 870.2 207.72 870.259C205.762 870.503 203.773 870.24 201.945 869.496C200.554 869.043 197.886 868.691 196.823 867.673C195.572 866.449 196.446 865.1 196.995 863.71C197.836 861.665 198.459 859.538 198.854 857.362V857.362Z" fill="white"/>
<path d="M150.186 832.298C151.37 831.173 152.789 830.324 154.34 829.812C155.118 829.569 155.939 829.496 156.748 829.599C157.557 829.702 158.334 829.979 159.026 830.41C159.361 830.622 159.65 830.902 159.874 831.23C160.098 831.559 160.252 831.93 160.326 832.321C160.354 833.061 160.187 833.796 159.842 834.452C157.799 839.235 155.483 843.876 153.184 848.535C153.049 848.86 152.848 849.155 152.595 849.4C152.24 849.61 151.837 849.728 151.424 849.742C151.011 849.756 150.602 849.667 150.232 849.482C147.939 848.844 145.941 847.423 144.586 845.466C141.825 840.987 146.987 835.14 150.186 832.298Z" fill="white"/>
<path d="M140.367 871.234C140.804 870.129 141.56 869.179 142.539 868.505C144.089 867.635 145.992 868.116 147.66 868.7C149.345 869.294 150.999 869.974 152.615 870.737C153.569 871.095 154.407 871.708 155.037 872.511C155.927 873.85 155.592 875.627 155.16 877.184C153.688 882.513 151.574 887.643 148.866 892.463C148.632 892.986 148.25 893.43 147.766 893.737C146.652 894.327 145.369 893.406 144.442 892.537C141.589 889.868 137.865 887.567 137.195 883.775C136.524 879.983 138.735 874.61 140.367 871.234Z" fill="white"/>
<path d="M156.594 876.915C156.798 876.369 157.082 875.857 157.437 875.395C157.928 874.91 158.54 874.565 159.209 874.397C159.878 874.229 160.58 874.243 161.242 874.438C162.558 874.853 163.788 875.505 164.869 876.362C165.461 876.698 165.946 877.193 166.272 877.791C166.523 878.677 166.433 879.625 166.021 880.449L159.678 898.332C159.09 899.853 158.425 901.575 156.915 902.12C155.405 902.666 153.318 901.689 152.047 900.36C151.104 899.376 148.687 897.495 148.543 896.14C148.371 894.544 150.213 891.82 150.847 890.402L156.594 876.915Z" fill="white"/>
<path d="M176.859 886.093C177.062 885.589 177.178 885.055 177.202 884.513C177.133 883.847 176.889 883.209 176.497 882.666C176.104 882.122 175.576 881.691 174.965 881.415C173.715 880.845 172.378 880.492 171.01 880.371C170.358 880.217 169.678 880.235 169.036 880.422C168.283 880.848 167.727 881.553 167.488 882.385L160.677 898.557C160.134 899.962 159.518 901.557 160.274 902.93C161.03 904.302 163.1 903.816 164.914 903.74C166.708 903.39 168.435 902.759 170.032 901.87C170.611 901.577 171.121 901.163 171.527 900.656C171.932 900.148 172.224 899.56 172.382 898.93L176.859 886.093Z" fill="white"/>
<path d="M175.603 893.427L178.041 886.429C178.17 885.944 178.399 885.491 178.713 885.099C179.373 884.537 180.223 884.249 181.088 884.293C182.171 884.252 183.255 884.305 184.328 884.453C185.963 884.684 187.779 885.326 188.406 886.843C188.739 887.984 188.694 889.201 188.278 890.314C187.605 892.967 186.906 895.623 186.18 898.256C186.143 898.525 186.044 898.782 185.89 899.006C185.448 899.49 184.676 899.35 184.033 899.223C180.939 898.622 178.281 899.658 175.361 900.459C173.558 900.977 174.002 899.546 174.266 898.142C174.59 896.539 175.037 894.962 175.603 893.427V893.427Z" fill="white"/>
<path d="M344.804 641.877L272.758 648.771L289.926 676.216L344.804 641.877Z" fill="black"/>
<path d="M310.556 587.133L272.838 648.902L255.67 621.458L310.556 587.133Z" fill="black"/>
<path d="M178.828 748.859C176.983 733.784 171.281 702.432 169.217 690.343L148.362 686.13C138.382 693.732 128.405 701.336 118.432 708.941C119.939 725.516 122.611 741.964 126.428 758.164L178.828 748.859Z" fill="black"/>
<path d="M107.437 725.849C107.549 714.215 111.691 702.98 119.157 694.057C123.672 689.019 128.884 684.653 134.634 681.089C143.314 675.375 153.159 670.319 162.196 672.38C165.491 673.218 168.564 674.762 171.203 676.906C181.849 685.137 187.803 699.724 188.842 715.095C189.881 730.465 186.39 746.561 180.666 761.527C178.143 768.054 175.139 774.662 170.411 779.512C161.031 789.143 146.972 789.365 137.087 783.31C122.346 774.273 107.456 746.276 107.437 725.849Z" stroke="#1D1D1B" stroke-width="2" stroke-miterlimit="10"/>
<path d="M310.943 745.598C321.414 731.201 342.053 722.331 357.4 731.408C369.52 738.575 374.185 754.708 371.469 768.542C368.753 782.377 360.062 794.245 350.551 804.607C343.438 812.383 335.376 820.213 333.108 830.549C331.82 836.409 328.433 847.67 328.433 847.67C328.433 847.67 321.14 852.225 316.836 853.032C311.013 854.191 304.2 854.677 299.9 850.545C295.389 846.222 295.807 838.986 296.577 832.795C298.682 815.742 302.151 798.28 302.966 781.116C303.557 768.661 301.649 755.921 310.943 745.598Z" fill="#2FAD74"/>
<path d="M352.168 770.628C353.65 765.12 354.191 752.299 350.665 747.826C347.14 743.353 335.828 741.647 330.514 743.749C325.866 745.562 321.292 752.429 318.8 756.785C316.348 761.235 314.801 766.136 314.248 771.203C313.593 776.374 317.148 784.37 317.839 789.555C319.308 800.507 314.303 812.705 313.61 820.255L315.519 821.1C318.443 816.969 328.614 799.877 336.948 792.21C343.129 786.393 349.945 778.891 352.168 770.628Z" fill="white"/>
<path d="M328.602 784.779C322.448 786.626 315.961 783.135 314.113 776.981C312.266 770.827 315.757 764.34 321.911 762.493C328.065 760.645 334.551 764.136 336.399 770.29C338.247 776.444 334.756 782.931 328.602 784.779Z" fill="black"/>
</g>
<defs>
<clipPath id="clip0">
<rect width="375" height="1293" fill="white"/>
</clipPath>
</defs>
</svg>
