<svg width="375" height="1293" viewBox="0 0 375 1293" fill="none" xmlns="http://www.w3.org/2000/svg">
<g clip-path="url(#clip0)">
<path d="M129.145 1237.99L54.6767 1139.9C47.4765 1130.43 40.2224 1120.85 35.3331 1109.98C27.6917 1092.88 26.3523 1073.4 27.3083 1054.34C27.8996 1042.46 29.4011 1030.37 34.3027 1019.28C39.2043 1008.18 47.9461 998.09 59.4003 993.679C81.548 985.137 104.354 999.556 127.56 1001.33C141.24 1002.35 155.844 999.043 168.327 1004.2C179.046 1008.64 186.008 1018.54 192.432 1028C219.947 1068.52 248.249 1111.23 252.321 1160.78C253.799 1178.84 251.949 1197.16 250.097 1215.36L246.826 1247.42C246.09 1254.65 244.43 1263.24 237.658 1266.44C234.718 1267.83 231.407 1267.85 228.21 1267.84C210.033 1267.77 189.864 1270.99 172.024 1269.25C153.351 1267.44 139.127 1251.96 129.145 1237.99Z" fill="#D597C3"/>
<path d="M33.8281 1119.69C34.3448 1114.69 36.7912 1108.33 42.3516 1106.72C46.7972 1105.44 50.4507 1108.08 53.1076 1110.73C56.656 1114.24 59.7634 1117.99 62.9176 1121.75C78.1595 1139.92 93.9083 1159.37 94.6774 1184.21C94.743 1186.28 94.3793 1188.9 92.2106 1190.16C91.4024 1190.59 90.5118 1190.84 89.605 1190.89C83.3366 1191.47 78.6647 1187.58 75.6463 1183.29C72.6279 1178.99 70.4503 1173.97 66.0258 1170.86C57.2515 1164.66 48.9314 1163.46 43.3401 1154.17C36.9391 1143.75 32.4577 1133.1 33.8281 1119.69Z" fill="#ED603C"/>
<path d="M134.064 1138.96C146.656 1129.96 149.569 1112.45 140.571 1099.86C131.572 1087.27 114.07 1084.36 101.477 1093.36C88.8852 1102.35 85.972 1119.86 94.9706 1132.45C103.969 1145.04 121.472 1147.95 134.064 1138.96Z" fill="black"/>
<path d="M118.855 1126.86C126.05 1121.72 127.715 1111.72 122.573 1104.52C117.431 1097.32 107.429 1095.66 100.234 1100.8C93.0382 1105.94 91.3735 1115.95 96.5155 1123.14C101.658 1130.34 111.659 1132 118.855 1126.86Z" fill="white"/>
<path d="M107.373 1115.38C109.771 1113.67 110.326 1110.33 108.612 1107.93C106.898 1105.54 103.564 1104.98 101.166 1106.69C98.7671 1108.41 98.2122 1111.74 99.9262 1114.14C101.64 1116.54 104.974 1117.09 107.373 1115.38Z" fill="black"/>
<path d="M150.15 1075.39L155.575 1079.77C155.393 1078.69 154.795 1079.02 155.575 1079.77C177.004 1100.21 194.331 1124.53 206.657 1151.47C207.517 1153.36 208.369 1155.3 209.108 1157.24C211.752 1164.2 207.624 1169.42 200.175 1168.68C191.757 1167.83 184.88 1165.94 176.025 1162.89C172.445 1161.7 169.223 1159.66 166.639 1156.94C164.304 1154.26 163.478 1149.91 165.793 1147.13C166.8 1145.93 169.572 1144.67 171.096 1145C187.504 1148.65 178.831 1140.79 175.802 1133.9C170.649 1122.15 165.332 1108.88 155.321 1086.8C153.609 1082.96 150.802 1079.54 150.123 1075.34C151.271 1075.68 149.78 1074.3 150.15 1075.39Z" fill="#EBFF00"/>
<path d="M27.9208 1127.23C34.987 1130.83 43.9409 1128.63 49.9384 1123.52C55.9359 1118.42 59.4039 1110.93 61.6906 1103.37C63.6853 1096.73 64.9116 1089.71 63.8679 1082.84C61.2855 1065.88 43.0834 1052.93 26.3264 1056.12C22.7547 1056.79 19.1764 1058.16 16.6005 1060.74C12.4621 1064.87 11.5693 1071.22 10.906 1077.07C9.03926 1094.22 9.7381 1117.96 27.9208 1127.23Z" stroke="#1D1D1B" stroke-width="2" stroke-miterlimit="10"/>
<path d="M141.183 1152.69C142.413 1152.54 143.66 1152.65 144.845 1153.01C146.014 1153.55 146.96 1154.48 147.525 1155.64C150.315 1160.36 150.995 1166.16 151.333 1171.92C152.764 1194.27 150.481 1217.32 148.204 1240.26C148.208 1241.14 147.897 1241.98 147.328 1242.64C146.579 1243.22 145.651 1243.53 144.703 1243.51L104.376 1247.02C102.363 1247.19 100.25 1247.36 98.5971 1246.57C96.5818 1245.63 95.6608 1243.5 94.8672 1241.5C89.6446 1228.46 84.4249 1215.42 79.2081 1202.37C77.0684 1197.04 74.9125 1191.55 75.052 1185.48C75.1701 1180.88 76.6188 1176.13 76.5979 1171.55C76.5847 1167.14 71.6774 1158.71 75.163 1156.44C78.9887 1153.94 93.3126 1155.43 97.8438 1155.18L141.183 1152.69Z" fill="#2FAD74"/>
<path d="M42.0162 1022.67C43.484 1030.71 46.1979 1039.12 52.6117 1044.19C54.9684 1045.93 57.5334 1047.37 60.2442 1048.46C65.6227 1050.85 71.5361 1052.93 77.2389 1051.63C75.0368 1043.73 70.0085 1036.97 63.7832 1031.62C57.5579 1026.27 50.1112 1023.63 42.0162 1022.67Z" fill="#ED603C"/>
<path d="M60.8543 1017.41C66.5411 1018.04 72.0359 1019.94 76.9369 1022.96C81.8378 1025.99 86.0207 1030.06 89.1796 1034.9C84.0471 1034.3 76.9118 1033.7 72.4993 1030.85C70.0399 1029.18 67.8163 1027.17 65.8912 1024.9C64.8739 1023.74 63.9348 1022.52 63.0804 1021.24C62.7848 1020.8 61.1799 1017.45 60.8543 1017.41Z" fill="#ED603C"/>
<path d="M89.9783 1013C87.7914 1011.09 85.5208 1009.29 83.1667 1007.6C80.1841 1005.45 76.9763 1003.41 73.3888 1002.73C68.3214 1001.76 63.1999 1003.59 58.6411 1005.87C61.4807 1009.32 65.3157 1011.8 69.5917 1012.94C73.9318 1013.95 78.3755 1014.36 82.7987 1014.16C85.2521 1014.22 87.6865 1013.83 89.9783 1013V1013Z" fill="#ED603C"/>
<path d="M115.576 1025.87C110.878 1028.34 105.56 1029.22 100.489 1028.38C95.4178 1027.54 90.8929 1025.01 87.6519 1021.22C92.7223 1019.66 97.9184 1018.27 102.82 1019.75C104.875 1020.37 106.867 1021.14 108.778 1022.07C111.056 1023.16 113.392 1024.61 115.576 1025.87Z" fill="#ED603C"/>
<path d="M129.374 1016.79L131.99 1016.03C125.892 1017.14 119.575 1016.87 113.491 1015.22C107.407 1013.56 101.708 1010.58 96.8018 1006.49C101.187 1006.35 105.133 1005.68 109.555 1005.78C111.938 1005.72 114.331 1006 116.662 1006.62C122.826 1008.53 127.21 1014.65 133.414 1016.41C132.53 1016.6 130.255 1016.58 129.374 1016.79Z" fill="#ED603C"/>
<path d="M93.296 1058.28C92.2889 1057.42 91.4172 1056.42 90.7093 1055.3L81.3134 1042.16L91.8454 1043.58C93.6235 1043.76 95.3739 1044.13 97.0668 1044.68C98.79 1045.39 100.423 1046.3 101.935 1047.38L119.617 1059.07C112.931 1058.73 98.7949 1062.54 93.296 1058.28Z" fill="#ED603C"/>
<path d="M59.8431 1055.86C64.5277 1058.85 70.6133 1058.96 75.0776 1062.29C77.658 1064.21 79.4252 1067.03 81.1331 1069.76C83.7637 1073.99 86.717 1078.2 88.9736 1082.61C83.1283 1082.69 77.2245 1080.98 72.7796 1077C69.7305 1074.13 67.0985 1070.83 64.9656 1067.22C63.6335 1065.02 61.5695 1056.97 59.8431 1055.86Z" fill="#ED603C"/>
<path d="M118.322 1035.28C119.622 1035.14 120.931 1035.14 122.227 1035.27C123.696 1035.51 125.132 1035.91 126.512 1036.45L146.139 1043.39C138.653 1045.15 130.952 1046.93 123.384 1045.83C118.835 1045.15 114.465 1043.48 110.179 1041.8C106.557 1040.39 102.894 1039.02 99.2891 1037.51C105.587 1037.87 111.982 1035.53 118.322 1035.28Z" fill="#ED603C"/>
<path d="M267.309 1114.26L171.665 1031.72L164.735 1042.78L167.612 1056.08C207.065 1126.36 185.616 1086.54 207.065 1126.36C207.046 1126.33 250.045 1118.69 267.309 1114.26Z" fill="black"/>
<path d="M191.478 1183.2C209.379 1180.64 225.389 1192.59 228.079 1209.78C230.768 1226.96 219.129 1242.95 201.212 1245.49L197.984 1245.95C179.739 1248.58 163.986 1236.58 161.284 1219.32C158.582 1202.06 169.99 1186.26 188.24 1183.65L191.478 1183.2ZM199.565 1230.46C215.344 1228.2 227.27 1219.07 225.864 1210.09C224.457 1201.11 210.291 1195.79 194.493 1198.07L189.889 1198.74C174.026 1201.01 162.098 1210.15 163.489 1219.04C164.88 1227.92 179.092 1233.41 194.962 1231.13L199.565 1230.46Z" fill="black"/>
</g>
<defs>
<clipPath id="clip0">
<rect width="375" height="1293" fill="white"/>
</clipPath>
</defs>
</svg>
