<svg width="375" height="1293" viewBox="0 0 375 1293" fill="none" xmlns="http://www.w3.org/2000/svg">
<g clip-path="url(#clip0)">
<path d="M272.043 936.122L279.453 970.849L311.657 944.371C311.657 944.371 333.275 939.076 355.406 915.473C355.806 916.775 356.29 917.849 356.45 918.96C357.799 928.275 357.045 937.334 354.223 946.272C350.938 956.681 332.437 981.447 332.437 981.447C334.172 981.284 340.196 982.262 346.152 980.681C354.827 979.118 368.856 972.189 368.856 972.189L355.221 1001.44L327.595 1020.54L329.241 1036.4C329.241 1036.4 340.432 1041.24 346.644 1039.3C351.853 1037.67 360.556 1026.47 360.556 1026.47C360.214 1026.3 360.906 1026.64 360.556 1026.47C360.556 1026.47 353.343 1049.54 349.446 1055.2C341.79 1066.32 332.156 1075.39 318.864 1079.82C311.025 1082.44 302.905 1083.14 294.738 1082.05C288.298 1081.2 281.746 1080.08 275.613 1077.97C263.962 1073.95 253.278 1068.09 244.68 1058.8C240.303 1054.05 236.371 1049.11 233.316 1043.45C227.793 1033.24 225.594 1022.35 226.059 1010.96C226.686 995.537 242.719 970.958 242.719 970.958L272.043 936.122Z" fill="#ED603C"/>
<path d="M262.637 1019.86C268.837 1016.43 274.727 1012.31 279.501 1007.06C284.274 1001.8 287.954 995.424 289.255 988.468C279.644 993.946 271.622 1001.83 265.979 1011.35C265.035 1012.96 264.22 1014.64 263.544 1016.38C263.132 1017.58 263.016 1018.67 262.637 1019.86Z" fill="white"/>
<path d="M283.374 1002.25C280.062 1002.95 276.785 1004.19 274.249 1006.38C271.714 1008.57 269.941 1011.8 270.157 1015.17C272.236 1013.73 274.23 1012.16 276.128 1010.48C278.9 1008.06 281.34 1005.28 283.386 1002.22L283.374 1002.25Z" fill="black"/>
<path d="M280.63 1020.24C285.677 1009.96 293.231 1001.11 302.594 994.519C310.186 989.195 318.613 985.206 326.992 981.24C322.241 989.269 315.978 996.291 309.022 1002.47C304.279 1006.64 299.301 1010.52 294.112 1014.11C291.519 1015.93 288.874 1017.71 286.223 1019.44C283.677 1021.11 281.179 1022.79 278.708 1024.56C279.298 1023.1 279.938 1021.66 280.63 1020.24Z" fill="white"/>
<path d="M316.029 995.685L314.774 995.459C314.774 995.459 312.02 995.91 310.483 996.363C302.734 998.635 296.409 1006.09 294.402 1013.92C294.402 1013.92 299.44 1010.34 301.276 1008.87C306.108 1005.01 311.282 1001.25 315.249 996.507C315.374 996.357 316.029 995.685 316.029 995.685V995.685Z" fill="black"/>
<path d="M306.047 1045.49C311.492 1039.41 318.75 1035.37 326.622 1033.25C334.221 1031.2 342.138 1030.84 349.986 1031.47C343.967 1036.87 336.198 1042.47 327.913 1044.88C319.761 1047.29 311.349 1048.7 302.859 1049.08L306.047 1045.49Z" fill="white"/>
<path d="M324.741 1041.94C324.337 1041.94 320.392 1042.29 319.994 1042.2C319.102 1041.98 317.464 1041.61 316.581 1041.34C315.158 1040.93 313.476 1040.63 312.936 1039.25C319.273 1035.22 326.46 1032.72 333.929 1031.95V1031.95C333.2 1034.17 332.002 1036.21 330.416 1037.93C328.829 1039.65 326.891 1041.01 324.734 1041.92" fill="black"/>
<path d="M320.792 1017.38C316.96 1021.23 314.451 1025.13 310.058 1027.52C305.666 1029.9 301.754 1031.11 296.97 1032.52C299.155 1027.99 302.882 1023.79 307.534 1021.88C313.581 1019.42 315.989 1018.87 320.792 1017.38Z" fill="white"/>
<path d="M309.193 1021.23C309.787 1022.03 309.6 1023.04 309.218 1023.96C308.28 1026.23 305.925 1027.61 303.568 1028.3C302.233 1028.74 300.805 1028.8 299.434 1028.5C301.839 1025.11 305.255 1022.56 309.193 1021.23V1021.23Z" fill="black"/>
<path d="M275.611 1032.4C276.923 1031.77 278.311 1031.31 279.74 1031.04C283.865 1030.07 288.001 1029.21 292.148 1028.45C288.805 1031.86 285.397 1035.33 281.114 1038.04C276.572 1040.93 271.013 1043.1 265.832 1044.65C267.583 1041.42 271.648 1034.49 275.611 1032.4Z" fill="white"/>
<path d="M284.051 1035.98C283.267 1035.03 282.14 1034.43 280.914 1034.3C279.723 1034.21 278.527 1034.38 277.411 1034.8C273.609 1036.11 270.359 1039.47 269.671 1043.44C274.129 1042.03 279.842 1039.34 284.051 1035.98Z" fill="black"/>
</g>
<defs>
<clipPath id="clip0">
<rect width="375" height="1293" fill="white"/>
</clipPath>
</defs>
</svg>
