<svg width="375" height="1293" viewBox="0 0 375 1293" fill="none" xmlns="http://www.w3.org/2000/svg">
<g clip-path="url(#clip0)">
<path d="M74.4653 442.298L118.082 430.343L236.749 559.69L41.9385 626.506L74.4653 442.298Z" fill="#ED603C"/>
<path d="M118.243 429.984L74.2482 442.519L0 329.492L31.8323 343.656L24.8268 292.733L49.4251 329.492L58.3348 292.733L74.2482 335.448L87.0006 292.733L98.8156 354.247L113.536 292.733L118.243 364.814L137.99 291L118.243 429.984Z" fill="#EBFF00"/>
<path d="M165.65 438.854C187.295 431.479 210.896 425.565 233.21 420.572C219.53 428.435 204.893 436.362 191.213 444.225C189.899 444.185 189.58 446.32 190.572 447.173C191.575 448.022 193.046 447.916 194.348 447.779C213.194 445.612 231.325 445.414 250.171 443.247C232.655 452.189 214.639 460.518 195.73 465.89C215.134 467.941 234.298 472.248 253.702 474.299C251.042 474.026 245.838 477.125 243.247 478.027C239.392 479.362 235.526 480.675 231.644 481.917C223.883 484.413 216.044 486.696 208.123 488.613C192.378 492.431 176.382 493.934 160.351 495.956C168.933 497.746 177.79 498.198 186.502 497.3C190.102 496.932 193.679 496.328 197.299 496.275C210.146 496.06 222.099 502.638 232.636 509.985C228.961 510.152 225.543 511.479 221.891 511.817C217.441 512.229 212.999 512.69 208.552 513.049C199.631 513.766 190.69 514.258 181.746 514.441C163.872 514.812 145.947 513.961 128.265 511.306C128.101 511.287 127.932 511.256 127.779 511.232C96.1014 506.411 64.9829 495.553 39 476.802C52.2694 476.456 63.4869 472.902 76.7563 472.556C91.3595 472.176 106.319 471.72 119.904 466.362C136.119 459.98 150.355 447.209 165.65 438.854Z" fill="black"/>
<path d="M170.575 414.326C167.377 419.122 165.043 424.504 163.714 430.111C163.422 431.352 163.154 432.648 162.379 433.671C161.799 434.428 160.993 434.96 160.197 435.486C152.135 440.758 144.22 446.665 135.827 451.38C140.004 438.795 149.672 428.108 160.329 420.479C163.45 418.258 166.968 415.695 170.575 414.326Z" fill="#1D1D1B"/>
<path d="M90.1583 490.758C96.9584 494.63 103.863 498.534 111.446 500.472C121.724 503.095 132.544 501.944 143.071 500.596C138.208 493.537 130.783 488.523 122.795 485.438C114.806 482.354 106.224 481.07 97.6891 480.375C93.9921 480.071 81.9483 478.46 79.3045 481.992C76.9652 485.119 87.8175 489.426 90.1583 490.758Z" fill="#EBFF00"/>
<path d="M135.604 478.77C140.985 483.167 148.005 485.154 154.939 485.597C161.873 486.039 168.806 485.044 175.675 484.049C170.788 480.644 165.846 477.199 160.306 475.037C157.186 473.822 153.932 473.016 150.672 472.225C145.309 470.92 139.952 469.599 134.588 468.293C124.558 465.822 132.503 476.225 135.604 478.77Z" fill="#EBFF00"/>
<path d="M165.867 469.318C176.162 469.977 186.324 472.78 195.508 477.486C189.645 478.497 184.247 480.371 178.424 478.513C173.397 476.906 168.88 473.665 165.867 469.318Z" fill="#EBFF00"/>
<path d="M177.307 508.39C170.481 510.649 163.374 510.346 156.657 507.774C154.794 507.064 152.878 506.054 151.963 504.272C160.863 503.746 169.16 504.791 177.307 508.39Z" fill="#EBFF00"/>
<path d="M168.845 464.165C176.402 464.22 183.967 461.991 190.284 457.839C183.245 454.732 175.176 454.574 167.657 456.161C160.154 457.754 153.115 460.988 146.347 464.518C154.03 463.158 161.058 464.117 168.845 464.165Z" fill="#EBFF00"/>
<path d="M112.181 477.047C115.88 477.713 119.678 477.531 123.439 477.353C122.29 473.598 119.716 470.293 116.337 468.27C116.13 468.152 115.708 467.895 115.46 467.833C115.46 467.833 115.005 467.979 114.528 468.134C112.142 468.883 109.174 469.573 107.066 470.033C105.551 470.366 101.923 470.941 101.923 470.941C102.934 473.99 109.496 476.565 112.181 477.047Z" fill="#EBFF00"/>
<path d="M124.752 486.249C123.649 487.025 121.87 488.484 120.778 489.255C118.772 490.669 116.701 492.112 114.323 492.728C110.091 493.824 105.687 492.129 101.644 490.458C101.098 487.376 100.327 483.652 99.7921 480.565C101.737 480.655 108.464 481.486 110.421 481.934C116.888 483.422 122.015 484.751 124.752 486.249Z" fill="white"/>
<path d="M157.138 473.945C157.081 473.905 157.218 473.833 157.247 473.898C157.275 473.964 157.218 474.04 157.162 474.091C155.613 475.423 154.075 476.751 152.531 478.095C152.24 478.351 151.917 478.621 151.536 478.669C151.267 478.708 150.989 478.634 150.726 478.566C148.784 478.034 146.846 477.512 144.904 476.98C144.684 476.92 144.447 476.854 144.275 476.695C144.052 476.481 143.99 476.158 143.948 475.852C143.678 474.063 143.435 472.366 143.165 470.577C143.207 470.494 143.305 470.451 143.395 470.477C144.37 470.664 145.248 470.984 146.231 471.128C146.701 471.196 147.18 471.313 147.653 471.419C150.912 472.145 154.006 472.762 157.138 473.945Z" fill="white"/>
<path d="M177.566 434.997C177.566 434.997 177.37 437.507 177.262 437.346C176.182 439.163 174.982 440.253 173.583 441.871C171.485 444.298 168.459 446.141 165.338 446.898C162.217 447.655 157.456 446.633 155.03 445.312C155.03 445.312 164.951 438.08 170.299 437.136C171.482 436.935 173.235 436.343 173.235 436.343L177.566 434.997Z" fill="#EBFF00"/>
<path d="M169.86 437.288C169.902 437.205 169.902 437.205 169.902 437.205C169.954 437.234 169.945 437.303 169.942 437.356C169.7 438.862 169.451 440.382 169.209 441.888C169.167 442.178 169.107 442.489 168.914 442.703C168.773 442.855 168.592 442.946 168.396 443.031C167.028 443.676 165.672 444.316 164.305 444.96C164.141 445.031 163.982 445.113 163.807 445.098C163.579 445.081 163.385 444.931 163.212 444.773C162.201 443.876 161.176 442.946 160.169 442.06C160.169 442.06 160.269 441.991 160.314 441.945C160.791 441.492 161.427 440.983 162.061 440.591C162.369 440.406 163.153 439.911 163.461 439.725C165.516 438.484 167.281 437.589 169.86 437.288Z" fill="white"/>
<path d="M207.062 507.965C205.424 508.195 203.474 508.483 201.837 508.713C199.92 508.987 198.067 508.96 196.132 508.982C191.333 509.04 186.394 506.799 182.527 503.95C182.616 503.976 183.826 503.776 183.904 503.807C187.321 503.104 192.225 502.482 198.075 503.057C204.451 503.677 209.49 505.46 212.818 506.947C211.591 506.987 208.292 507.782 207.062 507.965Z" fill="#EBFF00"/>
</g>
<defs>
<clipPath id="clip0">
<rect width="375" height="1293" fill="white"/>
</clipPath>
</defs>
</svg>
