<svg width="375" height="1293" viewBox="0 0 375 1293" fill="none" xmlns="http://www.w3.org/2000/svg">
<g clip-path="url(#clip0)">
<path d="M17 20L17 647" stroke="black" stroke-width="0.7"/>
<path d="M17 646.068L17 1273.07" stroke="black" stroke-width="0.7"/>
<path d="M164.418 124.738L357.324 241.89" stroke="black" stroke-width="0.7"/>
<path d="M164.418 750.807L357.324 867.958" stroke="black"/>
<path d="M164.045 241.521L16.4845 125.148" stroke="black" stroke-width="0.7"/>
<path d="M164.045 867.59L16.4845 751.217" stroke="black" stroke-width="0.7"/>
<path d="M358 20L358 647" stroke="black" stroke-width="0.7"/>
<path d="M358 646.068L358 1273.07" stroke="black" stroke-width="0.7"/>
<path d="M164 20L164 647" stroke="black" stroke-width="0.7"/>
<path d="M164 646.068L164 1273.07" stroke="black" stroke-width="0.7"/>
<path d="M16.6621 124.612L357.602 124.612" stroke="black" stroke-width="0.7"/>
<path d="M16.6621 750.681L357.602 750.681" stroke="black" stroke-width="0.7"/>
<path d="M238 647L238 20" stroke="black" stroke-width="0.7"/>
<path d="M238 1273.07L238 646.068" stroke="black" stroke-width="0.7"/>
<path d="M357.695 354.694L164.417 459.283" stroke="black" stroke-width="0.7"/>
<path d="M357.695 980.763L164.417 1085.35" stroke="black" stroke-width="0.7"/>
<path d="M164.418 459.243L358 576.646" stroke="black" stroke-width="0.7"/>
<path d="M164.418 1085.31L358 1202.71" stroke="black" stroke-width="0.7"/>
<path d="M164.045 576.025L17 459.732" stroke="black" stroke-width="0.7"/>
<path d="M164.045 1202.09L17 1085.8" stroke="black" stroke-width="0.7"/>
<path d="M16.6602 459.117L357.6 459.117" stroke="black" stroke-width="0.7"/>
<path d="M16.6602 1085.19L357.6 1085.19" stroke="black" stroke-width="0.7"/>
<path d="M17 576L357.939 576" stroke="black" stroke-width="0.7"/>
<path d="M17 1202.07L357.939 1202.07" stroke="black" stroke-width="0.7"/>
<path d="M16.5645 354.661L358 354.706" stroke="black" stroke-width="0.7"/>
<path d="M16.5645 980.729L358 980.774" stroke="black" stroke-width="0.7"/>
<path d="M17 242L358 242" stroke="black" stroke-width="0.7"/>
<path d="M17 868.068L358 868.068" stroke="black" stroke-width="0.7"/>
</g>
<defs>
<clipPath id="clip0">
<rect width="375" height="1293" fill="white"/>
</clipPath>
</defs>
</svg>
