<svg width="78" height="153" viewBox="0 0 78 153" fill="none" xmlns="http://www.w3.org/2000/svg">
<path d="M1.762 42.047H2.714V51.231H7.446V42.047H8.398V51.231H13.13V42.047H14.082V52.043H1.762V42.047Z" fill="black"/>
<path d="M20.2898 52.239C19.5058 52.239 18.8151 52.099 18.2178 51.819C17.6298 51.5297 17.1398 51.147 16.7478 50.671C16.3558 50.195 16.0618 49.6444 15.8658 49.019C15.6698 48.3937 15.5718 47.7357 15.5718 47.045C15.5718 46.3637 15.6698 45.7104 15.8658 45.085C16.0618 44.4504 16.3558 43.895 16.7478 43.419C17.1398 42.9337 17.6298 42.551 18.2178 42.271C18.8151 41.9817 19.5058 41.837 20.2898 41.837C21.0738 41.837 21.7598 41.9817 22.3478 42.271C22.9358 42.551 23.4258 42.9337 23.8178 43.419C24.2098 43.895 24.5038 44.4504 24.6998 45.085C24.8958 45.7104 24.9938 46.3637 24.9938 47.045C24.9938 47.7357 24.8958 48.3937 24.6998 49.019C24.5038 49.6444 24.2098 50.195 23.8178 50.671C23.4258 51.147 22.9358 51.5297 22.3478 51.819C21.7598 52.099 21.0738 52.239 20.2898 52.239ZM20.2898 51.441C20.9431 51.441 21.5078 51.315 21.9838 51.063C22.4598 50.811 22.8471 50.4797 23.1458 50.069C23.4538 49.649 23.6778 49.1777 23.8178 48.655C23.9671 48.1324 24.0418 47.5957 24.0418 47.045C24.0418 46.5037 23.9671 45.9717 23.8178 45.449C23.6778 44.917 23.4538 44.4457 23.1458 44.035C22.8471 43.615 22.4598 43.279 21.9838 43.027C21.5078 42.775 20.9431 42.649 20.2898 42.649C19.6271 42.649 19.0578 42.775 18.5818 43.027C18.1058 43.279 17.7138 43.615 17.4058 44.035C17.1071 44.4457 16.8831 44.917 16.7338 45.449C16.5938 45.9717 16.5238 46.5037 16.5238 47.045C16.5238 47.5957 16.5938 48.1324 16.7338 48.655C16.8831 49.1777 17.1071 49.649 17.4058 50.069C17.7138 50.4797 18.1058 50.811 18.5818 51.063C19.0578 51.315 19.6271 51.441 20.2898 51.441Z" fill="black"/>
<path d="M26.4807 42.047H27.4327V47.423L33.2427 42.047H34.5307L30.0647 46.177L34.7407 52.043H33.5087L29.3507 46.835L27.4327 48.613V52.043H26.4807V42.047Z" fill="black"/>
<path d="M36.3709 45.099V41.963H37.3929V45.099L37.1969 49.509H36.5669L36.3709 45.099ZM36.3709 52.043V50.811H37.3929V52.043H36.3709Z" fill="black"/>
<path d="M1.762 62.047H2.714V71.021L8.454 62.047H9.686V72.043H8.734V63.069L2.994 72.043H1.762V62.047Z" fill="black"/>
<path d="M11.7015 62.047H12.6535V66.387H18.5895V62.047H19.5415V72.043H18.5895V67.199H12.6535V72.043H11.7015L11.7015 62.047Z" fill="black"/>
<path d="M25.7449 72.239C24.9609 72.239 24.2702 72.099 23.6729 71.819C23.0849 71.5297 22.5949 71.147 22.2029 70.671C21.8109 70.195 21.5169 69.6444 21.3209 69.019C21.1249 68.3937 21.0269 67.7357 21.0269 67.045C21.0269 66.3637 21.1249 65.7104 21.3209 65.085C21.5169 64.4504 21.8109 63.895 22.2029 63.419C22.5949 62.9337 23.0849 62.551 23.6729 62.271C24.2702 61.9817 24.9609 61.837 25.7449 61.837C26.5289 61.837 27.2149 61.9817 27.8029 62.271C28.3909 62.551 28.8809 62.9337 29.2729 63.419C29.6649 63.895 29.9589 64.4504 30.1549 65.085C30.3509 65.7104 30.4489 66.3637 30.4489 67.045C30.4489 67.7357 30.3509 68.3937 30.1549 69.019C29.9589 69.6444 29.6649 70.195 29.2729 70.671C28.8809 71.147 28.3909 71.5297 27.8029 71.819C27.2149 72.099 26.5289 72.239 25.7449 72.239ZM25.7449 71.441C26.3982 71.441 26.9629 71.315 27.4389 71.063C27.9149 70.811 28.3022 70.4797 28.6009 70.069C28.9089 69.649 29.1329 69.1777 29.2729 68.655C29.4222 68.1324 29.4969 67.5957 29.4969 67.045C29.4969 66.5037 29.4222 65.9717 29.2729 65.449C29.1329 64.917 28.9089 64.4457 28.6009 64.035C28.3022 63.615 27.9149 63.279 27.4389 63.027C26.9629 62.775 26.3982 62.649 25.7449 62.649C25.0822 62.649 24.5129 62.775 24.0369 63.027C23.5609 63.279 23.1689 63.615 22.8609 64.035C22.5622 64.4457 22.3382 64.917 22.1889 65.449C22.0489 65.9717 21.9789 66.5037 21.9789 67.045C21.9789 67.5957 22.0489 68.1324 22.1889 68.655C22.3382 69.1777 22.5622 69.649 22.8609 70.069C23.1689 70.4797 23.5609 70.811 24.0369 71.063C24.5129 71.315 25.0822 71.441 25.7449 71.441Z" fill="black"/>
<path d="M31.9358 62.047H39.6358V72.043H38.6838V62.859H32.8878V72.043H31.9358V62.047Z" fill="black"/>
<path d="M41.4045 72.127C41.3485 72.127 41.2785 72.1224 41.1945 72.113C41.1199 72.1037 41.0405 72.0944 40.9565 72.085C40.8725 72.0757 40.7979 72.0617 40.7325 72.043C40.6672 72.0337 40.6205 72.0244 40.5925 72.015V71.203C40.6672 71.2404 40.7792 71.2684 40.9285 71.287C41.0872 71.2964 41.2039 71.301 41.2785 71.301C41.3812 71.301 41.5025 71.2917 41.6425 71.273C41.7825 71.245 41.9272 71.161 42.0765 71.021C42.2352 70.8717 42.3892 70.643 42.5385 70.335C42.6972 70.0177 42.8325 69.5697 42.9445 68.991C43.0659 68.403 43.1639 67.661 43.2385 66.765C43.3132 65.869 43.3505 64.7677 43.3505 63.461V62.047H49.4965V72.043H48.5445V62.859H44.2745V63.405C44.2745 64.861 44.2279 66.0884 44.1345 67.087C44.0412 68.0764 43.9152 68.8977 43.7565 69.551C43.5979 70.195 43.4159 70.6944 43.2105 71.049C43.0145 71.3944 42.8092 71.6464 42.5945 71.805C42.3892 71.9637 42.1792 72.057 41.9645 72.085C41.7592 72.113 41.5725 72.127 41.4045 72.127Z" fill="black"/>
<path d="M54.44 62.047H55.504L59.424 72.043H58.402L57.184 68.935H52.6339L51.43 72.043H50.422L54.44 62.047ZM56.8619 68.123L54.93 62.999L52.928 68.123H56.8619Z" fill="black"/>
<path d="M60.3323 62.047H61.2843V66.387H67.2203V62.047H68.1723V72.043H67.2203V67.199H61.2843V72.043H60.3323V62.047Z" fill="black"/>
<path d="M1.762 82.047H8.664V82.859H2.714V86.471H8.286V87.283H2.714V91.231H8.734V92.043H1.762V82.047Z" fill="black"/>
<path d="M13.1548 87.969V88.837H9.61283V87.969H13.1548Z" fill="black"/>
<path d="M17.1309 82.859H13.6589V82.047H21.5689V82.859H18.0829V92.043H17.1309V82.859Z" fill="black"/>
<path d="M24.9662 87.703C24.5556 87.6844 24.1729 87.6097 23.8182 87.479C23.4729 87.3484 23.1696 87.1664 22.9082 86.933C22.6562 86.6997 22.4556 86.4197 22.3062 86.093C22.1662 85.757 22.0962 85.3697 22.0962 84.931C22.0962 84.483 22.1662 84.0817 22.3062 83.727C22.4462 83.3724 22.6469 83.0737 22.9082 82.831C23.1789 82.579 23.4962 82.3877 23.8602 82.257C24.2336 82.117 24.6536 82.047 25.1202 82.047H29.3062V92.043H28.3542V87.759H26.1142L22.7822 92.043H21.5502L24.9662 87.703ZM28.3542 86.947V82.859H25.3302C24.6302 82.859 24.0749 83.0457 23.6642 83.419C23.2536 83.783 23.0482 84.287 23.0482 84.931C23.0482 85.575 23.2536 86.0743 23.6642 86.429C24.0749 86.7743 24.6302 86.947 25.3302 86.947H28.3542Z" fill="black"/>
<path d="M31.3206 82.047H32.2726V86.387H38.2086V82.047H39.1606V92.043H38.2086V87.199H32.2726V92.043H31.3206V82.047Z" fill="black"/>
<path d="M41.178 82.047H48.08V82.859H42.13V86.471H47.702V87.283H42.13V91.231H48.15V92.043H41.178V82.047Z" fill="black"/>
<path d="M5.29 112.253C4.674 112.253 4.11866 112.178 3.624 112.029C3.12933 111.87 2.70933 111.646 2.364 111.357C2.028 111.058 1.76666 110.699 1.58 110.279C1.40266 109.85 1.314 109.369 1.314 108.837V108.753H2.224C2.224 109.677 2.50866 110.363 3.078 110.811C3.64733 111.259 4.408 111.483 5.36 111.483C5.78 111.483 6.158 111.422 6.494 111.301C6.83 111.17 7.11 110.998 7.334 110.783C7.56733 110.568 7.74467 110.321 7.866 110.041C7.99666 109.752 8.062 109.448 8.062 109.131C8.062 108.842 8.00133 108.58 7.88 108.347C7.768 108.104 7.60933 107.899 7.404 107.731C7.19866 107.563 6.956 107.432 6.676 107.339C6.40533 107.246 6.11133 107.199 5.794 107.199H4.198V106.387H5.794C6.05533 106.387 6.30733 106.35 6.55 106.275C6.79266 106.2 7.00733 106.093 7.194 105.953C7.38066 105.804 7.52533 105.622 7.628 105.407C7.74 105.183 7.796 104.926 7.796 104.637C7.796 104.292 7.73066 103.993 7.6 103.741C7.47866 103.489 7.31066 103.284 7.096 103.125C6.88133 102.957 6.62466 102.836 6.326 102.761C6.02733 102.677 5.71 102.635 5.374 102.635C4.982 102.635 4.618 102.682 4.282 102.775C3.946 102.868 3.652 103.013 3.4 103.209C3.15733 103.396 2.96133 103.634 2.812 103.923C2.672 104.203 2.588 104.53 2.56 104.903H1.636C1.664 104.39 1.77133 103.942 1.958 103.559C2.154 103.176 2.41533 102.859 2.742 102.607C3.06866 102.346 3.45133 102.154 3.89 102.033C4.338 101.902 4.82333 101.837 5.346 101.837C5.81266 101.837 6.25133 101.893 6.662 102.005C7.082 102.108 7.446 102.271 7.754 102.495C8.062 102.719 8.30467 103.004 8.482 103.349C8.65933 103.685 8.748 104.086 8.748 104.553C8.748 104.814 8.706 105.062 8.622 105.295C8.538 105.519 8.426 105.724 8.286 105.911C8.146 106.088 7.98733 106.242 7.81 106.373C7.63266 106.504 7.45533 106.602 7.278 106.667V106.709C7.81 106.849 8.23 107.12 8.538 107.521C8.85533 107.913 9.014 108.445 9.014 109.117C9.014 109.425 8.94866 109.761 8.818 110.125C8.69666 110.489 8.49133 110.83 8.202 111.147C7.91267 111.464 7.53 111.73 7.054 111.945C6.578 112.15 5.99 112.253 5.29 112.253Z" fill="black"/>
<path d="M13.4653 102.047H14.5293L18.4493 112.043H17.4273L16.2093 108.935H11.6593L10.4553 112.043H9.44734L13.4653 102.047ZM15.8873 108.123L13.9553 102.999L11.9533 108.123H15.8873Z" fill="black"/>
<path d="M21.7797 106.891L18.3917 102.047H19.5117L22.3397 106.233L25.2657 102.047H26.3297L22.9137 106.919L26.5257 112.043H25.3777L22.3397 107.633L19.2597 112.043H18.1957L21.7797 106.891Z" fill="black"/>
<path d="M27.3968 102.047H31.6248C32.0448 102.047 32.4461 102.089 32.8288 102.173C33.2208 102.248 33.5614 102.383 33.8508 102.579C34.1494 102.766 34.3874 103.018 34.5648 103.335C34.7421 103.643 34.8308 104.03 34.8308 104.497C34.8308 104.758 34.7888 105.015 34.7048 105.267C34.6208 105.51 34.4994 105.734 34.3408 105.939C34.1914 106.135 34.0094 106.303 33.7948 106.443C33.5894 106.583 33.3561 106.681 33.0948 106.737V106.765C33.7388 106.849 34.2521 107.115 34.6348 107.563C35.0174 108.002 35.2088 108.548 35.2088 109.201C35.2088 109.444 35.1714 109.728 35.0968 110.055C35.0314 110.372 34.8774 110.68 34.6348 110.979C34.3921 111.278 34.0328 111.53 33.5568 111.735C33.0808 111.94 32.4368 112.043 31.6248 112.043H27.3968V102.047ZM31.6248 111.231C31.9794 111.231 32.3154 111.203 32.6328 111.147C32.9501 111.082 33.2301 110.97 33.4728 110.811C33.7154 110.652 33.9068 110.442 34.0468 110.181C34.1868 109.92 34.2568 109.584 34.2568 109.173C34.2568 108.529 34.0281 108.048 33.5708 107.731C33.1228 107.404 32.4741 107.241 31.6248 107.241H28.3488V111.231H31.6248ZM31.6248 106.429C31.9981 106.429 32.3248 106.387 32.6048 106.303C32.8941 106.21 33.1321 106.088 33.3188 105.939C33.5054 105.78 33.6454 105.598 33.7388 105.393C33.8321 105.188 33.8788 104.968 33.8788 104.735C33.8788 103.484 33.1274 102.859 31.6248 102.859H28.3488V106.429H31.6248Z" fill="black"/>
<path d="M39.6607 102.047H40.7247L44.6447 112.043H43.6227L42.4047 108.935H37.8547L36.6507 112.043H35.6427L39.6607 102.047ZM42.0827 108.123L40.1507 102.999L38.1487 108.123H42.0827Z" fill="black"/>
<path d="M47.961 102.859H44.489V102.047H52.399V102.859H48.913V112.043H47.961V102.859Z" fill="black"/>
<path d="M53.3323 102.047H54.2843V111.021L60.0243 102.047H61.2563V112.043H60.3043V103.069L54.5643 112.043H53.3323V102.047Z" fill="black"/>
<path d="M66.3658 107.969V108.837H62.8238V107.969H66.3658Z" fill="black"/>
<path d="M1.51 132.127C1.454 132.127 1.384 132.122 1.3 132.113C1.22533 132.104 1.146 132.094 1.062 132.085C0.977998 132.076 0.903331 132.062 0.837998 132.043C0.772665 132.034 0.725998 132.024 0.697998 132.015L0.697998 131.203C0.772665 131.24 0.884665 131.268 1.034 131.287C1.19266 131.296 1.30933 131.301 1.384 131.301C1.48666 131.301 1.608 131.292 1.748 131.273C1.888 131.245 2.03266 131.161 2.182 131.021C2.34066 130.872 2.49466 130.643 2.644 130.335C2.80266 130.018 2.938 129.57 3.05 128.991C3.17133 128.403 3.26933 127.661 3.344 126.765C3.41866 125.869 3.456 124.768 3.456 123.461V122.047H9.602V132.043H8.65V122.859H4.38V123.405C4.38 124.861 4.33333 126.088 4.24 127.087C4.14666 128.076 4.02066 128.898 3.862 129.551C3.70333 130.195 3.52133 130.694 3.316 131.049C3.12 131.394 2.91466 131.646 2.7 131.805C2.49466 131.964 2.28466 132.057 2.07 132.085C1.86466 132.113 1.678 132.127 1.51 132.127Z" fill="black"/>
<path d="M11.6194 122.047H12.5714V131.021L18.3114 122.047H19.5434V132.043H18.5914V123.069L12.8514 132.043H11.6194V122.047Z" fill="black"/>
<path d="M1.734 142.047H3.134L6.592 150.811L10.036 142.047H11.436V152.043H10.484V143.405H10.456L7.04 152.043H6.144L2.714 143.405H2.686V152.043H1.734V142.047Z" fill="black"/>
<path d="M17.6101 152.239C16.8261 152.239 16.1354 152.099 15.5381 151.819C14.9501 151.53 14.4601 151.147 14.0681 150.671C13.6761 150.195 13.3821 149.644 13.1861 149.019C12.9901 148.394 12.8921 147.736 12.8921 147.045C12.8921 146.364 12.9901 145.71 13.1861 145.085C13.3821 144.45 13.6761 143.895 14.0681 143.419C14.4601 142.934 14.9501 142.551 15.5381 142.271C16.1354 141.982 16.8261 141.837 17.6101 141.837C18.3941 141.837 19.0801 141.982 19.6681 142.271C20.2561 142.551 20.7461 142.934 21.1381 143.419C21.5301 143.895 21.8241 144.45 22.0201 145.085C22.2161 145.71 22.3141 146.364 22.3141 147.045C22.3141 147.736 22.2161 148.394 22.0201 149.019C21.8241 149.644 21.5301 150.195 21.1381 150.671C20.7461 151.147 20.2561 151.53 19.6681 151.819C19.0801 152.099 18.3941 152.239 17.6101 152.239ZM17.6101 151.441C18.2634 151.441 18.8281 151.315 19.3041 151.063C19.7801 150.811 20.1674 150.48 20.4661 150.069C20.7741 149.649 20.9981 149.178 21.1381 148.655C21.2874 148.132 21.3621 147.596 21.3621 147.045C21.3621 146.504 21.2874 145.972 21.1381 145.449C20.9981 144.917 20.7741 144.446 20.4661 144.035C20.1674 143.615 19.7801 143.279 19.3041 143.027C18.8281 142.775 18.2634 142.649 17.6101 142.649C16.9474 142.649 16.3781 142.775 15.9021 143.027C15.4261 143.279 15.0341 143.615 14.7261 144.035C14.4274 144.446 14.2034 144.917 14.0541 145.449C13.9141 145.972 13.8441 146.504 13.8441 147.045C13.8441 147.596 13.9141 148.132 14.0541 148.655C14.2034 149.178 14.4274 149.649 14.7261 150.069C15.0341 150.48 15.4261 150.811 15.9021 151.063C16.3781 151.315 16.9474 151.441 17.6101 151.441Z" fill="black"/>
<path d="M28.0431 152.239C27.2591 152.239 26.5684 152.099 25.9711 151.819C25.3831 151.53 24.8931 151.147 24.5011 150.671C24.1091 150.195 23.8151 149.644 23.6191 149.019C23.4231 148.394 23.3251 147.736 23.3251 147.045C23.3251 146.364 23.4231 145.71 23.6191 145.085C23.8151 144.45 24.1091 143.895 24.5011 143.419C24.8931 142.934 25.3831 142.551 25.9711 142.271C26.5684 141.982 27.2591 141.837 28.0431 141.837C28.5191 141.837 28.9811 141.907 29.4291 142.047C29.8864 142.187 30.2971 142.397 30.6611 142.677C31.0344 142.948 31.3424 143.284 31.5851 143.685C31.8371 144.086 31.9957 144.548 32.0611 145.071H31.1091C31.0251 144.688 30.8851 144.348 30.6891 144.049C30.5024 143.741 30.2691 143.484 29.9891 143.279C29.7184 143.074 29.4151 142.92 29.0791 142.817C28.7524 142.705 28.4071 142.649 28.0431 142.649C27.3804 142.649 26.8111 142.775 26.3351 143.027C25.8591 143.279 25.4671 143.615 25.1591 144.035C24.8604 144.446 24.6364 144.917 24.4871 145.449C24.3471 145.972 24.2771 146.504 24.2771 147.045C24.2771 147.596 24.3471 148.132 24.4871 148.655C24.6364 149.178 24.8604 149.649 25.1591 150.069C25.4671 150.48 25.8591 150.811 26.3351 151.063C26.8111 151.315 27.3804 151.441 28.0431 151.441C28.5004 151.441 28.9157 151.357 29.2891 151.189C29.6717 151.021 29.9984 150.792 30.2691 150.503C30.5397 150.214 30.7591 149.878 30.9271 149.495C31.0951 149.103 31.2024 148.683 31.2491 148.235H32.2011C32.1357 148.851 31.9911 149.406 31.7671 149.901C31.5431 150.396 31.2537 150.816 30.8991 151.161C30.5444 151.506 30.1244 151.772 29.6391 151.959C29.1631 152.146 28.6311 152.239 28.0431 152.239Z" fill="black"/>
<path d="M33.6585 142.047H34.6105V147.423L40.4205 142.047H41.7085L37.2425 146.177L41.9185 152.043H40.6865L36.5285 146.835L34.6105 148.613V152.043H33.6585V142.047Z" fill="black"/>
<path d="M42.7366 142.047H46.9646C47.3846 142.047 47.7859 142.089 48.1686 142.173C48.5606 142.248 48.9013 142.383 49.1906 142.579C49.4893 142.766 49.7273 143.018 49.9046 143.335C50.0819 143.643 50.1706 144.03 50.1706 144.497C50.1706 144.758 50.1286 145.015 50.0446 145.267C49.9606 145.51 49.8393 145.734 49.6806 145.939C49.5313 146.135 49.3493 146.303 49.1346 146.443C48.9293 146.583 48.6959 146.681 48.4346 146.737V146.765C49.0786 146.849 49.5919 147.115 49.9746 147.563C50.3573 148.002 50.5486 148.548 50.5486 149.201C50.5486 149.444 50.5113 149.728 50.4366 150.055C50.3713 150.372 50.2173 150.68 49.9746 150.979C49.7319 151.278 49.3726 151.53 48.8966 151.735C48.4206 151.94 47.7766 152.043 46.9646 152.043H42.7366V142.047ZM46.9646 151.231C47.3193 151.231 47.6553 151.203 47.9726 151.147C48.2899 151.082 48.5699 150.97 48.8126 150.811C49.0553 150.652 49.2466 150.442 49.3866 150.181C49.5266 149.92 49.5966 149.584 49.5966 149.173C49.5966 148.529 49.3679 148.048 48.9106 147.731C48.4626 147.404 47.8139 147.241 46.9646 147.241H43.6886V151.231H46.9646ZM46.9646 146.429C47.3379 146.429 47.6646 146.387 47.9446 146.303C48.2339 146.21 48.4719 146.088 48.6586 145.939C48.8453 145.78 48.9853 145.598 49.0786 145.393C49.1719 145.188 49.2186 144.968 49.2186 144.735C49.2186 143.484 48.4673 142.859 46.9646 142.859H43.6886V146.429H46.9646Z" fill="black"/>
<path d="M52.9985 152.155C52.7745 152.155 52.5692 152.141 52.3825 152.113C52.2052 152.085 52.0652 152.052 51.9625 152.015V151.175C52.0838 151.222 52.2285 151.264 52.3965 151.301C52.5645 151.329 52.7605 151.343 52.9845 151.343C53.3392 151.343 53.6332 151.231 53.8665 151.007C54.1092 150.783 54.3425 150.433 54.5665 149.957L54.6925 149.691L50.9825 142.047H52.0045L55.2525 148.683L58.4165 142.047H59.4245L55.4905 150.195C55.2852 150.624 55.0845 150.97 54.8885 151.231C54.6925 151.483 54.4918 151.679 54.2865 151.819C54.0905 151.959 53.8852 152.048 53.6705 152.085C53.4652 152.132 53.2412 152.155 52.9985 152.155Z" fill="black"/>
<path d="M61.117 145.099V141.963H62.139V145.099L61.943 149.509H61.313L61.117 145.099ZM61.117 152.043V150.811H62.139V152.043H61.117Z" fill="black"/>
<path d="M1.79778 11.2366L1.79778 1.15662L8.29378 1.15662V1.96862H2.74978V5.60862H7.78978V6.42062H2.74978V11.2366H1.79778Z" fill="black"/>
<path d="M10.0111 11.2366V1.15662H10.9631V11.2366H10.0111Z" fill="black"/>
<path d="M17.4776 5.84662C17.8322 5.84662 18.1589 5.80929 18.4576 5.73462C18.7656 5.65996 19.0316 5.54329 19.2556 5.38462C19.4796 5.21662 19.6569 5.00662 19.7876 4.75462C19.9182 4.50262 19.9836 4.19929 19.9836 3.84462C19.9836 3.47129 19.9136 3.16329 19.7736 2.92062C19.6429 2.67796 19.4609 2.48662 19.2276 2.34662C19.0036 2.20662 18.7422 2.10862 18.4436 2.05262C18.1542 1.99662 17.8509 1.96862 17.5336 1.96862H14.5096V5.84662H17.4776ZM14.5096 6.65862V11.2366H13.5576V1.15662L17.5056 1.15662C18.6162 1.15662 19.4656 1.36662 20.0536 1.78662C20.6416 2.19729 20.9356 2.86929 20.9356 3.80262C20.9356 4.43729 20.8049 4.94129 20.5436 5.31462C20.2916 5.68796 19.8762 6.00529 19.2976 6.26662C19.5962 6.36929 19.8296 6.51862 19.9976 6.71462C20.1656 6.91062 20.2916 7.13462 20.3756 7.38662C20.4596 7.63862 20.5109 7.90462 20.5296 8.18462C20.5576 8.46462 20.5762 8.73529 20.5856 8.99662C20.5949 9.37929 20.6089 9.69662 20.6276 9.94862C20.6556 10.2006 20.6836 10.406 20.7116 10.5646C20.7489 10.7233 20.7909 10.8493 20.8376 10.9426C20.8842 11.0266 20.9402 11.092 21.0056 11.1386V11.2366H19.9556C19.8529 11.0686 19.7782 10.8353 19.7316 10.5366C19.6942 10.238 19.6616 9.92529 19.6336 9.59863C19.6149 9.27196 19.5962 8.95462 19.5776 8.64663C19.5682 8.33862 19.5449 8.08662 19.5076 7.89062C19.4516 7.61996 19.3582 7.40529 19.2276 7.24662C19.1062 7.07862 18.9569 6.95262 18.7796 6.86862C18.6022 6.78462 18.4016 6.72862 18.1776 6.70062C17.9629 6.67262 17.7389 6.65862 17.5056 6.65862H14.5096Z" fill="black"/>
<path d="M22.9095 11.2366V1.15662L29.6154 1.15662V1.96862H23.8615V5.60862H29.0555V6.42062H23.8615V10.4246L29.7555 10.4246V11.2366H22.9095Z" fill="black"/>
<path d="M31.762 11.2366V10.0046H32.784V11.2366H31.762Z" fill="black"/>
<path d="M35.3225 11.2366V1.15662L39.0045 1.15662C39.6579 1.15662 40.1945 1.23129 40.6145 1.38062C41.0439 1.52996 41.3799 1.73529 41.6225 1.99662C41.8745 2.25796 42.0472 2.56129 42.1405 2.90662C42.2432 3.24262 42.2945 3.59729 42.2945 3.97062C42.2945 4.53062 42.1779 4.99263 41.9445 5.35663C41.7205 5.72063 41.4265 6.00996 41.0625 6.22463C40.6985 6.42996 40.2832 6.57462 39.8165 6.65862C39.3592 6.74262 38.8972 6.78462 38.4305 6.78462H36.2745V11.2366H35.3225ZM38.4585 5.97262C38.9065 5.97262 39.3079 5.94462 39.6625 5.88862C40.0172 5.83262 40.3159 5.72996 40.5585 5.58063C40.8105 5.42196 41.0019 5.21196 41.1325 4.95062C41.2725 4.67996 41.3425 4.32996 41.3425 3.90062C41.3425 3.26596 41.1325 2.78529 40.7125 2.45862C40.3019 2.13196 39.6439 1.96862 38.7385 1.96862H36.2745V5.97262H38.4585Z" fill="black"/>
<path d="M47.8291 5.84662C48.1838 5.84662 48.5105 5.80929 48.8091 5.73462C49.1171 5.65996 49.3831 5.54329 49.6071 5.38462C49.8311 5.21662 50.0085 5.00662 50.1391 4.75462C50.2698 4.50263 50.3351 4.19929 50.3351 3.84463C50.3351 3.47129 50.2651 3.16329 50.1251 2.92062C49.9945 2.67796 49.8125 2.48662 49.5791 2.34662C49.3551 2.20662 49.0938 2.10862 48.7951 2.05262C48.5058 1.99662 48.2025 1.96862 47.8851 1.96862L44.8611 1.96862V5.84662H47.8291ZM44.8611 6.65862V11.2366H43.9091V1.15662L47.8571 1.15662C48.9678 1.15662 49.8171 1.36662 50.4051 1.78663C50.9931 2.19729 51.2871 2.86929 51.2871 3.80262C51.2871 4.43729 51.1565 4.94129 50.8951 5.31463C50.6431 5.68796 50.2278 6.00529 49.6491 6.26662C49.9478 6.36929 50.1811 6.51862 50.3491 6.71462C50.5171 6.91062 50.6431 7.13463 50.7271 7.38663C50.8111 7.63863 50.8625 7.90463 50.8811 8.18463C50.9091 8.46463 50.9278 8.73529 50.9371 8.99662C50.9465 9.37929 50.9605 9.69662 50.9791 9.94862C51.0071 10.2006 51.0351 10.406 51.0631 10.5646C51.1005 10.7233 51.1425 10.8493 51.1891 10.9426C51.2358 11.0266 51.2918 11.092 51.3571 11.1386V11.2366H50.3071C50.2045 11.0686 50.1298 10.8353 50.0831 10.5366C50.0458 10.238 50.0131 9.92529 49.9851 9.59863C49.9665 9.27196 49.9478 8.95462 49.9291 8.64663C49.9198 8.33862 49.8965 8.08662 49.8591 7.89062C49.8031 7.61996 49.7098 7.40529 49.5791 7.24662C49.4578 7.07863 49.3085 6.95263 49.1311 6.86863C48.9538 6.78463 48.7531 6.72862 48.5291 6.70062C48.3145 6.67262 48.0905 6.65862 47.8571 6.65862H44.8611Z" fill="black"/>
<path d="M53.261 11.2366V1.15662L59.967 1.15662V1.96862L54.213 1.96862V5.60862H59.407V6.42063H54.213V10.4246H60.107V11.2366H53.261Z" fill="black"/>
<path d="M62.2116 8.22663C62.2489 8.67463 62.3469 9.05729 62.5056 9.37463C62.6736 9.68263 62.8836 9.93462 63.1356 10.1306C63.3969 10.3266 63.6956 10.4713 64.0316 10.5646C64.3676 10.6486 64.7269 10.6906 65.1096 10.6906C65.5576 10.6906 65.9449 10.6346 66.2716 10.5226C66.5983 10.4106 66.8643 10.2613 67.0696 10.0746C67.2749 9.87863 67.4243 9.65463 67.5176 9.40263C67.6203 9.15063 67.6716 8.88463 67.6716 8.60463C67.6716 8.21263 67.5829 7.89529 67.4056 7.65263C67.2283 7.40996 66.9949 7.21396 66.7056 7.06463C66.4256 6.90596 66.0989 6.77996 65.7256 6.68663C65.3616 6.59329 64.9836 6.50463 64.5916 6.42063C64.2089 6.32729 63.8309 6.21996 63.4576 6.09863C63.0936 5.97729 62.7669 5.81396 62.4776 5.60862C62.1976 5.40329 61.9689 5.14196 61.7916 4.82462C61.6143 4.49796 61.5256 4.08729 61.5256 3.59263C61.5256 3.24729 61.5956 2.91129 61.7356 2.58462C61.8849 2.25796 62.0996 1.96862 62.3796 1.71663C62.6689 1.46463 63.0283 1.26396 63.4576 1.11462C63.8869 0.965292 64.3816 0.890625 64.9416 0.890625C65.5109 0.890625 66.0056 0.969958 66.4256 1.12862C66.8549 1.28729 67.2096 1.50662 67.4896 1.78663C67.7696 2.05729 67.9796 2.37462 68.1196 2.73862C68.2596 3.10262 68.3296 3.48996 68.3296 3.90062H67.4196C67.4196 3.51796 67.3496 3.18663 67.2096 2.90663C67.0789 2.62663 66.8969 2.39796 66.6636 2.22062C66.4303 2.04329 66.1643 1.91262 65.8656 1.82862C65.5669 1.74462 65.2589 1.70262 64.9416 1.70262C64.4563 1.70262 64.0456 1.77262 63.7096 1.91263C63.3829 2.04329 63.1216 2.21596 62.9256 2.43063C62.7296 2.64529 62.5943 2.88329 62.5196 3.14463C62.4449 3.40596 62.4309 3.66729 62.4776 3.92863C62.5336 4.25529 62.6643 4.51663 62.8696 4.71263C63.0749 4.90863 63.3269 5.07196 63.6256 5.20262C63.9243 5.32396 64.2509 5.42663 64.6056 5.51063C64.9696 5.58529 65.3383 5.66929 65.7116 5.76262C66.0849 5.84662 66.4443 5.94929 66.7896 6.07063C67.1443 6.19196 67.4569 6.35529 67.7276 6.56063C67.9983 6.76596 68.2129 7.03196 68.3716 7.35863C68.5396 7.67596 68.6236 8.07729 68.6236 8.56262C68.6236 9.49596 68.3016 10.2193 67.6576 10.7326C67.0136 11.246 66.1083 11.5026 64.9416 11.5026C64.4189 11.5026 63.9336 11.4326 63.4856 11.2926C63.0376 11.162 62.6503 10.9613 62.3236 10.6906C61.9969 10.4106 61.7403 10.07 61.5536 9.66862C61.3763 9.25796 61.2876 8.77729 61.2876 8.22663H62.2116Z" fill="black"/>
<path d="M70.7702 8.22663C70.8075 8.67463 70.9055 9.05729 71.0642 9.37463C71.2322 9.68263 71.4422 9.93463 71.6942 10.1306C71.9555 10.3266 72.2542 10.4713 72.5902 10.5646C72.9262 10.6486 73.2855 10.6906 73.6682 10.6906C74.1162 10.6906 74.5035 10.6346 74.8302 10.5226C75.1569 10.4106 75.4229 10.2613 75.6282 10.0746C75.8335 9.87863 75.9829 9.65463 76.0762 9.40263C76.1789 9.15063 76.2302 8.88463 76.2302 8.60463C76.2302 8.21263 76.1415 7.89529 75.9642 7.65263C75.7869 7.40996 75.5535 7.21396 75.2642 7.06463C74.9842 6.90596 74.6575 6.77996 74.2842 6.68663C73.9202 6.59329 73.5422 6.50463 73.1502 6.42063C72.7675 6.32729 72.3895 6.21996 72.0162 6.09863C71.6522 5.97729 71.3255 5.81396 71.0362 5.60863C70.7562 5.40329 70.5275 5.14196 70.3502 4.82462C70.1729 4.49796 70.0842 4.08729 70.0842 3.59263C70.0842 3.24729 70.1542 2.91129 70.2942 2.58462C70.4435 2.25796 70.6582 1.96862 70.9382 1.71663C71.2275 1.46463 71.5869 1.26396 72.0162 1.11462C72.4455 0.965292 72.9402 0.890625 73.5002 0.890625C74.0695 0.890625 74.5642 0.969958 74.9842 1.12862C75.4135 1.28729 75.7682 1.50662 76.0482 1.78663C76.3282 2.05729 76.5382 2.37462 76.6782 2.73862C76.8182 3.10263 76.8882 3.48996 76.8882 3.90062H75.9782C75.9782 3.51796 75.9082 3.18663 75.7682 2.90663C75.6375 2.62663 75.4555 2.39796 75.2222 2.22062C74.9889 2.04329 74.7229 1.91262 74.4242 1.82862C74.1255 1.74462 73.8175 1.70262 73.5002 1.70262C73.0149 1.70262 72.6042 1.77262 72.2682 1.91263C71.9415 2.04329 71.6802 2.21596 71.4842 2.43063C71.2882 2.64529 71.1529 2.88329 71.0782 3.14463C71.0035 3.40596 70.9895 3.66729 71.0362 3.92863C71.0922 4.25529 71.2229 4.51663 71.4282 4.71263C71.6335 4.90863 71.8855 5.07196 72.1842 5.20263C72.4829 5.32396 72.8095 5.42663 73.1642 5.51063C73.5282 5.58529 73.8969 5.66929 74.2702 5.76262C74.6435 5.84662 75.0029 5.94929 75.3482 6.07063C75.7029 6.19196 76.0155 6.35529 76.2862 6.56063C76.5569 6.76596 76.7715 7.03196 76.9302 7.35863C77.0982 7.67596 77.1822 8.07729 77.1822 8.56263C77.1822 9.49596 76.8602 10.2193 76.2162 10.7326C75.5722 11.246 74.6669 11.5026 73.5002 11.5026C72.9775 11.5026 72.4922 11.4326 72.0442 11.2926C71.5962 11.162 71.2089 10.9613 70.8822 10.6906C70.5555 10.4106 70.2989 10.07 70.1122 9.66862C69.9349 9.25796 69.8462 8.77729 69.8462 8.22663H70.7702Z" fill="black"/>
<path d="M0.985779 21.1566H8.32178V21.9686H5.12978V31.2366L4.17778 31.2366L4.17778 21.9686H0.985779V21.1566Z" fill="black"/>
<path d="M13.9591 26.8406V26.0286H18.2711V31.2366H17.4591V29.5146C17.2817 29.8133 17.0764 30.0886 16.8431 30.3406C16.6191 30.5833 16.3577 30.7933 16.0591 30.9706C15.7604 31.1386 15.4151 31.2693 15.0231 31.3626C14.6311 31.456 14.1877 31.5026 13.6931 31.5026C13.0584 31.5026 12.4704 31.3906 11.9291 31.1666C11.3877 30.9426 10.9211 30.6113 10.5291 30.1726C10.1371 29.7246 9.82908 29.1646 9.60508 28.4926C9.39041 27.8206 9.28308 27.0366 9.28308 26.1406C9.28308 25.4033 9.37641 24.7173 9.56308 24.0826C9.74974 23.4386 10.0344 22.8833 10.4171 22.4166C10.8091 21.9406 11.2944 21.5673 11.8731 21.2966C12.4611 21.026 13.1517 20.8906 13.9451 20.8906C14.4771 20.8906 14.9717 20.956 15.4291 21.0866C15.8957 21.2173 16.3111 21.418 16.6751 21.6886C17.0484 21.95 17.3611 22.2813 17.6131 22.6826C17.8651 23.0746 18.0471 23.5413 18.1591 24.0826H17.1791C17.0951 23.7093 16.9504 23.3733 16.7451 23.0746C16.5491 22.776 16.3111 22.5286 16.0311 22.3326C15.7511 22.1273 15.4384 21.9733 15.0931 21.8706C14.7477 21.7586 14.3884 21.7026 14.0151 21.7026C13.3524 21.7026 12.7831 21.8193 12.3071 22.0526C11.8311 22.286 11.4391 22.6173 11.1311 23.0466C10.8231 23.4666 10.5944 23.9753 10.4451 24.5726C10.3051 25.1606 10.2351 25.8093 10.2351 26.5186C10.2351 27.0786 10.3144 27.6106 10.4731 28.1146C10.6411 28.6186 10.8791 29.062 11.1871 29.4446C11.5044 29.8273 11.8871 30.1306 12.3351 30.3546C12.7924 30.5786 13.3104 30.6906 13.8891 30.6906C14.1597 30.6906 14.4397 30.6626 14.7291 30.6066C15.0184 30.5413 15.2984 30.4386 15.5691 30.2986C15.8397 30.1586 16.0917 29.9766 16.3251 29.7526C16.5584 29.5286 16.7591 29.2533 16.9271 28.9266C17.0857 28.6093 17.1931 28.278 17.2491 27.9326C17.3144 27.5873 17.3517 27.2233 17.3611 26.8406H13.9591Z" fill="black"/>
<path d="M20.8656 31.2366V30.0046H21.8876V31.2366H20.8656ZM20.8656 25.5806V24.3486H21.8876V25.5806H20.8656Z" fill="black"/>
<path d="M27.24 26.4066C26.8947 26.4066 26.5774 26.4486 26.288 26.5326C25.9987 26.6166 25.7467 26.7473 25.532 26.9246C25.3174 27.0926 25.1494 27.312 25.028 27.5826C24.9067 27.844 24.846 28.1566 24.846 28.5206C24.846 28.8286 24.902 29.1133 25.014 29.3746C25.1354 29.636 25.2987 29.8646 25.504 30.0606C25.7187 30.2473 25.9754 30.3966 26.274 30.5086C26.582 30.6206 26.9227 30.6766 27.296 30.6766C27.6227 30.6766 27.926 30.6253 28.206 30.5226C28.486 30.4106 28.7287 30.2566 28.934 30.0606C29.1487 29.8646 29.312 29.6313 29.424 29.3606C29.5454 29.09 29.606 28.7913 29.606 28.4646C29.606 28.1193 29.5454 27.8206 29.424 27.5686C29.3027 27.3073 29.1347 27.0926 28.92 26.9246C28.7054 26.7473 28.4534 26.6166 28.164 26.5326C27.8747 26.4486 27.5667 26.4066 27.24 26.4066ZM27.198 22.1226C26.918 22.1226 26.6567 22.16 26.414 22.2346C26.1714 22.3093 25.9567 22.4213 25.77 22.5706C25.5927 22.72 25.4527 22.9066 25.35 23.1306C25.2474 23.3546 25.196 23.6113 25.196 23.9006C25.196 24.2086 25.252 24.4746 25.364 24.6986C25.4854 24.9133 25.644 25.0906 25.84 25.2306C26.036 25.3706 26.26 25.478 26.512 25.5526C26.764 25.618 27.0254 25.6506 27.296 25.6506C27.5667 25.6506 27.8187 25.618 28.052 25.5526C28.2854 25.478 28.486 25.3613 28.654 25.2026C28.822 25.044 28.9527 24.8433 29.046 24.6006C29.1487 24.358 29.2 24.0593 29.2 23.7046C29.2 23.2006 29.0367 22.8133 28.71 22.5426C28.3834 22.2626 27.8794 22.1226 27.198 22.1226ZM25.672 25.9306C25.4294 25.7813 25.2194 25.6413 25.042 25.5106C24.874 25.3706 24.734 25.2213 24.622 25.0626C24.51 24.904 24.426 24.7266 24.37 24.5306C24.3234 24.3253 24.3 24.0733 24.3 23.7746C24.3 23.4386 24.3747 23.1213 24.524 22.8226C24.6734 22.524 24.874 22.2673 25.126 22.0526C25.378 21.8286 25.672 21.656 26.008 21.5346C26.3534 21.4133 26.722 21.3573 27.114 21.3666C27.4874 21.3666 27.8514 21.4133 28.206 21.5066C28.57 21.6 28.892 21.7446 29.172 21.9406C29.452 22.1366 29.676 22.3886 29.844 22.6966C30.012 22.9953 30.096 23.3546 30.096 23.7746C30.096 24.288 29.9887 24.7266 29.774 25.0906C29.5687 25.4546 29.228 25.7533 28.752 25.9866C29.2934 26.1826 29.718 26.4953 30.026 26.9246C30.3434 27.354 30.502 27.858 30.502 28.4366C30.502 28.922 30.418 29.3513 30.25 29.7246C30.0914 30.098 29.858 30.4106 29.55 30.6626C29.2514 30.9146 28.8874 31.106 28.458 31.2366C28.0287 31.3673 27.5527 31.4326 27.03 31.4326C26.6754 31.4326 26.3114 31.372 25.938 31.2506C25.574 31.1293 25.2427 30.9473 24.944 30.7046C24.6547 30.462 24.4167 30.1586 24.23 29.7946C24.0434 29.4306 23.95 29.006 23.95 28.5206C23.95 27.9326 24.0947 27.41 24.384 26.9526C24.6827 26.486 25.112 26.1453 25.672 25.9306Z" fill="black"/>
<path d="M33.1993 22.4446H33.1713V31.2366H32.2193V21.1566H33.2973L39.1213 29.9626H39.1493V21.1566H40.1013V31.2366H38.9953L33.1993 22.4446Z" fill="black"/>
</svg>
