<svg width="24" height="13" viewBox="0 0 24 13" fill="none" xmlns="http://www.w3.org/2000/svg">
<path d="M6.1378 8.1192V9.06976H0.74124C0.764602 8.58419 0.834687 8.16035 0.951496 7.79823C1.0683 7.43612 1.24741 7.11103 1.48882 6.82298C1.73801 6.52671 1.97941 6.28392 2.21303 6.09463C2.44665 5.90535 2.7776 5.67079 3.2059 5.39097C3.8756 4.94656 4.31558 4.61324 4.52584 4.39104C4.96192 3.93839 5.17997 3.43636 5.17997 2.88495C5.17997 2.39939 5.03201 2.00435 4.73609 1.69984C4.44018 1.3871 4.05471 1.23073 3.57969 1.23073C3.01122 1.23073 2.60239 1.4406 2.3532 1.86033C2.11179 2.27182 1.9833 2.79443 1.96773 3.42813H0.963177V3.19358C0.963177 2.32943 1.20458 1.634 1.68739 1.10729C2.17799 0.580569 2.82433 0.317211 3.62641 0.317211C4.41292 0.317211 5.0398 0.547649 5.50703 1.00853C5.97427 1.4694 6.20788 2.08665 6.20788 2.86026C6.20788 3.18946 6.15337 3.5022 6.04435 3.79848C5.94312 4.08653 5.82631 4.32931 5.69392 4.52683C5.56933 4.72435 5.37465 4.93421 5.10988 5.15642C4.8529 5.37863 4.63875 5.55146 4.46743 5.67491C4.29612 5.79013 4.05082 5.95061 3.73154 6.15636C3.09299 6.55963 2.66858 6.87236 2.45833 7.09457C2.16241 7.40731 1.97162 7.74885 1.88596 8.1192H6.1378Z" fill="black"/>
<path d="M12.9555 6.06994V6.95878H11.8341V9.06976H10.8997V6.95878H7.26692V5.97118L11.0282 0.317211H11.8341V6.06994H12.9555ZM10.8997 6.06994V1.86033L8.14298 6.06994H10.8997Z" fill="black"/>
<path d="M17.5305 0.0703125L14.0613 9.27962H13.2202L16.7128 0.0703125H17.5305Z" fill="black"/>
<path d="M23.2075 0.477695V1.37887C21.4008 3.55981 20.3456 6.12344 20.0419 9.06976H18.9439C19.0374 7.72005 19.3722 6.38268 19.9485 5.05766C20.5325 3.73264 21.2801 2.5393 22.1912 1.47763H17.8576V0.477695H23.2075Z" fill="black"/>
<path d="M0.449219 11.5387H23.8149V12.156H0.449219V11.5387Z" fill="black"/>
</svg>
