<svg width="104" height="133" viewBox="0 0 104 133" fill="none" xmlns="http://www.w3.org/2000/svg">
<path d="M1.01064 42.0039L1.96264 42.0039V51.1879L6.69464 51.1879V42.0039L7.64664 42.0039V51.1879H12.3786V42.0039L13.3306 42.0039V51.9999L1.01064 51.9999V42.0039Z" fill="black"/>
<path d="M19.5384 52.1959C18.7544 52.1959 18.0638 52.0559 17.4664 51.7759C16.8784 51.4866 16.3884 51.1039 15.9964 50.6279C15.6044 50.1519 15.3104 49.6013 15.1144 48.9759C14.9184 48.3506 14.8204 47.6926 14.8204 47.0019C14.8204 46.3206 14.9184 45.6673 15.1144 45.0419C15.3104 44.4073 15.6044 43.8519 15.9964 43.3759C16.3884 42.8906 16.8784 42.5079 17.4664 42.2279C18.0638 41.9386 18.7544 41.7939 19.5384 41.7939C20.3224 41.7939 21.0084 41.9386 21.5964 42.2279C22.1844 42.5079 22.6744 42.8906 23.0664 43.3759C23.4584 43.8519 23.7524 44.4073 23.9484 45.0419C24.1444 45.6673 24.2424 46.3206 24.2424 47.0019C24.2424 47.6926 24.1444 48.3506 23.9484 48.9759C23.7524 49.6013 23.4584 50.1519 23.0664 50.6279C22.6744 51.1039 22.1844 51.4866 21.5964 51.7759C21.0084 52.0559 20.3224 52.1959 19.5384 52.1959ZM19.5384 51.3979C20.1918 51.3979 20.7564 51.2719 21.2324 51.0199C21.7084 50.7679 22.0958 50.4366 22.3944 50.0259C22.7024 49.6059 22.9264 49.1346 23.0664 48.6119C23.2158 48.0893 23.2904 47.5526 23.2904 47.0019C23.2904 46.4606 23.2158 45.9286 23.0664 45.4059C22.9264 44.8739 22.7024 44.4026 22.3944 43.9919C22.0958 43.5719 21.7084 43.2359 21.2324 42.9839C20.7564 42.7319 20.1918 42.6059 19.5384 42.6059C18.8758 42.6059 18.3064 42.7319 17.8304 42.9839C17.3544 43.2359 16.9624 43.5719 16.6544 43.9919C16.3558 44.4026 16.1318 44.8739 15.9824 45.4059C15.8424 45.9286 15.7724 46.4606 15.7724 47.0019C15.7724 47.5526 15.8424 48.0893 15.9824 48.6119C16.1318 49.1346 16.3558 49.6059 16.6544 50.0259C16.9624 50.4366 17.3544 50.7679 17.8304 51.0199C18.3064 51.2719 18.8758 51.3979 19.5384 51.3979Z" fill="black"/>
<path d="M25.7294 42.0039L26.6814 42.0039V47.3799L32.4914 42.0039L33.7794 42.0039L29.3134 46.1339L33.9894 51.9999H32.7574L28.5994 46.7919L26.6814 48.5699V51.9999L25.7294 51.9999V42.0039Z" fill="black"/>
<path d="M35.6195 45.0559V41.9199L36.6415 41.9199V45.0559L36.4455 49.4659H35.8155L35.6195 45.0559ZM35.6195 51.9999V50.7679H36.6415V51.9999H35.6195Z" fill="black"/>
<path d="M5.19664 72.1959C4.41264 72.1959 3.72197 72.0559 3.12464 71.7759C2.53664 71.4866 2.04664 71.1039 1.65464 70.6279C1.26264 70.1519 0.968638 69.6013 0.772638 68.9759C0.576638 68.3506 0.478638 67.6926 0.478638 67.0019C0.478638 66.3206 0.576638 65.6673 0.772638 65.0419C0.968638 64.4073 1.26264 63.8519 1.65464 63.3759C2.04664 62.8906 2.53664 62.5079 3.12464 62.2279C3.72197 61.9386 4.41264 61.7939 5.19664 61.7939C5.98064 61.7939 6.66664 61.9386 7.25464 62.2279C7.84264 62.5079 8.33264 62.8906 8.72464 63.3759C9.11664 63.8519 9.41064 64.4073 9.60664 65.0419C9.80264 65.6673 9.90064 66.3206 9.90064 67.0019C9.90064 67.6926 9.80264 68.3506 9.60664 68.9759C9.41064 69.6013 9.11664 70.1519 8.72464 70.6279C8.33264 71.1039 7.84264 71.4866 7.25464 71.7759C6.66664 72.0559 5.98064 72.1959 5.19664 72.1959ZM5.19664 71.3979C5.84997 71.3979 6.41464 71.2719 6.89064 71.0199C7.36664 70.7679 7.75397 70.4366 8.05264 70.0259C8.36064 69.6059 8.58464 69.1346 8.72464 68.6119C8.87397 68.0893 8.94864 67.5526 8.94864 67.0019C8.94864 66.4606 8.87397 65.9286 8.72464 65.4059C8.58464 64.8739 8.36064 64.4026 8.05264 63.9919C7.75397 63.5719 7.36664 63.2359 6.89064 62.9839C6.41464 62.7319 5.84997 62.6059 5.19664 62.6059C4.53397 62.6059 3.96464 62.7319 3.48864 62.9839C3.01264 63.2359 2.62064 63.5719 2.31264 63.9919C2.01397 64.4026 1.78997 64.8739 1.64064 65.4059C1.50064 65.9286 1.43064 66.4606 1.43064 67.0019C1.43064 67.5526 1.50064 68.0893 1.64064 68.6119C1.78997 69.1346 2.01397 69.6059 2.31264 70.0259C2.62064 70.4366 3.01264 70.7679 3.48864 71.0199C3.96464 71.2719 4.53397 71.3979 5.19664 71.3979Z" fill="black"/>
<path d="M11.3876 62.0039H15.8256C16.2736 62.0039 16.6796 62.0693 17.0436 62.1999C17.4076 62.3213 17.7203 62.5079 17.9816 62.7599C18.2429 63.0026 18.4436 63.3013 18.5836 63.6559C18.7236 64.0106 18.7936 64.4119 18.7936 64.8599C18.7936 65.3079 18.7236 65.7093 18.5836 66.0639C18.4436 66.4186 18.2429 66.7219 17.9816 66.9739C17.7203 67.2166 17.4076 67.4033 17.0436 67.5339C16.6796 67.6553 16.2736 67.7159 15.8256 67.7159H12.3396V71.9999H11.3876V62.0039ZM15.6156 66.9039C16.2783 66.9039 16.8149 66.7359 17.2256 66.3999C17.6363 66.0639 17.8416 65.5506 17.8416 64.8599C17.8416 64.1693 17.6363 63.6559 17.2256 63.3199C16.8149 62.9839 16.2783 62.8159 15.6156 62.8159H12.3396V66.9039H15.6156Z" fill="black"/>
<path d="M20.2899 62.0039L26.464 62.0039V62.8159L21.242 62.8159V71.9999H20.2899V62.0039Z" fill="black"/>
<path d="M30.3234 62.0039H31.3874L35.3074 71.9999H34.2854L33.0674 68.8919H28.5174L27.3134 71.9999H26.3054L30.3234 62.0039ZM32.7454 68.0799L30.8134 62.9559L28.8114 68.0799H32.7454Z" fill="black"/>
<path d="M36.2157 62.0039H37.1677V66.3439H43.1037V62.0039H44.0557V71.9999H43.1037V67.1559H37.1677V71.9999H36.2157V62.0039Z" fill="black"/>
<path d="M46.0731 62.0039H47.0251V70.9779L52.7651 62.0039H53.9971V71.9999L53.0451 71.9999V63.0259L47.3051 71.9999H46.0731V62.0039Z" fill="black"/>
<path d="M59.5406 72.2099C58.9246 72.2099 58.3693 72.1353 57.8746 71.9859C57.3799 71.8273 56.9599 71.6033 56.6146 71.3139C56.2786 71.0153 56.0173 70.6559 55.8306 70.2359C55.6533 69.8066 55.5646 69.3259 55.5646 68.7939V68.7099H56.4746C56.4746 69.6339 56.7593 70.3199 57.3286 70.7679C57.8979 71.2159 58.6586 71.4399 59.6106 71.4399C60.0306 71.4399 60.4086 71.3793 60.7446 71.2579C61.0806 71.1273 61.3606 70.9546 61.5846 70.7399C61.8179 70.5253 61.9953 70.2779 62.1166 69.9979C62.2473 69.7086 62.3126 69.4053 62.3126 69.0879C62.3126 68.7986 62.2519 68.5373 62.1306 68.3039C62.0186 68.0613 61.8599 67.8559 61.6546 67.6879C61.4493 67.5199 61.2066 67.3893 60.9266 67.2959C60.6559 67.2026 60.3619 67.1559 60.0446 67.1559H58.4486V66.3439H60.0446C60.3059 66.3439 60.5579 66.3066 60.8006 66.2319C61.0433 66.1573 61.2579 66.0499 61.4446 65.9099C61.6313 65.7606 61.7759 65.5786 61.8786 65.3639C61.9906 65.1399 62.0466 64.8833 62.0466 64.5939C62.0466 64.2486 61.9813 63.9499 61.8506 63.6979C61.7293 63.4459 61.5613 63.2406 61.3466 63.0819C61.1319 62.9139 60.8753 62.7926 60.5766 62.7179C60.2779 62.6339 59.9606 62.5919 59.6246 62.5919C59.2326 62.5919 58.8686 62.6386 58.5326 62.7319C58.1966 62.8253 57.9026 62.9699 57.6506 63.1659C57.4079 63.3526 57.2119 63.5906 57.0626 63.8799C56.9226 64.1599 56.8386 64.4866 56.8106 64.8599H55.8866C55.9146 64.3466 56.0219 63.8986 56.2086 63.5159C56.4046 63.1333 56.6659 62.8159 56.9926 62.5639C57.3193 62.3026 57.7019 62.1113 58.1406 61.9899C58.5886 61.8593 59.0739 61.7939 59.5966 61.7939C60.0633 61.7939 60.5019 61.8499 60.9126 61.9619C61.3326 62.0646 61.6966 62.2279 62.0046 62.4519C62.3126 62.6759 62.5553 62.9606 62.7326 63.3059C62.9099 63.6419 62.9986 64.0433 62.9986 64.5099C62.9986 64.7713 62.9566 65.0186 62.8726 65.2519C62.7886 65.4759 62.6766 65.6813 62.5366 65.8679C62.3966 66.0453 62.2379 66.1993 62.0606 66.3299C61.8833 66.4606 61.7059 66.5586 61.5286 66.6239V66.6659C62.0606 66.8059 62.4806 67.0766 62.7886 67.4779C63.1059 67.8699 63.2646 68.4019 63.2646 69.0739C63.2646 69.3819 63.1993 69.7179 63.0686 70.0819C62.9473 70.4459 62.7419 70.7866 62.4526 71.1039C62.1633 71.4213 61.7806 71.6873 61.3046 71.9019C60.8286 72.1073 60.2406 72.2099 59.5406 72.2099Z" fill="black"/>
<path d="M64.7619 62.0039H66.1619L69.6199 70.7679L73.0639 62.0039H74.4639V71.9999H73.5119V63.3619H73.4839L70.0679 71.9999H69.1719L65.7419 63.3619H65.7139V71.9999H64.7619V62.0039Z" fill="black"/>
<path d="M5.19664 92.1959C4.41264 92.1959 3.72197 92.0559 3.12464 91.7759C2.53664 91.4866 2.04664 91.1039 1.65464 90.6279C1.26264 90.1519 0.968638 89.6013 0.772638 88.9759C0.576638 88.3506 0.478638 87.6926 0.478638 87.0019C0.478638 86.3206 0.576638 85.6673 0.772638 85.0419C0.968638 84.4073 1.26264 83.8519 1.65464 83.3759C2.04664 82.8906 2.53664 82.5079 3.12464 82.2279C3.72197 81.9386 4.41264 81.7939 5.19664 81.7939C5.98064 81.7939 6.66664 81.9386 7.25464 82.2279C7.84264 82.5079 8.33264 82.8906 8.72464 83.3759C9.11664 83.8519 9.41064 84.4073 9.60664 85.0419C9.80264 85.6673 9.90064 86.3206 9.90064 87.0019C9.90064 87.6926 9.80264 88.3506 9.60664 88.9759C9.41064 89.6013 9.11664 90.1519 8.72464 90.6279C8.33264 91.1039 7.84264 91.4866 7.25464 91.7759C6.66664 92.0559 5.98064 92.1959 5.19664 92.1959ZM5.19664 91.3979C5.84997 91.3979 6.41464 91.2719 6.89064 91.0199C7.36664 90.7679 7.75397 90.4366 8.05264 90.0259C8.36064 89.6059 8.58464 89.1346 8.72464 88.6119C8.87397 88.0893 8.94864 87.5526 8.94864 87.0019C8.94864 86.4606 8.87397 85.9286 8.72464 85.4059C8.58464 84.8739 8.36064 84.4026 8.05264 83.9919C7.75397 83.5719 7.36664 83.2359 6.89064 82.9839C6.41464 82.7319 5.84997 82.6059 5.19664 82.6059C4.53397 82.6059 3.96464 82.7319 3.48864 82.9839C3.01264 83.2359 2.62064 83.5719 2.31264 83.9919C2.01397 84.4026 1.78997 84.8739 1.64064 85.4059C1.50064 85.9286 1.43064 86.4606 1.43064 87.0019C1.43064 87.5526 1.50064 88.0893 1.64064 88.6119C1.78997 89.1346 2.01397 89.6059 2.31264 90.0259C2.62064 90.4366 3.01264 90.7679 3.48864 91.0199C3.96464 91.2719 4.53397 91.3979 5.19664 91.3979Z" fill="black"/>
<path d="M17.2396 87.4499C17.0996 87.4873 16.9036 87.5293 16.6516 87.5759C16.3996 87.6226 16.1243 87.6693 15.8256 87.7159C15.5363 87.7533 15.2423 87.7906 14.9436 87.8279C14.6543 87.8559 14.3976 87.8699 14.1736 87.8699C13.4549 87.8699 12.8809 87.7859 12.4516 87.6179C12.0316 87.4406 11.7096 87.2166 11.4856 86.9459C11.2616 86.6659 11.1169 86.3579 11.0516 86.0219C10.9863 85.6766 10.9536 85.3359 10.9536 84.9999V82.0039H11.9056V84.9439C11.9056 85.1493 11.9243 85.3733 11.9616 85.6159C11.9989 85.8586 12.0923 86.0873 12.2416 86.3019C12.3909 86.5073 12.6056 86.6846 12.8856 86.8339C13.1749 86.9739 13.5716 87.0439 14.0756 87.0439C14.3743 87.0439 14.6823 87.0299 14.9996 87.0019C15.3263 86.9646 15.6343 86.9273 15.9236 86.8899C16.2129 86.8433 16.4696 86.7966 16.6936 86.7499C16.9269 86.7033 17.1089 86.6659 17.2396 86.6379V82.0039H18.1916V91.9999H17.2396V87.4499Z" fill="black"/>
<path d="M20.2059 82.0039H21.1579V90.9779L26.898 82.0039H28.1299V91.9999H27.178V83.0259L21.438 91.9999H20.2059V82.0039Z" fill="black"/>
<path d="M34.3874 92.1959C33.6034 92.1959 32.9127 92.0559 32.3154 91.7759C31.7274 91.4866 31.2374 91.1039 30.8454 90.6279C30.4534 90.1519 30.1594 89.6013 29.9634 88.9759C29.7674 88.3506 29.6694 87.6926 29.6694 87.0019C29.6694 86.3206 29.7674 85.6673 29.9634 85.0419C30.1594 84.4073 30.4534 83.8519 30.8454 83.3759C31.2374 82.8906 31.7274 82.5079 32.3154 82.2279C32.9127 81.9386 33.6034 81.7939 34.3874 81.7939C34.8634 81.7939 35.3254 81.8639 35.7734 82.0039C36.2307 82.1439 36.6414 82.3539 37.0054 82.6339C37.3787 82.9046 37.6867 83.2406 37.9294 83.6419C38.1814 84.0433 38.3401 84.5053 38.4054 85.0279H37.4534C37.3694 84.6453 37.2294 84.3046 37.0334 84.0059C36.8467 83.6979 36.6134 83.4413 36.3334 83.2359C36.0627 83.0306 35.7594 82.8766 35.4234 82.7739C35.0967 82.6619 34.7514 82.6059 34.3874 82.6059C33.7247 82.6059 33.1554 82.7319 32.6794 82.9839C32.2034 83.2359 31.8114 83.5719 31.5034 83.9919C31.2047 84.4026 30.9807 84.8739 30.8314 85.4059C30.6914 85.9286 30.6214 86.4606 30.6214 87.0019C30.6214 87.5526 30.6914 88.0893 30.8314 88.6119C30.9807 89.1346 31.2047 89.6059 31.5034 90.0259C31.8114 90.4366 32.2034 90.7679 32.6794 91.0199C33.1554 91.2719 33.7247 91.3979 34.3874 91.3979C34.8447 91.3979 35.2601 91.3139 35.6334 91.1459C36.0161 90.9779 36.3427 90.7493 36.6134 90.4599C36.8841 90.1706 37.1034 89.8346 37.2714 89.4519C37.4394 89.0599 37.5467 88.6399 37.5934 88.1919H38.5454C38.4801 88.8079 38.3354 89.3633 38.1114 89.8579C37.8874 90.3526 37.5981 90.7726 37.2434 91.1179C36.8887 91.4633 36.4687 91.7293 35.9834 91.9159C35.5074 92.1026 34.9754 92.1959 34.3874 92.1959Z" fill="black"/>
<path d="M42.4108 82.8159L38.9388 82.8159V82.0039L46.8488 82.0039V82.8159H43.3628V91.9999H42.4108V82.8159Z" fill="black"/>
<path d="M47.7821 82.0039H48.7341V90.9779L54.4741 82.0039H55.7061V91.9999H54.7541V83.0259L49.0141 91.9999H47.7821V82.0039Z" fill="black"/>
<path d="M60.1296 82.8159H56.6576V82.0039H64.5676V82.8159H61.0816V91.9999H60.1296V82.8159Z" fill="black"/>
<path d="M69.7429 92.1959C68.9589 92.1959 68.2682 92.0559 67.6709 91.7759C67.0829 91.4866 66.5929 91.1039 66.2009 90.6279C65.8089 90.1519 65.5149 89.6013 65.3189 88.9759C65.1229 88.3506 65.0249 87.6926 65.0249 87.0019C65.0249 86.3206 65.1229 85.6673 65.3189 85.0419C65.5149 84.4073 65.8089 83.8519 66.2009 83.3759C66.5929 82.8906 67.0829 82.5079 67.6709 82.2279C68.2682 81.9386 68.9589 81.7939 69.7429 81.7939C70.2189 81.7939 70.6809 81.8639 71.1289 82.0039C71.5862 82.1439 71.9969 82.3539 72.3609 82.6339C72.7342 82.9046 73.0422 83.2406 73.2849 83.6419C73.5369 84.0433 73.6955 84.5053 73.7609 85.0279H72.8089C72.7249 84.6453 72.5849 84.3046 72.3889 84.0059C72.2022 83.6979 71.9689 83.4413 71.6889 83.2359C71.4182 83.0306 71.1149 82.8766 70.7789 82.7739C70.4522 82.6619 70.1069 82.6059 69.7429 82.6059C69.0802 82.6059 68.5109 82.7319 68.0349 82.9839C67.5589 83.2359 67.1669 83.5719 66.8589 83.9919C66.5602 84.4026 66.3362 84.8739 66.1869 85.4059C66.0469 85.9286 65.9769 86.4606 65.9769 87.0019C65.9769 87.5526 66.0469 88.0893 66.1869 88.6119C66.3362 89.1346 66.5602 89.6059 66.8589 90.0259C67.1669 90.4366 67.5589 90.7679 68.0349 91.0199C68.5109 91.2719 69.0802 91.3979 69.7429 91.3979C70.2002 91.3979 70.6155 91.3139 70.9889 91.1459C71.3715 90.9779 71.6982 90.7493 71.9689 90.4599C72.2395 90.1706 72.4589 89.8346 72.6269 89.452C72.7949 89.06 72.9022 88.6399 72.9489 88.1919H73.9009C73.8355 88.8079 73.6909 89.3633 73.4669 89.8579C73.2429 90.3526 72.9535 90.7726 72.5989 91.1179C72.2442 91.4633 71.8242 91.7293 71.3389 91.9159C70.8629 92.1026 70.3309 92.1959 69.7429 92.1959Z" fill="black"/>
<path d="M77.8223 87.66C77.4116 87.6413 77.029 87.5666 76.6743 87.4359C76.329 87.3053 76.0256 87.1233 75.7643 86.8899C75.5123 86.6566 75.3116 86.3766 75.1623 86.0499C75.0223 85.7139 74.9523 85.3266 74.9523 84.8879C74.9523 84.4399 75.0223 84.0386 75.1623 83.6839C75.3023 83.3293 75.503 83.0306 75.7643 82.7879C76.035 82.5359 76.3523 82.3446 76.7163 82.2139C77.0896 82.0739 77.5096 82.0039 77.9763 82.0039H82.1623V92H81.2103V87.716H78.9703L75.6383 92H74.4063L77.8223 87.66ZM81.2103 86.9039V82.8159H78.1863C77.4863 82.8159 76.931 83.0026 76.5203 83.3759C76.1096 83.74 75.9043 84.2439 75.9043 84.8879C75.9043 85.5319 76.1096 86.0313 76.5203 86.3859C76.931 86.7313 77.4863 86.9039 78.1863 86.9039H81.2103Z" fill="black"/>
<path d="M5.19664 112.196C4.41264 112.196 3.72197 112.056 3.12464 111.776C2.53664 111.487 2.04664 111.104 1.65464 110.628C1.26264 110.152 0.968638 109.601 0.772638 108.976C0.576638 108.351 0.478638 107.693 0.478638 107.002C0.478638 106.321 0.576638 105.667 0.772638 105.042C0.968638 104.407 1.26264 103.852 1.65464 103.376C2.04664 102.891 2.53664 102.508 3.12464 102.228C3.72197 101.939 4.41264 101.794 5.19664 101.794C5.98064 101.794 6.66664 101.939 7.25464 102.228C7.84264 102.508 8.33264 102.891 8.72464 103.376C9.11664 103.852 9.41064 104.407 9.60664 105.042C9.80264 105.667 9.90064 106.321 9.90064 107.002C9.90064 107.693 9.80264 108.351 9.60664 108.976C9.41064 109.601 9.11664 110.152 8.72464 110.628C8.33264 111.104 7.84264 111.487 7.25464 111.776C6.66664 112.056 5.98064 112.196 5.19664 112.196ZM5.19664 111.398C5.84997 111.398 6.41464 111.272 6.89064 111.02C7.36664 110.768 7.75397 110.437 8.05264 110.026C8.36064 109.606 8.58464 109.135 8.72464 108.612C8.87397 108.089 8.94864 107.553 8.94864 107.002C8.94864 106.461 8.87397 105.929 8.72464 105.406C8.58464 104.874 8.36064 104.403 8.05264 103.992C7.75397 103.572 7.36664 103.236 6.89064 102.984C6.41464 102.732 5.84997 102.606 5.19664 102.606C4.53397 102.606 3.96464 102.732 3.48864 102.984C3.01264 103.236 2.62064 103.572 2.31264 103.992C2.01397 104.403 1.78997 104.874 1.64064 105.406C1.50064 105.929 1.43064 106.461 1.43064 107.002C1.43064 107.553 1.50064 108.089 1.64064 108.612C1.78997 109.135 2.01397 109.606 2.31264 110.026C2.62064 110.437 3.01264 110.768 3.48864 111.02C3.96464 111.272 4.53397 111.398 5.19664 111.398Z" fill="black"/>
<path d="M13.7956 102.816H10.3236V102.004H18.2336V102.816H14.7476V112H13.7956V102.816Z" fill="black"/>
<path d="M23.0634 102.004H30.7634V112H29.8114V102.816H24.0154V112H23.0634V102.004Z" fill="black"/>
<path d="M35.7101 102.004H36.7741L40.6941 112H39.6721L38.4541 108.892H33.9041L32.7001 112H31.6921L35.7101 102.004ZM38.1321 108.08L36.2001 102.956L34.1981 108.08H38.1321Z" fill="black"/>
<path d="M41.6024 102.004L46.0404 102.004C46.4884 102.004 46.8944 102.069 47.2584 102.2C47.6224 102.321 47.9351 102.508 48.1964 102.76C48.4578 103.003 48.6584 103.301 48.7984 103.656C48.9384 104.011 49.0084 104.412 49.0084 104.86C49.0084 105.308 48.9384 105.709 48.7984 106.064C48.6584 106.419 48.4578 106.722 48.1964 106.974C47.9351 107.217 47.6224 107.403 47.2584 107.534C46.8944 107.655 46.4884 107.716 46.0404 107.716H42.5544V112H41.6024V102.004ZM45.8304 106.904C46.4931 106.904 47.0298 106.736 47.4404 106.4C47.8511 106.064 48.0564 105.551 48.0564 104.86C48.0564 104.169 47.8511 103.656 47.4404 103.32C47.0298 102.984 46.4931 102.816 45.8304 102.816H42.5544V106.904H45.8304Z" fill="black"/>
<path d="M53.3468 102.004H54.4108L58.3308 112H57.3088L56.0908 108.892H51.5408L50.3368 112H49.3288L53.3468 102.004ZM55.7688 108.08L53.8368 102.956L51.8348 108.08H55.7688Z" fill="black"/>
<path d="M62.7672 112.21C62.1512 112.21 61.5958 112.135 61.1012 111.986C60.6065 111.827 60.1865 111.603 59.8412 111.314C59.5052 111.015 59.2438 110.656 59.0572 110.236C58.8798 109.807 58.7912 109.326 58.7912 108.794V108.71H59.7012C59.7012 109.634 59.9858 110.32 60.5552 110.768C61.1245 111.216 61.8852 111.44 62.8372 111.44C63.2572 111.44 63.6352 111.379 63.9712 111.258C64.3072 111.127 64.5872 110.955 64.8112 110.74C65.0445 110.525 65.2218 110.278 65.3432 109.998C65.4738 109.709 65.5392 109.405 65.5392 109.088C65.5392 108.799 65.4785 108.537 65.3572 108.304C65.2452 108.061 65.0865 107.856 64.8812 107.688C64.6758 107.52 64.4332 107.389 64.1532 107.296C63.8825 107.203 63.5885 107.156 63.2712 107.156H61.6752V106.344H63.2712C63.5325 106.344 63.7845 106.307 64.0272 106.232C64.2698 106.157 64.4845 106.05 64.6712 105.91C64.8578 105.761 65.0025 105.579 65.1052 105.364C65.2172 105.14 65.2732 104.883 65.2732 104.594C65.2732 104.249 65.2078 103.95 65.0772 103.698C64.9558 103.446 64.7878 103.241 64.5732 103.082C64.3585 102.914 64.1018 102.793 63.8032 102.718C63.5045 102.634 63.1872 102.592 62.8512 102.592C62.4592 102.592 62.0952 102.639 61.7592 102.732C61.4232 102.825 61.1292 102.97 60.8772 103.166C60.6345 103.353 60.4385 103.591 60.2892 103.88C60.1492 104.16 60.0652 104.487 60.0372 104.86H59.1132C59.1412 104.347 59.2485 103.899 59.4352 103.516C59.6312 103.133 59.8925 102.816 60.2192 102.564C60.5458 102.303 60.9285 102.111 61.3672 101.99C61.8152 101.859 62.3005 101.794 62.8232 101.794C63.2898 101.794 63.7285 101.85 64.1392 101.962C64.5592 102.065 64.9232 102.228 65.2312 102.452C65.5392 102.676 65.7818 102.961 65.9592 103.306C66.1365 103.642 66.2252 104.043 66.2252 104.51C66.2252 104.771 66.1832 105.019 66.0992 105.252C66.0152 105.476 65.9032 105.681 65.7632 105.868C65.6232 106.045 65.4645 106.199 65.2872 106.33C65.1098 106.461 64.9325 106.559 64.7551 106.624V106.666C65.2871 106.806 65.7072 107.077 66.0152 107.478C66.3325 107.87 66.4912 108.402 66.4912 109.074C66.4912 109.382 66.4258 109.718 66.2952 110.082C66.1738 110.446 65.9685 110.787 65.6792 111.104C65.3898 111.421 65.0072 111.687 64.5312 111.902C64.0552 112.107 63.4672 112.21 62.7672 112.21Z" fill="black"/>
<path d="M68.0165 102.004H68.9685V110.978L74.7085 102.004H75.9405V112H74.9885V103.026L69.2485 112H68.0165V102.004Z" fill="black"/>
<path d="M80.364 102.816H76.892V102.004H84.8019V102.816H81.3159V112H80.364V102.816Z" fill="black"/>
<path d="M89.9212 112.196C89.1372 112.196 88.4466 112.056 87.8493 111.776C87.2613 111.487 86.7712 111.104 86.3792 110.628C85.9872 110.152 85.6932 109.601 85.4972 108.976C85.3012 108.351 85.2032 107.693 85.2032 107.002C85.2032 106.321 85.3012 105.667 85.4972 105.042C85.6932 104.407 85.9872 103.852 86.3792 103.376C86.7712 102.891 87.2613 102.508 87.8493 102.228C88.4466 101.939 89.1372 101.794 89.9212 101.794C90.7052 101.794 91.3912 101.939 91.9792 102.228C92.5672 102.508 93.0572 102.891 93.4492 103.376C93.8412 103.852 94.1352 104.407 94.3312 105.042C94.5272 105.667 94.6252 106.321 94.6252 107.002C94.6252 107.693 94.5272 108.351 94.3312 108.976C94.1352 109.601 93.8412 110.152 93.4492 110.628C93.0572 111.104 92.5672 111.487 91.9792 111.776C91.3912 112.056 90.7052 112.196 89.9212 112.196ZM89.9212 111.398C90.5746 111.398 91.1392 111.272 91.6152 111.02C92.0912 110.768 92.4786 110.437 92.7772 110.026C93.0852 109.606 93.3092 109.135 93.4492 108.612C93.5986 108.089 93.6732 107.553 93.6732 107.002C93.6732 106.461 93.5986 105.929 93.4492 105.406C93.3092 104.874 93.0852 104.403 92.7772 103.992C92.4786 103.572 92.0912 103.236 91.6152 102.984C91.1392 102.732 90.5746 102.606 89.9212 102.606C89.2586 102.606 88.6892 102.732 88.2132 102.984C87.7372 103.236 87.3452 103.572 87.0372 103.992C86.7386 104.403 86.5146 104.874 86.3652 105.406C86.2252 105.929 86.1553 106.461 86.1553 107.002C86.1553 107.553 86.2252 108.089 86.3652 108.612C86.5146 109.135 86.7386 109.606 87.0372 110.026C87.3452 110.437 87.7372 110.768 88.2132 111.02C88.6892 111.272 89.2586 111.398 89.9212 111.398Z" fill="black"/>
<path d="M96.1122 102.004H100.34C100.76 102.004 101.162 102.046 101.544 102.13C101.936 102.205 102.277 102.34 102.566 102.536C102.865 102.723 103.103 102.975 103.28 103.292C103.458 103.6 103.546 103.987 103.546 104.454C103.546 104.715 103.504 104.972 103.42 105.224C103.336 105.467 103.215 105.691 103.056 105.896C102.907 106.092 102.725 106.26 102.51 106.4C102.305 106.54 102.072 106.638 101.81 106.694V106.722C102.454 106.806 102.968 107.072 103.35 107.52C103.733 107.959 103.924 108.505 103.924 109.158C103.924 109.401 103.887 109.685 103.812 110.012C103.747 110.329 103.593 110.637 103.35 110.936C103.108 111.235 102.748 111.487 102.272 111.692C101.796 111.897 101.152 112 100.34 112H96.1122V102.004ZM100.34 111.188C100.695 111.188 101.031 111.16 101.348 111.104C101.666 111.039 101.946 110.927 102.188 110.768C102.431 110.609 102.622 110.399 102.762 110.138C102.902 109.877 102.972 109.541 102.972 109.13C102.972 108.486 102.744 108.005 102.286 107.688C101.838 107.361 101.19 107.198 100.34 107.198H97.0642V111.188H100.34ZM100.34 106.386C100.714 106.386 101.04 106.344 101.32 106.26C101.61 106.167 101.848 106.045 102.034 105.896C102.221 105.737 102.361 105.555 102.454 105.35C102.548 105.145 102.594 104.925 102.594 104.692C102.594 103.441 101.843 102.816 100.34 102.816H97.0642V106.386H100.34Z" fill="black"/>
<path d="M1.01064 122.004H7.91264V122.816L1.96264 122.816V126.428H7.53464V127.24H1.96264V131.188H7.98264V132H1.01064V122.004Z" fill="black"/>
<path d="M13.5515 132.196C12.7675 132.196 12.0768 132.056 11.4795 131.776C10.8915 131.487 10.4015 131.104 10.0095 130.628C9.61747 130.152 9.32347 129.601 9.12747 128.976C8.93147 128.351 8.83347 127.693 8.83347 127.002C8.83347 126.321 8.93147 125.667 9.12747 125.042C9.32347 124.407 9.61747 123.852 10.0095 123.376C10.4015 122.891 10.8915 122.508 11.4795 122.228C12.0768 121.939 12.7675 121.794 13.5515 121.794C14.0275 121.794 14.4895 121.864 14.9375 122.004C15.3948 122.144 15.8055 122.354 16.1695 122.634C16.5428 122.905 16.8508 123.241 17.0935 123.642C17.3455 124.043 17.5041 124.505 17.5695 125.028H16.6175C16.5335 124.645 16.3935 124.305 16.1975 124.006C16.0108 123.698 15.7775 123.441 15.4975 123.236C15.2268 123.031 14.9235 122.877 14.5875 122.774C14.2608 122.662 13.9155 122.606 13.5515 122.606C12.8888 122.606 12.3195 122.732 11.8435 122.984C11.3675 123.236 10.9755 123.572 10.6675 123.992C10.3688 124.403 10.1448 124.874 9.99547 125.406C9.85547 125.929 9.78547 126.461 9.78547 127.002C9.78547 127.553 9.85547 128.089 9.99547 128.612C10.1448 129.135 10.3688 129.606 10.6675 130.026C10.9755 130.437 11.3675 130.768 11.8435 131.02C12.3195 131.272 12.8888 131.398 13.5515 131.398C14.0088 131.398 14.4241 131.314 14.7975 131.146C15.1801 130.978 15.5068 130.749 15.7775 130.46C16.0481 130.171 16.2675 129.835 16.4355 129.452C16.6035 129.06 16.7108 128.64 16.7575 128.192H17.7095C17.6441 128.808 17.4995 129.363 17.2755 129.858C17.0515 130.353 16.7621 130.773 16.4075 131.118C16.0528 131.463 15.6328 131.729 15.1475 131.916C14.6715 132.103 14.1395 132.196 13.5515 132.196Z" fill="black"/>
<path d="M18.9149 132.084C18.8589 132.084 18.7889 132.079 18.7049 132.07C18.6302 132.061 18.5509 132.051 18.4669 132.042C18.3829 132.033 18.3082 132.019 18.2429 132C18.1776 131.991 18.1309 131.981 18.1029 131.972V131.16C18.1776 131.197 18.2896 131.225 18.4389 131.244C18.5976 131.253 18.7142 131.258 18.7889 131.258C18.8916 131.258 19.0129 131.249 19.1529 131.23C19.2929 131.202 19.4376 131.118 19.5869 130.978C19.7456 130.829 19.8996 130.6 20.0489 130.292C20.2076 129.975 20.3429 129.527 20.4549 128.948C20.5762 128.36 20.6742 127.618 20.7489 126.722C20.8236 125.826 20.8609 124.725 20.8609 123.418V122.004H27.0069V132H26.0549V122.816H21.7849V123.362C21.7849 124.818 21.7382 126.045 21.6449 127.044C21.5516 128.033 21.4256 128.855 21.2669 129.508C21.1082 130.152 20.9262 130.651 20.7209 131.006C20.5249 131.351 20.3196 131.603 20.1049 131.762C19.8996 131.921 19.6896 132.014 19.4749 132.042C19.2696 132.07 19.0829 132.084 18.9149 132.084Z" fill="black"/>
<path d="M29.0243 122.004H29.9763V130.978L35.7163 122.004H36.9483V132H35.9963V123.026L30.2563 132H29.0243V122.004Z" fill="black"/>
<path d="M39.3838 132V130.768H40.4058V132H39.3838Z" fill="black"/>
<path d="M43.2802 132V130.768H44.3022V132H43.2802Z" fill="black"/>
<path d="M47.1767 132V130.768H48.1987V132H47.1767Z" fill="black"/>
<path d="M1.09069 11.0071L1.09069 0.927132L7.58669 0.927132V1.73913H2.04269V5.37913H7.08269V6.19113H2.04269V11.0071H1.09069Z" fill="black"/>
<path d="M9.30398 11.0071V0.927132H10.256V11.0071H9.30398Z" fill="black"/>
<path d="M16.7705 5.61713C17.1251 5.61713 17.4518 5.5798 17.7505 5.50513C18.0585 5.43047 18.3245 5.3138 18.5485 5.15513C18.7725 4.98713 18.9498 4.77713 19.0805 4.52513C19.2111 4.27313 19.2765 3.9698 19.2765 3.61513C19.2765 3.2418 19.2065 2.9338 19.0665 2.69113C18.9358 2.44847 18.7538 2.25713 18.5205 2.11713C18.2965 1.97713 18.0351 1.87913 17.7365 1.82313C17.4471 1.76713 17.1438 1.73913 16.8265 1.73913H13.8025V5.61713H16.7705ZM13.8025 6.42913V11.0071H12.8505V0.927132L16.7985 0.927132C17.9091 0.927132 18.7585 1.13713 19.3465 1.55713C19.9345 1.9678 20.2285 2.6398 20.2285 3.57313C20.2285 4.2078 20.0978 4.7118 19.8365 5.08513C19.5845 5.45847 19.1691 5.7758 18.5905 6.03713C18.8891 6.1398 19.1225 6.28913 19.2905 6.48513C19.4585 6.68113 19.5845 6.90513 19.6685 7.15713C19.7525 7.40913 19.8038 7.67513 19.8225 7.95513C19.8505 8.23513 19.8691 8.5058 19.8785 8.76713C19.8878 9.1498 19.9018 9.46713 19.9205 9.71913C19.9485 9.97113 19.9765 10.1765 20.0045 10.3351C20.0418 10.4938 20.0838 10.6198 20.1305 10.7131C20.1771 10.7971 20.2331 10.8625 20.2985 10.9091V11.0071H19.2485C19.1458 10.8391 19.0711 10.6058 19.0245 10.3071C18.9871 10.0085 18.9545 9.6958 18.9265 9.36913C18.9078 9.04247 18.8891 8.72513 18.8705 8.41713C18.8611 8.10913 18.8378 7.85713 18.8005 7.66113C18.7445 7.39047 18.6511 7.1758 18.5205 7.01713C18.3991 6.84913 18.2498 6.72313 18.0725 6.63913C17.8951 6.55513 17.6945 6.49913 17.4705 6.47113C17.2558 6.44313 17.0318 6.42913 16.7985 6.42913H13.8025Z" fill="black"/>
<path d="M22.2024 11.0071V0.927132L28.9084 0.927132V1.73913H23.1544V5.37913H28.3484V6.19113H23.1544V10.1951L29.0484 10.1951V11.0071H22.2024Z" fill="black"/>
<path d="M31.055 11.0071V9.77513H32.077V11.0071H31.055Z" fill="black"/>
<path d="M34.6154 11.0071V0.927132L38.2974 0.927132C38.9508 0.927132 39.4874 1.0018 39.9074 1.15113C40.3368 1.30047 40.6728 1.5058 40.9154 1.76713C41.1674 2.02847 41.3401 2.3318 41.4334 2.67713C41.5361 3.01313 41.5874 3.3678 41.5874 3.74113C41.5874 4.30113 41.4708 4.76313 41.2374 5.12713C41.0134 5.49113 40.7194 5.78047 40.3554 5.99513C39.9914 6.20047 39.5761 6.34513 39.1094 6.42913C38.6521 6.51313 38.1901 6.55513 37.7234 6.55513H35.5674V11.0071H34.6154ZM37.7514 5.74313C38.1994 5.74313 38.6008 5.71513 38.9554 5.65913C39.3101 5.60313 39.6088 5.50047 39.8514 5.35113C40.1034 5.19247 40.2948 4.98247 40.4254 4.72113C40.5654 4.45047 40.6354 4.10047 40.6354 3.67113C40.6354 3.03647 40.4254 2.5558 40.0054 2.22913C39.5948 1.90247 38.9368 1.73913 38.0314 1.73913H35.5674V5.74313H37.7514Z" fill="black"/>
<path d="M47.122 5.61713C47.4767 5.61713 47.8034 5.5798 48.102 5.50513C48.41 5.43047 48.676 5.3138 48.9 5.15513C49.124 4.98713 49.3014 4.77713 49.432 4.52513C49.5627 4.27313 49.628 3.9698 49.628 3.61513C49.628 3.2418 49.558 2.9338 49.418 2.69113C49.2874 2.44847 49.1054 2.25713 48.872 2.11713C48.648 1.97713 48.3867 1.87913 48.088 1.82313C47.7987 1.76713 47.4954 1.73913 47.178 1.73913L44.154 1.73913V5.61713H47.122ZM44.154 6.42913V11.0071H43.202V0.927133L47.15 0.927133C48.2607 0.927133 49.11 1.13713 49.698 1.55713C50.286 1.9678 50.58 2.6398 50.58 3.57313C50.58 4.2078 50.4494 4.7118 50.188 5.08513C49.936 5.45847 49.5207 5.7758 48.942 6.03713C49.2407 6.1398 49.474 6.28913 49.642 6.48513C49.81 6.68113 49.936 6.90513 50.02 7.15713C50.104 7.40913 50.1554 7.67513 50.174 7.95513C50.202 8.23513 50.2207 8.5058 50.23 8.76713C50.2394 9.1498 50.2534 9.46713 50.272 9.71913C50.3 9.97113 50.328 10.1765 50.356 10.3351C50.3934 10.4938 50.4354 10.6198 50.482 10.7131C50.5287 10.7971 50.5847 10.8625 50.65 10.9091V11.0071H49.6C49.4974 10.8391 49.4227 10.6058 49.376 10.3071C49.3387 10.0085 49.306 9.6958 49.278 9.36913C49.2594 9.04247 49.2407 8.72513 49.222 8.41713C49.2127 8.10913 49.1894 7.85713 49.152 7.66113C49.096 7.39047 49.0027 7.1758 48.872 7.01713C48.7507 6.84913 48.6014 6.72313 48.424 6.63913C48.2467 6.55513 48.046 6.49913 47.822 6.47113C47.6074 6.44313 47.3834 6.42913 47.15 6.42913H44.154Z" fill="black"/>
<path d="M52.5539 11.0071V0.927133L59.2599 0.927133V1.73913L53.5059 1.73913V5.37913H58.6999V6.19113H53.5059V10.1951H59.3999V11.0071H52.5539Z" fill="black"/>
<path d="M61.5045 7.99713C61.5418 8.44513 61.6398 8.8278 61.7985 9.14513C61.9665 9.45313 62.1765 9.70513 62.4285 9.90113C62.6898 10.0971 62.9885 10.2418 63.3245 10.3351C63.6605 10.4191 64.0198 10.4611 64.4025 10.4611C64.8505 10.4611 65.2378 10.4051 65.5645 10.2931C65.8912 10.1811 66.1572 10.0318 66.3625 9.84513C66.5679 9.64913 66.7172 9.42513 66.8105 9.17313C66.9132 8.92113 66.9645 8.65513 66.9645 8.37513C66.9645 7.98313 66.8759 7.6658 66.6985 7.42313C66.5212 7.18047 66.2878 6.98447 65.9985 6.83513C65.7185 6.67647 65.3918 6.55047 65.0185 6.45713C64.6545 6.3638 64.2765 6.27513 63.8845 6.19113C63.5018 6.0978 63.1238 5.99047 62.7505 5.86913C62.3865 5.7478 62.0598 5.58447 61.7705 5.37913C61.4905 5.1738 61.2618 4.91247 61.0845 4.59513C60.9072 4.26847 60.8185 3.8578 60.8185 3.36313C60.8185 3.0178 60.8885 2.6818 61.0285 2.35513C61.1778 2.02847 61.3925 1.73913 61.6725 1.48713C61.9618 1.23513 62.3212 1.03447 62.7505 0.885132C63.1798 0.735799 63.6745 0.661133 64.2345 0.661133C64.8038 0.661133 65.2985 0.740466 65.7185 0.899132C66.1478 1.0578 66.5025 1.27713 66.7825 1.55713C67.0625 1.8278 67.2725 2.14513 67.4125 2.50913C67.5525 2.87313 67.6225 3.26047 67.6225 3.67113H66.7125C66.7125 3.28847 66.6425 2.95713 66.5025 2.67713C66.3719 2.39713 66.1898 2.16847 65.9565 1.99113C65.7232 1.8138 65.4572 1.68313 65.1585 1.59913C64.8598 1.51513 64.5518 1.47313 64.2345 1.47313C63.7492 1.47313 63.3385 1.54313 63.0025 1.68313C62.6758 1.8138 62.4145 1.98647 62.2185 2.20113C62.0225 2.4158 61.8872 2.6538 61.8125 2.91513C61.7378 3.17647 61.7238 3.4378 61.7705 3.69913C61.8265 4.0258 61.9572 4.28713 62.1625 4.48313C62.3678 4.67913 62.6198 4.84247 62.9185 4.97313C63.2172 5.09447 63.5438 5.19713 63.8985 5.28113C64.2625 5.3558 64.6312 5.4398 65.0045 5.53313C65.3778 5.61713 65.7372 5.7198 66.0825 5.84113C66.4372 5.96247 66.7498 6.1258 67.0205 6.33113C67.2912 6.53647 67.5058 6.80247 67.6645 7.12913C67.8325 7.44647 67.9165 7.8478 67.9165 8.33313C67.9165 9.26647 67.5945 9.9898 66.9505 10.5031C66.3065 11.0165 65.4012 11.2731 64.2345 11.2731C63.7118 11.2731 63.2265 11.2031 62.7785 11.0631C62.3305 10.9325 61.9432 10.7318 61.6165 10.4611C61.2898 10.1811 61.0332 9.84047 60.8465 9.43913C60.6692 9.02847 60.5805 8.5478 60.5805 7.99713H61.5045Z" fill="black"/>
<path d="M70.0631 7.99713C70.1004 8.44513 70.1984 8.8278 70.3571 9.14513C70.5251 9.45313 70.7351 9.70513 70.9871 9.90113C71.2484 10.0971 71.5471 10.2418 71.8831 10.3351C72.2191 10.4191 72.5784 10.4611 72.9611 10.4611C73.4091 10.4611 73.7964 10.4051 74.1231 10.2931C74.4498 10.1811 74.7158 10.0318 74.9211 9.84513C75.1264 9.64913 75.2758 9.42513 75.3691 9.17313C75.4718 8.92113 75.5231 8.65513 75.5231 8.37513C75.5231 7.98313 75.4344 7.6658 75.2571 7.42313C75.0798 7.18047 74.8464 6.98447 74.5571 6.83513C74.2771 6.67647 73.9504 6.55047 73.5771 6.45713C73.2131 6.3638 72.8351 6.27513 72.4431 6.19113C72.0604 6.0978 71.6824 5.99047 71.3091 5.86913C70.9451 5.7478 70.6184 5.58447 70.3291 5.37913C70.0491 5.1738 69.8204 4.91247 69.6431 4.59513C69.4658 4.26847 69.3771 3.8578 69.3771 3.36313C69.3771 3.0178 69.4471 2.6818 69.5871 2.35513C69.7364 2.02847 69.9511 1.73913 70.2311 1.48713C70.5204 1.23513 70.8798 1.03447 71.3091 0.885133C71.7384 0.735799 72.2331 0.661133 72.7931 0.661133C73.3624 0.661133 73.8571 0.740466 74.2771 0.899132C74.7064 1.0578 75.0611 1.27713 75.3411 1.55713C75.6211 1.8278 75.8311 2.14513 75.9711 2.50913C76.1111 2.87313 76.1811 3.26047 76.1811 3.67113H75.2711C75.2711 3.28847 75.2011 2.95713 75.0611 2.67713C74.9304 2.39713 74.7484 2.16847 74.5151 1.99113C74.2818 1.8138 74.0158 1.68313 73.7171 1.59913C73.4184 1.51513 73.1104 1.47313 72.7931 1.47313C72.3078 1.47313 71.8971 1.54313 71.5611 1.68313C71.2344 1.8138 70.9731 1.98647 70.7771 2.20113C70.5811 2.4158 70.4458 2.6538 70.3711 2.91513C70.2964 3.17647 70.2824 3.4378 70.3291 3.69913C70.3851 4.0258 70.5158 4.28713 70.7211 4.48313C70.9264 4.67913 71.1784 4.84247 71.4771 4.97313C71.7758 5.09447 72.1024 5.19713 72.4571 5.28113C72.8211 5.3558 73.1898 5.4398 73.5631 5.53313C73.9364 5.61713 74.2958 5.7198 74.6411 5.84113C74.9958 5.96247 75.3084 6.1258 75.5791 6.33113C75.8498 6.53647 76.0644 6.80247 76.2231 7.12913C76.3911 7.44647 76.4751 7.8478 76.4751 8.33313C76.4751 9.26647 76.1531 9.9898 75.5091 10.5031C74.8651 11.0165 73.9598 11.2731 72.7931 11.2731C72.2704 11.2731 71.7851 11.2031 71.3371 11.0631C70.8891 10.9325 70.5018 10.7318 70.1751 10.4611C69.8484 10.1811 69.5918 9.84047 69.4051 9.43913C69.2278 9.02847 69.1391 8.5478 69.1391 7.99713H70.0631Z" fill="black"/>
<path d="M0.278687 20.9271H7.61469V21.7391H4.42269V31.0071L3.47069 31.0071L3.47069 21.7391H0.278687L0.278687 20.9271Z" fill="black"/>
<path d="M13.252 26.6111V25.7991H17.564V31.0071H16.752V29.2851C16.5747 29.5838 16.3693 29.8591 16.136 30.1111C15.912 30.3538 15.6506 30.5638 15.352 30.7411C15.0533 30.9091 14.708 31.0398 14.316 31.1331C13.924 31.2265 13.4807 31.2731 12.986 31.2731C12.3513 31.2731 11.7633 31.1611 11.222 30.9371C10.6807 30.7131 10.214 30.3818 9.82198 29.9431C9.42998 29.4951 9.12198 28.9351 8.89798 28.2631C8.68332 27.5911 8.57598 26.8071 8.57598 25.9111C8.57598 25.1738 8.66932 24.4878 8.85598 23.8531C9.04265 23.2091 9.32732 22.6538 9.70998 22.1871C10.102 21.7111 10.5873 21.3378 11.166 21.0671C11.754 20.7965 12.4447 20.6611 13.238 20.6611C13.77 20.6611 14.2647 20.7265 14.722 20.8571C15.1887 20.9878 15.604 21.1885 15.968 21.4591C16.3413 21.7205 16.654 22.0518 16.906 22.4531C17.158 22.8451 17.34 23.3118 17.452 23.8531H16.472C16.388 23.4798 16.2433 23.1438 16.038 22.8451C15.842 22.5465 15.604 22.2991 15.324 22.1031C15.044 21.8978 14.7313 21.7438 14.386 21.6411C14.0407 21.5291 13.6813 21.4731 13.308 21.4731C12.6453 21.4731 12.076 21.5898 11.6 21.8231C11.124 22.0565 10.732 22.3878 10.424 22.8171C10.116 23.2371 9.88732 23.7458 9.73798 24.3431C9.59798 24.9311 9.52798 25.5798 9.52798 26.2891C9.52798 26.8491 9.60732 27.3811 9.76598 27.8851C9.93398 28.3891 10.172 28.8325 10.48 29.2151C10.7973 29.5978 11.18 29.9011 11.628 30.1251C12.0853 30.3491 12.6033 30.4611 13.182 30.4611C13.4527 30.4611 13.7327 30.4331 14.022 30.3771C14.3113 30.3118 14.5913 30.2091 14.862 30.0691C15.1327 29.9291 15.3847 29.7471 15.618 29.5231C15.8513 29.2991 16.052 29.0238 16.22 28.6971C16.3787 28.3798 16.486 28.0485 16.542 27.7031C16.6073 27.3578 16.6447 26.9938 16.654 26.6111H13.252Z" fill="black"/>
<path d="M20.1585 31.0071V29.7751H21.1805V31.0071H20.1585ZM20.1585 25.3511V24.1191H21.1805V25.3511H20.1585Z" fill="black"/>
<path d="M26.533 26.1771C26.1876 26.1771 25.8703 26.2191 25.581 26.3031C25.2916 26.3871 25.0396 26.5178 24.825 26.6951C24.6103 26.8631 24.4423 27.0825 24.321 27.3531C24.1996 27.6145 24.139 27.9271 24.139 28.2911C24.139 28.5991 24.195 28.8838 24.307 29.1451C24.4283 29.4065 24.5916 29.6351 24.797 29.8311C25.0116 30.0178 25.2683 30.1671 25.567 30.2791C25.875 30.3911 26.2156 30.4471 26.589 30.4471C26.9156 30.4471 27.219 30.3958 27.499 30.2931C27.779 30.1811 28.0216 30.0271 28.227 29.8311C28.4416 29.6351 28.605 29.4018 28.717 29.1311C28.8383 28.8605 28.899 28.5618 28.899 28.2351C28.899 27.8898 28.8383 27.5911 28.717 27.3391C28.5956 27.0778 28.4276 26.8631 28.213 26.6951C27.9983 26.5178 27.7463 26.3871 27.457 26.3031C27.1676 26.2191 26.8596 26.1771 26.533 26.1771ZM26.491 21.8931C26.211 21.8931 25.9496 21.9305 25.707 22.0051C25.4643 22.0798 25.2496 22.1918 25.063 22.3411C24.8856 22.4905 24.7456 22.6771 24.643 22.9011C24.5403 23.1251 24.489 23.3818 24.489 23.6711C24.489 23.9791 24.545 24.2451 24.657 24.4691C24.7783 24.6838 24.937 24.8611 25.133 25.0011C25.329 25.1411 25.553 25.2485 25.805 25.3231C26.057 25.3885 26.3183 25.4211 26.589 25.4211C26.8596 25.4211 27.1116 25.3885 27.345 25.3231C27.5783 25.2485 27.779 25.1318 27.947 24.9731C28.115 24.8145 28.2456 24.6138 28.339 24.3711C28.4416 24.1285 28.493 23.8298 28.493 23.4751C28.493 22.9711 28.3296 22.5838 28.003 22.3131C27.6763 22.0331 27.1723 21.8931 26.491 21.8931ZM24.965 25.7011C24.7223 25.5518 24.5123 25.4118 24.335 25.2811C24.167 25.1411 24.027 24.9918 23.915 24.8331C23.803 24.6745 23.719 24.4971 23.663 24.3011C23.6163 24.0958 23.593 23.8438 23.593 23.5451C23.593 23.2091 23.6676 22.8918 23.817 22.5931C23.9663 22.2945 24.167 22.0378 24.419 21.8231C24.671 21.5991 24.965 21.4265 25.301 21.3051C25.6463 21.1838 26.015 21.1278 26.407 21.1371C26.7803 21.1371 27.1443 21.1838 27.499 21.2771C27.863 21.3705 28.185 21.5151 28.465 21.7111C28.745 21.9071 28.969 22.1591 29.137 22.4671C29.305 22.7658 29.389 23.1251 29.389 23.5451C29.389 24.0585 29.2816 24.4971 29.067 24.8611C28.8616 25.2251 28.521 25.5238 28.045 25.7571C28.5863 25.9531 29.011 26.2658 29.319 26.6951C29.6363 27.1245 29.795 27.6285 29.795 28.2071C29.795 28.6925 29.711 29.1218 29.543 29.4951C29.3843 29.8685 29.151 30.1811 28.843 30.4331C28.5443 30.6851 28.1803 30.8765 27.751 31.0071C27.3216 31.1378 26.8456 31.2031 26.323 31.2031C25.9683 31.2031 25.6043 31.1425 25.231 31.0211C24.867 30.8998 24.5356 30.7178 24.237 30.4751C23.9476 30.2325 23.7096 29.9291 23.523 29.5651C23.3363 29.2011 23.243 28.7765 23.243 28.2911C23.243 27.7031 23.3876 27.1805 23.677 26.7231C23.9756 26.2565 24.405 25.9158 24.965 25.7011Z" fill="black"/>
<path d="M32.4922 22.2151H32.4642V31.0071H31.5122V20.9271H32.5902L38.4142 29.7331H38.4422V20.9271H39.3942V31.0071H38.2882L32.4922 22.2151Z" fill="black"/>
</svg>
