<svg width="176" height="92" viewBox="0 0 176 92" fill="none" xmlns="http://www.w3.org/2000/svg">
<path d="M0.00665283 1.00394L0.958653 1.00394V6.37995L6.76865 1.00395L8.05665 1.00395L3.59065 5.13395L8.26665 10.9999H7.03465L2.87665 5.79195L0.958653 7.56995L0.958653 10.9999H0.0066529L0.00665283 1.00394Z" fill="black"/>
<path d="M13.2708 11.1959C12.4868 11.1959 11.7961 11.0559 11.1988 10.7759C10.6108 10.4866 10.1208 10.1039 9.72878 9.62795C9.33678 9.15195 9.04278 8.60128 8.84678 7.97595C8.65078 7.35061 8.55278 6.69261 8.55278 6.00195C8.55278 5.32061 8.65078 4.66728 8.84678 4.04195C9.04278 3.40728 9.33678 2.85195 9.72878 2.37594C10.1208 1.89061 10.6108 1.50795 11.1988 1.22795C11.7961 0.938612 12.4868 0.793945 13.2708 0.793945C14.0548 0.793945 14.7408 0.938612 15.3288 1.22795C15.9168 1.50795 16.4068 1.89061 16.7988 2.37594C17.1908 2.85195 17.4848 3.40728 17.6808 4.04195C17.8768 4.66728 17.9748 5.32061 17.9748 6.00195C17.9748 6.69261 17.8768 7.35061 17.6808 7.97595C17.4848 8.60128 17.1908 9.15195 16.7988 9.62795C16.4068 10.1039 15.9168 10.4866 15.3288 10.7759C14.7408 11.0559 14.0548 11.1959 13.2708 11.1959ZM13.2708 10.3979C13.9241 10.3979 14.4888 10.2719 14.9648 10.0199C15.4408 9.76795 15.8281 9.43661 16.1268 9.02595C16.4348 8.60595 16.6588 8.13461 16.7988 7.61195C16.9481 7.08928 17.0228 6.55261 17.0228 6.00195C17.0228 5.46061 16.9481 4.92861 16.7988 4.40595C16.6588 3.87395 16.4348 3.40261 16.1268 2.99195C15.8281 2.57195 15.4408 2.23595 14.9648 1.98395C14.4888 1.73195 13.9241 1.60595 13.2708 1.60595C12.6081 1.60595 12.0388 1.73195 11.5628 1.98395C11.0868 2.23595 10.6948 2.57195 10.3868 2.99195C10.0881 3.40261 9.86411 3.87395 9.71478 4.40595C9.57478 4.92861 9.50478 5.46061 9.50478 6.00195C9.50478 6.55261 9.57478 7.08928 9.71478 7.61195C9.86411 8.13461 10.0881 8.60595 10.3868 9.02595C10.6948 9.43661 11.0868 9.76795 11.5628 10.0199C12.0388 10.2719 12.6081 10.3979 13.2708 10.3979Z" fill="black"/>
<path d="M22.8357 5.31595L18.6917 1.00395H19.9797L24.9077 6.26795V1.00395H25.8597V6.26795L30.7877 1.00395H32.0757L27.9317 5.31595L32.4257 10.9999H31.1937L27.2597 6.01595L25.8597 7.47195V10.9999H24.9077V7.47195L23.5077 6.01595L19.5737 10.9999H18.3417L22.8357 5.31595Z" fill="black"/>
<path d="M36.251 1.00395L37.315 1.00395L41.235 10.9999H40.213L38.995 7.89195H34.445L33.241 10.9999H32.233L36.251 1.00395ZM38.673 7.07995L36.741 1.95595L34.739 7.07995H38.673Z" fill="black"/>
<path d="M49.4139 5.31595L45.2699 1.00395L46.5579 1.00395L51.4859 6.26795V1.00395L52.4379 1.00395V6.26795L57.3659 1.00395L58.6539 1.00395L54.5099 5.31595L59.0039 10.9999H57.7719L53.8379 6.01595L52.4379 7.47195V10.9999H51.4859V7.47195L50.0859 6.01595L46.1519 10.9999H44.9199L49.4139 5.31595Z" fill="black"/>
<path d="M59.9031 1.00395L66.8051 1.00395V1.81595H60.8551V5.42795H66.4271V6.23995H60.8551V10.1879H66.8751V10.9999H59.9031V1.00395Z" fill="black"/>
<path d="M68.202 1.00395L69.154 1.00395V5.34395H75.09V1.00395L76.042 1.00395V10.9999H75.09V6.15595H69.154V10.9999H68.202V1.00395Z" fill="black"/>
<path d="M90.6174 10.9999H78.0594V1.00395L79.0114 1.00395V10.1879H83.7434V1.00395H84.6954V10.1879H89.4274V1.00395H90.3794V10.1879H91.5694V13.6599H90.6174V10.9999Z" fill="black"/>
<path d="M92.6883 1.00395H93.6403V9.97795L99.3803 1.00395L100.612 1.00395V10.9999H99.6603V2.02595L93.9203 10.9999H92.6883V1.00395Z" fill="black"/>
<path d="M102.628 1.00395L103.58 1.00395V5.34395H109.516V1.00395H110.468V10.9999H109.516V6.15595H103.58V10.9999H102.628V1.00395Z" fill="black"/>
<path d="M112.485 1.00395H113.437V5.23195H116.923C117.857 5.23195 118.585 5.48861 119.107 6.00195C119.63 6.51528 119.891 7.21995 119.891 8.11595C119.891 9.01195 119.63 9.71661 119.107 10.2299C118.585 10.7433 117.857 10.9999 116.923 10.9999H112.485V1.00395ZM116.713 10.1879C117.413 10.1879 117.959 10.0059 118.351 9.64195C118.743 9.26861 118.939 8.75995 118.939 8.11595C118.939 7.47195 118.743 6.96795 118.351 6.60395C117.959 6.23061 117.413 6.04395 116.713 6.04395H113.437V10.1879H116.713ZM121.361 1.00395H122.313V10.9999H121.361V1.00395Z" fill="black"/>
<path d="M0.00665296 21.0039H4.23465C4.65465 21.0039 5.05599 21.0459 5.43865 21.1299C5.83065 21.2046 6.17132 21.3399 6.46065 21.5359C6.75932 21.7226 6.99732 21.9746 7.17465 22.2919C7.35199 22.5999 7.44065 22.9873 7.44065 23.4539C7.44065 23.7153 7.39865 23.9719 7.31465 24.2239C7.23065 24.4666 7.10932 24.6906 6.95065 24.8959C6.80132 25.0919 6.61932 25.2599 6.40465 25.3999C6.19932 25.5399 5.96599 25.6379 5.70465 25.6939V25.7219C6.34865 25.8059 6.86199 26.0719 7.24465 26.5199C7.62732 26.9586 7.81865 27.5046 7.81865 28.1579C7.81865 28.4006 7.78132 28.6853 7.70665 29.0119C7.64132 29.3293 7.48732 29.6373 7.24465 29.9359C7.00199 30.2346 6.64265 30.4866 6.16665 30.6919C5.69065 30.8973 5.04665 30.9999 4.23465 30.9999L0.00665303 30.9999L0.00665296 21.0039ZM4.23465 30.1879C4.58932 30.1879 4.92532 30.1599 5.24265 30.1039C5.55999 30.0386 5.83999 29.9266 6.08265 29.7679C6.32532 29.6093 6.51665 29.3993 6.65665 29.1379C6.79665 28.8766 6.86665 28.5406 6.86665 28.1299C6.86665 27.4859 6.63799 27.0053 6.18065 26.6879C5.73265 26.3613 5.08399 26.1979 4.23465 26.1979H0.958653V30.1879H4.23465ZM4.23465 25.3859C4.60799 25.3859 4.93465 25.3439 5.21465 25.2599C5.50399 25.1666 5.74199 25.0453 5.92865 24.8959C6.11532 24.7373 6.25532 24.5553 6.34865 24.3499C6.44199 24.1446 6.48865 23.9253 6.48865 23.6919C6.48865 22.4413 5.73732 21.8159 4.23465 21.8159H0.958653V25.3859L4.23465 25.3859Z" fill="black"/>
<path d="M17.483 31.1959C16.699 31.1959 16.0084 31.0559 15.411 30.7759C14.823 30.4866 14.333 30.1039 13.941 29.6279C13.549 29.1519 13.255 28.6013 13.059 27.9759C12.863 27.3506 12.765 26.6926 12.765 26.0019C12.765 25.3206 12.863 24.6673 13.059 24.0419C13.255 23.4073 13.549 22.8519 13.941 22.3759C14.333 21.8906 14.823 21.5079 15.411 21.2279C16.0084 20.9386 16.699 20.7939 17.483 20.7939C17.959 20.7939 18.421 20.8639 18.869 21.0039C19.3264 21.1439 19.737 21.3539 20.101 21.6339C20.4744 21.9046 20.7824 22.2406 21.025 22.6419C21.277 23.0433 21.4357 23.5053 21.501 24.0279H20.549C20.465 23.6453 20.325 23.3046 20.129 23.0059C19.9424 22.6979 19.709 22.4413 19.429 22.2359C19.1584 22.0306 18.855 21.8766 18.519 21.7739C18.1924 21.6619 17.847 21.6059 17.483 21.6059C16.8204 21.6059 16.251 21.7319 15.775 21.9839C15.299 22.2359 14.907 22.5719 14.599 22.9919C14.3004 23.4026 14.0764 23.8739 13.927 24.4059C13.787 24.9286 13.717 25.4606 13.717 26.0019C13.717 26.5526 13.787 27.0893 13.927 27.6119C14.0764 28.1346 14.3004 28.6059 14.599 29.0259C14.907 29.4366 15.299 29.7679 15.775 30.0199C16.251 30.2719 16.8204 30.3979 17.483 30.3979C17.9404 30.3979 18.3557 30.3139 18.729 30.1459C19.1117 29.9779 19.4384 29.7493 19.709 29.4599C19.9797 29.1706 20.199 28.8346 20.367 28.4519C20.535 28.0599 20.6424 27.6399 20.689 27.1919H21.641C21.5757 27.8079 21.431 28.3633 21.207 28.8579C20.983 29.3526 20.6937 29.7726 20.339 30.1179C19.9844 30.4633 19.5644 30.7293 19.079 30.9159C18.603 31.1026 18.071 31.1959 17.483 31.1959Z" fill="black"/>
<path d="M23.0984 21.0039H24.0504V25.2319H27.5364C28.4698 25.2319 29.1978 25.4886 29.7204 26.0019C30.2431 26.5153 30.5044 27.2199 30.5044 28.1159C30.5044 29.0119 30.2431 29.7166 29.7204 30.2299C29.1978 30.7433 28.4698 30.9999 27.5364 30.9999H23.0984V21.0039ZM27.3265 30.1879C28.0265 30.1879 28.5725 30.0059 28.9645 29.6419C29.3565 29.2686 29.5525 28.7599 29.5525 28.1159C29.5525 27.4719 29.3565 26.9679 28.9645 26.6039C28.5725 26.2306 28.0265 26.0439 27.3265 26.0439H24.0504V30.1879H27.3265ZM31.9745 21.0039H32.9264V30.9999H31.9745V21.0039Z" fill="black"/>
<path d="M38.4663 31.2099C37.8503 31.2099 37.295 31.1353 36.8003 30.9859C36.3056 30.8273 35.8856 30.6033 35.5403 30.3139C35.2043 30.0153 34.943 29.6559 34.7563 29.2359C34.579 28.8066 34.4903 28.3259 34.4903 27.7939V27.7099H35.4003C35.4003 28.6339 35.685 29.3199 36.2543 29.7679C36.8236 30.2159 37.5843 30.4399 38.5363 30.4399C38.9563 30.4399 39.3343 30.3793 39.6703 30.2579C40.0063 30.1273 40.2863 29.9546 40.5103 29.7399C40.7436 29.5253 40.921 29.2779 41.0423 28.9979C41.173 28.7086 41.2383 28.4053 41.2383 28.0879C41.2383 27.7986 41.1776 27.5373 41.0563 27.3039C40.9443 27.0613 40.7856 26.8559 40.5803 26.6879C40.375 26.5199 40.1323 26.3893 39.8523 26.2959C39.5816 26.2026 39.2876 26.1559 38.9703 26.1559L37.3743 26.1559V25.3439H38.9703C39.2316 25.3439 39.4836 25.3066 39.7263 25.2319C39.969 25.1573 40.1836 25.0499 40.3703 24.9099C40.557 24.7606 40.7016 24.5786 40.8043 24.3639C40.9163 24.1399 40.9723 23.8833 40.9723 23.5939C40.9723 23.2486 40.907 22.9499 40.7763 22.6979C40.655 22.4459 40.487 22.2406 40.2723 22.0819C40.0576 21.9139 39.801 21.7926 39.5023 21.7179C39.2036 21.6339 38.8863 21.5919 38.5503 21.5919C38.1583 21.5919 37.7943 21.6386 37.4583 21.7319C37.1223 21.8253 36.8283 21.9699 36.5763 22.1659C36.3336 22.3526 36.1376 22.5906 35.9883 22.8799C35.8483 23.1599 35.7643 23.4866 35.7363 23.8599H34.8123C34.8403 23.3466 34.9476 22.8986 35.1343 22.5159C35.3303 22.1333 35.5916 21.8159 35.9183 21.5639C36.245 21.3026 36.6276 21.1113 37.0663 20.9899C37.5143 20.8593 37.9996 20.7939 38.5223 20.7939C38.989 20.7939 39.4276 20.8499 39.8383 20.9619C40.2583 21.0646 40.6223 21.2279 40.9303 21.4519C41.2383 21.6759 41.481 21.9606 41.6583 22.3059C41.8356 22.6419 41.9243 23.0433 41.9243 23.5099C41.9243 23.7713 41.8823 24.0186 41.7983 24.2519C41.7143 24.4759 41.6023 24.6813 41.4623 24.8679C41.3223 25.0453 41.1636 25.1993 40.9863 25.3299C40.809 25.4606 40.6316 25.5586 40.4543 25.6239V25.6659C40.9863 25.8059 41.4063 26.0766 41.7143 26.4779C42.0316 26.8699 42.1903 27.4019 42.1903 28.0739C42.1903 28.3819 42.125 28.7179 41.9943 29.0819C41.873 29.4459 41.6676 29.7866 41.3783 30.1039C41.089 30.4213 40.7063 30.6873 40.2303 30.9019C39.7543 31.1073 39.1663 31.2099 38.4663 31.2099Z" fill="black"/>
<path d="M43.7156 21.0039H48.1536C48.6016 21.0039 49.0076 21.0693 49.3716 21.1999C49.7356 21.3213 50.0483 21.5079 50.3096 21.7599C50.571 22.0026 50.7716 22.3013 50.9116 22.6559C51.0516 23.0106 51.1216 23.4119 51.1216 23.8599C51.1216 24.3079 51.0516 24.7093 50.9116 25.0639C50.7716 25.4186 50.571 25.7219 50.3096 25.9739C50.0483 26.2166 49.7356 26.4033 49.3716 26.5339C49.0076 26.6553 48.6016 26.7159 48.1536 26.7159H44.6676V30.9999H43.7156V21.0039ZM47.9436 25.9039C48.6063 25.9039 49.143 25.7359 49.5536 25.3999C49.9643 25.0639 50.1696 24.5506 50.1696 23.8599C50.1696 23.1693 49.9643 22.6559 49.5536 22.3199C49.143 21.9839 48.6063 21.8159 47.9436 21.8159H44.6676V25.9039H47.9436Z" fill="black"/>
<path d="M55.46 21.0039H56.524L60.444 30.9999H59.422L58.204 27.8919H53.654L52.45 30.9999H51.442L55.46 21.0039ZM57.882 27.0799L55.95 21.9559L53.948 27.0799H57.882Z" fill="black"/>
<path d="M61.3524 21.0039H62.3044V25.3439H68.2404V21.0039H69.1924V30.9999H68.2404V26.1559H62.3044V30.9999H61.3524V21.0039Z" fill="black"/>
<path d="M71.2098 21.0039H72.1618V29.9779L77.9018 21.0039H79.1338V30.9999H78.1818V22.0259L72.4418 30.9999H71.2098V21.0039Z" fill="black"/>
<path d="M89.2877 31.1959C88.5037 31.1959 87.813 31.0559 87.2157 30.7759C86.6277 30.4866 86.1377 30.1039 85.7457 29.6279C85.3537 29.1519 85.0597 28.6013 84.8637 27.9759C84.6677 27.3506 84.5697 26.6926 84.5697 26.0019C84.5697 25.3206 84.6677 24.6673 84.8637 24.0419C85.0597 23.4073 85.3537 22.8519 85.7457 22.3759C86.1377 21.8906 86.6277 21.5079 87.2157 21.2279C87.813 20.9386 88.5037 20.7939 89.2877 20.7939C89.7637 20.7939 90.2257 20.8639 90.6737 21.0039C91.131 21.1439 91.5417 21.3539 91.9057 21.6339C92.279 21.9046 92.587 22.2406 92.8297 22.6419C93.0817 23.0433 93.2404 23.5053 93.3057 24.0279H92.3537C92.2697 23.6453 92.1297 23.3046 91.9337 23.0059C91.747 22.6979 91.5137 22.4413 91.2337 22.2359C90.9631 22.0306 90.6597 21.8766 90.3237 21.7739C89.997 21.6619 89.6517 21.6059 89.2877 21.6059C88.625 21.6059 88.0557 21.7319 87.5797 21.9839C87.1037 22.2359 86.7117 22.5719 86.4037 22.9919C86.1051 23.4026 85.881 23.8739 85.7317 24.4059C85.5917 24.9286 85.5217 25.4606 85.5217 26.0019C85.5217 26.5526 85.5917 27.0893 85.7317 27.6119C85.881 28.1346 86.1051 28.6059 86.4037 29.0259C86.7117 29.4366 87.1037 29.7679 87.5797 30.0199C88.0557 30.2719 88.625 30.3979 89.2877 30.3979C89.745 30.3979 90.1604 30.3139 90.5337 30.1459C90.9164 29.9779 91.2431 29.7493 91.5137 29.4599C91.7844 29.1706 92.0037 28.8346 92.1717 28.4519C92.3397 28.0599 92.447 27.6399 92.4937 27.1919H93.4457C93.3804 27.8079 93.2357 28.3633 93.0117 28.8579C92.7877 29.3526 92.4984 29.7726 92.1437 30.1179C91.789 30.4633 91.369 30.7293 90.8837 30.9159C90.4077 31.1026 89.8757 31.1959 89.2877 31.1959Z" fill="black"/>
<path d="M97.3111 21.8159H93.8391V21.0039H101.749V21.8159H98.2631V30.9999H97.3111V21.8159Z" fill="black"/>
<path d="M105.608 21.0039H106.672L110.592 30.9999H109.57L108.352 27.8919H103.802L102.598 30.9999H101.59L105.608 21.0039ZM108.03 27.0799L106.098 21.9559L104.096 27.0799H108.03Z" fill="black"/>
<path d="M111.249 31.0839C111.193 31.0839 111.123 31.0793 111.039 31.0699C110.964 31.0606 110.885 31.0513 110.801 31.0419C110.717 31.0326 110.642 31.0186 110.577 30.9999C110.511 30.9906 110.465 30.9813 110.437 30.9719V30.1599C110.511 30.1973 110.623 30.2253 110.773 30.2439C110.931 30.2533 111.048 30.2579 111.123 30.2579C111.225 30.2579 111.347 30.2486 111.487 30.2299C111.627 30.2019 111.771 30.1179 111.921 29.9779C112.079 29.8286 112.233 29.5999 112.383 29.2919C112.541 28.9746 112.677 28.5266 112.789 27.9479C112.91 27.3599 113.008 26.6179 113.083 25.7219C113.157 24.8259 113.195 23.7246 113.195 22.4179V21.0039H119.341V30.9999H118.389V21.8159H114.119V22.3619C114.119 23.8179 114.072 25.0453 113.979 26.0439C113.885 27.0333 113.759 27.8546 113.601 28.5079C113.442 29.1519 113.26 29.6513 113.055 30.0059C112.859 30.3513 112.653 30.6033 112.439 30.7619C112.233 30.9206 112.023 31.0139 111.809 31.0419C111.603 31.0699 111.417 31.0839 111.249 31.0839Z" fill="black"/>
<path d="M124.284 21.0039H125.348L129.268 30.9999H128.246L127.028 27.8919H122.478L121.274 30.9999H120.266L124.284 21.0039ZM126.706 27.0799L124.774 21.9559L122.772 27.0799H126.706Z" fill="black"/>
<path d="M0.00665309 41.0039H4.44465C4.89265 41.0039 5.29865 41.0693 5.66265 41.1999C6.02665 41.3213 6.33932 41.5079 6.60065 41.7599C6.86199 42.0026 7.06265 42.3013 7.20265 42.6559C7.34265 43.0106 7.41265 43.4119 7.41265 43.8599C7.41265 44.3079 7.34265 44.7093 7.20265 45.0639C7.06265 45.4186 6.86199 45.7219 6.60065 45.9739C6.33932 46.2166 6.02665 46.4033 5.66265 46.5339C5.29865 46.6553 4.89265 46.7159 4.44465 46.7159H0.958653V50.9999H0.00665316L0.00665309 41.0039ZM4.23465 45.9039C4.89732 45.9039 5.43399 45.7359 5.84465 45.3999C6.25532 45.0639 6.46065 44.5506 6.46065 43.8599C6.46065 43.1693 6.25532 42.6559 5.84465 42.3199C5.43399 41.9839 4.89732 41.8159 4.23465 41.8159H0.958653L0.958653 45.9039H4.23465Z" fill="black"/>
<path d="M13.011 51.1959C12.227 51.1959 11.5363 51.0559 10.939 50.7759C10.351 50.4866 9.86101 50.1039 9.46901 49.6279C9.07701 49.1519 8.78301 48.6013 8.58701 47.9759C8.39101 47.3506 8.29301 46.6926 8.29301 46.0019C8.29301 45.3206 8.39101 44.6673 8.58701 44.0419C8.78301 43.4073 9.07701 42.8519 9.46901 42.3759C9.86101 41.8906 10.351 41.5079 10.939 41.2279C11.5363 40.9386 12.227 40.7939 13.011 40.7939C13.795 40.7939 14.481 40.9386 15.069 41.2279C15.657 41.5079 16.147 41.8906 16.539 42.3759C16.931 42.8519 17.225 43.4073 17.421 44.0419C17.617 44.6673 17.715 45.3206 17.715 46.0019C17.715 46.6926 17.617 47.3506 17.421 47.9759C17.225 48.6013 16.931 49.1519 16.539 49.6279C16.147 50.1039 15.657 50.4866 15.069 50.7759C14.481 51.0559 13.795 51.1959 13.011 51.1959ZM13.011 50.3979C13.6643 50.3979 14.229 50.2719 14.705 50.0199C15.181 49.7679 15.5683 49.4366 15.867 49.0259C16.175 48.6059 16.399 48.1346 16.539 47.6119C16.6883 47.0893 16.763 46.5526 16.763 46.0019C16.763 45.4606 16.6883 44.9286 16.539 44.4059C16.399 43.8739 16.175 43.4026 15.867 42.9919C15.5683 42.5719 15.181 42.2359 14.705 41.9839C14.229 41.7319 13.6643 41.6059 13.011 41.6059C12.3483 41.6059 11.779 41.7319 11.303 41.9839C10.827 42.2359 10.435 42.5719 10.127 42.9919C9.82835 43.4026 9.60435 43.8739 9.45501 44.4059C9.31501 44.9286 9.24501 45.4606 9.24501 46.0019C9.24501 46.5526 9.31501 47.0893 9.45501 47.6119C9.60435 48.1346 9.82835 48.6059 10.127 49.0259C10.435 49.4366 10.827 49.7679 11.303 50.0199C11.779 50.2719 12.3483 50.3979 13.011 50.3979Z" fill="black"/>
<path d="M22.73 51.2099C22.114 51.2099 21.5586 51.1353 21.064 50.9859C20.5693 50.8273 20.1493 50.6033 19.804 50.3139C19.468 50.0153 19.2066 49.6559 19.02 49.2359C18.8426 48.8066 18.754 48.3259 18.754 47.7939V47.7099H19.664C19.664 48.6339 19.9486 49.3199 20.518 49.7679C21.0873 50.2159 21.848 50.4399 22.8 50.4399C23.22 50.4399 23.598 50.3793 23.934 50.2579C24.27 50.1273 24.55 49.9546 24.774 49.7399C25.0073 49.5253 25.1846 49.2779 25.306 48.9979C25.4366 48.7086 25.502 48.4053 25.502 48.0879C25.502 47.7986 25.4413 47.5373 25.32 47.3039C25.208 47.0613 25.0493 46.8559 24.844 46.6879C24.6386 46.5199 24.396 46.3893 24.116 46.2959C23.8453 46.2026 23.5513 46.1559 23.234 46.1559H21.638V45.3439H23.234C23.4953 45.3439 23.7473 45.3066 23.99 45.2319C24.2326 45.1573 24.4473 45.0499 24.634 44.9099C24.8206 44.7606 24.9653 44.5786 25.068 44.3639C25.18 44.1399 25.236 43.8833 25.236 43.5939C25.236 43.2486 25.1706 42.9499 25.04 42.6979C24.9186 42.4459 24.7506 42.2406 24.536 42.0819C24.3213 41.9139 24.0646 41.7926 23.766 41.7179C23.4673 41.6339 23.15 41.5919 22.814 41.5919C22.422 41.5919 22.058 41.6386 21.722 41.7319C21.386 41.8253 21.092 41.9699 20.84 42.1659C20.5973 42.3526 20.4013 42.5906 20.252 42.8799C20.112 43.1599 20.028 43.4866 20 43.8599H19.076C19.104 43.3466 19.2113 42.8986 19.398 42.5159C19.594 42.1333 19.8553 41.8159 20.182 41.5639C20.5086 41.3026 20.8913 41.1113 21.33 40.9899C21.778 40.8593 22.2633 40.7939 22.786 40.7939C23.2526 40.7939 23.6913 40.8499 24.102 40.9619C24.522 41.0646 24.886 41.2279 25.194 41.4519C25.502 41.6759 25.7446 41.9606 25.922 42.3059C26.0993 42.6419 26.188 43.0433 26.188 43.5099C26.188 43.7713 26.146 44.0186 26.062 44.2519C25.978 44.4759 25.866 44.6813 25.726 44.8679C25.586 45.0453 25.4273 45.1993 25.25 45.3299C25.0726 45.4606 24.8953 45.5586 24.718 45.6239V45.6659C25.25 45.8059 25.67 46.0766 25.978 46.4779C26.2953 46.8699 26.454 47.4019 26.454 48.0739C26.454 48.3819 26.3886 48.7179 26.258 49.0819C26.1366 49.4459 25.9313 49.7866 25.642 50.1039C25.3526 50.4213 24.97 50.6873 24.494 50.9019C24.018 51.1073 23.43 51.2099 22.73 51.2099Z" fill="black"/>
<path d="M32.1653 51.1959C31.3813 51.1959 30.6906 51.0559 30.0933 50.7759C29.5053 50.4866 29.0153 50.1039 28.6233 49.6279C28.2313 49.1519 27.9373 48.6013 27.7413 47.9759C27.5453 47.3506 27.4473 46.6926 27.4473 46.0019C27.4473 45.3206 27.5453 44.6673 27.7413 44.0419C27.9373 43.4073 28.2313 42.8519 28.6233 42.3759C29.0153 41.8906 29.5053 41.5079 30.0933 41.2279C30.6906 40.9386 31.3813 40.7939 32.1653 40.7939C32.9493 40.7939 33.6353 40.9386 34.2233 41.2279C34.8113 41.5079 35.3013 41.8906 35.6933 42.3759C36.0853 42.8519 36.3793 43.4073 36.5753 44.0419C36.7713 44.6673 36.8693 45.3206 36.8693 46.0019C36.8693 46.6926 36.7713 47.3506 36.5753 47.9759C36.3793 48.6013 36.0853 49.1519 35.6933 49.6279C35.3013 50.1039 34.8113 50.4866 34.2233 50.7759C33.6353 51.0559 32.9493 51.1959 32.1653 51.1959ZM32.1653 50.3979C32.8186 50.3979 33.3833 50.2719 33.8593 50.0199C34.3353 49.7679 34.7226 49.4366 35.0213 49.0259C35.3293 48.6059 35.5533 48.1346 35.6933 47.6119C35.8426 47.0893 35.9173 46.5526 35.9173 46.0019C35.9173 45.4606 35.8426 44.9286 35.6933 44.4059C35.5533 43.8739 35.3293 43.4026 35.0213 42.9919C34.7226 42.5719 34.3353 42.2359 33.8593 41.9839C33.3833 41.7319 32.8186 41.6059 32.1653 41.6059C31.5026 41.6059 30.9333 41.7319 30.4573 41.9839C29.9813 42.2359 29.5893 42.5719 29.2813 42.9919C28.9826 43.4026 28.7586 43.8739 28.6093 44.4059C28.4693 44.9286 28.3993 45.4606 28.3993 46.0019C28.3993 46.5526 28.4693 47.0893 28.6093 47.6119C28.7586 48.1346 28.9826 48.6059 29.2813 49.0259C29.5893 49.4366 29.9813 49.7679 30.4573 50.0199C30.9333 50.2719 31.5026 50.3979 32.1653 50.3979Z" fill="black"/>
<path d="M38.3563 41.0039H42.5843C43.0043 41.0039 43.4056 41.0459 43.7883 41.1299C44.1803 41.2046 44.5209 41.3399 44.8103 41.5359C45.1089 41.7226 45.3469 41.9746 45.5243 42.2919C45.7016 42.5999 45.7903 42.9873 45.7903 43.4539C45.7903 43.7153 45.7483 43.9719 45.6643 44.2239C45.5803 44.4666 45.4589 44.6906 45.3003 44.8959C45.1509 45.0919 44.9689 45.2599 44.7543 45.3999C44.5489 45.5399 44.3156 45.6379 44.0543 45.6939V45.7219C44.6983 45.8059 45.2116 46.0719 45.5943 46.5199C45.9769 46.9586 46.1683 47.5046 46.1683 48.1579C46.1683 48.4006 46.1309 48.6853 46.0563 49.0119C45.9909 49.3293 45.8369 49.6373 45.5943 49.9359C45.3516 50.2346 44.9923 50.4866 44.5163 50.6919C44.0403 50.8973 43.3963 50.9999 42.5843 50.9999H38.3563V41.0039ZM42.5843 50.1879C42.9389 50.1879 43.2749 50.1599 43.5923 50.1039C43.9096 50.0386 44.1896 49.9266 44.4323 49.7679C44.6749 49.6093 44.8663 49.3993 45.0063 49.1379C45.1463 48.8766 45.2163 48.5406 45.2163 48.1299C45.2163 47.4859 44.9876 47.0053 44.5303 46.6879C44.0823 46.3613 43.4336 46.1979 42.5843 46.1979H39.3083V50.1879H42.5843ZM42.5843 45.3859C42.9576 45.3859 43.2843 45.3439 43.5643 45.2599C43.8536 45.1666 44.0916 45.0453 44.2783 44.8959C44.4649 44.7373 44.6049 44.5553 44.6983 44.3499C44.7916 44.1446 44.8383 43.9253 44.8383 43.6919C44.8383 42.4413 44.0869 41.8159 42.5843 41.8159H39.3083V45.3859H42.5843Z" fill="black"/>
<path d="M51.8802 51.1959C51.0962 51.1959 50.4055 51.0559 49.8082 50.7759C49.2202 50.4866 48.7302 50.1039 48.3382 49.6279C47.9462 49.1519 47.6522 48.6013 47.4562 47.9759C47.2602 47.3506 47.1622 46.6926 47.1622 46.0019C47.1622 45.3206 47.2602 44.6673 47.4562 44.0419C47.6522 43.4073 47.9462 42.8519 48.3382 42.3759C48.7302 41.8906 49.2202 41.5079 49.8082 41.2279C50.4055 40.9386 51.0962 40.7939 51.8802 40.7939C52.6642 40.7939 53.3502 40.9386 53.9382 41.2279C54.5262 41.5079 55.0162 41.8906 55.4082 42.3759C55.8002 42.8519 56.0942 43.4073 56.2902 44.0419C56.4862 44.6673 56.5842 45.3206 56.5842 46.0019C56.5842 46.6926 56.4862 47.3506 56.2902 47.9759C56.0942 48.6013 55.8002 49.1519 55.4082 49.6279C55.0162 50.1039 54.5262 50.4866 53.9382 50.7759C53.3502 51.0559 52.6642 51.1959 51.8802 51.1959ZM51.8802 50.3979C52.5335 50.3979 53.0982 50.2719 53.5742 50.0199C54.0502 49.7679 54.4375 49.4366 54.7362 49.0259C55.0442 48.6059 55.2682 48.1346 55.4082 47.6119C55.5575 47.0893 55.6322 46.5526 55.6322 46.0019C55.6322 45.4606 55.5575 44.9286 55.4082 44.4059C55.2682 43.8739 55.0442 43.4026 54.7362 42.9919C54.4375 42.5719 54.0502 42.2359 53.5742 41.9839C53.0982 41.7319 52.5335 41.6059 51.8802 41.6059C51.2175 41.6059 50.6482 41.7319 50.1722 41.9839C49.6962 42.2359 49.3042 42.5719 48.9962 42.9919C48.6975 43.4026 48.4735 43.8739 48.3242 44.4059C48.1842 44.9286 48.1142 45.4606 48.1142 46.0019C48.1142 46.5526 48.1842 47.0893 48.3242 47.6119C48.4735 48.1346 48.6975 48.6059 48.9962 49.0259C49.3042 49.4366 49.6962 49.7679 50.1722 50.0199C50.6482 50.2719 51.2175 50.3979 51.8802 50.3979Z" fill="black"/>
<path d="M58.0711 41.0039H59.0231V49.9779L64.7631 41.0039H65.9951V50.9999H65.0431V42.0259L59.3031 50.9999H58.0711V41.0039ZM61.9491 40.1779C61.3611 40.1779 60.9038 40.0239 60.5771 39.7159C60.2504 39.3986 60.0498 38.9459 59.9751 38.3579H60.5211C60.5678 38.7126 60.7124 38.9926 60.9551 39.1979C61.2071 39.4033 61.5431 39.5059 61.9631 39.5059C62.3644 39.5059 62.6911 39.4079 62.9431 39.2119C63.2044 39.0066 63.3724 38.7219 63.4471 38.3579H63.9931C63.8904 38.9459 63.6711 39.3986 63.3351 39.7159C62.9991 40.0239 62.5371 40.1779 61.9491 40.1779Z" fill="black"/>
<path d="M68.8226 44.0559V40.9199H69.8446V44.0559L69.6486 48.4659H69.0186L68.8226 44.0559ZM68.8226 50.9999V49.7679H69.8446V50.9999H68.8226Z" fill="black"/>
<path d="M73.4847 44.0559V40.9199H74.5067V44.0559L74.3107 48.4659H73.6807L73.4847 44.0559ZM73.4847 50.9999V49.7679H74.5067V50.9999H73.4847Z" fill="black"/>
<path d="M78.1468 44.0559V40.9199H79.1688V44.0559L78.9728 48.4659H78.3428L78.1468 44.0559ZM78.1468 50.9999V49.7679H79.1688V50.9999H78.1468Z" fill="black"/>
<path d="M89.4214 51.2099C88.8054 51.2099 88.25 51.1353 87.7554 50.9859C87.2607 50.8273 86.8407 50.6033 86.4954 50.3139C86.1594 50.0153 85.898 49.6559 85.7114 49.2359C85.534 48.8066 85.4454 48.3259 85.4454 47.7939V47.7099H86.3554C86.3554 48.6339 86.64 49.3199 87.2094 49.7679C87.7787 50.2159 88.5394 50.4399 89.4914 50.4399C89.9114 50.4399 90.2894 50.3793 90.6254 50.2579C90.9614 50.1273 91.2414 49.9546 91.4654 49.7399C91.6987 49.5253 91.876 49.2779 91.9974 48.9979C92.128 48.7086 92.1934 48.4053 92.1934 48.0879C92.1934 47.7986 92.1327 47.5373 92.0114 47.3039C91.8994 47.0613 91.7407 46.8559 91.5354 46.6879C91.33 46.5199 91.0874 46.3893 90.8074 46.2959C90.5367 46.2026 90.2427 46.1559 89.9254 46.1559H88.3294V45.3439H89.9254C90.1867 45.3439 90.4387 45.3066 90.6814 45.2319C90.924 45.1573 91.1387 45.0499 91.3254 44.9099C91.512 44.7606 91.6567 44.5786 91.7594 44.3639C91.8714 44.1399 91.9274 43.8833 91.9274 43.5939C91.9274 43.2486 91.862 42.9499 91.7314 42.6979C91.61 42.4459 91.442 42.2406 91.2274 42.0819C91.0127 41.9139 90.756 41.7926 90.4574 41.7179C90.1587 41.6339 89.8414 41.5919 89.5054 41.5919C89.1134 41.5919 88.7494 41.6386 88.4134 41.7319C88.0774 41.8253 87.7834 41.9699 87.5314 42.1659C87.2887 42.3526 87.0927 42.5906 86.9434 42.8799C86.8034 43.1599 86.7194 43.4866 86.6914 43.8599H85.7674C85.7954 43.3466 85.9027 42.8986 86.0894 42.5159C86.2854 42.1333 86.5467 41.8159 86.8734 41.5639C87.2 41.3026 87.5827 41.1113 88.0214 40.9899C88.4694 40.8593 88.9547 40.7939 89.4774 40.7939C89.944 40.7939 90.3827 40.8499 90.7934 40.9619C91.2134 41.0646 91.5774 41.2279 91.8854 41.4519C92.1934 41.6759 92.436 41.9606 92.6134 42.3059C92.7907 42.6419 92.8794 43.0433 92.8794 43.5099C92.8794 43.7713 92.8374 44.0186 92.7534 44.2519C92.6694 44.4759 92.5574 44.6813 92.4174 44.8679C92.2774 45.0453 92.1187 45.1993 91.9414 45.3299C91.764 45.4606 91.5867 45.5586 91.4094 45.6239V45.6659C91.9414 45.8059 92.3614 46.0766 92.6694 46.4779C92.9867 46.8699 93.1454 47.4019 93.1454 48.0739C93.1454 48.3819 93.08 48.7179 92.9494 49.0819C92.828 49.4459 92.6227 49.7866 92.3334 50.1039C92.044 50.4213 91.6614 50.6873 91.1854 50.9019C90.7094 51.1073 90.1214 51.2099 89.4214 51.2099Z" fill="black"/>
<path d="M94.6707 41.0039H98.8987C99.3187 41.0039 99.72 41.0459 100.103 41.1299C100.495 41.2046 100.835 41.3399 101.125 41.5359C101.423 41.7226 101.661 41.9746 101.839 42.2919C102.016 42.5999 102.105 42.9873 102.105 43.4539C102.105 43.7153 102.063 43.9719 101.979 44.2239C101.895 44.4666 101.773 44.6906 101.615 44.8959C101.465 45.0919 101.283 45.2599 101.069 45.3999C100.863 45.5399 100.63 45.6379 100.369 45.6939V45.7219C101.013 45.8059 101.526 46.0719 101.909 46.5199C102.291 46.9586 102.483 47.5046 102.483 48.1579C102.483 48.4006 102.445 48.6853 102.371 49.0119C102.305 49.3293 102.151 49.6373 101.909 49.9359C101.666 50.2346 101.307 50.4866 100.831 50.6919C100.355 50.8973 99.7107 50.9999 98.8987 50.9999H94.6707V41.0039ZM98.8987 50.1879C99.2534 50.1879 99.5894 50.1599 99.9067 50.1039C100.224 50.0386 100.504 49.9266 100.747 49.7679C100.989 49.6093 101.181 49.3993 101.321 49.1379C101.461 48.8766 101.531 48.5406 101.531 48.1299C101.531 47.4859 101.302 47.0053 100.845 46.6879C100.397 46.3613 99.748 46.1979 98.8987 46.1979H95.6227V50.1879H98.8987ZM98.8987 45.3859C99.272 45.3859 99.5987 45.3439 99.8787 45.2599C100.168 45.1666 100.406 45.0453 100.593 44.8959C100.779 44.7373 100.919 44.5553 101.013 44.3499C101.106 44.1446 101.153 43.9253 101.153 43.6919C101.153 42.4413 100.401 41.8159 98.8987 41.8159H95.6227V45.3859L98.8987 45.3859Z" fill="black"/>
<path d="M104.009 41.0039H110.911V41.8159H104.961V45.4279H110.533V46.2399H104.961V50.1879H110.981V50.9999H104.009V41.0039Z" fill="black"/>
<path d="M115.835 51.2099C115.219 51.2099 114.664 51.1353 114.169 50.9859C113.675 50.8273 113.255 50.6033 112.909 50.3139C112.573 50.0153 112.312 49.6559 112.125 49.2359C111.948 48.8066 111.859 48.3259 111.859 47.7939V47.7099H112.769C112.769 48.6339 113.054 49.3199 113.623 49.7679C114.193 50.2159 114.953 50.4399 115.905 50.4399C116.325 50.4399 116.703 50.3793 117.039 50.2579C117.375 50.1273 117.655 49.9546 117.879 49.7399C118.113 49.5253 118.29 49.2779 118.411 48.9979C118.542 48.7086 118.607 48.4053 118.607 48.0879C118.607 47.7986 118.547 47.5373 118.425 47.3039C118.313 47.0613 118.155 46.8559 117.949 46.6879C117.744 46.5199 117.501 46.3893 117.221 46.2959C116.951 46.2026 116.657 46.1559 116.339 46.1559H114.743V45.3439H116.339C116.601 45.3439 116.853 45.3066 117.095 45.2319C117.338 45.1573 117.553 45.0499 117.739 44.9099C117.926 44.7606 118.071 44.5786 118.173 44.3639C118.285 44.1399 118.341 43.8833 118.341 43.5939C118.341 43.2486 118.276 42.9499 118.145 42.6979C118.024 42.4459 117.856 42.2406 117.641 42.0819C117.427 41.9139 117.17 41.7926 116.871 41.7179C116.573 41.6339 116.255 41.5919 115.919 41.5919C115.527 41.5919 115.163 41.6386 114.827 41.7319C114.491 41.8253 114.197 41.9699 113.945 42.1659C113.703 42.3526 113.507 42.5906 113.357 42.8799C113.217 43.1599 113.133 43.4866 113.105 43.8599H112.181C112.209 43.3466 112.317 42.8986 112.503 42.5159C112.699 42.1333 112.961 41.8159 113.287 41.5639C113.614 41.3026 113.997 41.1113 114.435 40.9899C114.883 40.8593 115.369 40.7939 115.891 40.7939C116.358 40.7939 116.797 40.8499 117.207 40.9619C117.627 41.0646 117.991 41.2279 118.299 41.4519C118.607 41.6759 118.85 41.9606 119.027 42.3059C119.205 42.6419 119.293 43.0433 119.293 43.5099C119.293 43.7713 119.251 44.0186 119.167 44.2519C119.083 44.4759 118.971 44.6813 118.831 44.8679C118.691 45.0453 118.533 45.1993 118.355 45.3299C118.178 45.4606 118.001 45.5586 117.823 45.6239V45.6659C118.355 45.8059 118.775 46.0766 119.083 46.4779C119.401 46.8699 119.559 47.4019 119.559 48.0739C119.559 48.3819 119.494 48.7179 119.363 49.0819C119.242 49.4459 119.037 49.7866 118.747 50.1039C118.458 50.4213 118.075 50.6873 117.599 50.9019C117.123 51.1073 116.535 51.2099 115.835 51.2099Z" fill="black"/>
<path d="M120.077 50.1879H121.127C121.481 49.5346 121.757 48.8673 121.953 48.1859C122.149 47.4953 122.293 46.8093 122.387 46.1279C122.489 45.4466 122.55 44.7839 122.569 44.1399C122.597 43.4959 122.611 42.8893 122.611 42.3199V41.0039H128.799V50.1879H129.989V53.6599H129.037V50.9999H121.029V53.6599H120.077V50.1879ZM127.847 50.1879V41.8159H123.563V42.1519C123.563 42.7119 123.553 43.3233 123.535 43.9859C123.525 44.6393 123.474 45.3159 123.381 46.0159C123.287 46.7159 123.143 47.4206 122.947 48.1299C122.76 48.8393 122.489 49.5253 122.135 50.1879H127.847Z" fill="black"/>
<path d="M134.032 41.0039H135.096L139.016 50.9999H137.994L136.776 47.8919H132.226L131.022 50.9999H130.014L134.032 41.0039ZM136.454 47.0799L134.522 41.9559L132.52 47.0799H136.454Z" fill="black"/>
<path d="M143.821 41.0039H144.773V50.1879H149.505V41.0039H150.457V50.1879H155.189V41.0039H156.141V50.9999H143.821V41.0039Z" fill="black"/>
<path d="M162.349 51.1959C161.565 51.1959 160.874 51.0559 160.277 50.7759C159.689 50.4866 159.199 50.1039 158.807 49.6279C158.415 49.1519 158.121 48.6013 157.925 47.9759C157.729 47.3506 157.631 46.6926 157.631 46.0019C157.631 45.3206 157.729 44.6673 157.925 44.0419C158.121 43.4073 158.415 42.8519 158.807 42.3759C159.199 41.8906 159.689 41.5079 160.277 41.2279C160.874 40.9386 161.565 40.7939 162.349 40.7939C163.133 40.7939 163.819 40.9386 164.407 41.2279C164.995 41.5079 165.485 41.8906 165.877 42.3759C166.269 42.8519 166.563 43.4073 166.759 44.0419C166.955 44.6673 167.053 45.3206 167.053 46.0019C167.053 46.6926 166.955 47.3506 166.759 47.9759C166.563 48.6013 166.269 49.1519 165.877 49.6279C165.485 50.1039 164.995 50.4866 164.407 50.7759C163.819 51.0559 163.133 51.1959 162.349 51.1959ZM162.349 50.3979C163.002 50.3979 163.567 50.2719 164.043 50.0199C164.519 49.7679 164.906 49.4366 165.205 49.0259C165.513 48.6059 165.737 48.1346 165.877 47.6119C166.026 47.0893 166.101 46.5526 166.101 46.0019C166.101 45.4606 166.026 44.9286 165.877 44.4059C165.737 43.8739 165.513 43.4026 165.205 42.9919C164.906 42.5719 164.519 42.2359 164.043 41.9839C163.567 41.7319 163.002 41.6059 162.349 41.6059C161.686 41.6059 161.117 41.7319 160.641 41.9839C160.165 42.2359 159.773 42.5719 159.465 42.9919C159.166 43.4026 158.942 43.8739 158.793 44.4059C158.653 44.9286 158.583 45.4606 158.583 46.0019C158.583 46.5526 158.653 47.0893 158.793 47.6119C158.942 48.1346 159.166 48.6059 159.465 49.0259C159.773 49.4366 160.165 49.7679 160.641 50.0199C161.117 50.2719 161.686 50.3979 162.349 50.3979Z" fill="black"/>
<path d="M169.464 51.1119C169.24 51.1119 169.035 51.0979 168.848 51.0699C168.671 51.0419 168.531 51.0093 168.428 50.9719V50.1319C168.549 50.1786 168.694 50.2206 168.862 50.2579C169.03 50.2859 169.226 50.2999 169.45 50.2999C169.805 50.2999 170.099 50.1879 170.332 49.9639C170.575 49.7399 170.808 49.3899 171.032 48.9139L171.158 48.6479L167.448 41.0039H168.47L171.718 47.6399L174.882 41.0039H175.89L171.956 49.1519C171.751 49.5813 171.55 49.9266 171.354 50.1879C171.158 50.4399 170.957 50.6359 170.752 50.7759C170.556 50.9159 170.351 51.0046 170.136 51.0419C169.931 51.0886 169.707 51.1119 169.464 51.1119Z" fill="black"/>
<path d="M0.0906532 61.0039H6.26465V61.8159H1.04265L1.04265 70.9999H0.0906532L0.0906532 61.0039Z" fill="black"/>
<path d="M11.3841 71.1959C10.6001 71.1959 9.90939 71.0559 9.31206 70.7759C8.72406 70.4866 8.23406 70.1039 7.84206 69.6279C7.45006 69.1519 7.15606 68.6013 6.96006 67.9759C6.76406 67.3506 6.66606 66.6926 6.66606 66.0019C6.66606 65.3206 6.76406 64.6673 6.96006 64.0419C7.15606 63.4073 7.45006 62.8519 7.84206 62.3759C8.23406 61.8906 8.72406 61.5079 9.31206 61.2279C9.90939 60.9386 10.6001 60.7939 11.3841 60.7939C12.1681 60.7939 12.8541 60.9386 13.4421 61.2279C14.0301 61.5079 14.5201 61.8906 14.9121 62.3759C15.3041 62.8519 15.5981 63.4073 15.7941 64.0419C15.9901 64.6673 16.0881 65.3206 16.0881 66.0019C16.0881 66.6926 15.9901 67.3506 15.7941 67.9759C15.5981 68.6013 15.3041 69.1519 14.9121 69.6279C14.5201 70.1039 14.0301 70.4866 13.4421 70.7759C12.8541 71.0559 12.1681 71.1959 11.3841 71.1959ZM11.3841 70.3979C12.0374 70.3979 12.6021 70.2719 13.0781 70.0199C13.5541 69.7679 13.9414 69.4366 14.2401 69.0259C14.5481 68.6059 14.7721 68.1346 14.9121 67.6119C15.0614 67.0893 15.1361 66.5526 15.1361 66.0019C15.1361 65.4606 15.0614 64.9286 14.9121 64.4059C14.7721 63.8739 14.5481 63.4026 14.2401 62.9919C13.9414 62.5719 13.5541 62.2359 13.0781 61.9839C12.6021 61.7319 12.0374 61.6059 11.3841 61.6059C10.7214 61.6059 10.1521 61.7319 9.67606 61.9839C9.20006 62.2359 8.80806 62.5719 8.50006 62.9919C8.20139 63.4026 7.97739 63.8739 7.82806 64.4059C7.68806 64.9286 7.61806 65.4606 7.61806 66.0019C7.61806 66.5526 7.68806 67.0893 7.82806 67.6119C7.97739 68.1346 8.20139 68.6059 8.50006 69.0259C8.80806 69.4366 9.20006 69.7679 9.67606 70.0199C10.1521 70.2719 10.7214 70.3979 11.3841 70.3979Z" fill="black"/>
<path d="M17.323 71.0839C17.267 71.0839 17.197 71.0793 17.113 71.0699C17.0383 71.0606 16.959 71.0513 16.875 71.0419C16.791 71.0326 16.7163 71.0186 16.651 70.9999C16.5857 70.9906 16.539 70.9813 16.511 70.9719V70.1599C16.5857 70.1973 16.6977 70.2253 16.847 70.2439C17.0057 70.2533 17.1223 70.2579 17.197 70.2579C17.2997 70.2579 17.421 70.2486 17.561 70.2299C17.701 70.2019 17.8457 70.1179 17.995 69.9779C18.1537 69.8286 18.3077 69.5999 18.457 69.2919C18.6157 68.9746 18.751 68.5266 18.863 67.9479C18.9843 67.3599 19.0823 66.6179 19.157 65.7219C19.2317 64.8259 19.269 63.7246 19.269 62.4179V61.0039H25.415V70.9999H24.463V61.8159H20.193V62.3619C20.193 63.8179 20.1463 65.0453 20.053 66.0439C19.9597 67.0333 19.8337 67.8546 19.675 68.5079C19.5163 69.1519 19.3343 69.6513 19.129 70.0059C18.933 70.3513 18.7277 70.6033 18.513 70.7619C18.3077 70.9206 18.0977 71.0139 17.883 71.0419C17.6777 71.0699 17.491 71.0839 17.323 71.0839Z" fill="black"/>
<path d="M31.6184 71.1959C30.8344 71.1959 30.1438 71.0559 29.5464 70.7759C28.9584 70.4866 28.4684 70.1039 28.0764 69.6279C27.6844 69.1519 27.3904 68.6013 27.1944 67.9759C26.9984 67.3506 26.9004 66.6926 26.9004 66.0019C26.9004 65.3206 26.9984 64.6673 27.1944 64.0419C27.3904 63.4073 27.6844 62.8519 28.0764 62.3759C28.4684 61.8906 28.9584 61.5079 29.5464 61.2279C30.1438 60.9386 30.8344 60.7939 31.6184 60.7939C32.4024 60.7939 33.0884 60.9386 33.6764 61.2279C34.2644 61.5079 34.7544 61.8906 35.1464 62.3759C35.5384 62.8519 35.8324 63.4073 36.0284 64.0419C36.2244 64.6673 36.3224 65.3206 36.3224 66.0019C36.3224 66.6926 36.2244 67.3506 36.0284 67.9759C35.8324 68.6013 35.5384 69.1519 35.1464 69.6279C34.7544 70.1039 34.2644 70.4866 33.6764 70.7759C33.0884 71.0559 32.4024 71.1959 31.6184 71.1959ZM31.6184 70.3979C32.2718 70.3979 32.8364 70.2719 33.3124 70.0199C33.7884 69.7679 34.1758 69.4366 34.4744 69.0259C34.7824 68.6059 35.0064 68.1346 35.1464 67.6119C35.2958 67.0893 35.3704 66.5526 35.3704 66.0019C35.3704 65.4606 35.2958 64.9286 35.1464 64.4059C35.0064 63.8739 34.7824 63.4026 34.4744 62.9919C34.1758 62.5719 33.7884 62.2359 33.3124 61.9839C32.8364 61.7319 32.2718 61.6059 31.6184 61.6059C30.9558 61.6059 30.3864 61.7319 29.9104 61.9839C29.4344 62.2359 29.0424 62.5719 28.7344 62.9919C28.4358 63.4026 28.2118 63.8739 28.0624 64.4059C27.9224 64.9286 27.8524 65.4606 27.8524 66.0019C27.8524 66.5526 27.9224 67.0893 28.0624 67.6119C28.2118 68.1346 28.4358 68.6059 28.7344 69.0259C29.0424 69.4366 29.4344 69.7679 29.9104 70.0199C30.3864 70.2719 30.9558 70.3979 31.6184 70.3979Z" fill="black"/>
<path d="M42.0514 71.1959C41.2674 71.1959 40.5767 71.0559 39.9794 70.7759C39.3914 70.4866 38.9014 70.1039 38.5094 69.6279C38.1174 69.1519 37.8234 68.6013 37.6274 67.9759C37.4314 67.3506 37.3334 66.6926 37.3334 66.0019C37.3334 65.3206 37.4314 64.6673 37.6274 64.0419C37.8234 63.4073 38.1174 62.8519 38.5094 62.3759C38.9014 61.8906 39.3914 61.5079 39.9794 61.2279C40.5767 60.9386 41.2674 60.7939 42.0514 60.7939C42.5274 60.7939 42.9894 60.8639 43.4374 61.0039C43.8947 61.1439 44.3054 61.3539 44.6694 61.6339C45.0427 61.9046 45.3507 62.2406 45.5934 62.6419C45.8454 63.0433 46.0041 63.5053 46.0694 64.0279H45.1174C45.0334 63.6453 44.8934 63.3046 44.6974 63.0059C44.5107 62.6979 44.2774 62.4413 43.9974 62.2359C43.7267 62.0306 43.4234 61.8766 43.0874 61.7739C42.7607 61.6619 42.4154 61.6059 42.0514 61.6059C41.3887 61.6059 40.8194 61.7319 40.3434 61.9839C39.8674 62.2359 39.4754 62.5719 39.1674 62.9919C38.8687 63.4026 38.6447 63.8739 38.4954 64.4059C38.3554 64.9286 38.2854 65.4606 38.2854 66.0019C38.2854 66.5526 38.3554 67.0893 38.4954 67.6119C38.6447 68.1346 38.8687 68.6059 39.1674 69.0259C39.4754 69.4366 39.8674 69.7679 40.3434 70.0199C40.8194 70.2719 41.3887 70.3979 42.0514 70.3979C42.5087 70.3979 42.9241 70.3139 43.2974 70.1459C43.6801 69.9779 44.0067 69.7493 44.2774 69.4599C44.5481 69.1706 44.7674 68.8346 44.9354 68.4519C45.1034 68.0599 45.2107 67.6399 45.2574 67.1919H46.2094C46.1441 67.8079 45.9994 68.3633 45.7754 68.8579C45.5514 69.3526 45.2621 69.7726 44.9074 70.1179C44.5527 70.4633 44.1327 70.7293 43.6474 70.9159C43.1714 71.1026 42.6394 71.1959 42.0514 71.1959Z" fill="black"/>
<path d="M51.5633 61.0039H58.4653V61.8159H52.5153V65.2319H56.2813C57.2146 65.2319 57.9426 65.4886 58.4653 66.0019C58.988 66.5153 59.2493 67.2199 59.2493 68.1159C59.2493 69.0119 58.988 69.7166 58.4653 70.2299C57.9426 70.7433 57.2146 70.9999 56.2813 70.9999H51.5633V61.0039ZM56.0713 70.1879C56.7713 70.1879 57.3173 70.0059 57.7093 69.6419C58.1013 69.2686 58.2973 68.7599 58.2973 68.1159C58.2973 67.4719 58.1013 66.9679 57.7093 66.6039C57.3173 66.2306 56.7713 66.0439 56.0713 66.0439H52.5153V70.1879H56.0713Z" fill="black"/>
<path d="M60.9012 61.0039H61.8532V65.2319H65.3392C66.2725 65.2319 67.0005 65.4886 67.5232 66.0019C68.0459 66.5153 68.3072 67.2199 68.3072 68.1159C68.3072 69.0119 68.0459 69.7166 67.5232 70.2299C67.0005 70.7433 66.2725 70.9999 65.3392 70.9999H60.9012V61.0039ZM65.1292 70.1879C65.8292 70.1879 66.3752 70.0059 66.7672 69.6419C67.1592 69.2686 67.3552 68.7599 67.3552 68.1159C67.3552 67.4719 67.1592 66.9679 66.7672 66.6039C66.3752 66.2306 65.8292 66.0439 65.1292 66.0439H61.8532V70.1879H65.1292ZM69.7772 61.0039H70.7292V70.9999H69.7772V61.0039Z" fill="black"/>
<path d="M72.489 71.0839C72.433 71.0839 72.363 71.0793 72.279 71.0699C72.2044 71.0606 72.125 71.0513 72.041 71.0419C71.957 71.0326 71.8824 71.0186 71.817 70.9999C71.7517 70.9906 71.705 70.9813 71.677 70.9719V70.1599C71.7517 70.1973 71.8637 70.2253 72.013 70.2439C72.1717 70.2533 72.2884 70.2579 72.363 70.2579C72.4657 70.2579 72.587 70.2486 72.727 70.2299C72.867 70.2019 73.0117 70.1179 73.161 69.9779C73.3197 69.8286 73.4737 69.5999 73.623 69.2919C73.7817 68.9746 73.917 68.5266 74.029 67.9479C74.1504 67.3599 74.2484 66.6179 74.323 65.7219C74.3977 64.8259 74.435 63.7246 74.435 62.4179V61.0039H80.581V70.9999H79.629V61.8159H75.359V62.3619C75.359 63.8179 75.3124 65.0453 75.219 66.0439C75.1257 67.0333 74.9997 67.8546 74.841 68.5079C74.6824 69.1519 74.5004 69.6513 74.295 70.0059C74.099 70.3513 73.8937 70.6033 73.679 70.7619C73.4737 70.9206 73.2637 71.0139 73.049 71.0419C72.8437 71.0699 72.657 71.0839 72.489 71.0839Z" fill="black"/>
<path d="M90.0229 71.2099C89.4069 71.2099 88.8516 71.1353 88.3569 70.9859C87.8623 70.8273 87.4423 70.6033 87.0969 70.3139C86.7609 70.0153 86.4996 69.6559 86.3129 69.2359C86.1356 68.8066 86.0469 68.3259 86.0469 67.7939V67.7099H86.9569C86.9569 68.6339 87.2416 69.3199 87.8109 69.7679C88.3803 70.2159 89.1409 70.4399 90.0929 70.4399C90.5129 70.4399 90.8909 70.3793 91.2269 70.2579C91.5629 70.1273 91.8429 69.9546 92.0669 69.7399C92.3003 69.5253 92.4776 69.2779 92.5989 68.9979C92.7296 68.7086 92.7949 68.4053 92.7949 68.0879C92.7949 67.7986 92.7343 67.5373 92.6129 67.3039C92.5009 67.0613 92.3423 66.8559 92.1369 66.6879C91.9316 66.5199 91.6889 66.3893 91.4089 66.2959C91.1383 66.2026 90.8443 66.1559 90.5269 66.1559H88.9309V65.3439H90.5269C90.7883 65.3439 91.0403 65.3066 91.2829 65.2319C91.5256 65.1573 91.7403 65.0499 91.9269 64.9099C92.1136 64.7606 92.2583 64.5786 92.3609 64.3639C92.4729 64.1399 92.5289 63.8833 92.5289 63.5939C92.5289 63.2486 92.4636 62.9499 92.3329 62.6979C92.2116 62.4459 92.0436 62.2406 91.8289 62.0819C91.6143 61.9139 91.3576 61.7926 91.0589 61.7179C90.7603 61.6339 90.4429 61.5919 90.1069 61.5919C89.7149 61.5919 89.3509 61.6386 89.0149 61.7319C88.6789 61.8253 88.3849 61.9699 88.1329 62.1659C87.8903 62.3526 87.6943 62.5906 87.5449 62.8799C87.4049 63.1599 87.3209 63.4866 87.2929 63.8599H86.3689C86.3969 63.3466 86.5043 62.8986 86.6909 62.5159C86.8869 62.1333 87.1483 61.8159 87.4749 61.5639C87.8016 61.3026 88.1843 61.1113 88.6229 60.9899C89.0709 60.8593 89.5563 60.7939 90.0789 60.7939C90.5456 60.7939 90.9843 60.8499 91.3949 60.9619C91.8149 61.0646 92.1789 61.2279 92.4869 61.4519C92.7949 61.6759 93.0376 61.9606 93.2149 62.3059C93.3923 62.6419 93.4809 63.0433 93.4809 63.5099C93.4809 63.7713 93.4389 64.0186 93.3549 64.2519C93.2709 64.4759 93.1589 64.6813 93.0189 64.8679C92.8789 65.0453 92.7203 65.1993 92.5429 65.3299C92.3656 65.4606 92.1883 65.5586 92.0109 65.6239V65.6659C92.5429 65.8059 92.9629 66.0766 93.2709 66.4779C93.5883 66.8699 93.7469 67.4019 93.7469 68.0739C93.7469 68.3819 93.6816 68.7179 93.5509 69.0819C93.4296 69.4459 93.2243 69.7866 92.9349 70.1039C92.6456 70.4213 92.2629 70.6873 91.7869 70.9019C91.3109 71.1073 90.7229 71.2099 90.0229 71.2099Z" fill="black"/>
<path d="M98.1983 61.0039H99.2623L103.182 70.9999H102.16L100.942 67.8919H96.3923L95.1883 70.9999H94.1803L98.1983 61.0039ZM100.62 67.0799L98.6883 61.9559L96.6863 67.0799H100.62Z" fill="black"/>
<path d="M104.063 61.0039H105.463L108.921 69.7679L112.365 61.0039H113.765V70.9999H112.813V62.3619H112.785L109.369 70.9999H108.473L105.043 62.3619H105.015V70.9999H104.063V61.0039Z" fill="black"/>
<path d="M115.753 61.0039H122.655V61.8159L116.705 61.8159V65.4279H122.277V66.2399H116.705V70.188H122.725V70.9999H115.753V61.0039Z" fill="black"/>
<path d="M129.904 66.4499C129.764 66.4873 129.568 66.5293 129.316 66.5759C129.064 66.6226 128.788 66.6693 128.49 66.716C128.2 66.7533 127.906 66.7906 127.608 66.8279C127.318 66.8559 127.062 66.8699 126.838 66.8699C126.119 66.8699 125.545 66.7859 125.116 66.6179C124.696 66.4406 124.374 66.2166 124.15 65.9459C123.926 65.6659 123.781 65.3579 123.716 65.0219C123.65 64.6766 123.618 64.3359 123.618 63.9999V61.0039H124.57V63.9439C124.57 64.1493 124.588 64.3733 124.626 64.6159C124.663 64.8586 124.756 65.0873 124.906 65.3019C125.055 65.5073 125.27 65.6846 125.55 65.8339C125.839 65.9739 126.236 66.0439 126.74 66.0439C127.038 66.0439 127.346 66.0299 127.664 66.0019C127.99 65.9646 128.298 65.9273 128.588 65.8899C128.877 65.8433 129.134 65.7966 129.358 65.7499C129.591 65.7033 129.773 65.6659 129.904 65.6379V61.0039H130.856V70.9999H129.904V66.4499Z" fill="black"/>
<path d="M132.87 61.0039L139.772 61.0039V61.8159H133.822V65.4279H139.394V66.2399H133.822V70.188H139.842V70.9999H132.87V61.0039Z" fill="black"/>
<path d="M141.169 61.0039H142.121V65.3439H148.057V61.0039H149.009V70.9999H148.057V66.1559H142.121V70.9999H141.169V61.0039Z" fill="black"/>
<path d="M154.923 61.0039H159.151C159.571 61.0039 159.972 61.0459 160.355 61.1299C160.747 61.2046 161.087 61.3399 161.377 61.5359C161.675 61.7226 161.913 61.9746 162.091 62.2919C162.268 62.5999 162.357 62.9873 162.357 63.4539C162.357 63.7153 162.315 63.9719 162.231 64.2239C162.147 64.4666 162.025 64.6906 161.867 64.896C161.717 65.092 161.535 65.2599 161.321 65.3999C161.115 65.5399 160.882 65.6379 160.621 65.6939V65.7219C161.265 65.8059 161.778 66.0719 162.161 66.5199C162.543 66.9586 162.735 67.5046 162.735 68.1579C162.735 68.4006 162.697 68.6853 162.623 69.0119C162.557 69.3293 162.403 69.6373 162.161 69.9359C161.918 70.2346 161.559 70.4866 161.083 70.6919C160.607 70.8973 159.963 70.9999 159.151 70.9999H154.923V61.0039ZM159.151 70.188C159.505 70.188 159.841 70.16 160.159 70.104C160.476 70.0386 160.756 69.9266 160.999 69.7679C161.241 69.6093 161.433 69.3993 161.573 69.1379C161.713 68.8766 161.783 68.5406 161.783 68.1299C161.783 67.4859 161.554 67.0053 161.097 66.688C160.649 66.3613 160 66.1979 159.151 66.1979H155.875V70.188H159.151ZM159.151 65.3859C159.524 65.3859 159.851 65.3439 160.131 65.2599C160.42 65.1666 160.658 65.0453 160.845 64.896C161.031 64.7373 161.171 64.5553 161.265 64.3499C161.358 64.1446 161.405 63.9253 161.405 63.6919C161.405 62.4413 160.653 61.8159 159.151 61.8159H155.875V65.3859H159.151Z" fill="black"/>
<path d="M168.447 71.1959C167.663 71.1959 166.972 71.0559 166.375 70.7759C165.787 70.4866 165.297 70.1039 164.905 69.6279C164.513 69.1519 164.219 68.6013 164.023 67.9759C163.827 67.3506 163.729 66.6926 163.729 66.0019C163.729 65.3206 163.827 64.6673 164.023 64.0419C164.219 63.4073 164.513 62.8519 164.905 62.3759C165.297 61.8906 165.787 61.5079 166.375 61.2279C166.972 60.9386 167.663 60.7939 168.447 60.7939C169.231 60.7939 169.917 60.9386 170.505 61.2279C171.093 61.5079 171.583 61.8906 171.975 62.3759C172.367 62.8519 172.661 63.4073 172.857 64.0419C173.053 64.6673 173.151 65.3206 173.151 66.0019C173.151 66.6926 173.053 67.3506 172.857 67.9759C172.661 68.6013 172.367 69.1519 171.975 69.6279C171.583 70.1039 171.093 70.4866 170.505 70.7759C169.917 71.0559 169.231 71.1959 168.447 71.1959ZM168.447 70.3979C169.1 70.3979 169.665 70.272 170.141 70.02C170.617 69.768 171.004 69.4366 171.303 69.0259C171.611 68.6059 171.835 68.1346 171.975 67.6119C172.124 67.0893 172.199 66.5526 172.199 66.0019C172.199 65.4606 172.124 64.9286 171.975 64.4059C171.835 63.8739 171.611 63.4026 171.303 62.9919C171.004 62.5719 170.617 62.2359 170.141 61.9839C169.665 61.7319 169.1 61.6059 168.447 61.6059C167.784 61.6059 167.215 61.7319 166.739 61.9839C166.263 62.2359 165.871 62.5719 165.563 62.9919C165.264 63.4026 165.04 63.8739 164.891 64.4059C164.751 64.9286 164.681 65.4606 164.681 66.0019C164.681 66.5526 164.751 67.0893 164.891 67.6119C165.04 68.1346 165.264 68.6059 165.563 69.0259C165.871 69.4366 166.263 69.768 166.739 70.02C167.215 70.272 167.784 70.3979 168.447 70.3979Z" fill="black"/>
<path d="M0.00665335 81.0039H4.23465C4.65465 81.0039 5.05599 81.0459 5.43865 81.1299C5.83065 81.2046 6.17132 81.3399 6.46065 81.5359C6.75932 81.7226 6.99732 81.9746 7.17465 82.2919C7.35199 82.5999 7.44065 82.9873 7.44065 83.4539C7.44065 83.7153 7.39865 83.9719 7.31465 84.2239C7.23065 84.4666 7.10932 84.6906 6.95065 84.8959C6.80132 85.0919 6.61932 85.2599 6.40465 85.3999C6.19932 85.5399 5.96599 85.6379 5.70465 85.6939V85.7219C6.34865 85.8059 6.86199 86.0719 7.24465 86.5199C7.62732 86.9586 7.81865 87.5046 7.81865 88.1579C7.81865 88.4006 7.78132 88.6853 7.70665 89.0119C7.64132 89.3293 7.48732 89.6373 7.24465 89.9359C7.00199 90.2346 6.64265 90.4866 6.16665 90.6919C5.69065 90.8973 5.04665 90.9999 4.23465 90.9999H0.00665342L0.00665335 81.0039ZM4.23465 90.1879C4.58932 90.1879 4.92532 90.1599 5.24265 90.1039C5.55999 90.0386 5.83999 89.9266 6.08265 89.7679C6.32532 89.6093 6.51665 89.3993 6.65665 89.1379C6.79665 88.8766 6.86665 88.5406 6.86665 88.1299C6.86665 87.4859 6.63799 87.0053 6.18065 86.6879C5.73265 86.3613 5.08399 86.1979 4.23465 86.1979H0.958653V90.1879H4.23465ZM4.23465 85.3859C4.60799 85.3859 4.93465 85.3439 5.21465 85.2599C5.50399 85.1666 5.74199 85.0453 5.92865 84.8959C6.11532 84.7373 6.25532 84.5553 6.34865 84.3499C6.44199 84.1446 6.48865 83.9253 6.48865 83.6919C6.48865 82.4413 5.73732 81.8159 4.23465 81.8159H0.958653V85.3859H4.23465Z" fill="black"/>
<path d="M9.34454 81.0039H13.7825C14.2305 81.0039 14.6365 81.0693 15.0005 81.1999C15.3645 81.3213 15.6772 81.5079 15.9385 81.7599C16.1999 82.0026 16.4005 82.3013 16.5405 82.6559C16.6805 83.0106 16.7505 83.4119 16.7505 83.8599C16.7505 84.3079 16.6805 84.7093 16.5405 85.0639C16.4005 85.4186 16.1999 85.7219 15.9385 85.9739C15.6772 86.2166 15.3645 86.4033 15.0005 86.5339C14.6365 86.6553 14.2305 86.7159 13.7825 86.7159H10.2965V90.9999H9.34454V81.0039ZM13.5725 85.9039C14.2352 85.9039 14.7719 85.7359 15.1825 85.3999C15.5932 85.0639 15.7985 84.5506 15.7985 83.8599C15.7985 83.1693 15.5932 82.6559 15.1825 82.3199C14.7719 81.9839 14.2352 81.8159 13.5725 81.8159H10.2965V85.9039H13.5725Z" fill="black"/>
<path d="M18.1629 81.0039H25.0649V81.8159H19.1149V85.4279H24.6869V86.2399H19.1149V90.1879H25.1349V90.9999H18.1629V81.0039Z" fill="black"/>
<path d="M26.4337 81.0039H27.8337L31.2917 89.7679L34.7357 81.0039H36.1357V90.9999H35.1837V82.3619H35.1557L31.7397 90.9999H30.8437L27.4137 82.3619H27.3857V90.9999H26.4337V81.0039Z" fill="black"/>
<path d="M40.5878 86.6599C40.1772 86.6413 39.7945 86.5666 39.4398 86.4359C39.0945 86.3053 38.7912 86.1233 38.5298 85.8899C38.2778 85.6566 38.0772 85.3766 37.9278 85.0499C37.7878 84.7139 37.7178 84.3266 37.7178 83.8879C37.7178 83.4399 37.7878 83.0386 37.9278 82.6839C38.0678 82.3293 38.2685 82.0306 38.5298 81.7879C38.8005 81.5359 39.1178 81.3446 39.4818 81.2139C39.8552 81.0739 40.2752 81.0039 40.7418 81.0039H44.9278V90.9999H43.9758V86.7159H41.7358L38.4038 90.9999H37.1718L40.5878 86.6599ZM43.9758 85.9039V81.8159H40.9518C40.2518 81.8159 39.6965 82.0026 39.2858 82.3759C38.8752 82.7399 38.6698 83.2439 38.6698 83.8879C38.6698 84.5319 38.8752 85.0313 39.2858 85.3859C39.6965 85.7313 40.2518 85.9039 40.9518 85.9039H43.9758Z" fill="black"/>
<path d="M47.3622 90.9999V89.7679H48.3842V90.9999H47.3622Z" fill="black"/>
<path d="M51.2587 90.9999V89.7679H52.2807V90.9999H51.2587Z" fill="black"/>
<path d="M55.1552 90.9999V89.7679H56.1772V90.9999H55.1552Z" fill="black"/>
<path d="M58.6317 81.0039H59.5837V90.1879H64.3157V81.0039H65.2677V90.1879H69.9997V81.0039H70.9517V90.9999H58.6317V81.0039Z" fill="black"/>
<path d="M77.1595 91.1959C76.3755 91.1959 75.6848 91.0559 75.0874 90.7759C74.4994 90.4866 74.0094 90.1039 73.6174 89.6279C73.2254 89.1519 72.9315 88.6013 72.7355 87.9759C72.5395 87.3506 72.4415 86.6926 72.4415 86.0019C72.4415 85.3206 72.5395 84.6673 72.7355 84.0419C72.9315 83.4073 73.2254 82.8519 73.6174 82.3759C74.0094 81.8906 74.4994 81.5079 75.0874 81.2279C75.6848 80.9386 76.3754 80.7939 77.1594 80.7939C77.9434 80.7939 78.6295 80.9386 79.2175 81.2279C79.8055 81.5079 80.2955 81.8906 80.6875 82.3759C81.0795 82.8519 81.3735 83.4073 81.5695 84.0419C81.7655 84.6673 81.8634 85.3206 81.8634 86.0019C81.8634 86.6926 81.7655 87.3506 81.5695 87.9759C81.3735 88.6013 81.0795 89.1519 80.6875 89.6279C80.2955 90.1039 79.8055 90.4866 79.2175 90.7759C78.6295 91.0559 77.9435 91.1959 77.1595 91.1959ZM77.1595 90.3979C77.8128 90.3979 78.3774 90.2719 78.8534 90.0199C79.3294 89.7679 79.7168 89.4366 80.0154 89.0259C80.3234 88.6059 80.5475 88.1346 80.6875 87.6119C80.8368 87.0893 80.9115 86.5526 80.9115 86.0019C80.9115 85.4606 80.8368 84.9286 80.6875 84.4059C80.5475 83.8739 80.3234 83.4026 80.0154 82.9919C79.7168 82.5719 79.3294 82.2359 78.8534 81.9839C78.3774 81.7319 77.8128 81.6059 77.1594 81.6059C76.4968 81.6059 75.9275 81.7319 75.4515 81.9839C74.9755 82.2359 74.5835 82.5719 74.2755 82.9919C73.9768 83.4026 73.7528 83.8739 73.6034 84.4059C73.4634 84.9286 73.3934 85.4606 73.3934 86.0019C73.3934 86.5526 73.4634 87.0893 73.6034 87.6119C73.7528 88.1346 73.9768 88.6059 74.2755 89.0259C74.5835 89.4366 74.9755 89.7679 75.4515 90.0199C75.9275 90.2719 76.4968 90.3979 77.1595 90.3979Z" fill="black"/>
<path d="M83.3504 81.0039H84.3024V86.3799L90.1124 81.0039H91.4004L86.9344 85.1339L91.6104 90.9999H90.3784L86.2204 85.7919L84.3024 87.5699V90.9999H83.3504V81.0039Z" fill="black"/>
<path d="M93.2405 84.0559V80.9199H94.2625V84.0559L94.0665 88.466H93.4365L93.2405 84.0559ZM93.2405 90.9999V89.7679H94.2625V90.9999H93.2405Z" fill="black"/>
</svg>
