<svg width="162" height="154" viewBox="0 0 162 154" fill="none" xmlns="http://www.w3.org/2000/svg">
<path d="M6.24867 11.1959C5.46467 11.1959 4.77401 11.0559 4.17667 10.7759C3.58867 10.4866 3.09867 10.1039 2.70667 9.62795C2.31467 9.15195 2.02067 8.60128 1.82467 7.97595C1.62867 7.35061 1.53067 6.69261 1.53067 6.00195C1.53067 5.32061 1.62867 4.66728 1.82467 4.04195C2.02067 3.40728 2.31467 2.85195 2.70667 2.37594C3.09867 1.89061 3.58867 1.50795 4.17667 1.22795C4.77401 0.938612 5.46467 0.793945 6.24867 0.793945C6.72467 0.793945 7.18667 0.863945 7.63467 1.00395C8.09201 1.14394 8.50267 1.35395 8.86667 1.63395C9.24001 1.90461 9.54801 2.24061 9.79067 2.64195C10.0427 3.04328 10.2013 3.50528 10.2667 4.02795H9.31467C9.23067 3.64528 9.09067 3.30461 8.89467 3.00595C8.70801 2.69795 8.47467 2.44128 8.19467 2.23595C7.92401 2.03061 7.62067 1.87661 7.28467 1.77395C6.95801 1.66195 6.61267 1.60595 6.24867 1.60595C5.58601 1.60595 5.01667 1.73195 4.54067 1.98395C4.06467 2.23595 3.67267 2.57195 3.36467 2.99195C3.06601 3.40261 2.84201 3.87395 2.69267 4.40595C2.55267 4.92861 2.48267 5.46061 2.48267 6.00195C2.48267 6.55261 2.55267 7.08928 2.69267 7.61195C2.84201 8.13461 3.06601 8.60595 3.36467 9.02595C3.67267 9.43661 4.06467 9.76795 4.54067 10.0199C5.01667 10.2719 5.58601 10.3979 6.24867 10.3979C6.70601 10.3979 7.12134 10.3139 7.49467 10.1459C7.87734 9.97795 8.20401 9.74928 8.47467 9.45995C8.74534 9.17061 8.96467 8.83461 9.13267 8.45195C9.30067 8.05995 9.40801 7.63995 9.45467 7.19195H10.4067C10.3413 7.80795 10.1967 8.36328 9.97267 8.85795C9.74867 9.35261 9.45934 9.77261 9.10467 10.1179C8.75001 10.4633 8.33001 10.7293 7.84467 10.9159C7.36867 11.1026 6.83667 11.1959 6.24867 11.1959Z" fill="black"/>
<path d="M11.8641 1.00395L18.7661 1.00395V1.81595H12.8161V5.42795H18.3881V6.23995H12.8161V10.1879L18.8361 10.1879V10.9999H11.8641V1.00395Z" fill="black"/>
<path d="M20.1629 1.00395L21.1149 1.00395V5.34395L27.0509 5.34395V1.00395H28.0029V10.9999H27.0509V6.15595H21.1149L21.1149 10.9999H20.1629V1.00395Z" fill="black"/>
<path d="M34.2623 11.1959C33.4783 11.1959 32.7877 11.0559 32.1903 10.7759C31.6023 10.4866 31.1123 10.1039 30.7203 9.62795C30.3283 9.15195 30.0343 8.60128 29.8383 7.97595C29.6423 7.35061 29.5443 6.69261 29.5443 6.00195C29.5443 5.32061 29.6423 4.66728 29.8383 4.04195C30.0343 3.40728 30.3283 2.85195 30.7203 2.37595C31.1123 1.89061 31.6023 1.50795 32.1903 1.22795C32.7877 0.938612 33.4783 0.793946 34.2623 0.793946C34.7383 0.793946 35.2003 0.863946 35.6483 1.00395C36.1057 1.14395 36.5163 1.35395 36.8803 1.63395C37.2537 1.90461 37.5617 2.24061 37.8043 2.64195C38.0563 3.04328 38.215 3.50528 38.2803 4.02795H37.3283C37.2443 3.64528 37.1043 3.30461 36.9083 3.00595C36.7217 2.69795 36.4883 2.44128 36.2083 2.23595C35.9377 2.03061 35.6343 1.87661 35.2983 1.77395C34.9717 1.66195 34.6263 1.60595 34.2623 1.60595C33.5997 1.60595 33.0303 1.73195 32.5543 1.98395C32.0783 2.23595 31.6863 2.57195 31.3783 2.99195C31.0797 3.40261 30.8557 3.87395 30.7063 4.40595C30.5663 4.92861 30.4963 5.46061 30.4963 6.00195C30.4963 6.55261 30.5663 7.08928 30.7063 7.61195C30.8557 8.13461 31.0797 8.60595 31.3783 9.02595C31.6863 9.43661 32.0783 9.76795 32.5543 10.0199C33.0303 10.2719 33.5997 10.3979 34.2623 10.3979C34.7197 10.3979 35.135 10.3139 35.5083 10.1459C35.891 9.97795 36.2177 9.74928 36.4883 9.45995C36.759 9.17061 36.9783 8.83461 37.1463 8.45195C37.3143 8.05995 37.4217 7.63995 37.4683 7.19195H38.4203C38.355 7.80795 38.2103 8.36328 37.9863 8.85795C37.7623 9.35261 37.473 9.77261 37.1183 10.1179C36.7637 10.4633 36.3437 10.7293 35.8583 10.9159C35.3823 11.1026 34.8503 11.1959 34.2623 11.1959Z" fill="black"/>
<path d="M42.8038 1.00395L43.8678 1.00395L47.7878 10.9999H46.7658L45.5478 7.89195H40.9978L39.7938 10.9999H38.7858L42.8038 1.00395ZM45.2258 7.07995L43.2938 1.95595L41.2918 7.07995H45.2258Z" fill="black"/>
<path d="M56.6341 10.9999H48.6961V1.00395L49.6481 1.00395V10.1879H55.4441V1.00395H56.3961V10.1879H57.5861V13.6599H56.6341V10.9999Z" fill="black"/>
<path d="M58.7039 1.00395H59.6559V9.97795L65.3959 1.00395L66.6279 1.00395V10.9999H65.6759V2.02595L59.9359 10.9999H58.7039V1.00395Z" fill="black"/>
<path d="M71.1074 6.65995C70.6967 6.64128 70.3141 6.56661 69.9594 6.43595C69.6141 6.30528 69.3107 6.12328 69.0494 5.88995C68.7974 5.65661 68.5967 5.37661 68.4474 5.04995C68.3074 4.71395 68.2374 4.32661 68.2374 3.88795C68.2374 3.43995 68.3074 3.03861 68.4474 2.68395C68.5874 2.32928 68.7881 2.03061 69.0494 1.78795C69.3201 1.53595 69.6374 1.34461 70.0014 1.21395C70.3747 1.07395 70.7947 1.00395 71.2614 1.00395L75.4474 1.00395V10.9999H74.4954V6.71595H72.2554L68.9234 10.9999H67.6914L71.1074 6.65995ZM74.4954 5.90395V1.81595L71.4714 1.81595C70.7714 1.81595 70.2161 2.00261 69.8054 2.37595C69.3947 2.73995 69.1894 3.24395 69.1894 3.88795C69.1894 4.53195 69.3947 5.03128 69.8054 5.38595C70.2161 5.73128 70.7714 5.90395 71.4714 5.90395H74.4954Z" fill="black"/>
<path d="M78.2738 4.05595V0.919946H79.2958V4.05595L79.0998 8.46595H78.4697L78.2738 4.05595ZM78.2738 10.9999V9.76795H79.2958V10.9999H78.2738Z" fill="black"/>
<path d="M82.9359 4.05595V0.919946L83.9579 0.919946V4.05595L83.7619 8.46595H83.1319L82.9359 4.05595ZM82.9359 10.9999V9.76795H83.9579V10.9999H82.9359Z" fill="black"/>
<path d="M87.598 4.05595V0.919946L88.62 0.919946V4.05595L88.424 8.46595H87.794L87.598 4.05595ZM87.598 10.9999V9.76795H88.62V10.9999H87.598Z" fill="black"/>
<path d="M2.00667 21.0039H6.23467C6.65467 21.0039 7.05601 21.0459 7.43867 21.1299C7.83067 21.2046 8.17134 21.3399 8.46067 21.5359C8.75934 21.7226 8.99734 21.9746 9.17467 22.2919C9.35201 22.5999 9.44067 22.9873 9.44067 23.4539C9.44067 23.7153 9.39867 23.9719 9.31467 24.2239C9.23067 24.4666 9.10934 24.6906 8.95067 24.8959C8.80134 25.0919 8.61934 25.2599 8.40467 25.3999C8.19934 25.5399 7.96601 25.6379 7.70467 25.6939V25.7219C8.34867 25.8059 8.86201 26.0719 9.24467 26.5199C9.62734 26.9586 9.81867 27.5046 9.81867 28.1579C9.81867 28.4006 9.78134 28.6853 9.70667 29.0119C9.64134 29.3293 9.48734 29.6373 9.24467 29.9359C9.00201 30.2346 8.64267 30.4866 8.16667 30.6919C7.69067 30.8973 7.04667 30.9999 6.23467 30.9999H2.00667L2.00667 21.0039ZM6.23467 30.1879C6.58934 30.1879 6.92534 30.1599 7.24267 30.1039C7.56001 30.0386 7.84001 29.9266 8.08267 29.7679C8.32534 29.6093 8.51667 29.3993 8.65667 29.1379C8.79667 28.8766 8.86667 28.5406 8.86667 28.1299C8.86667 27.4859 8.63801 27.0053 8.18067 26.6879C7.73267 26.3613 7.08401 26.1979 6.23467 26.1979H2.95867L2.95867 30.1879H6.23467ZM6.23467 25.3859C6.60801 25.3859 6.93467 25.3439 7.21467 25.2599C7.50401 25.1666 7.74201 25.0453 7.92867 24.8959C8.11534 24.7373 8.25534 24.5553 8.34867 24.3499C8.44201 24.1446 8.48867 23.9253 8.48867 23.6919C8.48867 22.4413 7.73734 21.8159 6.23467 21.8159H2.95867V25.3859H6.23467Z" fill="black"/>
<path d="M15.241 21.0039H19.469C19.889 21.0039 20.2904 21.0459 20.673 21.1299C21.065 21.2046 21.4057 21.3399 21.695 21.5359C21.9937 21.7226 22.2317 21.9746 22.409 22.2919C22.5864 22.5999 22.675 22.9873 22.675 23.4539C22.675 23.7153 22.633 23.9719 22.549 24.2239C22.465 24.4666 22.3437 24.6906 22.185 24.8959C22.0357 25.0919 21.8537 25.2599 21.639 25.3999C21.4337 25.5399 21.2004 25.6379 20.939 25.6939V25.7219C21.583 25.8059 22.0964 26.0719 22.479 26.5199C22.8617 26.9586 23.053 27.5046 23.053 28.1579C23.053 28.4006 23.0157 28.6853 22.941 29.0119C22.8757 29.3293 22.7217 29.6373 22.479 29.9359C22.2364 30.2346 21.877 30.4866 21.401 30.6919C20.925 30.8973 20.281 30.9999 19.469 30.9999H15.241V21.0039ZM19.469 30.1879C19.8237 30.1879 20.1597 30.1599 20.477 30.1039C20.7944 30.0386 21.0744 29.9266 21.317 29.7679C21.5597 29.6093 21.751 29.3993 21.891 29.1379C22.031 28.8766 22.101 28.5406 22.101 28.1299C22.101 27.4859 21.8724 27.0053 21.415 26.6879C20.967 26.3613 20.3184 26.1979 19.469 26.1979H16.193V30.1879H19.469ZM19.469 25.3859C19.8424 25.3859 20.169 25.3439 20.449 25.2599C20.7384 25.1666 20.9764 25.0453 21.163 24.8959C21.3497 24.7373 21.4897 24.5553 21.583 24.3499C21.6764 24.1446 21.723 23.9253 21.723 23.6919C21.723 22.4413 20.9717 21.8159 19.469 21.8159L16.193 21.8159V25.3859H19.469Z" fill="black"/>
<path d="M25.5029 31.1119C25.2789 31.1119 25.0736 31.0979 24.8869 31.0699C24.7096 31.0419 24.5696 31.0093 24.4669 30.9719V30.1319C24.5883 30.1786 24.7329 30.2206 24.9009 30.2579C25.0689 30.2859 25.2649 30.2999 25.4889 30.2999C25.8436 30.2999 26.1376 30.1879 26.3709 29.9639C26.6136 29.7399 26.8469 29.3899 27.0709 28.9139L27.1969 28.6479L23.4869 21.0039H24.5089L27.7569 27.6399L30.9209 21.0039H31.9289L27.9949 29.1519C27.7896 29.5813 27.5889 29.9266 27.3929 30.1879C27.1969 30.4399 26.9963 30.6359 26.7909 30.7759C26.5949 30.9159 26.3896 31.0046 26.1749 31.0419C25.9696 31.0886 25.7456 31.1119 25.5029 31.1119Z" fill="black"/>
<path d="M32.5574 31.0839C32.5014 31.0839 32.4314 31.0793 32.3474 31.0699C32.2727 31.0606 32.1934 31.0513 32.1094 31.0419C32.0254 31.0326 31.9507 31.0186 31.8854 30.9999C31.8201 30.9906 31.7734 30.9813 31.7454 30.9719V30.1599C31.8201 30.1973 31.9321 30.2253 32.0814 30.2439C32.2401 30.2533 32.3567 30.2579 32.4314 30.2579C32.5341 30.2579 32.6554 30.2486 32.7954 30.2299C32.9354 30.2019 33.0801 30.1179 33.2294 29.9779C33.3881 29.8286 33.5421 29.5999 33.6914 29.2919C33.8501 28.9746 33.9854 28.5266 34.0974 27.9479C34.2187 27.3599 34.3167 26.6179 34.3914 25.7219C34.4661 24.8259 34.5034 23.7246 34.5034 22.4179V21.0039H40.6494V30.9999H39.6974V21.8159H35.4274V22.3619C35.4274 23.8179 35.3807 25.0453 35.2874 26.0439C35.1941 27.0333 35.0681 27.8546 34.9094 28.5079C34.7507 29.1519 34.5687 29.6513 34.3634 30.0059C34.1674 30.3513 33.9621 30.6033 33.7474 30.7619C33.5421 30.9206 33.3321 31.0139 33.1174 31.0419C32.9121 31.0699 32.7254 31.0839 32.5574 31.0839Z" fill="black"/>
<path d="M42.6668 21.0039H43.6188V26.3799L49.4288 21.0039H50.7168L46.2508 25.1339L50.9268 30.9999H49.6948L45.5368 25.7919L43.6188 27.5699V30.9999H42.6668V21.0039Z" fill="black"/>
<path d="M54.671 21.0039H55.735L59.655 30.9999H58.633L57.415 27.8919H52.865L51.661 30.9999H50.653L54.671 21.0039ZM57.093 27.0799L55.161 21.9559L53.159 27.0799H57.093Z" fill="black"/>
<path d="M60.5633 21.0039H61.5153V25.3439H67.4513V21.0039H68.4033V30.9999H67.4513V26.1559H61.5153V30.9999H60.5633V21.0039Z" fill="black"/>
<path d="M70.4207 21.0039H77.3227V21.8159H71.3727V25.4279H76.9447V26.2399H71.3727V30.1879H77.3927V30.9999H70.4207V21.0039Z" fill="black"/>
<path d="M6.19267 51.1959C5.40867 51.1959 4.71801 51.0559 4.12067 50.7759C3.53267 50.4866 3.04267 50.1039 2.65067 49.6279C2.25867 49.1519 1.96467 48.6013 1.76867 47.9759C1.57267 47.3506 1.47467 46.6926 1.47467 46.0019C1.47467 45.3206 1.57267 44.6673 1.76867 44.0419C1.96467 43.4073 2.25867 42.8519 2.65067 42.3759C3.04267 41.8906 3.53267 41.5079 4.12067 41.2279C4.71801 40.9386 5.40867 40.7939 6.19267 40.7939C6.97667 40.7939 7.66267 40.9386 8.25067 41.2279C8.83867 41.5079 9.32867 41.8906 9.72067 42.3759C10.1127 42.8519 10.4067 43.4073 10.6027 44.0419C10.7987 44.6673 10.8967 45.3206 10.8967 46.0019C10.8967 46.6926 10.7987 47.3506 10.6027 47.9759C10.4067 48.6013 10.1127 49.1519 9.72067 49.6279C9.32867 50.1039 8.83867 50.4866 8.25067 50.7759C7.66267 51.0559 6.97667 51.1959 6.19267 51.1959ZM6.19267 50.3979C6.84601 50.3979 7.41067 50.2719 7.88667 50.0199C8.36267 49.7679 8.75001 49.4366 9.04867 49.0259C9.35667 48.6059 9.58067 48.1346 9.72067 47.6119C9.87001 47.0893 9.94467 46.5526 9.94467 46.0019C9.94467 45.4606 9.87001 44.9286 9.72067 44.4059C9.58067 43.8739 9.35667 43.4026 9.04867 42.9919C8.75001 42.5719 8.36267 42.2359 7.88667 41.9839C7.41067 41.7319 6.84601 41.6059 6.19267 41.6059C5.53001 41.6059 4.96067 41.7319 4.48467 41.9839C4.00867 42.2359 3.61667 42.5719 3.30867 42.9919C3.01001 43.4026 2.78601 43.8739 2.63667 44.4059C2.49667 44.9286 2.42667 45.4606 2.42667 46.0019C2.42667 46.5526 2.49667 47.0893 2.63667 47.6119C2.78601 48.1346 3.01001 48.6059 3.30867 49.0259C3.61667 49.4366 4.00867 49.7679 4.48467 50.0199C4.96067 50.2719 5.53001 50.3979 6.19267 50.3979Z" fill="black"/>
<path d="M12.3836 41.0039H19.2856V41.8159H13.3356V45.2319H17.1016C18.035 45.2319 18.763 45.4886 19.2856 46.0019C19.8083 46.5153 20.0696 47.2199 20.0696 48.1159C20.0696 49.0119 19.8083 49.7166 19.2856 50.2299C18.763 50.7433 18.035 50.9999 17.1016 50.9999H12.3836V41.0039ZM16.8916 50.1879C17.5916 50.1879 18.1376 50.0059 18.5296 49.6419C18.9216 49.2686 19.1176 48.7599 19.1176 48.1159C19.1176 47.4719 18.9216 46.9679 18.5296 46.6039C18.1376 46.2306 17.5916 46.0439 16.8916 46.0439H13.3356V50.1879H16.8916Z" fill="black"/>
<path d="M21.7215 41.0039H22.6735V45.3439H28.6095V41.0039H29.5615V50.9999H28.6095V46.1559H22.6735V50.9999H21.7215V41.0039Z" fill="black"/>
<path d="M34.5049 41.0039H35.5689L39.4889 50.9999H38.4669L37.2489 47.8919H32.6989L31.4949 50.9999H30.4869L34.5049 41.0039ZM36.9269 47.0799L34.9949 41.9559L32.9929 47.0799H36.9269Z" fill="black"/>
<path d="M40.3973 41.0039H44.8353C45.2833 41.0039 45.6893 41.0693 46.0533 41.1999C46.4173 41.3213 46.73 41.5079 46.9913 41.7599C47.2526 42.0026 47.4533 42.3013 47.5933 42.6559C47.7333 43.0106 47.8033 43.4119 47.8033 43.8599C47.8033 44.3079 47.7333 44.7093 47.5933 45.0639C47.4533 45.4186 47.2526 45.7219 46.9913 45.9739C46.73 46.2166 46.4173 46.4033 46.0533 46.5339C45.6893 46.6553 45.2833 46.7159 44.8353 46.7159H41.3493V50.9999H40.3973V41.0039ZM44.6253 45.9039C45.288 45.9039 45.8246 45.7359 46.2353 45.3999C46.646 45.0639 46.8513 44.5506 46.8513 43.8599C46.8513 43.1693 46.646 42.6559 46.2353 42.3199C45.8246 41.9839 45.288 41.8159 44.6253 41.8159H41.3493V45.9039H44.6253Z" fill="black"/>
<path d="M50.1397 51.1119C49.9157 51.1119 49.7103 51.0979 49.5237 51.0699C49.3463 51.0419 49.2063 51.0093 49.1037 50.9719V50.1319C49.225 50.1786 49.3697 50.2206 49.5377 50.2579C49.7057 50.2859 49.9017 50.2999 50.1257 50.2999C50.4803 50.2999 50.7743 50.1879 51.0077 49.9639C51.2503 49.7399 51.4837 49.3899 51.7077 48.9139L51.8337 48.6479L48.1237 41.0039H49.1457L52.3937 47.6399L55.5577 41.0039H56.5657L52.6317 49.1519C52.4263 49.5813 52.2257 49.9266 52.0297 50.1879C51.8337 50.4399 51.633 50.6359 51.4277 50.7759C51.2317 50.9159 51.0263 51.0046 50.8117 51.0419C50.6063 51.0886 50.3823 51.1119 50.1397 51.1119Z" fill="black"/>
<path d="M60.8201 45.3159L56.6761 41.0039H57.9641L62.8921 46.2679V41.0039H63.8441V46.2679L68.7721 41.0039H70.0601L65.9161 45.3159L70.4101 50.9999H69.1781L65.2441 46.0159L63.8441 47.4719V50.9999H62.8921V47.4719L61.4921 46.0159L57.5581 50.9999H56.3261L60.8201 45.3159Z" fill="black"/>
<path d="M71.3094 41.0039H78.2114V41.8159H72.2614V45.4279H77.8334V46.2399L72.2614 46.2399V50.1879H78.2814V50.9999H71.3094V41.0039Z" fill="black"/>
<path d="M79.6082 41.0039H80.5602V45.3439H86.4962V41.0039H87.4482V50.9999H86.4962V46.1559H80.5602V50.9999H79.6082V41.0039Z" fill="black"/>
<path d="M93.6517 51.1959C92.8677 51.1959 92.177 51.0559 91.5797 50.7759C90.9917 50.4866 90.5017 50.1039 90.1097 49.6279C89.7177 49.1519 89.4237 48.6013 89.2277 47.9759C89.0317 47.3506 88.9337 46.6926 88.9337 46.0019C88.9337 45.3206 89.0317 44.6673 89.2277 44.0419C89.4237 43.4073 89.7177 42.8519 90.1097 42.3759C90.5017 41.8906 90.9917 41.5079 91.5797 41.2279C92.177 40.9386 92.8677 40.7939 93.6517 40.7939C94.4357 40.7939 95.1217 40.9386 95.7097 41.2279C96.2977 41.5079 96.7877 41.8906 97.1797 42.3759C97.5717 42.8519 97.8657 43.4073 98.0617 44.0419C98.2577 44.6673 98.3557 45.3206 98.3557 46.0019C98.3557 46.6926 98.2577 47.3506 98.0617 47.9759C97.8657 48.6013 97.5717 49.1519 97.1797 49.6279C96.7877 50.1039 96.2977 50.4866 95.7097 50.7759C95.1217 51.0559 94.4357 51.1959 93.6517 51.1959ZM93.6517 50.3979C94.305 50.3979 94.8697 50.2719 95.3457 50.0199C95.8217 49.7679 96.209 49.4366 96.5077 49.0259C96.8157 48.6059 97.0397 48.1346 97.1797 47.6119C97.329 47.0893 97.4037 46.5526 97.4037 46.0019C97.4037 45.4606 97.329 44.9286 97.1797 44.4059C97.0397 43.8739 96.8157 43.4026 96.5077 42.9919C96.209 42.5719 95.8217 42.2359 95.3457 41.9839C94.8697 41.7319 94.305 41.6059 93.6517 41.6059C92.989 41.6059 92.4197 41.7319 91.9437 41.9839C91.4677 42.2359 91.0757 42.5719 90.7677 42.9919C90.469 43.4026 90.245 43.8739 90.0957 44.4059C89.9557 44.9286 89.8857 45.4606 89.8857 46.0019C89.8857 46.5526 89.9557 47.0893 90.0957 47.6119C90.245 48.1346 90.469 48.6059 90.7677 49.0259C91.0757 49.4366 91.4677 49.7679 91.9437 50.0199C92.4197 50.2719 92.989 50.3979 93.6517 50.3979Z" fill="black"/>
<path d="M103.739 41.0039H104.691V45.3439H110.627V41.0039H111.579V50.9999H110.627V46.1559H104.691V50.9999H103.739V41.0039Z" fill="black"/>
<path d="M113.597 41.0039H120.499V41.8159L114.549 41.8159V45.4279H120.121V46.2399H114.549V50.1879H120.569V50.9999H113.597V41.0039Z" fill="black"/>
<path d="M127.747 46.4499C127.607 46.4873 127.411 46.5293 127.159 46.5759C126.907 46.6226 126.632 46.6693 126.333 46.7159C126.044 46.7533 125.75 46.7906 125.451 46.8279C125.162 46.8559 124.905 46.8699 124.681 46.8699C123.963 46.8699 123.389 46.7859 122.959 46.6179C122.539 46.4406 122.217 46.2166 121.993 45.9459C121.769 45.6659 121.625 45.3579 121.559 45.0219C121.494 44.6766 121.461 44.3359 121.461 43.9999V41.0039H122.413V43.9439C122.413 44.1493 122.432 44.3733 122.469 44.6159C122.507 44.8586 122.6 45.0873 122.749 45.3019C122.899 45.5073 123.113 45.6846 123.393 45.8339C123.683 45.9739 124.079 46.0439 124.583 46.0439C124.882 46.0439 125.19 46.0299 125.507 46.0019C125.834 45.9646 126.142 45.9273 126.431 45.8899C126.721 45.8433 126.977 45.7966 127.201 45.7499C127.435 45.7033 127.617 45.6659 127.747 45.6379V41.0039H128.699V50.9999H127.747V46.4499Z" fill="black"/>
<path d="M133.122 41.8159H129.65V41.0039H137.56V41.8159H134.074V50.9999H133.122V41.8159Z" fill="black"/>
<path d="M142.679 51.1959C141.895 51.1959 141.204 51.0559 140.607 50.7759C140.019 50.4866 139.529 50.1039 139.137 49.6279C138.745 49.1519 138.451 48.6013 138.255 47.9759C138.059 47.3506 137.961 46.6926 137.961 46.0019C137.961 45.3206 138.059 44.6673 138.255 44.0419C138.451 43.4073 138.745 42.8519 139.137 42.3759C139.529 41.8906 140.019 41.5079 140.607 41.2279C141.204 40.9386 141.895 40.7939 142.679 40.7939C143.463 40.7939 144.149 40.9386 144.737 41.2279C145.325 41.5079 145.815 41.8906 146.207 42.3759C146.599 42.8519 146.893 43.4073 147.089 44.0419C147.285 44.6673 147.383 45.3206 147.383 46.0019C147.383 46.6926 147.285 47.3506 147.089 47.9759C146.893 48.6013 146.599 49.1519 146.207 49.6279C145.815 50.1039 145.325 50.4866 144.737 50.7759C144.149 51.0559 143.463 51.1959 142.679 51.1959ZM142.679 50.3979C143.332 50.3979 143.897 50.2719 144.373 50.0199C144.849 49.7679 145.236 49.4366 145.535 49.0259C145.843 48.6059 146.067 48.1346 146.207 47.6119C146.356 47.0893 146.431 46.5526 146.431 46.0019C146.431 45.4606 146.356 44.9286 146.207 44.4059C146.067 43.8739 145.843 43.4026 145.535 42.9919C145.236 42.5719 144.849 42.2359 144.373 41.9839C143.897 41.7319 143.332 41.6059 142.679 41.6059C142.016 41.6059 141.447 41.7319 140.971 41.9839C140.495 42.2359 140.103 42.5719 139.795 42.9919C139.496 43.4026 139.272 43.8739 139.123 44.4059C138.983 44.9286 138.913 45.4606 138.913 46.0019C138.913 46.5526 138.983 47.0893 139.123 47.6119C139.272 48.1346 139.496 48.6059 139.795 49.0259C140.103 49.4366 140.495 49.7679 140.971 50.0199C141.447 50.2719 142.016 50.3979 142.679 50.3979Z" fill="black"/>
<path d="M149.682 44.0559V40.9199H150.704V44.0559L150.508 48.4659H149.878L149.682 44.0559ZM149.682 50.9999V49.7679H150.704V50.9999H149.682Z" fill="black"/>
<path d="M2.93067 71.1119C2.70667 71.1119 2.50134 71.0979 2.31467 71.0699C2.13734 71.0419 1.99734 71.0093 1.89467 70.9719V70.1319C2.01601 70.1786 2.16067 70.2206 2.32867 70.2579C2.49667 70.2859 2.69267 70.2999 2.91667 70.2999C3.27134 70.2999 3.56534 70.1879 3.79867 69.9639C4.04134 69.7399 4.27467 69.3899 4.49867 68.9139L4.62467 68.6479L0.914673 61.0039H1.93667L5.18467 67.6399L8.34867 61.0039H9.35667L5.42267 69.1519C5.21734 69.5813 5.01667 69.9266 4.82067 70.1879C4.62467 70.4399 4.42401 70.6359 4.21867 70.7759C4.02267 70.9159 3.81734 71.0046 3.60267 71.0419C3.39734 71.0886 3.17334 71.1119 2.93067 71.1119Z" fill="black"/>
<path d="M16.0891 66.4499C15.9491 66.4873 15.7531 66.5293 15.5011 66.5759C15.2491 66.6226 14.9738 66.6693 14.6751 66.7159C14.3858 66.7533 14.0918 66.7906 13.7931 66.8279C13.5038 66.8559 13.2471 66.8699 13.0231 66.8699C12.3045 66.8699 11.7305 66.7859 11.3011 66.6179C10.8811 66.4406 10.5591 66.2166 10.3351 65.9459C10.1111 65.6659 9.96647 65.3579 9.90114 65.0219C9.83581 64.6766 9.80314 64.3359 9.80314 63.9999V61.0039H10.7551V63.9439C10.7551 64.1493 10.7738 64.3733 10.8111 64.6159C10.8485 64.8586 10.9418 65.0873 11.0911 65.3019C11.2405 65.5073 11.4551 65.6846 11.7351 65.8339C12.0245 65.9739 12.4211 66.0439 12.9251 66.0439C13.2238 66.0439 13.5318 66.0299 13.8491 66.0019C14.1758 65.9646 14.4838 65.9273 14.7731 65.8899C15.0625 65.8433 15.3191 65.7966 15.5431 65.7499C15.7765 65.7033 15.9585 65.6659 16.0891 65.6379V61.0039H17.0411V70.9999H16.0891V66.4499Z" fill="black"/>
<path d="M19.0555 61.0039H25.9575V61.8159H20.0075V65.4279H25.5795V66.2399H20.0075V70.1879H26.0275V70.9999H19.0555V61.0039Z" fill="black"/>
<path d="M27.3543 61.0039H28.3063V65.3439H34.2423V61.0039H35.1943V70.9999H34.2423V66.1559H28.3063V70.9999H27.3543V61.0039Z" fill="black"/>
<path d="M37.2118 61.0039H38.1637V65.2319H41.6497C42.5831 65.2319 43.3111 65.4886 43.8338 66.0019C44.3564 66.5153 44.6178 67.2199 44.6178 68.1159C44.6178 69.0119 44.3564 69.7166 43.8338 70.2299C43.3111 70.7433 42.5831 70.9999 41.6497 70.9999H37.2118V61.0039ZM41.4398 70.1879C42.1398 70.1879 42.6858 70.0059 43.0778 69.6419C43.4698 69.2686 43.6658 68.7599 43.6658 68.1159C43.6658 67.4719 43.4698 66.9679 43.0778 66.6039C42.6858 66.2306 42.1398 66.0439 41.4398 66.0439H38.1637V70.1879H41.4398ZM46.0878 61.0039H47.0398V70.9999H46.0878V61.0039Z" fill="black"/>
<path d="M49.0516 61.0039H55.9536V61.8159H50.0036V65.4279H55.5756V66.2399H50.0036V70.1879H56.0236V70.9999H49.0516V61.0039Z" fill="black"/>
<path d="M65.4329 71.1959C64.6489 71.1959 63.9582 71.0559 63.3609 70.7759C62.7729 70.4866 62.2829 70.1039 61.8909 69.6279C61.4989 69.1519 61.2049 68.6013 61.0089 67.9759C60.8129 67.3506 60.7149 66.6926 60.7149 66.0019C60.7149 65.3206 60.8129 64.6673 61.0089 64.0419C61.2049 63.4073 61.4989 62.8519 61.8909 62.3759C62.2829 61.8906 62.7729 61.5079 63.3609 61.2279C63.9582 60.9386 64.6489 60.7939 65.4329 60.7939C66.2169 60.7939 66.9029 60.9386 67.4909 61.2279C68.0789 61.5079 68.5689 61.8906 68.9609 62.3759C69.3529 62.8519 69.6469 63.4073 69.8429 64.0419C70.0389 64.6673 70.1369 65.3206 70.1369 66.0019C70.1369 66.6926 70.0389 67.3506 69.8429 67.9759C69.6469 68.6013 69.3529 69.1519 68.9609 69.6279C68.5689 70.1039 68.0789 70.4866 67.4909 70.7759C66.9029 71.0559 66.2169 71.1959 65.4329 71.1959ZM65.4329 70.3979C66.0862 70.3979 66.6509 70.2719 67.1269 70.0199C67.6029 69.7679 67.9902 69.4366 68.2889 69.0259C68.5969 68.6059 68.8209 68.1346 68.9609 67.6119C69.1102 67.0893 69.1849 66.5526 69.1849 66.0019C69.1849 65.4606 69.1102 64.9286 68.9609 64.4059C68.8209 63.8739 68.5969 63.4026 68.2889 62.9919C67.9902 62.5719 67.6029 62.2359 67.1269 61.9839C66.6509 61.7319 66.0862 61.6059 65.4329 61.6059C64.7702 61.6059 64.2009 61.7319 63.7249 61.9839C63.2489 62.2359 62.8569 62.5719 62.5489 62.9919C62.2502 63.4026 62.0262 63.8739 61.8769 64.4059C61.7369 64.9286 61.6669 65.4606 61.6669 66.0019C61.6669 66.5526 61.7369 67.0893 61.8769 67.6119C62.0262 68.1346 62.2502 68.6059 62.5489 69.0259C62.8569 69.4366 63.2489 69.7679 63.7249 70.0199C64.2009 70.2719 64.7702 70.3979 65.4329 70.3979Z" fill="black"/>
<path d="M71.6239 61.0039H78.5259V61.8159H72.5759V65.2319H76.3419C77.2752 65.2319 78.0032 65.4886 78.5259 66.0019C79.0485 66.5153 79.3099 67.2199 79.3099 68.1159C79.3099 69.0119 79.0485 69.7166 78.5259 70.2299C78.0032 70.7433 77.2752 70.9999 76.3419 70.9999H71.6239V61.0039ZM76.1319 70.188C76.8319 70.188 77.3779 70.0059 77.7699 69.6419C78.1619 69.2686 78.3579 68.7599 78.3579 68.1159C78.3579 67.4719 78.1619 66.9679 77.7699 66.6039C77.3779 66.2306 76.8319 66.0439 76.1319 66.0439H72.5759V70.188H76.1319Z" fill="black"/>
<path d="M80.9618 61.0039H81.9137V65.3439H87.8498V61.0039H88.8018V70.9999H87.8498V66.1559H81.9137V70.9999H80.9618V61.0039Z" fill="black"/>
<path d="M93.7452 61.0039H94.8092L98.7292 70.9999H97.7072L96.4892 67.8919H91.9392L90.7352 70.9999H89.7272L93.7452 61.0039ZM96.1672 67.0799L94.2352 61.9559L92.2332 67.0799H96.1672Z" fill="black"/>
<path d="M99.6375 61.0039H104.076C104.524 61.0039 104.93 61.0693 105.294 61.1999C105.658 61.3213 105.97 61.5079 106.232 61.7599C106.493 62.0026 106.694 62.3013 106.834 62.6559C106.974 63.0106 107.044 63.4119 107.044 63.8599C107.044 64.3079 106.974 64.7093 106.834 65.0639C106.694 65.4186 106.493 65.7219 106.232 65.9739C105.97 66.2166 105.658 66.4033 105.294 66.5339C104.93 66.6553 104.524 66.716 104.076 66.716H100.59V70.9999H99.6375V61.0039ZM103.866 65.9039C104.528 65.9039 105.065 65.7359 105.476 65.3999C105.886 65.0639 106.092 64.5506 106.092 63.8599C106.092 63.1693 105.886 62.6559 105.476 62.3199C105.065 61.9839 104.528 61.8159 103.866 61.8159H100.59V65.9039H103.866Z" fill="black"/>
<path d="M109.38 71.1119C109.156 71.1119 108.951 71.0979 108.764 71.0699C108.587 71.0419 108.447 71.0093 108.344 70.9719V70.132C108.465 70.1786 108.61 70.2206 108.778 70.2579C108.946 70.2859 109.142 70.2999 109.366 70.2999C109.721 70.2999 110.015 70.1879 110.248 69.9639C110.491 69.7399 110.724 69.3899 110.948 68.9139L111.074 68.6479L107.364 61.0039H108.386L111.634 67.6399L114.798 61.0039H115.806L111.872 69.1519C111.667 69.5813 111.466 69.9266 111.27 70.188C111.074 70.44 110.873 70.6359 110.668 70.7759C110.472 70.9159 110.267 71.0046 110.052 71.0419C109.847 71.0886 109.623 71.1119 109.38 71.1119Z" fill="black"/>
<path d="M120.06 65.3159L115.916 61.0039H117.204L122.132 66.2679V61.0039H123.084V66.2679L128.012 61.0039H129.3L125.156 65.3159L129.65 70.9999H128.418L124.484 66.0159L123.084 67.4719V70.9999H122.132V67.4719L120.732 66.0159L116.798 70.9999H115.566L120.06 65.3159Z" fill="black"/>
<path d="M130.55 61.0039H131.502V69.9779L137.242 61.0039H138.474V70.9999H137.522V62.0259L131.782 70.9999H130.55V61.0039Z" fill="black"/>
<path d="M140.237 71.0839C140.181 71.0839 140.111 71.0793 140.027 71.0699C139.952 71.0606 139.873 71.0513 139.789 71.0419C139.705 71.0326 139.63 71.0186 139.565 70.9999C139.5 70.9906 139.453 70.9813 139.425 70.9719V70.16C139.5 70.1973 139.612 70.2253 139.761 70.2439C139.92 70.2533 140.036 70.2579 140.111 70.2579C140.214 70.2579 140.335 70.2486 140.475 70.2299C140.615 70.2019 140.76 70.1179 140.909 69.9779C141.068 69.8286 141.222 69.5999 141.371 69.2919C141.53 68.9746 141.665 68.5266 141.777 67.9479C141.898 67.3599 141.996 66.6179 142.071 65.7219C142.146 64.8259 142.183 63.7246 142.183 62.4179V61.0039H148.329V70.9999H147.377V61.8159H143.107V62.3619C143.107 63.8179 143.06 65.0453 142.967 66.0439C142.874 67.0333 142.748 67.8546 142.589 68.5079C142.43 69.1519 142.248 69.6513 142.043 70.0059C141.847 70.3513 141.642 70.6033 141.427 70.7619C141.222 70.9206 141.012 71.0139 140.797 71.0419C140.592 71.0699 140.405 71.0839 140.237 71.0839Z" fill="black"/>
<path d="M150.347 61.0039H151.299V69.9779L157.039 61.0039H158.271V70.9999H157.319V62.0259L151.579 70.9999H150.347V61.0039Z" fill="black"/>
<path d="M1.75467 91.0839C1.69867 91.0839 1.62867 91.0793 1.54467 91.0699C1.47001 91.0606 1.39067 91.0513 1.30667 91.0419C1.22267 91.0326 1.14801 91.0186 1.08267 90.9999C1.01734 90.9906 0.970673 90.9813 0.942673 90.9719L0.942673 90.1599C1.01734 90.1973 1.12934 90.2253 1.27867 90.2439C1.43734 90.2533 1.55401 90.2579 1.62867 90.2579C1.73134 90.2579 1.85267 90.2486 1.99267 90.2299C2.13267 90.2019 2.27734 90.1179 2.42667 89.9779C2.58534 89.8286 2.73934 89.5999 2.88867 89.2919C3.04734 88.9746 3.18267 88.5266 3.29467 87.9479C3.41601 87.3599 3.51401 86.6179 3.58867 85.7219C3.66334 84.8259 3.70067 83.7246 3.70067 82.4179V81.0039H9.84667V90.9999H8.89467V81.8159H4.62467V82.3619C4.62467 83.8179 4.57801 85.0453 4.48467 86.0439C4.39134 87.0333 4.26534 87.8546 4.10667 88.5079C3.94801 89.1519 3.76601 89.6513 3.56067 90.0059C3.36467 90.3513 3.15934 90.6033 2.94467 90.7619C2.73934 90.9206 2.52934 91.0139 2.31467 91.0419C2.10934 91.0699 1.92267 91.0839 1.75467 91.0839Z" fill="black"/>
<path d="M19.5361 91.1959C18.7988 91.1959 18.1501 91.0606 17.5901 90.7899C17.0301 90.5193 16.5541 90.1553 16.1621 89.6979C15.7794 89.2313 15.4854 88.6993 15.2801 88.1019C15.0841 87.4953 14.9768 86.8559 14.9581 86.1839H12.8161V90.9999H11.8641V81.0039H12.8161L12.8161 85.3719H14.9861C15.0421 84.7559 15.1774 84.1726 15.3921 83.6219C15.6161 83.0619 15.9194 82.5719 16.3021 82.1519C16.6848 81.7319 17.1421 81.4006 17.6741 81.1579C18.2154 80.9153 18.8361 80.7939 19.5361 80.7939C20.2828 80.7939 20.9408 80.9386 21.5101 81.2279C22.0794 81.5079 22.5554 81.8906 22.9381 82.3759C23.3208 82.8519 23.6101 83.4073 23.8061 84.0419C24.0021 84.6673 24.1001 85.3206 24.1001 86.0019C24.1001 86.6926 24.0021 87.3506 23.8061 87.9759C23.6101 88.6013 23.3208 89.1519 22.9381 89.6279C22.5554 90.1039 22.0794 90.4866 21.5101 90.7759C20.9408 91.0559 20.2828 91.1959 19.5361 91.1959ZM19.5361 90.3979C20.1614 90.3979 20.6981 90.2719 21.1461 90.0199C21.6034 89.7679 21.9768 89.4366 22.2661 89.0259C22.5648 88.6059 22.7841 88.1346 22.9241 87.6119C23.0734 87.0893 23.1481 86.5526 23.1481 86.0019C23.1481 85.4606 23.0734 84.9286 22.9241 84.4059C22.7841 83.8739 22.5648 83.4026 22.2661 82.9919C21.9768 82.5719 21.6034 82.2359 21.1461 81.9839C20.6981 81.7319 20.1614 81.6059 19.5361 81.6059C18.9108 81.6059 18.3694 81.7319 17.9121 81.9839C17.4548 82.2359 17.0768 82.5719 16.7781 82.9919C16.4888 83.4026 16.2694 83.8739 16.1201 84.4059C15.9801 84.9286 15.9101 85.4606 15.9101 86.0019C15.9101 86.5526 15.9801 87.0893 16.1201 87.6119C16.2694 88.1346 16.4888 88.6059 16.7781 89.0259C17.0768 89.4366 17.4548 89.7679 17.9121 90.0199C18.3694 90.2719 18.9108 90.3979 19.5361 90.3979Z" fill="black"/>
<path d="M24.5827 90.1879H25.6327C25.9873 89.5346 26.2627 88.8673 26.4587 88.1859C26.6547 87.4953 26.7993 86.8093 26.8927 86.1279C26.9953 85.4466 27.056 84.7839 27.0747 84.1399C27.1027 83.4959 27.1167 82.8893 27.1167 82.3199V81.0039H33.3047V90.1879H34.4947V93.6599H33.5427V90.9999H25.5347L25.5347 93.6599H24.5827V90.1879ZM32.3527 90.1879V81.8159H28.0687V82.1519C28.0687 82.7119 28.0593 83.3233 28.0407 83.9859C28.0313 84.6393 27.98 85.3159 27.8867 86.0159C27.7933 86.7159 27.6487 87.4206 27.4527 88.1299C27.266 88.8393 26.9953 89.5253 26.6407 90.1879H32.3527Z" fill="black"/>
<path d="M35.6121 81.0039H42.5141V81.8159H36.5641V85.4279H42.1361V86.2399H36.5641V90.1879H42.5841V90.9999H35.6121V81.0039Z" fill="black"/>
<path d="M43.911 81.0039H44.863V89.9779L50.603 81.0039H51.835V90.9999H50.883V82.0259L45.143 90.9999H43.911V81.0039ZM47.789 80.1779C47.201 80.1779 46.7436 80.0239 46.417 79.7159C46.0903 79.3986 45.8896 78.9459 45.815 78.3579H46.361C46.4076 78.7126 46.5523 78.9926 46.795 79.1979C47.047 79.4033 47.383 79.5059 47.803 79.5059C48.2043 79.5059 48.531 79.4079 48.783 79.2119C49.0443 79.0066 49.2123 78.7219 49.287 78.3579H49.833C49.7303 78.9459 49.511 79.3986 49.175 79.7159C48.839 80.0239 48.377 80.1779 47.789 80.1779Z" fill="black"/>
<path d="M57.7469 81.0039H61.9749C62.3949 81.0039 62.7962 81.0459 63.1789 81.1299C63.5709 81.2046 63.9116 81.3399 64.2009 81.5359C64.4996 81.7226 64.7376 81.9746 64.9149 82.2919C65.0922 82.5999 65.1809 82.9873 65.1809 83.4539C65.1809 83.7153 65.1389 83.9719 65.0549 84.2239C64.9709 84.4666 64.8496 84.6906 64.6909 84.8959C64.5416 85.0919 64.3596 85.2599 64.1449 85.3999C63.9396 85.5399 63.7062 85.6379 63.4449 85.6939V85.7219C64.0889 85.8059 64.6022 86.0719 64.9849 86.5199C65.3676 86.9586 65.5589 87.5046 65.5589 88.1579C65.5589 88.4006 65.5216 88.6853 65.4469 89.0119C65.3816 89.3293 65.2276 89.6373 64.9849 89.9359C64.7422 90.2346 64.3829 90.4866 63.9069 90.6919C63.4309 90.8973 62.7869 90.9999 61.9749 90.9999H57.7469V81.0039ZM61.9749 90.1879C62.3296 90.1879 62.6656 90.1599 62.9829 90.1039C63.3002 90.0386 63.5802 89.9266 63.8229 89.7679C64.0656 89.6093 64.2569 89.3993 64.3969 89.1379C64.5369 88.8766 64.6069 88.5406 64.6069 88.1299C64.6069 87.4859 64.3782 87.0053 63.9209 86.6879C63.4729 86.3613 62.8242 86.1979 61.9749 86.1979H58.6989V90.1879H61.9749ZM61.9749 85.3859C62.3482 85.3859 62.6749 85.3439 62.9549 85.2599C63.2442 85.1666 63.4822 85.0453 63.6689 84.8959C63.8556 84.7373 63.9956 84.5553 64.0889 84.3499C64.1822 84.1446 64.2289 83.9253 64.2289 83.6919C64.2289 82.4413 63.4776 81.8159 61.9749 81.8159H58.6989V85.3859H61.9749Z" fill="black"/>
<path d="M74.3553 85.3159L70.2113 81.0039H71.4993L76.4273 86.2679V81.0039H77.3793V86.2679L82.3073 81.0039H83.5953L79.4513 85.3159L83.9453 90.9999H82.7133L78.7793 86.0159L77.3793 87.4719V90.9999H76.4273V87.4719L75.0273 86.0159L71.0933 90.9999H69.8613L74.3553 85.3159Z" fill="black"/>
<path d="M84.8446 81.0039H91.7466V81.8159H85.7966V85.4279H91.3686V86.2399H85.7966V90.188H91.8166V90.9999H84.8446V81.0039Z" fill="black"/>
<path d="M93.1434 81.0039H97.5814C98.0294 81.0039 98.4354 81.0693 98.7994 81.1999C99.1634 81.3213 99.4761 81.5079 99.7374 81.7599C99.9987 82.0026 100.199 82.3013 100.339 82.6559C100.479 83.0106 100.549 83.4119 100.549 83.8599C100.549 84.3079 100.479 84.7093 100.339 85.0639C100.199 85.4186 99.9987 85.7219 99.7374 85.9739C99.4761 86.2166 99.1634 86.4033 98.7994 86.5339C98.4354 86.6553 98.0294 86.716 97.5814 86.716H94.0954V90.9999H93.1434V81.0039ZM97.3714 85.9039C98.0341 85.9039 98.5707 85.7359 98.9814 85.3999C99.3921 85.0639 99.5974 84.5506 99.5974 83.8599C99.5974 83.1693 99.3921 82.6559 98.9814 82.3199C98.5707 81.9839 98.0341 81.8159 97.3714 81.8159H94.0954V85.9039H97.3714Z" fill="black"/>
<path d="M101.71 91.0839C101.654 91.0839 101.584 91.0793 101.5 91.0699C101.425 91.0606 101.346 91.0513 101.262 91.0419C101.178 91.0326 101.103 91.0186 101.038 90.9999C100.972 90.9906 100.926 90.9813 100.898 90.9719V90.16C100.972 90.1973 101.084 90.2253 101.234 90.2439C101.392 90.2533 101.509 90.2579 101.584 90.2579C101.686 90.2579 101.808 90.2486 101.948 90.2299C102.088 90.2019 102.232 90.1179 102.382 89.9779C102.54 89.8286 102.694 89.5999 102.844 89.2919C103.002 88.9746 103.138 88.5266 103.25 87.9479C103.371 87.3599 103.469 86.6179 103.544 85.7219C103.618 84.8259 103.656 83.7246 103.656 82.4179V81.0039H109.802V90.9999H108.85V81.8159H104.58V82.3619C104.58 83.8179 104.533 85.0453 104.44 86.0439C104.346 87.0333 104.22 87.8546 104.062 88.5079C103.903 89.1519 103.721 89.6513 103.516 90.0059C103.32 90.3513 103.114 90.6033 102.9 90.7619C102.694 90.9206 102.484 91.0139 102.27 91.0419C102.064 91.0699 101.878 91.0839 101.71 91.0839Z" fill="black"/>
<path d="M111.819 81.0039H118.721V81.8159H112.771V85.4279H118.343V86.2399H112.771V90.188H118.791V90.9999H111.819V81.0039Z" fill="black"/>
<path d="M2.00667 101.004H6.23467C6.65467 101.004 7.05601 101.046 7.43867 101.13C7.83067 101.205 8.17134 101.34 8.46067 101.536C8.75934 101.723 8.99734 101.975 9.17467 102.292C9.35201 102.6 9.44067 102.987 9.44067 103.454C9.44067 103.715 9.39867 103.972 9.31467 104.224C9.23067 104.467 9.10934 104.691 8.95067 104.896C8.80134 105.092 8.61934 105.26 8.40467 105.4C8.19934 105.54 7.96601 105.638 7.70467 105.694V105.722C8.34867 105.806 8.86201 106.072 9.24467 106.52C9.62734 106.959 9.81867 107.505 9.81867 108.158C9.81867 108.401 9.78134 108.685 9.70667 109.012C9.64134 109.329 9.48734 109.637 9.24467 109.936C9.00201 110.235 8.64267 110.487 8.16667 110.692C7.69067 110.897 7.04667 111 6.23467 111H2.00667V101.004ZM6.23467 110.188C6.58934 110.188 6.92534 110.16 7.24267 110.104C7.56001 110.039 7.84001 109.927 8.08267 109.768C8.32534 109.609 8.51667 109.399 8.65667 109.138C8.79667 108.877 8.86667 108.541 8.86667 108.13C8.86667 107.486 8.63801 107.005 8.18067 106.688C7.73267 106.361 7.08401 106.198 6.23467 106.198H2.95867V110.188H6.23467ZM6.23467 105.386C6.60801 105.386 6.93467 105.344 7.21467 105.26C7.50401 105.167 7.74201 105.045 7.92867 104.896C8.11534 104.737 8.25534 104.555 8.34867 104.35C8.44201 104.145 8.48867 103.925 8.48867 103.692C8.48867 102.441 7.73734 101.816 6.23467 101.816H2.95867V105.386H6.23467Z" fill="black"/>
<path d="M12.2686 111.112C12.0446 111.112 11.8392 111.098 11.6526 111.07C11.4752 111.042 11.3352 111.009 11.2326 110.972V110.132C11.3539 110.179 11.4986 110.221 11.6666 110.258C11.8346 110.286 12.0306 110.3 12.2546 110.3C12.6092 110.3 12.9032 110.188 13.1366 109.964C13.3792 109.74 13.6126 109.39 13.8366 108.914L13.9626 108.648L10.2526 101.004H11.2746L14.5226 107.64L17.6866 101.004H18.6946L14.7606 109.152C14.5552 109.581 14.3546 109.927 14.1586 110.188C13.9626 110.44 13.7619 110.636 13.5566 110.776C13.3606 110.916 13.1552 111.005 12.9406 111.042C12.7352 111.089 12.5112 111.112 12.2686 111.112Z" fill="black"/>
<path d="M19.323 111.084C19.267 111.084 19.197 111.079 19.113 111.07C19.0384 111.061 18.959 111.051 18.875 111.042C18.791 111.033 18.7164 111.019 18.651 111C18.5857 110.991 18.539 110.981 18.511 110.972V110.16C18.5857 110.197 18.6977 110.225 18.847 110.244C19.0057 110.253 19.1224 110.258 19.197 110.258C19.2997 110.258 19.421 110.249 19.561 110.23C19.701 110.202 19.8457 110.118 19.995 109.978C20.1537 109.829 20.3077 109.6 20.457 109.292C20.6157 108.975 20.751 108.527 20.863 107.948C20.9844 107.36 21.0824 106.618 21.157 105.722C21.2317 104.826 21.269 103.725 21.269 102.418V101.004H27.415V111H26.463V101.816H22.193V102.362C22.193 103.818 22.1464 105.045 22.053 106.044C21.9597 107.033 21.8337 107.855 21.675 108.508C21.5164 109.152 21.3344 109.651 21.129 110.006C20.933 110.351 20.7277 110.603 20.513 110.762C20.3077 110.921 20.0977 111.014 19.883 111.042C19.6777 111.07 19.491 111.084 19.323 111.084Z" fill="black"/>
<path d="M29.4325 101.004H30.3845V106.38L36.1945 101.004H37.4825L33.0165 105.134L37.6925 111H36.4605L32.3025 105.792L30.3845 107.57V111H29.4325V101.004Z" fill="black"/>
<path d="M41.4366 101.004H42.5006L46.4206 111H45.3986L44.1806 107.892H39.6306L38.4266 111H37.4186L41.4366 101.004ZM43.8586 107.08L41.9266 101.956L39.9246 107.08H43.8586Z" fill="black"/>
<path d="M47.3289 101.004H48.2809V105.344H54.2169V101.004H55.1689V111H54.2169V106.156H48.2809V111H47.3289V101.004Z" fill="black"/>
<path d="M60.1124 101.004H61.1764L65.0964 111H64.0744L62.8564 107.892H58.3064L57.1024 111H56.0944L60.1124 101.004ZM62.5344 107.08L60.6024 101.956L58.6004 107.08H62.5344Z" fill="black"/>
<path d="M66.8167 104.056V100.92H67.8387V104.056L67.6427 108.466H67.0127L66.8167 104.056ZM66.8167 111V109.768H67.8387V111H66.8167Z" fill="black"/>
<path d="M71.4788 104.056V100.92H72.5008V104.056L72.3048 108.466H71.6748L71.4788 104.056ZM71.4788 111V109.768H72.5008V111H71.4788Z" fill="black"/>
<path d="M76.1409 104.056V100.92H77.1629V104.056L76.9669 108.466H76.3369L76.1409 104.056ZM76.1409 111V109.768H77.1629V111H76.1409Z" fill="black"/>
<path d="M83.8875 101.004H88.1155C88.5355 101.004 88.9369 101.046 89.3195 101.13C89.7115 101.205 90.0522 101.34 90.3415 101.536C90.6402 101.723 90.8782 101.975 91.0555 102.292C91.2329 102.6 91.3215 102.987 91.3215 103.454C91.3215 103.715 91.2795 103.972 91.1955 104.224C91.1115 104.467 90.9902 104.691 90.8315 104.896C90.6822 105.092 90.5002 105.26 90.2855 105.4C90.0802 105.54 89.8469 105.638 89.5855 105.694V105.722C90.2295 105.806 90.7429 106.072 91.1255 106.52C91.5082 106.959 91.6995 107.505 91.6995 108.158C91.6995 108.401 91.6622 108.685 91.5875 109.012C91.5222 109.329 91.3682 109.637 91.1255 109.936C90.8829 110.235 90.5235 110.487 90.0475 110.692C89.5715 110.897 88.9275 111 88.1155 111H83.8875V101.004ZM88.1155 110.188C88.4702 110.188 88.8062 110.16 89.1235 110.104C89.4409 110.039 89.7209 109.927 89.9635 109.768C90.2062 109.609 90.3975 109.399 90.5375 109.138C90.6775 108.877 90.7475 108.541 90.7475 108.13C90.7475 107.486 90.5189 107.005 90.0615 106.688C89.6135 106.361 88.9649 106.198 88.1155 106.198H84.8395V110.188H88.1155ZM88.1155 105.386C88.4889 105.386 88.8155 105.344 89.0955 105.26C89.3849 105.167 89.6229 105.045 89.8095 104.896C89.9962 104.737 90.1362 104.555 90.2295 104.35C90.3229 104.145 90.3695 103.925 90.3695 103.692C90.3695 102.441 89.6182 101.816 88.1155 101.816H84.8395V105.386H88.1155Z" fill="black"/>
<path d="M93.2254 101.004H97.6634C98.1114 101.004 98.5174 101.069 98.8814 101.2C99.2454 101.321 99.5581 101.508 99.8194 101.76C100.081 102.003 100.281 102.301 100.421 102.656C100.561 103.011 100.631 103.412 100.631 103.86C100.631 104.308 100.561 104.709 100.421 105.064C100.281 105.419 100.081 105.722 99.8194 105.974C99.5581 106.217 99.2454 106.403 98.8814 106.534C98.5174 106.655 98.1114 106.716 97.6634 106.716H94.1774V111H93.2254V101.004ZM97.4534 105.904C98.1161 105.904 98.6528 105.736 99.0634 105.4C99.4741 105.064 99.6794 104.551 99.6794 103.86C99.6794 103.169 99.4741 102.656 99.0634 102.32C98.6528 101.984 98.1161 101.816 97.4534 101.816H94.1774V105.904H97.4534Z" fill="black"/>
<path d="M104.97 101.004H106.034L109.954 111H108.932L107.714 107.892H103.164L101.96 111H100.952L104.97 101.004ZM107.392 107.08L105.46 101.956L103.458 107.08H107.392Z" fill="black"/>
<path d="M116.714 106.45C116.574 106.487 116.378 106.529 116.126 106.576C115.874 106.623 115.599 106.669 115.3 106.716C115.011 106.753 114.717 106.791 114.418 106.828C114.129 106.856 113.872 106.87 113.648 106.87C112.929 106.87 112.355 106.786 111.926 106.618C111.506 106.441 111.184 106.217 110.96 105.946C110.736 105.666 110.591 105.358 110.526 105.022C110.461 104.677 110.428 104.336 110.428 104V101.004H111.38V103.944C111.38 104.149 111.399 104.373 111.436 104.616C111.473 104.859 111.567 105.087 111.716 105.302C111.865 105.507 112.08 105.685 112.36 105.834C112.649 105.974 113.046 106.044 113.55 106.044C113.849 106.044 114.157 106.03 114.474 106.002C114.801 105.965 115.109 105.927 115.398 105.89C115.687 105.843 115.944 105.797 116.168 105.75C116.401 105.703 116.583 105.666 116.714 105.638V101.004H117.666V111H116.714V106.45Z" fill="black"/>
<path d="M119.681 101.004H120.632V109.978L126.373 101.004H127.604V111H126.653V102.026L120.912 111H119.681V101.004Z" fill="black"/>
<path d="M2.00667 121.004H6.23467C6.65467 121.004 7.05601 121.046 7.43867 121.13C7.83067 121.205 8.17134 121.34 8.46067 121.536C8.75934 121.723 8.99734 121.975 9.17467 122.292C9.35201 122.6 9.44067 122.987 9.44067 123.454C9.44067 123.715 9.39867 123.972 9.31467 124.224C9.23067 124.467 9.10934 124.691 8.95067 124.896C8.80134 125.092 8.61934 125.26 8.40467 125.4C8.19934 125.54 7.96601 125.638 7.70467 125.694V125.722C8.34867 125.806 8.86201 126.072 9.24467 126.52C9.62734 126.959 9.81867 127.505 9.81867 128.158C9.81867 128.401 9.78134 128.685 9.70667 129.012C9.64134 129.329 9.48734 129.637 9.24467 129.936C9.00201 130.235 8.64267 130.487 8.16667 130.692C7.69067 130.897 7.04667 131 6.23467 131H2.00667V121.004ZM6.23467 130.188C6.58934 130.188 6.92534 130.16 7.24267 130.104C7.56001 130.039 7.84001 129.927 8.08267 129.768C8.32534 129.609 8.51667 129.399 8.65667 129.138C8.79667 128.877 8.86667 128.541 8.86667 128.13C8.86667 127.486 8.63801 127.005 8.18067 126.688C7.73267 126.361 7.08401 126.198 6.23467 126.198H2.95867V130.188H6.23467ZM6.23467 125.386C6.60801 125.386 6.93467 125.344 7.21467 125.26C7.50401 125.167 7.74201 125.045 7.92867 124.896C8.11534 124.737 8.25534 124.555 8.34867 124.35C8.44201 124.145 8.48867 123.925 8.48867 123.692C8.48867 122.441 7.73734 121.816 6.23467 121.816H2.95867V125.386H6.23467Z" fill="black"/>
<path d="M15.241 121.004H16.193V130.188H20.925V121.004H21.877V130.188H26.609V121.004H27.561V131H15.241L15.241 121.004Z" fill="black"/>
<path d="M33.7688 131.196C32.9848 131.196 32.2942 131.056 31.6968 130.776C31.1088 130.487 30.6188 130.104 30.2268 129.628C29.8348 129.152 29.5408 128.601 29.3448 127.976C29.1488 127.351 29.0508 126.693 29.0508 126.002C29.0508 125.321 29.1488 124.667 29.3448 124.042C29.5408 123.407 29.8348 122.852 30.2268 122.376C30.6188 121.891 31.1088 121.508 31.6968 121.228C32.2942 120.939 32.9848 120.794 33.7688 120.794C34.5528 120.794 35.2388 120.939 35.8268 121.228C36.4148 121.508 36.9048 121.891 37.2968 122.376C37.6888 122.852 37.9828 123.407 38.1788 124.042C38.3748 124.667 38.4728 125.321 38.4728 126.002C38.4728 126.693 38.3748 127.351 38.1788 127.976C37.9828 128.601 37.6888 129.152 37.2968 129.628C36.9048 130.104 36.4148 130.487 35.8268 130.776C35.2388 131.056 34.5528 131.196 33.7688 131.196ZM33.7688 130.398C34.4222 130.398 34.9868 130.272 35.4628 130.02C35.9388 129.768 36.3262 129.437 36.6248 129.026C36.9328 128.606 37.1568 128.135 37.2968 127.612C37.4462 127.089 37.5208 126.553 37.5208 126.002C37.5208 125.461 37.4462 124.929 37.2968 124.406C37.1568 123.874 36.9328 123.403 36.6248 122.992C36.3262 122.572 35.9388 122.236 35.4628 121.984C34.9868 121.732 34.4222 121.606 33.7688 121.606C33.1062 121.606 32.5368 121.732 32.0608 121.984C31.5848 122.236 31.1928 122.572 30.8848 122.992C30.5862 123.403 30.3622 123.874 30.2128 124.406C30.0728 124.929 30.0028 125.461 30.0028 126.002C30.0028 126.553 30.0728 127.089 30.2128 127.612C30.3622 128.135 30.5862 128.606 30.8848 129.026C31.1928 129.437 31.5848 129.768 32.0608 130.02C32.5368 130.272 33.1062 130.398 33.7688 130.398Z" fill="black"/>
<path d="M39.9598 121.004H40.9118V126.38L46.7218 121.004H48.0098L43.5438 125.134L48.2198 131H46.9878L42.8298 125.792L40.9118 127.57V131H39.9598V121.004Z" fill="black"/>
<path d="M49.0379 121.004H55.9399V121.816H49.9899V125.428H55.5619V126.24H49.9899V130.188H56.0099V131H49.0379V121.004Z" fill="black"/>
<path d="M58.1488 124.056V120.92H59.1707V124.056L58.9748 128.466H58.3448L58.1488 124.056ZM58.1488 131V129.768H59.1707V131H58.1488Z" fill="black"/>
<path d="M70.0813 131.196C69.2973 131.196 68.6067 131.056 68.0093 130.776C67.4213 130.487 66.9313 130.104 66.5393 129.628C66.1473 129.152 65.8533 128.601 65.6573 127.976C65.4613 127.351 65.3633 126.693 65.3633 126.002C65.3633 125.321 65.4613 124.667 65.6573 124.042C65.8533 123.407 66.1473 122.852 66.5393 122.376C66.9313 121.891 67.4213 121.508 68.0093 121.228C68.6067 120.939 69.2973 120.794 70.0813 120.794C70.8653 120.794 71.5513 120.939 72.1393 121.228C72.7273 121.508 73.2173 121.891 73.6093 122.376C74.0013 122.852 74.2953 123.407 74.4913 124.042C74.6873 124.667 74.7853 125.321 74.7853 126.002C74.7853 126.693 74.6873 127.351 74.4913 127.976C74.2953 128.601 74.0013 129.152 73.6093 129.628C73.2173 130.104 72.7273 130.487 72.1393 130.776C71.5513 131.056 70.8653 131.196 70.0813 131.196ZM70.0813 130.398C70.7347 130.398 71.2993 130.272 71.7753 130.02C72.2513 129.768 72.6387 129.437 72.9373 129.026C73.2453 128.606 73.4693 128.135 73.6093 127.612C73.7587 127.089 73.8333 126.553 73.8333 126.002C73.8333 125.461 73.7587 124.929 73.6093 124.406C73.4693 123.874 73.2453 123.403 72.9373 122.992C72.6387 122.572 72.2513 122.236 71.7753 121.984C71.2993 121.732 70.7347 121.606 70.0813 121.606C69.4187 121.606 68.8493 121.732 68.3733 121.984C67.8973 122.236 67.5053 122.572 67.1973 122.992C66.8987 123.403 66.6747 123.874 66.5253 124.406C66.3853 124.929 66.3153 125.461 66.3153 126.002C66.3153 126.553 66.3853 127.089 66.5253 127.612C66.6747 128.135 66.8987 128.606 67.1973 129.026C67.5053 129.437 67.8973 129.768 68.3733 130.02C68.8493 130.272 69.4187 130.398 70.0813 130.398Z" fill="black"/>
<path d="M76.2723 121.004H77.2243V125.344H83.1603V121.004H84.1123V131H83.1603V126.156H77.2243V131H76.2723V121.004Z" fill="black"/>
<path d="M89.0557 121.004H90.1197L94.0397 131H93.0177L91.7997 127.892H87.2497L86.0457 131H85.0377L89.0557 121.004ZM91.4777 127.08L89.5457 121.956L87.5437 127.08H91.4777Z" fill="black"/>
<path d="M98.8446 121.004H103.073C103.493 121.004 103.894 121.046 104.277 121.13C104.669 121.205 105.009 121.34 105.299 121.536C105.597 121.723 105.835 121.975 106.013 122.292C106.19 122.6 106.279 122.987 106.279 123.454C106.279 123.715 106.237 123.972 106.153 124.224C106.069 124.467 105.947 124.691 105.789 124.896C105.639 125.092 105.457 125.26 105.243 125.4C105.037 125.54 104.804 125.638 104.543 125.694V125.722C105.187 125.806 105.7 126.072 106.083 126.52C106.465 126.959 106.657 127.505 106.657 128.158C106.657 128.401 106.619 128.685 106.545 129.012C106.479 129.329 106.325 129.637 106.083 129.936C105.84 130.235 105.481 130.487 105.005 130.692C104.529 130.897 103.885 131 103.073 131H98.8446V121.004ZM103.073 130.188C103.427 130.188 103.763 130.16 104.081 130.104C104.398 130.039 104.678 129.927 104.921 129.768C105.163 129.609 105.355 129.399 105.495 129.138C105.635 128.877 105.705 128.541 105.705 128.13C105.705 127.486 105.476 127.005 105.019 126.688C104.571 126.361 103.922 126.198 103.073 126.198H99.7966V130.188H103.073ZM103.073 125.386C103.446 125.386 103.773 125.344 104.053 125.26C104.342 125.167 104.58 125.045 104.767 124.896C104.953 124.737 105.093 124.555 105.187 124.35C105.28 124.145 105.327 123.925 105.327 123.692C105.327 122.441 104.575 121.816 103.073 121.816H99.7966V125.386H103.073Z" fill="black"/>
<path d="M108.182 121.004H109.134V125.232H112.62C113.554 125.232 114.282 125.489 114.804 126.002C115.327 126.515 115.588 127.22 115.588 128.116C115.588 129.012 115.327 129.717 114.804 130.23C114.282 130.743 113.554 131 112.62 131H108.182V121.004ZM112.41 130.188C113.11 130.188 113.656 130.006 114.048 129.642C114.44 129.269 114.636 128.76 114.636 128.116C114.636 127.472 114.44 126.968 114.048 126.604C113.656 126.231 113.11 126.044 112.41 126.044H109.134V130.188H112.41ZM117.058 121.004H118.01V131H117.058V121.004Z" fill="black"/>
<path d="M123.396 125.316L119.252 121.004H120.54L125.468 126.268V121.004H126.42V126.268L131.348 121.004H132.636L128.492 125.316L132.986 131H131.754L127.82 126.016L126.42 127.472V131H125.468V127.472L124.068 126.016L120.134 131H118.902L123.396 125.316Z" fill="black"/>
<path d="M133.886 121.004H134.838V129.978L140.578 121.004H141.81V131H140.858V122.026L135.118 131H133.886V121.004Z" fill="black"/>
<path d="M143.573 131.084C143.517 131.084 143.447 131.079 143.363 131.07C143.288 131.061 143.209 131.051 143.125 131.042C143.041 131.033 142.966 131.019 142.901 131C142.836 130.991 142.789 130.981 142.761 130.972V130.16C142.836 130.197 142.948 130.225 143.097 130.244C143.256 130.253 143.372 130.258 143.447 130.258C143.55 130.258 143.671 130.249 143.811 130.23C143.951 130.202 144.096 130.118 144.245 129.978C144.404 129.829 144.558 129.6 144.707 129.292C144.866 128.975 145.001 128.527 145.113 127.948C145.234 127.36 145.332 126.618 145.407 125.722C145.482 124.826 145.519 123.725 145.519 122.418V121.004H151.665V131H150.713V121.816H146.443V122.362C146.443 123.818 146.396 125.045 146.303 126.044C146.21 127.033 146.084 127.855 145.925 128.508C145.766 129.152 145.584 129.651 145.379 130.006C145.183 130.351 144.978 130.603 144.763 130.762C144.558 130.921 144.348 131.014 144.133 131.042C143.928 131.07 143.741 131.084 143.573 131.084Z" fill="black"/>
<path d="M156.608 121.004H157.672L161.592 131H160.57L159.352 127.892H154.802L153.598 131H152.59L156.608 121.004ZM159.03 127.08L157.098 121.956L155.096 127.08H159.03Z" fill="black"/>
<path d="M2.00667 141.004H9.70667V151H8.75467V141.816H2.95867V151H2.00667V141.004Z" fill="black"/>
<path d="M15.9134 151.196C15.1294 151.196 14.4387 151.056 13.8414 150.776C13.2534 150.487 12.7634 150.104 12.3714 149.628C11.9794 149.152 11.6854 148.601 11.4894 147.976C11.2934 147.351 11.1954 146.693 11.1954 146.002C11.1954 145.321 11.2934 144.667 11.4894 144.042C11.6854 143.407 11.9794 142.852 12.3714 142.376C12.7634 141.891 13.2534 141.508 13.8414 141.228C14.4387 140.939 15.1294 140.794 15.9134 140.794C16.6974 140.794 17.3834 140.939 17.9714 141.228C18.5594 141.508 19.0494 141.891 19.4414 142.376C19.8334 142.852 20.1274 143.407 20.3234 144.042C20.5194 144.667 20.6174 145.321 20.6174 146.002C20.6174 146.693 20.5194 147.351 20.3234 147.976C20.1274 148.601 19.8334 149.152 19.4414 149.628C19.0494 150.104 18.5594 150.487 17.9714 150.776C17.3834 151.056 16.6974 151.196 15.9134 151.196ZM15.9134 150.398C16.5667 150.398 17.1314 150.272 17.6074 150.02C18.0834 149.768 18.4707 149.437 18.7694 149.026C19.0774 148.606 19.3014 148.135 19.4414 147.612C19.5907 147.089 19.6654 146.553 19.6654 146.002C19.6654 145.461 19.5907 144.929 19.4414 144.406C19.3014 143.874 19.0774 143.403 18.7694 142.992C18.4707 142.572 18.0834 142.236 17.6074 141.984C17.1314 141.732 16.5667 141.606 15.9134 141.606C15.2507 141.606 14.6814 141.732 14.2054 141.984C13.7294 142.236 13.3374 142.572 13.0294 142.992C12.7307 143.403 12.5067 143.874 12.3574 144.406C12.2174 144.929 12.1474 145.461 12.1474 146.002C12.1474 146.553 12.2174 147.089 12.3574 147.612C12.5067 148.135 12.7307 148.606 13.0294 149.026C13.3374 149.437 13.7294 149.768 14.2054 150.02C14.6814 150.272 15.2507 150.398 15.9134 150.398Z" fill="black"/>
<path d="M26.3463 151.196C25.5623 151.196 24.8717 151.056 24.2743 150.776C23.6863 150.487 23.1963 150.104 22.8043 149.628C22.4123 149.152 22.1183 148.601 21.9223 147.976C21.7263 147.351 21.6283 146.693 21.6283 146.002C21.6283 145.321 21.7263 144.667 21.9223 144.042C22.1183 143.407 22.4123 142.852 22.8043 142.376C23.1963 141.891 23.6863 141.508 24.2743 141.228C24.8717 140.939 25.5623 140.794 26.3463 140.794C26.8223 140.794 27.2843 140.864 27.7323 141.004C28.1897 141.144 28.6003 141.354 28.9643 141.634C29.3377 141.905 29.6457 142.241 29.8883 142.642C30.1403 143.043 30.299 143.505 30.3643 144.028H29.4123C29.3283 143.645 29.1883 143.305 28.9923 143.006C28.8057 142.698 28.5723 142.441 28.2923 142.236C28.0217 142.031 27.7183 141.877 27.3823 141.774C27.0557 141.662 26.7103 141.606 26.3463 141.606C25.6837 141.606 25.1143 141.732 24.6383 141.984C24.1623 142.236 23.7703 142.572 23.4623 142.992C23.1637 143.403 22.9397 143.874 22.7903 144.406C22.6503 144.929 22.5803 145.461 22.5803 146.002C22.5803 146.553 22.6503 147.089 22.7903 147.612C22.9397 148.135 23.1637 148.606 23.4623 149.026C23.7703 149.437 24.1623 149.768 24.6383 150.02C25.1143 150.272 25.6837 150.398 26.3463 150.398C26.8037 150.398 27.219 150.314 27.5923 150.146C27.975 149.978 28.3017 149.749 28.5723 149.46C28.843 149.171 29.0623 148.835 29.2303 148.452C29.3983 148.06 29.5057 147.64 29.5523 147.192H30.5043C30.439 147.808 30.2943 148.363 30.0703 148.858C29.8463 149.353 29.557 149.773 29.2023 150.118C28.8477 150.463 28.4277 150.729 27.9423 150.916C27.4663 151.103 26.9343 151.196 26.3463 151.196Z" fill="black"/>
<path d="M31.7098 151.084C31.6538 151.084 31.5838 151.079 31.4998 151.07C31.4251 151.061 31.3458 151.051 31.2618 151.042C31.1778 151.033 31.1031 151.019 31.0378 151C30.9724 150.991 30.9258 150.981 30.8978 150.972V150.16C30.9724 150.197 31.0844 150.225 31.2338 150.244C31.3924 150.253 31.5091 150.258 31.5838 150.258C31.6864 150.258 31.8078 150.249 31.9478 150.23C32.0878 150.202 32.2324 150.118 32.3818 149.978C32.5404 149.829 32.6944 149.6 32.8438 149.292C33.0024 148.975 33.1378 148.527 33.2498 147.948C33.3711 147.36 33.4691 146.618 33.5438 145.722C33.6184 144.826 33.6558 143.725 33.6558 142.418V141.004H39.8018V151H38.8498V141.816H34.5798V142.362C34.5798 143.818 34.5331 145.045 34.4398 146.044C34.3464 147.033 34.2204 147.855 34.0618 148.508C33.9031 149.152 33.7211 149.651 33.5158 150.006C33.3198 150.351 33.1144 150.603 32.8998 150.762C32.6944 150.921 32.4844 151.014 32.2698 151.042C32.0644 151.07 31.8778 151.084 31.7098 151.084Z" fill="black"/>
<path d="M41.8192 141.004H48.7212V141.816H42.7712V145.428H48.3432V146.24H42.7712V150.188H48.7912V151H41.8192V141.004Z" fill="black"/>
<path d="M54.9385 151.112C54.7145 151.112 54.5092 151.098 54.3225 151.07C54.1452 151.042 54.0052 151.009 53.9025 150.972V150.132C54.0238 150.179 54.1685 150.221 54.3365 150.258C54.5045 150.286 54.7005 150.3 54.9245 150.3C55.2792 150.3 55.5732 150.188 55.8065 149.964C56.0492 149.74 56.2825 149.39 56.5065 148.914L56.6325 148.648L52.9225 141.004H53.9445L57.1925 147.64L60.3565 141.004H61.3645L57.4305 149.152C57.2252 149.581 57.0245 149.927 56.8285 150.188C56.6325 150.44 56.4318 150.636 56.2265 150.776C56.0305 150.916 55.8252 151.005 55.6105 151.042C55.4052 151.089 55.1812 151.112 54.9385 151.112Z" fill="black"/>
<path d="M61.237 150.188H62.287C62.6416 149.535 62.917 148.867 63.113 148.186C63.309 147.495 63.4536 146.809 63.547 146.128C63.6496 145.447 63.7103 144.784 63.729 144.14C63.757 143.496 63.771 142.889 63.771 142.32V141.004H69.959V150.188H71.149V153.66H70.197V151H62.189V153.66H61.237V150.188ZM69.007 150.188V141.816H64.723V142.152C64.723 142.712 64.7136 143.323 64.695 143.986C64.6856 144.639 64.6343 145.316 64.541 146.016C64.4476 146.716 64.303 147.421 64.107 148.13C63.9203 148.839 63.6496 149.525 63.295 150.188H69.007Z" fill="black"/>
<path d="M75.1924 141.004H76.2564L80.1764 151H79.1544L77.9364 147.892H73.3864L72.1824 151H71.1744L75.1924 141.004ZM77.6144 147.08L75.6824 141.956L73.6804 147.08H77.6144Z" fill="black"/>
<path d="M81.0848 141.004H85.5228C85.9708 141.004 86.3768 141.069 86.7408 141.2C87.1048 141.321 87.4175 141.508 87.6788 141.76C87.9401 142.003 88.1408 142.301 88.2808 142.656C88.4208 143.011 88.4908 143.412 88.4908 143.86C88.4908 144.308 88.4208 144.709 88.2808 145.064C88.1408 145.419 87.9401 145.722 87.6788 145.974C87.4175 146.217 87.1048 146.403 86.7408 146.534C86.3768 146.655 85.9708 146.716 85.5228 146.716H82.0368V151H81.0848V141.004ZM85.3128 145.904C85.9755 145.904 86.5121 145.736 86.9228 145.4C87.3335 145.064 87.5388 144.551 87.5388 143.86C87.5388 143.169 87.3335 142.656 86.9228 142.32C86.5121 141.984 85.9755 141.816 85.3128 141.816H82.0368V145.904H85.3128Z" fill="black"/>
<path d="M92.8292 141.004H93.8932L97.8132 151H96.7912L95.5732 147.892H91.0232L89.8192 151H88.8112L92.8292 141.004ZM95.2512 147.08L93.3192 141.956L91.3172 147.08H95.2512Z" fill="black"/>
<path d="M99.1415 151V149.768H100.164V151H99.1415Z" fill="black"/>
<path d="M103.038 151V149.768H104.06V151H103.038Z" fill="black"/>
<path d="M106.934 151V149.768H107.956V151H106.934Z" fill="black"/>
</svg>
