<svg width="28" height="14" viewBox="0 0 28 14" fill="none" xmlns="http://www.w3.org/2000/svg">
<path d="M1.50897 4.32523C1.50897 3.8399 1.58364 3.40123 1.73297 3.00923C1.8823 2.6079 2.09697 2.26723 2.37697 1.98723C2.65697 1.6979 2.99297 1.47857 3.38497 1.32923C3.7863 1.17057 4.22964 1.09123 4.71497 1.09123C5.20964 1.09123 5.64364 1.1659 6.01697 1.31523C6.39964 1.45523 6.71697 1.64657 6.96897 1.88923C7.2303 2.1319 7.4263 2.42123 7.55697 2.75723C7.68764 3.09323 7.75297 3.4479 7.75297 3.82123C7.75297 4.2599 7.6783 4.64723 7.52897 4.98323C7.38897 5.31923 7.19764 5.6179 6.95497 5.87923C6.72164 6.14057 6.45097 6.3739 6.14297 6.57923C5.8443 6.78457 5.5363 6.98057 5.21897 7.16723C4.90164 7.34457 4.58897 7.51723 4.28097 7.68523C3.97297 7.85323 3.69764 8.03057 3.45497 8.21723C3.2963 8.33857 3.1423 8.46923 2.99297 8.60923C2.84364 8.7399 2.7083 8.88457 2.58697 9.04323C2.46564 9.2019 2.36764 9.37923 2.29297 9.57523C2.2183 9.7619 2.1763 9.9719 2.16697 10.2052H7.66897V10.9612H1.21497C1.2243 10.4852 1.27564 10.0559 1.36897 9.67323C1.4623 9.29057 1.66764 8.91723 1.98497 8.55323C2.3303 8.16123 2.68497 7.82523 3.04897 7.54523C3.4223 7.26523 3.7863 7.0179 4.14097 6.80323C4.49564 6.57923 4.83164 6.37857 5.14897 6.20123C5.4663 6.01457 5.7463 5.8139 5.98897 5.59923C6.23164 5.38457 6.42297 5.1419 6.56297 4.87123C6.70297 4.60057 6.77297 4.26923 6.77297 3.87723C6.77297 3.5599 6.71697 3.27523 6.60497 3.02323C6.49297 2.77123 6.33897 2.55657 6.14297 2.37923C5.94697 2.2019 5.7183 2.07123 5.45697 1.98723C5.19564 1.8939 4.91097 1.84723 4.60297 1.84723C4.2763 1.84723 3.97764 1.91723 3.70697 2.05723C3.44564 2.1879 3.21697 2.36523 3.02097 2.58923C2.8343 2.81323 2.68964 3.07457 2.58697 3.37323C2.4843 3.6719 2.4423 3.98923 2.46097 4.32523H1.50897Z" fill="black"/>
<path d="M13.3343 8.52523H8.82627V7.75523L13.4183 1.18923H14.2303V7.76923H15.6023V8.52523H14.2303V10.9612H13.3343V8.52523ZM9.70827 7.76923H13.3343V2.53323L9.70827 7.76923Z" fill="black"/>
<path d="M16.8436 12.2212H16.0596L19.3496 0.615234H20.1336L16.8436 12.2212Z" fill="black"/>
<path d="M20.824 1.18923H27.11V2.02923C26.4007 2.8319 25.7987 3.6579 25.304 4.50723C24.8094 5.34723 24.4034 6.16857 24.086 6.97123C23.7687 7.76457 23.5307 8.50657 23.372 9.19724C23.2227 9.8879 23.134 10.4759 23.106 10.9612H22.126C22.1727 10.2519 22.3127 9.50057 22.546 8.70723C22.7887 7.90457 23.0874 7.11123 23.442 6.32723C23.7967 5.54323 24.198 4.78723 24.646 4.05923C25.094 3.3219 25.556 2.6639 26.032 2.08523H20.824V1.18923Z" fill="black"/>
<path d="M0.542969 12.3612H27.782V13.0612H0.542969V12.3612Z" fill="black"/>
</svg>
