<svg width="132" height="161" viewBox="0 0 132 161" fill="none" xmlns="http://www.w3.org/2000/svg">
<path d="M4.21073 6.40662C3.8654 6.40662 3.54807 6.44862 3.25873 6.53262C2.9694 6.61662 2.7174 6.74729 2.50273 6.92462C2.28807 7.09262 2.12007 7.31196 1.99873 7.58262C1.8774 7.84396 1.81673 8.15663 1.81673 8.52063C1.81673 8.82863 1.87273 9.11329 1.98473 9.37463C2.10607 9.63596 2.2694 9.86463 2.47473 10.0606C2.6894 10.2473 2.94607 10.3966 3.24473 10.5086C3.55273 10.6206 3.8934 10.6766 4.26673 10.6766C4.5934 10.6766 4.89673 10.6253 5.17673 10.5226C5.45673 10.4106 5.6994 10.2566 5.90473 10.0606C6.1194 9.86463 6.28273 9.63129 6.39473 9.36063C6.51607 9.08996 6.57673 8.79129 6.57673 8.46462C6.57673 8.11929 6.51607 7.82063 6.39473 7.56862C6.2734 7.30729 6.1054 7.09262 5.89073 6.92462C5.67607 6.74729 5.42407 6.61662 5.13473 6.53262C4.8454 6.44862 4.5374 6.40662 4.21073 6.40662ZM4.16873 2.12262C3.88873 2.12262 3.6274 2.15996 3.38473 2.23463C3.14207 2.30929 2.9274 2.42129 2.74073 2.57062C2.5634 2.71996 2.4234 2.90662 2.32073 3.13062C2.21807 3.35462 2.16673 3.61129 2.16673 3.90062C2.16673 4.20862 2.22273 4.47462 2.33473 4.69863C2.45607 4.91329 2.61473 5.09062 2.81073 5.23062C3.00673 5.37062 3.23073 5.47796 3.48273 5.55263C3.73473 5.61796 3.99607 5.65062 4.26673 5.65062C4.5374 5.65062 4.7894 5.61796 5.02273 5.55263C5.25607 5.47796 5.45673 5.36129 5.62473 5.20262C5.79273 5.04396 5.9234 4.84329 6.01673 4.60062C6.1194 4.35796 6.17073 4.05929 6.17073 3.70462C6.17073 3.20063 6.0074 2.81329 5.68073 2.54262C5.35407 2.26262 4.85007 2.12262 4.16873 2.12262ZM2.64273 5.93062C2.40007 5.78129 2.19007 5.64129 2.01273 5.51062C1.84473 5.37062 1.70473 5.22129 1.59273 5.06262C1.48073 4.90396 1.39673 4.72662 1.34073 4.53062C1.29407 4.32529 1.27073 4.07329 1.27073 3.77462C1.27073 3.43862 1.3454 3.12129 1.49473 2.82263C1.64407 2.52396 1.84473 2.26729 2.09673 2.05262C2.34873 1.82863 2.64273 1.65596 2.97873 1.53462C3.32407 1.41329 3.69273 1.35729 4.08473 1.36662C4.45807 1.36662 4.82207 1.41329 5.17673 1.50662C5.54073 1.59996 5.86273 1.74462 6.14273 1.94062C6.42273 2.13662 6.64673 2.38863 6.81473 2.69662C6.98273 2.99529 7.06673 3.35462 7.06673 3.77462C7.06673 4.28796 6.9594 4.72663 6.74473 5.09063C6.5394 5.45463 6.19873 5.75329 5.72273 5.98662C6.26407 6.18262 6.68873 6.49529 6.99673 6.92462C7.31407 7.35396 7.47273 7.85796 7.47273 8.43663C7.47273 8.92196 7.38873 9.35129 7.22073 9.72463C7.06207 10.098 6.82873 10.4106 6.52073 10.6626C6.22207 10.9146 5.85807 11.106 5.42873 11.2366C4.9994 11.3673 4.5234 11.4326 4.00073 11.4326C3.64607 11.4326 3.28207 11.372 2.90873 11.2506C2.54473 11.1293 2.2134 10.9473 1.91473 10.7046C1.6254 10.462 1.3874 10.1586 1.20073 9.79463C1.01407 9.43063 0.920732 9.00596 0.920732 8.52063C0.920732 7.93263 1.0654 7.40996 1.35473 6.95262C1.6534 6.48596 2.08273 6.14529 2.64273 5.93062Z" fill="black"/>
<path d="M15.8585 0.890625C15.1865 1.86129 14.6592 2.90196 14.2765 4.01262C13.9032 5.11396 13.7165 6.25729 13.7165 7.44263C13.7165 8.60929 13.9125 9.73863 14.3045 10.8306C14.6965 11.9226 15.2145 12.9493 15.8585 13.9106H15.1445C14.7618 13.3786 14.4212 12.8606 14.1225 12.3566C13.8238 11.862 13.5718 11.358 13.3665 10.8446C13.1612 10.322 13.0072 9.78062 12.9045 9.22062C12.8018 8.65129 12.7505 8.03529 12.7505 7.37262C12.7505 6.72862 12.8018 6.12662 12.9045 5.56662C13.0165 4.99729 13.1752 4.45129 13.3805 3.92863C13.5858 3.40596 13.8332 2.89729 14.1225 2.40262C14.4212 1.89862 14.7618 1.39462 15.1445 0.890625L15.8585 0.890625Z" fill="black"/>
<path d="M18.2946 9.06663C18.3973 9.59863 18.6026 9.99996 18.9106 10.2706C19.228 10.5413 19.662 10.6766 20.2126 10.6766C20.8006 10.6766 21.2673 10.532 21.6126 10.2426C21.9673 9.95329 22.238 9.58929 22.4246 9.15063C22.6206 8.71196 22.7513 8.24063 22.8166 7.73663C22.8913 7.22329 22.938 6.74263 22.9566 6.29463L22.9286 6.26662C22.63 6.77062 22.2566 7.15329 21.8086 7.41463C21.37 7.67596 20.8566 7.80663 20.2686 7.80663C19.802 7.80663 19.382 7.73196 19.0086 7.58263C18.6353 7.43329 18.3133 7.21863 18.0426 6.93863C17.7813 6.65863 17.576 6.32263 17.4266 5.93063C17.2866 5.53863 17.2166 5.10462 17.2166 4.62862C17.2166 4.16196 17.282 3.73263 17.4126 3.34063C17.5433 2.93929 17.7393 2.59396 18.0006 2.30463C18.262 2.00596 18.5886 1.77729 18.9806 1.61862C19.382 1.45062 19.8533 1.36662 20.3946 1.36662C21.0573 1.36662 21.608 1.49729 22.0466 1.75862C22.4946 2.01996 22.8493 2.37462 23.1106 2.82263C23.3813 3.27063 23.5726 3.79796 23.6846 4.40462C23.7966 5.01129 23.8526 5.65996 23.8526 6.35063C23.8526 7.19063 23.764 7.92796 23.5866 8.56263C23.4093 9.18796 23.1573 9.71529 22.8306 10.1446C22.5133 10.574 22.1353 10.896 21.6966 11.1106C21.258 11.3253 20.7773 11.4326 20.2546 11.4326C19.872 11.4326 19.5126 11.386 19.1766 11.2926C18.8406 11.1993 18.5466 11.0546 18.2946 10.8586C18.0426 10.6626 17.8373 10.4153 17.6786 10.1166C17.52 9.81796 17.422 9.46796 17.3846 9.06663H18.2946ZM20.3946 2.12262C19.6386 2.14129 19.0693 2.37462 18.6866 2.82263C18.304 3.27062 18.1126 3.88196 18.1126 4.65663C18.1126 5.41263 18.3086 6.00063 18.7006 6.42063C19.102 6.84063 19.6666 7.05062 20.3946 7.05062C20.74 7.05062 21.048 6.98529 21.3186 6.85463C21.5986 6.72396 21.832 6.54663 22.0186 6.32263C22.2146 6.09862 22.3593 5.84196 22.4526 5.55263C22.5553 5.25396 22.6066 4.93662 22.6066 4.60062C22.6066 3.87262 22.4106 3.28462 22.0186 2.83663C21.6266 2.37929 21.0853 2.14129 20.3946 2.12262Z" fill="black"/>
<path d="M25.3879 4.60062C25.3879 4.11529 25.4626 3.67663 25.6119 3.28463C25.7613 2.88329 25.9759 2.54263 26.2559 2.26262C26.5359 1.97329 26.8719 1.75396 27.2639 1.60463C27.6653 1.44596 28.1086 1.36662 28.5939 1.36662C29.0886 1.36662 29.5226 1.44129 29.8959 1.59063C30.2786 1.73063 30.5959 1.92196 30.8479 2.16463C31.1093 2.40729 31.3053 2.69663 31.4359 3.03263C31.5666 3.36863 31.6319 3.72329 31.6319 4.09662C31.6319 4.53529 31.5573 4.92262 31.4079 5.25863C31.2679 5.59462 31.0766 5.89329 30.8339 6.15463C30.6006 6.41596 30.3299 6.64929 30.0219 6.85463C29.7233 7.05996 29.4153 7.25596 29.0979 7.44263C28.7806 7.61996 28.4679 7.79263 28.1599 7.96063C27.8519 8.12863 27.5766 8.30596 27.3339 8.49263C27.1753 8.61396 27.0213 8.74463 26.8719 8.88463C26.7226 9.01529 26.5873 9.15996 26.4659 9.31863C26.3446 9.47729 26.2466 9.65463 26.1719 9.85063C26.0973 10.0373 26.0553 10.2473 26.0459 10.4806H31.5479V11.2366H25.0939C25.1033 10.7606 25.1546 10.3313 25.2479 9.94863C25.3413 9.56596 25.5466 9.19263 25.8639 8.82863C26.2093 8.43663 26.5639 8.10063 26.9279 7.82063C27.3013 7.54063 27.6653 7.29329 28.0199 7.07863C28.3746 6.85463 28.7106 6.65396 29.0279 6.47663C29.3453 6.28996 29.6253 6.08929 29.8679 5.87463C30.1106 5.65996 30.3019 5.41729 30.4419 5.14663C30.5819 4.87596 30.6519 4.54463 30.6519 4.15262C30.6519 3.83529 30.5959 3.55063 30.4839 3.29862C30.3719 3.04662 30.2179 2.83196 30.0219 2.65462C29.8259 2.47729 29.5973 2.34663 29.3359 2.26262C29.0746 2.16929 28.7899 2.12263 28.4819 2.12263C28.1553 2.12263 27.8566 2.19263 27.5859 2.33262C27.3246 2.46329 27.0959 2.64062 26.8999 2.86462C26.7133 3.08863 26.5686 3.34996 26.4659 3.64862C26.3633 3.94729 26.3213 4.26462 26.3399 4.60062H25.3879Z" fill="black"/>
<path d="M33.1672 4.60063C33.1672 4.11529 33.2419 3.67663 33.3912 3.28463C33.5405 2.88329 33.7552 2.54263 34.0352 2.26263C34.3152 1.97329 34.6512 1.75396 35.0432 1.60463C35.4446 1.44596 35.8879 1.36662 36.3732 1.36662C36.8679 1.36662 37.3019 1.44129 37.6752 1.59063C38.0579 1.73063 38.3752 1.92196 38.6272 2.16463C38.8885 2.40729 39.0846 2.69663 39.2152 3.03263C39.3459 3.36863 39.4112 3.72329 39.4112 4.09662C39.4112 4.53529 39.3366 4.92263 39.1872 5.25863C39.0472 5.59463 38.8559 5.89329 38.6132 6.15463C38.3799 6.41596 38.1092 6.64929 37.8012 6.85463C37.5025 7.05996 37.1945 7.25596 36.8772 7.44263C36.5599 7.61996 36.2472 7.79263 35.9392 7.96063C35.6312 8.12863 35.3559 8.30596 35.1132 8.49263C34.9545 8.61396 34.8006 8.74463 34.6512 8.88463C34.5019 9.01529 34.3665 9.15996 34.2452 9.31863C34.1239 9.47729 34.0259 9.65463 33.9512 9.85063C33.8766 10.0373 33.8346 10.2473 33.8252 10.4806H39.3272V11.2366H32.8732C32.8826 10.7606 32.9339 10.3313 33.0272 9.94863C33.1206 9.56596 33.3259 9.19263 33.6432 8.82863C33.9885 8.43663 34.3432 8.10063 34.7072 7.82063C35.0806 7.54063 35.4446 7.29329 35.7992 7.07863C36.1539 6.85463 36.4899 6.65396 36.8072 6.47663C37.1245 6.28996 37.4045 6.08929 37.6472 5.87463C37.8899 5.65996 38.0812 5.41729 38.2212 5.14663C38.3612 4.87596 38.4312 4.54463 38.4312 4.15262C38.4312 3.83529 38.3752 3.55063 38.2632 3.29862C38.1512 3.04662 37.9972 2.83196 37.8012 2.65463C37.6052 2.47729 37.3765 2.34663 37.1152 2.26263C36.8539 2.16929 36.5692 2.12263 36.2612 2.12263C35.9345 2.12263 35.6359 2.19263 35.3652 2.33263C35.1039 2.46329 34.8752 2.64062 34.6792 2.86462C34.4926 3.08863 34.3479 3.34996 34.2452 3.64862C34.1425 3.94729 34.1006 4.26462 34.1192 4.60063H33.1672Z" fill="black"/>
<path d="M40.7645 13.9106C41.4365 12.94 41.9592 11.904 42.3325 10.8026C42.7152 9.69196 42.9065 8.54396 42.9065 7.35863C42.9065 6.19196 42.7105 5.06263 42.3185 3.97062C41.9265 2.87863 41.4085 1.85196 40.7645 0.890625L41.4785 0.890625C41.8612 1.42263 42.2018 1.94063 42.5005 2.44463C42.7992 2.93929 43.0465 3.44796 43.2425 3.97062C43.4478 4.48396 43.6018 5.02529 43.7045 5.59462C43.8165 6.15462 43.8725 6.76596 43.8725 7.42863C43.8725 8.07263 43.8165 8.67929 43.7045 9.24863C43.6018 9.80863 43.4478 10.35 43.2425 10.8726C43.0372 11.3953 42.7852 11.904 42.4865 12.3986C42.1878 12.9026 41.8518 13.4066 41.4785 13.9106H40.7645Z" fill="black"/>
<path d="M51.6331 5.74863C52.0531 5.74863 52.4358 5.72529 52.7811 5.67863C53.1264 5.62263 53.4204 5.52463 53.6631 5.38463C53.9151 5.23529 54.1111 5.03929 54.2511 4.79663C54.3911 4.55396 54.4611 4.24129 54.4611 3.85863C54.4611 3.55063 54.4051 3.28929 54.2931 3.07463C54.1811 2.85063 54.0271 2.66862 53.8311 2.52863C53.6444 2.38863 53.4204 2.28596 53.1591 2.22062C52.9071 2.15529 52.6411 2.12263 52.3611 2.12263C52.0438 2.12263 51.7544 2.17396 51.4931 2.27663C51.2411 2.37929 51.0218 2.52863 50.8351 2.72463C50.6484 2.91129 50.5038 3.13529 50.4011 3.39663C50.2984 3.64863 50.2471 3.92863 50.2471 4.23663H49.3511C49.3511 3.78863 49.4258 3.38729 49.5751 3.03263C49.7338 2.66863 49.9764 2.33263 50.3031 2.02462C50.6111 1.74463 50.9564 1.56729 51.3391 1.49263C51.7311 1.40863 52.1324 1.36663 52.5431 1.36663C52.9351 1.36663 53.2991 1.41796 53.6351 1.52063C53.9804 1.61396 54.2791 1.76329 54.5311 1.96862C54.7831 2.16463 54.9838 2.41663 55.1331 2.72463C55.2824 3.03263 55.3571 3.39196 55.3571 3.80263C55.3571 4.31596 55.2404 4.75929 55.0071 5.13263C54.7831 5.50596 54.4331 5.79529 53.9571 6.00063C54.3118 6.11263 54.6011 6.26196 54.8251 6.44863C55.0584 6.62596 55.2404 6.82663 55.3711 7.05063C55.5018 7.26529 55.5904 7.49396 55.6371 7.73663C55.6838 7.97929 55.7071 8.21263 55.7071 8.43663C55.7071 8.84729 55.6371 9.22996 55.4971 9.58463C55.3571 9.93929 55.1518 10.252 54.8811 10.5226C54.6104 10.7933 54.2744 11.0126 53.8731 11.1806C53.4811 11.3393 53.0331 11.4233 52.5291 11.4326C51.9598 11.4326 51.4651 11.3813 51.0451 11.2786C50.6251 11.176 50.2751 11.008 49.9951 10.7746C49.7151 10.532 49.4958 10.2193 49.3371 9.83663C49.1784 9.44463 49.0711 8.95929 49.0151 8.38063H49.9111C49.9111 9.13663 50.1351 9.71063 50.5831 10.1026C51.0404 10.4853 51.6331 10.6766 52.3611 10.6766C52.7158 10.6766 53.0471 10.616 53.3551 10.4946C53.6631 10.3733 53.9244 10.21 54.1391 10.0046C54.3631 9.79929 54.5311 9.56129 54.6431 9.29063C54.7644 9.01996 54.8204 8.73996 54.8111 8.45063C54.7924 8.04929 54.6991 7.71796 54.5311 7.45663C54.3631 7.18596 54.1344 6.97596 53.8451 6.82663C53.5651 6.66796 53.2338 6.56529 52.8511 6.51863C52.4684 6.46263 52.0624 6.44863 51.6331 6.47663V5.74863Z" fill="black"/>
<path d="M62.6464 6.37863C62.6464 5.84663 62.6137 5.32863 62.5484 4.82463C62.4924 4.31129 62.3757 3.85396 62.1984 3.45263C62.0211 3.05129 61.7691 2.72929 61.4424 2.48663C61.1251 2.24396 60.7051 2.12263 60.1824 2.12263C59.6877 2.12263 59.2817 2.24863 58.9644 2.50063C58.6564 2.74329 58.4137 3.06996 58.2364 3.48063C58.0591 3.89129 57.9331 4.35796 57.8584 4.88063C57.7931 5.40329 57.7604 5.93529 57.7604 6.47663C57.7604 7.11129 57.7977 7.68996 57.8724 8.21263C57.9564 8.72596 58.0917 9.16463 58.2784 9.52863C58.4651 9.89263 58.7124 10.1773 59.0204 10.3826C59.3377 10.5786 59.7344 10.6766 60.2104 10.6766C60.7424 10.6766 61.1671 10.546 61.4844 10.2846C61.8111 10.0233 62.0584 9.68729 62.2264 9.27663C62.3944 8.86596 62.5064 8.40396 62.5624 7.89063C62.6184 7.37729 62.6464 6.87329 62.6464 6.37863ZM60.2104 1.36663C60.6957 1.36663 61.1157 1.44129 61.4704 1.59063C61.8251 1.73063 62.1237 1.92663 62.3664 2.17863C62.6184 2.43063 62.8191 2.72463 62.9684 3.06063C63.1271 3.39663 63.2484 3.75596 63.3324 4.13863C63.4164 4.51196 63.4724 4.89929 63.5004 5.30063C63.5284 5.70196 63.5424 6.09396 63.5424 6.47663C63.5424 7.12996 63.4957 7.75529 63.4024 8.35263C63.3091 8.94996 63.1364 9.47729 62.8844 9.93463C62.6417 10.392 62.3057 10.756 61.8764 11.0266C61.4471 11.2973 60.8917 11.4326 60.2104 11.4326C59.5291 11.4326 58.9691 11.2973 58.5304 11.0266C58.1011 10.756 57.7604 10.392 57.5084 9.93463C57.2657 9.46796 57.0977 8.93129 57.0044 8.32463C56.9111 7.70863 56.8644 7.05996 56.8644 6.37863C56.8644 5.75329 56.9064 5.14196 56.9904 4.54463C57.0744 3.94729 57.2331 3.41529 57.4664 2.94863C57.7091 2.47263 58.0497 2.08996 58.4884 1.80063C58.9271 1.51129 59.5011 1.36663 60.2104 1.36663Z" fill="black"/>
<path d="M70.2157 3.78863C70.113 3.28463 69.9077 2.88329 69.5997 2.58463C69.2917 2.27663 68.8717 2.12263 68.3397 2.12263C67.733 2.12263 67.2524 2.26729 66.8977 2.55663C66.5524 2.84596 66.2864 3.21463 66.0997 3.66263C65.913 4.10129 65.787 4.58196 65.7217 5.10463C65.6564 5.62729 65.605 6.12196 65.5677 6.58863C65.7077 6.40196 65.8524 6.21529 66.0017 6.02863C66.1604 5.84196 66.3377 5.67863 66.5337 5.53863C66.7297 5.38929 66.9584 5.27263 67.2197 5.18863C67.481 5.09529 67.7937 5.04863 68.1577 5.04863C69.1564 5.04863 69.9264 5.33329 70.4677 5.90263C71.0184 6.46263 71.2937 7.23729 71.2937 8.22663C71.2937 9.22529 71.0184 10.0093 70.4677 10.5786C69.917 11.148 69.1377 11.4326 68.1297 11.4326C67.635 11.4326 67.1777 11.3533 66.7577 11.1946C66.3377 11.0266 65.9737 10.756 65.6657 10.3826C65.3577 10.0093 65.115 9.52396 64.9377 8.92663C64.7604 8.31996 64.6717 7.58263 64.6717 6.71463C64.6717 6.12663 64.723 5.51996 64.8257 4.89463C64.9284 4.25996 65.1104 3.68129 65.3717 3.15863C65.6424 2.63596 66.0064 2.20663 66.4637 1.87063C66.9304 1.53463 67.5277 1.36663 68.2557 1.36663C69.0397 1.36663 69.693 1.57196 70.2157 1.98263C70.7384 2.39329 71.0464 2.99529 71.1397 3.78863H70.2157ZM68.1297 5.80463C67.7844 5.80463 67.4717 5.86996 67.1917 6.00063C66.921 6.13129 66.6877 6.30863 66.4917 6.53263C66.305 6.75663 66.1604 7.01796 66.0577 7.31663C65.955 7.60596 65.9037 7.91863 65.9037 8.25463C65.9037 8.53463 65.941 8.81929 66.0157 9.10863C66.0997 9.38863 66.2304 9.64529 66.4077 9.87863C66.5944 10.112 66.8277 10.3033 67.1077 10.4526C67.3877 10.602 67.733 10.6766 68.1437 10.6766C68.5637 10.6766 68.9137 10.6066 69.1937 10.4666C69.483 10.3173 69.7164 10.126 69.8937 9.89263C70.071 9.64996 70.197 9.38396 70.2717 9.09463C70.3557 8.79596 70.3977 8.49729 70.3977 8.19863C70.3977 7.43329 70.211 6.84529 69.8377 6.43463C69.4737 6.01463 68.9044 5.80463 68.1297 5.80463Z" fill="black"/>
<path d="M75.979 7.16263V8.03063H72.437V7.16263H75.979Z" fill="black"/>
<path d="M77.3651 1.46463L83.6511 1.46463V2.30463C82.9418 3.10729 82.3398 3.93329 81.8451 4.78263C81.3504 5.62263 80.9444 6.44396 80.6271 7.24663C80.3098 8.03996 80.0718 8.78196 79.9131 9.47263C79.7638 10.1633 79.6751 10.7513 79.6471 11.2366H78.6671C78.7138 10.5273 78.8538 9.77596 79.0871 8.98263C79.3298 8.17996 79.6284 7.38663 79.9831 6.60263C80.3378 5.81863 80.7391 5.06263 81.1871 4.33463C81.6351 3.59729 82.0971 2.93929 82.5731 2.36063L77.3651 2.36063V1.46463Z" fill="black"/>
<path d="M88.2244 6.40663C87.8791 6.40663 87.5617 6.44863 87.2724 6.53263C86.9831 6.61663 86.7311 6.74729 86.5164 6.92463C86.3017 7.09263 86.1337 7.31196 86.0124 7.58263C85.8911 7.84396 85.8304 8.15663 85.8304 8.52063C85.8304 8.82863 85.8864 9.11329 85.9984 9.37463C86.1197 9.63596 86.2831 9.86463 86.4884 10.0606C86.7031 10.2473 86.9597 10.3966 87.2584 10.5086C87.5664 10.6206 87.9071 10.6766 88.2804 10.6766C88.6071 10.6766 88.9104 10.6253 89.1904 10.5226C89.4704 10.4106 89.7131 10.2566 89.9184 10.0606C90.1331 9.86463 90.2964 9.63129 90.4084 9.36063C90.5297 9.08996 90.5904 8.79129 90.5904 8.46463C90.5904 8.11929 90.5297 7.82063 90.4084 7.56863C90.2871 7.30729 90.1191 7.09263 89.9044 6.92463C89.6897 6.74729 89.4377 6.61663 89.1484 6.53263C88.8591 6.44863 88.5511 6.40663 88.2244 6.40663ZM88.1824 2.12263C87.9024 2.12263 87.6411 2.15996 87.3984 2.23463C87.1557 2.30929 86.9411 2.42129 86.7544 2.57063C86.5771 2.71996 86.4371 2.90663 86.3344 3.13063C86.2317 3.35463 86.1804 3.61129 86.1804 3.90063C86.1804 4.20863 86.2364 4.47463 86.3484 4.69863C86.4697 4.91329 86.6284 5.09063 86.8244 5.23063C87.0204 5.37063 87.2444 5.47796 87.4964 5.55263C87.7484 5.61796 88.0097 5.65063 88.2804 5.65063C88.5511 5.65063 88.8031 5.61796 89.0364 5.55263C89.2697 5.47796 89.4704 5.36129 89.6384 5.20263C89.8064 5.04396 89.9371 4.84329 90.0304 4.60063C90.1331 4.35796 90.1844 4.05929 90.1844 3.70463C90.1844 3.20063 90.0211 2.81329 89.6944 2.54263C89.3677 2.26263 88.8637 2.12263 88.1824 2.12263ZM86.6564 5.93063C86.4137 5.78129 86.2037 5.64129 86.0264 5.51063C85.8584 5.37063 85.7184 5.22129 85.6064 5.06263C85.4944 4.90396 85.4104 4.72663 85.3544 4.53063C85.3077 4.32529 85.2844 4.07329 85.2844 3.77463C85.2844 3.43863 85.3591 3.12129 85.5084 2.82263C85.6577 2.52396 85.8584 2.26729 86.1104 2.05263C86.3624 1.82863 86.6564 1.65596 86.9924 1.53463C87.3377 1.41329 87.7064 1.35729 88.0984 1.36663C88.4717 1.36663 88.8357 1.41329 89.1904 1.50663C89.5544 1.59996 89.8764 1.74463 90.1564 1.94063C90.4364 2.13663 90.6604 2.38863 90.8284 2.69663C90.9964 2.99529 91.0804 3.35463 91.0804 3.77463C91.0804 4.28796 90.9731 4.72663 90.7584 5.09063C90.5531 5.45463 90.2124 5.75329 89.7364 5.98663C90.2777 6.18263 90.7024 6.49529 91.0104 6.92463C91.3277 7.35396 91.4864 7.85796 91.4864 8.43663C91.4864 8.92196 91.4024 9.35129 91.2344 9.72463C91.0757 10.098 90.8424 10.4106 90.5344 10.6626C90.2357 10.9146 89.8717 11.106 89.4424 11.2366C89.0131 11.3673 88.5371 11.4326 88.0144 11.4326C87.6597 11.4326 87.2957 11.372 86.9224 11.2506C86.5584 11.1293 86.2271 10.9473 85.9284 10.7046C85.6391 10.462 85.4011 10.1586 85.2144 9.79463C85.0277 9.43063 84.9344 9.00596 84.9344 8.52063C84.9344 7.93263 85.0791 7.40996 85.3684 6.95263C85.6671 6.48596 86.0964 6.14529 86.6564 5.93063Z" fill="black"/>
<path d="M96.1997 7.16263V8.03063H92.6577V7.16263H96.1997Z" fill="black"/>
<path d="M97.7258 4.60063C97.7258 4.11529 97.8005 3.67663 97.9498 3.28463C98.0991 2.88329 98.3138 2.54263 98.5938 2.26263C98.8738 1.97329 99.2098 1.75396 99.6018 1.60463C100.003 1.44596 100.446 1.36663 100.932 1.36663C101.426 1.36663 101.86 1.44129 102.234 1.59063C102.616 1.73063 102.934 1.92196 103.186 2.16463C103.447 2.40729 103.643 2.69663 103.774 3.03263C103.904 3.36863 103.97 3.72329 103.97 4.09663C103.97 4.53529 103.895 4.92263 103.746 5.25863C103.606 5.59463 103.414 5.89329 103.172 6.15463C102.938 6.41596 102.668 6.64929 102.36 6.85463C102.061 7.05996 101.753 7.25596 101.436 7.44263C101.118 7.61996 100.806 7.79263 100.498 7.96063C100.19 8.12863 99.9145 8.30596 99.6718 8.49263C99.5131 8.61396 99.3591 8.74463 99.2098 8.88463C99.0605 9.01529 98.9251 9.15996 98.8038 9.31863C98.6825 9.47729 98.5845 9.65463 98.5098 9.85063C98.4351 10.0373 98.3931 10.2473 98.3838 10.4806H103.886V11.2366L97.4318 11.2366C97.4411 10.7606 97.4925 10.3313 97.5858 9.94863C97.6791 9.56596 97.8845 9.19263 98.2018 8.82863C98.5471 8.43663 98.9018 8.10063 99.2658 7.82063C99.6391 7.54063 100.003 7.29329 100.358 7.07863C100.712 6.85463 101.048 6.65396 101.366 6.47663C101.683 6.28996 101.963 6.08929 102.206 5.87463C102.448 5.65996 102.64 5.41729 102.78 5.14663C102.92 4.87596 102.99 4.54463 102.99 4.15263C102.99 3.83529 102.934 3.55063 102.822 3.29863C102.71 3.04663 102.556 2.83196 102.36 2.65463C102.164 2.47729 101.935 2.34663 101.674 2.26263C101.412 2.16929 101.128 2.12263 100.82 2.12263C100.493 2.12263 100.194 2.19263 99.9238 2.33263C99.6625 2.46329 99.4338 2.64063 99.2378 2.86463C99.0511 3.08863 98.9065 3.34996 98.8038 3.64863C98.7011 3.94729 98.6591 4.26463 98.6778 4.60063H97.7258Z" fill="black"/>
<path d="M106.191 9.06663C106.294 9.59863 106.499 9.99996 106.807 10.2706C107.124 10.5413 107.558 10.6766 108.109 10.6766C108.697 10.6766 109.164 10.532 109.509 10.2426C109.864 9.95329 110.134 9.58929 110.321 9.15063C110.517 8.71196 110.648 8.24063 110.713 7.73663C110.788 7.22329 110.834 6.74263 110.853 6.29463L110.825 6.26663C110.526 6.77063 110.153 7.15329 109.705 7.41463C109.266 7.67596 108.753 7.80663 108.165 7.80663C107.698 7.80663 107.278 7.73196 106.905 7.58263C106.532 7.43329 106.21 7.21863 105.939 6.93863C105.678 6.65863 105.472 6.32263 105.323 5.93063C105.183 5.53863 105.113 5.10463 105.113 4.62863C105.113 4.16196 105.178 3.73263 105.309 3.34063C105.44 2.93929 105.636 2.59396 105.897 2.30463C106.158 2.00596 106.485 1.77729 106.877 1.61863C107.278 1.45063 107.75 1.36663 108.291 1.36663C108.954 1.36663 109.504 1.49729 109.943 1.75863C110.391 2.01996 110.746 2.37463 111.007 2.82263C111.278 3.27063 111.469 3.79796 111.581 4.40463C111.693 5.01129 111.749 5.65996 111.749 6.35063C111.749 7.19063 111.66 7.92796 111.483 8.56263C111.306 9.18796 111.054 9.71529 110.727 10.1446C110.41 10.574 110.032 10.896 109.593 11.1106C109.154 11.3253 108.674 11.4326 108.151 11.4326C107.768 11.4326 107.409 11.386 107.073 11.2926C106.737 11.1993 106.443 11.0546 106.191 10.8586C105.939 10.6626 105.734 10.4153 105.575 10.1166C105.416 9.81796 105.318 9.46796 105.281 9.06663H106.191ZM108.291 2.12263C107.535 2.14129 106.966 2.37463 106.583 2.82263C106.2 3.27063 106.009 3.88196 106.009 4.65663C106.009 5.41263 106.205 6.00063 106.597 6.42063C106.998 6.84063 107.563 7.05063 108.291 7.05063C108.636 7.05063 108.944 6.98529 109.215 6.85463C109.495 6.72396 109.728 6.54663 109.915 6.32263C110.111 6.09863 110.256 5.84196 110.349 5.55263C110.452 5.25396 110.503 4.93663 110.503 4.60063C110.503 3.87263 110.307 3.28463 109.915 2.83663C109.523 2.37929 108.982 2.14129 108.291 2.12263Z" fill="black"/>
<path d="M9.34873 29.8926H9.37673L11.5747 21.1566H12.5547L9.90873 31.2366H8.85873L6.52073 22.3326H6.49273L4.15473 31.2366H3.10473L0.500732 21.1566H1.45273L3.62273 29.8926H3.65073L5.98873 21.1566H7.05273L9.34873 29.8926Z" fill="black"/>
<path d="M21.7901 29.8926H21.8181L24.0161 21.1566H24.9961L22.3501 31.2366H21.3001L18.9621 22.3326H18.9341L16.5961 31.2366H15.5461L12.9421 21.1566H13.8941L16.0641 29.8926H16.0921L18.4301 21.1566H19.4941L21.7901 29.8926Z" fill="black"/>
<path d="M34.2315 29.8926H34.2595L36.4575 21.1566H37.4375L34.7915 31.2366H33.7415L31.4035 22.3326H31.3755L29.0375 31.2366H27.9875L25.3835 21.1566H26.3355L28.5055 29.8926H28.5335L30.8715 21.1566H31.9355L34.2315 29.8926Z" fill="black"/>
<path d="M38.0179 31.2366V30.0046H39.0399V31.2366H38.0179Z" fill="black"/>
<path d="M45.4189 31.2366V21.1566H51.9149V21.9686H46.3709V25.6086H51.4109V26.4206H46.3709V31.2366H45.4189Z" fill="black"/>
<path d="M53.6322 31.2366V21.1566H54.5842V31.2366H53.6322Z" fill="black"/>
<path d="M61.0986 25.8466C61.4533 25.8466 61.78 25.8093 62.0786 25.7346C62.3866 25.66 62.6526 25.5433 62.8766 25.3846C63.1006 25.2166 63.278 25.0066 63.4086 24.7546C63.5393 24.5026 63.6046 24.1993 63.6046 23.8446C63.6046 23.4713 63.5346 23.1633 63.3946 22.9206C63.264 22.678 63.082 22.4866 62.8486 22.3466C62.6246 22.2066 62.3633 22.1086 62.0646 22.0526C61.7753 21.9966 61.472 21.9686 61.1546 21.9686H58.1306V25.8466H61.0986ZM58.1306 26.6586V31.2366H57.1786V21.1566H61.1266C62.2373 21.1566 63.0866 21.3666 63.6746 21.7866C64.2626 22.1973 64.5566 22.8693 64.5566 23.8026C64.5566 24.4373 64.426 24.9413 64.1646 25.3146C63.9126 25.688 63.4973 26.0053 62.9186 26.2666C63.2173 26.3693 63.4506 26.5186 63.6186 26.7146C63.7866 26.9106 63.9126 27.1346 63.9966 27.3866C64.0806 27.6386 64.132 27.9046 64.1506 28.1846C64.1786 28.4646 64.1973 28.7353 64.2066 28.9966C64.216 29.3793 64.23 29.6966 64.2486 29.9486C64.2766 30.2006 64.3046 30.406 64.3326 30.5646C64.37 30.7233 64.412 30.8493 64.4586 30.9426C64.5053 31.0266 64.5613 31.092 64.6266 31.1386V31.2366H63.5766C63.474 31.0686 63.3993 30.8353 63.3526 30.5366C63.3153 30.238 63.2826 29.9253 63.2546 29.5986C63.236 29.272 63.2173 28.9546 63.1986 28.6466C63.1893 28.3386 63.166 28.0866 63.1286 27.8906C63.0726 27.62 62.9793 27.4053 62.8486 27.2466C62.7273 27.0786 62.578 26.9526 62.4006 26.8686C62.2233 26.7846 62.0226 26.7286 61.7986 26.7006C61.584 26.6726 61.36 26.6586 61.1266 26.6586H58.1306Z" fill="black"/>
<path d="M66.5305 31.2366V21.1566H73.2365V21.9686H67.4825V25.6086H72.6765V26.4206H67.4825V30.4246H73.3765V31.2366H66.5305Z" fill="black"/>
<path d="M1.39673 51.2366L1.39673 41.1566H5.07873C5.73207 41.1566 6.26873 41.2313 6.68873 41.3806C7.11807 41.53 7.45407 41.7353 7.69673 41.9966C7.94873 42.258 8.1214 42.5613 8.21473 42.9066C8.3174 43.2426 8.36873 43.5973 8.36873 43.9706C8.36873 44.5306 8.25207 44.9926 8.01873 45.3566C7.79473 45.7206 7.50073 46.01 7.13673 46.2246C6.77273 46.43 6.3574 46.5746 5.89073 46.6586C5.4334 46.7426 4.9714 46.7846 4.50473 46.7846H2.34873L2.34873 51.2366H1.39673ZM4.53273 45.9726C4.98073 45.9726 5.38207 45.9446 5.73673 45.8886C6.0914 45.8326 6.39007 45.73 6.63273 45.5806C6.88473 45.422 7.07607 45.212 7.20673 44.9506C7.34673 44.68 7.41673 44.33 7.41673 43.9006C7.41673 43.266 7.20673 42.7853 6.78673 42.4586C6.37607 42.132 5.71807 41.9686 4.81273 41.9686H2.34873V45.9726H4.53273Z" fill="black"/>
<path d="M13.9033 45.8466C14.258 45.8466 14.5847 45.8093 14.8833 45.7346C15.1913 45.66 15.4573 45.5433 15.6813 45.3846C15.9053 45.2166 16.0827 45.0066 16.2133 44.7546C16.344 44.5026 16.4093 44.1993 16.4093 43.8446C16.4093 43.4713 16.3393 43.1633 16.1993 42.9206C16.0687 42.678 15.8867 42.4866 15.6533 42.3466C15.4293 42.2066 15.168 42.1086 14.8693 42.0526C14.58 41.9966 14.2767 41.9686 13.9593 41.9686H10.9353V45.8466H13.9033ZM10.9353 46.6586V51.2366H9.98333L9.98333 41.1566H13.9313C15.042 41.1566 15.8913 41.3666 16.4793 41.7866C17.0673 42.1973 17.3613 42.8693 17.3613 43.8026C17.3613 44.4373 17.2307 44.9413 16.9693 45.3146C16.7173 45.688 16.302 46.0053 15.7233 46.2666C16.022 46.3693 16.2553 46.5186 16.4233 46.7146C16.5913 46.9106 16.7173 47.1346 16.8013 47.3866C16.8853 47.6386 16.9367 47.9046 16.9553 48.1846C16.9833 48.4646 17.002 48.7353 17.0113 48.9966C17.0207 49.3793 17.0347 49.6966 17.0533 49.9486C17.0813 50.2006 17.1093 50.406 17.1373 50.5646C17.1747 50.7233 17.2167 50.8493 17.2633 50.9426C17.31 51.0266 17.366 51.092 17.4313 51.1386V51.2366H16.3813C16.2787 51.0686 16.204 50.8353 16.1573 50.5366C16.12 50.238 16.0873 49.9253 16.0593 49.5986C16.0407 49.272 16.022 48.9546 16.0033 48.6466C15.994 48.3386 15.9707 48.0866 15.9333 47.8906C15.8773 47.62 15.784 47.4053 15.6533 47.2466C15.532 47.0786 15.3827 46.9526 15.2053 46.8686C15.028 46.7846 14.8273 46.7286 14.6033 46.7006C14.3887 46.6726 14.1647 46.6586 13.9313 46.6586H10.9353Z" fill="black"/>
<path d="M19.3352 51.2366V41.1566H26.0412V41.9686H20.2872V45.6086H25.4812V46.4206H20.2872V50.4246H26.1812V51.2366H19.3352Z" fill="black"/>
<path d="M28.2858 48.2266C28.3231 48.6746 28.4211 49.0573 28.5798 49.3746C28.7478 49.6826 28.9578 49.9346 29.2098 50.1306C29.4711 50.3266 29.7698 50.4713 30.1058 50.5646C30.4418 50.6486 30.8011 50.6906 31.1838 50.6906C31.6318 50.6906 32.0191 50.6346 32.3458 50.5226C32.6725 50.4106 32.9385 50.2613 33.1438 50.0746C33.3491 49.8786 33.4985 49.6546 33.5918 49.4026C33.6945 49.1506 33.7458 48.8846 33.7458 48.6046C33.7458 48.2126 33.6571 47.8953 33.4798 47.6526C33.3025 47.41 33.0691 47.214 32.7798 47.0646C32.4998 46.906 32.1731 46.78 31.7998 46.6866C31.4358 46.5933 31.0578 46.5046 30.6658 46.4206C30.2831 46.3273 29.9051 46.22 29.5318 46.0986C29.1678 45.9773 28.8411 45.814 28.5518 45.6086C28.2718 45.4033 28.0431 45.142 27.8658 44.8246C27.6885 44.498 27.5998 44.0873 27.5998 43.5926C27.5998 43.2473 27.6698 42.9113 27.8098 42.5846C27.9591 42.258 28.1738 41.9686 28.4538 41.7166C28.7431 41.4646 29.1025 41.264 29.5318 41.1146C29.9611 40.9653 30.4558 40.8906 31.0158 40.8906C31.5851 40.8906 32.0798 40.97 32.4998 41.1286C32.9291 41.2873 33.2838 41.5066 33.5638 41.7866C33.8438 42.0573 34.0538 42.3746 34.1938 42.7386C34.3338 43.1026 34.4038 43.49 34.4038 43.9006H33.4938C33.4938 43.518 33.4238 43.1866 33.2838 42.9066C33.1531 42.6266 32.9711 42.398 32.7378 42.2206C32.5045 42.0433 32.2385 41.9126 31.9398 41.8286C31.6411 41.7446 31.3331 41.7026 31.0158 41.7026C30.5305 41.7026 30.1198 41.7726 29.7838 41.9126C29.4571 42.0433 29.1958 42.216 28.9998 42.4306C28.8038 42.6453 28.6685 42.8833 28.5938 43.1446C28.5191 43.406 28.5051 43.6673 28.5518 43.9286C28.6078 44.2553 28.7385 44.5166 28.9438 44.7126C29.1491 44.9086 29.4011 45.072 29.6998 45.2026C29.9985 45.324 30.3251 45.4266 30.6798 45.5106C31.0438 45.5853 31.4125 45.6693 31.7858 45.7626C32.1591 45.8466 32.5185 45.9493 32.8638 46.0706C33.2185 46.192 33.5311 46.3553 33.8018 46.5606C34.0725 46.766 34.2871 47.032 34.4458 47.3586C34.6138 47.676 34.6978 48.0773 34.6978 48.5626C34.6978 49.496 34.3758 50.2193 33.7318 50.7326C33.0878 51.246 32.1825 51.5026 31.0158 51.5026C30.4931 51.5026 30.0078 51.4326 29.5598 51.2926C29.1118 51.162 28.7245 50.9613 28.3978 50.6906C28.0711 50.4106 27.8145 50.07 27.6278 49.6686C27.4505 49.258 27.3618 48.7773 27.3618 48.2266H28.2858Z" fill="black"/>
<path d="M36.8444 48.2266C36.8817 48.6746 36.9797 49.0573 37.1384 49.3746C37.3064 49.6826 37.5164 49.9346 37.7684 50.1306C38.0297 50.3266 38.3284 50.4713 38.6644 50.5646C39.0004 50.6486 39.3597 50.6906 39.7424 50.6906C40.1904 50.6906 40.5777 50.6346 40.9044 50.5226C41.2311 50.4106 41.4971 50.2613 41.7024 50.0746C41.9077 49.8786 42.0571 49.6546 42.1504 49.4026C42.2531 49.1506 42.3044 48.8846 42.3044 48.6046C42.3044 48.2126 42.2157 47.8953 42.0384 47.6526C41.8611 47.41 41.6277 47.214 41.3384 47.0646C41.0584 46.906 40.7317 46.78 40.3584 46.6866C39.9944 46.5933 39.6164 46.5046 39.2244 46.4206C38.8417 46.3273 38.4637 46.22 38.0904 46.0986C37.7264 45.9773 37.3997 45.814 37.1104 45.6086C36.8304 45.4033 36.6017 45.142 36.4244 44.8246C36.2471 44.498 36.1584 44.0873 36.1584 43.5926C36.1584 43.2473 36.2284 42.9113 36.3684 42.5846C36.5177 42.258 36.7324 41.9686 37.0124 41.7166C37.3017 41.4646 37.6611 41.264 38.0904 41.1146C38.5197 40.9653 39.0144 40.8906 39.5744 40.8906C40.1437 40.8906 40.6384 40.97 41.0584 41.1286C41.4877 41.2873 41.8424 41.5066 42.1224 41.7866C42.4024 42.0573 42.6124 42.3746 42.7524 42.7386C42.8924 43.1026 42.9624 43.49 42.9624 43.9006H42.0524C42.0524 43.518 41.9824 43.1866 41.8424 42.9066C41.7117 42.6266 41.5297 42.398 41.2964 42.2206C41.0631 42.0433 40.7971 41.9126 40.4984 41.8286C40.1997 41.7446 39.8917 41.7026 39.5744 41.7026C39.0891 41.7026 38.6784 41.7726 38.3424 41.9126C38.0157 42.0433 37.7544 42.216 37.5584 42.4306C37.3624 42.6453 37.2271 42.8833 37.1524 43.1446C37.0777 43.406 37.0637 43.6673 37.1104 43.9286C37.1664 44.2553 37.2971 44.5166 37.5024 44.7126C37.7077 44.9086 37.9597 45.072 38.2584 45.2026C38.5571 45.324 38.8837 45.4266 39.2384 45.5106C39.6024 45.5853 39.9711 45.6693 40.3444 45.7626C40.7177 45.8466 41.0771 45.9493 41.4224 46.0706C41.7771 46.192 42.0897 46.3553 42.3604 46.5606C42.6311 46.766 42.8457 47.032 43.0044 47.3586C43.1724 47.676 43.2564 48.0773 43.2564 48.5626C43.2564 49.496 42.9344 50.2193 42.2904 50.7326C41.6464 51.246 40.7411 51.5026 39.5744 51.5026C39.0517 51.5026 38.5664 51.4326 38.1184 51.2926C37.6704 51.162 37.2831 50.9613 36.9564 50.6906C36.6297 50.4106 36.3731 50.07 36.1864 49.6686C36.0091 49.258 35.9204 48.7773 35.9204 48.2266H36.8444Z" fill="black"/>
<path d="M45.305 51.2366V50.0046H46.327V51.2366H45.305Z" fill="black"/>
<path d="M56.0615 44.0826C55.8655 43.224 55.5015 42.6126 54.9695 42.2486C54.4375 41.8846 53.7422 41.7026 52.8835 41.7026C52.2768 41.7026 51.7541 41.824 51.3155 42.0666C50.8768 42.3093 50.5128 42.636 50.2235 43.0466C49.9435 43.4573 49.7335 43.9333 49.5935 44.4746C49.4628 45.0066 49.3975 45.5713 49.3975 46.1686C49.3975 46.7286 49.4535 47.2793 49.5655 47.8206C49.6868 48.362 49.8828 48.8473 50.1535 49.2766C50.4242 49.6966 50.7882 50.0373 51.2455 50.2986C51.7028 50.56 52.2768 50.6906 52.9675 50.6906C53.3968 50.6906 53.7888 50.6206 54.1435 50.4806C54.4981 50.3406 54.8061 50.1493 55.0675 49.9066C55.3381 49.6546 55.5621 49.3606 55.7395 49.0246C55.9261 48.6886 56.0662 48.32 56.1595 47.9186H57.1535C57.0415 48.404 56.8781 48.866 56.6635 49.3046C56.4488 49.734 56.1641 50.112 55.8095 50.4386C55.4641 50.7653 55.0395 51.0266 54.5355 51.2226C54.0408 51.4093 53.4575 51.5026 52.7855 51.5026C52.0108 51.5026 51.3481 51.3626 50.7975 51.0826C50.2468 50.7933 49.7942 50.406 49.4395 49.9206C49.0942 49.4353 48.8421 48.8753 48.6835 48.2406C48.5248 47.5966 48.4455 46.9153 48.4455 46.1966C48.4455 45.2353 48.5621 44.4186 48.7955 43.7466C49.0381 43.0746 49.3695 42.5286 49.7895 42.1086C50.2095 41.6793 50.7042 41.3713 51.2735 41.1846C51.8428 40.9886 52.4635 40.8906 53.1355 40.8906C53.6488 40.8906 54.1248 40.9606 54.5635 41.1006C55.0115 41.2313 55.4035 41.432 55.7395 41.7026C56.0848 41.9733 56.3648 42.3093 56.5795 42.7106C56.8035 43.1026 56.9575 43.56 57.0415 44.0826H56.0615Z" fill="black"/>
<path d="M58.619 46.2106C58.619 45.4733 58.717 44.7826 58.913 44.1386C59.1183 43.4946 59.417 42.9346 59.809 42.4586C60.201 41.9733 60.6863 41.5906 61.265 41.3106C61.8437 41.0306 62.511 40.8906 63.267 40.8906C64.051 40.8906 64.737 41.0306 65.325 41.3106C65.9223 41.5813 66.417 41.9593 66.809 42.4446C67.2103 42.9206 67.509 43.4853 67.705 44.1386C67.9103 44.7826 68.013 45.4733 68.013 46.2106C68.013 46.9386 67.9103 47.6246 67.705 48.2686C67.509 48.9033 67.215 49.4633 66.823 49.9486C66.431 50.4246 65.941 50.8026 65.353 51.0826C64.765 51.3626 64.0837 51.5026 63.309 51.5026C62.5343 51.5026 61.853 51.3626 61.265 51.0826C60.677 50.8026 60.187 50.4246 59.795 49.9486C59.403 49.4633 59.109 48.9033 58.913 48.2686C58.717 47.6246 58.619 46.9386 58.619 46.2106ZM63.323 50.6906C63.9763 50.6906 64.5363 50.5693 65.003 50.3266C65.479 50.0746 65.8663 49.7433 66.165 49.3326C66.473 48.922 66.697 48.446 66.837 47.9046C66.9863 47.3633 67.061 46.7986 67.061 46.2106C67.061 45.5106 66.9723 44.8853 66.795 44.3346C66.627 43.7746 66.3797 43.2986 66.053 42.9066C65.7263 42.5146 65.3297 42.216 64.863 42.0106C64.3963 41.8053 63.8737 41.7026 63.295 41.7026C62.651 41.7026 62.091 41.8286 61.615 42.0806C61.1483 42.3326 60.761 42.6686 60.453 43.0886C60.1543 43.4993 59.9303 43.9753 59.781 44.5166C59.641 45.058 59.571 45.6226 59.571 46.2106C59.571 46.808 59.641 47.3773 59.781 47.9186C59.9303 48.46 60.1543 48.936 60.453 49.3466C60.761 49.7573 61.1483 50.084 61.615 50.3266C62.091 50.5693 62.6603 50.6906 63.323 50.6906Z" fill="black"/>
<path d="M69.8655 51.2366V41.1566H71.3215L74.6255 50.0466H74.6535L77.9015 41.1566H79.3435V51.2366H78.3915V42.2486H78.3635L75.0595 51.2366H74.1635L70.8455 42.2486H70.8175V51.2366H69.8655Z" fill="black"/>
<path d="M85.0741 52.4966H84.2901L87.5801 40.8906H88.3641L85.0741 52.4966Z" fill="black"/>
<path d="M1.31273 61.2406H5.54073C5.96073 61.2406 6.36207 61.2826 6.74473 61.3666C7.13673 61.4413 7.4774 61.5766 7.76673 61.7726C8.0654 61.9593 8.3034 62.2113 8.48073 62.5286C8.65807 62.8366 8.74673 63.224 8.74673 63.6906C8.74673 63.952 8.70473 64.2086 8.62073 64.4606C8.53673 64.7033 8.4154 64.9273 8.25673 65.1326C8.1074 65.3286 7.9254 65.4966 7.71073 65.6366C7.5054 65.7766 7.27207 65.8746 7.01073 65.9306V65.9586C7.65473 66.0426 8.16807 66.3086 8.55073 66.7566C8.9334 67.1953 9.12473 67.7413 9.12473 68.3946C9.12473 68.6373 9.0874 68.922 9.01273 69.2486C8.9474 69.566 8.7934 69.874 8.55073 70.1726C8.30807 70.4713 7.94873 70.7233 7.47273 70.9286C6.99673 71.134 6.35273 71.2366 5.54073 71.2366H1.31273L1.31273 61.2406ZM5.54073 70.4246C5.8954 70.4246 6.2314 70.3966 6.54873 70.3406C6.86607 70.2753 7.14607 70.1633 7.38873 70.0046C7.6314 69.846 7.82273 69.636 7.96273 69.3746C8.10273 69.1133 8.17273 68.7773 8.17273 68.3666C8.17273 67.7226 7.94407 67.242 7.48673 66.9246C7.03873 66.598 6.39007 66.4346 5.54073 66.4346H2.26473V70.4246H5.54073ZM5.54073 65.6226C5.91407 65.6226 6.24073 65.5806 6.52073 65.4966C6.81007 65.4033 7.04807 65.282 7.23473 65.1326C7.4214 64.974 7.5614 64.792 7.65473 64.5866C7.74807 64.3813 7.79473 64.162 7.79473 63.9286C7.79473 62.678 7.0434 62.0526 5.54073 62.0526H2.26473V65.6226H5.54073Z" fill="black"/>
<path d="M11.5746 71.3486C11.3506 71.3486 11.1453 71.3346 10.9586 71.3066C10.7813 71.2786 10.6413 71.246 10.5386 71.2086V70.3686C10.66 70.4153 10.8046 70.4573 10.9726 70.4946C11.1406 70.5226 11.3366 70.5366 11.5606 70.5366C11.9153 70.5366 12.2093 70.4246 12.4426 70.2006C12.6853 69.9766 12.9186 69.6266 13.1426 69.1506L13.2686 68.8846L9.55862 61.2406H10.5806L13.8286 67.8766L16.9926 61.2406H18.0006L14.0666 69.3886C13.8613 69.818 13.6606 70.1633 13.4646 70.4246C13.2686 70.6766 13.068 70.8726 12.8626 71.0126C12.6666 71.1526 12.4613 71.2413 12.2466 71.2786C12.0413 71.3253 11.8173 71.3486 11.5746 71.3486Z" fill="black"/>
<path d="M18.6291 71.3206C18.5731 71.3206 18.5031 71.316 18.4191 71.3066C18.3444 71.2973 18.2651 71.288 18.1811 71.2786C18.0971 71.2693 18.0224 71.2553 17.9571 71.2366C17.8918 71.2273 17.8451 71.218 17.8171 71.2086V70.3966C17.8918 70.434 18.0038 70.462 18.1531 70.4806C18.3118 70.49 18.4284 70.4946 18.5031 70.4946C18.6058 70.4946 18.7271 70.4853 18.8671 70.4666C19.0071 70.4386 19.1518 70.3546 19.3011 70.2146C19.4598 70.0653 19.6138 69.8366 19.7631 69.5286C19.9218 69.2113 20.0571 68.7633 20.1691 68.1846C20.2904 67.5966 20.3884 66.8546 20.4631 65.9586C20.5378 65.0626 20.5751 63.9613 20.5751 62.6546V61.2406H26.7211V71.2366H25.7691V62.0526H21.4991V62.5986C21.4991 64.0546 21.4524 65.282 21.3591 66.2806C21.2658 67.27 21.1398 68.0913 20.9811 68.7446C20.8224 69.3886 20.6404 69.888 20.4351 70.2426C20.2391 70.588 20.0338 70.84 19.8191 70.9986C19.6138 71.1573 19.4038 71.2506 19.1891 71.2786C18.9838 71.3066 18.7971 71.3206 18.6291 71.3206Z" fill="black"/>
<path d="M28.7385 61.2406H29.6905V66.6166L35.5005 61.2406H36.7885L32.3225 65.3706L36.9985 71.2366H35.7665L31.6085 66.0286L29.6905 67.8066V71.2366H28.7385V61.2406Z" fill="black"/>
<path d="M40.7426 61.2406H41.8066L45.7266 71.2366H44.7046L43.4866 68.1286H38.9366L37.7326 71.2366H36.7246L40.7426 61.2406ZM43.1646 67.3166L41.2326 62.1926L39.2306 67.3166H43.1646Z" fill="black"/>
<path d="M46.635 61.2406H47.587V65.5806H53.523V61.2406H54.475V71.2366H53.523V66.3926H47.587V71.2366H46.635V61.2406Z" fill="black"/>
<path d="M60.3889 61.2406H61.3409V66.6166L67.1509 61.2406H68.4389L63.9729 65.3706L68.6489 71.2366H67.4169L63.2589 66.0286L61.3409 67.8066V71.2366H60.3889V61.2406Z" fill="black"/>
<path d="M69.467 61.2406H73.905C74.353 61.2406 74.759 61.306 75.123 61.4366C75.487 61.558 75.7997 61.7446 76.061 61.9966C76.3224 62.2393 76.523 62.538 76.663 62.8926C76.803 63.2473 76.873 63.6486 76.873 64.0966C76.873 64.5446 76.803 64.946 76.663 65.3006C76.523 65.6553 76.3224 65.9586 76.061 66.2106C75.7997 66.4533 75.487 66.64 75.123 66.7706C74.759 66.892 74.353 66.9526 73.905 66.9526H70.419V71.2366H69.467V61.2406ZM73.695 66.1406C74.3577 66.1406 74.8944 65.9726 75.305 65.6366C75.7157 65.3006 75.921 64.7873 75.921 64.0966C75.921 63.406 75.7157 62.8926 75.305 62.5566C74.8944 62.2206 74.3577 62.0526 73.695 62.0526H70.419V66.1406H73.695Z" fill="black"/>
<path d="M81.2114 61.2406H82.2754L86.1954 71.2366H85.1734L83.9554 68.1286H79.4054L78.2014 71.2366H77.1934L81.2114 61.2406ZM83.6334 67.3166L81.7014 62.1926L79.6994 67.3166H83.6334Z" fill="black"/>
<path d="M87.1038 61.2406L88.0557 61.2406V66.6166L93.8657 61.2406H95.1537L90.6878 65.3706L95.3637 71.2366H94.1318L89.9737 66.0286L88.0557 67.8066V71.2366H87.1038V61.2406Z" fill="black"/>
<path d="M99.1079 61.2406H100.172L104.092 71.2366H103.07L101.852 68.1286H97.3019L96.0979 71.2366H95.0899L99.1079 61.2406ZM101.53 67.3166L99.5979 62.1926L97.5959 67.3166H101.53Z" fill="black"/>
<path d="M107.408 62.0526H103.936V61.2406H111.846L111.846 62.0526H108.36V71.2366H107.408V62.0526Z" fill="black"/>
<path d="M115.706 61.2406H116.77L120.69 71.2366H119.668L118.45 68.1286H113.9L112.696 71.2366H111.688L115.706 61.2406ZM118.128 67.3166L116.196 62.1926L114.194 67.3166H118.128Z" fill="black"/>
<path d="M122.522 71.3486C122.298 71.3486 122.093 71.3346 121.906 71.3066C121.729 71.2786 121.589 71.246 121.486 71.2086V70.3686C121.607 70.4153 121.752 70.4573 121.92 70.4946C122.088 70.5226 122.284 70.5366 122.508 70.5366C122.863 70.5366 123.157 70.4246 123.39 70.2006C123.633 69.9766 123.866 69.6266 124.09 69.1506L124.216 68.8846L120.506 61.2406H121.528L124.776 67.8766L127.94 61.2406H128.948L125.014 69.3886C124.809 69.818 124.608 70.1633 124.412 70.4246C124.216 70.6766 124.015 70.8726 123.81 71.0126C123.614 71.1526 123.409 71.2413 123.194 71.2786C122.989 71.3253 122.765 71.3486 122.522 71.3486Z" fill="black"/>
<path d="M131.27 71.6566C131.27 72.0673 131.172 72.394 130.976 72.6366C130.79 72.8886 130.547 73.0613 130.248 73.1546V72.6366C130.36 72.562 130.468 72.4593 130.57 72.3286C130.673 72.198 130.724 71.9926 130.724 71.7126V71.2366H130.248V70.0046H131.27V71.6566Z" fill="black"/>
<path d="M1.31273 81.2406H2.26473V86.6166L8.07473 81.2406H9.36273L4.89673 85.3706L9.57273 91.2366H8.34073L4.18273 86.0286L2.26473 87.8066V91.2366H1.31273L1.31273 81.2406Z" fill="black"/>
<path d="M10.8109 91.2366V90.0046H11.8329V91.2366H10.8109Z" fill="black"/>
<path d="M14.2453 84.6006C14.2453 84.1153 14.32 83.6766 14.4693 83.2846C14.6187 82.8833 14.8333 82.5426 15.1133 82.2626C15.3933 81.9733 15.7293 81.754 16.1213 81.6046C16.5227 81.446 16.966 81.3666 17.4513 81.3666C17.946 81.3666 18.38 81.4413 18.7533 81.5906C19.136 81.7306 19.4533 81.922 19.7053 82.1646C19.9667 82.4073 20.1627 82.6966 20.2933 83.0326C20.424 83.3686 20.4893 83.7233 20.4893 84.0966C20.4893 84.5353 20.4147 84.9226 20.2653 85.2586C20.1253 85.5946 19.934 85.8933 19.6913 86.1546C19.458 86.416 19.1873 86.6493 18.8793 86.8546C18.5807 87.06 18.2727 87.256 17.9553 87.4426C17.638 87.62 17.3253 87.7926 17.0173 87.9606C16.7093 88.1286 16.434 88.306 16.1913 88.4926C16.0327 88.614 15.8787 88.7446 15.7293 88.8846C15.58 89.0153 15.4447 89.16 15.3233 89.3186C15.202 89.4773 15.104 89.6546 15.0293 89.8506C14.9547 90.0373 14.9127 90.2473 14.9033 90.4806H20.4053V91.2366H13.9513C13.9607 90.7606 14.012 90.3313 14.1053 89.9486C14.1987 89.566 14.404 89.1926 14.7213 88.8286C15.0667 88.4366 15.4213 88.1006 15.7853 87.8206C16.1587 87.5406 16.5227 87.2933 16.8773 87.0786C17.232 86.8546 17.568 86.654 17.8853 86.4766C18.2027 86.29 18.4827 86.0893 18.7253 85.8746C18.968 85.66 19.1593 85.4173 19.2993 85.1466C19.4393 84.876 19.5093 84.5446 19.5093 84.1526C19.5093 83.8353 19.4533 83.5506 19.3413 83.2986C19.2293 83.0466 19.0753 82.832 18.8793 82.6546C18.6833 82.4773 18.4547 82.3466 18.1933 82.2626C17.932 82.1693 17.6473 82.1226 17.3393 82.1226C17.0127 82.1226 16.714 82.1926 16.4433 82.3326C16.182 82.4633 15.9533 82.6406 15.7573 82.8646C15.5707 83.0886 15.426 83.35 15.3233 83.6486C15.2207 83.9473 15.1787 84.2646 15.1973 84.6006H14.2453Z" fill="black"/>
<path d="M23.5086 91.6566C23.5086 92.0673 23.4106 92.394 23.2146 92.6366C23.028 92.8886 22.7853 93.0613 22.4866 93.1546V92.6366C22.5986 92.562 22.706 92.4593 22.8086 92.3286C22.9113 92.198 22.9626 91.9926 22.9626 91.7126V91.2366H22.4866V90.0046H23.5086V91.6566Z" fill="black"/>
<path d="M29.6776 81.4646H35.9636V82.3046C35.2543 83.1073 34.6523 83.9333 34.1576 84.7826C33.6629 85.6226 33.2569 86.444 32.9396 87.2466C32.6223 88.04 32.3843 88.782 32.2256 89.4726C32.0763 90.1633 31.9876 90.7513 31.9596 91.2366H30.9796C31.0263 90.5273 31.1663 89.776 31.3996 88.9826C31.6423 88.18 31.9409 87.3866 32.2956 86.6026C32.6503 85.8186 33.0516 85.0626 33.4996 84.3346C33.9476 83.5973 34.4096 82.9393 34.8856 82.3606H29.6776V81.4646Z" fill="black"/>
<path d="M45.1614 91.4326C44.5827 91.4326 44.0554 91.3486 43.5794 91.1806C43.1034 91.0126 42.6881 90.77 42.3334 90.4526C41.9787 90.1353 41.6847 89.7526 41.4514 89.3046C41.2181 88.8473 41.0594 88.334 40.9754 87.7646H41.9134C41.9881 88.1846 42.1094 88.572 42.2774 88.9266C42.4454 89.272 42.6647 89.5753 42.9354 89.8366C43.2061 90.0886 43.5234 90.2846 43.8874 90.4246C44.2607 90.5646 44.6807 90.6346 45.1474 90.6346C45.6887 90.6346 46.1787 90.5366 46.6174 90.3406C47.0654 90.1446 47.4481 89.8693 47.7654 89.5146C48.0921 89.1506 48.3487 88.712 48.5354 88.1986C48.7221 87.6853 48.8247 87.1113 48.8434 86.4766H43.7614V85.6786H48.8154C48.7687 85.1 48.6474 84.5773 48.4514 84.1106C48.2554 83.6346 47.9987 83.2286 47.6814 82.8926C47.3641 82.5566 46.9907 82.3 46.5614 82.1226C46.1414 81.936 45.6747 81.8426 45.1614 81.8426C44.3401 81.8426 43.6494 82.0573 43.0894 82.4866C42.5294 82.916 42.1701 83.5086 42.0114 84.2646H41.0594C41.1154 83.7606 41.2694 83.308 41.5214 82.9066C41.7734 82.5053 42.0861 82.1646 42.4594 81.8846C42.8327 81.6046 43.2527 81.3946 43.7194 81.2546C44.1861 81.1053 44.6574 81.0306 45.1334 81.0306C45.8894 81.0306 46.5567 81.1753 47.1354 81.4646C47.7141 81.7446 48.1994 82.1226 48.5914 82.5986C48.9834 83.0746 49.2774 83.63 49.4734 84.2646C49.6787 84.8993 49.7814 85.5666 49.7814 86.2666C49.7814 87.0506 49.6694 87.76 49.4454 88.3946C49.2214 89.0293 48.9041 89.5753 48.4934 90.0326C48.0921 90.4806 47.6067 90.826 47.0374 91.0686C46.4774 91.3113 45.8521 91.4326 45.1614 91.4326Z" fill="black"/>
<path d="M53.6778 82.0526H50.2058V81.2406H58.1158V82.0526H54.6298V91.2366H53.6778V82.0526Z" fill="black"/>
<path d="M61.9751 81.2406H63.0391L66.9591 91.2366H65.9371L64.7191 88.1286H60.1691L58.9651 91.2366H57.9571L61.9751 81.2406ZM64.3971 87.3166L62.4651 82.1926L60.4631 87.3166H64.3971Z" fill="black"/>
<path d="M71.2414 85.5526L67.0974 81.2406H68.3854L73.3134 86.5046V81.2406H74.2654V86.5046L79.1934 81.2406H80.4814L76.3374 85.5526L80.8314 91.2366H79.5994L75.6654 86.2526L74.2654 87.7086V91.2366H73.3134V87.7086L71.9134 86.2526L67.9794 91.2366H66.7474L71.2414 85.5526Z" fill="black"/>
<path d="M1.46997 158.999L1.46997 148.919H2.42197L2.42197 158.999H1.46997Z" fill="black"/>
<path d="M5.98246 150.207H5.95445V158.999H5.00246L5.00245 148.919H6.08045L11.9045 157.725H11.9325V148.919H12.8845V158.999H11.7785L5.98246 150.207Z" fill="black"/>
<path d="M15.526 155.989C15.5633 156.437 15.6613 156.82 15.82 157.137C15.988 157.445 16.198 157.697 16.45 157.893C16.7113 158.089 17.01 158.234 17.346 158.327C17.682 158.411 18.0413 158.453 18.424 158.453C18.872 158.453 19.2593 158.397 19.586 158.285C19.9126 158.173 20.1786 158.024 20.384 157.837C20.5893 157.641 20.7386 157.417 20.832 157.165C20.9346 156.913 20.986 156.647 20.986 156.367C20.986 155.975 20.8973 155.658 20.72 155.415C20.5426 155.173 20.3093 154.977 20.02 154.827C19.74 154.669 19.4133 154.543 19.04 154.449C18.676 154.356 18.298 154.267 17.906 154.183C17.5233 154.09 17.1453 153.983 16.772 153.861C16.408 153.74 16.0813 153.577 15.792 153.371C15.512 153.166 15.2833 152.905 15.106 152.587C14.9286 152.261 14.84 151.85 14.84 151.355C14.84 151.01 14.91 150.674 15.05 150.347C15.1993 150.021 15.414 149.731 15.694 149.479C15.9833 149.227 16.3426 149.027 16.772 148.877C17.2013 148.728 17.696 148.653 18.256 148.653C18.8253 148.653 19.32 148.733 19.74 148.891C20.1693 149.05 20.524 149.269 20.804 149.549C21.084 149.82 21.294 150.137 21.434 150.501C21.574 150.865 21.644 151.253 21.644 151.663H20.734C20.734 151.281 20.664 150.949 20.524 150.669C20.3933 150.389 20.2113 150.161 19.978 149.983C19.7446 149.806 19.4786 149.675 19.18 149.591C18.8813 149.507 18.5733 149.465 18.256 149.465C17.7706 149.465 17.36 149.535 17.024 149.675C16.6973 149.806 16.436 149.979 16.24 150.193C16.044 150.408 15.9086 150.646 15.834 150.907C15.7593 151.169 15.7453 151.43 15.792 151.691C15.848 152.018 15.9786 152.279 16.184 152.475C16.3893 152.671 16.6413 152.835 16.94 152.965C17.2386 153.087 17.5653 153.189 17.92 153.273C18.284 153.348 18.6526 153.432 19.026 153.525C19.3993 153.609 19.7586 153.712 20.104 153.833C20.4586 153.955 20.7713 154.118 21.042 154.323C21.3126 154.529 21.5273 154.795 21.686 155.121C21.854 155.439 21.938 155.84 21.938 156.325C21.938 157.259 21.616 157.982 20.972 158.495C20.328 159.009 19.4226 159.265 18.256 159.265C17.7333 159.265 17.248 159.195 16.8 159.055C16.352 158.925 15.9646 158.724 15.638 158.453C15.3113 158.173 15.0546 157.833 14.868 157.431C14.6906 157.021 14.602 156.54 14.602 155.989H15.526Z" fill="black"/>
<path d="M22.7826 148.919H30.1186V149.731H26.9266V158.999H25.9746V149.731H22.7826V148.919Z" fill="black"/>
<path d="M30.2073 158.999V157.767H31.2293V158.999H30.2073ZM30.2073 153.343V152.111H31.2293V153.343H30.2073Z" fill="black"/>
<path d="M33.7118 158.999L33.7118 148.919H40.2078V149.731H34.6638V153.371H39.7038V154.183H34.6638V158.999H33.7118Z" fill="black"/>
<path d="M41.925 158.999V148.919H42.877V158.999H41.925Z" fill="black"/>
<path d="M49.3915 153.609C49.7462 153.609 50.0729 153.572 50.3715 153.497C50.6795 153.423 50.9455 153.306 51.1695 153.147C51.3935 152.979 51.5709 152.769 51.7015 152.517C51.8322 152.265 51.8975 151.962 51.8975 151.607C51.8975 151.234 51.8275 150.926 51.6875 150.683C51.5569 150.441 51.3749 150.249 51.1415 150.109C50.9175 149.969 50.6562 149.871 50.3575 149.815C50.0682 149.759 49.7649 149.731 49.4475 149.731H46.4235V153.609H49.3915ZM46.4235 154.421V158.999H45.4715V148.919H49.4195C50.5302 148.919 51.3795 149.129 51.9675 149.549C52.5555 149.96 52.8495 150.632 52.8495 151.565C52.8495 152.2 52.7189 152.704 52.4575 153.077C52.2055 153.451 51.7902 153.768 51.2115 154.029C51.5102 154.132 51.7435 154.281 51.9115 154.477C52.0795 154.673 52.2055 154.897 52.2895 155.149C52.3735 155.401 52.4249 155.667 52.4435 155.947C52.4715 156.227 52.4902 156.498 52.4995 156.759C52.5089 157.142 52.5229 157.459 52.5415 157.711C52.5695 157.963 52.5975 158.169 52.6255 158.327C52.6629 158.486 52.7049 158.612 52.7515 158.705C52.7982 158.789 52.8542 158.855 52.9195 158.901V158.999H51.8695C51.7669 158.831 51.6922 158.598 51.6455 158.299C51.6082 158.001 51.5755 157.688 51.5475 157.361C51.5289 157.035 51.5102 156.717 51.4915 156.409C51.4822 156.101 51.4589 155.849 51.4215 155.653C51.3655 155.383 51.2722 155.168 51.1415 155.009C51.0202 154.841 50.8709 154.715 50.6935 154.631C50.5162 154.547 50.3155 154.491 50.0915 154.463C49.8769 154.435 49.6529 154.421 49.4195 154.421H46.4235Z" fill="black"/>
<path d="M54.8234 158.999V148.919H61.5294V149.731H55.7754V153.371H60.9694V154.183H55.7754V158.187H61.6694V158.999H54.8234Z" fill="black"/>
<path d="M69.248 160.049V160.749H62.248V160.049H69.248Z" fill="black"/>
<path d="M70.34 158.999V148.919H74.022C74.6754 148.919 75.212 148.994 75.632 149.143C76.0614 149.293 76.3973 149.498 76.64 149.759C76.892 150.021 77.0647 150.324 77.158 150.669C77.2607 151.005 77.312 151.36 77.312 151.733C77.312 152.293 77.1954 152.755 76.962 153.119C76.738 153.483 76.444 153.773 76.08 153.987C75.716 154.193 75.3007 154.337 74.834 154.421C74.3767 154.505 73.9147 154.547 73.448 154.547H71.292V158.999H70.34ZM73.476 153.735C73.924 153.735 74.3253 153.707 74.68 153.651C75.0347 153.595 75.3334 153.493 75.576 153.343C75.828 153.185 76.0194 152.975 76.15 152.713C76.29 152.443 76.36 152.093 76.36 151.663C76.36 151.029 76.15 150.548 75.73 150.221C75.3194 149.895 74.6614 149.731 73.756 149.731H71.292V153.735H73.476Z" fill="black"/>
<path d="M82.8466 153.609C83.2013 153.609 83.5279 153.572 83.8266 153.497C84.1346 153.423 84.4006 153.306 84.6246 153.147C84.8486 152.979 85.0259 152.769 85.1566 152.517C85.2873 152.265 85.3526 151.962 85.3526 151.607C85.3526 151.234 85.2826 150.926 85.1426 150.683C85.0119 150.441 84.8299 150.249 84.5966 150.109C84.3726 149.969 84.1113 149.871 83.8126 149.815C83.5233 149.759 83.2199 149.731 82.9026 149.731H79.8786V153.609H82.8466ZM79.8786 154.421V158.999H78.9266V148.919H82.8746C83.9853 148.919 84.8346 149.129 85.4226 149.549C86.0106 149.96 86.3046 150.632 86.3046 151.565C86.3046 152.2 86.1739 152.704 85.9126 153.077C85.6606 153.451 85.2453 153.768 84.6666 154.029C84.9653 154.132 85.1986 154.281 85.3666 154.477C85.5346 154.673 85.6606 154.897 85.7446 155.149C85.8286 155.401 85.8799 155.667 85.8986 155.947C85.9266 156.227 85.9453 156.498 85.9546 156.759C85.9639 157.142 85.9779 157.459 85.9966 157.711C86.0246 157.963 86.0526 158.169 86.0806 158.327C86.1179 158.486 86.1599 158.612 86.2066 158.705C86.2533 158.789 86.3093 158.855 86.3746 158.901V158.999H85.3246C85.2219 158.831 85.1473 158.598 85.1006 158.299C85.0633 158.001 85.0306 157.688 85.0026 157.361C84.9839 157.035 84.9653 156.717 84.9466 156.409C84.9373 156.101 84.9139 155.849 84.8766 155.653C84.8206 155.383 84.7273 155.168 84.5966 155.009C84.4753 154.841 84.3259 154.715 84.1486 154.631C83.9713 154.547 83.7706 154.491 83.5466 154.463C83.3319 154.435 83.1079 154.421 82.8746 154.421H79.8786Z" fill="black"/>
<path d="M88.2785 158.999V148.919H94.9845V149.731H89.2305V153.371H94.4245V154.183H89.2305V158.187H95.1245V158.999H88.2785Z" fill="black"/>
<path d="M97.2291 155.989C97.2664 156.437 97.3644 156.82 97.5231 157.137C97.6911 157.445 97.9011 157.697 98.1531 157.893C98.4144 158.089 98.7131 158.234 99.0491 158.327C99.3851 158.411 99.7444 158.453 100.127 158.453C100.575 158.453 100.962 158.397 101.289 158.285C101.616 158.173 101.882 158.024 102.087 157.837C102.292 157.641 102.442 157.417 102.535 157.165C102.638 156.913 102.689 156.647 102.689 156.367C102.689 155.975 102.6 155.658 102.423 155.415C102.246 155.173 102.012 154.977 101.723 154.827C101.443 154.669 101.116 154.543 100.743 154.449C100.379 154.356 100.001 154.267 99.6091 154.183C99.2264 154.09 98.8484 153.983 98.4751 153.861C98.1111 153.74 97.7844 153.577 97.4951 153.371C97.2151 153.166 96.9864 152.905 96.8091 152.587C96.6318 152.261 96.5431 151.85 96.5431 151.355C96.5431 151.01 96.6131 150.674 96.7531 150.347C96.9024 150.021 97.1171 149.731 97.3971 149.479C97.6864 149.227 98.0458 149.027 98.4751 148.877C98.9044 148.728 99.3991 148.653 99.9591 148.653C100.528 148.653 101.023 148.733 101.443 148.891C101.872 149.05 102.227 149.269 102.507 149.549C102.787 149.82 102.997 150.137 103.137 150.501C103.277 150.865 103.347 151.253 103.347 151.663H102.437C102.437 151.281 102.367 150.949 102.227 150.669C102.096 150.389 101.914 150.161 101.681 149.983C101.448 149.806 101.182 149.675 100.883 149.591C100.584 149.507 100.276 149.465 99.9591 149.465C99.4738 149.465 99.0631 149.535 98.7271 149.675C98.4004 149.806 98.1391 149.979 97.9431 150.193C97.7471 150.408 97.6118 150.646 97.5371 150.907C97.4624 151.169 97.4484 151.43 97.4951 151.691C97.5511 152.018 97.6818 152.279 97.8871 152.475C98.0924 152.671 98.3444 152.835 98.6431 152.965C98.9418 153.087 99.2684 153.189 99.6231 153.273C99.9871 153.348 100.356 153.432 100.729 153.525C101.102 153.609 101.462 153.712 101.807 153.833C102.162 153.955 102.474 154.118 102.745 154.323C103.016 154.529 103.23 154.795 103.389 155.121C103.557 155.439 103.641 155.84 103.641 156.325C103.641 157.259 103.319 157.982 102.675 158.495C102.031 159.009 101.126 159.265 99.9591 159.265C99.4364 159.265 98.9511 159.195 98.5031 159.055C98.0551 158.925 97.6678 158.724 97.3411 158.453C97.0144 158.173 96.7578 157.833 96.5711 157.431C96.3938 157.021 96.3051 156.54 96.3051 155.989H97.2291Z" fill="black"/>
<path d="M105.788 155.989C105.825 156.437 105.923 156.82 106.082 157.137C106.25 157.445 106.46 157.697 106.712 157.893C106.973 158.089 107.272 158.234 107.608 158.327C107.944 158.411 108.303 158.453 108.686 158.453C109.134 158.453 109.521 158.397 109.848 158.285C110.174 158.173 110.44 158.024 110.646 157.837C110.851 157.641 111 157.417 111.094 157.165C111.196 156.913 111.248 156.647 111.248 156.367C111.248 155.975 111.159 155.658 110.982 155.415C110.804 155.173 110.571 154.977 110.282 154.827C110.002 154.669 109.675 154.543 109.302 154.449C108.938 154.356 108.56 154.267 108.168 154.183C107.785 154.09 107.407 153.983 107.034 153.861C106.67 153.74 106.343 153.577 106.054 153.371C105.774 153.166 105.545 152.905 105.368 152.587C105.19 152.261 105.102 151.85 105.102 151.355C105.102 151.01 105.172 150.674 105.312 150.347C105.461 150.021 105.676 149.731 105.956 149.479C106.245 149.227 106.604 149.027 107.034 148.877C107.463 148.728 107.958 148.653 108.518 148.653C109.087 148.653 109.582 148.733 110.002 148.891C110.431 149.05 110.786 149.269 111.066 149.549C111.346 149.82 111.556 150.137 111.696 150.501C111.836 150.865 111.906 151.253 111.906 151.663H110.996C110.996 151.281 110.926 150.949 110.786 150.669C110.655 150.389 110.473 150.161 110.24 149.983C110.006 149.806 109.74 149.675 109.442 149.591C109.143 149.507 108.835 149.465 108.518 149.465C108.032 149.465 107.622 149.535 107.286 149.675C106.959 149.806 106.698 149.979 106.502 150.193C106.306 150.408 106.17 150.646 106.096 150.907C106.021 151.169 106.007 151.43 106.054 151.691C106.11 152.018 106.24 152.279 106.446 152.475C106.651 152.671 106.903 152.835 107.202 152.965C107.5 153.087 107.827 153.189 108.182 153.273C108.546 153.348 108.914 153.432 109.288 153.525C109.661 153.609 110.02 153.712 110.366 153.833C110.72 153.955 111.033 154.118 111.304 154.323C111.574 154.529 111.789 154.795 111.948 155.121C112.116 155.439 112.2 155.84 112.2 156.325C112.2 157.259 111.878 157.982 111.234 158.495C110.59 159.009 109.684 159.265 108.518 159.265C107.995 159.265 107.51 159.195 107.062 159.055C106.614 158.925 106.226 158.724 105.9 158.453C105.573 158.173 105.316 157.833 105.13 157.431C104.952 157.021 104.864 156.54 104.864 155.989H105.788Z" fill="black"/>
</svg>
