<svg width="104" height="12" viewBox="0 0 104 12" fill="none" xmlns="http://www.w3.org/2000/svg">
<path d="M0.363648 9.99958L0.363647 0.639578H1.24765L1.24765 9.99958H0.363648Z" fill="black"/>
<path d="M4.55381 1.83558H4.52781V9.99958H3.64381V0.639578H4.64481L10.0528 8.81658H10.0788V0.639578L10.9628 0.639578V9.99958H9.93581L4.55381 1.83558Z" fill="black"/>
<path d="M13.4156 7.20458C13.4503 7.62058 13.5413 7.97591 13.6886 8.27058C13.8446 8.55658 14.0396 8.79058 14.2736 8.97258C14.5163 9.15458 14.7936 9.28891 15.1056 9.37558C15.4176 9.45358 15.7513 9.49258 16.1066 9.49258C16.5226 9.49258 16.8823 9.44058 17.1856 9.33658C17.489 9.23258 17.736 9.09391 17.9266 8.92058C18.1173 8.73858 18.256 8.53058 18.3426 8.29658C18.438 8.06258 18.4856 7.81558 18.4856 7.55558C18.4856 7.19158 18.4033 6.89691 18.2386 6.67158C18.074 6.44625 17.8573 6.26425 17.5886 6.12558C17.3286 5.97824 17.0253 5.86124 16.6786 5.77458C16.3406 5.68791 15.9896 5.60558 15.6256 5.52758C15.2703 5.44091 14.9193 5.34124 14.5726 5.22858C14.2346 5.11591 13.9313 4.96424 13.6626 4.77358C13.4026 4.58291 13.1903 4.34024 13.0256 4.04558C12.861 3.74224 12.7786 3.36091 12.7786 2.90158C12.7786 2.58091 12.8436 2.26891 12.9736 1.96558C13.1123 1.66224 13.3116 1.39358 13.5716 1.15958C13.8403 0.925578 14.174 0.739245 14.5726 0.600578C14.9713 0.461911 15.4306 0.392578 15.9506 0.392578C16.4793 0.392578 16.9386 0.466245 17.3286 0.613578C17.7273 0.760911 18.0566 0.964578 18.3166 1.22458C18.5766 1.47591 18.7716 1.77058 18.9016 2.10858C19.0316 2.44658 19.0966 2.80624 19.0966 3.18758H18.2516C18.2516 2.83224 18.1866 2.52458 18.0566 2.26458C17.9353 2.00458 17.7663 1.79224 17.5496 1.62758C17.333 1.46291 17.086 1.34158 16.8086 1.26358C16.5313 1.18558 16.2453 1.14658 15.9506 1.14658C15.5 1.14658 15.1186 1.21158 14.8066 1.34158C14.5033 1.46291 14.2606 1.62324 14.0786 1.82258C13.8966 2.02191 13.771 2.24291 13.7016 2.48558C13.6323 2.72824 13.6193 2.97091 13.6626 3.21358C13.7146 3.51691 13.836 3.75958 14.0266 3.94158C14.2173 4.12358 14.4513 4.27524 14.7286 4.39658C15.006 4.50925 15.3093 4.60458 15.6386 4.68258C15.9766 4.75191 16.319 4.82991 16.6656 4.91658C17.0123 4.99458 17.346 5.08991 17.6666 5.20258C17.996 5.31524 18.2863 5.46691 18.5376 5.65758C18.789 5.84824 18.9883 6.09524 19.1356 6.39858C19.2916 6.69324 19.3696 7.06591 19.3696 7.51658C19.3696 8.38324 19.0706 9.05491 18.4726 9.53158C17.8746 10.0082 17.034 10.2466 15.9506 10.2466C15.4653 10.2466 15.0146 10.1816 14.5986 10.0516C14.1826 9.93025 13.823 9.74391 13.5196 9.49258C13.2163 9.23258 12.978 8.91624 12.8046 8.54358C12.64 8.16224 12.5576 7.71591 12.5576 7.20458H13.4156Z" fill="black"/>
<path d="M20.1539 0.639578L26.9659 0.639578V1.39358H24.0019V9.99958H23.1179V1.39358H20.1539V0.639578Z" fill="black"/>
<path d="M27.0483 9.99958V8.85558H27.9973V9.99958H27.0483ZM27.0483 4.74758V3.60358H27.9973V4.74758H27.0483Z" fill="black"/>
<path d="M30.3024 9.99958V0.639578L36.3344 0.639578V1.39358H31.1864V4.77358H35.8664V5.52758H31.1864V9.99958H30.3024Z" fill="black"/>
<path d="M37.9291 9.99958V0.639578H38.8131V9.99958H37.9291Z" fill="black"/>
<path d="M44.8622 4.99458C45.1916 4.99458 45.4949 4.95991 45.7722 4.89058C46.0582 4.82125 46.3052 4.71291 46.5132 4.56558C46.7212 4.40958 46.8859 4.21458 47.0072 3.98058C47.1286 3.74658 47.1892 3.46491 47.1892 3.13558C47.1892 2.78891 47.1242 2.50291 46.9942 2.27758C46.8729 2.05225 46.7039 1.87458 46.4872 1.74458C46.2792 1.61458 46.0366 1.52358 45.7592 1.47158C45.4906 1.41958 45.2089 1.39358 44.9142 1.39358H42.1062V4.99458H44.8622ZM42.1062 5.74858L42.1062 9.99958H41.2222V0.639578L44.8882 0.639578C45.9196 0.639578 46.7082 0.834578 47.2542 1.22458C47.8002 1.60591 48.0732 2.22991 48.0732 3.09658C48.0732 3.68591 47.9519 4.15391 47.7092 4.50058C47.4752 4.84725 47.0896 5.14191 46.5522 5.38458C46.8296 5.47991 47.0462 5.61858 47.2022 5.80058C47.3582 5.98258 47.4752 6.19058 47.5532 6.42458C47.6312 6.65858 47.6789 6.90558 47.6962 7.16558C47.7222 7.42558 47.7396 7.67691 47.7482 7.91958C47.7569 8.27491 47.7699 8.56958 47.7872 8.80358C47.8132 9.03758 47.8392 9.22825 47.8652 9.37558C47.8999 9.52291 47.9389 9.63991 47.9822 9.72658C48.0256 9.80458 48.0776 9.86525 48.1382 9.90858V9.99958H47.1632C47.0679 9.84358 46.9986 9.62691 46.9552 9.34958C46.9206 9.07225 46.8902 8.78191 46.8642 8.47858C46.8469 8.17525 46.8296 7.88058 46.8122 7.59458C46.8036 7.30858 46.7819 7.07458 46.7472 6.89258C46.6952 6.64125 46.6086 6.44191 46.4872 6.29458C46.3746 6.13858 46.2359 6.02158 46.0712 5.94358C45.9066 5.86558 45.7202 5.81358 45.5122 5.78758C45.3129 5.76158 45.1049 5.74858 44.8882 5.74858H42.1062Z" fill="black"/>
<path d="M49.9061 9.99958V0.639578L56.1331 0.639578V1.39358L50.7901 1.39358V4.77358H55.6131V5.52758H50.7901V9.24558H56.2631V9.99958H49.9061Z" fill="black"/>
<path d="M63.3004 10.9746V11.6246H56.8004V10.9746H63.3004Z" fill="black"/>
<path d="M64.3144 9.99958V0.639579L67.7334 0.639579C68.3401 0.639579 68.8384 0.708912 69.2284 0.847578C69.6271 0.986245 69.9391 1.17691 70.1644 1.41958C70.3984 1.66225 70.5587 1.94391 70.6454 2.26458C70.7407 2.57658 70.7884 2.90591 70.7884 3.25258C70.7884 3.77258 70.6801 4.20158 70.4634 4.53958C70.2554 4.87758 69.9824 5.14625 69.6444 5.34558C69.3064 5.53625 68.9207 5.67058 68.4874 5.74858C68.0627 5.82658 67.6337 5.86558 67.2004 5.86558H65.1984V9.99958H64.3144ZM67.2264 5.11158C67.6424 5.11158 68.0151 5.08558 68.3444 5.03358C68.6737 4.98158 68.9511 4.88625 69.1764 4.74758C69.4104 4.60025 69.5881 4.40525 69.7094 4.16258C69.8394 3.91125 69.9044 3.58625 69.9044 3.18758C69.9044 2.59825 69.7094 2.15191 69.3194 1.84858C68.9381 1.54524 68.3271 1.39358 67.4864 1.39358H65.1984V5.11158L67.2264 5.11158Z" fill="black"/>
<path d="M75.9277 4.99458C76.257 4.99458 76.5603 4.95991 76.8377 4.89058C77.1237 4.82125 77.3707 4.71291 77.5787 4.56558C77.7867 4.40958 77.9513 4.21458 78.0727 3.98058C78.194 3.74658 78.2547 3.46491 78.2547 3.13558C78.2547 2.78891 78.1897 2.50291 78.0597 2.27758C77.9383 2.05225 77.7693 1.87458 77.5527 1.74458C77.3447 1.61458 77.102 1.52358 76.8247 1.47158C76.556 1.41958 76.2743 1.39358 75.9797 1.39358H73.1717V4.99458H75.9277ZM73.1717 5.74858V9.99958H72.2877V0.639579L75.9537 0.639579C76.985 0.639579 77.7737 0.834579 78.3197 1.22458C78.8657 1.60591 79.1387 2.22991 79.1387 3.09658C79.1387 3.68591 79.0173 4.15391 78.7747 4.50058C78.5407 4.84725 78.155 5.14191 77.6177 5.38458C77.895 5.47991 78.1117 5.61858 78.2677 5.80058C78.4237 5.98258 78.5407 6.19058 78.6187 6.42458C78.6967 6.65858 78.7443 6.90558 78.7617 7.16558C78.7877 7.42558 78.805 7.67691 78.8137 7.91958C78.8223 8.27491 78.8353 8.56958 78.8527 8.80358C78.8787 9.03758 78.9047 9.22825 78.9307 9.37558C78.9653 9.52291 79.0043 9.63991 79.0477 9.72658C79.091 9.80458 79.143 9.86525 79.2037 9.90858V9.99958H78.2287C78.1333 9.84358 78.064 9.62691 78.0207 9.34958C77.986 9.07225 77.9557 8.78191 77.9297 8.47858C77.9123 8.17525 77.895 7.88058 77.8777 7.59458C77.869 7.30858 77.8473 7.07458 77.8127 6.89258C77.7607 6.64125 77.674 6.44191 77.5527 6.29458C77.44 6.13858 77.3013 6.02158 77.1367 5.94358C76.972 5.86558 76.7857 5.81358 76.5777 5.78758C76.3783 5.76158 76.1703 5.74858 75.9537 5.74858H73.1717Z" fill="black"/>
<path d="M80.9716 9.99958V0.639579L87.1986 0.639579V1.39358H81.8556V4.77358H86.6786V5.52758H81.8556V9.24558H87.3286V9.99958H80.9716Z" fill="black"/>
<path d="M89.2828 7.20458C89.3175 7.62058 89.4085 7.97591 89.5558 8.27058C89.7118 8.55658 89.9068 8.79058 90.1408 8.97258C90.3835 9.15458 90.6608 9.28891 90.9728 9.37558C91.2848 9.45358 91.6185 9.49258 91.9738 9.49258C92.3898 9.49258 92.7495 9.44058 93.0528 9.33658C93.3562 9.23258 93.6032 9.09391 93.7938 8.92058C93.9845 8.73858 94.1232 8.53058 94.2098 8.29658C94.3052 8.06258 94.3528 7.81558 94.3528 7.55558C94.3528 7.19158 94.2705 6.89691 94.1058 6.67158C93.9412 6.44625 93.7245 6.26425 93.4558 6.12558C93.1958 5.97825 92.8925 5.86125 92.5458 5.77458C92.2078 5.68791 91.8568 5.60558 91.4928 5.52758C91.1375 5.44091 90.7865 5.34125 90.4398 5.22858C90.1018 5.11591 89.7985 4.96425 89.5298 4.77358C89.2698 4.58291 89.0575 4.34025 88.8928 4.04558C88.7282 3.74225 88.6458 3.36091 88.6458 2.90158C88.6458 2.58091 88.7108 2.26891 88.8408 1.96558C88.9795 1.66225 89.1788 1.39358 89.4388 1.15958C89.7075 0.925579 90.0412 0.739245 90.4398 0.600579C90.8385 0.461912 91.2978 0.392579 91.8178 0.392579C92.3465 0.392579 92.8058 0.466245 93.1958 0.613578C93.5945 0.760912 93.9238 0.964579 94.1838 1.22458C94.4438 1.47591 94.6388 1.77058 94.7688 2.10858C94.8988 2.44658 94.9638 2.80625 94.9638 3.18758L94.1188 3.18758C94.1188 2.83225 94.0538 2.52458 93.9238 2.26458C93.8025 2.00458 93.6335 1.79225 93.4168 1.62758C93.2002 1.46291 92.9532 1.34158 92.6758 1.26358C92.3985 1.18558 92.1125 1.14658 91.8178 1.14658C91.3672 1.14658 90.9858 1.21158 90.6738 1.34158C90.3705 1.46291 90.1278 1.62325 89.9458 1.82258C89.7638 2.02191 89.6382 2.24291 89.5688 2.48558C89.4995 2.72825 89.4865 2.97091 89.5298 3.21358C89.5818 3.51691 89.7032 3.75958 89.8938 3.94158C90.0845 4.12358 90.3185 4.27525 90.5958 4.39658C90.8732 4.50925 91.1765 4.60458 91.5058 4.68258C91.8438 4.75191 92.1862 4.82991 92.5328 4.91658C92.8795 4.99458 93.2132 5.08991 93.5338 5.20258C93.8632 5.31525 94.1535 5.46691 94.4048 5.65758C94.6562 5.84825 94.8555 6.09525 95.0028 6.39858C95.1588 6.69325 95.2368 7.06591 95.2368 7.51658C95.2368 8.38325 94.9378 9.05491 94.3398 9.53158C93.7418 10.0082 92.9012 10.2466 91.8178 10.2466C91.3325 10.2466 90.8818 10.1816 90.4658 10.0516C90.0498 9.93025 89.6902 9.74391 89.3868 9.49258C89.0835 9.23258 88.8452 8.91625 88.6718 8.54358C88.5072 8.16225 88.4248 7.71591 88.4248 7.20458H89.2828Z" fill="black"/>
<path d="M97.2301 7.20458C97.2648 7.62058 97.3558 7.97591 97.5031 8.27058C97.6591 8.55658 97.8541 8.79058 98.0881 8.97258C98.3308 9.15458 98.6081 9.28891 98.9201 9.37558C99.2321 9.45358 99.5658 9.49258 99.9211 9.49258C100.337 9.49258 100.697 9.44058 101 9.33658C101.303 9.23258 101.55 9.09391 101.741 8.92058C101.932 8.73858 102.07 8.53058 102.157 8.29658C102.252 8.06258 102.3 7.81558 102.3 7.55558C102.3 7.19158 102.218 6.89691 102.053 6.67158C101.888 6.44625 101.672 6.26425 101.403 6.12558C101.143 5.97825 100.84 5.86125 100.493 5.77458C100.155 5.68791 99.8041 5.60558 99.4401 5.52758C99.0848 5.44091 98.7338 5.34125 98.3871 5.22858C98.0491 5.11591 97.7458 4.96425 97.4771 4.77358C97.2171 4.58291 97.0048 4.34025 96.8401 4.04558C96.6754 3.74225 96.5931 3.36091 96.5931 2.90158C96.5931 2.58091 96.6581 2.26891 96.7881 1.96558C96.9268 1.66225 97.1261 1.39358 97.3861 1.15958C97.6548 0.925579 97.9884 0.739246 98.3871 0.600579C98.7858 0.461912 99.2451 0.392579 99.7651 0.392579C100.294 0.392579 100.753 0.466245 101.143 0.613578C101.542 0.760912 101.871 0.964579 102.131 1.22458C102.391 1.47591 102.586 1.77058 102.716 2.10858C102.846 2.44658 102.911 2.80625 102.911 3.18758H102.066C102.066 2.83225 102.001 2.52458 101.871 2.26458C101.75 2.00458 101.581 1.79225 101.364 1.62758C101.147 1.46291 100.9 1.34158 100.623 1.26358C100.346 1.18558 100.06 1.14658 99.7651 1.14658C99.3144 1.14658 98.9331 1.21158 98.6211 1.34158C98.3178 1.46291 98.0751 1.62325 97.8931 1.82258C97.7111 2.02191 97.5854 2.24291 97.5161 2.48558C97.4468 2.72825 97.4338 2.97091 97.4771 3.21358C97.5291 3.51691 97.6504 3.75958 97.8411 3.94158C98.0318 4.12358 98.2658 4.27525 98.5431 4.39658C98.8204 4.50925 99.1238 4.60458 99.4531 4.68258C99.7911 4.75191 100.133 4.82991 100.48 4.91658C100.827 4.99458 101.16 5.08991 101.481 5.20258C101.81 5.31525 102.101 5.46691 102.352 5.65758C102.603 5.84825 102.803 6.09525 102.95 6.39858C103.106 6.69325 103.184 7.06591 103.184 7.51658C103.184 8.38325 102.885 9.05491 102.287 9.53158C101.689 10.0082 100.848 10.2466 99.7651 10.2466C99.2798 10.2466 98.8291 10.1816 98.4131 10.0516C97.9971 9.93025 97.6374 9.74391 97.3341 9.49258C97.0308 9.23258 96.7924 8.91625 96.6191 8.54358C96.4544 8.16225 96.3721 7.71591 96.3721 7.20458H97.2301Z" fill="black"/>
</svg>
