<svg width="149" height="112" viewBox="0 0 149 112" fill="none" xmlns="http://www.w3.org/2000/svg">
<path d="M1.78011 1.00394L6.21811 1.00394C6.66611 1.00394 7.07211 1.06928 7.43611 1.19994C7.80011 1.32128 8.11278 1.50794 8.37411 1.75994C8.63544 2.00261 8.83611 2.30128 8.97611 2.65594C9.11611 3.01061 9.18611 3.41194 9.18611 3.85994C9.18611 4.30794 9.11611 4.70928 8.97611 5.06394C8.83611 5.41861 8.63544 5.72194 8.37411 5.97394C8.11278 6.21661 7.80011 6.40328 7.43611 6.53394C7.07211 6.65528 6.66611 6.71594 6.21811 6.71594H2.73211V10.9999H1.78011L1.78011 1.00394ZM6.00811 5.90394C6.67078 5.90394 7.20744 5.73594 7.61811 5.39994C8.02878 5.06394 8.23411 4.55061 8.23411 3.85994C8.23411 3.16928 8.02878 2.65594 7.61811 2.31994C7.20744 1.98394 6.67078 1.81594 6.00811 1.81594H2.73211V5.90394H6.00811Z" fill="black"/>
<path d="M11.5225 11.1119C11.2985 11.1119 11.0931 11.0979 10.9065 11.0699C10.7291 11.0419 10.5891 11.0093 10.4865 10.9719V10.1319C10.6078 10.1786 10.7525 10.2206 10.9205 10.2579C11.0885 10.2859 11.2845 10.2999 11.5085 10.2999C11.8631 10.2999 12.1571 10.1879 12.3905 9.96394C12.6331 9.73994 12.8665 9.38994 13.0905 8.91394L13.2165 8.64794L9.50647 1.00394H10.5285L13.7765 7.63994L16.9405 1.00394H17.9485L14.0145 9.15194C13.8091 9.58128 13.6085 9.92661 13.4125 10.1879C13.2165 10.4399 13.0158 10.6359 12.8105 10.7759C12.6145 10.9159 12.4091 11.0046 12.1945 11.0419C11.9891 11.0886 11.7651 11.1119 11.5225 11.1119Z" fill="black"/>
<path d="M18.8289 1.00394L19.7809 1.00394V6.37994L25.5909 1.00394L26.8789 1.00394L22.4129 5.13394L27.0889 10.9999H25.8569L21.6989 5.79194L19.7809 7.56994L19.7809 10.9999H18.8289V1.00394Z" fill="black"/>
<path d="M30.8331 1.00394L31.8971 1.00394L35.8171 10.9999H34.7951L33.5771 7.89194H29.0271L27.8231 10.9999H26.8151L30.8331 1.00394ZM33.2551 7.07994L31.3231 1.95594L29.3211 7.07994H33.2551Z" fill="black"/>
<path d="M40.6219 1.00394L48.3219 1.00394V10.9999H47.3699V1.81594L41.5739 1.81594V10.9999H40.6219V1.00394Z" fill="black"/>
<path d="M50.3426 1.00394L54.7806 1.00394C55.2286 1.00394 55.6346 1.06928 55.9986 1.19994C56.3626 1.32128 56.6753 1.50794 56.9366 1.75994C57.1979 2.00261 57.3986 2.30128 57.5386 2.65594C57.6786 3.01061 57.7486 3.41194 57.7486 3.85994C57.7486 4.30794 57.6786 4.70928 57.5386 5.06394C57.3986 5.41861 57.1979 5.72194 56.9366 5.97394C56.6753 6.21661 56.3626 6.40328 55.9986 6.53395C55.6346 6.65528 55.2286 6.71594 54.7806 6.71594H51.2946V10.9999H50.3426V1.00394ZM54.5706 5.90394C55.2333 5.90394 55.7699 5.73594 56.1806 5.39994C56.5913 5.06394 56.7966 4.55061 56.7966 3.85994C56.7966 3.16928 56.5913 2.65594 56.1806 2.31994C55.7699 1.98394 55.2333 1.81594 54.5706 1.81594H51.2946V5.90394H54.5706Z" fill="black"/>
<path d="M59.161 1.00394L66.063 1.00394V1.81594H60.113V5.42794H65.685V6.23994H60.113V10.1879H66.133V10.9999H59.161V1.00394Z" fill="black"/>
<path d="M67.4598 1.00394L71.6878 1.00394C72.1078 1.00394 72.5091 1.04594 72.8918 1.12994C73.2838 1.20461 73.6245 1.33994 73.9138 1.53594C74.2125 1.72261 74.4505 1.97461 74.6278 2.29194C74.8051 2.59994 74.8938 2.98728 74.8938 3.45394C74.8938 3.71528 74.8518 3.97194 74.7678 4.22394C74.6838 4.46661 74.5625 4.69061 74.4038 4.89595C74.2545 5.09195 74.0725 5.25995 73.8578 5.39995C73.6525 5.53995 73.4191 5.63794 73.1578 5.69394V5.72195C73.8018 5.80595 74.3151 6.07194 74.6978 6.51994C75.0805 6.95861 75.2718 7.50461 75.2718 8.15795C75.2718 8.40061 75.2345 8.68528 75.1598 9.01194C75.0945 9.32928 74.9405 9.63728 74.6978 9.93595C74.4551 10.2346 74.0958 10.4866 73.6198 10.6919C73.1438 10.8973 72.4998 10.9999 71.6878 10.9999H67.4598V1.00394ZM71.6878 10.1879C72.0425 10.1879 72.3785 10.1599 72.6958 10.1039C73.0131 10.0386 73.2931 9.92661 73.5358 9.76795C73.7785 9.60928 73.9698 9.39928 74.1098 9.13795C74.2498 8.87661 74.3198 8.54061 74.3198 8.12994C74.3198 7.48594 74.0911 7.00528 73.6338 6.68794C73.1858 6.36128 72.5371 6.19794 71.6878 6.19794H68.4118V10.1879H71.6878ZM71.6878 5.38594C72.0611 5.38594 72.3878 5.34394 72.6678 5.25994C72.9571 5.16661 73.1951 5.04528 73.3818 4.89595C73.5685 4.73728 73.7085 4.55528 73.8018 4.34994C73.8951 4.14461 73.9418 3.92528 73.9418 3.69194C73.9418 2.44128 73.1905 1.81594 71.6878 1.81594L68.4118 1.81594V5.38594H71.6878Z" fill="black"/>
<path d="M76.7977 1.00394L81.2357 1.00394C81.6837 1.00394 82.0897 1.06928 82.4537 1.19994C82.8177 1.32128 83.1304 1.50794 83.3917 1.75994C83.653 2.00261 83.8537 2.30128 83.9937 2.65595C84.1337 3.01061 84.2037 3.41194 84.2037 3.85994C84.2037 4.30794 84.1337 4.70928 83.9937 5.06394C83.8537 5.41861 83.653 5.72194 83.3917 5.97394C83.1304 6.21661 82.8177 6.40328 82.4537 6.53395C82.0897 6.65528 81.6837 6.71594 81.2357 6.71594H77.7497V10.9999H76.7977V1.00394ZM81.0257 5.90394C81.6884 5.90394 82.225 5.73595 82.6357 5.39995C83.0464 5.06395 83.2517 4.55061 83.2517 3.85994C83.2517 3.16928 83.0464 2.65594 82.6357 2.31995C82.225 1.98395 81.6884 1.81595 81.0257 1.81595L77.7497 1.81594V5.90394H81.0257Z" fill="black"/>
<path d="M88.542 1.00394L89.606 1.00394L93.526 10.9999H92.5041L91.286 7.89194H86.736L85.5321 10.9999H84.524L88.542 1.00394ZM90.9641 7.07995L89.0321 1.95594L87.03 7.07995H90.9641Z" fill="black"/>
<path d="M96.8424 1.81595H93.3704V1.00394L101.28 1.00394V1.81595H97.7944V10.9999H96.8424V1.81595Z" fill="black"/>
<path d="M102.214 1.00394L103.166 1.00394V9.97795L108.906 1.00394H110.138V10.9999H109.186V2.02595L103.446 10.9999H102.214V1.00394Z" fill="black"/>
<path d="M111.901 11.0839C111.845 11.0839 111.775 11.0793 111.691 11.0699C111.616 11.0606 111.537 11.0513 111.453 11.0419C111.369 11.0326 111.294 11.0186 111.229 10.9999C111.164 10.9906 111.117 10.9813 111.089 10.9719V10.1599C111.164 10.1973 111.276 10.2253 111.425 10.2439C111.584 10.2533 111.7 10.2579 111.775 10.2579C111.878 10.2579 111.999 10.2486 112.139 10.2299C112.279 10.2019 112.424 10.1179 112.573 9.97795C112.732 9.82861 112.886 9.59995 113.035 9.29195C113.194 8.97461 113.329 8.52661 113.441 7.94795C113.562 7.35995 113.66 6.61795 113.735 5.72195C113.81 4.82595 113.847 3.72461 113.847 2.41795V1.00394L119.993 1.00394V10.9999H119.041V1.81595L114.771 1.81595V2.36194C114.771 3.81795 114.724 5.04528 114.631 6.04395C114.538 7.03328 114.412 7.85461 114.253 8.50795C114.094 9.15195 113.912 9.65128 113.707 10.0059C113.511 10.3513 113.306 10.6033 113.091 10.7619C112.886 10.9206 112.676 11.0139 112.461 11.0419C112.256 11.0699 112.069 11.0839 111.901 11.0839Z" fill="black"/>
<path d="M124.937 1.00395L126.001 1.00395L129.921 10.9999H128.899L127.681 7.89195H123.131L121.927 10.9999H120.919L124.937 1.00395ZM127.359 7.07995L125.427 1.95595L123.425 7.07995H127.359Z" fill="black"/>
<path d="M135.071 11.1959C134.287 11.1959 133.596 11.0559 132.999 10.7759C132.411 10.4866 131.921 10.1039 131.529 9.62795C131.137 9.15195 130.843 8.60128 130.647 7.97595C130.451 7.35061 130.353 6.69261 130.353 6.00195C130.353 5.32061 130.451 4.66728 130.647 4.04195C130.843 3.40728 131.137 2.85195 131.529 2.37594C131.921 1.89061 132.411 1.50795 132.999 1.22795C133.596 0.938612 134.287 0.793945 135.071 0.793945C135.547 0.793945 136.009 0.863945 136.457 1.00395C136.914 1.14394 137.325 1.35395 137.689 1.63395C138.062 1.90461 138.37 2.24061 138.613 2.64195C138.865 3.04328 139.024 3.50528 139.089 4.02795H138.137C138.053 3.64528 137.913 3.30461 137.717 3.00595C137.53 2.69795 137.297 2.44128 137.017 2.23595C136.746 2.03061 136.443 1.87661 136.107 1.77395C135.78 1.66195 135.435 1.60595 135.071 1.60595C134.408 1.60595 133.839 1.73195 133.363 1.98395C132.887 2.23595 132.495 2.57195 132.187 2.99195C131.888 3.40261 131.664 3.87395 131.515 4.40595C131.375 4.92861 131.305 5.46061 131.305 6.00195C131.305 6.55261 131.375 7.08928 131.515 7.61195C131.664 8.13461 131.888 8.60595 132.187 9.02595C132.495 9.43661 132.887 9.76795 133.363 10.0199C133.839 10.2719 134.408 10.3979 135.071 10.3979C135.528 10.3979 135.944 10.3139 136.317 10.1459C136.7 9.97795 137.026 9.74928 137.297 9.45995C137.568 9.17061 137.787 8.83461 137.955 8.45195C138.123 8.05995 138.23 7.63995 138.277 7.19195H139.229C139.164 7.80795 139.019 8.36328 138.795 8.85795C138.571 9.35261 138.282 9.77261 137.927 10.1179C137.572 10.4633 137.152 10.7293 136.667 10.9159C136.191 11.1026 135.659 11.1959 135.071 11.1959Z" fill="black"/>
<path d="M140.686 1.00395H141.638V5.23195H145.124C146.058 5.23195 146.786 5.48861 147.308 6.00195C147.831 6.51528 148.092 7.21995 148.092 8.11595C148.092 9.01195 147.831 9.71661 147.308 10.2299C146.786 10.7433 146.058 10.9999 145.124 10.9999H140.686V1.00395ZM144.914 10.1879C145.614 10.1879 146.16 10.0059 146.552 9.64195C146.944 9.26861 147.14 8.75995 147.14 8.11595C147.14 7.47195 146.944 6.96795 146.552 6.60395C146.16 6.23061 145.614 6.04395 144.914 6.04395H141.638V10.1879H144.914Z" fill="black"/>
<path d="M1.78011 21.0039H6.00811C6.42811 21.0039 6.82944 21.0459 7.21211 21.1299C7.60411 21.2046 7.94478 21.3399 8.23411 21.5359C8.53278 21.7226 8.77078 21.9746 8.94811 22.2919C9.12544 22.5999 9.21411 22.9873 9.21411 23.4539C9.21411 23.7153 9.17211 23.9719 9.08811 24.2239C9.00411 24.4666 8.88278 24.6906 8.72411 24.8959C8.57478 25.0919 8.39278 25.2599 8.17811 25.3999C7.97278 25.5399 7.73944 25.6379 7.47811 25.6939V25.7219C8.12211 25.8059 8.63544 26.0719 9.01811 26.5199C9.40078 26.9586 9.59211 27.5046 9.59211 28.1579C9.59211 28.4006 9.55478 28.6853 9.48011 29.0119C9.41478 29.3293 9.26078 29.6373 9.01811 29.9359C8.77544 30.2346 8.41611 30.4866 7.94011 30.6919C7.46411 30.8973 6.82011 30.9999 6.00811 30.9999H1.78011L1.78011 21.0039ZM6.00811 30.1879C6.36278 30.1879 6.69878 30.1599 7.01611 30.1039C7.33344 30.0386 7.61344 29.9266 7.85611 29.7679C8.09878 29.6093 8.29011 29.3993 8.43011 29.1379C8.57011 28.8766 8.64011 28.5406 8.64011 28.1299C8.64011 27.4859 8.41144 27.0053 7.95411 26.6879C7.50611 26.3613 6.85744 26.1979 6.00811 26.1979H2.73211L2.73211 30.1879H6.00811ZM6.00811 25.3859C6.38144 25.3859 6.70811 25.3439 6.98811 25.2599C7.27744 25.1666 7.51544 25.0453 7.70211 24.8959C7.88878 24.7373 8.02878 24.5553 8.12211 24.3499C8.21544 24.1446 8.26211 23.9253 8.26211 23.6919C8.26211 22.4413 7.51078 21.8159 6.00811 21.8159H2.73211V25.3859H6.00811Z" fill="black"/>
<path d="M14.7625 31.0839C14.7065 31.0839 14.6365 31.0793 14.5525 31.0699C14.4778 31.0606 14.3985 31.0513 14.3145 31.0419C14.2305 31.0326 14.1558 31.0186 14.0905 30.9999C14.0252 30.9906 13.9785 30.9813 13.9505 30.9719V30.1599C14.0252 30.1973 14.1372 30.2253 14.2865 30.2439C14.4452 30.2533 14.5618 30.2579 14.6365 30.2579C14.7392 30.2579 14.8605 30.2486 15.0005 30.2299C15.1405 30.2019 15.2852 30.1179 15.4345 29.9779C15.5932 29.8286 15.7472 29.5999 15.8965 29.2919C16.0552 28.9746 16.1905 28.5266 16.3025 27.9479C16.4238 27.3599 16.5218 26.6179 16.5965 25.7219C16.6712 24.8259 16.7085 23.7246 16.7085 22.4179V21.0039H22.8545L22.8545 30.9999H21.9025V21.8159H17.6325V22.3619C17.6325 23.8179 17.5858 25.0453 17.4925 26.0439C17.3992 27.0333 17.2732 27.8546 17.1145 28.5079C16.9558 29.1519 16.7738 29.6513 16.5685 30.0059C16.3725 30.3513 16.1672 30.6033 15.9525 30.7619C15.7472 30.9206 15.5372 31.0139 15.3225 31.0419C15.1172 31.0699 14.9305 31.0839 14.7625 31.0839Z" fill="black"/>
<path d="M27.7979 21.0039H28.8619L32.7819 30.9999H31.7599L30.5419 27.8919H25.9919L24.7879 30.9999H23.7799L27.7979 21.0039ZM30.2199 27.0799L28.2879 21.9559L26.2859 27.0799H30.2199Z" fill="black"/>
<path d="M33.6903 21.0039H41.3903V30.9999H40.4383V21.8159H34.6423V30.9999H33.6903V21.0039Z" fill="black"/>
<path d="M43.411 21.0039H44.363V30.1879H49.095V21.0039H50.047V30.1879H54.779V21.0039H55.731V30.9999H43.411V21.0039Z" fill="black"/>
<path d="M58.6768 31.1119C58.4528 31.1119 58.2474 31.0979 58.0608 31.0699C57.8834 31.0419 57.7434 31.0093 57.6408 30.9719V30.1319C57.7621 30.1786 57.9068 30.2206 58.0748 30.2579C58.2428 30.2859 58.4388 30.2999 58.6628 30.2999C59.0174 30.2999 59.3114 30.1879 59.5448 29.9639C59.7874 29.7399 60.0208 29.3899 60.2448 28.9139L60.3708 28.6479L56.6608 21.0039H57.6828L60.9308 27.6399L64.0948 21.0039H65.1028L61.1688 29.1519C60.9634 29.5813 60.7628 29.9266 60.5668 30.1879C60.3708 30.4399 60.1701 30.6359 59.9648 30.7759C59.7688 30.9159 59.5634 31.0046 59.3488 31.0419C59.1434 31.0886 58.9194 31.1119 58.6768 31.1119Z" fill="black"/>
<path d="M66.7952 24.0559V20.9199H67.8172V24.0559L67.6212 28.4659H66.9912L66.7952 24.0559ZM66.7952 30.9999V29.7679H67.8172V30.9999H66.7952Z" fill="black"/>
<path d="M71.4573 24.0559V20.9199H72.4793V24.0559L72.2833 28.4659H71.6533L71.4573 24.0559ZM71.4573 30.9999V29.7679H72.4793V30.9999H71.4573Z" fill="black"/>
<path d="M76.1195 24.0559V20.9199H77.1415V24.0559L76.9455 28.4659H76.3155L76.1195 24.0559ZM76.1195 30.9999V29.7679H77.1415V30.9999H76.1195Z" fill="black"/>
<path d="M86.288 25.8479L82.9 21.0039H84.0201L86.848 25.1899L89.774 21.0039H90.8381L87.4221 25.8759L91.034 30.9999H89.886L86.848 26.5899L83.7681 30.9999H82.704L86.288 25.8479Z" fill="black"/>
<path d="M96.0911 31.1959C95.3071 31.1959 94.6164 31.0559 94.0191 30.7759C93.4311 30.4866 92.9411 30.1039 92.5491 29.6279C92.1571 29.1519 91.8631 28.6013 91.6671 27.9759C91.4711 27.3506 91.3731 26.6926 91.3731 26.0019C91.3731 25.3206 91.4711 24.6673 91.6671 24.0419C91.8631 23.4073 92.1571 22.8519 92.5491 22.3759C92.9411 21.8906 93.4311 21.5079 94.0191 21.2279C94.6164 20.9386 95.3071 20.7939 96.0911 20.7939C96.8751 20.7939 97.5611 20.9386 98.1491 21.2279C98.7371 21.5079 99.2271 21.8906 99.6191 22.3759C100.011 22.8519 100.305 23.4073 100.501 24.0419C100.697 24.6673 100.795 25.3206 100.795 26.0019C100.795 26.6926 100.697 27.3506 100.501 27.9759C100.305 28.6013 100.011 29.1519 99.6191 29.6279C99.2271 30.1039 98.7371 30.4866 98.1491 30.7759C97.5611 31.0559 96.8751 31.1959 96.0911 31.1959ZM96.0911 30.3979C96.7444 30.3979 97.3091 30.2719 97.7851 30.0199C98.2611 29.7679 98.6484 29.4366 98.9471 29.0259C99.2551 28.6059 99.4791 28.1346 99.6191 27.6119C99.7684 27.0893 99.8431 26.5526 99.8431 26.0019C99.8431 25.4606 99.7684 24.9286 99.6191 24.4059C99.4791 23.8739 99.2551 23.4026 98.9471 22.9919C98.6484 22.5719 98.2611 22.2359 97.7851 21.9839C97.3091 21.7319 96.7444 21.6059 96.0911 21.6059C95.4284 21.6059 94.8591 21.7319 94.3831 21.9839C93.9071 22.2359 93.5151 22.5719 93.2071 22.9919C92.9084 23.4026 92.6844 23.8739 92.5351 24.4059C92.3951 24.9286 92.3251 25.4606 92.3251 26.0019C92.3251 26.5526 92.3951 27.0893 92.5351 27.6119C92.6844 28.1346 92.9084 28.6059 93.2071 29.0259C93.5151 29.4366 93.9071 29.7679 94.3831 30.0199C94.8591 30.2719 95.4284 30.3979 96.0911 30.3979Z" fill="black"/>
<path d="M104.69 21.8159H101.218V21.0039H109.128V21.8159H105.642V30.9999H104.69V21.8159Z" fill="black"/>
<path d="M110.061 21.0039H111.013V29.9779L116.753 21.0039H117.985V30.9999H117.033V22.0259L111.293 30.9999H110.061V21.0039Z" fill="black"/>
<path d="M122.409 21.8159H118.937V21.0039H126.847V21.8159H123.361V30.9999L122.409 30.9999V21.8159Z" fill="black"/>
<path d="M127.78 21.0039H134.682V21.8159H128.732V25.4279H134.304V26.2399H128.732V30.1879H134.752V30.9999H127.78V21.0039Z" fill="black"/>
<path d="M7.63211 46.4499C7.49211 46.4873 7.29611 46.5293 7.04411 46.5759C6.79211 46.6226 6.51678 46.6693 6.21811 46.7159C5.92878 46.7533 5.63478 46.7906 5.33611 46.8279C5.04678 46.8559 4.79011 46.8699 4.56611 46.8699C3.84744 46.8699 3.27344 46.7859 2.84411 46.6179C2.42411 46.4406 2.10211 46.2166 1.87811 45.9459C1.65411 45.6659 1.50944 45.3579 1.44411 45.0219C1.37878 44.6766 1.34611 44.3359 1.34611 43.9999L1.34611 41.0039H2.29811L2.29811 43.9439C2.29811 44.1493 2.31678 44.3733 2.35411 44.6159C2.39144 44.8586 2.48478 45.0873 2.63411 45.3019C2.78344 45.5073 2.99811 45.6846 3.27811 45.8339C3.56744 45.9739 3.96411 46.0439 4.46811 46.0439C4.76678 46.0439 5.07478 46.0299 5.39211 46.0019C5.71878 45.9646 6.02678 45.9273 6.31611 45.8899C6.60544 45.8433 6.86211 45.7966 7.08611 45.7499C7.31944 45.7033 7.50144 45.6659 7.63211 45.6379L7.63211 41.0039H8.58411V50.9999H7.63211V46.4499Z" fill="black"/>
<path d="M13.0065 41.8159H9.53447V41.0039H17.4445V41.8159H13.9585V50.9999H13.0065V41.8159Z" fill="black"/>
<path d="M22.5638 51.1959C21.7798 51.1959 21.0891 51.0559 20.4918 50.7759C19.9038 50.4866 19.4138 50.1039 19.0218 49.6279C18.6298 49.1519 18.3358 48.6013 18.1398 47.9759C17.9438 47.3506 17.8458 46.6926 17.8458 46.0019C17.8458 45.3206 17.9438 44.6673 18.1398 44.0419C18.3358 43.4073 18.6298 42.8519 19.0218 42.3759C19.4138 41.8906 19.9038 41.5079 20.4918 41.2279C21.0891 40.9386 21.7798 40.7939 22.5638 40.7939C23.3478 40.7939 24.0338 40.9386 24.6218 41.2279C25.2098 41.5079 25.6998 41.8906 26.0918 42.3759C26.4838 42.8519 26.7778 43.4073 26.9738 44.0419C27.1698 44.6673 27.2678 45.3206 27.2678 46.0019C27.2678 46.6926 27.1698 47.3506 26.9738 47.9759C26.7778 48.6013 26.4838 49.1519 26.0918 49.6279C25.6998 50.1039 25.2098 50.4866 24.6218 50.7759C24.0338 51.0559 23.3478 51.1959 22.5638 51.1959ZM22.5638 50.3979C23.2171 50.3979 23.7818 50.2719 24.2578 50.0199C24.7338 49.7679 25.1211 49.4366 25.4198 49.0259C25.7278 48.6059 25.9518 48.1346 26.0918 47.6119C26.2411 47.0893 26.3158 46.5526 26.3158 46.0019C26.3158 45.4606 26.2411 44.9286 26.0918 44.4059C25.9518 43.8739 25.7278 43.4026 25.4198 42.9919C25.1211 42.5719 24.7338 42.2359 24.2578 41.9839C23.7818 41.7319 23.2171 41.6059 22.5638 41.6059C21.9011 41.6059 21.3318 41.7319 20.8558 41.9839C20.3798 42.2359 19.9878 42.5719 19.6798 42.9919C19.3811 43.4026 19.1571 43.8739 19.0078 44.4059C18.8678 44.9286 18.7978 45.4606 18.7978 46.0019C18.7978 46.5526 18.8678 47.0893 19.0078 47.6119C19.1571 48.1346 19.3811 48.6059 19.6798 49.0259C19.9878 49.4366 20.3798 49.7679 20.8558 50.0199C21.3318 50.2719 21.9011 50.3979 22.5638 50.3979Z" fill="black"/>
<path d="M28.7547 41.0039H35.6567V41.8159H29.7067V45.2319H33.4727C34.4061 45.2319 35.1341 45.4886 35.6567 46.0019C36.1794 46.5153 36.4407 47.2199 36.4407 48.1159C36.4407 49.0119 36.1794 49.7166 35.6567 50.2299C35.1341 50.7433 34.4061 50.9999 33.4727 50.9999H28.7547V41.0039ZM33.2627 50.1879C33.9627 50.1879 34.5087 50.0059 34.9007 49.6419C35.2927 49.2686 35.4887 48.7599 35.4887 48.1159C35.4887 47.4719 35.2927 46.9679 34.9007 46.6039C34.5087 46.2306 33.9627 46.0439 33.2627 46.0439H29.7067V50.1879H33.2627Z" fill="black"/>
<path d="M38.0926 41.0039H39.0446V45.2319H42.5306C43.4639 45.2319 44.1919 45.4886 44.7146 46.0019C45.2373 46.5153 45.4986 47.2199 45.4986 48.1159C45.4986 49.0119 45.2373 49.7166 44.7146 50.2299C44.1919 50.7433 43.4639 50.9999 42.5306 50.9999H38.0926V41.0039ZM42.3206 50.1879C43.0206 50.1879 43.5666 50.0059 43.9586 49.6419C44.3506 49.2686 44.5466 48.7599 44.5466 48.1159C44.5466 47.4719 44.3506 46.9679 43.9586 46.6039C43.5666 46.2306 43.0206 46.0439 42.3206 46.0439H39.0446V50.1879H42.3206ZM46.9686 41.0039H47.9206V50.9999H46.9686V41.0039Z" fill="black"/>
<path d="M53.8289 41.0039H58.0569C58.4769 41.0039 58.8783 41.0459 59.2609 41.1299C59.6529 41.2046 59.9936 41.3399 60.2829 41.5359C60.5816 41.7226 60.8196 41.9746 60.9969 42.2919C61.1743 42.5999 61.2629 42.9873 61.2629 43.4539C61.2629 43.7153 61.2209 43.9719 61.1369 44.2239C61.0529 44.4666 60.9316 44.6906 60.7729 44.8959C60.6236 45.0919 60.4416 45.2599 60.2269 45.3999C60.0216 45.5399 59.7883 45.6379 59.5269 45.6939V45.7219C60.1709 45.8059 60.6843 46.0719 61.0669 46.5199C61.4496 46.9586 61.6409 47.5046 61.6409 48.1579C61.6409 48.4006 61.6036 48.6853 61.5289 49.0119C61.4636 49.3293 61.3096 49.6373 61.0669 49.9359C60.8243 50.2346 60.4649 50.4866 59.9889 50.6919C59.5129 50.8973 58.8689 50.9999 58.0569 50.9999H53.8289V41.0039ZM58.0569 50.1879C58.4116 50.1879 58.7476 50.1599 59.0649 50.1039C59.3823 50.0386 59.6623 49.9266 59.9049 49.7679C60.1476 49.6093 60.3389 49.3993 60.4789 49.1379C60.6189 48.8766 60.6889 48.5406 60.6889 48.1299C60.6889 47.4859 60.4603 47.0053 60.0029 46.6879C59.5549 46.3613 58.9063 46.1979 58.0569 46.1979H54.7809V50.1879H58.0569ZM58.0569 45.3859C58.4303 45.3859 58.7569 45.3439 59.0369 45.2599C59.3263 45.1666 59.5643 45.0453 59.7509 44.8959C59.9376 44.7373 60.0776 44.5553 60.1709 44.3499C60.2643 44.1446 60.3109 43.9253 60.3109 43.6919C60.3109 42.4413 59.5596 41.8159 58.0569 41.8159H54.7809V45.3859H58.0569Z" fill="black"/>
<path d="M66.0928 41.0039H67.1568L71.0768 50.9999H70.0548L68.8368 47.8919H64.2868L63.0828 50.9999H62.0748L66.0928 41.0039ZM68.5148 47.0799L66.5828 41.9559L64.5808 47.0799H68.5148Z" fill="black"/>
<path d="M71.9852 41.0039H72.9372V50.1879H77.6692V41.0039H78.6212V50.1879H83.3532V41.0039H84.3052V50.9999H71.9852V41.0039Z" fill="black"/>
<path d="M86.327 41.0039H87.279V49.9779L93.019 41.0039H94.251V50.9999H93.299V42.0259L87.559 50.9999H86.327V41.0039Z" fill="black"/>
<path d="M100.163 41.0039H104.601C105.049 41.0039 105.455 41.0693 105.819 41.1999C106.183 41.3213 106.496 41.5079 106.757 41.7599C107.018 42.0026 107.219 42.3013 107.359 42.6559C107.499 43.0106 107.569 43.4119 107.569 43.8599C107.569 44.3079 107.499 44.7093 107.359 45.0639C107.219 45.4186 107.018 45.7219 106.757 45.9739C106.496 46.2166 106.183 46.4033 105.819 46.5339C105.455 46.6553 105.049 46.7159 104.601 46.7159H101.115V50.9999H100.163V41.0039ZM104.391 45.9039C105.054 45.9039 105.59 45.7359 106.001 45.3999C106.412 45.0639 106.617 44.5506 106.617 43.8599C106.617 43.1693 106.412 42.6559 106.001 42.3199C105.59 41.9839 105.054 41.8159 104.391 41.8159H101.115V45.9039H104.391Z" fill="black"/>
<path d="M109.905 51.1119C109.681 51.1119 109.476 51.0979 109.289 51.0699C109.112 51.0419 108.972 51.0093 108.869 50.9719V50.1319C108.991 50.1786 109.135 50.2206 109.303 50.2579C109.471 50.2859 109.667 50.2999 109.891 50.2999C110.246 50.2999 110.54 50.1879 110.773 49.9639C111.016 49.7399 111.249 49.3899 111.473 48.9139L111.599 48.6479L107.889 41.0039H108.911L112.159 47.6399L115.323 41.0039H116.331L112.397 49.1519C112.192 49.5813 111.991 49.9266 111.795 50.1879C111.599 50.4399 111.399 50.6359 111.193 50.7759C110.997 50.9159 110.792 51.0046 110.577 51.0419C110.372 51.0886 110.148 51.1119 109.905 51.1119Z" fill="black"/>
<path d="M117.212 41.0039H118.164V46.3799L123.974 41.0039H125.262L120.796 45.1339L125.472 50.9999H124.24L120.082 45.7919L118.164 47.5699V50.9999H117.212V41.0039Z" fill="black"/>
<path d="M126.29 41.0039H127.242V49.9779L132.982 41.0039H134.214V50.9999H133.262V42.0259L127.522 50.9999H126.29V41.0039Z" fill="black"/>
<path d="M2.70411 71.1119C2.48011 71.1119 2.27478 71.0979 2.08811 71.0699C1.91078 71.0419 1.77078 71.0093 1.66811 70.9719V70.1319C1.78944 70.1786 1.93411 70.2206 2.10211 70.2579C2.27011 70.2859 2.46611 70.2999 2.69011 70.2999C3.04478 70.2999 3.33878 70.1879 3.57211 69.9639C3.81478 69.7399 4.04811 69.3899 4.27211 68.9139L4.39811 68.6479L0.68811 61.0039H1.71011L4.95811 67.6399L8.12211 61.0039H9.13011L5.19611 69.1519C4.99078 69.5813 4.79011 69.9266 4.59411 70.1879C4.39811 70.4399 4.19744 70.6359 3.99211 70.7759C3.79611 70.9159 3.59078 71.0046 3.37611 71.0419C3.17078 71.0886 2.94678 71.1119 2.70411 71.1119Z" fill="black"/>
<path d="M9.98258 61.0039H11.3826L14.8406 69.7679L18.2846 61.0039H19.6846V70.9999H18.7326V62.3619H18.7046L15.2886 70.9999H14.3926L10.9626 62.3619H10.9346V70.9999H9.98258V61.0039Z" fill="black"/>
<path d="M21.6727 61.0039H28.5747V61.8159H22.6247V65.4279H28.1967V66.2399H22.6247V70.1879H28.6447V70.9999H21.6727V61.0039Z" fill="black"/>
<path d="M29.7195 71.0839C29.6635 71.0839 29.5935 71.0793 29.5095 71.0699C29.4348 71.0606 29.3555 71.0513 29.2715 71.0419C29.1875 71.0326 29.1128 71.0186 29.0475 70.9999C28.9822 70.9906 28.9355 70.9813 28.9075 70.9719V70.1599C28.9822 70.1973 29.0942 70.2253 29.2435 70.2439C29.4022 70.2533 29.5189 70.2579 29.5935 70.2579C29.6962 70.2579 29.8175 70.2486 29.9575 70.2299C30.0975 70.2019 30.2422 70.1179 30.3915 69.9779C30.5502 69.8286 30.7042 69.5999 30.8535 69.2919C31.0122 68.9746 31.1475 68.5266 31.2595 67.9479C31.3808 67.3599 31.4788 66.6179 31.5535 65.7219C31.6282 64.8259 31.6655 63.7246 31.6655 62.4179V61.0039H37.8115V70.9999H36.8595V61.8159H32.5895V62.3619C32.5895 63.8179 32.5428 65.0453 32.4495 66.0439C32.3562 67.0333 32.2302 67.8546 32.0715 68.5079C31.9128 69.1519 31.7308 69.6513 31.5255 70.0059C31.3295 70.3513 31.1242 70.6033 30.9095 70.7619C30.7042 70.9206 30.4942 71.0139 30.2795 71.0419C30.0742 71.0699 29.8875 71.0839 29.7195 71.0839Z" fill="black"/>
<path d="M39.8289 61.0039H40.7809V69.9779L46.5209 61.0039H47.7529V70.9999H46.8009V62.0259L41.0609 70.9999H39.8289V61.0039Z" fill="black"/>
<path d="M56.0729 61.8159H52.6009V61.0039H60.5109V61.8159H57.0249V70.9999H56.0729V61.8159Z" fill="black"/>
<path d="M64.3702 61.0039H65.4342L69.3542 70.9999H68.3322L67.1142 67.8919H62.5642L61.3602 70.9999H60.3522L64.3702 61.0039ZM66.7922 67.0799L64.8602 61.9559L62.8582 67.0799H66.7922Z" fill="black"/>
<path d="M70.2625 61.0039H71.2145V66.3799L77.0245 61.0039H78.3125L73.8465 65.1339L78.5225 70.9999H77.2905L73.1325 65.7919L71.2145 67.5699V70.9999H70.2625V61.0039Z" fill="black"/>
<path d="M82.7147 65.3159L78.5707 61.0039H79.8587L84.7867 66.2679V61.0039H85.7387V66.2679L90.6667 61.0039H91.9547L87.8107 65.3159L92.3047 70.9999H91.0727L87.1387 66.0159L85.7387 67.4719V70.9999H84.7867V67.4719L83.3867 66.0159L79.4527 70.9999H78.2207L82.7147 65.3159Z" fill="black"/>
<path d="M93.2039 61.0039H100.106V61.8159H94.1559V65.4279H99.7279V66.2399H94.1559V70.1879H100.176V70.9999H93.2039V61.0039Z" fill="black"/>
<path d="M102.945 71.4199C102.945 71.8306 102.847 72.1573 102.651 72.3999C102.464 72.6519 102.221 72.8246 101.923 72.9179V72.3999C102.035 72.3253 102.142 72.2226 102.245 72.0919C102.347 71.9613 102.399 71.7559 102.399 71.4759V70.9999H101.923V69.7679H102.945V71.4199Z" fill="black"/>
<path d="M1.78011 81.0039H9.48011V90.9999H8.52811V81.8159H2.73211V90.9999H1.78011V81.0039Z" fill="black"/>
<path d="M11.5008 81.0039H15.9388C16.3868 81.0039 16.7928 81.0693 17.1568 81.1999C17.5208 81.3213 17.8335 81.5079 18.0948 81.7599C18.3561 82.0026 18.5568 82.3013 18.6968 82.6559C18.8368 83.0106 18.9068 83.4119 18.9068 83.8599C18.9068 84.3079 18.8368 84.7093 18.6968 85.0639C18.5568 85.4186 18.3561 85.7219 18.0948 85.9739C17.8335 86.2166 17.5208 86.4033 17.1568 86.5339C16.7928 86.6553 16.3868 86.7159 15.9388 86.7159H12.4528V90.9999H11.5008V81.0039ZM15.7288 85.9039C16.3915 85.9039 16.9281 85.7359 17.3388 85.3999C17.7495 85.0639 17.9548 84.5506 17.9548 83.8599C17.9548 83.1693 17.7495 82.6559 17.3388 82.3199C16.9281 81.9839 16.3915 81.8159 15.7288 81.8159H12.4528L12.4528 85.9039H15.7288Z" fill="black"/>
<path d="M24.5052 91.1959C23.7212 91.1959 23.0305 91.0559 22.4332 90.7759C21.8452 90.4866 21.3552 90.1039 20.9632 89.6279C20.5712 89.1519 20.2772 88.6013 20.0812 87.9759C19.8852 87.3506 19.7872 86.6926 19.7872 86.0019C19.7872 85.3206 19.8852 84.6673 20.0812 84.0419C20.2772 83.4073 20.5712 82.8519 20.9632 82.3759C21.3552 81.8906 21.8452 81.5079 22.4332 81.2279C23.0305 80.9386 23.7212 80.7939 24.5052 80.7939C25.2892 80.7939 25.9752 80.9386 26.5632 81.2279C27.1512 81.5079 27.6412 81.8906 28.0332 82.3759C28.4252 82.8519 28.7192 83.4073 28.9152 84.0419C29.1112 84.6673 29.2092 85.3206 29.2092 86.0019C29.2092 86.6926 29.1112 87.3506 28.9152 87.9759C28.7192 88.6013 28.4252 89.1519 28.0332 89.6279C27.6412 90.1039 27.1512 90.4866 26.5632 90.7759C25.9752 91.0559 25.2892 91.1959 24.5052 91.1959ZM24.5052 90.3979C25.1585 90.3979 25.7232 90.2719 26.1992 90.0199C26.6752 89.7679 27.0625 89.4366 27.3612 89.0259C27.6692 88.6059 27.8932 88.1346 28.0332 87.6119C28.1825 87.0893 28.2572 86.5526 28.2572 86.0019C28.2572 85.4606 28.1825 84.9286 28.0332 84.4059C27.8932 83.8739 27.6692 83.4026 27.3612 82.9919C27.0625 82.5719 26.6752 82.2359 26.1992 81.9839C25.7232 81.7319 25.1585 81.6059 24.5052 81.6059C23.8425 81.6059 23.2732 81.7319 22.7972 81.9839C22.3212 82.2359 21.9292 82.5719 21.6212 82.9919C21.3225 83.4026 21.0985 83.8739 20.9492 84.4059C20.8092 84.9286 20.7392 85.4606 20.7392 86.0019C20.7392 86.5526 20.8092 87.0893 20.9492 87.6119C21.0985 88.1346 21.3225 88.6059 21.6212 89.0259C21.9292 89.4366 22.3212 89.7679 22.7972 90.0199C23.2732 90.2719 23.8425 90.3979 24.5052 90.3979Z" fill="black"/>
<path d="M34.9381 91.1959C34.1541 91.1959 33.4635 91.0559 32.8661 90.7759C32.2781 90.4866 31.7881 90.1039 31.3961 89.6279C31.0041 89.1519 30.7101 88.6013 30.5141 87.9759C30.3181 87.3506 30.2201 86.6926 30.2201 86.0019C30.2201 85.3206 30.3181 84.6673 30.5141 84.0419C30.7101 83.4073 31.0041 82.8519 31.3961 82.3759C31.7881 81.8906 32.2781 81.5079 32.8661 81.2279C33.4635 80.9386 34.1541 80.7939 34.9381 80.7939C35.4141 80.7939 35.8761 80.8639 36.3241 81.0039C36.7815 81.1439 37.1921 81.3539 37.5561 81.6339C37.9295 81.9046 38.2375 82.2406 38.4801 82.6419C38.7321 83.0433 38.8908 83.5053 38.9561 84.0279H38.0041C37.9201 83.6453 37.7801 83.3046 37.5841 83.0059C37.3975 82.6979 37.1641 82.4413 36.8841 82.2359C36.6135 82.0306 36.3101 81.8766 35.9741 81.7739C35.6475 81.6619 35.3021 81.6059 34.9381 81.6059C34.2755 81.6059 33.7061 81.7319 33.2301 81.9839C32.7541 82.2359 32.3621 82.5719 32.0541 82.9919C31.7555 83.4026 31.5315 83.8739 31.3821 84.4059C31.2421 84.9286 31.1721 85.4606 31.1721 86.0019C31.1721 86.5526 31.2421 87.0893 31.3821 87.6119C31.5315 88.1346 31.7555 88.6059 32.0541 89.0259C32.3621 89.4366 32.7541 89.7679 33.2301 90.0199C33.7061 90.2719 34.2755 90.3979 34.9381 90.3979C35.3955 90.3979 35.8108 90.3139 36.1841 90.1459C36.5668 89.9779 36.8935 89.7493 37.1641 89.4599C37.4348 89.1706 37.6541 88.8346 37.8221 88.4519C37.9901 88.0599 38.0975 87.6399 38.1441 87.1919H39.0961C39.0308 87.8079 38.8861 88.3633 38.6621 88.8579C38.4381 89.3526 38.1488 89.7726 37.7941 90.1179C37.4395 90.4633 37.0195 90.7293 36.5341 90.9159C36.0581 91.1026 35.5261 91.1959 34.9381 91.1959Z" fill="black"/>
<path d="M42.9615 81.8159H39.4895V81.0039H47.3995V81.8159H43.9135V90.9999H42.9615V81.8159Z" fill="black"/>
<path d="M52.5188 91.1959C51.7348 91.1959 51.0442 91.0559 50.4468 90.7759C49.8588 90.4866 49.3688 90.1039 48.9768 89.6279C48.5848 89.1519 48.2908 88.6013 48.0948 87.9759C47.8988 87.3506 47.8008 86.6926 47.8008 86.0019C47.8008 85.3206 47.8988 84.6673 48.0948 84.0419C48.2908 83.4073 48.5848 82.8519 48.9768 82.3759C49.3688 81.8906 49.8588 81.5079 50.4468 81.2279C51.0442 80.9386 51.7348 80.7939 52.5188 80.7939C53.3028 80.7939 53.9888 80.9386 54.5768 81.2279C55.1648 81.5079 55.6548 81.8906 56.0468 82.3759C56.4388 82.8519 56.7328 83.4073 56.9288 84.0419C57.1248 84.6673 57.2228 85.3206 57.2228 86.0019C57.2228 86.6926 57.1248 87.3506 56.9288 87.9759C56.7328 88.6013 56.4388 89.1519 56.0468 89.6279C55.6548 90.1039 55.1648 90.4866 54.5768 90.7759C53.9888 91.0559 53.3028 91.1959 52.5188 91.1959ZM52.5188 90.3979C53.1722 90.3979 53.7368 90.2719 54.2128 90.0199C54.6888 89.7679 55.0762 89.4366 55.3748 89.0259C55.6828 88.6059 55.9068 88.1346 56.0468 87.6119C56.1962 87.0893 56.2708 86.5526 56.2708 86.0019C56.2708 85.4606 56.1962 84.9286 56.0468 84.4059C55.9068 83.8739 55.6828 83.4026 55.3748 82.9919C55.0762 82.5719 54.6888 82.2359 54.2128 81.9839C53.7368 81.7319 53.1722 81.6059 52.5188 81.6059C51.8562 81.6059 51.2868 81.7319 50.8108 81.9839C50.3348 82.2359 49.9428 82.5719 49.6348 82.9919C49.3362 83.4026 49.1122 83.8739 48.9628 84.4059C48.8228 84.9286 48.7528 85.4606 48.7528 86.0019C48.7528 86.5526 48.8228 87.0893 48.9628 87.6119C49.1122 88.1346 49.3362 88.6059 49.6348 89.0259C49.9428 89.4366 50.3348 89.7679 50.8108 90.0199C51.2868 90.2719 51.8562 90.3979 52.5188 90.3979Z" fill="black"/>
<path d="M62.6063 81.0039H63.5583V85.3439H69.4943V81.0039H70.4463V90.9999H69.4943V86.1559H63.5583V90.9999H62.6063V81.0039Z" fill="black"/>
<path d="M75.3897 81.0039H76.4537L80.3737 90.9999H79.3517L78.1337 87.8919H73.5837L72.3797 90.9999H71.3717L75.3897 81.0039ZM77.8117 87.0799L75.8797 81.9559L73.8777 87.0799H77.8117Z" fill="black"/>
<path d="M85.1786 81.0039H86.1305V85.3439H92.0666V81.0039H93.0185V90.9999H92.0666V86.1559H86.1305V90.9999H85.1786V81.0039Z" fill="black"/>
<path d="M99.222 91.1959C98.438 91.1959 97.7473 91.0559 97.15 90.7759C96.562 90.4866 96.072 90.1039 95.68 89.6279C95.288 89.1519 94.994 88.6013 94.798 87.9759C94.602 87.3506 94.504 86.6926 94.504 86.0019C94.504 85.3206 94.602 84.6673 94.798 84.0419C94.994 83.4073 95.288 82.8519 95.68 82.3759C96.072 81.8906 96.562 81.5079 97.15 81.2279C97.7473 80.9386 98.438 80.7939 99.222 80.7939C100.006 80.7939 100.692 80.9386 101.28 81.2279C101.868 81.5079 102.358 81.8906 102.75 82.3759C103.142 82.8519 103.436 83.4073 103.632 84.0419C103.828 84.6673 103.926 85.3206 103.926 86.0019C103.926 86.6926 103.828 87.3506 103.632 87.9759C103.436 88.6013 103.142 89.1519 102.75 89.6279C102.358 90.1039 101.868 90.4866 101.28 90.7759C100.692 91.0559 100.006 91.1959 99.222 91.1959ZM99.222 90.3979C99.8753 90.3979 100.44 90.2719 100.916 90.0199C101.392 89.7679 101.779 89.4366 102.078 89.0259C102.386 88.6059 102.61 88.1346 102.75 87.6119C102.899 87.0893 102.974 86.5526 102.974 86.0019C102.974 85.4606 102.899 84.9286 102.75 84.4059C102.61 83.8739 102.386 83.4026 102.078 82.9919C101.779 82.5719 101.392 82.2359 100.916 81.9839C100.44 81.7319 99.8753 81.6059 99.222 81.6059C98.5593 81.6059 97.99 81.7319 97.514 81.9839C97.038 82.2359 96.646 82.5719 96.338 82.9919C96.0393 83.4026 95.8153 83.8739 95.666 84.4059C95.526 84.9286 95.456 85.4606 95.456 86.0019C95.456 86.5526 95.526 87.0893 95.666 87.6119C95.8153 88.1346 96.0393 88.6059 96.338 89.0259C96.646 89.4366 97.038 89.7679 97.514 90.0199C97.99 90.2719 98.5593 90.3979 99.222 90.3979Z" fill="black"/>
<path d="M111.265 86.4499C111.125 86.4873 110.929 86.5293 110.677 86.5759C110.425 86.6226 110.15 86.6693 109.851 86.7159C109.562 86.7533 109.268 86.7906 108.969 86.8279C108.68 86.8559 108.423 86.8699 108.199 86.8699C107.48 86.8699 106.906 86.7859 106.477 86.6179C106.057 86.4406 105.735 86.2166 105.511 85.9459C105.287 85.6659 105.142 85.3579 105.077 85.0219C105.012 84.6766 104.979 84.3359 104.979 83.9999V81.0039H105.931V83.9439C105.931 84.1493 105.95 84.3733 105.987 84.6159C106.024 84.8586 106.118 85.0873 106.267 85.3019C106.416 85.5073 106.631 85.6846 106.911 85.8339C107.2 85.9739 107.597 86.0439 108.101 86.0439C108.4 86.0439 108.708 86.0299 109.025 86.0019C109.352 85.9646 109.66 85.9273 109.949 85.8899C110.238 85.8433 110.495 85.7966 110.719 85.7499C110.952 85.7033 111.134 85.6659 111.265 85.6379V81.0039H112.217V90.9999H111.265V86.4499Z" fill="black"/>
<path d="M114.231 81.0039H115.183V85.2319H118.669C119.603 85.2319 120.331 85.4886 120.853 86.0019C121.376 86.5153 121.637 87.2199 121.637 88.1159C121.637 89.0119 121.376 89.7166 120.853 90.2299C120.331 90.7433 119.603 90.9999 118.669 90.9999H114.231V81.0039ZM118.459 90.1879C119.159 90.1879 119.705 90.0059 120.097 89.6419C120.489 89.2686 120.685 88.7599 120.685 88.1159C120.685 87.4719 120.489 86.9679 120.097 86.6039C119.705 86.2306 119.159 86.0439 118.459 86.0439H115.183V90.1879H118.459Z" fill="black"/>
<path d="M1.78011 101.004H6.00811C6.42811 101.004 6.82944 101.046 7.21211 101.13C7.60411 101.205 7.94478 101.34 8.23411 101.536C8.53278 101.723 8.77078 101.975 8.94811 102.292C9.12544 102.6 9.21411 102.987 9.21411 103.454C9.21411 103.715 9.17211 103.972 9.08811 104.224C9.00411 104.467 8.88278 104.691 8.72411 104.896C8.57478 105.092 8.39278 105.26 8.17811 105.4C7.97278 105.54 7.73944 105.638 7.47811 105.694V105.722C8.12211 105.806 8.63544 106.072 9.01811 106.52C9.40078 106.959 9.59211 107.505 9.59211 108.158C9.59211 108.401 9.55478 108.685 9.48011 109.012C9.41478 109.329 9.26078 109.637 9.01811 109.936C8.77544 110.235 8.41611 110.487 7.94011 110.692C7.46411 110.897 6.82011 111 6.00811 111H1.78011V101.004ZM6.00811 110.188C6.36278 110.188 6.69878 110.16 7.01611 110.104C7.33344 110.039 7.61344 109.927 7.85611 109.768C8.09878 109.609 8.29011 109.399 8.43011 109.138C8.57011 108.877 8.64011 108.541 8.64011 108.13C8.64011 107.486 8.41144 107.005 7.95411 106.688C7.50611 106.361 6.85744 106.198 6.00811 106.198H2.73211V110.188H6.00811ZM6.00811 105.386C6.38144 105.386 6.70811 105.344 6.98811 105.26C7.27744 105.167 7.51544 105.045 7.70211 104.896C7.88878 104.737 8.02878 104.555 8.12211 104.35C8.21544 104.145 8.26211 103.925 8.26211 103.692C8.26211 102.441 7.51078 101.816 6.00811 101.816H2.73211V105.386H6.00811Z" fill="black"/>
<path d="M11.118 101.004H12.07V105.232H15.556C16.4893 105.232 17.2173 105.489 17.74 106.002C18.2627 106.515 18.524 107.22 18.524 108.116C18.524 109.012 18.2627 109.717 17.74 110.23C17.2173 110.743 16.4893 111 15.556 111H11.118V101.004ZM15.346 110.188C16.046 110.188 16.592 110.006 16.984 109.642C17.376 109.269 17.572 108.76 17.572 108.116C17.572 107.472 17.376 106.968 16.984 106.604C16.592 106.231 16.046 106.044 15.346 106.044H12.07V110.188H15.346ZM19.994 101.004H20.946V111H19.994V101.004Z" fill="black"/>
<path d="M23.3778 111V109.768H24.3998V111H23.3778Z" fill="black"/>
<path d="M27.2743 111V109.768H28.2963V111H27.2743Z" fill="black"/>
<path d="M31.1708 111V109.768H32.1928V111H31.1708Z" fill="black"/>
<path d="M35.0673 111V109.768H36.0893V111H35.0673Z" fill="black"/>
<path d="M38.5438 101.004H39.4958V105.344H45.4318V101.004H46.3838V111H45.4318V106.156H39.4958V111H38.5438V101.004Z" fill="black"/>
<path d="M51.3272 101.004H52.3912L56.3112 111H55.2892L54.0712 107.892H49.5212L48.3172 111H47.3092L51.3272 101.004ZM53.7492 107.08L51.8172 101.956L49.8152 107.08H53.7492Z" fill="black"/>
<path d="M61.4616 111.196C60.6776 111.196 59.9869 111.056 59.3896 110.776C58.8016 110.487 58.3116 110.104 57.9196 109.628C57.5276 109.152 57.2336 108.601 57.0376 107.976C56.8416 107.351 56.7436 106.693 56.7436 106.002C56.7436 105.321 56.8416 104.667 57.0376 104.042C57.2336 103.407 57.5276 102.852 57.9196 102.376C58.3116 101.891 58.8016 101.508 59.3896 101.228C59.9869 100.939 60.6776 100.794 61.4616 100.794C61.9376 100.794 62.3996 100.864 62.8476 101.004C63.3049 101.144 63.7156 101.354 64.0796 101.634C64.4529 101.905 64.7609 102.241 65.0036 102.642C65.2556 103.043 65.4142 103.505 65.4796 104.028H64.5276C64.4436 103.645 64.3036 103.305 64.1076 103.006C63.9209 102.698 63.6876 102.441 63.4076 102.236C63.1369 102.031 62.8336 101.877 62.4976 101.774C62.1709 101.662 61.8256 101.606 61.4616 101.606C60.7989 101.606 60.2296 101.732 59.7536 101.984C59.2776 102.236 58.8856 102.572 58.5776 102.992C58.2789 103.403 58.0549 103.874 57.9056 104.406C57.7656 104.929 57.6956 105.461 57.6956 106.002C57.6956 106.553 57.7656 107.089 57.9056 107.612C58.0549 108.135 58.2789 108.606 58.5776 109.026C58.8856 109.437 59.2776 109.768 59.7536 110.02C60.2296 110.272 60.7989 110.398 61.4616 110.398C61.9189 110.398 62.3342 110.314 62.7076 110.146C63.0902 109.978 63.4169 109.749 63.6876 109.46C63.9582 109.171 64.1776 108.835 64.3456 108.452C64.5136 108.06 64.6209 107.64 64.6676 107.192H65.6196C65.5542 107.808 65.4096 108.363 65.1856 108.858C64.9616 109.353 64.6722 109.773 64.3176 110.118C63.9629 110.463 63.5429 110.729 63.0576 110.916C62.5816 111.103 62.0496 111.196 61.4616 111.196Z" fill="black"/>
<path d="M69.485 101.816H66.013V101.004H73.923V101.816H70.437V111H69.485V101.816Z" fill="black"/>
<path d="M79.0423 111.196C78.2583 111.196 77.5676 111.056 76.9703 110.776C76.3823 110.487 75.8923 110.104 75.5003 109.628C75.1083 109.152 74.8143 108.601 74.6183 107.976C74.4223 107.351 74.3243 106.693 74.3243 106.002C74.3243 105.321 74.4223 104.667 74.6183 104.042C74.8143 103.407 75.1083 102.852 75.5003 102.376C75.8923 101.891 76.3823 101.508 76.9703 101.228C77.5676 100.939 78.2583 100.794 79.0423 100.794C79.8263 100.794 80.5123 100.939 81.1003 101.228C81.6883 101.508 82.1783 101.891 82.5703 102.376C82.9623 102.852 83.2563 103.407 83.4523 104.042C83.6483 104.667 83.7463 105.321 83.7463 106.002C83.7463 106.693 83.6483 107.351 83.4523 107.976C83.2563 108.601 82.9623 109.152 82.5703 109.628C82.1783 110.104 81.6883 110.487 81.1003 110.776C80.5123 111.056 79.8263 111.196 79.0423 111.196ZM79.0423 110.398C79.6956 110.398 80.2603 110.272 80.7363 110.02C81.2123 109.768 81.5996 109.437 81.8983 109.026C82.2063 108.606 82.4303 108.135 82.5703 107.612C82.7196 107.089 82.7943 106.553 82.7943 106.002C82.7943 105.461 82.7196 104.929 82.5703 104.406C82.4303 103.874 82.2063 103.403 81.8983 102.992C81.5996 102.572 81.2123 102.236 80.7363 101.984C80.2603 101.732 79.6956 101.606 79.0423 101.606C78.3796 101.606 77.8103 101.732 77.3343 101.984C76.8583 102.236 76.4663 102.572 76.1583 102.992C75.8596 103.403 75.6356 103.874 75.4863 104.406C75.3463 104.929 75.2763 105.461 75.2763 106.002C75.2763 106.553 75.3463 107.089 75.4863 107.612C75.6356 108.135 75.8596 108.606 76.1583 109.026C76.4663 109.437 76.8583 109.768 77.3343 110.02C77.8103 110.272 78.3796 110.398 79.0423 110.398Z" fill="black"/>
<path d="M85.2332 101.004H86.1852V109.978L91.9252 101.004H93.1572V111H92.2052V102.026L86.4652 111H85.2332V101.004ZM89.1112 100.178C88.5232 100.178 88.0659 100.024 87.7392 99.7159C87.4126 99.3986 87.2119 98.9459 87.1372 98.3579H87.6832C87.7299 98.7126 87.8746 98.9926 88.1172 99.1979C88.3692 99.4033 88.7052 99.5059 89.1252 99.5059C89.5266 99.5059 89.8532 99.4079 90.1052 99.2119C90.3666 99.0066 90.5346 98.7219 90.6092 98.3579H91.1552C91.0526 98.9459 90.8332 99.3986 90.4972 99.7159C90.1612 100.024 89.6992 100.178 89.1112 100.178Z" fill="black"/>
<path d="M95.1727 101.004H96.1247V106.38L101.935 101.004H103.223L98.7567 105.134L103.433 111H102.201L98.0427 105.792L96.1247 107.57V111H95.1727V101.004Z" fill="black"/>
<path d="M105.175 111.112C104.951 111.112 104.745 111.098 104.559 111.07C104.381 111.042 104.241 111.009 104.139 110.972V110.132C104.26 110.179 104.405 110.221 104.573 110.258C104.741 110.286 104.937 110.3 105.161 110.3C105.515 110.3 105.809 110.188 106.043 109.964C106.285 109.74 106.519 109.39 106.743 108.914L106.869 108.648L103.159 101.004H104.181L107.429 107.64L110.593 101.004H111.601L107.667 109.152C107.461 109.581 107.261 109.927 107.065 110.188C106.869 110.44 106.668 110.636 106.463 110.776C106.267 110.916 106.061 111.005 105.847 111.042C105.641 111.089 105.417 111.112 105.175 111.112Z" fill="black"/>
</svg>
