<svg width="97" height="54" viewBox="0 0 97 54" fill="none" xmlns="http://www.w3.org/2000/svg">
<path d="M6.19266 11.1959C5.40866 11.1959 4.71799 11.0559 4.12066 10.7759C3.53266 10.4866 3.04266 10.1039 2.65066 9.62795C2.25866 9.15195 1.96466 8.60128 1.76866 7.97595C1.57266 7.35061 1.47466 6.69261 1.47466 6.00195C1.47466 5.32061 1.57266 4.66728 1.76866 4.04195C1.96466 3.40728 2.25866 2.85195 2.65066 2.37594C3.04266 1.89061 3.53266 1.50795 4.12066 1.22795C4.71799 0.938612 5.40866 0.793945 6.19266 0.793945C6.97666 0.793945 7.66266 0.938612 8.25066 1.22795C8.83866 1.50795 9.32866 1.89061 9.72066 2.37594C10.1127 2.85195 10.4067 3.40728 10.6027 4.04195C10.7987 4.66728 10.8967 5.32061 10.8967 6.00195C10.8967 6.69261 10.7987 7.35061 10.6027 7.97595C10.4067 8.60128 10.1127 9.15195 9.72066 9.62795C9.32866 10.1039 8.83866 10.4866 8.25066 10.7759C7.66266 11.0559 6.97666 11.1959 6.19266 11.1959ZM6.19266 10.3979C6.84599 10.3979 7.41066 10.2719 7.88666 10.0199C8.36266 9.76795 8.74999 9.43661 9.04866 9.02595C9.35666 8.60595 9.58066 8.13461 9.72066 7.61195C9.86999 7.08928 9.94466 6.55261 9.94466 6.00195C9.94466 5.46061 9.86999 4.92861 9.72066 4.40595C9.58066 3.87395 9.35666 3.40261 9.04866 2.99195C8.74999 2.57195 8.36266 2.23595 7.88666 1.98395C7.41066 1.73195 6.84599 1.60595 6.19266 1.60595C5.52999 1.60595 4.96066 1.73195 4.48466 1.98395C4.00866 2.23595 3.61666 2.57195 3.30866 2.99195C3.00999 3.40261 2.78599 3.87395 2.63666 4.40595C2.49666 4.92861 2.42666 5.46061 2.42666 6.00195C2.42666 6.55261 2.49666 7.08928 2.63666 7.61195C2.78599 8.13461 3.00999 8.60595 3.30866 9.02595C3.61666 9.43661 4.00866 9.76795 4.48466 10.0199C4.96066 10.2719 5.52999 10.3979 6.19266 10.3979Z" fill="black"/>
<path d="M16.6256 11.1959C15.8416 11.1959 15.1509 11.0559 14.5536 10.7759C13.9656 10.4866 13.4756 10.1039 13.0836 9.62795C12.6916 9.15195 12.3976 8.60128 12.2016 7.97595C12.0056 7.35061 11.9076 6.69261 11.9076 6.00195C11.9076 5.32061 12.0056 4.66728 12.2016 4.04195C12.3976 3.40728 12.6916 2.85195 13.0836 2.37595C13.4756 1.89061 13.9656 1.50795 14.5536 1.22795C15.1509 0.938612 15.8416 0.793945 16.6256 0.793945C17.1016 0.793945 17.5636 0.863945 18.0116 1.00395C18.4689 1.14395 18.8796 1.35395 19.2436 1.63395C19.6169 1.90461 19.9249 2.24061 20.1676 2.64195C20.4196 3.04328 20.5783 3.50528 20.6436 4.02795H19.6916C19.6076 3.64528 19.4676 3.30461 19.2716 3.00595C19.0849 2.69795 18.8516 2.44128 18.5716 2.23595C18.3009 2.03061 17.9976 1.87661 17.6616 1.77395C17.3349 1.66195 16.9896 1.60595 16.6256 1.60595C15.9629 1.60595 15.3936 1.73195 14.9176 1.98395C14.4416 2.23595 14.0496 2.57195 13.7416 2.99195C13.4429 3.40261 13.2189 3.87395 13.0696 4.40595C12.9296 4.92861 12.8596 5.46061 12.8596 6.00195C12.8596 6.55261 12.9296 7.08928 13.0696 7.61195C13.2189 8.13461 13.4429 8.60595 13.7416 9.02595C14.0496 9.43661 14.4416 9.76795 14.9176 10.0199C15.3936 10.2719 15.9629 10.3979 16.6256 10.3979C17.0829 10.3979 17.4983 10.3139 17.8716 10.1459C18.2543 9.97795 18.5809 9.74928 18.8516 9.45995C19.1223 9.17061 19.3416 8.83461 19.5096 8.45195C19.6776 8.05995 19.7849 7.63995 19.8316 7.19195H20.7836C20.7183 7.80795 20.5736 8.36328 20.3496 8.85795C20.1256 9.35261 19.8363 9.77261 19.4816 10.1179C19.1269 10.4633 18.7069 10.7293 18.2216 10.9159C17.7456 11.1026 17.2136 11.1959 16.6256 11.1959Z" fill="black"/>
<path d="M24.649 1.81595L21.177 1.81595V1.00395L29.087 1.00395V1.81595H25.601V10.9999H24.649V1.81595Z" fill="black"/>
<path d="M34.2063 11.1959C33.4223 11.1959 32.7317 11.0559 32.1343 10.7759C31.5463 10.4866 31.0563 10.1039 30.6643 9.62795C30.2723 9.15195 29.9783 8.60128 29.7823 7.97595C29.5863 7.35061 29.4883 6.69261 29.4883 6.00195C29.4883 5.32061 29.5863 4.66728 29.7823 4.04195C29.9783 3.40728 30.2723 2.85195 30.6643 2.37595C31.0563 1.89061 31.5463 1.50795 32.1343 1.22795C32.7317 0.938612 33.4223 0.793946 34.2063 0.793946C34.9903 0.793946 35.6763 0.938612 36.2643 1.22795C36.8523 1.50795 37.3423 1.89061 37.7343 2.37595C38.1263 2.85195 38.4203 3.40728 38.6163 4.04195C38.8123 4.66728 38.9103 5.32061 38.9103 6.00195C38.9103 6.69261 38.8123 7.35061 38.6163 7.97595C38.4203 8.60128 38.1263 9.15195 37.7343 9.62795C37.3423 10.1039 36.8523 10.4866 36.2643 10.7759C35.6763 11.0559 34.9903 11.1959 34.2063 11.1959ZM34.2063 10.3979C34.8597 10.3979 35.4243 10.2719 35.9003 10.0199C36.3763 9.76795 36.7637 9.43661 37.0623 9.02595C37.3703 8.60595 37.5943 8.13461 37.7343 7.61195C37.8837 7.08928 37.9583 6.55261 37.9583 6.00195C37.9583 5.46061 37.8837 4.92861 37.7343 4.40595C37.5943 3.87395 37.3703 3.40261 37.0623 2.99195C36.7637 2.57195 36.3763 2.23595 35.9003 1.98395C35.4243 1.73195 34.8597 1.60595 34.2063 1.60595C33.5437 1.60595 32.9743 1.73195 32.4983 1.98395C32.0223 2.23595 31.6303 2.57195 31.3223 2.99195C31.0237 3.40261 30.7997 3.87395 30.6503 4.40595C30.5103 4.92861 30.4403 5.46061 30.4403 6.00195C30.4403 6.55261 30.5103 7.08928 30.6503 7.61195C30.7997 8.13461 31.0237 8.60595 31.3223 9.02595C31.6303 9.43661 32.0223 9.76795 32.4983 10.0199C32.9743 10.2719 33.5437 10.3979 34.2063 10.3979Z" fill="black"/>
<path d="M40.3973 1.00395L44.8353 1.00395C45.2833 1.00395 45.6893 1.06928 46.0533 1.19995C46.4173 1.32128 46.73 1.50795 46.9913 1.75995C47.2526 2.00261 47.4533 2.30128 47.5933 2.65595C47.7333 3.01061 47.8033 3.41195 47.8033 3.85995C47.8033 4.30795 47.7333 4.70928 47.5933 5.06395C47.4533 5.41861 47.2526 5.72195 46.9913 5.97395C46.73 6.21661 46.4173 6.40328 46.0533 6.53395C45.6893 6.65528 45.2833 6.71595 44.8353 6.71595H41.3493V10.9999H40.3973V1.00395ZM44.6253 5.90395C45.2879 5.90395 45.8246 5.73595 46.2353 5.39995C46.6459 5.06395 46.8513 4.55061 46.8513 3.85995C46.8513 3.16928 46.6459 2.65595 46.2353 2.31995C45.8246 1.98395 45.2879 1.81595 44.6253 1.81595H41.3493V5.90395H44.6253Z" fill="black"/>
<path d="M53.4016 11.1959C52.6176 11.1959 51.927 11.0559 51.3296 10.7759C50.7416 10.4866 50.2516 10.1039 49.8596 9.62795C49.4676 9.15195 49.1736 8.60128 48.9776 7.97595C48.7816 7.35061 48.6836 6.69261 48.6836 6.00195C48.6836 5.32061 48.7816 4.66728 48.9776 4.04195C49.1736 3.40728 49.4676 2.85195 49.8596 2.37595C50.2516 1.89061 50.7416 1.50795 51.3296 1.22795C51.927 0.938613 52.6176 0.793946 53.4016 0.793946C54.1856 0.793946 54.8716 0.938613 55.4596 1.22795C56.0476 1.50795 56.5376 1.89061 56.9296 2.37595C57.3216 2.85195 57.6156 3.40728 57.8116 4.04195C58.0076 4.66728 58.1056 5.32061 58.1056 6.00195C58.1056 6.69261 58.0076 7.35061 57.8116 7.97595C57.6156 8.60128 57.3216 9.15195 56.9296 9.62795C56.5376 10.1039 56.0476 10.4866 55.4596 10.7759C54.8716 11.0559 54.1856 11.1959 53.4016 11.1959ZM53.4016 10.3979C54.055 10.3979 54.6196 10.2719 55.0956 10.0199C55.5716 9.76795 55.959 9.43661 56.2576 9.02595C56.5656 8.60595 56.7896 8.13461 56.9296 7.61195C57.079 7.08928 57.1536 6.55261 57.1536 6.00195C57.1536 5.46061 57.079 4.92861 56.9296 4.40595C56.7896 3.87395 56.5656 3.40261 56.2576 2.99195C55.959 2.57195 55.5716 2.23595 55.0956 1.98395C54.6196 1.73195 54.055 1.60595 53.4016 1.60595C52.739 1.60595 52.1696 1.73195 51.6936 1.98395C51.2176 2.23595 50.8256 2.57195 50.5176 2.99195C50.219 3.40261 49.995 3.87395 49.8456 4.40595C49.7056 4.92861 49.6356 5.46061 49.6356 6.00195C49.6356 6.55261 49.7056 7.08928 49.8456 7.61195C49.995 8.13461 50.219 8.60595 50.5176 9.02595C50.8256 9.43661 51.2176 9.76795 51.6936 10.0199C52.1696 10.2719 52.739 10.3979 53.4016 10.3979Z" fill="black"/>
<path d="M62.9666 5.31595L58.8226 1.00395L60.1106 1.00395L65.0386 6.26795V1.00395L65.9906 1.00395V6.26795L70.9186 1.00395L72.2066 1.00395L68.0626 5.31595L72.5566 10.9999H71.3246L67.3906 6.01595L65.9906 7.47195V10.9999H65.0386V7.47195L63.6386 6.01595L59.7046 10.9999H58.4726L62.9666 5.31595Z" fill="black"/>
<path d="M73.4559 1.00395H74.4079V5.34395H80.3439V1.00395L81.2959 1.00395V10.9999H80.3439V6.15595H74.4079V10.9999H73.4559V1.00395Z" fill="black"/>
<path d="M87.4993 11.1959C86.7153 11.1959 86.0246 11.0559 85.4273 10.7759C84.8393 10.4866 84.3493 10.1039 83.9573 9.62795C83.5653 9.15195 83.2713 8.60128 83.0753 7.97595C82.8793 7.35061 82.7813 6.69261 82.7813 6.00195C82.7813 5.32061 82.8793 4.66728 83.0753 4.04195C83.2713 3.40728 83.5653 2.85195 83.9573 2.37595C84.3493 1.89061 84.8393 1.50795 85.4273 1.22795C86.0246 0.938613 86.7153 0.793946 87.4993 0.793946C88.2833 0.793946 88.9693 0.938613 89.5573 1.22795C90.1453 1.50795 90.6353 1.89061 91.0273 2.37595C91.4193 2.85195 91.7133 3.40728 91.9093 4.04195C92.1053 4.66728 92.2033 5.32061 92.2033 6.00195C92.2033 6.69261 92.1053 7.35061 91.9093 7.97595C91.7133 8.60128 91.4193 9.15195 91.0273 9.62795C90.6353 10.1039 90.1453 10.4866 89.5573 10.7759C88.9693 11.0559 88.2833 11.1959 87.4993 11.1959ZM87.4993 10.3979C88.1526 10.3979 88.7173 10.2719 89.1933 10.0199C89.6693 9.76795 90.0566 9.43661 90.3553 9.02595C90.6633 8.60595 90.8873 8.13461 91.0273 7.61195C91.1766 7.08928 91.2513 6.55261 91.2513 6.00195C91.2513 5.46061 91.1766 4.92861 91.0273 4.40595C90.8873 3.87395 90.6633 3.40261 90.3553 2.99195C90.0566 2.57195 89.6693 2.23595 89.1933 1.98395C88.7173 1.73195 88.1526 1.60595 87.4993 1.60595C86.8366 1.60595 86.2673 1.73195 85.7913 1.98395C85.3153 2.23595 84.9233 2.57195 84.6153 2.99195C84.3166 3.40261 84.0926 3.87395 83.9433 4.40595C83.8033 4.92861 83.7333 5.46061 83.7333 6.00195C83.7333 6.55261 83.8033 7.08928 83.9433 7.61195C84.0926 8.13461 84.3166 8.60595 84.6153 9.02595C84.9233 9.43661 85.3153 9.76795 85.7913 10.0199C86.2673 10.2719 86.8366 10.3979 87.4993 10.3979Z" fill="black"/>
<path d="M95.1322 11.4199C95.1322 11.8306 95.0342 12.1573 94.8382 12.3999C94.6516 12.6519 94.4089 12.8246 94.1103 12.9179V12.3999C94.2223 12.3253 94.3296 12.2226 94.4323 12.0919C94.5349 11.9613 94.5863 11.7559 94.5863 11.4759V10.9999H94.1103V9.76795H95.1322V11.4199Z" fill="black"/>
<path d="M2.09066 21.0039H8.26466V21.8159H3.04266L3.04266 30.9999H2.09066V21.0039Z" fill="black"/>
<path d="M13.3841 31.1959C12.6001 31.1959 11.9094 31.0559 11.3121 30.7759C10.7241 30.4866 10.2341 30.1039 9.84206 29.6279C9.45006 29.1519 9.15606 28.6013 8.96006 27.9759C8.76406 27.3506 8.66606 26.6926 8.66606 26.0019C8.66606 25.3206 8.76406 24.6673 8.96006 24.0419C9.15606 23.4073 9.45006 22.8519 9.84206 22.3759C10.2341 21.8906 10.7241 21.5079 11.3121 21.2279C11.9094 20.9386 12.6001 20.7939 13.3841 20.7939C14.1681 20.7939 14.8541 20.9386 15.4421 21.2279C16.0301 21.5079 16.5201 21.8906 16.9121 22.3759C17.3041 22.8519 17.5981 23.4073 17.7941 24.0419C17.9901 24.6673 18.0881 25.3206 18.0881 26.0019C18.0881 26.6926 17.9901 27.3506 17.7941 27.9759C17.5981 28.6013 17.3041 29.1519 16.9121 29.6279C16.5201 30.1039 16.0301 30.4866 15.4421 30.7759C14.8541 31.0559 14.1681 31.1959 13.3841 31.1959ZM13.3841 30.3979C14.0374 30.3979 14.6021 30.2719 15.0781 30.0199C15.5541 29.7679 15.9414 29.4366 16.2401 29.0259C16.5481 28.6059 16.7721 28.1346 16.9121 27.6119C17.0614 27.0893 17.1361 26.5526 17.1361 26.0019C17.1361 25.4606 17.0614 24.9286 16.9121 24.4059C16.7721 23.8739 16.5481 23.4026 16.2401 22.9919C15.9414 22.5719 15.5541 22.2359 15.0781 21.9839C14.6021 21.7319 14.0374 21.6059 13.3841 21.6059C12.7214 21.6059 12.1521 21.7319 11.6761 21.9839C11.2001 22.2359 10.8081 22.5719 10.5001 22.9919C10.2014 23.4026 9.9774 23.8739 9.82806 24.4059C9.68806 24.9286 9.61806 25.4606 9.61806 26.0019C9.61806 26.5526 9.68806 27.0893 9.82806 27.6119C9.9774 28.1346 10.2014 28.6059 10.5001 29.0259C10.8081 29.4366 11.2001 29.7679 11.6761 30.0199C12.1521 30.2719 12.7214 30.3979 13.3841 30.3979Z" fill="black"/>
<path d="M19.575 21.0039H24.013C24.461 21.0039 24.867 21.0693 25.231 21.1999C25.595 21.3213 25.9077 21.5079 26.169 21.7599C26.4304 22.0026 26.631 22.3013 26.771 22.6559C26.911 23.0106 26.981 23.4119 26.981 23.8599C26.981 24.3079 26.911 24.7093 26.771 25.0639C26.631 25.4186 26.4304 25.7219 26.169 25.9739C25.9077 26.2166 25.595 26.4033 25.231 26.5339C24.867 26.6553 24.461 26.7159 24.013 26.7159H20.527V30.9999H19.575V21.0039ZM23.803 25.9039C24.4657 25.9039 25.0024 25.7359 25.413 25.3999C25.8237 25.0639 26.029 24.5506 26.029 23.8599C26.029 23.1693 25.8237 22.6559 25.413 22.3199C25.0024 21.9839 24.4657 21.8159 23.803 21.8159H20.527V25.9039H23.803Z" fill="black"/>
<path d="M30.8574 26.6599C30.4467 26.6413 30.064 26.5666 29.7094 26.4359C29.364 26.3053 29.0607 26.1233 28.7994 25.8899C28.5474 25.6566 28.3467 25.3766 28.1974 25.0499C28.0574 24.7139 27.9874 24.3266 27.9874 23.8879C27.9874 23.4399 28.0574 23.0386 28.1974 22.6839C28.3374 22.3293 28.538 22.0306 28.7994 21.7879C29.07 21.5359 29.3874 21.3446 29.7514 21.2139C30.1247 21.0739 30.5447 21.0039 31.0114 21.0039H35.1974V30.9999H34.2454V26.7159H32.0054L28.6734 30.9999H27.4414L30.8574 26.6599ZM34.2454 25.9039V21.8159H31.2214C30.5214 21.8159 29.966 22.0026 29.5554 22.3759C29.1447 22.7399 28.9394 23.2439 28.9394 23.8879C28.9394 24.5319 29.1447 25.0313 29.5554 25.3859C29.966 25.7313 30.5214 25.9039 31.2214 25.9039H34.2454Z" fill="black"/>
<path d="M43.0637 26.4499C42.9237 26.4873 42.7277 26.5293 42.4757 26.5759C42.2237 26.6226 41.9484 26.6693 41.6497 26.7159C41.3604 26.7533 41.0664 26.7906 40.7677 26.8279C40.4784 26.8559 40.2217 26.8699 39.9977 26.8699C39.2791 26.8699 38.7051 26.7859 38.2757 26.6179C37.8557 26.4406 37.5337 26.2166 37.3097 25.9459C37.0857 25.6659 36.9411 25.3579 36.8757 25.0219C36.8104 24.6766 36.7777 24.3359 36.7777 23.9999V21.0039H37.7297V23.9439C37.7297 24.1493 37.7484 24.3733 37.7857 24.6159C37.8231 24.8586 37.9164 25.0873 38.0657 25.3019C38.2151 25.5073 38.4297 25.6846 38.7097 25.8339C38.9991 25.9739 39.3957 26.0439 39.8997 26.0439C40.1984 26.0439 40.5064 26.0299 40.8237 26.0019C41.1504 25.9646 41.4584 25.9273 41.7477 25.8899C42.0371 25.8433 42.2937 25.7966 42.5177 25.7499C42.7511 25.7033 42.9331 25.6659 43.0637 25.6379V21.0039H44.0157V30.9999H43.0637V26.4499Z" fill="black"/>
<path d="M50.2161 31.1959C49.4321 31.1959 48.7414 31.0559 48.1441 30.7759C47.5561 30.4866 47.0661 30.1039 46.6741 29.6279C46.2821 29.1519 45.9881 28.6013 45.7921 27.9759C45.5961 27.3506 45.4981 26.6926 45.4981 26.0019C45.4981 25.3206 45.5961 24.6673 45.7921 24.0419C45.9881 23.4073 46.2821 22.8519 46.6741 22.3759C47.0661 21.8906 47.5561 21.5079 48.1441 21.2279C48.7414 20.9386 49.4321 20.7939 50.2161 20.7939C51.0001 20.7939 51.6861 20.9386 52.2741 21.2279C52.8621 21.5079 53.3521 21.8906 53.7441 22.3759C54.1361 22.8519 54.4301 23.4073 54.6261 24.0419C54.8221 24.6673 54.9201 25.3206 54.9201 26.0019C54.9201 26.6926 54.8221 27.3506 54.6261 27.9759C54.4301 28.6013 54.1361 29.1519 53.7441 29.6279C53.3521 30.1039 52.8621 30.4866 52.2741 30.7759C51.6861 31.0559 51.0001 31.1959 50.2161 31.1959ZM50.2161 30.3979C50.8694 30.3979 51.4341 30.2719 51.9101 30.0199C52.3861 29.7679 52.7734 29.4366 53.0721 29.0259C53.3801 28.6059 53.6041 28.1346 53.7441 27.6119C53.8934 27.0893 53.9681 26.5526 53.9681 26.0019C53.9681 25.4606 53.8934 24.9286 53.7441 24.4059C53.6041 23.8739 53.3801 23.4026 53.0721 22.9919C52.7734 22.5719 52.3861 22.2359 51.9101 21.9839C51.4341 21.7319 50.8694 21.6059 50.2161 21.6059C49.5534 21.6059 48.9841 21.7319 48.5081 21.9839C48.0321 22.2359 47.6401 22.5719 47.3321 22.9919C47.0334 23.4026 46.8094 23.8739 46.6601 24.4059C46.5201 24.9286 46.4501 25.4606 46.4501 26.0019C46.4501 26.5526 46.5201 27.0893 46.6601 27.6119C46.8094 28.1346 47.0334 28.6059 47.3321 29.0259C47.6401 29.4366 48.0321 29.7679 48.5081 30.0199C48.9841 30.2719 49.5534 30.3979 50.2161 30.3979Z" fill="black"/>
<path d="M2.11866 50.9999L2.11866 40.9199H3.07066V45.2459H9.03466V40.9199H9.98666V50.9999H9.03466V46.0579H3.07066V50.9999H2.11866Z" fill="black"/>
<path d="M11.8442 45.9739C11.8442 45.2366 11.9422 44.5459 12.1382 43.9019C12.3435 43.2579 12.6422 42.6979 13.0342 42.2219C13.4262 41.7366 13.9115 41.3539 14.4902 41.0739C15.0688 40.7939 15.7362 40.6539 16.4922 40.6539C17.2762 40.6539 17.9622 40.7939 18.5502 41.0739C19.1475 41.3446 19.6422 41.7226 20.0342 42.2079C20.4355 42.6839 20.7342 43.2486 20.9302 43.9019C21.1355 44.5459 21.2382 45.2366 21.2382 45.9739C21.2382 46.7019 21.1355 47.3879 20.9302 48.0319C20.7342 48.6666 20.4402 49.2266 20.0482 49.7119C19.6562 50.1879 19.1662 50.5659 18.5782 50.8459C17.9902 51.1259 17.3088 51.2659 16.5342 51.2659C15.7595 51.2659 15.0782 51.1259 14.4902 50.8459C13.9022 50.5659 13.4122 50.1879 13.0202 49.7119C12.6282 49.2266 12.3342 48.6666 12.1382 48.0319C11.9422 47.3879 11.8442 46.7019 11.8442 45.9739ZM16.5482 50.4539C17.2015 50.4539 17.7615 50.3326 18.2282 50.0899C18.7042 49.8379 19.0915 49.5066 19.3902 49.0959C19.6982 48.6853 19.9222 48.2093 20.0622 47.6679C20.2115 47.1266 20.2862 46.5619 20.2862 45.9739C20.2862 45.2739 20.1975 44.6486 20.0202 44.0979C19.8522 43.5379 19.6048 43.0619 19.2782 42.6699C18.9515 42.2779 18.5548 41.9793 18.0882 41.7739C17.6215 41.5686 17.0988 41.4659 16.5202 41.4659C15.8762 41.4659 15.3162 41.5919 14.8402 41.8439C14.3735 42.0959 13.9862 42.4319 13.6782 42.8519C13.3795 43.2626 13.1555 43.7386 13.0062 44.2799C12.8662 44.8213 12.7962 45.3859 12.7962 45.9739C12.7962 46.5713 12.8662 47.1406 13.0062 47.6819C13.1555 48.2233 13.3795 48.6993 13.6782 49.1099C13.9862 49.5206 14.3735 49.8473 14.8402 50.0899C15.3162 50.3326 15.8855 50.4539 16.5482 50.4539Z" fill="black"/>
<path d="M22.2227 40.9199H29.5587V41.7319H26.3667V50.9999H25.4147V41.7319H22.2227V40.9199Z" fill="black"/>
<path d="M35.7604 42.2079H35.7324V50.9999H34.7804V40.9199H35.8584L41.6824 49.7259H41.7104V40.9199H42.6624V50.9999H41.5564L35.7604 42.2079Z" fill="black"/>
<path d="M44.912 50.9999V40.9199H51.618V41.7319H45.864V45.3719H51.058V46.1839H45.864V50.1879H51.758V50.9999H44.912Z" fill="black"/>
<path d="M61.3806 49.6559H61.4085L63.6065 40.9199H64.5865L61.9405 50.9999H60.8905L58.5525 42.0959H58.5245L56.1865 50.9999H55.1365L52.5325 40.9199H53.4845L55.6545 49.6559H55.6825L58.0205 40.9199H59.0845L61.3806 49.6559Z" fill="black"/>
<path d="M66.304 47.9899C66.3413 48.4379 66.4393 48.8206 66.598 49.1379C66.766 49.4459 66.976 49.6979 67.228 49.8939C67.4893 50.0899 67.788 50.2346 68.124 50.3279C68.46 50.4119 68.8193 50.4539 69.202 50.4539C69.65 50.4539 70.0373 50.3979 70.364 50.2859C70.6906 50.1739 70.9566 50.0246 71.162 49.8379C71.3673 49.6419 71.5166 49.4179 71.61 49.1659C71.7126 48.9139 71.764 48.6479 71.764 48.3679C71.764 47.9759 71.6753 47.6586 71.498 47.4159C71.3206 47.1733 71.0873 46.9773 70.798 46.8279C70.518 46.6693 70.1913 46.5433 69.818 46.4499C69.454 46.3566 69.076 46.2679 68.684 46.1839C68.3013 46.0906 67.9233 45.9833 67.55 45.8619C67.186 45.7406 66.8593 45.5773 66.57 45.3719C66.29 45.1666 66.0613 44.9053 65.884 44.5879C65.7066 44.2613 65.618 43.8506 65.618 43.3559C65.618 43.0106 65.688 42.6746 65.828 42.3479C65.9773 42.0213 66.192 41.7319 66.472 41.4799C66.7613 41.2279 67.1206 41.0273 67.55 40.8779C67.9793 40.7286 68.474 40.6539 69.034 40.6539C69.6033 40.6539 70.098 40.7333 70.518 40.8919C70.9473 41.0506 71.302 41.2699 71.582 41.5499C71.862 41.8206 72.072 42.1379 72.212 42.5019C72.352 42.8659 72.422 43.2533 72.422 43.6639H71.512C71.512 43.2813 71.442 42.9499 71.302 42.6699C71.1713 42.3899 70.9893 42.1613 70.756 41.9839C70.5226 41.8066 70.2566 41.6759 69.958 41.5919C69.6593 41.5079 69.3513 41.4659 69.034 41.4659C68.5486 41.4659 68.138 41.5359 67.802 41.6759C67.4753 41.8066 67.214 41.9793 67.018 42.1939C66.822 42.4086 66.6866 42.6466 66.612 42.9079C66.5373 43.1693 66.5233 43.4306 66.57 43.6919C66.626 44.0186 66.7566 44.2799 66.962 44.4759C67.1673 44.6719 67.4193 44.8353 67.718 44.9659C68.0166 45.0873 68.3433 45.1899 68.698 45.2739C69.062 45.3486 69.4306 45.4326 69.804 45.5259C70.1773 45.6099 70.5366 45.7126 70.882 45.8339C71.2366 45.9553 71.5493 46.1186 71.82 46.3239C72.0906 46.5293 72.3053 46.7953 72.464 47.1219C72.632 47.4393 72.716 47.8406 72.716 48.3259C72.716 49.2593 72.394 49.9826 71.75 50.4959C71.106 51.0093 70.2006 51.2659 69.034 51.2659C68.5113 51.2659 68.026 51.1959 67.578 51.0559C67.13 50.9253 66.7426 50.7246 66.416 50.4539C66.0893 50.1739 65.8326 49.8333 65.646 49.4319C65.4686 49.0213 65.38 48.5406 65.38 47.9899H66.304Z" fill="black"/>
<path d="M75.1565 44.0559V40.9199H76.1786V44.0559L75.9826 48.4659H75.3525L75.1565 44.0559ZM75.1565 50.9999V49.7679H76.1786V50.9999H75.1565Z" fill="black"/>
<path d="M0.998657 12.3999L96.5742 12.3999V13.0999L0.998657 13.0999L0.998657 12.3999ZM0.998657 32.3999H55.3961V33.0999H0.998657L0.998657 32.3999ZM0.998657 52.3999H77.9986V53.0999H0.998657L0.998657 52.3999Z" fill="black"/>
</svg>
