<svg width="103" height="144" viewBox="0 0 103 144" fill="none" xmlns="http://www.w3.org/2000/svg">
<path d="M5.19822 9.74588C4.47022 9.73655 3.81689 9.63388 3.23822 9.43788C2.65955 9.24188 2.16489 8.96655 1.75422 8.61188C1.35289 8.24788 1.04022 7.81388 0.816218 7.30988C0.601552 6.79655 0.494218 6.22255 0.494218 5.58788C0.494218 4.97188 0.601552 4.41188 0.816218 3.90788C1.03089 3.40388 1.33889 2.97455 1.74022 2.61988C2.15089 2.25588 2.64555 1.97588 3.22422 1.77988C3.80289 1.57455 4.46089 1.46255 5.19822 1.44388V0.379883L6.15022 0.379883V1.44388C6.88755 1.46255 7.54555 1.57455 8.12422 1.77988C8.70289 1.97588 9.19289 2.25588 9.59422 2.61988C10.0049 2.97455 10.3176 3.40388 10.5322 3.90788C10.7469 4.41188 10.8542 4.97188 10.8542 5.58788C10.8542 6.22255 10.7422 6.79655 10.5182 7.30988C10.3036 7.81388 9.99089 8.24788 9.58022 8.61188C9.17889 8.96655 8.68889 9.24188 8.11022 9.43788C7.53155 9.63388 6.87822 9.73655 6.15022 9.74588V11.0059H5.19822V9.74588ZM5.19822 2.22788C3.93822 2.28388 2.99555 2.59655 2.37022 3.16588C1.74489 3.73522 1.43222 4.54255 1.43222 5.58788C1.43222 6.62388 1.74955 7.43122 2.38422 8.00988C3.01889 8.57922 3.95689 8.90122 5.19822 8.97588V2.22788ZM6.15022 8.97588C7.39155 8.90122 8.32955 8.57922 8.96422 8.00988C9.59889 7.43122 9.91622 6.62388 9.91622 5.58788C9.91622 4.54255 9.60355 3.73522 8.97822 3.16588C8.35289 2.59655 7.41022 2.28388 6.15022 2.22788V8.97588Z" fill="black"/>
<path d="M12.2795 0.673882L13.2315 0.673882V9.64788L18.9715 0.673883H20.2035V10.6699H19.2515V1.69588L13.5115 10.6699H12.2795V0.673882Z" fill="black"/>
<path d="M22.2189 0.673883H23.1709V6.04988L28.9809 0.673883H30.2689L25.8029 4.80388L30.4789 10.6699L29.2469 10.6699L25.0889 5.46188L23.1709 7.23988V10.6699H22.2189V0.673883Z" fill="black"/>
<path d="M32.2211 10.7819C31.9971 10.7819 31.7917 10.7679 31.6051 10.7399C31.4277 10.7119 31.2877 10.6792 31.1851 10.6419V9.80188C31.3064 9.84855 31.4511 9.89055 31.6191 9.92788C31.7871 9.95588 31.9831 9.96988 32.2071 9.96988C32.5617 9.96988 32.8557 9.85788 33.0891 9.63388C33.3317 9.40988 33.5651 9.05988 33.7891 8.58388L33.9151 8.31788L30.2051 0.673883L31.2271 0.673883L34.4751 7.30988L37.6391 0.673883H38.6471L34.7131 8.82188C34.5077 9.25122 34.3071 9.59655 34.1111 9.85788C33.9151 10.1099 33.7144 10.3059 33.5091 10.4459C33.3131 10.5859 33.1077 10.6746 32.8931 10.7119C32.6877 10.7586 32.4637 10.7819 32.2211 10.7819Z" fill="black"/>
<path d="M43.7695 10.8659C42.9855 10.8659 42.2949 10.7259 41.6975 10.4459C41.1095 10.1566 40.6195 9.77388 40.2275 9.29788C39.8355 8.82188 39.5415 8.27122 39.3455 7.64588C39.1495 7.02055 39.0515 6.36255 39.0515 5.67188C39.0515 4.99055 39.1495 4.33722 39.3455 3.71188C39.5415 3.07722 39.8355 2.52188 40.2275 2.04588C40.6195 1.56055 41.1095 1.17788 41.6975 0.897883C42.2949 0.60855 42.9855 0.463883 43.7695 0.463883C44.2455 0.463883 44.7075 0.533883 45.1555 0.673883C45.6129 0.813883 46.0235 1.02388 46.3875 1.30388C46.7609 1.57455 47.0689 1.91055 47.3115 2.31188C47.5635 2.71322 47.7222 3.17522 47.7875 3.69788H46.8355C46.7515 3.31522 46.6115 2.97455 46.4155 2.67588C46.2289 2.36788 45.9955 2.11122 45.7155 1.90588C45.4449 1.70055 45.1415 1.54655 44.8055 1.44388C44.4789 1.33188 44.1335 1.27588 43.7695 1.27588C43.1069 1.27588 42.5375 1.40188 42.0615 1.65388C41.5855 1.90588 41.1935 2.24188 40.8855 2.66188C40.5869 3.07255 40.3629 3.54388 40.2135 4.07588C40.0735 4.59855 40.0035 5.13055 40.0035 5.67188C40.0035 6.22255 40.0735 6.75922 40.2135 7.28188C40.3629 7.80455 40.5869 8.27588 40.8855 8.69588C41.1935 9.10655 41.5855 9.43788 42.0615 9.68988C42.5375 9.94188 43.1069 10.0679 43.7695 10.0679C44.2269 10.0679 44.6422 9.98388 45.0155 9.81588C45.3982 9.64788 45.7249 9.41922 45.9955 9.12988C46.2662 8.84055 46.4855 8.50455 46.6535 8.12188C46.8215 7.72988 46.9289 7.30988 46.9755 6.86188H47.9275C47.8622 7.47788 47.7175 8.03322 47.4935 8.52788C47.2695 9.02255 46.9802 9.44255 46.6255 9.78788C46.2709 10.1332 45.8509 10.3992 45.3655 10.5859C44.8895 10.7725 44.3575 10.8659 43.7695 10.8659Z" fill="black"/>
<path d="M53.2814 0.673883L57.5094 0.673883C57.9294 0.673883 58.3308 0.715883 58.7134 0.799883C59.1054 0.87455 59.4461 1.00988 59.7354 1.20588C60.0341 1.39255 60.2721 1.64455 60.4494 1.96188C60.6268 2.26988 60.7154 2.65722 60.7154 3.12388C60.7154 3.38522 60.6734 3.64188 60.5894 3.89388C60.5054 4.13655 60.3841 4.36055 60.2254 4.56588C60.0761 4.76188 59.8941 4.92988 59.6794 5.06988C59.4741 5.20988 59.2408 5.30788 58.9794 5.36388V5.39188C59.6234 5.47588 60.1368 5.74188 60.5194 6.18988C60.9021 6.62855 61.0934 7.17455 61.0934 7.82788C61.0934 8.07055 61.0561 8.35522 60.9814 8.68188C60.9161 8.99922 60.7621 9.30722 60.5194 9.60588C60.2768 9.90455 59.9174 10.1565 59.4414 10.3619C58.9654 10.5672 58.3214 10.6699 57.5094 10.6699H53.2814V0.673883ZM57.5094 9.85788C57.8641 9.85788 58.2001 9.82988 58.5174 9.77388C58.8348 9.70855 59.1148 9.59655 59.3574 9.43788C59.6001 9.27922 59.7914 9.06922 59.9314 8.80788C60.0714 8.54655 60.1414 8.21055 60.1414 7.79988C60.1414 7.15588 59.9128 6.67522 59.4554 6.35788C59.0074 6.03122 58.3588 5.86788 57.5094 5.86788H54.2334V9.85788H57.5094ZM57.5094 5.05588C57.8828 5.05588 58.2094 5.01388 58.4894 4.92988C58.7788 4.83655 59.0168 4.71522 59.2034 4.56588C59.3901 4.40722 59.5301 4.22522 59.6234 4.01988C59.7168 3.81455 59.7634 3.59522 59.7634 3.36188C59.7634 2.11122 59.0121 1.48588 57.5094 1.48588H54.2334V5.05588H57.5094Z" fill="black"/>
<path d="M62.6193 0.673883H63.5713V4.90188H67.0573C67.9907 4.90188 68.7187 5.15855 69.2413 5.67188C69.764 6.18522 70.0253 6.88988 70.0253 7.78588C70.0253 8.68188 69.764 9.38655 69.2413 9.89988C68.7187 10.4132 67.9907 10.6699 67.0573 10.6699H62.6193V0.673883ZM66.8473 9.85788C67.5473 9.85788 68.0933 9.67588 68.4853 9.31188C68.8773 8.93855 69.0733 8.42988 69.0733 7.78588C69.0733 7.14188 68.8773 6.63788 68.4853 6.27388C68.0933 5.90055 67.5473 5.71388 66.8473 5.71388H63.5713V9.85788H66.8473ZM71.4953 0.673883H72.4473V10.6699H71.4953V0.673883Z" fill="black"/>
<path d="M74.4592 0.673883L78.8972 0.673883C79.3452 0.673883 79.7512 0.739216 80.1152 0.869883C80.4792 0.991217 80.7918 1.17788 81.0532 1.42988C81.3145 1.67255 81.5152 1.97122 81.6552 2.32588C81.7952 2.68055 81.8652 3.08188 81.8652 3.52988C81.8652 3.97788 81.7952 4.37922 81.6552 4.73388C81.5152 5.08855 81.3145 5.39188 81.0532 5.64388C80.7918 5.88655 80.4792 6.07322 80.1152 6.20388C79.7512 6.32522 79.3452 6.38588 78.8972 6.38588H75.4112V10.6699H74.4592V0.673883ZM78.6872 5.57388C79.3498 5.57388 79.8865 5.40588 80.2972 5.06988C80.7078 4.73388 80.9132 4.22055 80.9132 3.52988C80.9132 2.83922 80.7078 2.32588 80.2972 1.98988C79.8865 1.65388 79.3498 1.48588 78.6872 1.48588H75.4112V5.57388H78.6872Z" fill="black"/>
<path d="M87.4635 10.8659C86.6795 10.8659 85.9889 10.7259 85.3915 10.4459C84.8035 10.1566 84.3135 9.77388 83.9215 9.29788C83.5295 8.82188 83.2355 8.27122 83.0395 7.64588C82.8435 7.02055 82.7455 6.36255 82.7455 5.67188C82.7455 4.99055 82.8435 4.33722 83.0395 3.71188C83.2355 3.07722 83.5295 2.52188 83.9215 2.04588C84.3135 1.56055 84.8035 1.17788 85.3915 0.897884C85.9889 0.60855 86.6795 0.463883 87.4635 0.463883C88.2475 0.463883 88.9335 0.60855 89.5215 0.897884C90.1095 1.17788 90.5995 1.56055 90.9915 2.04588C91.3835 2.52188 91.6775 3.07722 91.8735 3.71188C92.0695 4.33722 92.1675 4.99055 92.1675 5.67188C92.1675 6.36255 92.0695 7.02055 91.8735 7.64588C91.6775 8.27122 91.3835 8.82188 90.9915 9.29788C90.5995 9.77388 90.1095 10.1566 89.5215 10.4459C88.9335 10.7259 88.2475 10.8659 87.4635 10.8659ZM87.4635 10.0679C88.1169 10.0679 88.6815 9.94188 89.1575 9.68988C89.6335 9.43788 90.0209 9.10655 90.3195 8.69588C90.6275 8.27588 90.8515 7.80455 90.9915 7.28188C91.1409 6.75922 91.2155 6.22255 91.2155 5.67188C91.2155 5.13055 91.1409 4.59855 90.9915 4.07588C90.8515 3.54388 90.6275 3.07255 90.3195 2.66188C90.0209 2.24188 89.6335 1.90588 89.1575 1.65388C88.6815 1.40188 88.1169 1.27588 87.4635 1.27588C86.8009 1.27588 86.2315 1.40188 85.7555 1.65388C85.2795 1.90588 84.8875 2.24188 84.5795 2.66188C84.2809 3.07255 84.0569 3.54388 83.9075 4.07588C83.7675 4.59855 83.6975 5.13055 83.6975 5.67188C83.6975 6.22255 83.7675 6.75922 83.9075 7.28188C84.0569 7.80455 84.2809 8.27588 84.5795 8.69588C84.8875 9.10655 85.2795 9.43788 85.7555 9.68988C86.2315 9.94188 86.8009 10.0679 87.4635 10.0679Z" fill="black"/>
<path d="M97.8965 10.8659C97.1125 10.8659 96.4218 10.7259 95.8245 10.4459C95.2365 10.1566 94.7465 9.77388 94.3545 9.29788C93.9625 8.82188 93.6685 8.27122 93.4725 7.64588C93.2765 7.02055 93.1785 6.36255 93.1785 5.67188C93.1785 4.99055 93.2765 4.33722 93.4725 3.71188C93.6685 3.07722 93.9625 2.52188 94.3545 2.04588C94.7465 1.56055 95.2365 1.17788 95.8245 0.897884C96.4218 0.60855 97.1125 0.463883 97.8965 0.463883C98.3725 0.463883 98.8345 0.533883 99.2825 0.673883C99.7398 0.813883 100.15 1.02388 100.514 1.30388C100.888 1.57455 101.196 1.91055 101.438 2.31188C101.69 2.71322 101.849 3.17522 101.914 3.69788H100.962C100.878 3.31522 100.738 2.97455 100.542 2.67588C100.356 2.36788 100.122 2.11122 99.8425 1.90588C99.5718 1.70055 99.2685 1.54655 98.9325 1.44388C98.6058 1.33188 98.2605 1.27588 97.8965 1.27588C97.2338 1.27588 96.6645 1.40188 96.1885 1.65388C95.7125 1.90588 95.3205 2.24188 95.0125 2.66188C94.7138 3.07255 94.4898 3.54388 94.3405 4.07588C94.2005 4.59855 94.1305 5.13055 94.1305 5.67188C94.1305 6.22255 94.2005 6.75922 94.3405 7.28188C94.4898 7.80455 94.7138 8.27588 95.0125 8.69588C95.3205 9.10655 95.7125 9.43788 96.1885 9.68988C96.6645 9.94188 97.2338 10.0679 97.8965 10.0679C98.3538 10.0679 98.7692 9.98388 99.1425 9.81588C99.5252 9.64788 99.8518 9.41922 100.122 9.12988C100.393 8.84055 100.612 8.50455 100.78 8.12188C100.948 7.72988 101.056 7.30988 101.102 6.86188H102.054C101.989 7.47788 101.844 8.03322 101.62 8.52788C101.396 9.02255 101.107 9.44255 100.752 9.78788C100.398 10.1332 99.9778 10.3992 99.4925 10.5859C99.0165 10.7726 98.4845 10.8659 97.8965 10.8659Z" fill="black"/>
<path d="M1.08222 20.6739H5.52022C5.96822 20.6739 6.37422 20.7392 6.73822 20.8699C7.10222 20.9912 7.41489 21.1779 7.67622 21.4299C7.93755 21.6725 8.13822 21.9712 8.27822 22.3259C8.41822 22.6805 8.48822 23.0819 8.48822 23.5299C8.48822 23.9779 8.41822 24.3792 8.27822 24.7339C8.13822 25.0885 7.93755 25.3919 7.67622 25.6439C7.41489 25.8865 7.10222 26.0732 6.73822 26.2039C6.37422 26.3252 5.96822 26.3859 5.52022 26.3859H2.03422L2.03422 30.6699H1.08222V20.6739ZM5.31022 25.5739C5.97289 25.5739 6.50955 25.4059 6.92022 25.0699C7.33089 24.7339 7.53622 24.2205 7.53622 23.5299C7.53622 22.8392 7.33089 22.3259 6.92022 21.9899C6.50955 21.6539 5.97289 21.4859 5.31022 21.4859L2.03422 21.4859V25.5739H5.31022Z" fill="black"/>
<path d="M12.8266 20.6739H13.8906L17.8106 30.6699H16.7886L15.5706 27.5619H11.0206L9.81658 30.6699H8.80858L12.8266 20.6739ZM15.2486 26.7499L13.3166 21.6259L11.3146 26.7499H15.2486Z" fill="black"/>
<path d="M22.2469 30.8799C21.6309 30.8799 21.0756 30.8052 20.5809 30.6559C20.0863 30.4972 19.6663 30.2732 19.3209 29.9839C18.9849 29.6852 18.7236 29.3259 18.5369 28.9059C18.3596 28.4766 18.2709 27.9959 18.2709 27.4639V27.3799H19.1809C19.1809 28.3039 19.4656 28.9899 20.0349 29.4379C20.6043 29.8859 21.3649 30.1099 22.3169 30.1099C22.7369 30.1099 23.1149 30.0492 23.4509 29.9279C23.7869 29.7972 24.0669 29.6246 24.2909 29.4099C24.5243 29.1952 24.7016 28.9479 24.8229 28.6679C24.9536 28.3785 25.0189 28.0752 25.0189 27.7579C25.0189 27.4685 24.9583 27.2072 24.8369 26.9739C24.7249 26.7312 24.5663 26.5259 24.3609 26.3579C24.1556 26.1899 23.9129 26.0592 23.6329 25.9659C23.3623 25.8726 23.0683 25.8259 22.7509 25.8259H21.1549V25.0139H22.7509C23.0123 25.0139 23.2643 24.9765 23.5069 24.9019C23.7496 24.8272 23.9643 24.7199 24.1509 24.5799C24.3376 24.4306 24.4823 24.2485 24.5849 24.0339C24.6969 23.8099 24.7529 23.5532 24.7529 23.2639C24.7529 22.9185 24.6876 22.6199 24.5569 22.3679C24.4356 22.1159 24.2676 21.9105 24.0529 21.7519C23.8383 21.5839 23.5816 21.4625 23.2829 21.3879C22.9843 21.3039 22.6669 21.2619 22.3309 21.2619C21.9389 21.2619 21.5749 21.3085 21.2389 21.4019C20.9029 21.4952 20.6089 21.6399 20.3569 21.8359C20.1143 22.0225 19.9183 22.2605 19.7689 22.5499C19.6289 22.8299 19.5449 23.1565 19.5169 23.5299H18.5929C18.6209 23.0165 18.7283 22.5685 18.9149 22.1859C19.1109 21.8032 19.3723 21.4859 19.6989 21.2339C20.0256 20.9725 20.4083 20.7812 20.8469 20.6599C21.2949 20.5292 21.7803 20.4639 22.3029 20.4639C22.7696 20.4639 23.2083 20.5199 23.6189 20.6319C24.0389 20.7346 24.4029 20.8979 24.7109 21.1219C25.0189 21.3459 25.2616 21.6305 25.4389 21.9759C25.6163 22.3119 25.7049 22.7132 25.7049 23.1799C25.7049 23.4412 25.6629 23.6885 25.5789 23.9219C25.4949 24.1459 25.3829 24.3512 25.2429 24.5379C25.1029 24.7152 24.9443 24.8692 24.7669 24.9999C24.5896 25.1306 24.4123 25.2285 24.2349 25.2939V25.3359C24.7669 25.4759 25.1869 25.7465 25.4949 26.1479C25.8123 26.5399 25.9709 27.0719 25.9709 27.7439C25.9709 28.0519 25.9056 28.3879 25.7749 28.7519C25.6536 29.1159 25.4483 29.4566 25.1589 29.7739C24.8696 30.0912 24.4869 30.3572 24.0109 30.5719C23.5349 30.7772 22.9469 30.8799 22.2469 30.8799Z" fill="black"/>
<path d="M27.4683 20.6739H28.8683L32.3263 29.4379L35.7703 20.6739H37.1703V30.6699H36.2183V22.0319H36.1903L32.7743 30.6699H31.8783L28.4483 22.0319H28.4203V30.6699H27.4683V20.6739Z" fill="black"/>
<path d="M39.1584 20.6739H46.0604V21.4859H40.1104V25.0979H45.6824V25.9099H40.1104V29.8579H46.1304V30.6699H39.1584V20.6739Z" fill="black"/>
<path d="M47.4572 20.6739H51.8952C52.3432 20.6739 52.7492 20.7392 53.1132 20.8699C53.4772 20.9912 53.7899 21.1779 54.0512 21.4299C54.3126 21.6726 54.5132 21.9712 54.6532 22.3259C54.7932 22.6806 54.8632 23.0819 54.8632 23.5299C54.8632 23.9779 54.7932 24.3792 54.6532 24.7339C54.5132 25.0885 54.3126 25.3919 54.0512 25.6439C53.7899 25.8865 53.4772 26.0732 53.1132 26.2039C52.7492 26.3252 52.3432 26.3859 51.8952 26.3859H48.4092V30.6699H47.4572V20.6739ZM51.6852 25.5739C52.3479 25.5739 52.8846 25.4059 53.2952 25.0699C53.7059 24.7339 53.9112 24.2205 53.9112 23.5299C53.9112 22.8392 53.7059 22.3259 53.2952 21.9899C52.8846 21.6539 52.3479 21.4859 51.6852 21.4859H48.4092V25.5739H51.6852Z" fill="black"/>
<path d="M60.4616 30.8659C59.6776 30.8659 58.9869 30.7259 58.3896 30.4459C57.8016 30.1565 57.3116 29.7739 56.9196 29.2979C56.5276 28.8219 56.2336 28.2712 56.0376 27.6459C55.8416 27.0206 55.7436 26.3625 55.7436 25.6719C55.7436 24.9905 55.8416 24.3372 56.0376 23.7119C56.2336 23.0772 56.5276 22.5219 56.9196 22.0459C57.3116 21.5605 57.8016 21.1779 58.3896 20.8979C58.9869 20.6085 59.6776 20.4639 60.4616 20.4639C61.2456 20.4639 61.9316 20.6085 62.5196 20.8979C63.1076 21.1779 63.5976 21.5605 63.9896 22.0459C64.3816 22.5219 64.6756 23.0772 64.8716 23.7119C65.0676 24.3372 65.1656 24.9905 65.1656 25.6719C65.1656 26.3625 65.0676 27.0206 64.8716 27.6459C64.6756 28.2712 64.3816 28.8219 63.9896 29.2979C63.5976 29.7739 63.1076 30.1565 62.5196 30.4459C61.9316 30.7259 61.2456 30.8659 60.4616 30.8659ZM60.4616 30.0679C61.1149 30.0679 61.6796 29.9419 62.1556 29.6899C62.6316 29.4379 63.0189 29.1065 63.3176 28.6959C63.6256 28.2759 63.8496 27.8045 63.9896 27.2819C64.1389 26.7592 64.2136 26.2225 64.2136 25.6719C64.2136 25.1305 64.1389 24.5986 63.9896 24.0759C63.8496 23.5439 63.6256 23.0725 63.3176 22.6619C63.0189 22.2419 62.6316 21.9059 62.1556 21.6539C61.6796 21.4019 61.1149 21.2759 60.4616 21.2759C59.7989 21.2759 59.2296 21.4019 58.7536 21.6539C58.2776 21.9059 57.8856 22.2419 57.5776 22.6619C57.2789 23.0725 57.0549 23.5439 56.9056 24.0759C56.7656 24.5986 56.6956 25.1305 56.6956 25.6719C56.6956 26.2225 56.7656 26.7592 56.9056 27.2819C57.0549 27.8045 57.2789 28.2759 57.5776 28.6959C57.8856 29.1065 58.2776 29.4379 58.7536 29.6899C59.2296 29.9419 59.7989 30.0679 60.4616 30.0679Z" fill="black"/>
<path d="M66.6245 20.6739H68.0245L71.4825 29.4379L74.9265 20.6739H76.3265V30.6699H75.3745V22.0319H75.3465L71.9305 30.6699H71.0345L67.6045 22.0319H67.5765V30.6699H66.6245V20.6739Z" fill="black"/>
<path d="M86.4531 30.8659C85.6691 30.8659 84.9785 30.7259 84.3811 30.4459C83.7931 30.1566 83.3031 29.7739 82.9111 29.2979C82.5191 28.8219 82.2251 28.2712 82.0291 27.6459C81.8331 27.0206 81.7351 26.3625 81.7351 25.6719C81.7351 24.9905 81.8331 24.3372 82.0291 23.7119C82.2251 23.0772 82.5191 22.5219 82.9111 22.0459C83.3031 21.5605 83.7931 21.1779 84.3811 20.8979C84.9785 20.6086 85.6691 20.4639 86.4531 20.4639C86.9291 20.4639 87.3911 20.5339 87.8391 20.6739C88.2965 20.8139 88.7071 21.0239 89.0711 21.3039C89.4445 21.5745 89.7525 21.9106 89.9951 22.3119C90.2471 22.7132 90.4058 23.1752 90.4711 23.6979H89.5191C89.4351 23.3152 89.2951 22.9745 89.0991 22.6759C88.9125 22.3679 88.6791 22.1112 88.3991 21.9059C88.1285 21.7006 87.8251 21.5466 87.4891 21.4439C87.1625 21.3319 86.8171 21.2759 86.4531 21.2759C85.7905 21.2759 85.2211 21.4019 84.7451 21.6539C84.2691 21.9059 83.8771 22.2419 83.5691 22.6619C83.2705 23.0726 83.0465 23.5439 82.8971 24.0759C82.7571 24.5986 82.6871 25.1305 82.6871 25.6719C82.6871 26.2225 82.7571 26.7592 82.8971 27.2819C83.0465 27.8045 83.2705 28.2759 83.5691 28.6959C83.8771 29.1065 84.2691 29.4379 84.7451 29.6899C85.2211 29.9419 85.7905 30.0679 86.4531 30.0679C86.9105 30.0679 87.3258 29.9839 87.6991 29.8159C88.0818 29.6479 88.4085 29.4192 88.6791 29.1299C88.9498 28.8405 89.1691 28.5046 89.3371 28.1219C89.5051 27.7299 89.6125 27.3099 89.6591 26.8619H90.6111C90.5458 27.4779 90.4011 28.0332 90.1771 28.5279C89.9531 29.0226 89.6638 29.4426 89.3091 29.7879C88.9545 30.1332 88.5345 30.3992 88.0491 30.5859C87.5731 30.7726 87.0411 30.8659 86.4531 30.8659Z" fill="black"/>
<path d="M0.0742188 49.8579H1.12422C1.47889 49.2046 1.75422 48.5372 1.95022 47.8559C2.14622 47.1652 2.29089 46.4792 2.38422 45.7979C2.48689 45.1165 2.54755 44.4539 2.56622 43.8099C2.59422 43.1659 2.60822 42.5592 2.60822 41.9899V40.6739H8.79622V49.8579H9.98622V53.3299H9.03422V50.6699H1.02622V53.3299H0.0742188L0.0742188 49.8579ZM7.84422 49.8579V41.4859H3.56022V41.8219C3.56022 42.3819 3.55089 42.9932 3.53222 43.6559C3.52289 44.3092 3.47155 44.9859 3.37822 45.6859C3.28489 46.3859 3.14022 47.0905 2.94422 47.7999C2.75755 48.5092 2.48689 49.1952 2.13222 49.8579H7.84422Z" fill="black"/>
<path d="M15.2897 50.8659C14.5057 50.8659 13.815 50.7259 13.2177 50.4459C12.6297 50.1566 12.1397 49.7739 11.7477 49.2979C11.3557 48.8219 11.0617 48.2712 10.8657 47.6459C10.6697 47.0205 10.5717 46.3625 10.5717 45.6719C10.5717 44.9905 10.6697 44.3372 10.8657 43.7119C11.0617 43.0772 11.3557 42.5219 11.7477 42.0459C12.1397 41.5605 12.6297 41.1779 13.2177 40.8979C13.815 40.6086 14.5057 40.4639 15.2897 40.4639C16.0737 40.4639 16.7597 40.6086 17.3477 40.8979C17.9357 41.1779 18.4257 41.5605 18.8177 42.0459C19.2097 42.5219 19.5037 43.0772 19.6997 43.7119C19.8957 44.3372 19.9937 44.9905 19.9937 45.6719C19.9937 46.3625 19.8957 47.0205 19.6997 47.6459C19.5037 48.2712 19.2097 48.8219 18.8177 49.2979C18.4257 49.7739 17.9357 50.1566 17.3477 50.4459C16.7597 50.7259 16.0737 50.8659 15.2897 50.8659ZM15.2897 50.0679C15.943 50.0679 16.5077 49.9419 16.9837 49.6899C17.4597 49.4379 17.847 49.1066 18.1457 48.6959C18.4537 48.2759 18.6777 47.8045 18.8177 47.2819C18.967 46.7592 19.0417 46.2225 19.0417 45.6719C19.0417 45.1305 18.967 44.5985 18.8177 44.0759C18.6777 43.5439 18.4537 43.0726 18.1457 42.6619C17.847 42.2419 17.4597 41.9059 16.9837 41.6539C16.5077 41.4019 15.943 41.2759 15.2897 41.2759C14.627 41.2759 14.0577 41.4019 13.5817 41.6539C13.1057 41.9059 12.7137 42.2419 12.4057 42.6619C12.107 43.0726 11.883 43.5439 11.7337 44.0759C11.5937 44.5985 11.5237 45.1305 11.5237 45.6719C11.5237 46.2225 11.5937 46.7592 11.7337 47.2819C11.883 47.8045 12.107 48.2759 12.4057 48.6959C12.7137 49.1066 13.1057 49.4379 13.5817 49.6899C14.0577 49.9419 14.627 50.0679 15.2897 50.0679Z" fill="black"/>
<path d="M21.4527 40.6739H22.8527L26.3107 49.4379L29.7547 40.6739H31.1547L31.1547 50.6699H30.2027V42.0319H30.1747L26.7587 50.6699H25.8627L22.4327 42.0319H22.4047L22.4047 50.6699H21.4527V40.6739Z" fill="black"/>
<path d="M33.9548 43.7259V40.5899H34.9768V43.7259L34.7808 48.1359H34.1508L33.9548 43.7259ZM33.9548 50.6699V49.4379H34.9768V50.6699H33.9548Z" fill="black"/>
<path d="M41.7014 40.6739H42.6534V49.8579H47.3854V40.6739H48.3374V49.8579H53.0694V40.6739H54.0214V50.6699H41.7014V40.6739Z" fill="black"/>
<path d="M60.2292 50.8659C59.4452 50.8659 58.7545 50.7259 58.1572 50.4459C57.5692 50.1566 57.0792 49.7739 56.6872 49.2979C56.2952 48.8219 56.0012 48.2712 55.8052 47.6459C55.6092 47.0205 55.5112 46.3625 55.5112 45.6719C55.5112 44.9905 55.6092 44.3372 55.8052 43.7119C56.0012 43.0772 56.2952 42.5219 56.6872 42.0459C57.0792 41.5605 57.5692 41.1779 58.1572 40.8979C58.7545 40.6086 59.4452 40.4639 60.2292 40.4639C61.0132 40.4639 61.6992 40.6086 62.2872 40.8979C62.8752 41.1779 63.3652 41.5605 63.7572 42.0459C64.1492 42.5219 64.4432 43.0772 64.6392 43.7119C64.8352 44.3372 64.9332 44.9905 64.9332 45.6719C64.9332 46.3625 64.8352 47.0205 64.6392 47.6459C64.4432 48.2712 64.1492 48.8219 63.7572 49.2979C63.3652 49.7739 62.8752 50.1566 62.2872 50.4459C61.6992 50.7259 61.0132 50.8659 60.2292 50.8659ZM60.2292 50.0679C60.8825 50.0679 61.4472 49.9419 61.9232 49.6899C62.3992 49.4379 62.7865 49.1066 63.0852 48.6959C63.3932 48.2759 63.6172 47.8045 63.7572 47.2819C63.9065 46.7592 63.9812 46.2225 63.9812 45.6719C63.9812 45.1305 63.9065 44.5985 63.7572 44.0759C63.6172 43.5439 63.3932 43.0726 63.0852 42.6619C62.7865 42.2419 62.3992 41.9059 61.9232 41.6539C61.4472 41.4019 60.8825 41.2759 60.2292 41.2759C59.5665 41.2759 58.9972 41.4019 58.5212 41.6539C58.0452 41.9059 57.6532 42.2419 57.3452 42.6619C57.0465 43.0726 56.8225 43.5439 56.6732 44.0759C56.5332 44.5985 56.4632 45.1305 56.4632 45.6719C56.4632 46.2225 56.5332 46.7592 56.6732 47.2819C56.8225 47.8045 57.0465 48.2759 57.3452 48.6959C57.6532 49.1066 58.0452 49.4379 58.5212 49.6899C58.9972 49.9419 59.5665 50.0679 60.2292 50.0679Z" fill="black"/>
<path d="M66.4201 40.6739H67.3721V46.0499L73.1821 40.6739H74.4701L70.0041 44.8039L74.6801 50.6699H73.4481L69.2901 45.4619L67.3721 47.2399V50.6699H66.4201V40.6739Z" fill="black"/>
<path d="M76.3102 43.7259V40.5899H77.3322V43.7259L77.1362 48.1359H76.5062L76.3102 43.7259ZM76.3102 50.6699V49.4379H77.3322V50.6699H76.3102Z" fill="black"/>
<path d="M80.9723 43.7259V40.5899H81.9943V43.7259L81.7983 48.1359H81.1683L80.9723 43.7259ZM80.9723 50.6699V49.4379H81.9943V50.6699H80.9723Z" fill="black"/>
<path d="M85.6345 43.7259V40.5899H86.6565V43.7259L86.4605 48.1359H85.8305L85.6345 43.7259ZM85.6345 50.6699V49.4379H86.6565V50.6699H85.6345Z" fill="black"/>
<path d="M1.11022 123.489L1.11022 113.409H7.60622V114.221H2.06222V117.861H7.10222V118.673H2.06222V123.489H1.11022Z" fill="black"/>
<path d="M9.32351 123.489V113.409H10.2755V123.489H9.32351Z" fill="black"/>
<path d="M16.79 118.099C17.1447 118.099 17.4713 118.062 17.77 117.987C18.078 117.912 18.344 117.796 18.568 117.637C18.792 117.469 18.9693 117.259 19.1 117.007C19.2307 116.755 19.296 116.452 19.296 116.097C19.296 115.724 19.226 115.416 19.086 115.173C18.9553 114.93 18.7733 114.739 18.54 114.599C18.316 114.459 18.0547 114.361 17.756 114.305C17.4667 114.249 17.1633 114.221 16.846 114.221H13.822V118.099H16.79ZM13.822 118.911V123.489H12.87V113.409H16.818C17.9287 113.409 18.778 113.619 19.366 114.039C19.954 114.45 20.248 115.122 20.248 116.055C20.248 116.69 20.1173 117.194 19.856 117.567C19.604 117.94 19.1887 118.258 18.61 118.519C18.9087 118.622 19.142 118.771 19.31 118.967C19.478 119.163 19.604 119.387 19.688 119.639C19.772 119.891 19.8233 120.157 19.842 120.437C19.87 120.717 19.8887 120.988 19.898 121.249C19.9073 121.632 19.9213 121.949 19.94 122.201C19.968 122.453 19.996 122.658 20.024 122.817C20.0613 122.976 20.1033 123.102 20.15 123.195C20.1967 123.279 20.2527 123.344 20.318 123.391V123.489H19.268C19.1653 123.321 19.0907 123.088 19.044 122.789C19.0067 122.49 18.974 122.178 18.946 121.851C18.9273 121.524 18.9087 121.207 18.89 120.899C18.8807 120.591 18.8573 120.339 18.82 120.143C18.764 119.872 18.6707 119.658 18.54 119.499C18.4187 119.331 18.2693 119.205 18.092 119.121C17.9147 119.037 17.714 118.981 17.49 118.953C17.2753 118.925 17.0513 118.911 16.818 118.911H13.822Z" fill="black"/>
<path d="M22.2219 123.489V113.409H28.9279V114.221H23.1739V117.861H28.3679V118.673H23.1739V122.677H29.0679V123.489H22.2219Z" fill="black"/>
<path d="M31.0745 123.489V122.257H32.0965V123.489H31.0745Z" fill="black"/>
<path d="M34.635 123.489V113.409H38.317C38.9703 113.409 39.507 113.484 39.927 113.633C40.3563 113.782 40.6923 113.988 40.935 114.249C41.187 114.51 41.3596 114.814 41.453 115.159C41.5556 115.495 41.607 115.85 41.607 116.223C41.607 116.783 41.4903 117.245 41.257 117.609C41.033 117.973 40.739 118.262 40.375 118.477C40.011 118.682 39.5956 118.827 39.129 118.911C38.6716 118.995 38.2096 119.037 37.743 119.037H35.587V123.489H34.635ZM37.771 118.225C38.219 118.225 38.6203 118.197 38.975 118.141C39.3296 118.085 39.6283 117.982 39.871 117.833C40.123 117.674 40.3143 117.464 40.445 117.203C40.585 116.932 40.655 116.582 40.655 116.153C40.655 115.518 40.445 115.038 40.025 114.711C39.6143 114.384 38.9563 114.221 38.051 114.221H35.587V118.225H37.771Z" fill="black"/>
<path d="M47.1416 118.099C47.4962 118.099 47.8229 118.062 48.1216 117.987C48.4296 117.912 48.6956 117.796 48.9196 117.637C49.1436 117.469 49.3209 117.259 49.4516 117.007C49.5822 116.755 49.6476 116.452 49.6476 116.097C49.6476 115.724 49.5776 115.416 49.4376 115.173C49.3069 114.93 49.1249 114.739 48.8916 114.599C48.6676 114.459 48.4062 114.361 48.1076 114.305C47.8182 114.249 47.5149 114.221 47.1976 114.221H44.1736V118.099H47.1416ZM44.1736 118.911V123.489H43.2216V113.409H47.1696C48.2802 113.409 49.1296 113.619 49.7176 114.039C50.3056 114.45 50.5996 115.122 50.5996 116.055C50.5996 116.69 50.4689 117.194 50.2076 117.567C49.9556 117.94 49.5402 118.258 48.9616 118.519C49.2602 118.622 49.4936 118.771 49.6616 118.967C49.8296 119.163 49.9556 119.387 50.0396 119.639C50.1236 119.891 50.1749 120.157 50.1936 120.437C50.2216 120.717 50.2402 120.988 50.2496 121.249C50.2589 121.632 50.2729 121.949 50.2916 122.201C50.3196 122.453 50.3476 122.658 50.3756 122.817C50.4129 122.976 50.4549 123.102 50.5016 123.195C50.5482 123.279 50.6042 123.344 50.6696 123.391V123.489H49.6196C49.5169 123.321 49.4422 123.088 49.3956 122.789C49.3582 122.49 49.3256 122.178 49.2976 121.851C49.2789 121.524 49.2602 121.207 49.2416 120.899C49.2322 120.591 49.2089 120.339 49.1716 120.143C49.1156 119.872 49.0222 119.658 48.8916 119.499C48.7702 119.331 48.6209 119.205 48.4436 119.121C48.2662 119.037 48.0656 118.981 47.8416 118.953C47.6269 118.925 47.4029 118.911 47.1696 118.911H44.1736Z" fill="black"/>
<path d="M52.5735 123.489V113.409H59.2795V114.221H53.5255V117.861H58.7195V118.673H53.5255V122.677H59.4195V123.489H52.5735Z" fill="black"/>
<path d="M61.524 120.479C61.5614 120.927 61.6594 121.31 61.818 121.627C61.986 121.935 62.196 122.187 62.448 122.383C62.7094 122.579 63.008 122.724 63.344 122.817C63.68 122.901 64.0394 122.943 64.422 122.943C64.87 122.943 65.2574 122.887 65.584 122.775C65.9107 122.663 66.1767 122.514 66.382 122.327C66.5874 122.131 66.7367 121.907 66.83 121.655C66.9327 121.403 66.984 121.137 66.984 120.857C66.984 120.465 66.8954 120.148 66.718 119.905C66.5407 119.662 66.3074 119.466 66.018 119.317C65.738 119.158 65.4114 119.032 65.038 118.939C64.674 118.846 64.296 118.757 63.904 118.673C63.5214 118.58 63.1434 118.472 62.77 118.351C62.406 118.23 62.0794 118.066 61.79 117.861C61.51 117.656 61.2814 117.394 61.104 117.077C60.9267 116.75 60.838 116.34 60.838 115.845C60.838 115.5 60.908 115.164 61.048 114.837C61.1974 114.51 61.412 114.221 61.692 113.969C61.9814 113.717 62.3407 113.516 62.77 113.367C63.1994 113.218 63.694 113.143 64.254 113.143C64.8234 113.143 65.318 113.222 65.738 113.381C66.1674 113.54 66.522 113.759 66.802 114.039C67.082 114.31 67.292 114.627 67.432 114.991C67.572 115.355 67.642 115.742 67.642 116.153H66.732C66.732 115.77 66.662 115.439 66.522 115.159C66.3914 114.879 66.2094 114.65 65.976 114.473C65.7427 114.296 65.4767 114.165 65.178 114.081C64.8794 113.997 64.5714 113.955 64.254 113.955C63.7687 113.955 63.358 114.025 63.022 114.165C62.6954 114.296 62.434 114.468 62.238 114.683C62.042 114.898 61.9067 115.136 61.832 115.397C61.7574 115.658 61.7434 115.92 61.79 116.181C61.846 116.508 61.9767 116.769 62.182 116.965C62.3874 117.161 62.6394 117.324 62.938 117.455C63.2367 117.576 63.5634 117.679 63.918 117.763C64.282 117.838 64.6507 117.922 65.024 118.015C65.3974 118.099 65.7567 118.202 66.102 118.323C66.4567 118.444 66.7694 118.608 67.04 118.813C67.3107 119.018 67.5254 119.284 67.684 119.611C67.852 119.928 67.936 120.33 67.936 120.815C67.936 121.748 67.614 122.472 66.97 122.985C66.326 123.498 65.4207 123.755 64.254 123.755C63.7314 123.755 63.246 123.685 62.798 123.545C62.35 123.414 61.9627 123.214 61.636 122.943C61.3094 122.663 61.0527 122.322 60.866 121.921C60.6887 121.51 60.6 121.03 60.6 120.479H61.524Z" fill="black"/>
<path d="M70.0826 120.479C70.12 120.927 70.218 121.31 70.3766 121.627C70.5446 121.935 70.7546 122.187 71.0066 122.383C71.268 122.579 71.5666 122.724 71.9026 122.817C72.2386 122.901 72.598 122.943 72.9806 122.943C73.4286 122.943 73.816 122.887 74.1426 122.775C74.4693 122.663 74.7353 122.514 74.9406 122.327C75.146 122.131 75.2953 121.907 75.3886 121.655C75.4913 121.403 75.5426 121.137 75.5426 120.857C75.5426 120.465 75.454 120.148 75.2766 119.905C75.0993 119.662 74.866 119.466 74.5766 119.317C74.2966 119.158 73.97 119.032 73.5966 118.939C73.2326 118.846 72.8546 118.757 72.4626 118.673C72.08 118.58 71.702 118.472 71.3286 118.351C70.9646 118.23 70.638 118.066 70.3486 117.861C70.0686 117.656 69.84 117.394 69.6626 117.077C69.4853 116.75 69.3966 116.34 69.3966 115.845C69.3966 115.5 69.4666 115.164 69.6066 114.837C69.756 114.51 69.9706 114.221 70.2506 113.969C70.54 113.717 70.8993 113.516 71.3286 113.367C71.758 113.218 72.2526 113.143 72.8126 113.143C73.382 113.143 73.8766 113.222 74.2966 113.381C74.726 113.54 75.0806 113.759 75.3606 114.039C75.6406 114.31 75.8506 114.627 75.9906 114.991C76.1306 115.355 76.2006 115.742 76.2006 116.153H75.2906C75.2906 115.77 75.2206 115.439 75.0806 115.159C74.95 114.879 74.768 114.65 74.5346 114.473C74.3013 114.296 74.0353 114.165 73.7366 114.081C73.438 113.997 73.13 113.955 72.8126 113.955C72.3273 113.955 71.9166 114.025 71.5806 114.165C71.254 114.296 70.9926 114.468 70.7966 114.683C70.6006 114.898 70.4653 115.136 70.3906 115.397C70.316 115.658 70.302 115.92 70.3486 116.181C70.4046 116.508 70.5353 116.769 70.7406 116.965C70.946 117.161 71.198 117.324 71.4966 117.455C71.7953 117.576 72.122 117.679 72.4766 117.763C72.8406 117.838 73.2093 117.922 73.5826 118.015C73.956 118.099 74.3153 118.202 74.6606 118.323C75.0153 118.444 75.328 118.608 75.5986 118.813C75.8693 119.018 76.084 119.284 76.2426 119.611C76.4106 119.928 76.4946 120.33 76.4946 120.815C76.4946 121.748 76.1726 122.472 75.5286 122.985C74.8846 123.498 73.9793 123.755 72.8126 123.755C72.29 123.755 71.8046 123.685 71.3566 123.545C70.9086 123.414 70.5213 123.214 70.1946 122.943C69.868 122.663 69.6113 122.322 69.4246 121.921C69.2473 121.51 69.1586 121.03 69.1586 120.479H70.0826Z" fill="black"/>
<path d="M0.298218 133.409H7.63422V134.221H4.44222V143.489L3.49022 143.489L3.49022 134.221H0.298218V133.409Z" fill="black"/>
<path d="M13.2715 139.093V138.281H17.5835V143.489H16.7715V141.767C16.5942 142.066 16.3888 142.341 16.1555 142.593C15.9315 142.836 15.6702 143.046 15.3715 143.223C15.0728 143.391 14.7275 143.522 14.3355 143.615C13.9435 143.708 13.5002 143.755 13.0055 143.755C12.3708 143.755 11.7828 143.643 11.2415 143.419C10.7002 143.195 10.2335 142.864 9.84151 142.425C9.44951 141.977 9.14151 141.417 8.91751 140.745C8.70285 140.073 8.59551 139.289 8.59551 138.393C8.59551 137.656 8.68885 136.97 8.87551 136.335C9.06218 135.691 9.34685 135.136 9.72952 134.669C10.1215 134.193 10.6068 133.82 11.1855 133.549C11.7735 133.278 12.4642 133.143 13.2575 133.143C13.7895 133.143 14.2842 133.208 14.7415 133.339C15.2082 133.47 15.6235 133.67 15.9875 133.941C16.3608 134.202 16.6735 134.534 16.9255 134.935C17.1775 135.327 17.3595 135.794 17.4715 136.335H16.4915C16.4075 135.962 16.2628 135.626 16.0575 135.327C15.8615 135.028 15.6235 134.781 15.3435 134.585C15.0635 134.38 14.7508 134.226 14.4055 134.123C14.0602 134.011 13.7008 133.955 13.3275 133.955C12.6648 133.955 12.0955 134.072 11.6195 134.305C11.1435 134.538 10.7515 134.87 10.4435 135.299C10.1355 135.719 9.90685 136.228 9.75751 136.825C9.61751 137.413 9.54751 138.062 9.54751 138.771C9.54751 139.331 9.62685 139.863 9.78551 140.367C9.95351 140.871 10.1915 141.314 10.4995 141.697C10.8168 142.08 11.1995 142.383 11.6475 142.607C12.1048 142.831 12.6228 142.943 13.2015 142.943C13.4722 142.943 13.7522 142.915 14.0415 142.859C14.3308 142.794 14.6108 142.691 14.8815 142.551C15.1522 142.411 15.4042 142.229 15.6375 142.005C15.8708 141.781 16.0715 141.506 16.2395 141.179C16.3982 140.862 16.5055 140.53 16.5615 140.185C16.6268 139.84 16.6642 139.476 16.6735 139.093H13.2715Z" fill="black"/>
<path d="M20.178 143.489V142.257H21.2V143.489H20.178ZM20.178 137.833V136.601H21.2V137.833H20.178Z" fill="black"/>
<path d="M26.5525 138.659C26.2072 138.659 25.8898 138.701 25.6005 138.785C25.3111 138.869 25.0592 139 24.8445 139.177C24.6298 139.345 24.4618 139.564 24.3405 139.835C24.2191 140.096 24.1585 140.409 24.1585 140.773C24.1585 141.081 24.2145 141.366 24.3265 141.627C24.4478 141.888 24.6111 142.117 24.8165 142.313C25.0311 142.5 25.2878 142.649 25.5865 142.761C25.8945 142.873 26.2352 142.929 26.6085 142.929C26.9352 142.929 27.2385 142.878 27.5185 142.775C27.7985 142.663 28.0411 142.509 28.2465 142.313C28.4611 142.117 28.6245 141.884 28.7365 141.613C28.8578 141.342 28.9185 141.044 28.9185 140.717C28.9185 140.372 28.8578 140.073 28.7365 139.821C28.6152 139.56 28.4471 139.345 28.2325 139.177C28.0178 139 27.7658 138.869 27.4765 138.785C27.1872 138.701 26.8792 138.659 26.5525 138.659ZM26.5105 134.375C26.2305 134.375 25.9692 134.412 25.7265 134.487C25.4838 134.562 25.2691 134.674 25.0825 134.823C24.9051 134.972 24.7651 135.159 24.6625 135.383C24.5598 135.607 24.5085 135.864 24.5085 136.153C24.5085 136.461 24.5645 136.727 24.6765 136.951C24.7978 137.166 24.9565 137.343 25.1525 137.483C25.3485 137.623 25.5725 137.73 25.8245 137.805C26.0765 137.87 26.3378 137.903 26.6085 137.903C26.8792 137.903 27.1311 137.87 27.3645 137.805C27.5978 137.73 27.7985 137.614 27.9665 137.455C28.1345 137.296 28.2652 137.096 28.3585 136.853C28.4612 136.61 28.5125 136.312 28.5125 135.957C28.5125 135.453 28.3492 135.066 28.0225 134.795C27.6958 134.515 27.1918 134.375 26.5105 134.375ZM24.9845 138.183C24.7418 138.034 24.5318 137.894 24.3545 137.763C24.1865 137.623 24.0465 137.474 23.9345 137.315C23.8225 137.156 23.7385 136.979 23.6825 136.783C23.6358 136.578 23.6125 136.326 23.6125 136.027C23.6125 135.691 23.6871 135.374 23.8365 135.075C23.9858 134.776 24.1865 134.52 24.4385 134.305C24.6905 134.081 24.9845 133.908 25.3205 133.787C25.6658 133.666 26.0345 133.61 26.4265 133.619C26.7998 133.619 27.1638 133.666 27.5185 133.759C27.8825 133.852 28.2045 133.997 28.4845 134.193C28.7645 134.389 28.9885 134.641 29.1565 134.949C29.3245 135.248 29.4085 135.607 29.4085 136.027C29.4085 136.54 29.3011 136.979 29.0865 137.343C28.8811 137.707 28.5405 138.006 28.0645 138.239C28.6058 138.435 29.0305 138.748 29.3385 139.177C29.6558 139.606 29.8145 140.11 29.8145 140.689C29.8145 141.174 29.7305 141.604 29.5625 141.977C29.4038 142.35 29.1705 142.663 28.8625 142.915C28.5638 143.167 28.1998 143.358 27.7705 143.489C27.3411 143.62 26.8652 143.685 26.3425 143.685C25.9878 143.685 25.6238 143.624 25.2505 143.503C24.8865 143.382 24.5551 143.2 24.2565 142.957C23.9671 142.714 23.7292 142.411 23.5425 142.047C23.3558 141.683 23.2625 141.258 23.2625 140.773C23.2625 140.185 23.4072 139.662 23.6965 139.205C23.9952 138.738 24.4245 138.398 24.9845 138.183Z" fill="black"/>
<path d="M32.5118 134.697H32.4838V143.489H31.5318V133.409H32.6098L38.4338 142.215H38.4618V133.409H39.4138V143.489H38.3078L32.5118 134.697Z" fill="black"/>
</svg>
