<svg width="12" height="143" viewBox="0 0 12 143" fill="none" xmlns="http://www.w3.org/2000/svg">
<path d="M1.81659 4.823C1.81659 4.095 1.94659 3.45367 2.20659 2.899C2.47526 2.353 2.83059 1.898 3.27259 1.534C3.71459 1.17 4.22592 0.897 4.80659 0.715C5.38726 0.533 5.99826 0.442 6.63959 0.442C7.27226 0.442 7.87892 0.533 8.45959 0.715C9.04892 0.897 9.56459 1.17 10.0066 1.534C10.4573 1.898 10.8126 2.353 11.0726 2.899C11.3413 3.45367 11.4756 4.095 11.4756 4.823C11.4756 5.551 11.3413 6.188 11.0726 6.734C10.8126 7.28 10.4573 7.735 10.0066 8.099C9.56459 8.463 9.04892 8.736 8.45959 8.918C7.87892 9.1 7.27226 9.191 6.63959 9.191C5.99826 9.191 5.38726 9.1 4.80659 8.918C4.22592 8.736 3.71459 8.463 3.27259 8.099C2.83059 7.735 2.47526 7.28 2.20659 6.734C1.94659 6.188 1.81659 5.551 1.81659 4.823ZM2.55759 4.823C2.55759 5.42967 2.67459 5.954 2.90859 6.396C3.14259 6.838 3.45026 7.19767 3.83159 7.475C4.22159 7.761 4.65926 7.969 5.14459 8.099C5.62992 8.23767 6.12826 8.307 6.63959 8.307C7.14226 8.307 7.63626 8.23767 8.12159 8.099C8.61559 7.969 9.05326 7.761 9.43459 7.475C9.82459 7.19767 10.1366 6.838 10.3706 6.396C10.6046 5.954 10.7216 5.42967 10.7216 4.823C10.7216 4.20767 10.6046 3.679 10.3706 3.237C10.1366 2.795 9.82459 2.431 9.43459 2.145C9.05326 1.86767 8.61559 1.65967 8.12159 1.521C7.63626 1.391 7.14226 1.326 6.63959 1.326C6.12826 1.326 5.62992 1.391 5.14459 1.521C4.65926 1.65967 4.22159 1.86767 3.83159 2.145C3.45026 2.431 3.14259 2.795 2.90859 3.237C2.67459 3.679 2.55759 4.20767 2.55759 4.823Z" fill="black"/>
<path d="M1.81659 14.5107C1.81659 13.7827 1.94659 13.1414 2.20659 12.5867C2.47526 12.0407 2.83059 11.5857 3.27259 11.2217C3.71459 10.8577 4.22592 10.5847 4.80659 10.4027C5.38726 10.2207 5.99826 10.1297 6.63959 10.1297C7.27226 10.1297 7.87892 10.2207 8.45959 10.4027C9.04892 10.5847 9.56459 10.8577 10.0066 11.2217C10.4573 11.5857 10.8126 12.0407 11.0726 12.5867C11.3413 13.1414 11.4756 13.7827 11.4756 14.5107C11.4756 14.9527 11.4106 15.3817 11.2806 15.7977C11.1506 16.2224 10.9556 16.6037 10.6956 16.9417C10.4443 17.2884 10.1323 17.5744 9.75959 17.7997C9.38692 18.0337 8.95792 18.1811 8.47259 18.2417L8.47259 17.3577C8.82792 17.2797 9.14426 17.1497 9.42159 16.9677C9.70759 16.7944 9.94592 16.5777 10.1366 16.3177C10.3273 16.0664 10.4703 15.7847 10.5656 15.4727C10.6696 15.1694 10.7216 14.8487 10.7216 14.5107C10.7216 13.8954 10.6046 13.3667 10.3706 12.9247C10.1366 12.4827 9.82459 12.1187 9.43459 11.8327C9.05326 11.5554 8.61559 11.3474 8.12159 11.2087C7.63626 11.0787 7.14226 11.0137 6.63959 11.0137C6.12826 11.0137 5.62992 11.0787 5.14459 11.2087C4.65926 11.3474 4.22159 11.5554 3.83159 11.8327C3.45026 12.1187 3.14259 12.4827 2.90859 12.9247C2.67459 13.3667 2.55759 13.8954 2.55759 14.5107C2.55759 14.9354 2.63559 15.3211 2.79159 15.6677C2.94759 16.0231 3.15992 16.3264 3.42859 16.5777C3.69726 16.8291 4.00926 17.0327 4.36459 17.1887C4.72859 17.3447 5.11859 17.4444 5.53459 17.4877V18.3717C4.96259 18.3111 4.44692 18.1767 3.98759 17.9687C3.52826 17.7607 3.13826 17.4921 2.81759 17.1627C2.49692 16.8334 2.24992 16.4434 2.07659 15.9927C1.90326 15.5507 1.81659 15.0567 1.81659 14.5107Z" fill="black"/>
<path d="M10.5266 21.9611V18.7371H11.2806V26.0821H10.5266V22.8451H1.99859V21.9611H10.5266Z" fill="black"/>
<path d="M1.81659 30.8357C1.81659 30.1077 1.94659 29.4664 2.20659 28.9117C2.47526 28.3657 2.83059 27.9107 3.27259 27.5467C3.71459 27.1827 4.22592 26.9097 4.80659 26.7277C5.38726 26.5457 5.99826 26.4547 6.63959 26.4547C7.27226 26.4547 7.87892 26.5457 8.45959 26.7277C9.04892 26.9097 9.56459 27.1827 10.0066 27.5467C10.4573 27.9107 10.8126 28.3657 11.0726 28.9117C11.3413 29.4664 11.4756 30.1077 11.4756 30.8357C11.4756 31.5637 11.3413 32.2007 11.0726 32.7467C10.8126 33.2927 10.4573 33.7477 10.0066 34.1117C9.56459 34.4757 9.04892 34.7487 8.45959 34.9307C7.87892 35.1127 7.27226 35.2037 6.63959 35.2037C5.99826 35.2037 5.38726 35.1127 4.80659 34.9307C4.22592 34.7487 3.71459 34.4757 3.27259 34.1117C2.83059 33.7477 2.47526 33.2927 2.20659 32.7467C1.94659 32.2007 1.81659 31.5637 1.81659 30.8357ZM2.55759 30.8357C2.55759 31.4424 2.67459 31.9667 2.90859 32.4087C3.14259 32.8507 3.45026 33.2104 3.83159 33.4877C4.22159 33.7737 4.65926 33.9817 5.14459 34.1117C5.62992 34.2504 6.12826 34.3197 6.63959 34.3197C7.14226 34.3197 7.63626 34.2504 8.12159 34.1117C8.61559 33.9817 9.05326 33.7737 9.43459 33.4877C9.82459 33.2104 10.1366 32.8507 10.3706 32.4087C10.6046 31.9667 10.7216 31.4424 10.7216 30.8357C10.7216 30.2204 10.6046 29.6917 10.3706 29.2497C10.1366 28.8077 9.82459 28.4437 9.43459 28.1577C9.05326 27.8804 8.61559 27.6724 8.12159 27.5337C7.63626 27.4037 7.14226 27.3387 6.63959 27.3387C6.12826 27.3387 5.62992 27.4037 5.14459 27.5337C4.65926 27.6724 4.22159 27.8804 3.83159 28.1577C3.45026 28.4437 3.14259 28.8077 2.90859 29.2497C2.67459 29.6917 2.55759 30.2204 2.55759 30.8357Z" fill="black"/>
<path d="M11.2806 36.5844V40.7054C11.2806 41.1214 11.2199 41.4984 11.0986 41.8364C10.9859 42.1744 10.8126 42.4648 10.5786 42.7074C10.3533 42.9501 10.0759 43.1364 9.74659 43.2664C9.41726 43.3964 9.04459 43.4614 8.62859 43.4614C8.21259 43.4614 7.83992 43.3964 7.51059 43.2664C7.18126 43.1364 6.89959 42.9501 6.66559 42.7074C6.44026 42.4648 6.26692 42.1744 6.14559 41.8364C6.03292 41.4984 5.97659 41.1214 5.97659 40.7054L5.97659 37.4684H1.99859V36.5844H11.2806ZM6.73059 40.5104C6.73059 41.1258 6.88659 41.6241 7.19859 42.0054C7.51059 42.3868 7.98726 42.5774 8.62859 42.5774C9.26992 42.5774 9.74659 42.3868 10.0586 42.0054C10.3706 41.6241 10.5266 41.1258 10.5266 40.5104L10.5266 37.4684H6.73059V40.5104Z" fill="black"/>
<path d="M1.81659 48.6599C1.81659 47.9319 1.94659 47.2906 2.20659 46.7359C2.47525 46.1899 2.83059 45.7349 3.27259 45.3709C3.71459 45.0069 4.22592 44.7339 4.80659 44.5519C5.38726 44.3699 5.99826 44.2789 6.63959 44.2789C7.27226 44.2789 7.87892 44.3699 8.45959 44.5519C9.04892 44.7339 9.56459 45.0069 10.0066 45.3709C10.4573 45.7349 10.8126 46.1899 11.0726 46.7359C11.3413 47.2906 11.4756 47.9319 11.4756 48.6599C11.4756 49.3879 11.3413 50.0249 11.0726 50.5709C10.8126 51.1169 10.4573 51.5719 10.0066 51.9359C9.56459 52.2999 9.04892 52.5729 8.45959 52.7549C7.87892 52.9369 7.27225 53.0279 6.63959 53.0279C5.99826 53.0279 5.38725 52.9369 4.80659 52.7549C4.22592 52.5729 3.71459 52.2999 3.27259 51.9359C2.83059 51.5719 2.47525 51.1169 2.20659 50.5709C1.94659 50.0249 1.81659 49.3879 1.81659 48.6599ZM2.55759 48.6599C2.55759 49.2666 2.67459 49.7909 2.90859 50.2329C3.14259 50.6749 3.45025 51.0346 3.83159 51.3119C4.22159 51.5979 4.65926 51.8059 5.14459 51.9359C5.62992 52.0746 6.12825 52.1439 6.63959 52.1439C7.14226 52.1439 7.63626 52.0746 8.12159 51.9359C8.61559 51.8059 9.05325 51.5979 9.43459 51.3119C9.82459 51.0346 10.1366 50.6749 10.3706 50.2329C10.6046 49.7909 10.7216 49.2666 10.7216 48.6599C10.7216 48.0446 10.6046 47.5159 10.3706 47.0739C10.1366 46.6319 9.82459 46.2679 9.43459 45.9819C9.05325 45.7046 8.61559 45.4966 8.12159 45.3579C7.63626 45.2279 7.14226 45.1629 6.63959 45.1629C6.12826 45.1629 5.62992 45.2279 5.14459 45.3579C4.65926 45.4966 4.22159 45.7046 3.83159 45.9819C3.45026 46.2679 3.14259 46.6319 2.90859 47.0739C2.67459 47.5159 2.55759 48.0446 2.55759 48.6599Z" fill="black"/>
<path d="M7.27659 57.5417L11.2806 53.6937L11.2806 54.8897L6.39259 59.4657H11.2806V60.3497H6.39259L11.2806 64.9257V66.1217L7.27659 62.2737L1.99859 66.4467V65.3027L6.62659 61.6497L5.27459 60.3497H1.99859L1.99859 59.4657H5.27459L6.62659 58.1657L1.99859 54.5127L1.99859 53.3687L7.27659 57.5417Z" fill="black"/>
<path d="M11.2806 67.2817V68.1657H7.25059V73.6777H11.2806V74.5617H1.99859V73.6777H6.49659L6.49659 68.1657H1.99859L1.99859 67.2817H11.2806Z" fill="black"/>
<path d="M1.81659 80.322C1.81659 79.594 1.94659 78.9527 2.20659 78.398C2.47525 77.852 2.83059 77.397 3.27259 77.033C3.71459 76.669 4.22592 76.396 4.80659 76.214C5.38725 76.032 5.99825 75.941 6.63959 75.941C7.27225 75.941 7.87892 76.032 8.45959 76.214C9.04892 76.396 9.56459 76.669 10.0066 77.033C10.4573 77.397 10.8126 77.852 11.0726 78.398C11.3413 78.9527 11.4756 79.594 11.4756 80.322C11.4756 81.05 11.3413 81.687 11.0726 82.233C10.8126 82.779 10.4573 83.234 10.0066 83.598C9.56459 83.962 9.04892 84.235 8.45959 84.417C7.87892 84.599 7.27225 84.69 6.63959 84.69C5.99825 84.69 5.38725 84.599 4.80659 84.417C4.22592 84.235 3.71459 83.962 3.27259 83.598C2.83059 83.234 2.47525 82.779 2.20659 82.233C1.94659 81.687 1.81659 81.05 1.81659 80.322ZM2.55759 80.322C2.55759 80.9287 2.67459 81.453 2.90859 81.895C3.14259 82.337 3.45025 82.6967 3.83159 82.974C4.22159 83.26 4.65925 83.468 5.14459 83.598C5.62992 83.7367 6.12825 83.806 6.63959 83.806C7.14225 83.806 7.63625 83.7367 8.12159 83.598C8.61559 83.468 9.05325 83.26 9.43459 82.974C9.82459 82.6967 10.1366 82.337 10.3706 81.895C10.6046 81.453 10.7216 80.9287 10.7216 80.322C10.7216 79.7067 10.6046 79.178 10.3706 78.736C10.1366 78.294 9.82459 77.93 9.43459 77.644C9.05325 77.3667 8.61559 77.1587 8.12159 77.02C7.63625 76.89 7.14225 76.825 6.63959 76.825C6.12825 76.825 5.62992 76.89 5.14459 77.02C4.65925 77.1587 4.22159 77.3667 3.83159 77.644C3.45025 77.93 3.14259 78.294 2.90859 78.736C2.67459 79.178 2.55759 79.7067 2.55759 80.322Z" fill="black"/>
<path d="M1.60859 87.4098C1.22725 87.4098 0.92392 87.3188 0.698587 87.1368C0.464587 86.9634 0.304253 86.7381 0.217587 86.4608H0.698587C0.76792 86.5648 0.863253 86.6644 0.984587 86.7598C1.10592 86.8551 1.29659 86.9028 1.55659 86.9028H1.99859V86.4608H3.14259V87.4098H1.60859Z" fill="black"/>
<path d="M11.2806 93.3851L11.2806 99.1181H10.5266V94.2691H1.99859V93.3851H11.2806Z" fill="black"/>
<path d="M1.81659 103.872C1.81659 103.144 1.94659 102.502 2.20659 101.948C2.47525 101.402 2.83059 100.947 3.27259 100.583C3.71459 100.219 4.22592 99.9458 4.80659 99.7638C5.38725 99.5818 5.99825 99.4908 6.63959 99.4908C7.27225 99.4908 7.87892 99.5818 8.45959 99.7638C9.04892 99.9458 9.56459 100.219 10.0066 100.583C10.4573 100.947 10.8126 101.402 11.0726 101.948C11.3413 102.502 11.4756 103.144 11.4756 103.872C11.4756 104.6 11.3413 105.237 11.0726 105.783C10.8126 106.329 10.4573 106.784 10.0066 107.148C9.56459 107.512 9.04892 107.785 8.45959 107.967C7.87892 108.149 7.27225 108.24 6.63959 108.24C5.99825 108.24 5.38725 108.149 4.80659 107.967C4.22592 107.785 3.71459 107.512 3.27259 107.148C2.83059 106.784 2.47525 106.329 2.20659 105.783C1.94659 105.237 1.81659 104.6 1.81659 103.872ZM2.55759 103.872C2.55759 104.478 2.67459 105.003 2.90859 105.445C3.14259 105.887 3.45025 106.246 3.83159 106.524C4.22159 106.81 4.65925 107.018 5.14459 107.148C5.62992 107.286 6.12825 107.356 6.63959 107.356C7.14225 107.356 7.63625 107.286 8.12159 107.148C8.61559 107.018 9.05325 106.81 9.43459 106.524C9.82459 106.246 10.1366 105.887 10.3706 105.445C10.6046 105.003 10.7216 104.478 10.7216 103.872C10.7216 103.256 10.6046 102.728 10.3706 102.286C10.1366 101.844 9.82459 101.48 9.43459 101.194C9.05325 100.916 8.61559 100.708 8.12159 100.57C7.63625 100.44 7.14225 100.375 6.63959 100.375C6.12825 100.375 5.62992 100.44 5.14459 100.57C4.65925 100.708 4.22159 100.916 3.83159 101.194C3.45025 101.48 3.14259 101.844 2.90859 102.286C2.67459 102.728 2.55759 103.256 2.55759 103.872Z" fill="black"/>
<path d="M11.2806 109.621V113.742C11.2806 114.158 11.2199 114.535 11.0986 114.873C10.9859 115.211 10.8126 115.501 10.5786 115.744C10.3533 115.986 10.0759 116.173 9.74659 116.303C9.41725 116.433 9.04459 116.498 8.62859 116.498C8.21259 116.498 7.83992 116.433 7.51059 116.303C7.18125 116.173 6.89959 115.986 6.66559 115.744C6.44025 115.501 6.26692 115.211 6.14559 114.873C6.03292 114.535 5.97659 114.158 5.97659 113.742V110.505H1.99859V109.621H11.2806ZM6.73059 113.547C6.73059 114.162 6.88659 114.66 7.19859 115.042C7.51059 115.423 7.98725 115.614 8.62859 115.614C9.26992 115.614 9.74659 115.423 10.0586 115.042C10.3706 114.66 10.5266 114.162 10.5266 113.547V110.505H6.73059L6.73059 113.547Z" fill="black"/>
<path d="M6.02858 120.097C6.04592 119.716 6.11525 119.36 6.23659 119.031C6.35792 118.71 6.52692 118.429 6.74359 118.186C6.96025 117.952 7.22025 117.766 7.52359 117.627C7.83559 117.497 8.19525 117.432 8.60259 117.432C9.01859 117.432 9.39125 117.497 9.72059 117.627C10.0499 117.757 10.3273 117.943 10.5526 118.186C10.7866 118.437 10.9643 118.732 11.0856 119.07C11.2156 119.417 11.2806 119.807 11.2806 120.24V124.127H1.99858V123.243H5.97659V121.163L1.99859 118.069L1.99859 116.925L6.02858 120.097ZM6.73059 123.243H10.5266V120.435C10.5266 119.785 10.3533 119.269 10.0066 118.888C9.66859 118.507 9.20059 118.316 8.60259 118.316C8.00459 118.316 7.54092 118.507 7.21159 118.888C6.89092 119.269 6.73059 119.785 6.73059 120.435L6.73059 123.243Z" fill="black"/>
<path d="M6.22358 131.432C6.18892 131.302 6.14992 131.12 6.10659 130.886C6.06325 130.652 6.01992 130.396 5.97658 130.119C5.94192 129.85 5.90725 129.577 5.87258 129.3C5.84658 129.031 5.83358 128.793 5.83358 128.585C5.83358 127.917 5.91158 127.384 6.06758 126.986C6.23225 126.596 6.44025 126.297 6.69159 126.089C6.95159 125.881 7.23759 125.746 7.54959 125.686C7.87025 125.625 8.18658 125.595 8.49858 125.595H11.2806V126.479H8.55058C8.35992 126.479 8.15192 126.496 7.92659 126.531C7.70125 126.565 7.48892 126.652 7.28959 126.791C7.09892 126.929 6.93425 127.129 6.79559 127.389C6.66559 127.657 6.60059 128.026 6.60058 128.494C6.60058 128.771 6.61358 129.057 6.63959 129.352C6.67425 129.655 6.70892 129.941 6.74358 130.21C6.78692 130.478 6.83025 130.717 6.87359 130.925C6.91692 131.141 6.95158 131.31 6.97758 131.432H11.2806V132.316H1.99858V131.432H6.22358Z" fill="black"/>
<path d="M1.81658 138.073C1.81658 137.345 1.94658 136.704 2.20658 136.149C2.47525 135.603 2.83058 135.148 3.27258 134.784C3.71458 134.42 4.22592 134.147 4.80658 133.965C5.38725 133.783 5.99825 133.692 6.63959 133.692C7.27225 133.692 7.87892 133.783 8.45958 133.965C9.04892 134.147 9.56458 134.42 10.0066 134.784C10.4573 135.148 10.8126 135.603 11.0726 136.149C11.3413 136.704 11.4756 137.345 11.4756 138.073C11.4756 138.801 11.3413 139.438 11.0726 139.984C10.8126 140.53 10.4573 140.985 10.0066 141.349C9.56458 141.713 9.04892 141.986 8.45958 142.168C7.87892 142.35 7.27225 142.441 6.63958 142.441C5.99825 142.441 5.38725 142.35 4.80658 142.168C4.22592 141.986 3.71458 141.713 3.27258 141.349C2.83058 140.985 2.47525 140.53 2.20658 139.984C1.94658 139.438 1.81658 138.801 1.81658 138.073ZM2.55758 138.073C2.55758 138.68 2.67458 139.204 2.90858 139.646C3.14258 140.088 3.45025 140.448 3.83158 140.725C4.22158 141.011 4.65925 141.219 5.14458 141.349C5.62992 141.488 6.12825 141.557 6.63958 141.557C7.14225 141.557 7.63625 141.488 8.12158 141.349C8.61558 141.219 9.05325 141.011 9.43458 140.725C9.82458 140.448 10.1366 140.088 10.3706 139.646C10.6046 139.204 10.7216 138.68 10.7216 138.073C10.7216 137.458 10.6046 136.929 10.3706 136.487C10.1366 136.045 9.82458 135.681 9.43458 135.395C9.05325 135.118 8.61558 134.91 8.12158 134.771C7.63625 134.641 7.14225 134.576 6.63959 134.576C6.12825 134.576 5.62992 134.641 5.14458 134.771C4.65925 134.91 4.22158 135.118 3.83158 135.395C3.45025 135.681 3.14258 136.045 2.90858 136.487C2.67458 136.929 2.55758 137.458 2.55758 138.073Z" fill="black"/>
<path d="M0.69859 2.84126e-08L0.698584 142.883H0.048584L0.0485902 0L0.69859 2.84126e-08Z" fill="black"/>
</svg>
