<svg width="103" height="137" viewBox="0 0 103 137" fill="none" xmlns="http://www.w3.org/2000/svg">
<path d="M1.10887 116.028L1.10887 105.948H7.60488V106.76H2.06087V110.4H7.10088V111.212H2.06087V116.028H1.10887Z" fill="black"/>
<path d="M9.32217 116.028V105.948H10.2742V116.028H9.32217Z" fill="black"/>
<path d="M16.7887 110.638C17.1433 110.638 17.47 110.6 17.7687 110.526C18.0767 110.451 18.3427 110.334 18.5667 110.176C18.7907 110.008 18.968 109.798 19.0987 109.546C19.2293 109.294 19.2947 108.99 19.2947 108.636C19.2947 108.262 19.2247 107.954 19.0847 107.712C18.954 107.469 18.772 107.278 18.5387 107.138C18.3147 106.998 18.0533 106.9 17.7547 106.844C17.4653 106.788 17.162 106.76 16.8447 106.76H13.8207V110.638H16.7887ZM13.8207 111.45V116.028H12.8687V105.948H16.8167C17.9273 105.948 18.7767 106.158 19.3647 106.578C19.9527 106.988 20.2467 107.66 20.2467 108.594C20.2467 109.228 20.116 109.732 19.8547 110.106C19.6027 110.479 19.1873 110.796 18.6087 111.058C18.9073 111.16 19.1407 111.31 19.3087 111.506C19.4767 111.702 19.6027 111.926 19.6867 112.178C19.7707 112.43 19.822 112.696 19.8407 112.976C19.8687 113.256 19.8873 113.526 19.8967 113.788C19.906 114.17 19.92 114.488 19.9387 114.74C19.9667 114.992 19.9947 115.197 20.0227 115.356C20.06 115.514 20.102 115.64 20.1487 115.734C20.1953 115.818 20.2513 115.883 20.3167 115.93V116.028H19.2667C19.164 115.86 19.0893 115.626 19.0427 115.328C19.0053 115.029 18.9727 114.716 18.9447 114.39C18.926 114.063 18.9073 113.746 18.8887 113.438C18.8793 113.13 18.856 112.878 18.8187 112.682C18.7627 112.411 18.6693 112.196 18.5387 112.038C18.4173 111.87 18.268 111.744 18.0907 111.66C17.9133 111.576 17.7127 111.52 17.4887 111.492C17.274 111.464 17.05 111.45 16.8167 111.45H13.8207Z" fill="black"/>
<path d="M22.2205 116.028V105.948H28.9265V106.76H23.1725V110.4H28.3665V111.212H23.1725V115.216H29.0665V116.028H22.2205Z" fill="black"/>
<path d="M31.0731 116.028V114.796H32.0951V116.028H31.0731Z" fill="black"/>
<path d="M34.6336 116.028V105.948H38.3156C38.969 105.948 39.5056 106.022 39.9256 106.172C40.355 106.321 40.691 106.526 40.9336 106.788C41.1856 107.049 41.3583 107.352 41.4516 107.698C41.5543 108.034 41.6056 108.388 41.6056 108.762C41.6056 109.322 41.489 109.784 41.2556 110.148C41.0316 110.512 40.7376 110.801 40.3736 111.016C40.0096 111.221 39.5943 111.366 39.1276 111.45C38.6703 111.534 38.2083 111.576 37.7416 111.576H35.5856V116.028H34.6336ZM37.7696 110.764C38.2176 110.764 38.619 110.736 38.9736 110.68C39.3283 110.624 39.627 110.521 39.8696 110.372C40.1216 110.213 40.313 110.003 40.4436 109.742C40.5836 109.471 40.6536 109.121 40.6536 108.692C40.6536 108.057 40.4436 107.576 40.0236 107.25C39.613 106.923 38.955 106.76 38.0496 106.76H35.5856V110.764H37.7696Z" fill="black"/>
<path d="M47.1402 110.638C47.4949 110.638 47.8216 110.6 48.1202 110.526C48.4282 110.451 48.6942 110.334 48.9182 110.176C49.1422 110.008 49.3196 109.798 49.4502 109.546C49.5809 109.294 49.6462 108.99 49.6462 108.636C49.6462 108.262 49.5762 107.954 49.4362 107.712C49.3056 107.469 49.1236 107.278 48.8902 107.138C48.6662 106.998 48.4049 106.9 48.1062 106.844C47.8169 106.788 47.5136 106.76 47.1962 106.76H44.1722V110.638H47.1402ZM44.1722 111.45V116.028H43.2202V105.948H47.1682C48.2789 105.948 49.1282 106.158 49.7162 106.578C50.3042 106.988 50.5982 107.66 50.5982 108.594C50.5982 109.228 50.4676 109.732 50.2062 110.106C49.9542 110.479 49.5389 110.796 48.9602 111.058C49.2589 111.16 49.4922 111.31 49.6602 111.506C49.8282 111.702 49.9542 111.926 50.0382 112.178C50.1222 112.43 50.1736 112.696 50.1922 112.976C50.2202 113.256 50.2389 113.526 50.2482 113.788C50.2576 114.17 50.2716 114.488 50.2902 114.74C50.3182 114.992 50.3462 115.197 50.3742 115.356C50.4116 115.514 50.4536 115.64 50.5002 115.734C50.5469 115.818 50.6029 115.883 50.6682 115.93V116.028H49.6182C49.5156 115.86 49.4409 115.626 49.3942 115.328C49.3569 115.029 49.3242 114.716 49.2962 114.39C49.2776 114.063 49.2589 113.746 49.2402 113.438C49.2309 113.13 49.2076 112.878 49.1702 112.682C49.1142 112.411 49.0209 112.196 48.8902 112.038C48.7689 111.87 48.6196 111.744 48.4422 111.66C48.2649 111.576 48.0642 111.52 47.8402 111.492C47.6256 111.464 47.4016 111.45 47.1682 111.45H44.1722Z" fill="black"/>
<path d="M52.5721 116.028V105.948H59.2781V106.76H53.5241V110.4H58.7181V111.212H53.5241V115.216H59.4181V116.028H52.5721Z" fill="black"/>
<path d="M61.5227 113.018C61.56 113.466 61.658 113.848 61.8167 114.166C61.9847 114.474 62.1947 114.726 62.4467 114.922C62.708 115.118 63.0067 115.262 63.3427 115.356C63.6787 115.44 64.038 115.482 64.4207 115.482C64.8687 115.482 65.256 115.426 65.5827 115.314C65.9094 115.202 66.1754 115.052 66.3807 114.866C66.586 114.67 66.7354 114.446 66.8287 114.194C66.9314 113.942 66.9827 113.676 66.9827 113.396C66.9827 113.004 66.894 112.686 66.7167 112.444C66.5394 112.201 66.306 112.005 66.0167 111.856C65.7367 111.697 65.41 111.571 65.0367 111.478C64.6727 111.384 64.2947 111.296 63.9027 111.212C63.52 111.118 63.142 111.011 62.7687 110.89C62.4047 110.768 62.078 110.605 61.7887 110.4C61.5087 110.194 61.28 109.933 61.1027 109.616C60.9254 109.289 60.8367 108.878 60.8367 108.384C60.8367 108.038 60.9067 107.702 61.0467 107.376C61.196 107.049 61.4107 106.76 61.6907 106.508C61.98 106.256 62.3394 106.055 62.7687 105.906C63.198 105.756 63.6927 105.682 64.2527 105.682C64.822 105.682 65.3167 105.761 65.7367 105.92C66.166 106.078 66.5207 106.298 66.8007 106.578C67.0807 106.848 67.2907 107.166 67.4307 107.53C67.5707 107.894 67.6407 108.281 67.6407 108.692H66.7307C66.7307 108.309 66.6607 107.978 66.5207 107.698C66.39 107.418 66.208 107.189 65.9747 107.012C65.7414 106.834 65.4754 106.704 65.1767 106.62C64.878 106.536 64.57 106.494 64.2527 106.494C63.7674 106.494 63.3567 106.564 63.0207 106.704C62.694 106.834 62.4327 107.007 62.2367 107.222C62.0407 107.436 61.9054 107.674 61.8307 107.936C61.756 108.197 61.742 108.458 61.7887 108.72C61.8447 109.046 61.9754 109.308 62.1807 109.504C62.386 109.7 62.638 109.863 62.9367 109.994C63.2354 110.115 63.562 110.218 63.9167 110.302C64.2807 110.376 64.6494 110.46 65.0227 110.554C65.396 110.638 65.7554 110.74 66.1007 110.862C66.4554 110.983 66.768 111.146 67.0387 111.352C67.3094 111.557 67.524 111.823 67.6827 112.15C67.8507 112.467 67.9347 112.868 67.9347 113.354C67.9347 114.287 67.6127 115.01 66.9687 115.524C66.3247 116.037 65.4194 116.294 64.2527 116.294C63.73 116.294 63.2447 116.224 62.7967 116.084C62.3487 115.953 61.9614 115.752 61.6347 115.482C61.308 115.202 61.0514 114.861 60.8647 114.46C60.6874 114.049 60.5987 113.568 60.5987 113.018H61.5227Z" fill="black"/>
<path d="M70.0813 113.018C70.1186 113.466 70.2166 113.848 70.3753 114.166C70.5433 114.474 70.7533 114.726 71.0053 114.922C71.2666 115.118 71.5653 115.262 71.9013 115.356C72.2373 115.44 72.5966 115.482 72.9793 115.482C73.4273 115.482 73.8146 115.426 74.1413 115.314C74.468 115.202 74.734 115.052 74.9393 114.866C75.1446 114.67 75.294 114.446 75.3873 114.194C75.49 113.942 75.5413 113.676 75.5413 113.396C75.5413 113.004 75.4526 112.686 75.2753 112.444C75.098 112.201 74.8646 112.005 74.5753 111.856C74.2953 111.697 73.9686 111.571 73.5953 111.478C73.2313 111.384 72.8533 111.296 72.4613 111.212C72.0786 111.118 71.7006 111.011 71.3273 110.89C70.9633 110.768 70.6366 110.605 70.3473 110.4C70.0673 110.194 69.8386 109.933 69.6613 109.616C69.484 109.289 69.3953 108.878 69.3953 108.384C69.3953 108.038 69.4653 107.702 69.6053 107.376C69.7546 107.049 69.9693 106.76 70.2493 106.508C70.5386 106.256 70.898 106.055 71.3273 105.906C71.7566 105.756 72.2513 105.682 72.8113 105.682C73.3806 105.682 73.8753 105.761 74.2953 105.92C74.7246 106.078 75.0793 106.298 75.3593 106.578C75.6393 106.848 75.8493 107.166 75.9893 107.53C76.1293 107.894 76.1993 108.281 76.1993 108.692H75.2893C75.2893 108.309 75.2193 107.978 75.0793 107.698C74.9486 107.418 74.7666 107.189 74.5333 107.012C74.3 106.834 74.034 106.704 73.7353 106.62C73.4366 106.536 73.1286 106.494 72.8113 106.494C72.326 106.494 71.9153 106.564 71.5793 106.704C71.2526 106.834 70.9913 107.007 70.7953 107.222C70.5993 107.436 70.464 107.674 70.3893 107.936C70.3146 108.197 70.3006 108.458 70.3473 108.72C70.4033 109.046 70.534 109.308 70.7393 109.504C70.9446 109.7 71.1966 109.863 71.4953 109.994C71.794 110.115 72.1206 110.218 72.4753 110.302C72.8393 110.376 73.208 110.46 73.5813 110.554C73.9546 110.638 74.314 110.74 74.6593 110.862C75.014 110.983 75.3266 111.146 75.5973 111.352C75.868 111.557 76.0826 111.823 76.2413 112.15C76.4093 112.467 76.4933 112.868 76.4933 113.354C76.4933 114.287 76.1713 115.01 75.5273 115.524C74.8833 116.037 73.978 116.294 72.8113 116.294C72.2886 116.294 71.8033 116.224 71.3553 116.084C70.9073 115.953 70.52 115.752 70.1933 115.482C69.8666 115.202 69.61 114.861 69.4233 114.46C69.246 114.049 69.1573 113.568 69.1573 113.018H70.0813Z" fill="black"/>
<path d="M0.296875 125.948H7.63288V126.76H4.44088V136.028L3.48888 136.028L3.48888 126.76H0.296875V125.948Z" fill="black"/>
<path d="M13.2702 131.632V130.82H17.5822V136.028H16.7702V134.306C16.5928 134.604 16.3875 134.88 16.1542 135.132C15.9302 135.374 15.6688 135.584 15.3702 135.762C15.0715 135.93 14.7262 136.06 14.3342 136.154C13.9422 136.247 13.4988 136.294 13.0042 136.294C12.3695 136.294 11.7815 136.182 11.2402 135.958C10.6988 135.734 10.2322 135.402 9.84017 134.964C9.44817 134.516 9.14017 133.956 8.91617 133.284C8.70151 132.612 8.59417 131.828 8.59417 130.932C8.59417 130.194 8.68751 129.508 8.87417 128.874C9.06084 128.23 9.34551 127.674 9.72817 127.208C10.1202 126.732 10.6055 126.358 11.1842 126.088C11.7722 125.817 12.4628 125.682 13.2562 125.682C13.7882 125.682 14.2828 125.747 14.7402 125.878C15.2068 126.008 15.6222 126.209 15.9862 126.48C16.3595 126.741 16.6722 127.072 16.9242 127.474C17.1762 127.866 17.3582 128.332 17.4702 128.874H16.4902C16.4062 128.5 16.2615 128.164 16.0562 127.866C15.8602 127.567 15.6222 127.32 15.3422 127.124C15.0622 126.918 14.7495 126.764 14.4042 126.662C14.0588 126.55 13.6995 126.494 13.3262 126.494C12.6635 126.494 12.0942 126.61 11.6182 126.844C11.1422 127.077 10.7502 127.408 10.4422 127.838C10.1342 128.258 9.90551 128.766 9.75617 129.364C9.61617 129.952 9.54617 130.6 9.54617 131.31C9.54617 131.87 9.62551 132.402 9.78417 132.906C9.95217 133.41 10.1902 133.853 10.4982 134.236C10.8155 134.618 11.1982 134.922 11.6462 135.146C12.1035 135.37 12.6215 135.482 13.2002 135.482C13.4708 135.482 13.7508 135.454 14.0402 135.398C14.3295 135.332 14.6095 135.23 14.8802 135.09C15.1508 134.95 15.4028 134.768 15.6362 134.544C15.8695 134.32 16.0702 134.044 16.2382 133.718C16.3968 133.4 16.5042 133.069 16.5602 132.724C16.6255 132.378 16.6628 132.014 16.6722 131.632H13.2702Z" fill="black"/>
<path d="M20.1767 136.028V134.796H21.1987V136.028H20.1767ZM20.1767 130.372V129.14H21.1987V130.372H20.1767Z" fill="black"/>
<path d="M26.5511 131.198C26.2058 131.198 25.8885 131.24 25.5991 131.324C25.3098 131.408 25.0578 131.538 24.8431 131.716C24.6285 131.884 24.4605 132.103 24.3391 132.374C24.2178 132.635 24.1571 132.948 24.1571 133.312C24.1571 133.62 24.2131 133.904 24.3251 134.166C24.4465 134.427 24.6098 134.656 24.8151 134.852C25.0298 135.038 25.2865 135.188 25.5851 135.3C25.8931 135.412 26.2338 135.468 26.6071 135.468C26.9338 135.468 27.2371 135.416 27.5171 135.314C27.7971 135.202 28.0398 135.048 28.2451 134.852C28.4598 134.656 28.6231 134.422 28.7351 134.152C28.8565 133.881 28.9171 133.582 28.9171 133.256C28.9171 132.91 28.8565 132.612 28.7351 132.36C28.6138 132.098 28.4458 131.884 28.2311 131.716C28.0165 131.538 27.7645 131.408 27.4751 131.324C27.1858 131.24 26.8778 131.198 26.5511 131.198ZM26.5091 126.914C26.2291 126.914 25.9678 126.951 25.7251 127.026C25.4825 127.1 25.2678 127.212 25.0811 127.362C24.9038 127.511 24.7638 127.698 24.6611 127.922C24.5585 128.146 24.5071 128.402 24.5071 128.692C24.5071 129 24.5631 129.266 24.6751 129.49C24.7965 129.704 24.9551 129.882 25.1511 130.022C25.3471 130.162 25.5711 130.269 25.8231 130.344C26.0751 130.409 26.3365 130.442 26.6071 130.442C26.8778 130.442 27.1298 130.409 27.3631 130.344C27.5965 130.269 27.7971 130.152 27.9651 129.994C28.1331 129.835 28.2638 129.634 28.3571 129.392C28.4598 129.149 28.5111 128.85 28.5111 128.496C28.5111 127.992 28.3478 127.604 28.0211 127.334C27.6945 127.054 27.1905 126.914 26.5091 126.914ZM24.9831 130.722C24.7405 130.572 24.5305 130.432 24.3531 130.302C24.1851 130.162 24.0451 130.012 23.9331 129.854C23.8211 129.695 23.7371 129.518 23.6811 129.322C23.6345 129.116 23.6111 128.864 23.6111 128.566C23.6111 128.23 23.6858 127.912 23.8351 127.614C23.9845 127.315 24.1851 127.058 24.4371 126.844C24.6891 126.62 24.9831 126.447 25.3191 126.326C25.6645 126.204 26.0331 126.148 26.4251 126.158C26.7985 126.158 27.1625 126.204 27.5171 126.298C27.8811 126.391 28.2031 126.536 28.4831 126.732C28.7631 126.928 28.9871 127.18 29.1551 127.488C29.3231 127.786 29.4071 128.146 29.4071 128.566C29.4071 129.079 29.2998 129.518 29.0851 129.882C28.8798 130.246 28.5391 130.544 28.0631 130.778C28.6045 130.974 29.0291 131.286 29.3371 131.716C29.6545 132.145 29.8131 132.649 29.8131 133.228C29.8131 133.713 29.7291 134.142 29.5611 134.516C29.4025 134.889 29.1691 135.202 28.8611 135.454C28.5625 135.706 28.1985 135.897 27.7691 136.028C27.3398 136.158 26.8638 136.224 26.3411 136.224C25.9865 136.224 25.6225 136.163 25.2491 136.042C24.8851 135.92 24.5538 135.738 24.2551 135.496C23.9658 135.253 23.7278 134.95 23.5411 134.586C23.3545 134.222 23.2611 133.797 23.2611 133.312C23.2611 132.724 23.4058 132.201 23.6951 131.744C23.9938 131.277 24.4231 130.936 24.9831 130.722Z" fill="black"/>
<path d="M32.5104 127.236H32.4824V136.028H31.5304V125.948H32.6084L38.4324 134.754H38.4604V125.948H39.4124V136.028H38.3064L32.5104 127.236Z" fill="black"/>
<path d="M5.19688 9.43631C4.46888 9.42698 3.81554 9.32431 3.23688 9.12831C2.65821 8.93231 2.16354 8.65698 1.75288 8.30231C1.35154 7.93831 1.03888 7.50431 0.814876 7.00031C0.600209 6.48698 0.492876 5.91298 0.492876 5.27831C0.492876 4.66231 0.600209 4.10231 0.814876 3.59831C1.02954 3.09431 1.33754 2.66498 1.73888 2.31031C2.14954 1.94631 2.64421 1.66631 3.22288 1.47031C3.80154 1.26498 4.45954 1.15298 5.19688 1.13431V0.0703125L6.14888 0.0703125V1.13431C6.88621 1.15298 7.54421 1.26498 8.12288 1.47031C8.70154 1.66631 9.19154 1.94631 9.59288 2.31031C10.0035 2.66498 10.3162 3.09431 10.5309 3.59831C10.7455 4.10231 10.8529 4.66231 10.8529 5.27831C10.8529 5.91298 10.7409 6.48698 10.5169 7.00031C10.3022 7.50431 9.98954 7.93831 9.57888 8.30231C9.17754 8.65698 8.68754 8.93231 8.10888 9.12831C7.53021 9.32431 6.87688 9.42698 6.14888 9.43631V10.6963H5.19688V9.43631ZM5.19688 1.91831C3.93688 1.97431 2.99421 2.28698 2.36888 2.85631C1.74354 3.42565 1.43088 4.23298 1.43088 5.27831C1.43088 6.31431 1.74821 7.12165 2.38288 7.70031C3.01754 8.26965 3.95554 8.59165 5.19688 8.66631V1.91831ZM6.14888 8.66631C7.39021 8.59165 8.32821 8.26965 8.96288 7.70031C9.59754 7.12165 9.91488 6.31431 9.91488 5.27831C9.91488 4.23298 9.60221 3.42565 8.97688 2.85631C8.35154 2.28698 7.40888 1.97431 6.14888 1.91831V8.66631Z" fill="black"/>
<path d="M12.2781 0.364312L13.2301 0.364312V9.33831L18.9701 0.364312H20.2021V10.3603H19.2501V1.38631L13.5101 10.3603H12.2781V0.364312Z" fill="black"/>
<path d="M22.2176 0.364312H23.1696V5.74031L28.9796 0.364312H30.2676L25.8016 4.49431L30.4776 10.3603L29.2456 10.3603L25.0876 5.15231L23.1696 6.93031V10.3603H22.2176V0.364312Z" fill="black"/>
<path d="M32.2197 10.4723C31.9957 10.4723 31.7904 10.4583 31.6037 10.4303C31.4264 10.4023 31.2864 10.3696 31.1837 10.3323V9.49231C31.3051 9.53898 31.4497 9.58098 31.6177 9.61831C31.7857 9.64631 31.9817 9.66031 32.2057 9.66031C32.5604 9.66031 32.8544 9.54831 33.0877 9.32431C33.3304 9.10031 33.5637 8.75031 33.7877 8.27431L33.9137 8.00831L30.2037 0.364312L31.2257 0.364312L34.4737 7.00031L37.6377 0.364312H38.6457L34.7117 8.51231C34.5064 8.94165 34.3057 9.28698 34.1097 9.54831C33.9137 9.80031 33.7131 9.99631 33.5077 10.1363C33.3117 10.2763 33.1064 10.365 32.8917 10.4023C32.6864 10.449 32.4624 10.4723 32.2197 10.4723Z" fill="black"/>
<path d="M43.7682 10.5563C42.9842 10.5563 42.2935 10.4163 41.6962 10.1363C41.1082 9.84698 40.6182 9.46431 40.2262 8.98831C39.8342 8.51231 39.5402 7.96165 39.3442 7.33631C39.1482 6.71098 39.0502 6.05298 39.0502 5.36231C39.0502 4.68098 39.1482 4.02765 39.3442 3.40231C39.5402 2.76765 39.8342 2.21231 40.2262 1.73631C40.6182 1.25098 41.1082 0.868313 41.6962 0.588313C42.2935 0.298979 42.9842 0.154313 43.7682 0.154313C44.2442 0.154313 44.7062 0.224313 45.1542 0.364312C45.6115 0.504312 46.0222 0.714312 46.3862 0.994313C46.7595 1.26498 47.0675 1.60098 47.3102 2.00231C47.5622 2.40365 47.7209 2.86565 47.7862 3.38831H46.8342C46.7502 3.00565 46.6102 2.66498 46.4142 2.36631C46.2275 2.05831 45.9942 1.80165 45.7142 1.59631C45.4435 1.39098 45.1402 1.23698 44.8042 1.13431C44.4775 1.02231 44.1322 0.966313 43.7682 0.966313C43.1055 0.966313 42.5362 1.09231 42.0602 1.34431C41.5842 1.59631 41.1922 1.93231 40.8842 2.35231C40.5855 2.76298 40.3615 3.23431 40.2122 3.76631C40.0722 4.28898 40.0022 4.82098 40.0022 5.36231C40.0022 5.91298 40.0722 6.44965 40.2122 6.97231C40.3615 7.49498 40.5855 7.96631 40.8842 8.38631C41.1922 8.79698 41.5842 9.12831 42.0602 9.38031C42.5362 9.63231 43.1055 9.75831 43.7682 9.75831C44.2255 9.75831 44.6409 9.67431 45.0142 9.50631C45.3969 9.33831 45.7235 9.10965 45.9942 8.82031C46.2649 8.53098 46.4842 8.19498 46.6522 7.81231C46.8202 7.42031 46.9275 7.00031 46.9742 6.55231H47.9262C47.8609 7.16831 47.7162 7.72365 47.4922 8.21831C47.2682 8.71298 46.9789 9.13298 46.6242 9.47831C46.2695 9.82365 45.8495 10.0896 45.3642 10.2763C44.8882 10.463 44.3562 10.5563 43.7682 10.5563Z" fill="black"/>
<path d="M53.2801 0.364313L57.5081 0.364313C57.9281 0.364313 58.3294 0.406313 58.7121 0.490313C59.1041 0.564979 59.4448 0.700313 59.7341 0.896312C60.0328 1.08298 60.2708 1.33498 60.4481 1.65231C60.6254 1.96031 60.7141 2.34765 60.7141 2.81431C60.7141 3.07565 60.6721 3.33231 60.5881 3.58431C60.5041 3.82698 60.3828 4.05098 60.2241 4.25631C60.0748 4.45231 59.8928 4.62031 59.6781 4.76031C59.4728 4.90031 59.2394 4.99831 58.9781 5.05431V5.08231C59.6221 5.16631 60.1354 5.43231 60.5181 5.88031C60.9008 6.31898 61.0921 6.86498 61.0921 7.51831C61.0921 7.76098 61.0548 8.04565 60.9801 8.37231C60.9148 8.68965 60.7608 8.99765 60.5181 9.29631C60.2754 9.59498 59.9161 9.84698 59.4401 10.0523C58.9641 10.2576 58.3201 10.3603 57.5081 10.3603H53.2801V0.364313ZM57.5081 9.54831C57.8628 9.54831 58.1988 9.52031 58.5161 9.46431C58.8334 9.39898 59.1134 9.28698 59.3561 9.12831C59.5988 8.96965 59.7901 8.75965 59.9301 8.49831C60.0701 8.23698 60.1401 7.90098 60.1401 7.49031C60.1401 6.84631 59.9114 6.36565 59.4541 6.04831C59.0061 5.72165 58.3574 5.55831 57.5081 5.55831H54.2321V9.54831H57.5081ZM57.5081 4.74631C57.8814 4.74631 58.2081 4.70431 58.4881 4.62031C58.7774 4.52698 59.0154 4.40565 59.2021 4.25631C59.3888 4.09765 59.5288 3.91565 59.6221 3.71031C59.7154 3.50498 59.7621 3.28565 59.7621 3.05231C59.7621 1.80165 59.0108 1.17631 57.5081 1.17631H54.2321V4.74631H57.5081Z" fill="black"/>
<path d="M62.618 0.364313H63.57V4.59231H67.056C67.9893 4.59231 68.7173 4.84898 69.24 5.36231C69.7626 5.87565 70.024 6.58031 70.024 7.47631C70.024 8.37231 69.7626 9.07698 69.24 9.59031C68.7173 10.1036 67.9893 10.3603 67.056 10.3603H62.618V0.364313ZM66.846 9.54831C67.546 9.54831 68.092 9.36631 68.484 9.00231C68.876 8.62898 69.072 8.12031 69.072 7.47631C69.072 6.83231 68.876 6.32831 68.484 5.96431C68.092 5.59098 67.546 5.40431 66.846 5.40431H63.57V9.54831H66.846ZM71.494 0.364313H72.446V10.3603H71.494V0.364313Z" fill="black"/>
<path d="M74.4578 0.364313L78.8958 0.364313C79.3438 0.364313 79.7498 0.429646 80.1138 0.560313C80.4778 0.681646 80.7905 0.868313 81.0518 1.12031C81.3132 1.36298 81.5138 1.66165 81.6538 2.01631C81.7938 2.37098 81.8638 2.77231 81.8638 3.22031C81.8638 3.66831 81.7938 4.06965 81.6538 4.42431C81.5138 4.77898 81.3132 5.08231 81.0518 5.33431C80.7905 5.57698 80.4778 5.76365 80.1138 5.89431C79.7498 6.01565 79.3438 6.07631 78.8958 6.07631H75.4098V10.3603H74.4578V0.364313ZM78.6858 5.26431C79.3485 5.26431 79.8852 5.09631 80.2958 4.76031C80.7065 4.42431 80.9118 3.91098 80.9118 3.22031C80.9118 2.52965 80.7065 2.01631 80.2958 1.68031C79.8852 1.34431 79.3485 1.17631 78.6858 1.17631H75.4098V5.26431H78.6858Z" fill="black"/>
<path d="M87.4622 10.5563C86.6782 10.5563 85.9875 10.4163 85.3902 10.1363C84.8022 9.84698 84.3122 9.46431 83.9202 8.98831C83.5282 8.51231 83.2342 7.96165 83.0382 7.33631C82.8422 6.71098 82.7442 6.05298 82.7442 5.36231C82.7442 4.68098 82.8422 4.02765 83.0382 3.40231C83.2342 2.76765 83.5282 2.21231 83.9202 1.73631C84.3122 1.25098 84.8022 0.868313 85.3902 0.588313C85.9875 0.29898 86.6782 0.154313 87.4622 0.154313C88.2462 0.154313 88.9322 0.29898 89.5202 0.588313C90.1082 0.868313 90.5982 1.25098 90.9902 1.73631C91.3822 2.21231 91.6762 2.76765 91.8722 3.40231C92.0682 4.02765 92.1662 4.68098 92.1662 5.36231C92.1662 6.05298 92.0682 6.71098 91.8722 7.33631C91.6762 7.96165 91.3822 8.51231 90.9902 8.98831C90.5982 9.46431 90.1082 9.84698 89.5202 10.1363C88.9322 10.4163 88.2462 10.5563 87.4622 10.5563ZM87.4622 9.75831C88.1155 9.75831 88.6802 9.63231 89.1562 9.38031C89.6322 9.12831 90.0195 8.79698 90.3182 8.38631C90.6262 7.96631 90.8502 7.49498 90.9902 6.97231C91.1395 6.44965 91.2142 5.91298 91.2142 5.36231C91.2142 4.82098 91.1395 4.28898 90.9902 3.76631C90.8502 3.23431 90.6262 2.76298 90.3182 2.35231C90.0195 1.93231 89.6322 1.59631 89.1562 1.34431C88.6802 1.09231 88.1155 0.966313 87.4622 0.966313C86.7995 0.966313 86.2302 1.09231 85.7542 1.34431C85.2782 1.59631 84.8862 1.93231 84.5782 2.35231C84.2795 2.76298 84.0555 3.23431 83.9062 3.76631C83.7662 4.28898 83.6962 4.82098 83.6962 5.36231C83.6962 5.91298 83.7662 6.44965 83.9062 6.97231C84.0555 7.49498 84.2795 7.96631 84.5782 8.38631C84.8862 8.79698 85.2782 9.12831 85.7542 9.38031C86.2302 9.63231 86.7995 9.75831 87.4622 9.75831Z" fill="black"/>
<path d="M97.8951 10.5563C97.1111 10.5563 96.4205 10.4163 95.8231 10.1363C95.2351 9.84698 94.7451 9.46431 94.3531 8.98831C93.9611 8.51231 93.6671 7.96165 93.4711 7.33631C93.2751 6.71098 93.1771 6.05298 93.1771 5.36231C93.1771 4.68098 93.2751 4.02765 93.4711 3.40231C93.6671 2.76765 93.9611 2.21231 94.3531 1.73631C94.7451 1.25098 95.2351 0.868313 95.8231 0.588313C96.4205 0.29898 97.1111 0.154313 97.8951 0.154313C98.3711 0.154313 98.8331 0.224313 99.2811 0.364313C99.7385 0.504313 100.149 0.714313 100.513 0.994313C100.886 1.26498 101.194 1.60098 101.437 2.00231C101.689 2.40365 101.848 2.86565 101.913 3.38831H100.961C100.877 3.00565 100.737 2.66498 100.541 2.36631C100.354 2.05831 100.121 1.80165 99.8411 1.59631C99.5705 1.39098 99.2671 1.23698 98.9311 1.13431C98.6045 1.02231 98.2591 0.966314 97.8951 0.966314C97.2325 0.966314 96.6631 1.09231 96.1871 1.34431C95.7111 1.59631 95.3191 1.93231 95.0111 2.35231C94.7125 2.76298 94.4885 3.23431 94.3391 3.76631C94.1991 4.28898 94.1291 4.82098 94.1291 5.36231C94.1291 5.91298 94.1991 6.44965 94.3391 6.97231C94.4885 7.49498 94.7125 7.96631 95.0111 8.38631C95.3191 8.79698 95.7111 9.12831 96.1871 9.38031C96.6631 9.63231 97.2325 9.75831 97.8951 9.75831C98.3525 9.75831 98.7678 9.67431 99.1411 9.50631C99.5238 9.33831 99.8505 9.10965 100.121 8.82031C100.392 8.53098 100.611 8.19498 100.779 7.81231C100.947 7.42031 101.054 7.00031 101.101 6.55231H102.053C101.988 7.16831 101.843 7.72365 101.619 8.21831C101.395 8.71298 101.106 9.13298 100.751 9.47831C100.396 9.82365 99.9765 10.0896 99.4911 10.2763C99.0151 10.463 98.4831 10.5563 97.8951 10.5563Z" fill="black"/>
<path d="M1.08088 20.3643H5.51888C5.96688 20.3643 6.37288 20.4296 6.73688 20.5603C7.10088 20.6816 7.41354 20.8683 7.67488 21.1203C7.93621 21.363 8.13688 21.6616 8.27688 22.0163C8.41688 22.371 8.48688 22.7723 8.48688 23.2203C8.48688 23.6683 8.41688 24.0696 8.27688 24.4243C8.13688 24.779 7.93621 25.0823 7.67488 25.3343C7.41354 25.577 7.10088 25.7636 6.73688 25.8943C6.37288 26.0156 5.96688 26.0763 5.51888 26.0763H2.03288L2.03288 30.3603H1.08088V20.3643ZM5.30888 25.2643C5.97154 25.2643 6.50821 25.0963 6.91888 24.7603C7.32954 24.4243 7.53488 23.911 7.53488 23.2203C7.53488 22.5296 7.32954 22.0163 6.91888 21.6803C6.50821 21.3443 5.97154 21.1763 5.30888 21.1763L2.03288 21.1763V25.2643H5.30888Z" fill="black"/>
<path d="M12.8252 20.3643H13.8892L17.8092 30.3603H16.7872L15.5692 27.2523H11.0192L9.81524 30.3603H8.80723L12.8252 20.3643ZM15.2472 26.4403L13.3152 21.3163L11.3132 26.4403H15.2472Z" fill="black"/>
<path d="M22.2456 30.5703C21.6296 30.5703 21.0743 30.4956 20.5796 30.3463C20.0849 30.1876 19.6649 29.9636 19.3196 29.6743C18.9836 29.3756 18.7223 29.0163 18.5356 28.5963C18.3583 28.167 18.2696 27.6863 18.2696 27.1543V27.0703H19.1796C19.1796 27.9943 19.4643 28.6803 20.0336 29.1283C20.6029 29.5763 21.3636 29.8003 22.3156 29.8003C22.7356 29.8003 23.1136 29.7396 23.4496 29.6183C23.7856 29.4876 24.0656 29.315 24.2896 29.1003C24.5229 28.8856 24.7003 28.6383 24.8216 28.3583C24.9523 28.069 25.0176 27.7656 25.0176 27.4483C25.0176 27.159 24.9569 26.8976 24.8356 26.6643C24.7236 26.4216 24.5649 26.2163 24.3596 26.0483C24.1543 25.8803 23.9116 25.7496 23.6316 25.6563C23.3609 25.563 23.0669 25.5163 22.7496 25.5163H21.1536V24.7043H22.7496C23.0109 24.7043 23.2629 24.667 23.5056 24.5923C23.7483 24.5176 23.9629 24.4103 24.1496 24.2703C24.3363 24.121 24.4809 23.939 24.5836 23.7243C24.6956 23.5003 24.7516 23.2436 24.7516 22.9543C24.7516 22.609 24.6863 22.3103 24.5556 22.0583C24.4343 21.8063 24.2663 21.601 24.0516 21.4423C23.8369 21.2743 23.5803 21.153 23.2816 21.0783C22.9829 20.9943 22.6656 20.9523 22.3296 20.9523C21.9376 20.9523 21.5736 20.999 21.2376 21.0923C20.9016 21.1856 20.6076 21.3303 20.3556 21.5263C20.1129 21.713 19.9169 21.951 19.7676 22.2403C19.6276 22.5203 19.5436 22.847 19.5156 23.2203H18.5916C18.6196 22.707 18.7269 22.259 18.9136 21.8763C19.1096 21.4936 19.3709 21.1763 19.6976 20.9243C20.0243 20.663 20.4069 20.4716 20.8456 20.3503C21.2936 20.2196 21.7789 20.1543 22.3016 20.1543C22.7683 20.1543 23.2069 20.2103 23.6176 20.3223C24.0376 20.425 24.4016 20.5883 24.7096 20.8123C25.0176 21.0363 25.2603 21.321 25.4376 21.6663C25.6149 22.0023 25.7036 22.4036 25.7036 22.8703C25.7036 23.1316 25.6616 23.379 25.5776 23.6123C25.4936 23.8363 25.3816 24.0416 25.2416 24.2283C25.1016 24.4056 24.9429 24.5596 24.7656 24.6903C24.5883 24.821 24.4109 24.919 24.2336 24.9843V25.0263C24.7656 25.1663 25.1856 25.437 25.4936 25.8383C25.8109 26.2303 25.9696 26.7623 25.9696 27.4343C25.9696 27.7423 25.9043 28.0783 25.7736 28.4423C25.6523 28.8063 25.4469 29.147 25.1576 29.4643C24.8683 29.7816 24.4856 30.0476 24.0096 30.2623C23.5336 30.4676 22.9456 30.5703 22.2456 30.5703Z" fill="black"/>
<path d="M27.4669 20.3643H28.8669L32.3249 29.1283L35.7689 20.3643H37.1689V30.3603H36.2169V21.7223H36.1889L32.7729 30.3603H31.8769L28.4469 21.7223H28.4189V30.3603H27.4669V20.3643Z" fill="black"/>
<path d="M39.157 20.3643H46.059V21.1763H40.109V24.7883H45.681V25.6003H40.109V29.5483H46.129V30.3603H39.157V20.3643Z" fill="black"/>
<path d="M47.4559 20.3643H51.8939C52.3419 20.3643 52.7479 20.4296 53.1119 20.5603C53.4759 20.6816 53.7885 20.8683 54.0499 21.1203C54.3112 21.363 54.5119 21.6616 54.6519 22.0163C54.7919 22.371 54.8619 22.7723 54.8619 23.2203C54.8619 23.6683 54.7919 24.0696 54.6519 24.4243C54.5119 24.779 54.3112 25.0823 54.0499 25.3343C53.7885 25.577 53.4759 25.7636 53.1119 25.8943C52.7479 26.0156 52.3419 26.0763 51.8939 26.0763H48.4079V30.3603H47.4559V20.3643ZM51.6839 25.2643C52.3465 25.2643 52.8832 25.0963 53.2939 24.7603C53.7045 24.4243 53.9099 23.911 53.9099 23.2203C53.9099 22.5296 53.7045 22.0163 53.2939 21.6803C52.8832 21.3443 52.3465 21.1763 51.6839 21.1763H48.4079V25.2643H51.6839Z" fill="black"/>
<path d="M60.4602 30.5563C59.6762 30.5563 58.9856 30.4163 58.3882 30.1363C57.8002 29.847 57.3102 29.4643 56.9182 28.9883C56.5262 28.5123 56.2322 27.9616 56.0362 27.3363C55.8402 26.711 55.7422 26.053 55.7422 25.3623C55.7422 24.681 55.8402 24.0276 56.0362 23.4023C56.2322 22.7676 56.5262 22.2123 56.9182 21.7363C57.3102 21.251 57.8002 20.8683 58.3882 20.5883C58.9856 20.299 59.6762 20.1543 60.4602 20.1543C61.2442 20.1543 61.9302 20.299 62.5182 20.5883C63.1062 20.8683 63.5962 21.251 63.9882 21.7363C64.3802 22.2123 64.6742 22.7676 64.8702 23.4023C65.0662 24.0276 65.1642 24.681 65.1642 25.3623C65.1642 26.053 65.0662 26.711 64.8702 27.3363C64.6742 27.9616 64.3802 28.5123 63.9882 28.9883C63.5962 29.4643 63.1062 29.847 62.5182 30.1363C61.9302 30.4163 61.2442 30.5563 60.4602 30.5563ZM60.4602 29.7583C61.1136 29.7583 61.6782 29.6323 62.1542 29.3803C62.6302 29.1283 63.0176 28.797 63.3162 28.3863C63.6242 27.9663 63.8482 27.495 63.9882 26.9723C64.1376 26.4496 64.2122 25.913 64.2122 25.3623C64.2122 24.821 64.1376 24.289 63.9882 23.7663C63.8482 23.2343 63.6242 22.763 63.3162 22.3523C63.0176 21.9323 62.6302 21.5963 62.1542 21.3443C61.6782 21.0923 61.1136 20.9663 60.4602 20.9663C59.7976 20.9663 59.2282 21.0923 58.7522 21.3443C58.2762 21.5963 57.8842 21.9323 57.5762 22.3523C57.2776 22.763 57.0536 23.2343 56.9042 23.7663C56.7642 24.289 56.6942 24.821 56.6942 25.3623C56.6942 25.913 56.7642 26.4496 56.9042 26.9723C57.0536 27.495 57.2776 27.9663 57.5762 28.3863C57.8842 28.797 58.2762 29.1283 58.7522 29.3803C59.2282 29.6323 59.7976 29.7583 60.4602 29.7583Z" fill="black"/>
<path d="M66.6232 20.3643H68.0232L71.4812 29.1283L74.9252 20.3643H76.3252V30.3603H75.3732V21.7223H75.3452L71.9292 30.3603H71.0332L67.6032 21.7223H67.5752V30.3603H66.6232V20.3643Z" fill="black"/>
<path d="M86.4518 30.5563C85.6678 30.5563 84.9771 30.4163 84.3798 30.1363C83.7918 29.847 83.3018 29.4643 82.9098 28.9883C82.5178 28.5123 82.2238 27.9616 82.0278 27.3363C81.8318 26.711 81.7338 26.053 81.7338 25.3623C81.7338 24.681 81.8318 24.0276 82.0278 23.4023C82.2238 22.7676 82.5178 22.2123 82.9098 21.7363C83.3018 21.251 83.7918 20.8683 84.3798 20.5883C84.9771 20.299 85.6678 20.1543 86.4518 20.1543C86.9278 20.1543 87.3898 20.2243 87.8378 20.3643C88.2951 20.5043 88.7058 20.7143 89.0698 20.9943C89.4431 21.265 89.7511 21.601 89.9938 22.0023C90.2458 22.4036 90.4044 22.8656 90.4698 23.3883H89.5178C89.4338 23.0056 89.2938 22.665 89.0978 22.3663C88.9111 22.0583 88.6778 21.8016 88.3978 21.5963C88.1271 21.391 87.8238 21.237 87.4878 21.1343C87.1611 21.0223 86.8158 20.9663 86.4518 20.9663C85.7891 20.9663 85.2198 21.0923 84.7438 21.3443C84.2678 21.5963 83.8758 21.9323 83.5678 22.3523C83.2691 22.763 83.0451 23.2343 82.8958 23.7663C82.7558 24.289 82.6858 24.821 82.6858 25.3623C82.6858 25.913 82.7558 26.4496 82.8958 26.9723C83.0451 27.495 83.2691 27.9663 83.5678 28.3863C83.8758 28.797 84.2678 29.1283 84.7438 29.3803C85.2198 29.6323 85.7891 29.7583 86.4518 29.7583C86.9091 29.7583 87.3245 29.6743 87.6978 29.5063C88.0805 29.3383 88.4071 29.1096 88.6778 28.8203C88.9484 28.531 89.1678 28.195 89.3358 27.8123C89.5038 27.4203 89.6111 27.0003 89.6578 26.5523H90.6098C90.5444 27.1683 90.3998 27.7236 90.1758 28.2183C89.9518 28.713 89.6625 29.133 89.3078 29.4783C88.9531 29.8236 88.5331 30.0896 88.0478 30.2763C87.5718 30.463 87.0398 30.5563 86.4518 30.5563Z" fill="black"/>
<path d="M0.072876 49.5483H1.12288C1.47754 48.895 1.75288 48.2276 1.94888 47.5463C2.14488 46.8556 2.28954 46.1696 2.38288 45.4883C2.48554 44.807 2.54621 44.1443 2.56488 43.5003C2.59288 42.8563 2.60688 42.2496 2.60688 41.6803V40.3643H8.79488V49.5483H9.98488V53.0203H9.03288V50.3603H1.02488V53.0203H0.072876L0.072876 49.5483ZM7.84288 49.5483V41.1763H3.55888V41.5123C3.55888 42.0723 3.54954 42.6836 3.53088 43.3463C3.52154 43.9996 3.47021 44.6763 3.37688 45.3763C3.28354 46.0763 3.13888 46.781 2.94288 47.4903C2.75621 48.1996 2.48554 48.8856 2.13088 49.5483H7.84288Z" fill="black"/>
<path d="M15.2884 50.5563C14.5044 50.5563 13.8137 50.4163 13.2164 50.1363C12.6284 49.847 12.1384 49.4643 11.7464 48.9883C11.3544 48.5123 11.0604 47.9616 10.8644 47.3363C10.6684 46.711 10.5704 46.053 10.5704 45.3623C10.5704 44.681 10.6684 44.0276 10.8644 43.4023C11.0604 42.7676 11.3544 42.2123 11.7464 41.7363C12.1384 41.251 12.6284 40.8683 13.2164 40.5883C13.8137 40.299 14.5044 40.1543 15.2884 40.1543C16.0724 40.1543 16.7584 40.299 17.3464 40.5883C17.9344 40.8683 18.4244 41.251 18.8164 41.7363C19.2084 42.2123 19.5024 42.7676 19.6984 43.4023C19.8944 44.0276 19.9924 44.681 19.9924 45.3623C19.9924 46.053 19.8944 46.711 19.6984 47.3363C19.5024 47.9616 19.2084 48.5123 18.8164 48.9883C18.4244 49.4643 17.9344 49.847 17.3464 50.1363C16.7584 50.4163 16.0724 50.5563 15.2884 50.5563ZM15.2884 49.7583C15.9417 49.7583 16.5064 49.6323 16.9824 49.3803C17.4584 49.1283 17.8457 48.797 18.1444 48.3863C18.4524 47.9663 18.6764 47.495 18.8164 46.9723C18.9657 46.4496 19.0404 45.913 19.0404 45.3623C19.0404 44.821 18.9657 44.289 18.8164 43.7663C18.6764 43.2343 18.4524 42.763 18.1444 42.3523C17.8457 41.9323 17.4584 41.5963 16.9824 41.3443C16.5064 41.0923 15.9417 40.9663 15.2884 40.9663C14.6257 40.9663 14.0564 41.0923 13.5804 41.3443C13.1044 41.5963 12.7124 41.9323 12.4044 42.3523C12.1057 42.763 11.8817 43.2343 11.7324 43.7663C11.5924 44.289 11.5224 44.821 11.5224 45.3623C11.5224 45.913 11.5924 46.4496 11.7324 46.9723C11.8817 47.495 12.1057 47.9663 12.4044 48.3863C12.7124 48.797 13.1044 49.1283 13.5804 49.3803C14.0564 49.6323 14.6257 49.7583 15.2884 49.7583Z" fill="black"/>
<path d="M21.4513 40.3643H22.8513L26.3093 49.1283L29.7533 40.3643H31.1533L31.1533 50.3603H30.2013V41.7223H30.1733L26.7573 50.3603H25.8613L22.4313 41.7223H22.4033L22.4033 50.3603H21.4513V40.3643Z" fill="black"/>
<path d="M33.9534 43.4163V40.2803H34.9754V43.4163L34.7794 47.8263H34.1494L33.9534 43.4163ZM33.9534 50.3603V49.1283H34.9754V50.3603H33.9534Z" fill="black"/>
<path d="M41.7 40.3643H42.652V49.5483H47.384V40.3643H48.336V49.5483H53.068V40.3643H54.02V50.3603H41.7V40.3643Z" fill="black"/>
<path d="M60.2278 50.5563C59.4438 50.5563 58.7531 50.4163 58.1558 50.1363C57.5678 49.847 57.0778 49.4643 56.6858 48.9883C56.2938 48.5123 55.9998 47.9616 55.8038 47.3363C55.6078 46.711 55.5098 46.053 55.5098 45.3623C55.5098 44.681 55.6078 44.0276 55.8038 43.4023C55.9998 42.7676 56.2938 42.2123 56.6858 41.7363C57.0778 41.251 57.5678 40.8683 58.1558 40.5883C58.7531 40.299 59.4438 40.1543 60.2278 40.1543C61.0118 40.1543 61.6978 40.299 62.2858 40.5883C62.8738 40.8683 63.3638 41.251 63.7558 41.7363C64.1478 42.2123 64.4418 42.7676 64.6378 43.4023C64.8338 44.0276 64.9318 44.681 64.9318 45.3623C64.9318 46.053 64.8338 46.711 64.6378 47.3363C64.4418 47.9616 64.1478 48.5123 63.7558 48.9883C63.3638 49.4643 62.8738 49.847 62.2858 50.1363C61.6978 50.4163 61.0118 50.5563 60.2278 50.5563ZM60.2278 49.7583C60.8811 49.7583 61.4458 49.6323 61.9218 49.3803C62.3978 49.1283 62.7851 48.797 63.0838 48.3863C63.3918 47.9663 63.6158 47.495 63.7558 46.9723C63.9051 46.4496 63.9798 45.913 63.9798 45.3623C63.9798 44.821 63.9051 44.289 63.7558 43.7663C63.6158 43.2343 63.3918 42.763 63.0838 42.3523C62.7851 41.9323 62.3978 41.5963 61.9218 41.3443C61.4458 41.0923 60.8811 40.9663 60.2278 40.9663C59.5651 40.9663 58.9958 41.0923 58.5198 41.3443C58.0438 41.5963 57.6518 41.9323 57.3438 42.3523C57.0451 42.763 56.8211 43.2343 56.6718 43.7663C56.5318 44.289 56.4618 44.821 56.4618 45.3623C56.4618 45.913 56.5318 46.4496 56.6718 46.9723C56.8211 47.495 57.0451 47.9663 57.3438 48.3863C57.6518 48.797 58.0438 49.1283 58.5198 49.3803C58.9958 49.6323 59.5651 49.7583 60.2278 49.7583Z" fill="black"/>
<path d="M66.4188 40.3643H67.3708V45.7403L73.1808 40.3643H74.4688L70.0028 44.4943L74.6788 50.3603H73.4468L69.2888 45.1523L67.3708 46.9303V50.3603H66.4188V40.3643Z" fill="black"/>
<path d="M76.3089 43.4163V40.2803H77.3309V43.4163L77.1349 47.8263H76.5049L76.3089 43.4163ZM76.3089 50.3603V49.1283H77.3309V50.3603H76.3089Z" fill="black"/>
<path d="M80.971 43.4163V40.2803H81.993V43.4163L81.797 47.8263H81.167L80.971 43.4163ZM80.971 50.3603V49.1283H81.993V50.3603H80.971Z" fill="black"/>
<path d="M85.6331 43.4163V40.2803H86.6551V43.4163L86.4591 47.8263H85.8291L85.6331 43.4163ZM85.6331 50.3603V49.1283H86.6551V50.3603H85.6331Z" fill="black"/>
</svg>
