<svg width="1024" height="1366" viewBox="0 0 1024 1366" fill="none" xmlns="http://www.w3.org/2000/svg">
<path d="M971.653 928.948L993.758 913.053L983.799 938.379L1011.03 938.497L988.084 953.152L1010.04 969.239L982.868 967.616L991.158 993.517L970.131 976.249L961.591 1002.08L954.735 975.747L932.63 991.642L942.589 966.317L915.342 966.199L938.304 951.544L916.332 935.457L943.52 937.095L935.23 911.179L956.257 928.461L964.797 902.619L971.653 928.948Z" fill="#2FAD74"/>
<path d="M859.427 766.057C863.635 781.408 866.951 796.989 869.356 812.723C869.726 815.158 870.051 817.785 868.928 819.984C866.815 824.102 861.185 824.412 856.575 824.412C802.444 823.474 749.388 839.562 704.914 870.399C685.129 884.198 665.609 905.421 669.998 929.108C767.067 916.829 863.811 902.45 960.229 885.969L930.987 766.057" fill="black"/>
<path d="M765.036 805.36C764.73 803.098 765.255 800.801 766.514 798.896C767.446 797.745 768.62 796.813 769.953 796.165C771.286 795.517 772.745 795.17 774.227 795.147C779.517 795 783.27 798.379 785.604 801.449C789.683 806.806 805.656 833.652 791.367 833.741C775.705 833.844 765.568 812.666 765.036 805.36Z" stroke="#1D1D1B" stroke-width="2.09" stroke-miterlimit="10"/>
<path d="M822.887 794.94C822.512 792.69 821.337 790.651 819.577 789.199C818.339 788.37 816.932 787.825 815.458 787.603C813.984 787.381 812.479 787.488 811.051 787.915C805.953 789.391 803.368 793.656 802.052 797.286C799.747 803.603 792.419 833.976 806.101 829.844C821.099 825.313 824.542 802.098 822.887 794.94Z" stroke="#1D1D1B" stroke-width="2.09" stroke-miterlimit="10"/>
</svg>
