<svg width="1024" height="1366" viewBox="0 0 1024 1366" fill="none" xmlns="http://www.w3.org/2000/svg">
<g clip-path="url(#clip0)">
<path d="M515.668 295.603C505.349 267.225 498.925 236.086 505.813 206.649C513.424 174.169 536.565 147.751 562.287 127.731C650.235 59.3382 778.661 54.0753 871.562 115.038C883.183 122.376 894.192 130.641 904.481 139.753C918.481 152.702 930.072 168.032 938.716 185.03C947.204 201.773 952.054 235.105 932.654 275.79C959.68 333.089 990.313 388.616 1024.37 442.037L925.095 484.373C925.095 484.373 925.378 590.561 895.968 630.884C877.909 655.574 843.622 662.023 814.934 653.871C786.246 645.719 762.175 625.647 739.989 605.008C692.261 560.557 660.012 509.011 618.347 459.761C576.682 410.511 537.933 357.52 515.668 295.603Z" fill="#2FAD74"/>
<path d="M885.245 454.343C879.608 452.647 874.352 449.879 869.765 446.191C863.853 440.797 860.124 433.423 859.282 425.464C858.441 417.506 860.546 409.515 865.199 403.004C870.931 396.066 878.748 391.162 887.489 389.021C897.765 386.272 908.573 386.197 918.887 388.802C929.2 391.408 938.676 396.607 946.413 403.907C953.6 410.435 958.372 419.198 959.958 428.777C960.66 433.551 960.073 438.427 958.259 442.899C956.444 447.372 953.468 451.278 949.638 454.214C934.494 464.534 901.291 459.606 885.245 454.343Z" fill="#ED603C"/>
<path d="M917.256 452.515C912.835 451.894 908.541 450.571 904.537 448.594C900.505 446.596 897.353 443.178 895.688 438.997C895.349 438.285 895.191 437.501 895.227 436.713C895.263 435.926 895.492 435.159 895.895 434.482C896.686 433.666 897.733 433.147 898.862 433.011C903.631 432.4 908.477 433.077 912.896 434.972C918.157 436.887 923.213 439.324 927.988 442.247C932.065 444.827 937.663 448.568 932.503 452.102C928.324 454.992 921.848 453.315 917.256 452.515Z" fill="black"/>
<path d="M893.516 317.625C897.736 295.541 865.977 270.914 822.578 262.62C779.18 254.326 740.577 265.504 736.356 287.589C732.135 309.673 763.895 334.299 807.294 342.594C850.692 350.888 889.295 339.709 893.516 317.625Z" fill="black"/>
<path d="M865.229 312.218C867.931 298.083 847.6 282.321 819.82 277.011C792.04 271.702 767.33 278.857 764.629 292.991C761.927 307.126 782.257 322.889 810.037 328.198C837.817 333.508 862.528 326.353 865.229 312.218Z" fill="white"/>
<path d="M513.888 203.582C491.933 176.751 471.655 133.048 476.893 97.291C485.638 98.323 495.416 104.102 503.827 107.224C513.733 110.939 524.053 114.396 534.372 117.414C543.789 119.994 553.309 122.264 562.596 125.36C573.87 129.153 585.815 126.366 597.321 128.224C608.367 129.789 618.805 134.238 627.583 141.123C630.106 143.194 632.383 145.549 634.368 148.14C636.066 150.476 637.617 152.914 639.012 155.441C643.011 162.356 647.01 168.702 648.145 176.751C649.177 184.285 647.629 191.534 647.629 199.041C646.646 210.177 642.953 220.904 636.871 230.284C631.479 238.694 623.481 248.627 613.652 251.723C605.757 254.302 597.579 256.702 589.349 255.902C584.719 255.262 580.176 254.103 575.805 252.445C569.859 250.048 564.2 246.993 558.933 243.338C553.194 239.829 547.672 235.978 542.396 231.806C531.869 223.492 522.307 214.025 513.888 203.582V203.582Z" fill="#ED603C"/>
<path d="M505.843 107.973C508.423 80.3938 514.331 66.3851 516.163 38.7804C508.784 50.1576 500.683 59.729 493.305 71.0289C490.183 58.4391 481.902 26.2422 481.902 26.2422L479.141 43.3984C477.671 53.1503 476.562 62.1025 474.988 71.777C465.339 59.8064 442.069 39.606 442.069 39.606C442.069 39.606 447.228 55.5754 457.548 81.2452C444.683 76.1198 431.904 70.6677 419.211 64.8887C430.924 77.7881 444.391 90.6875 456.542 103.355C456.542 103.355 423.984 109.443 420.423 109.908C420.423 109.908 459.56 122.239 477.026 125.774C477.673 125.895 478.329 125.964 478.987 125.98C483.785 126.117 488.568 125.374 493.099 123.787C496.183 122.833 499.049 121.281 501.535 119.221C502.359 118.216 503.126 117.165 503.831 116.074C504.755 114.49 505.343 112.734 505.559 110.914L505.843 107.973Z" fill="black"/>
<path d="M1005.05 94.7884H1006.36L1000.56 198.68C983.995 174.929 969.462 149.824 957.115 123.631C955.206 154.745 953.279 185.858 951.336 216.971C933.308 192.343 917.172 166.384 903.066 139.317C899.816 170.121 896.513 201.234 899.248 232.193L858.641 156.422C852.669 180.867 849.211 205.858 848.321 231.006C835.071 211.505 824.12 190.538 815.686 168.521C809.752 191.585 804.954 214.907 801.29 238.488C785.008 212.532 772.337 184.481 763.624 155.106C793.886 135.705 825.283 124.715 859.647 113.828C859.647 113.828 959.127 79.1543 1006.31 94.7626" fill="black"/>
<path d="M898.144 596.535C945.362 578.881 976.969 546.729 968.741 524.722C960.512 502.714 915.564 499.185 868.346 516.839C821.128 534.493 789.521 566.645 797.749 588.653C805.977 610.66 850.926 614.189 898.144 596.535Z" fill="black"/>
<path d="M965.396 520.621C934.543 519.272 903.769 524.704 875.242 536.533C846.715 548.363 821.128 566.303 800.284 589.09C830.795 594.362 862.185 590.363 890.399 577.61C919.526 564.427 945.918 545.929 965.396 520.621Z" fill="white"/>
<path d="M910.652 520.519C913.928 534.992 912.251 549.672 902.19 558.185C892.128 566.699 874.637 569.898 863.492 565.693C860.195 564.567 857.146 562.815 854.514 560.533C851.375 557.244 848.693 553.548 846.542 549.543C847.188 545.684 848.638 542.004 850.798 538.742C852.958 535.479 855.78 532.708 859.08 530.606C870.759 522.844 884.952 519.81 898.784 522.119C899.728 522.394 900.73 522.394 901.674 522.119C902.381 521.755 903.04 521.305 903.635 520.777C905.879 519.049 908.124 520.313 910.652 520.519Z" fill="black"/>
<path d="M545.454 316.609C551.08 319.027 556.842 321.11 562.711 322.848C570.2 324.993 576.977 329.118 582.337 334.791C598.555 351.784 613.758 366.956 624.054 389.12C629.178 400.189 633.722 411.89 633.94 424.076C634.157 436.262 629.613 449.177 619.68 456.168C610.785 462.431 599.208 463.184 589.492 468.015C562.228 481.609 560.077 518.993 547.339 546.618C543.931 554.047 538.832 561.621 530.952 563.781C523.073 565.942 515.242 562.252 508.354 558.222C482.078 542.817 460.234 520.827 444.956 494.402C438.285 482.823 432.871 470.127 432.485 456.775C431.566 425.46 457.718 390.455 471.978 363.412C489.259 330.397 509.199 309.472 545.454 316.609Z" stroke="black" stroke-width="1.5" stroke-miterlimit="10"/>
</g>
<defs>
<clipPath id="clip0">
<rect width="1024" height="1366" fill="white"/>
</clipPath>
</defs>
</svg>
