<svg width="1024" height="1366" viewBox="0 0 1024 1366" fill="none" xmlns="http://www.w3.org/2000/svg">
<g clip-path="url(#clip0)">
<path d="M253.583 682.314C275.477 659.764 303.401 644.205 330.907 628.972C349.543 618.632 368.784 608.138 389.944 605.791C423.601 602.077 456.957 620.371 478.505 646.517C500.054 672.663 511.391 705.661 519.179 738.612C538.899 822.52 538.107 909.944 516.869 993.481C503.487 1045.85 481.266 1097.43 443.013 1135.63C404.76 1173.82 348.406 1196.61 295.632 1184.99C258.433 1176.78 226.575 1152.85 199.529 1126C174.597 1101.52 153.105 1073.76 135.639 1043.49C127.58 1029.34 120.379 1013.99 120.301 997.699C120.203 982.067 126.777 966.928 127.337 951.259C127.898 935.589 122.383 920.105 121.861 904.309C121.453 885.334 124.829 866.468 131.794 848.814C138.647 832.013 149.636 817.218 163.741 805.805C174.824 796.6 189.773 792.671 199.124 781.238C223.117 751.898 225.307 711.44 253.583 682.314Z" fill="#EBFF00"/>
<path d="M117.624 704.572C110.145 700.707 101.843 698.708 93.4246 698.746C73.1825 699.576 56.7705 717.928 52.7437 737.774C49.5671 753.505 52.6566 769.767 55.73 785.516L68.403 850.355C72.8986 873.417 77.485 896.749 87.3054 918.088C90.1912 924.389 97.4213 931.453 102.779 927.072C104.273 925.646 105.315 923.811 105.774 921.797C109.856 908.463 107.345 894.082 108.588 880.177C110.42 860.008 120.162 842.118 132.449 826.42C143.747 812.017 166.579 798.992 169.074 781.496C173.35 751.221 142.439 716.368 117.624 704.572Z" fill="black"/>
<path d="M518.022 918.844C530.351 899.079 508.845 863.406 469.987 839.167C431.129 814.928 389.633 811.302 377.304 831.068C364.974 850.833 386.48 886.506 425.338 910.745C464.197 934.984 505.692 938.61 518.022 918.844Z" fill="black"/>
<path d="M492.694 903.051C500.586 890.4 486.824 867.568 461.955 852.055C437.086 836.543 410.528 834.224 402.636 846.875C394.744 859.527 408.507 882.359 433.376 897.871C458.245 913.384 484.803 915.703 492.694 903.051Z" fill="white"/>
<path d="M412.441 876.72C419.849 879.583 428.176 875.899 431.04 868.491C433.904 861.083 430.22 852.755 422.811 849.891C415.403 847.028 407.076 850.712 404.212 858.12C401.348 865.528 405.032 873.856 412.441 876.72Z" fill="black"/>
<path d="M428.487 785.752C442.269 784.238 457.043 785.251 468.628 792.849C477.951 798.987 484.335 808.842 489.815 818.719C490.692 820.683 492.033 822.406 493.723 823.738C494.592 824.371 495.664 824.664 496.735 824.56C497.805 824.457 498.801 823.965 499.534 823.177C500.196 822.016 500.45 820.666 500.256 819.344C499.816 808.816 496.488 798.612 490.636 789.85C484.784 781.087 476.633 774.104 467.077 769.666C457.521 765.227 446.927 763.503 436.457 764.683C425.986 765.864 416.043 769.903 407.714 776.358C392.482 788.13 422.667 786.387 428.487 785.752Z" fill="#D597C3"/>
<path d="M438.873 753.067C452.661 751.535 467.451 752.555 479.013 760.163C488.342 766.284 494.727 776.14 500.207 786.016C501.084 787.981 502.425 789.703 504.115 791.035C504.984 791.668 506.056 791.961 507.126 791.858C508.197 791.754 509.193 791.262 509.926 790.475C510.583 789.314 510.843 787.97 510.664 786.647C510.219 776.123 506.887 765.923 501.033 757.165C495.18 748.407 487.031 741.427 477.477 736.989C467.923 732.551 457.333 730.826 446.864 732.003C436.396 733.18 426.453 737.213 418.123 743.662C402.874 755.427 433.052 753.702 438.873 753.067Z" fill="#D597C3"/>
<path d="M309.177 695.656C322.966 694.124 337.756 695.144 349.318 702.752C358.647 708.873 365.032 718.729 370.512 728.605C371.389 730.57 372.73 732.292 374.419 733.624C375.289 734.257 376.36 734.55 377.431 734.447C378.502 734.343 379.498 733.851 380.23 733.064C380.888 731.903 381.147 730.559 380.969 729.236C380.523 718.712 377.191 708.512 371.338 699.754C365.485 690.995 357.335 684.016 347.782 679.578C338.228 675.14 327.637 673.415 317.169 674.592C306.701 675.769 296.758 679.802 288.428 686.251C273.178 698.016 303.357 696.291 309.177 695.656Z" fill="#D597C3"/>
<path d="M363.853 908.908C363.458 910.813 362.566 912.58 361.269 914.029C360.612 914.744 359.769 915.262 358.834 915.524C357.9 915.786 356.911 915.782 355.978 915.512C355.146 915.117 354.406 914.553 353.803 913.857C353.199 913.161 352.747 912.347 352.474 911.468C350.19 905.829 350.902 899.398 352.684 893.577C354.372 887.597 356.617 881.789 359.39 876.229C360.812 880.872 362.12 885.958 363.294 890.739C364.978 896.656 365.17 902.898 363.853 908.908Z" fill="black"/>
<path d="M84.4396 788.271C84.2139 774.383 85.5381 760.217 92.9557 749.147C98.6236 740.637 110.308 734.16 121.539 739.145C126.741 741.73 131.062 745.794 133.962 750.828C141.793 763.445 142.501 778.709 135.758 789.747C130.535 798.215 121.638 803.937 114.723 811.186C103.865 822.582 100.486 836.013 98.1209 851.258C84.5431 845.638 84.6574 799.154 84.4396 788.271Z" fill="white"/>
<path d="M153.769 901.48C162.833 923.716 180.381 941.201 197.483 958.026C198.241 958.787 199.46 959.921 200.886 961.174C202.03 962.177 203.382 962.915 204.845 963.336C206.308 963.757 207.846 963.85 209.349 963.608C210.852 963.366 212.283 962.795 213.54 961.936C214.797 961.078 215.849 959.953 216.621 958.641C220.064 952.759 224.301 945.782 226.536 942.825C234.015 933.007 237.981 929.706 237.795 920.707C237.672 915.819 236.44 911.024 234.192 906.682L207.665 854.285C204.296 847.478 199.399 841.543 193.356 836.942C153.798 807.362 144.009 877.513 153.769 901.48Z" fill="#ED603C"/>
<path d="M291.207 1097.78C342.598 1117.65 396.523 1102.03 411.653 1062.89C426.784 1023.75 397.389 975.912 345.999 956.047C294.608 936.181 240.683 951.805 225.553 990.945C210.422 1030.08 239.817 1077.92 291.207 1097.78Z" fill="#D597C3"/>
<path d="M361.547 933.104C379.658 940.71 395.519 951.617 406.743 967.865C408.541 970.373 410.192 972.96 411.712 975.634C419.805 989.81 424.068 1005.85 424.08 1022.17C424.093 1038.5 419.855 1054.54 411.783 1068.73C403.712 1082.92 392.085 1094.76 378.047 1103.09C364.009 1111.43 348.044 1115.96 331.723 1116.25C328.782 1116.9 325.806 1117.38 322.809 1117.67C319.862 1118 316.899 1118.16 313.934 1118.14C305.967 1118.53 298.012 1117.15 290.641 1114.11C288.165 1113.13 285.749 1112 283.403 1110.74C272.565 1104.37 260.967 1099.39 248.882 1095.92C221.311 1088.13 226.677 1051.96 221.855 1028.63C221.511 1025.53 221.26 1022.55 221.194 1019.45C220.631 994.039 230.18 969.447 247.741 951.077C249.858 948.876 252.085 946.783 254.414 944.807C261.143 938.09 270.493 931.198 280.378 933.109C285.062 933.654 289.511 935.454 293.255 938.321C306.283 952.675 323.649 937.4 336.865 931.399C341.788 929.495 347.13 928.942 352.338 929.797L361.547 933.104ZM306.502 1084.72C319.85 1083.02 331.528 1075.1 344.921 1076.46C348.489 1076.96 352.02 1077.25 355.423 1077.48C382.856 1078.92 405.101 1070.54 411.643 1053.62C415.688 1043.15 412.97 1030.97 405.167 1019.09C403.547 1016.63 401.787 1014.26 399.895 1012C396.508 1008.41 392.995 1005.14 388.519 1004.37C379.316 1003.12 370.406 1000.25 362.206 995.891C359.577 994.523 357.034 993.034 354.534 991.483C326.179 985.063 299.289 980.399 275.831 963.125C273.347 962.753 270.837 962.585 268.326 962.621C265.663 962.787 263.072 963.085 260.554 963.515C255.9 964.726 251.471 966.68 247.44 969.303C243.423 971.93 240.039 975.415 237.53 979.507C234.279 984.763 232.429 990.764 232.158 996.939C231.887 1003.11 233.204 1009.25 235.982 1014.77C237.032 1017.01 238.199 1019.2 239.479 1021.31C249.897 1046.45 274.865 1060.88 292.32 1080.57C294.523 1082.2 297.025 1083.39 299.684 1084.06C301.926 1084.52 304.212 1084.75 306.502 1084.72V1084.72Z" fill="black"/>
<path d="M293.51 997.249C293.144 997.958 292.99 998.759 293.068 999.553C293.255 1000.09 293.545 1000.57 293.921 1000.99C294.297 1001.41 294.752 1001.76 295.261 1002C304.157 1007.72 313.494 1012.71 323.185 1016.95C327.2 1006.26 330.798 995.387 333.969 984.41C334.419 983.489 334.521 982.435 334.255 981.445C333.99 980.454 333.376 979.592 332.526 979.018C328.271 974.898 323.259 970.466 317.288 970.633C303.837 970.989 297.637 986.876 293.51 997.249Z" fill="white"/>
<path d="M359.927 1022.93C359.706 1023.7 359.277 1024.39 358.687 1024.92C358.192 1025.19 357.648 1025.36 357.087 1025.42C356.526 1025.48 355.959 1025.42 355.419 1025.26C344.991 1023.51 334.719 1020.93 324.702 1017.54C328.921 1006.93 333.57 996.463 338.623 986.214C338.988 985.263 339.606 984.43 340.412 983.806C341.305 983.338 342.312 983.126 343.318 983.195C349.239 983.008 355.911 983.093 360.217 987.233C369.948 996.55 363.833 1012.47 359.927 1022.93Z" fill="white"/>
<path d="M365.547 1009.68C365.794 1006.72 366.351 1003.79 367.208 1000.95C367.656 999.527 368.495 998.261 369.63 997.296C370.765 996.331 372.15 995.707 373.624 995.494C375.626 995.52 377.545 996.296 379.001 997.67C380.948 999.473 382.505 1001.65 383.579 1004.08C384.652 1006.51 385.218 1009.13 385.243 1011.78C385.248 1017.08 384.395 1022.36 382.716 1027.39C382.559 1028.22 382.174 1028.99 381.604 1029.61C381.076 1030.03 380.448 1030.29 379.783 1030.39C376.639 1030.78 373.446 1030.36 370.511 1029.16C368.278 1028.44 363.993 1027.87 362.286 1026.24C360.278 1024.27 361.681 1022.1 362.563 1019.87C363.913 1016.59 364.913 1013.17 365.547 1009.68V1009.68Z" fill="white"/>
<path d="M287.409 969.437C289.311 967.631 291.588 966.268 294.078 965.446C295.328 965.055 296.646 964.938 297.945 965.104C299.244 965.269 300.491 965.713 301.602 966.405C302.141 966.747 302.605 967.195 302.964 967.723C303.323 968.251 303.571 968.847 303.691 969.474C303.735 970.663 303.467 971.843 302.913 972.896C299.633 980.575 295.914 988.026 292.223 995.508C292.006 996.03 291.684 996.503 291.277 996.896C290.706 997.234 290.06 997.423 289.397 997.446C288.734 997.469 288.076 997.325 287.484 997.028C283.801 996.004 280.593 993.722 278.417 990.58C273.985 983.389 282.273 974.001 287.409 969.437Z" fill="white"/>
<path d="M271.633 1031.95C272.334 1030.18 273.548 1028.65 275.121 1027.57C277.61 1026.18 280.664 1026.95 283.343 1027.88C286.048 1028.84 288.703 1029.93 291.298 1031.15C292.831 1031.73 294.177 1032.72 295.187 1034C296.617 1036.15 296.079 1039.01 295.386 1041.51C293.021 1050.06 289.628 1058.3 285.279 1066.04C284.904 1066.88 284.29 1067.59 283.513 1068.09C281.724 1069.03 279.665 1067.55 278.176 1066.16C273.595 1061.87 267.616 1058.18 266.539 1052.09C265.462 1046 269.012 1037.37 271.633 1031.95Z" fill="white"/>
<path d="M297.693 1041.07C298.02 1040.2 298.476 1039.38 299.045 1038.63C299.834 1037.86 300.816 1037.3 301.891 1037.03C302.966 1036.76 304.093 1036.78 305.156 1037.1C307.269 1037.76 309.242 1038.81 310.979 1040.19C311.929 1040.73 312.709 1041.52 313.231 1042.48C313.634 1043.9 313.49 1045.43 312.828 1046.75L302.644 1075.46C301.7 1077.9 300.632 1080.67 298.208 1081.54C295.783 1082.42 292.433 1080.85 290.392 1078.72C288.878 1077.14 284.997 1074.12 284.766 1071.94C284.489 1069.38 287.447 1065.01 288.464 1062.73L297.693 1041.07Z" fill="white"/>
<path d="M330.229 1055.81C330.555 1055 330.741 1054.14 330.781 1053.27C330.669 1052.2 330.278 1051.18 329.647 1050.31C329.017 1049.43 328.169 1048.74 327.188 1048.3C325.181 1047.38 323.034 1046.82 320.837 1046.62C319.792 1046.38 318.7 1046.4 317.668 1046.7C316.459 1047.39 315.566 1048.52 315.182 1049.86L304.248 1075.82C303.376 1078.08 302.386 1080.64 303.6 1082.84C304.814 1085.05 308.138 1084.27 311.05 1084.14C313.93 1083.58 316.703 1082.57 319.267 1081.14C320.198 1080.67 321.016 1080.01 321.668 1079.19C322.319 1078.38 322.787 1077.43 323.041 1076.42L330.229 1055.81Z" fill="white"/>
<path d="M328.212 1067.59L332.127 1056.35C332.335 1055.57 332.702 1054.84 333.206 1054.21C334.265 1053.31 335.63 1052.85 337.02 1052.92C338.758 1052.85 340.499 1052.94 342.222 1053.18C344.847 1053.55 347.762 1054.58 348.77 1057.02C349.304 1058.85 349.232 1060.8 348.565 1062.59C347.483 1066.85 346.361 1071.11 345.195 1075.34C345.135 1075.77 344.976 1076.18 344.729 1076.54C344.019 1077.32 342.781 1077.1 341.749 1076.89C336.781 1075.93 332.512 1077.59 327.824 1078.88C324.93 1079.71 325.642 1077.41 326.065 1075.16C326.586 1072.58 327.304 1070.05 328.212 1067.59V1067.59Z" fill="white"/>
<path d="M599.893 663.691L484.214 674.76L511.778 718.826L599.893 663.691Z" fill="black"/>
<path d="M544.898 575.794L484.337 674.971L456.773 630.906L544.898 575.794Z" fill="black"/>
<path d="M333.391 835.466C330.429 811.261 321.274 760.92 317.959 741.511L284.474 734.746C268.45 746.952 252.431 759.161 236.418 771.372C238.837 797.985 243.127 824.395 249.256 850.406L333.391 835.466Z" fill="black"/>
<path d="M218.766 798.521C218.946 779.841 225.596 761.801 237.584 747.474C244.834 739.386 253.202 732.375 262.435 726.653C276.371 717.479 292.179 709.36 306.689 712.669C311.979 714.015 316.914 716.494 321.15 719.936C338.244 733.152 347.805 756.574 349.473 781.253C351.141 805.932 345.536 831.776 336.345 855.805C332.293 866.285 327.47 876.896 319.879 884.683C304.818 900.146 282.244 900.504 266.373 890.782C242.705 876.272 218.797 831.319 218.766 798.521Z" stroke="#1D1D1B" stroke-width="2" stroke-miterlimit="10"/>
<path d="M545.529 830.227C562.342 807.109 595.479 792.869 620.121 807.442C639.581 818.95 647.072 844.853 642.711 867.066C638.35 889.279 624.396 908.335 609.125 924.973C597.704 937.457 584.76 950.029 581.118 966.626C579.05 976.035 573.611 994.116 573.611 994.116C573.611 994.116 561.902 1001.43 554.991 1002.72C545.642 1004.59 534.703 1005.37 527.798 998.733C520.555 991.79 521.226 980.172 522.462 970.232C525.843 942.851 531.412 914.814 532.72 887.255C533.669 867.257 530.606 846.801 545.529 830.227Z" fill="#2FAD74"/>
<path d="M611.721 870.415C614.1 861.57 614.968 840.985 609.308 833.803C603.647 826.62 585.486 823.882 576.953 827.257C569.489 830.168 562.146 841.194 558.144 848.188C554.208 855.333 551.724 863.201 550.835 871.337C549.784 879.64 555.491 892.479 556.601 900.804C558.96 918.388 550.924 937.975 549.811 950.097L552.877 951.453C557.571 944.82 573.902 917.378 587.284 905.068C597.207 895.727 608.151 883.681 611.721 870.415Z" fill="white"/>
<path d="M573.881 893.135C564 896.101 553.585 890.496 550.618 880.615C547.652 870.734 553.257 860.319 563.138 857.352C573.019 854.385 583.434 859.991 586.401 869.872C589.367 879.753 583.762 890.168 573.881 893.135Z" fill="black"/>
</g>
<defs>
<clipPath id="clip0">
<rect width="1024" height="1366" fill="white"/>
</clipPath>
</defs>
</svg>
