<svg width="1024" height="1366" viewBox="0 0 1024 1366" fill="none" xmlns="http://www.w3.org/2000/svg">
<g clip-path="url(#clip0)">
<path d="M660.029 1025.55L695.33 1100.9L754.829 1023.41C754.829 1023.41 801.378 999.875 839.404 934.276C841.008 937.036 842.681 939.231 843.635 941.683C851.645 962.233 854.72 983.313 853.011 1005.21C851.022 1030.71 821.897 1097.05 821.897 1097.05C825.772 1095.76 840.041 1094.8 852.802 1088.04C871.779 1079.88 900.137 1056.63 900.137 1056.63L884.495 1130.62L831.539 1188.85L843.695 1224.19C843.695 1224.19 871.807 1229.32 884.961 1221.6C895.985 1215.11 909.925 1184.94 909.925 1184.94C909.054 1184.73 910.817 1185.15 909.925 1184.94C909.925 1184.94 905.676 1241.43 899.775 1256.42C888.181 1285.85 870.989 1311.65 842.993 1328.81C826.486 1338.95 808.317 1344.83 789.098 1346.68C773.944 1348.14 758.395 1349.06 743.276 1347.48C714.547 1344.46 687.056 1336.75 662.507 1320.08C650.004 1311.58 638.412 1302.38 628.442 1291.08C610.426 1270.68 599.64 1246.99 594.673 1220.74C587.938 1185.2 611.527 1120.6 611.527 1120.6L660.029 1025.55Z" fill="#ED603C"/>
<path d="M682.904 1221.7C695.243 1210.59 706.507 1198.07 714.622 1183.54C722.737 1169.02 727.762 1152.51 727.048 1135.94C708.007 1153.53 693.869 1175.78 686.023 1200.49C684.721 1204.67 683.754 1208.95 683.132 1213.28C682.827 1216.24 683.139 1218.79 682.904 1221.7Z" fill="white"/>
<path d="M720.911 1170.52C713.718 1173.86 706.897 1178.44 702.267 1184.78C697.637 1191.12 695.3 1199.43 697.58 1207.02C701.56 1202.61 705.281 1197.98 708.724 1193.14C713.772 1186.14 717.874 1178.52 720.923 1170.45L720.911 1170.52Z" fill="black"/>
<path d="M724.194 1213.03C730.273 1186.89 742.835 1162.7 760.721 1142.69C775.234 1126.52 792.36 1112.95 809.389 1099.46C802.792 1120.3 792.212 1139.65 779.604 1157.44C770.982 1169.46 761.675 1180.97 751.729 1191.91C746.771 1197.42 741.674 1202.89 736.543 1208.26C731.614 1213.42 726.799 1218.57 722.095 1223.92C722.667 1220.26 723.366 1216.64 724.194 1213.03Z" fill="white"/>
<path d="M791.997 1138.23L789.013 1138.38C789.013 1138.38 782.964 1140.87 779.694 1142.72C763.207 1152.01 752.715 1172.38 752.275 1191.3C752.275 1191.3 761.884 1180.47 765.297 1176.15C774.282 1164.77 784.105 1153.45 790.652 1140.53C790.856 1140.12 791.997 1138.23 791.997 1138.23V1138.23Z" fill="black"/>
<path d="M795.567 1257.22C804.776 1240.45 819.209 1227.4 836.056 1218.38C852.318 1209.68 870.2 1204.66 888.449 1201.94C877.567 1217.45 862.796 1234.35 845.162 1244.26C827.825 1254.06 809.366 1261.73 790.186 1267.09L795.567 1257.22Z" fill="white"/>
<path d="M836.35 1239.21C835.429 1239.44 826.609 1242.32 825.651 1242.32C823.499 1242.3 819.564 1242.31 817.407 1242.18C813.938 1241.98 809.94 1242.19 807.975 1239.32C820.311 1226.77 835.395 1217.26 852.037 1211.55V1211.55C851.551 1217.01 849.896 1222.3 847.185 1227.07C844.473 1231.83 840.769 1235.96 836.323 1239.17" fill="black"/>
<path d="M814.354 1185.24C807.644 1196.05 803.986 1206.3 795.22 1214.07C786.453 1221.83 778.164 1226.67 767.99 1232.43C770.579 1220.92 776.862 1209.35 786.472 1202.54C798.976 1193.72 804.18 1191.19 814.354 1185.24Z" fill="white"/>
<path d="M789.906 1200.17C791.683 1201.68 791.792 1204.09 791.406 1206.38C790.467 1212.07 785.819 1216.46 780.807 1219.29C777.989 1220.99 774.766 1221.9 771.474 1221.93C775.169 1212.91 781.621 1205.3 789.906 1200.17V1200.17Z" fill="black"/>
<path d="M719.155 1243.45C721.819 1241.32 724.743 1239.54 727.857 1238.15C736.763 1233.75 745.748 1229.59 754.815 1225.67C748.988 1235.23 743.044 1244.94 734.705 1253.42C725.863 1262.4 714.323 1270.31 703.314 1276.58C705.604 1268.29 711.217 1250.33 719.155 1243.45Z" fill="white"/>
<path d="M740.323 1247.15C738.028 1245.4 735.136 1244.62 732.27 1244.97C729.504 1245.4 726.865 1246.42 724.541 1247.98C716.553 1252.98 710.91 1262.36 711.442 1271.78C720.871 1266.21 732.49 1257.04 740.323 1247.15Z" fill="black"/>
<path d="M630.196 1140.6L677.59 1170.44L678.637 1171.1L678.737 1169.87L684.206 1102.55C684.239 1102.49 684.281 1102.41 684.332 1102.32C684.468 1102.07 684.665 1101.71 684.915 1101.22C685.413 1100.26 686.12 1098.82 686.958 1096.93C688.636 1093.16 690.842 1087.59 692.968 1080.38C697.151 1066.19 701.023 1045.63 699.944 1019.88C700.202 1020 700.455 1020.12 700.701 1020.23C701.017 1020.38 701.322 1020.52 701.612 1020.66C702.478 1021.08 703.245 1021.48 703.925 1021.98L703.925 1021.98C716.175 1030.88 725.779 1041.93 732.937 1055.23C734.994 1059.06 737.048 1065.01 738.972 1071.85C740.893 1078.67 742.67 1086.32 744.187 1093.48C745.704 1100.64 746.959 1107.32 747.835 1112.21C748.273 1114.65 748.616 1116.65 748.849 1118.03C748.966 1118.72 749.055 1119.26 749.115 1119.63C749.146 1119.81 749.168 1119.95 749.184 1120.05L749.201 1120.15L749.205 1120.18L749.206 1120.18L749.206 1120.19C749.206 1120.19 749.206 1120.19 749.947 1120.07L749.206 1120.19L749.475 1121.86L750.533 1120.54C750.932 1120.04 751.709 1119.3 752.793 1118.28C752.865 1118.21 752.938 1118.14 753.011 1118.08C754.035 1117.11 755.271 1115.96 756.592 1114.62C759.417 1111.76 762.658 1108.05 765.137 1103.61C769.155 1097.6 773.095 1088.53 776.021 1081.01C777.489 1077.23 778.708 1073.83 779.561 1071.37C779.82 1070.62 780.046 1069.95 780.235 1069.4L798.052 1116.22L789.182 1169.82L789.109 1170.26L789.457 1170.54L809.744 1186.57L810.089 1186.84L810.496 1186.68L810.209 1185.98C810.496 1186.68 810.496 1186.68 810.496 1186.67L810.497 1186.67L810.5 1186.67L810.511 1186.67L810.552 1186.65C810.57 1186.64 810.593 1186.63 810.619 1186.62C810.646 1186.61 810.676 1186.6 810.71 1186.58C810.847 1186.53 811.048 1186.44 811.305 1186.32C811.819 1186.1 812.556 1185.76 813.455 1185.33C815.252 1184.47 817.699 1183.22 820.297 1181.67C822.894 1180.12 825.654 1178.27 828.072 1176.19C830.484 1174.13 832.593 1171.81 833.841 1169.32L833.841 1169.32C834.899 1167.21 835.449 1164.18 835.706 1160.9C835.965 1157.61 835.934 1153.98 835.779 1150.62C835.629 1147.38 835.364 1144.37 835.13 1142.12C835.456 1142.74 835.817 1143.42 836.208 1144.17C837.993 1147.57 840.395 1152.22 842.866 1157.21C845.337 1162.21 847.872 1167.54 849.926 1172.29C851.987 1177.07 853.535 1181.21 854.065 1183.86C858.345 1205.27 858.024 1226.57 848.309 1246.89L848.309 1246.89C842.582 1258.88 834.322 1269.04 823.955 1277.26L824.397 1277.82L823.955 1277.26C815.724 1283.79 807.097 1290.12 797.808 1294.84C780.09 1303.83 761.382 1309.6 741.062 1309.1C730.66 1308.84 720.56 1307.83 710.63 1305.01L710.63 1305.01C692.685 1299.93 677.67 1290.24 665.04 1276.9L665.04 1276.9C656.555 1267.94 649.664 1251.91 644.884 1238.01C642.501 1231.08 640.653 1224.72 639.402 1220.09C638.776 1217.77 638.3 1215.89 637.98 1214.59C637.82 1213.94 637.699 1213.43 637.618 1213.09C637.578 1212.92 637.548 1212.79 637.528 1212.7L637.508 1212.61L630.196 1140.6Z" stroke="black" stroke-width="1.5"/>
</g>
<defs>
<clipPath id="clip0">
<rect width="1024" height="1366" fill="white"/>
</clipPath>
</defs>
</svg>
