<svg width="1024" height="1366" viewBox="0 0 1024 1366" fill="none" xmlns="http://www.w3.org/2000/svg">
<g clip-path="url(#clip0)">
<path d="M266.326 960.24L23.4297 1149.12" stroke="black" stroke-width="0.8"/>
<path d="M266.234 960.361L22.4817 766.341" stroke="black" stroke-width="0.8"/>
<path d="M585.785 33.6055L999.265 207.127" stroke="black" stroke-width="0.8"/>
<path d="M23.4297 33.3652L23.4297 1333.26" stroke="black" stroke-width="0.8"/>
<path d="M266.844 207.966L585.504 403.283" stroke="black" stroke-width="0.8"/>
<path d="M784.34 402.466L999.176 591.297" stroke="black" stroke-width="0.8"/>
<path d="M266.234 402.67L22.4817 208.65" stroke="black" stroke-width="0.8"/>
<path d="M910.938 33.3652L910.937 1333.26" stroke="black" stroke-width="0.8"/>
<path d="M784.148 33.3652L784.148 1333.26" stroke="black" stroke-width="0.8"/>
<path d="M999.016 34.6992L999.016 1333.26" stroke="black" stroke-width="0.8"/>
<path d="M387.777 1333.26L387.777 33.3655" stroke="black" stroke-width="0.8"/>
<path d="M586.629 33.3652L586.629 1333.26" stroke="black" stroke-width="0.8"/>
<path d="M266.324 33.3652L266.324 1333.26" stroke="black" stroke-width="0.8"/>
<path d="M999.301 207.758L585.971 207.758" stroke="black" stroke-width="0.8"/>
<path d="M22.7695 207.758L585.962 207.758" stroke="black" stroke-width="0.8"/>
<path d="M22.7695 402.74L999.292 402.74" stroke="black" stroke-width="0.8"/>
<path d="M586.121 591.354L266.848 765.727" stroke="black" stroke-width="0.8"/>
<path d="M266.848 765.657L585.961 960.24" stroke="black" stroke-width="0.8"/>
<path d="M999.299 682.863L911.477 765.71" stroke="black" stroke-width="0.8"/>
<path d="M999.301 765.448H585.971" stroke="black" stroke-width="0.8"/>
<path d="M999.301 682.459L910.672 682.459" stroke="black" stroke-width="0.8"/>
<path d="M22.7695 765.448L585.962 765.448" stroke="black" stroke-width="0.8"/>
<path d="M22.7695 960.431L999.292 960.431" stroke="black" stroke-width="0.8"/>
<path d="M23.4297 1149.08L999.018 1149.09" stroke="black" stroke-width="0.8"/>
<path d="M22.6094 591.297L999.57 591.297" stroke="black" stroke-width="0.8"/>
</g>
<defs>
<clipPath id="clip0">
<rect width="1024" height="1366" fill="white"/>
</clipPath>
</defs>
</svg>
