<svg width="1024" height="1366" viewBox="0 0 1024 1366" fill="none" xmlns="http://www.w3.org/2000/svg">
<g clip-path="url(#clip0)">
<path d="M224.899 1179.08L196.082 1215.45L230.418 1246.65L184.97 1255.98L191.217 1301.95L150.404 1279.89L125.638 1319.12L108.556 1275.98L64.366 1290.12L79.0089 1246.09L36.0715 1228.52L75.587 1204.2L53.9934 1163.14L99.8918 1169.91L109.746 1124.58L140.551 1159.27L177.242 1130.87L178.539 1177.25L224.899 1179.08Z" fill="#2FAD74"/>
<path d="M251.276 1252.71C272.426 1251.37 291.191 1266.1 293.214 1287.2C294.184 1297.33 291.082 1307.45 284.588 1315.31C278.094 1323.18 268.741 1328.15 258.587 1329.14C237.404 1331.19 217.966 1315.82 216.641 1294.65C215.276 1272.75 230.746 1253.99 251.276 1252.71Z" fill="black"/>
<path d="M241.326 1320.41C252.091 1322.89 263.016 1315.46 265.727 1303.81C268.437 1292.16 261.907 1280.71 251.142 1278.23C240.376 1275.76 229.451 1283.19 226.74 1294.83C224.03 1306.48 230.56 1317.93 241.326 1320.41Z" fill="white"/>
<path d="M249.424 1296.64C253.461 1297.57 257.494 1295.06 258.433 1291.02C259.371 1286.99 256.859 1282.97 252.822 1282.04C248.784 1281.11 244.751 1283.63 243.813 1287.66C242.875 1291.69 245.387 1295.71 249.424 1296.64Z" fill="black"/>
</g>
<defs>
<clipPath id="clip0">
<rect width="1024" height="1366" fill="white"/>
</clipPath>
</defs>
</svg>
