<svg width="1024" height="1366" viewBox="0 0 1024 1366" fill="none" xmlns="http://www.w3.org/2000/svg">
<g clip-path="url(#clip0)">
<path d="M72.9116 264.375C86.6388 221.461 112.745 178.344 136.422 140.013C137.088 138.935 127.98 136.629 123.553 133.958C97.522 118.204 81.854 108.309 56.8883 90.8749C45.4368 82.8889 33.3147 73.582 28.8602 60.5591C28.2519 58.7543 29.9539 56.9829 31.7327 57.6028C49.3966 63.72 91.6628 82.042 116.105 93.4863C117.799 94.2843 122.27 96.3416 122.715 95.6176C123.056 95.0813 121.13 93.3034 116.816 89.4678C108.257 81.8403 105.908 80.0426 102.522 76.3476C96.2627 69.5546 95.7724 66.482 96.1901 64.3301C96.2769 63.873 97.1023 61.7351 98.9781 61.3244C105.544 59.8866 113.326 63.4234 118.943 67.6814C137.534 81.8136 154.215 96.676 172.792 110.802C175.328 112.741 177.943 114.745 179.449 117.589C182.712 123.704 179.865 131.237 176.987 137.621C172.072 148.484 157.774 169.695 154.87 176.192C128.116 236.089 118.139 255.836 129.858 328.387C132.003 341.692 135.985 353.417 129.693 366.419C115.084 396.646 76.7935 409.365 65.51 371.712C55.4696 338.099 62.4078 297.168 72.9116 264.375Z" fill="#2FAD74"/>
<path d="M112.96 78.1604C113.722 78.0103 114.553 77.8158 115.07 77.2221C116.09 76.0291 115.248 74.2027 114.291 72.9993C111.152 69.0068 106.915 65.9147 102.18 64.1421C101.02 63.7036 99.7893 63.3613 98.5562 63.5265C97.3232 63.6917 96.1014 64.51 95.766 65.716C95.4028 67.0868 96.065 68.705 96.8595 69.8822C98.7509 72.6665 100.81 75.2337 103.307 77.5102C103.719 77.8831 104.165 78.1685 104.636 78.3822C107.094 79.4985 110.241 78.6634 112.96 78.1604Z" fill="#ED603C"/>
<path d="M104.902 105.928C95.4883 101.457 80.1851 93.8486 68.7808 87.7664C53.5855 79.69 38.7973 70.8556 24.6618 61.0228" stroke="white" stroke-width="0.5" stroke-miterlimit="10"/>
<path d="M87.6445 104.836C81.7148 101.349 78.3328 99.6851 67.6539 93.5966C52.6929 85.0826 37.8375 76.1526 24.8372 64.8199" stroke="white" stroke-width="0.5" stroke-miterlimit="10"/>
<path d="M39.3325 68.3695C39.3754 68.2104 39.3523 68.0438 39.3234 67.8926C38.8307 65.4616 36.8973 63.6084 34.8443 62.2537C32.9698 61.0189 30.9456 60.0434 28.9307 59.0888C28.8009 59.0222 28.6654 58.971 28.5124 58.9658C28.2366 58.9667 28.0001 59.2281 27.9165 59.4946C27.8481 59.7668 27.9059 60.0693 27.9753 60.341C28.518 62.4577 29.9381 64.2571 31.6075 65.6247C32.9374 66.7061 34.4413 67.5552 35.9683 68.3429C36.5928 68.6491 39.0284 69.4471 39.3325 68.3695Z" fill="#ED603C"/>
<path d="M40.3496 74.3142C40.3809 74.1857 40.3671 74.0402 40.3324 73.9043C39.9102 71.8332 38.256 70.2434 36.5054 69.0906C34.9089 68.0312 33.1895 67.2058 31.4492 66.3901C31.3345 66.3292 31.2139 66.2837 31.0969 66.2745C30.857 66.2715 30.653 66.4925 30.5961 66.7341C30.5392 66.9756 30.5843 67.2206 30.6352 67.4503C31.105 69.2588 32.3177 70.787 33.7357 71.9544C34.8687 72.8737 36.1583 73.6066 37.4559 74.2725C38.026 74.5406 40.0943 75.2172 40.3496 74.3142Z" fill="#ED603C"/>
<path d="M42.1676 79.2138C42.185 79.1678 42.163 79.0893 42.1352 79.0262C41.7625 78.0085 40.6064 76.9226 39.4015 76.0112C38.3055 75.176 37.1238 74.4312 35.9478 73.671C35.8783 73.6272 35.7938 73.5776 35.7184 73.5492C35.5678 73.4922 35.4426 73.5501 35.4078 73.6422C35.373 73.7343 35.4135 73.8548 35.4691 73.9811C35.8466 74.8953 36.7223 75.8577 37.7162 76.6894C38.5133 77.3589 39.3845 77.9688 40.2824 78.5538C40.6392 78.7939 42.0342 79.5667 42.1676 79.2138Z" fill="#ED603C"/>
<path d="M89.8437 421.712C83.4436 359.907 98.5016 298.627 132.561 247.871C166.36 197.852 233.029 152.634 278.457 145.144C278.457 145.144 312.038 139.454 327.315 141.264C361.647 145.328 384.124 157.918 409.867 176.333C414.179 179.276 418.129 182.71 421.63 186.56C422.742 187.833 421.385 188.628 420.109 189.649C413.873 194.617 402.002 187.782 393.089 185.741C383.876 183.623 374.479 180.72 365.044 180.168C360.602 179.905 355.796 179.255 351.355 179.335C348.536 179.389 335.023 179.717 335.023 179.717C337.332 181.536 339.737 183.233 342.225 184.801C350.303 188.404 356.631 191.401 365.57 192.47C369.096 192.89 383.848 197.616 382.493 205.135C382.344 205.486 382.142 205.81 381.891 206.097C381.151 206.87 379.973 206.332 378.966 206.405C375.012 206.555 363.915 204.049 362.353 203.879C355.169 203.088 347.962 202.678 340.796 202.014C333.629 201.35 330.122 199.599 323.125 197.935C316.819 196.428 305.427 193.729 300.25 189.675L291.17 182.538C286.888 182.293 282.606 182.31 278.348 182.59C274.912 183.003 271.547 183.781 268.311 184.912C266.307 185.56 261.206 187.575 261.206 187.575C219.361 204.786 181.79 239.858 162.923 280.318C155.586 296.052 148.439 311.588 144.432 328.535C142.312 337.553 140.602 346.666 139.301 355.873C137.567 368.134 140.775 399.041 137.46 409.723C134.145 420.405 129.88 424.934 126.123 428.024C118.753 434.075 107.39 438.951 97.2447 433.171C95.1834 431.953 93.4336 430.274 92.1448 428.279C90.8559 426.284 90.0664 424.031 89.8437 421.712Z" fill="#D597C3"/>
<path d="M422.859 185.11C416.148 182.825 403.482 176.077 395.22 172.455C391.36 170.761 385.675 170.04 381.712 168.631C373.381 165.681 356.293 162.795 347.618 161.538" stroke="white" stroke-width="0.5" stroke-miterlimit="10"/>
<path d="M401.473 167.312L380.312 158.518C378.181 157.63 376.046 156.748 373.85 156.061C368.051 154.269 350.537 150.083 350.537 150.083" stroke="white" stroke-width="0.5" stroke-miterlimit="10"/>
<path d="M379.588 200.485C379.588 200.485 378.028 199.613 377.222 199.188C376.201 198.65 375.106 198.271 373.978 198.063C372.753 197.806 371.497 197.797 370.289 198.036C369.687 198.163 369.132 198.436 368.675 198.83C368.217 199.224 367.871 199.728 367.667 200.296C367.533 200.919 367.571 201.574 367.778 202.191C367.985 202.809 368.353 203.369 368.845 203.813C369.84 204.692 371.027 205.332 372.305 205.68C374.15 206.274 376.053 206.649 377.973 206.798C379.268 206.901 383.578 207.414 384.224 205.949C384.947 204.305 381.674 201.664 379.588 200.485Z" fill="#2FAD74"/>
<path d="M414.939 186.456C414.436 186.094 414.036 185.609 413.783 185.052C413.661 184.766 413.637 184.453 413.713 184.161C413.789 183.868 413.963 183.612 414.206 183.431C414.688 183.217 415.242 183.195 415.756 183.368C420.323 184.401 425.706 185.817 424.27 188.24C422.468 191.2 416.634 187.855 414.939 186.456Z" fill="#2FAD74"/>
<path d="M416.852 182.616C416.321 182.363 415.838 182.021 415.424 181.605C415.006 181.161 414.771 180.583 414.767 179.99C414.76 179.922 414.768 179.853 414.791 179.789C414.814 179.725 414.851 179.667 414.899 179.619C414.949 179.586 415.005 179.564 415.064 179.553C415.124 179.543 415.186 179.544 415.245 179.558L417.136 180.807C417.136 180.807 420.125 183.244 419.905 183.474C419.528 183.99 417.365 182.891 416.852 182.616Z" fill="#2FAD74"/>
<path d="M60.7127 334.861L150.748 305.26L417.612 520.005L40.3298 699.317L60.7127 334.861Z" fill="#ED603C"/>
</g>
<defs>
<clipPath id="clip0">
<rect width="1024" height="1366" fill="white"/>
</clipPath>
</defs>
</svg>
