<svg width="1024" height="1366" viewBox="0 0 1024 1366" fill="none" xmlns="http://www.w3.org/2000/svg">
<path d="M359.478 271.065C407.717 254.631 460.314 241.451 510.045 230.322C479.557 247.845 446.936 265.513 416.449 283.035C413.521 282.947 412.809 287.705 415.021 289.607C417.257 291.498 420.535 291.262 423.437 290.957C465.438 286.127 505.845 285.686 547.846 280.856C508.808 300.786 468.658 319.348 426.516 331.318C469.761 335.889 512.469 345.489 555.714 350.06C549.786 349.451 538.188 356.357 532.414 358.369C523.821 361.343 515.207 364.269 506.554 367.038C489.259 372.6 471.788 377.689 454.135 381.961C419.046 390.47 383.396 393.818 347.67 398.326C366.795 402.316 386.534 403.323 405.95 401.32C413.974 400.499 421.944 399.154 430.013 399.036C458.643 398.558 485.283 413.217 508.766 429.592C500.576 429.963 492.958 432.92 484.819 433.674C474.901 434.593 465.002 435.62 455.091 436.42C435.21 438.017 415.285 439.114 395.35 439.521C355.515 440.349 315.568 438.452 276.161 432.535C275.795 432.492 275.419 432.424 275.078 432.369C204.481 421.626 135.129 397.427 77.2227 355.638C106.795 354.866 131.795 346.947 161.368 346.175C193.913 345.329 227.251 344.312 257.529 332.37C293.666 318.148 325.392 289.686 359.478 271.065Z" fill="black"/>
<path d="M370.454 216.404C363.328 227.093 358.125 239.087 355.162 251.583C354.512 254.349 353.915 257.238 352.188 259.518C350.896 261.205 349.098 262.389 347.324 263.563C329.358 275.31 311.719 288.477 293.013 298.984C302.323 270.936 323.869 247.118 347.619 230.118C354.575 225.167 362.415 219.456 370.454 216.404Z" fill="#1D1D1B"/>
<path d="M191.236 386.741C206.391 395.37 221.779 404.071 238.677 408.39C261.583 414.236 285.697 411.671 309.157 408.666C298.321 392.935 281.774 381.76 263.97 374.886C246.167 368.012 227.04 365.151 208.019 363.601C199.78 362.925 172.939 359.334 167.047 367.205C161.834 374.175 186.019 383.772 191.236 386.741Z" fill="#EBFF00"/>
<path d="M292.518 360.025C304.509 369.823 320.155 374.252 335.608 375.239C351.062 376.225 366.512 374.006 381.82 371.79C370.93 364.202 359.915 356.523 347.568 351.705C340.616 348.998 333.364 347.201 326.098 345.438C314.146 342.529 302.207 339.585 290.255 336.676C267.9 331.169 285.608 354.352 292.518 360.025Z" fill="#EBFF00"/>
<path d="M359.961 338.962C382.904 340.429 405.551 346.677 426.019 357.163C412.953 359.418 400.922 363.594 387.945 359.453C376.741 355.873 366.675 348.65 359.961 338.962Z" fill="#EBFF00"/>
<path d="M385.45 426.037C370.238 431.072 354.399 430.397 339.431 424.663C335.278 423.083 331.008 420.831 328.969 416.86C348.803 415.688 367.294 418.016 385.45 426.037Z" fill="#EBFF00"/>
<path d="M366.599 327.476C383.441 327.6 400.301 322.632 414.378 313.379C398.691 306.455 380.709 306.102 363.952 309.639C347.229 313.19 331.542 320.396 316.46 328.264C333.581 325.233 349.245 327.371 366.599 327.476Z" fill="#EBFF00"/>
<path d="M240.32 356.186C248.562 357.669 257.027 357.265 265.408 356.868C262.849 348.499 257.112 341.133 249.581 336.625C249.12 336.362 248.178 335.788 247.628 335.652C247.628 335.652 246.612 335.976 245.549 336.322C240.233 337.991 233.618 339.529 228.919 340.555C225.542 341.296 217.458 342.577 217.458 342.577C219.71 349.373 234.334 355.111 240.32 356.186Z" fill="#EBFF00"/>
<path d="M268.332 376.694C265.874 378.424 261.909 381.674 259.476 383.394C255.005 386.545 250.389 389.76 245.089 391.133C235.659 393.575 225.843 389.797 216.833 386.075C215.617 379.205 213.897 370.906 212.706 364.025C217.041 364.226 232.031 366.078 236.394 367.077C250.806 370.393 262.233 373.356 268.332 376.694Z" fill="white"/>
<path d="M340.518 349.273C340.392 349.183 340.698 349.022 340.761 349.168C340.825 349.314 340.697 349.485 340.572 349.597C337.12 352.567 333.693 355.526 330.253 358.52C329.604 359.09 328.882 359.692 328.034 359.8C327.435 359.886 326.815 359.722 326.229 359.571C321.901 358.385 317.583 357.223 313.254 356.036C312.763 355.903 312.237 355.755 311.852 355.402C311.356 354.923 311.217 354.203 311.124 353.521C310.522 349.534 309.981 345.753 309.379 341.766C309.472 341.581 309.691 341.486 309.89 341.544C312.064 341.96 314.02 342.672 316.211 342.994C317.259 343.146 318.326 343.406 319.381 343.642C326.643 345.262 333.538 346.636 340.518 349.273Z" fill="white"/>
<path d="M368.866 267.577C368.959 267.392 368.959 267.392 368.959 267.392C369.075 267.458 369.054 267.611 369.048 267.73C368.508 271.084 367.955 274.474 367.416 277.828C367.321 278.476 367.188 279.17 366.758 279.645C366.443 279.984 366.04 280.187 365.602 280.377C362.555 281.814 359.533 283.24 356.486 284.676C356.121 284.834 355.767 285.017 355.377 284.984C354.868 284.944 354.435 284.612 354.051 284.258C351.797 282.259 349.512 280.187 347.268 278.212C347.268 278.212 347.491 278.058 347.591 277.957C348.656 276.946 350.071 275.812 351.484 274.94C352.172 274.526 353.918 273.422 354.606 273.008C359.186 270.243 363.118 268.249 368.866 267.577Z" fill="white"/>
<path d="M451.771 425.089C448.122 425.602 443.776 426.243 440.127 426.757C435.855 427.366 431.726 427.307 427.413 427.356C416.719 427.485 405.712 422.49 397.094 416.142C397.292 416.2 399.988 415.754 400.163 415.822C407.776 414.255 418.705 412.869 431.744 414.152C445.953 415.533 457.182 419.507 464.6 422.821C461.864 422.909 454.513 424.681 451.771 425.089Z" fill="#EBFF00"/>
</svg>
